<?xml version="1.0" encoding="utf-8"?>
<!-- Generator: Adobe Illustrator 22.0.1, SVG Export Plug-In . SVG Version: 6.00 Build 0)  -->
<svg version="1.1" id="Layer_1" xmlns="http://www.w3.org/2000/svg" xmlns:xlink="http://www.w3.org/1999/xlink" x="0px" y="0px"
	 viewBox="0 0 1144.3 1214.2" style="enable-background:new 0 0 1144.3 1214.2;" xml:space="preserve">
<style type="text/css">
	.st0{fill:#A0695F;}
	.st1{fill:#B2776B;}
	.st2{fill:#BC7F6C;}
	.st3{fill:#680100;}
	.st4{stroke:#680100;stroke-width:2.8865;stroke-linecap:round;stroke-linejoin:round;stroke-miterlimit:10;}
	.st5{fill:none;stroke:#680100;stroke-width:2.8865;stroke-linecap:round;stroke-linejoin:round;stroke-miterlimit:10;}
	.st6{fill:#EA4918;}
	.st7{fill:#F7931E;}
	.st8{fill:#CE8936;}
	.st9{fill:#EAD453;stroke:#E2A12E;stroke-width:2.1471;stroke-miterlimit:10;}
	.st10{fill:#F15A24;}
	.st11{fill:#FFFFFF;}
	.st12{fill:none;stroke:#D67822;stroke-width:3.6417;stroke-linecap:round;stroke-linejoin:round;stroke-miterlimit:10;}
	.st13{fill:#EFD2AF;}
	.st14{fill:#FF931E;}
	.st15{fill:#F4C484;}
	.st16{fill:none;stroke:#A0695F;stroke-width:3.1717;stroke-linecap:round;stroke-linejoin:round;stroke-miterlimit:10;}
	.st17{fill:none;stroke:#A0695F;stroke-width:3.1717;stroke-miterlimit:10;}
	.st18{fill:none;stroke:#A0695F;stroke-width:3.2265;stroke-linecap:round;stroke-linejoin:round;stroke-miterlimit:10;}
	.st19{fill:none;stroke:#A0695F;stroke-width:3.2265;stroke-miterlimit:10;}
	.st20{fill:#FFBA85;}
	.st21{fill:#EF9D78;}
	.st22{fill:#0084E0;}
	.st23{fill:#D88D71;}
	.st24{fill:none;stroke:#680100;stroke-width:3.4935;stroke-linecap:round;stroke-linejoin:round;stroke-miterlimit:10;}
	.st25{stroke:#680100;stroke-width:3.4935;stroke-linecap:round;stroke-linejoin:round;stroke-miterlimit:10;}
	.st26{fill:#2E86B7;}
	.st27{fill:#A6CFE8;}
	.st28{fill:none;stroke:#D88D71;stroke-width:3.4935;stroke-linecap:round;stroke-linejoin:round;stroke-miterlimit:10;}
	.st29{fill:#2E3192;}
	.st30{fill:#434BAA;}
	.st31{fill:none;}
	.st32{fill:#29ABE2;}
	.st33{fill:none;stroke:#0084E0;stroke-width:3.4935;stroke-linecap:round;stroke-linejoin:round;stroke-miterlimit:10;}
	.st34{fill:none;stroke:#256C84;stroke-width:3.4935;stroke-linecap:round;stroke-linejoin:round;stroke-miterlimit:10;}
	.st35{fill:#8DAFC6;}
	.st36{fill:#7794A0;}
	.st37{fill:#256C84;}
	.st38{fill:none;stroke:#7794A0;stroke-width:2.8311;stroke-linecap:round;stroke-linejoin:round;stroke-miterlimit:10;}
	.st39{fill:none;stroke:#004F5E;stroke-width:3.4935;stroke-linecap:round;stroke-linejoin:round;stroke-miterlimit:10;}
	.st40{fill:#F0B68D;}
	.st41{fill:#3FD18B;}
	.st42{fill:#009245;}
	.st43{fill:#39B54A;}
	.st44{fill:none;stroke:#006837;stroke-width:3.1104;stroke-linecap:round;stroke-linejoin:bevel;stroke-miterlimit:10;}
	.st45{fill:#91AF61;}
	.st46{fill:#218955;}
	.st47{fill:#25995F;}
	.st48{fill:#006837;}
	.st49{fill:#BDCCD4;stroke:#006837;stroke-width:4.6793;stroke-miterlimit:10;}
	.st50{fill:none;stroke:#680100;stroke-width:3.5994;stroke-linecap:round;stroke-linejoin:round;stroke-miterlimit:10;}
	.st51{fill:#680100;stroke:#680100;stroke-width:3.5994;stroke-linecap:round;stroke-linejoin:round;stroke-miterlimit:10;}
	.st52{stroke:#680100;stroke-width:3.4307;stroke-linecap:round;stroke-linejoin:round;stroke-miterlimit:10;}
	.st53{fill:none;stroke:#006837;stroke-width:3.6397;stroke-linecap:round;stroke-linejoin:round;stroke-miterlimit:10;}
	.st54{fill:#36D88B;}
	.st55{fill:none;stroke:#30B271;stroke-width:3.5994;stroke-linecap:round;stroke-linejoin:round;stroke-miterlimit:10;}
	.st56{fill:none;stroke:#30B271;stroke-width:3.1359;stroke-linecap:round;stroke-linejoin:round;stroke-miterlimit:10;}
	.st57{fill:none;stroke:#006837;stroke-width:3.5994;stroke-linecap:round;stroke-linejoin:round;stroke-miterlimit:10;}
	.st58{fill:none;stroke:#006837;stroke-width:3.3997;stroke-linecap:round;stroke-linejoin:bevel;stroke-miterlimit:10;}
	.st59{stroke:#680100;stroke-width:3.7119;stroke-linecap:round;stroke-linejoin:round;stroke-miterlimit:10;}
	.st60{fill:#0FA593;}
	.st61{fill:#E6E6E6;}
	.st62{fill:#097F71;}
	.st63{fill:none;stroke:#E8A272;stroke-width:3.6397;stroke-linecap:round;stroke-linejoin:round;stroke-miterlimit:10;}
	.st64{fill:#808080;}
	.st65{fill:none;stroke:#666666;stroke-width:3.6363;stroke-linecap:round;stroke-linejoin:round;stroke-miterlimit:10;}
	.st66{fill:#999999;}
	.st67{fill:#4D4D4D;}
	.st68{fill:#CCCCCC;}
	.st69{fill:none;stroke:#680100;stroke-width:3.2581;stroke-linecap:round;stroke-linejoin:round;stroke-miterlimit:10;}
	.st70{stroke:#680100;stroke-width:3.3599;stroke-linecap:round;stroke-linejoin:round;stroke-miterlimit:10;}
	.st71{fill:none;stroke:#680100;stroke-width:3.1225;stroke-linecap:round;stroke-linejoin:round;stroke-miterlimit:10;}
	.st72{stroke:#680100;stroke-width:3.22;stroke-linecap:round;stroke-linejoin:round;stroke-miterlimit:10;}
	.st73{stroke:#680100;stroke-width:2.9924;stroke-linecap:round;stroke-linejoin:round;stroke-miterlimit:10;}
	.st74{fill:#693A1E;}
	.st75{fill:none;stroke:#680100;stroke-width:3.6363;stroke-linecap:round;stroke-linejoin:round;stroke-miterlimit:10;}
	.st76{fill:#935733;}
	.st77{fill:none;stroke:#E6E6E6;stroke-width:3.6363;stroke-linecap:round;stroke-linejoin:round;stroke-miterlimit:10;}
	.st78{fill:#6BC437;}
	.st79{fill:#FF1D7E;}
	.st80{fill:#FFA90F;}
	.st81{fill:none;stroke:#D88D71;stroke-width:3.2;stroke-linecap:round;stroke-linejoin:round;stroke-miterlimit:10;}
	.st82{fill:none;stroke:#999999;stroke-width:3.6363;stroke-linecap:round;stroke-linejoin:round;stroke-miterlimit:10;}
	.st83{fill:none;stroke:#FFBA85;stroke-width:3.6363;stroke-miterlimit:10;}
	.st84{fill:#C1272D;}
	.st85{fill:#9E005D;}
	.st86{fill:#ED1E79;}
	.st87{fill:#FFFFFF;stroke:#680100;stroke-width:3.5528;stroke-linecap:round;stroke-linejoin:bevel;stroke-miterlimit:10;}
	.st88{stroke:#680100;stroke-width:3.5528;stroke-linejoin:bevel;stroke-miterlimit:10;}
	.st89{fill:#FFFFFF;stroke:#680100;stroke-width:3.3185;stroke-linecap:round;stroke-linejoin:bevel;stroke-miterlimit:10;}
	.st90{fill:none;stroke:#D4145A;stroke-width:3.3185;stroke-linecap:round;stroke-linejoin:bevel;stroke-miterlimit:10;}
	.st91{fill:none;stroke:#680100;stroke-width:3.3185;stroke-linecap:round;stroke-linejoin:bevel;stroke-miterlimit:10;}
	.st92{fill:#E5CFB1;stroke:#C1272D;stroke-width:3.3185;stroke-linecap:round;stroke-linejoin:round;stroke-miterlimit:10;}
	.st93{fill:#FF1D25;}
	.st94{fill:#FF7BAC;}
	.st95{fill:#E2B7C9;}
	.st96{fill:none;stroke:#DB4F88;stroke-width:3.5528;stroke-linecap:round;stroke-linejoin:round;stroke-miterlimit:10;}
	.st97{fill:none;stroke:#E8A272;stroke-width:3.5926;stroke-linecap:round;stroke-linejoin:round;stroke-miterlimit:10;}
	.st98{fill:#EAD453;}
</style>
<g>
	<path class="st0" d="M285.3,322c0,0-4.2,25.5-6.2,29.3c-5.1,9.8-39.2,13.5-39.2,13.5s20.7,38.9,50.2,48.4c29.5,9.5,71.3,6.7,91.9-8
		c20.7-14.7,38-37.1,38-37.1s-32.6-8.7-40.8-15.5c-8.2-6.9-11.3-34.6-11.3-34.6L285.3,322z"/>
	<path class="st1" d="M389.1,358.4c-2-1.7-10.7-4.8-12.4-8.9c-5.9,7.9-19.3,33.4-36.7,38.2c-24.3,6.7-71.1-5.3-94.6-15.1
		c8.6,12.2,25.9,34,44.4,40c29.5,9.5,71.3,6.7,91.9-8c20.7-14.7,38-37.1,38-37.1S397.3,365.3,389.1,358.4z"/>
	<path class="st1" d="M265.9,255.7c0,0-3.9-43.8-1.4-50c2.5-6.2,41-39,47.1-41c6.2-2,20.2-3.9,38.2,7.9c18,11.8,28.1,24.7,28.3,26.1
		c0.3,1.4,3.4,13.8,4.5,21.9c1.1,8.1,0.6,28.3,0.6,28.3s16.9-11.4,19.9-10.7c5.6,1.4,4.2,14,3.9,17.4c-0.3,3.9-2.8,18.2-7.9,22.7
		c-5.1,4.5-15.4,6.7-15.4,6.7s1.1,16.8-2.5,23.6c-3.6,6.7-39.3,35.9-48.5,36.2c-9.3,0.3-56.1-22.7-59.2-29.2
		c-3.1-6.5-3.6-17.1-3.6-17.1s-5.9,2-11.2-1.4c-5.3-3.4-11.8-17.1-13.2-23.9c-1.4-6.7-4.5-16.6-0.6-19.6
		C248.8,250.6,265.9,255.7,265.9,255.7z"/>
	<path class="st2" d="M333.3,335c16.7-2.3,33.3-24,40.8-36.2c7.6-12.4,6.8-25.7,7-34.8c0.3-9.7-4.2-41-5.9-46.4
		c-1.7-5.5-13.5-26.8-32-31c-18.5-4.2-42.7,3.9-57.8,14.9s-18.8,53.9-18.8,53.9s-17.1-5.1-21-2c-3.9,3.1-0.8,12.9,0.6,19.6
		c1.4,6.7,7.9,20.5,13.2,23.9c5.3,3.4,11.2,1.4,11.2,1.4s0.6,10.7,3.6,17.1c1.1,2.3,7.8,6.7,16.3,11.4
		C301.1,330,318.7,336.9,333.3,335z"/>
	<path class="st3" d="M280.1,211.1l0.3,9.8c0,0,9-4.5,14-5.9c5.1-1.4,15.4-3.9,15.4-3.9s2.2-9.8-1.7-11.2
		C305.9,199.1,286.3,204.4,280.1,211.1z"/>
	<path class="st3" d="M365.9,215.9l2.1,9.6c0,0-9.8-2.2-15-2.4c-5.2-0.2-15.9-0.1-15.9-0.1s-4.5-9-1-11.3
		C337.9,210.3,358.3,210.8,365.9,215.9z"/>
	<circle class="st4" cx="301.9" cy="239.1" r="6.7"/>
	<path class="st4" d="M290.9,234.8c0,0,7.1-2.7,10.4-2.4"/>
	<circle class="st4" cx="348" cy="238.3" r="6.7"/>
	<path class="st4" d="M358.9,233.9c0,0-7.1-2.7-10.4-2.4"/>
	<path class="st5" d="M323,241.7c0,0-1.6,9.8-3.2,12.8c-1.9,3.6-7.8,7.2-7.6,11.6c0.3,5.5,6.5,9.9,15.6,10.1
		c9.1,0.2,15.2-5.3,15.2-5.3"/>
	<path class="st5" d="M322.8,294.1c0,0,8.7,3.1,16.6-0.9c8.3-4.1,9.5-12.4,9.5-12.4"/>
	<path class="st5" d="M260.3,265.3c0,0-6.5-2.6-7.8,2.3c-1.3,4.8,5.1,14.5,7.2,16.8"/>
	<path class="st5" d="M391,254.2c0,0,4.9-5,7.8-3.2c4,2.5-0.4,14.3-6.9,20"/>
	<path class="st6" d="M265.9,252c0,0,3.8-38.5,6.1-42.7c2.3-4.2,32.8-33.9,47.6-34.7c14.7-0.8,51.4,18.5,53.9,24.6
		s9.3,41.3,9.3,41.3s2.7-25.5,2.5-40c-0.2-14.5-2.1-35.1-2.1-35.1s-0.4-8.4-4.2-9.1c-3.8-0.6-8,4.8-8,4.8s-1.1-12.4-6.1-13.7
		c-5.1-1.3-8,3.4-8,3.4s-1.1-9.1-6.1-10.1c-5.1-1.1-10.5,5.7-10.5,5.7s-3.6-10.1-8.8-10.3c-5.3-0.2-11.8,5.3-14.1,8.4
		c0,0-5.5-6.7-12-6.1c-6.5,0.6-10.5,12.6-10.5,12.6s-7.8-7.2-13.7-4.6s-3.6,11.4-3.6,11.4s-6.3-6.1-11.8-3.4
		c-5.5,2.7-2.5,12.2-2.5,12.2s-10.5-2.5-14.1,0.4c-3.6,2.9,7.6,13.3,7.6,13.3s1.1,18.5,2.9,35.1C261.5,232.1,265.9,252,265.9,252z"
		/>
	<path class="st7" d="M228,753.6c0,0,3.2,44.4,7.3,78.9c2.6,21.6,9.1,43.8,9,48.9c-0.3,13-15.5,56.4-16.4,87.4
		c-0.9,31,11.4,62.5,11.1,64.3c-0.3,1.8,5.2,10.9,5.2,18.5s7.6,4.6,7.6,9.1c0,4.6-3.6,10.9-4.6,14.6c-0.9,3.6,10.9,11.2,10.9,11.2
		s15.5-2.4,25.2-2.1c9.7,0.3,19.4-2.4,25.8-3.6s0.6-8.2-0.3-12.4c-0.9-4.2-6.1-11-3.6-14c7.4-9.1,1.1-17.8,1.1-17.8
		s-1.3-64.4,1.8-88.3c3.6-27.9,3.2-33.8,5.9-64.2c0,0,14.6-86.5,14.6-115.6c0,0,18,95.8,18.5,111.7c0.3,10.3-16.7,55.8-13,78.6
		c3.6,22.8,26.7,71.3,27.3,75.6c0.6,4.2-10.9,13.4-10.3,17c0.6,3.6,8.8,7.9,9.1,10c0.3,2.1-9.4,4.9-9.1,9.1s8.8,11.5,12.1,13.4
		c3.3,1.8,12.7,0,14.9,1.5s11.2,2.1,16.4,0.6c5.2-1.5,19.1-5.8,19.7-10c0.6-4.2-4.6-9.7-6.4-12.4s4.2-5.5,4.6-7.6s-4.6-6.1-5.8-9.7
		c-1.2-3.6-0.9-5.5,0.3-8.2c1.2-2.7-0.9-3-1.5-6.7c-0.6-3.6,4.9-75.6,6.4-88.6c1.5-13,11.5-43.1,12.4-47.9
		c0.9-4.9,3.6-51.9,1.8-80.7c-1.8-28.8-5.2-56.7-5.2-56.7l-41.3-15.8l-125.6,9.4L228,753.6z"/>
	<path class="st8" d="M221.4,774.1c0,0-0.6,4.9,8.9,7.1c0.3,0.1-0.7-15.5-0.7-15.5L221.4,774.1z"/>
	<path class="st8" d="M420.5,755.1c0,1.5,1.5,21.3,1.5,21.3s11.5-0.6,13.6-6.5C437.7,764,420.5,755.1,420.5,755.1z"/>
	<path class="st9" d="M249.5,364.6c0,0-10.2-7.7-14.4-1.3c-14.7,22.5-46.6,89-51.1,105.3c-5.8,20.9,12.4,30.2,26.2,74.6
		c3.2,10.2,5.5,27.9,7.1,49.1c5.6,71.1,4,181.8,4,181.8s9.1-7.5,31.5-14.7c23.5-7.5,94.1-14.7,141.2-7.5
		c38.2,5.8,41.7,16.9,41.7,16.9s-0.4-198.1,1.8-222.5c2.2-24.4,21.7-57.2,26.6-86.6c5.8-34.3-64.2-111.2-73.9-100.7
		c0,0-0.7,6.7-3.6,10.7c-10.1,14.2-33.8,45.2-64.7,43.8C282.7,411.7,269.9,385.9,249.5,364.6z"/>
	<path class="st10" d="M247.3,363.4l15.4-3.3c0,0,9.8,26.9,24,34.9c22.4,12.6,60.7,7.3,75.5-3.4c10.7-7.7,19.1-38.2,19.1-38.2
		l11.4,4.3c0,0-8,25-12.3,31.1c-9.6,13.5-27.7,24.9-47.8,26.4c-23.9,1.8-48.3-1.8-60.7-13.6C255.3,385.8,251.3,370.5,247.3,363.4z"
		/>
	<g>
		<g>
			<path class="st11" d="M260.7,487.7c10-6,16.9-12.1,21.3-18.8C277.6,475.6,270.7,481.8,260.7,487.7z"/>
			<path class="st11" d="M281.5,433.6c0.6,0.4,1.1,0.8,1.6,1.3C282.6,434.4,282.1,434,281.5,433.6z"/>
			<polygon class="st11" points="240.5,481.7 240.5,481.7 240.5,481.7 			"/>
			<path class="st11" d="M256.5,490.1C256.5,490.1,256.5,490.1,256.5,490.1c1.4-0.8,2.8-1.6,4.2-2.4
				C259.3,488.5,257.9,489.3,256.5,490.1C256.5,490.1,256.5,490.1,256.5,490.1z"/>
			<path class="st11" d="M283.9,435.6c0.5,0.5,1,1.1,1.4,1.7C284.9,436.7,284.4,436.1,283.9,435.6z"/>
		</g>
		<g>
			<path class="st11" d="M258.8,454.6c-0.3-0.7-0.5-1.3-0.7-2C258.3,453.2,258.5,453.9,258.8,454.6z"/>
			<path class="st11" d="M257.6,451.1c-0.1-0.5-0.3-1-0.4-1.5C257.4,450.2,257.5,450.6,257.6,451.1z"/>
			<path class="st11" d="M259.5,456.2c-0.2-0.4-0.4-0.8-0.5-1.2C259.1,455.4,259.3,455.8,259.5,456.2z"/>
			<path class="st11" d="M295.9,482.5c1-0.3,2-0.6,3-0.8c0,0,0,0,0,0C297.9,481.9,296.9,482.2,295.9,482.5z"/>
			<path class="st11" d="M262.6,475.3c2.6,2.7,5.7,5.4,9.4,8C268.3,480.7,265.2,478,262.6,475.3z"/>
			<path class="st11" d="M282.9,490.1C282.9,490.1,282.9,490.1,282.9,490.1c-4.1-2.2-7.7-4.5-10.9-6.8
				C275.2,485.6,278.8,487.9,282.9,490.1z"/>
			<path class="st11" d="M295.6,482.6c0.1,0,0.2-0.1,0.3-0.1C295.8,482.6,295.7,482.6,295.6,482.6z"/>
			<g>
				<path class="st11" d="M277.5,474.6c-0.5-0.3-1-0.5-1.5-0.8c-0.7-0.4-1.4-0.8-2.1-1.2c-1.5-0.9-2.9-1.7-4.2-2.7
					c-2.3,1.6-5,3.2-7.8,4.6c0.2,0.2,0.4,0.4,0.6,0.7c2.1,2.2,4.4,4.3,7.1,6.3C272.7,479.4,275.3,477,277.5,474.6z"/>
				<path class="st11" d="M294.5,481c-0.3-0.1-0.5-0.1-0.8-0.2c-1.4-0.3-2.9-0.8-4.5-1.3c-0.4-0.1-0.9-0.3-1.3-0.4
					c-2.1-0.7-4.2-1.6-6.3-2.5c-2.3,2.7-5.1,5.2-8.2,7.7c3,2,6.5,4.1,10,6c-0.2,0.2-0.4,0.3-0.6,0.5c5.1-4.2,10.5-7.1,16.1-9.1h0
					C297.6,481.6,296.1,481.4,294.5,481z"/>
				<path class="st11" d="M279.9,493.4c-3.7-2.1-7.1-4.2-10.1-6.3c-3.1,2.2-6.5,4.3-10.3,6.4l-0.2-0.2c3.5,3.4,6.8,7.5,10.5,12.5
					c3.5-5.3,7.1-9.6,11-13.1C280.4,492.9,280.1,493.2,279.9,493.4z"/>
				<path class="st11" d="M260.7,487.7c1.9-1.1,3.7-2.3,5.3-3.4c-3.1-2.5-5.8-5-8.2-7.7c-6.3,2.8-12.9,4.8-17.3,5.1h0
					c6.5,2.3,11.4,5.1,15.7,8.8l-0.1-0.1C257.5,489.6,259.3,488.5,260.7,487.7z"/>
			</g>
			<path class="st11" d="M295.6,482.6"/>
		</g>
		<g>
			<path class="st11" d="M264.3,459.7l-8.5-30c-2.7,0.5-5.3,1-7.7,1.7L264.3,459.7z"/>
			<g>
				<path class="st11" d="M256.7,446.5l7.6,13.3l-6.1-21.5C256.8,440.6,256.4,443.4,256.7,446.5z"/>
				<path class="st11" d="M264.4,464.3c-0.1-0.1-2.5-3.7-2.6-3.8l-0.6-1c1.5,2.7,3.3,5.2,5,7.1L264.4,464.3z"/>
				<path class="st11" d="M229.7,438.7c7.4,14.7,12.3,27.3,11.5,38.6c3.7-0.4,8.8-2,13.8-4.2c-5.5-7.6-8.1-16-8.1-25.7
					c0-3.5,0.7-6.6,1.9-9.4l-3.3-5.7C240.2,433.9,234.9,436,229.7,438.7z"/>
				<path class="st11" d="M261.2,459.6l-9.6-16.5c-0.2,0.9-0.3,1.8-0.4,2.8c0,0.5-0.1,1-0.1,1.6c0,1.7,0.1,3.5,0.3,5.1
					c0.6,5,2.1,9.8,4.6,14.3c0.3,0.5,0.6,1,0.9,1.5c0.6,1,1.3,2,2,2.9c2.7-1.3,5.2-2.8,7.4-4.2l-0.2-0.2
					C264.5,464.7,262.7,462.3,261.2,459.6z"/>
			</g>
		</g>
		<g>
			<path class="st11" d="M268.3,428.5c-3.5,0.1-6.8,0.3-9.8,0.8l9.8,34.2"/>
			<g>
				<path class="st11" d="M268.3,463.6l0-1.1c-0.2-0.2-0.3-0.4-0.5-0.7L268.3,463.6z"/>
				<path class="st11" d="M268.3,437"/>
			</g>
		</g>
		<g>
			<path class="st11" d="M280.9,429.4c-3.4-0.5-6.7-0.7-9.8-0.8l0,35L280.9,429.4z"/>
			<path class="st11" d="M279.4,432.3c0.2,0.1,0.4,0.2,0.5,0.3l0.2-0.8h-1.9C278.6,431.9,279,432.1,279.4,432.3z"/>
		</g>
		<g>
			<path class="st11" d="M291.1,431.5c-2.6-0.7-5.1-1.2-7.6-1.7l-8.4,29.7L291.1,431.5z"/>
			<g>
				<path class="st11" d="M276.7,462c-1.2,1.8-2.5,3.5-3.7,4.9c2.2,1.5,4.7,2.9,7.4,4.2c0.6-0.7,1.1-1.5,1.6-2.2
					c4.4-6.6,6.3-13.8,6.3-21.6c0-0.5,0-1.1-0.1-1.6c-0.1-1-0.2-1.9-0.4-2.8l-10.3,17.9C277.5,460.9,277.1,461.4,276.7,462z"/>
				<path class="st11" d="M310,438.7c-5.4-2.7-10.8-4.8-16.2-6.4l-3.2,5.6c1.3,2.8,2,6,2,9.5c0,9.7-2.6,18.1-8.1,25.7
					c5.1,2.2,10.3,3.8,14,4.2C297.8,464.8,301.8,452,310,438.7z"/>
				<g>
					<path class="st11" d="M281.2,438.2l-6.1,21.3l7.6-13.3l0,0C283,443.2,282.6,440.4,281.2,438.2z"/>
					<path class="st11" d="M276.9,461.8c-2.3,3.6-4.9,6.6-7.2,8.2c-8.5,6-21.7,11.2-29.2,11.7c0,0,0,0,0,0c5.2,1,10.6,4.2,16,8.4
						c0,0,0,0,0,0c1.4-0.8,2.8-1.6,4.2-2.4c10-6,16.9-12.1,21.3-18.8c4.4-6.6,6.3-13.8,6.3-21.6c0-0.5,0-1.1-0.1-1.6
						c-0.1-1-0.2-1.9-0.4-2.8l-10.3,17.9C277.5,460.9,277.2,461.3,276.9,461.8z"/>
				</g>
			</g>
		</g>
	</g>
	<line class="st12" x1="333.6" y1="770" x2="352.8" y2="759.4"/>
	<path class="st12" d="M285.7,756.1c0,0-0.6,40.7-5.5,48.6c-4.9,7.9-41.3,23.1-41.3,23.1"/>
	<path class="st12" d="M386.4,754.2c0,0-3,38.2,0.6,48.6c3.6,10.3,39.5,27.3,39.5,27.3"/>
	<path class="st13" d="M346.8,1117.3c0,0-4.8,5.1-6.8,9.2c-2.1,4.3-2.4,12.7-2.4,12.7s2.8,6.6,8.3,6.8c5.5,0.3,15,5.3,17.8,8
		c2.8,2.7,18.2,3.8,24.2,5s32.5,19.2,41.4,23.7c12.5,6.2,35,3,40.1,2.2c10.2-1.6,17.1-11.3,17.1-11.3l0.4-9.1c0,0-1.7,7.4-9,9.7
		c-7.3,2.3-17.5,4-26,3.6c-15.2-0.7-51.7-21.7-55.2-22.7c-3.6-1-17.7-17.5-27.6-24S346.8,1117.3,346.8,1117.3z"/>
	<polygon class="st2" points="302.5,1094 302.5,1106.3 279.3,1114.9 263.8,1114.9 265.6,1089.4 	"/>
	<polygon class="st2" points="353.6,1080.1 353.7,1093.2 380,1112.5 412.5,1108.4 404.2,1083.7 	"/>
	<path class="st14" d="M352.8,1084.9c-3.5,4.7-6.8,12.4-7.3,19.4c-0.4,7,1.6,13.6,1.6,13.6s23,13.6,29,19.5
		c6.1,5.8,10.9,12.3,16.3,15.6s35.7,20,49.3,24.2c6.4,2,23.4,1.9,34.3-1.5c4.9-1.5,10-5.3,10.3-8c0.3-2.7,1.9-9.6-2.8-14
		s-20.8-8.3-24.8-10.9c-4-2.6-33.9-36.6-34.1-43s-19-4.8-27.7-3.9c-8.4,0.9-28.8,3.6-35.1-0.4C358.2,1092.9,354.9,1082,352.8,1084.9
		z"/>
	<path class="st10" d="M349.2,1091.2c0,0,17.5,8.6,21.4,15.4c3.8,6.8,11.1,36,11.1,36s-19.8-17.1-25.1-19.2c-3.4-1.3-6.3-3.3-8-4.5
		c-0.9-0.7-1.5-1.1-1.5-1.1S342.2,1100.8,349.2,1091.2z"/>
	<path class="st15" d="M257.3,1101.8l-5-15c0,0,12.8-7.9,20.9-5.4c8.1,2.5,26.6-0.8,30.7-1.8s8.7-0.1,8.7-0.1s5.6,4.2,5,9.6
		c-0.6,5.4,0.7,8.4-5.1,10c-5.8,1.7-16.7-3.6-23.7-2.6C281.8,1097.4,257.3,1101.8,257.3,1101.8z"/>
	<path class="st15" d="M348.5,1068.9c0,0,3,11.8,3.3,13c0.3,1.2,3,1.2,12.7,2.4c9.7,1.2,11.5,1.8,20,2.4c8.5,0.6,8.8,0,16.4-1.8
		c7.6-1.8,11.5-5.5,12.4-6.4c0.9-0.9-1.2-12.4-1.5-14s-8.2,3.9-14.9,4.6c-6.7,0.6-25.5,6.1-30.7,2.4
		C361.2,1068,348.5,1068.9,348.5,1068.9z"/>
	<path class="st10" d="M404.2,1114.2c0,0-3.8-15.4-2.3-24.1c1.5-8.7,4.1-15.1,9.1-19.8c5.1-4.6,8.2-11.3,18.1-4.2
		c9.9,7.2,14.2,9.8,15.2,14.5c1,4.7-14.7,11.8-16.6,18.4c-1.9,6.5-2.9,12.5-2.9,12.5L404.2,1114.2z"/>
	<path class="st15" d="M400.9,1133.7l-4.3-5c0,0,10.6-10.5,25.9-13.7c15-3.2,16.9,1.8,16.9,1.8l3.4,5.2c0,0-12.4-1.3-20,1.5
		C415.1,1126.4,405.2,1130.8,400.9,1133.7z"/>
	<path class="st15" d="M414.1,1147l-4.3-5c0,0,10.6-10.5,25.9-13.7c15-3.2,16.9,1.8,16.9,1.8l3.4,5.2c0,0-12.4-1.3-20,1.5
		C428.4,1139.7,418.4,1144.1,414.1,1147z"/>
	<path class="st14" d="M261.9,1094.2l11.5,2.6l20.4,0.5l14.1-5.8c0,0,4.2,14.1,4.2,20.4c0,6.3-2.1,19.9-1,24.1
		c1,4.2,8.9,17.8,9.4,24.1c0.5,6.3-3.4,16.8-4.5,18.3c-1,1.6-3.4,8.9-11.3,7.9c-7.9-1-44.5,0.5-48.7-2.1
		c-4.2-2.6-16.2-20.4-16.2-24.1s4.2-26.2,6.8-38.2S261.9,1094.2,261.9,1094.2z"/>
	<path class="st10" d="M254.7,1080.8c-3.4-5.6,9.3-13.8,16.8-14.2c7.6-0.3,19.7,6.8,21.8,17.3s-1.8,26.8-1.8,26.8s-18.1,2.8-19.6-1
		c-1.5-3.8,1.8-11.5-5.5-15.7C259.3,1089.8,256.8,1084.3,254.7,1080.8z"/>
	<path class="st15" d="M258.7,1120.9c0,0,17.2-6.5,32.6-2.9c15.4,3.7,11.5,1.2,11.5,1.2l0.6,12.6c0,0-12-5-24.7-3.6
		c-12.7,1.4-20.4,4.8-20.4,4.8L258.7,1120.9z"/>
	<path class="st15" d="M258.7,1139.8c0,0,17.2-6.5,32.6-2.9c15.4,3.7,11.5,1.2,11.5,1.2l0.6,12.6c0,0-12-5-24.7-3.6
		c-12.7,1.4-20.4,4.8-20.4,4.8L258.7,1139.8z"/>
	<circle class="st11" cx="298.9" cy="236.8" r="2.5"/>
	<circle class="st11" cx="345.3" cy="235.8" r="2.5"/>
	<path class="st13" d="M320.6,1160.2c0,0-0.2,1.2-0.6,2.9c-1.1,4.9-3.8,14.4-7.3,14.4c-4.7,0-18.9-17.8-30.9-16.8
		c-12.1,1-23.1,15.2-29.3,15.2c-6.3,0-13.1-20.4-13.1-20.4s1,22.5,4.7,26.2c3.7,3.7,25.7,9.4,38.2,8.9s30.9-2.3,34.3-6.8
		C320.8,1178.3,321.8,1171.7,320.6,1160.2z"/>
	<path class="st2" d="M172,130c0,0,33.3-9.5,38.6-19c2.6-4.7,11.7-16.3,2.9-27.2c-4.5-5.6,1-16.5-1.1-21.9
		c-2.9-7.7-55.8-21.1-63.7-10.8c-14.8,19.2-13,53.7-14.5,59.5c-1.6,5.8-65.7,112.4-67.8,137.8c-2.1,25.4,52.8,137.1,77.6,168.3
		s92-47,92-47s-8.6-34.2-33.9-59.5c-20.6-20.6-64.2-58-64.2-58s12.3-19.3,21.3-52.6S172,130,172,130z"/>
	<path class="st16" d="M175.7,111.5c0,0,0-12.2,3.7-14.8s14.8-3.2,14.8-3.2s-16.9-5.8-16.9-10.6s1.1-10.6,5.8-11.6
		s17.4,6.3,17.4,6.3s10.8,5.4,11.9,8.1"/>
	<path class="st17" d="M157.7,49.6c-2.1,1.6-14,10.3-10.3,19.3c1.1,2.8,7.7,4.5,8.7,3.4"/>
	<path class="st17" d="M169.9,49.4c-2.1,1.6-12.2,9.8-12.2,19.6c0,3.5,2.9,10.3,10.3,6.3"/>
	<path class="st17" d="M181.2,51.2c-2.1,1.6-15.6,17.2-11.9,26.2c1.1,2.8,6.9,4.5,7.9,3.4"/>
	<path class="st17" d="M194.7,54.4c-2.6-0.5-12.4,9.3-10.6,15.9c0.8,2.9,15.9,2.6,16.9,1.6"/>
	<path class="st2" d="M465.3,84.9c0,0-34.6-6.9-40.7-16.1c-3.1-4.6-13.3-15.5-5.2-27.4c4.1-6-2.4-16.7-0.8-22.3
		c2.3-8,54.8-26.1,63.7-16.3C498.8,21,499.9,56.1,502,61.9s57,116.7,61.2,142.3s-42.9,151.9-65.4,185.6
		c-22.6,33.7-92.5-30.1-92.5-30.1c-3.6-8.4,20.5-55.4,39.7-88.5c16.5-28.3,52.4-68.1,53.6-67c0,0-3.9-7.2-15.8-40.2
		S465.3,84.9,465.3,84.9z"/>
	<path class="st18" d="M460,66.4c0,0-1-12.3-5-14.7s-15.3-2-15.3-2s16.7-7.3,16.3-12.1s-2-10.6-6.9-11.3c-4.9-0.7-17.2,7.9-17.2,7.9
		s-10.5,6.4-11.4,9.2"/>
	<path class="st19" d="M473,2.2c2.3,1.4,15.1,9.3,12.1,18.7c-0.9,2.9-7.4,5.2-8.6,4.2"/>
	<path class="st19" d="M460.7,3c2.3,1.4,13.2,8.9,14,18.8c0.3,3.6-2.1,10.7-9.9,7.3"/>
	<path class="st19" d="M449.3,5.8c2.3,1.4,17.2,16.1,14.3,25.5c-0.9,2.9-6.6,5.1-7.8,4.1"/>
	<path class="st19" d="M435.9,10.1c2.6-0.7,13.4,8.3,12,15.2c-0.6,3-15.9,4-17,3"/>
	<path class="st7" d="M422.5,302.7l-30,55c0,0,3.1,3.1,7.8,8c9.7,10.2,26.1,28.2,35.3,42.6c15.8,24.7,25.4,60.3,25.4,60.3
		l59.1-109.2C501.1,319.6,469.9,301.7,422.5,302.7z"/>
	<path class="st10" d="M426.8,293.5c0,0,34,3.7,55.2,14.1c21.2,10.4,45.8,43.1,45.8,43.1l-6.6,14.5c0,0-15.4-31.1-43.6-44.1
		c-28.2-12.9-58.2-16.7-58.2-16.7L426.8,293.5z"/>
	<path class="st7" d="M209.1,315.6l35.2,46.1c0,0-25.4,34.2-34.9,52.1c-12,22.6-23.9,76.5-23.9,76.5c-17.3-29.5-35.7-67.2-62.2-93.1
		C133,352,160.5,326.1,209.1,315.6z"/>
	<path class="st10" d="M205.5,310.2c0,0-33.6,12-52.7,27.7c-19,15.7-36.1,54.9-36.1,54.9l10.2,13.1c0,0,8.1-35.3,33.6-55.2
		c25.5-19.9,55.1-31,55.1-31L205.5,310.2z"/>
</g>
<g>
	<path class="st20" d="M801.1,505.9c16,0,32.8-8.4,39-16c10.8-13.1,17.1-30.4,18-42.8c1.1-13.7-8.7-56.2-30-68.1
		c-19.6-11-28.5-9.3-28.5-9.3l-19.2,9.6l-38.1,46c0,0,5.8,36.4,11.9,50.9C761.2,492.8,786.6,505.9,801.1,505.9z"/>
	<path class="st21" d="M827.9,378c-19.6-11-28.5-9.3-28.5-9.3l-19.2,9.6l-11.3,13.6c16.6,0.4,49.2,6.1,61.6,17.6
		c14.8,13.7,14.5,29.9,14.2,40.1c-0.3,11.3,0.6,15-7.3,28.7c-6.4,11.1-15.4,17.1-22.4,19.7c-7,2.6-18.9,2.7-29.8-0.3
		c-7.3-2-18.6-10.8-24.1-17.5c-3.8-4.6-9.2-15.1-12.3-21.2c1.6,6.3,3.3,12.1,5,16.3c7,16.6,32.3,29.7,46.9,29.7c16,0,32.8-8.4,39-16
		c10.8-13.1,17.1-30.4,18-42.8C859,432.4,849.2,389.9,827.9,378z"/>
	<path class="st22" d="M811.5,370.5c0,0-11.9,17.8-37.8,34.9c-11.4,7.5-21,28.5-23,41c-1.6,9.8-0.1,21.6,5.2,31.2
		c8.4,15.1,22.5,20.4,29.1,23.6c6.6,3.2,2,25.9,2,25.9s-7,9.1-18.3,12.2c-11.3,3.1-42.2,18.3-42.2,18.3s-13.3-57.8-9-92
		s18.3-70.2,32.9-80.4c14.6-10.1,11-14.2,21.5-16.1S811.5,370.5,811.5,370.5z"/>
	<path class="st22" d="M808.9,367.3c-8.5,15.3,16,33.9,23.1,45.5c7.5,12.3,17.8,20,19.4,29.4c2.6,16.2-2.6,48.9-32.3,59.4
		c0,0-1,22.5,4.7,25.3c38.6,19.4,51.8,33.2,50.5,32.7l-60.5,133.6c0,0,30,5.3,53.1-22.5c23.2-27.8,40.9-72.5,41.2-127.8
		c0.3-55.4-45.6-163.7-45.6-163.7L808.9,367.3z"/>
	<path class="st23" d="M785.8,501.8c0,0-2.3,14.6-5.4,20.2s-12.7,9.8-12.7,9.8l-4.3,21.1c0,0,31.3,20.1,50.7,16.6
		c19.4-3.5,24.8-39.4,24.8-39.4S827,525,824,519.3c-3-5.7-4.7-18-4.7-18C808.2,504.9,797.1,505.1,785.8,501.8z"/>
	<path class="st21" d="M826.6,522.4c-1.9,4.9-6.8,11.8-19.7,16.9c-11.5,4.5-28.3,4.9-41.6,4.3l-9.7,15c0,0,41.2,21.6,60.6,18
		s22.8-46.5,22.8-46.5S830.2,527.4,826.6,522.4z"/>
	<path class="st24" d="M765.7,413.8c0,0,5.8-1.7,8.2-1.4s7.4,2.9,7.4,2.9"/>
	<path class="st24" d="M819.1,414.4c0,0,9.3-1.1,14.8,2.9"/>
	<path class="st24" d="M800,426.9c0,0-0.5,10.2-3.3,15.4c-2.8,5.2-6.9,8.9-4.5,12.8c2.4,4,10.7,2.2,10.7,2.2"/>
	<path class="st24" d="M788,471.3c0,0,2.4,5.8,9.3,6.1c6.9,0.3,10.9-4.1,10.9-4.1"/>
	<circle class="st25" cx="773.5" cy="436.8" r="6.2"/>
	<path class="st25" d="M763.9,428.6c0,0,7,0.2,10.2,2.1"/>
	<circle class="st25" cx="822.4" cy="437.2" r="6.2"/>
	<circle class="st11" cx="770.9" cy="434.8" r="2.6"/>
	<circle class="st11" cx="824.9" cy="435.4" r="2.6"/>
	<path class="st25" d="M833.7,431.4c0,0-6.9-1.4-10.4-0.4"/>
	<path class="st26" d="M846.7,1039.2c0,0,29.8,33.7,30.3,44.8c0.5,11.1-6.5,41.1-9.9,48c-7.8,15.8-22.1,16.1-36.4,14.3
		c-14.3-1.8-15-12.2-15.9-15.2c-0.9-3,0.1-10.6,3.8-15.8c3.7-5.2,19.3-20,19.2-33.9s-18.7-37.6-18.7-37.6l22.7,4.9l4.9-1.4V1039.2z"
		/>
	<path class="st27" d="M877,1081.2l3.8,6.7c0,0-9.3,51.8-12.9,57.6s-15.8,12.3-35.2,10.2c-18.7-2.1-23.8-7.3-25.5-9.5
		s1.4-11.5,1.4-11.5s1.4,6.8,7.5,8.7s28,4.4,37.1,1.6c9.1-2.8,11.8-10.3,14.3-18.1C870,1119.1,877,1081.2,877,1081.2z"/>
	<path class="st28" d="M690.6,373.6"/>
	<path class="st29" d="M742.2,367c0,0,13.5-31.4,24.6-39.8c11-8.4,53.1-7.8,67.5-2.1c7.2,2.8,32.8,35.1,32.8,35.1L742.2,367z"/>
	<path class="st30" d="M723.8,435.6c0,0,3.9-22.3,18.2-37.5c22.2-23.6,78.2-29.8,113.5-3.3c24.7,18.5,26.7,37.3,26.7,37.3
		s68.3-33.9-5.3-69.8s-150-12.2-178.1,25.5C676.8,417.3,711.5,434.5,723.8,435.6z"/>
	<path class="st27" d="M753.1,685.2l-1.6-90.8l17.2-30.9c0,0,30.1,12.3,44.9,8.2c14.8-4,19.6-17.3,19.6-17.3l5,29.2l5.9,111.4
		c0,0-37.1,7.4-62.9,3.3C755.5,694.2,753.1,685.2,753.1,685.2z"/>
	<g>
		<g>
			<path class="st31" d="M782.9,632.8c8.5-5,14.3-10.3,18-15.9C797.2,622.5,791.4,627.8,782.9,632.8z"/>
			<path class="st31" d="M800.5,587c0.5,0.3,0.9,0.7,1.4,1.1C801.5,587.7,801,587.3,800.5,587z"/>
			<polygon class="st31" points="765.9,627.7 765.9,627.7 765.9,627.7 			"/>
			<path class="st31" d="M779.4,634.8C779.4,634.8,779.4,634.8,779.4,634.8c1.2-0.7,2.4-1.3,3.5-2
				C781.8,633.5,780.6,634.1,779.4,634.8C779.4,634.8,779.4,634.8,779.4,634.8z"/>
			<path class="st31" d="M802.6,588.7c0.4,0.4,0.8,0.9,1.2,1.4C803.4,589.6,803,589.2,802.6,588.7z"/>
		</g>
		<g>
			<path class="st11" d="M781.3,604.7c-0.2-0.6-0.4-1.1-0.6-1.7C780.9,603.6,781.1,604.2,781.3,604.7z"/>
			<path class="st11" d="M780.3,601.8c-0.1-0.4-0.2-0.8-0.3-1.2C780.1,601,780.2,601.4,780.3,601.8z"/>
			<path class="st11" d="M781.9,606.1c-0.2-0.3-0.3-0.7-0.4-1C781.6,605.4,781.8,605.8,781.9,606.1z"/>
			<path class="st11" d="M812.7,628.4c0.8-0.3,1.7-0.5,2.5-0.7c0,0,0,0,0,0C814.4,627.9,813.6,628.1,812.7,628.4z"/>
			<path class="st11" d="M784.5,622.3c2.2,2.3,4.9,4.6,8,6.8C789.4,626.9,786.7,624.6,784.5,622.3z"/>
			<path class="st11" d="M801.7,634.8C801.7,634.8,801.7,634.8,801.7,634.8c-3.5-1.9-6.5-3.8-9.2-5.7
				C795.2,631,798.3,632.9,801.7,634.8z"/>
			<path class="st11" d="M812.4,628.5c0.1,0,0.2-0.1,0.3-0.1C812.6,628.4,812.5,628.5,812.4,628.5z"/>
			<g>
				<path class="st11" d="M797.1,621.7c-0.4-0.2-0.9-0.4-1.3-0.7c-0.6-0.3-1.2-0.7-1.8-1c-1.2-0.7-2.4-1.5-3.5-2.2
					c-2,1.4-4.2,2.7-6.6,3.9c0.2,0.2,0.3,0.4,0.5,0.5c1.7,1.8,3.8,3.6,6,5.4C793.1,625.7,795.3,623.7,797.1,621.7z"/>
				<path class="st11" d="M811.5,627.1c-0.2,0-0.4-0.1-0.7-0.2c-1.2-0.3-2.5-0.7-3.8-1.1c-0.4-0.1-0.7-0.2-1.1-0.4
					c-1.8-0.6-3.6-1.3-5.3-2.1c-2,2.2-4.3,4.4-6.9,6.5c2.5,1.7,5.5,3.5,8.4,5.1c-0.2,0.1-0.3,0.3-0.5,0.4c4.3-3.5,8.9-6,13.6-7.7h0
					C814.1,627.6,812.9,627.4,811.5,627.1z"/>
				<path class="st11" d="M799.1,637.6c-3.1-1.7-6-3.5-8.5-5.3c-2.6,1.8-5.5,3.6-8.7,5.4l-0.2-0.2c2.9,2.9,5.7,6.4,8.8,10.6
					c2.9-4.5,6-8.1,9.3-11.1C799.6,637.2,799.3,637.4,799.1,637.6z"/>
				<path class="st11" d="M782.9,632.8c1.6-1,3.1-1.9,4.5-2.9c-2.6-2.1-4.9-4.3-6.9-6.5c-5.4,2.4-10.9,4.1-14.7,4.3h0
					c5.5,2,9.6,4.3,13.3,7.4L779,635C780.2,634.3,781.8,633.5,782.9,632.8z"/>
			</g>
			<path class="st11" d="M812.4,628.5"/>
		</g>
		<g>
			<path class="st11" d="M786,609.1l-7.2-25.3c-2.3,0.4-4.5,0.9-6.5,1.4L786,609.1z"/>
			<g>
				<path class="st11" d="M779.6,597.9l6.4,11.2l-5.2-18.2C779.6,592.9,779.3,595.3,779.6,597.9z"/>
				<path class="st11" d="M786.1,613c-0.1-0.1-2.1-3.1-2.2-3.2l-0.5-0.8c1.3,2.3,2.8,4.4,4.2,6L786.1,613z"/>
				<path class="st11" d="M756.7,591.3c6.2,12.4,10.4,23.1,9.7,32.6c3.1-0.3,7.4-1.7,11.7-3.5c-4.7-6.4-6.9-13.5-6.9-21.7
					c0-2.9,0.6-5.6,1.6-7.9l-2.8-4.8C765.6,587.3,761.1,589.1,756.7,591.3z"/>
				<path class="st11" d="M783.4,609l-8.1-14c-0.2,0.7-0.3,1.5-0.3,2.3c0,0.4,0,0.9,0,1.3c0,1.5,0.1,2.9,0.2,4.3
					c0.5,4.2,1.7,8.2,3.9,12c0.2,0.4,0.5,0.8,0.8,1.3c0.5,0.8,1.1,1.7,1.7,2.5c2.2-1.1,4.4-2.3,6.2-3.6l-0.2-0.2
					C786.1,613.4,784.7,611.3,783.4,609z"/>
			</g>
		</g>
		<g>
			<path class="st11" d="M789.4,582.8c-2.9,0.1-5.7,0.3-8.3,0.7l8.3,28.9"/>
			<g>
				<path class="st11" d="M789.4,612.4l0-0.9c-0.1-0.2-0.3-0.4-0.4-0.6L789.4,612.4z"/>
				<path class="st11" d="M789.4,589.9"/>
			</g>
		</g>
		<g>
			<path class="st11" d="M800,583.5c-2.9-0.4-5.6-0.6-8.3-0.7l0,29.6L800,583.5z"/>
			<path class="st11" d="M798.7,586c0.1,0.1,0.3,0.2,0.4,0.2l0.2-0.7h-1.6C798.1,585.6,798.4,585.8,798.7,586z"/>
		</g>
		<g>
			<path class="st11" d="M808.7,585.2c-2.2-0.6-4.3-1.1-6.4-1.4l-7.1,25.1L808.7,585.2z"/>
			<g>
				<path class="st11" d="M796.5,611.1c-1,1.6-2.1,3-3.1,4.2c1.8,1.2,4,2.5,6.2,3.6c0.5-0.6,0.9-1.2,1.3-1.9
					c3.7-5.6,5.3-11.6,5.3-18.2c0-0.5,0-0.9,0-1.3c-0.1-0.9-0.2-1.6-0.4-2.4l-8.7,15.2C797.1,610.1,796.8,610.6,796.5,611.1z"/>
				<path class="st11" d="M824.6,591.3c-4.6-2.3-9.1-4.1-13.7-5.4l-2.7,4.8c1.1,2.4,1.7,5,1.7,8c0,8.2-2.2,15.3-6.8,21.7
					c4.3,1.9,8.7,3.2,11.8,3.5C814.3,613.4,817.7,602.6,824.6,591.3z"/>
				<g>
					<path class="st11" d="M800.3,590.9l-5.1,18l6.4-11.2l0,0C801.8,595.2,801.4,592.8,800.3,590.9z"/>
					<path class="st11" d="M796.6,610.9c-1.9,3.1-4.2,5.6-6.1,7c-7.2,5.1-18.4,9.5-24.7,9.9c0,0,0,0,0,0c4.4,0.8,8.9,3.6,13.5,7.1
						c0,0,0,0,0,0c1.2-0.7,2.4-1.3,3.5-2c8.5-5,14.3-10.3,18-15.9c3.7-5.6,5.3-11.6,5.3-18.2c0-0.5,0-0.9,0-1.3
						c-0.1-0.9-0.2-1.6-0.4-2.4l-8.7,15.2C797.1,610.1,796.9,610.5,796.6,610.9z"/>
				</g>
			</g>
		</g>
	</g>
	<path class="st32" d="M760.8,533c0-0.3-32.7,2-37.6,18c-2.5,8.1-9.2,54.2-11.4,76.1l25.8,82.3l15.9-22.9c0,0,0.9-93.2,4.1-100.4
		s16.3-24.1,16.3-24.1L760.8,533z"/>
	<path class="st32" d="M750,531.8c0,0,19.8-6.8,20.7-6.5c0.9,0.4,10.1,21.8,10.8,25.2S742.3,569,740,565.9S748.4,533.7,750,531.8z"
		/>
	<path class="st32" d="M833.3,522.4c4.6-2.5,20.7,4.5,21.1,6.6s11,38.6,8.3,41.4c-2.6,2.8-40.6-17.6-41.1-20.6
		C821.3,546.8,829.6,524.4,833.3,522.4z"/>
	<path class="st33" d="M771.6,564.2c-7.5,8.5-21.3,32.8-19.9,51.2c2.3,28.4-0.9,70.1-0.9,70.1"/>
	<path class="st33" d="M749.9,613.8c-0.3,2.9-1,20.8-1,20.8"/>
	<path class="st20" d="M788.4,812c0,0-11.3,31-14.8,43.7c-3.4,12.7-9.2,23.1-9.2,23.1s-23.6-1.3-38.3-8.7
		c-14.7-7.4-27.3-17.6-27.3-18.8c0-1.2,1.2-20.9,4.7-45.5c3.5-24.5,12.7-53.7,12.7-53.7L788.4,812z"/>
	<path class="st20" d="M801.6,812l4.8,51.1c0,0,18.3,0.5,29.7,2.8c11.4,2.4,35.9-0.9,35.9-0.9s4.5-21.1,6.5-39.1
		c2.1-17.9,2.3-44.7,2.3-44.7L801.6,812z"/>
	<path class="st20" d="M714,652.2c0,0,4.1,11.8,3.7,19.9c-0.5,8.9-3.7,17.8-3.5,21.8c0,0,6.8,51,9,56.1c2.2,5.1,17.1-33,21.2-37.1
		c4.1-4.1,0.4-46.9,0.4-46.9L714,652.2z"/>
	<path class="st26" d="M704.2,786c2.2-11.1,10.7-31.2,22-54.5c10.9-22.4,27.2-48.2,27.2-48.2s8.8,9.2,39,11.3
		c30.2,2.2,54.8-4.4,54.8-4.4s15.6,27.1,23.1,45.5c7.6,18.7,13.3,37.9,14.6,48.3c1.3,10.4-83.3,24.5-83.4,23.6s-5.1-28.6-5.7-25
		c-1,6.6-5.8,25.7-5.8,25.7L704.2,786z"/>
	<path class="st34" d="M803.4,712.1c1.5,0.2,30.9-1.7,48.2-5.9"/>
	<path class="st32" d="M834.5,687.6c0,0-7.5-44.4-9.7-61.3c-2.4-18.8,1.5-58.2,5.5-73.2c4.1-15,7.4-27.8,7.4-27.8
		s40.1,11.5,44.7,19.2c4.6,7.7,6.5,62.3,4.9,80.2c-1.6,17.9-35.7,16-35.7,16l2.3,14l11.9,63.5l-17.8-11.1L834.5,687.6z"/>
	<path class="st34" d="M794.5,717.4c0,0-2.6,22.3-2.4,36.1s2.3,25.9,2.3,25.9"/>
	<path class="st34" d="M767.1,766.1c0.7,0.4,18,8.6,22.4,14.2"/>
	<path class="st34" d="M797.9,779.4c0,0,8.7-9,23-10.8"/>
	<path class="st34" d="M745.9,697.7c6,4.3,26.1,12.7,33.5,14.3c7.4,1.6,18.2,1.5,18.8,0.4c0.6-1.1,1.7-9,1.1-15.4"/>
	<circle class="st34" cx="790.7" cy="704.5" r="4"/>
	<path class="st34" d="M765.6,713.2c0,0,0.3,17.5-15.1,24.9c-15.4,7.4-30.5,8.9-30.5,8.9"/>
	<path class="st34" d="M831.5,713.8c0,0,2.5,18.8,7.7,25c8,9.7,35,10.3,35,10.3"/>
	<path class="st27" d="M699.1,776.5l-0.3,18.2c0,0,9.2,10.7,44.4,18.4s50.6,8.2,50.6,8.2l0-16.6c0,0-34.7-4.2-52.2-9.2
		C718.7,789,699.1,776.5,699.1,776.5z"/>
	<path class="st27" d="M799.1,804.9l2.1,15.6c0,0,24.9-2,49.6-7.5c27.8-6.2,42.3-15.9,42.3-15.9l-3.8-16.8c0,0-11,9.9-44.2,17.1
		C817.3,803.6,799.1,804.9,799.1,804.9z"/>
	<path class="st27" d="M747.2,664.4c-4.3,1.6-40.1-10.8-40.5-15c-0.5-5.1,2.1-23.6,4.8-23.8s34.3,5.6,37.1,5.9
		C751.3,631.7,751.5,662.8,747.2,664.4z"/>
	<path class="st20" d="M852.7,634.8c0,0-0.2,19.8,1.2,36.1c1.4,16.3,4,29.2,9.1,30.4c5.1,1.3,56-25.4,72.6-35
		c16.6-9.6,34.1-28.1,40.3-28.1c6.2,0,10.4-23.8-1.4-19.5c-11.8,4.3-47.5,19.7-56,23.8c-10.7,5.1-31.1,15.8-31.1,15.8l-0.8-30.4
		L852.7,634.8z"/>
	<path class="st29" d="M996,583c0,0,26,19.8,23.9,24.5c-2.1,4.6-55.6,52.1-57.6,50.7s-20.5-28-18.7-30
		C945.4,626.2,988.5,588.6,996,583z"/>
	<path class="st27" d="M890.1,621c2.6,0.2,7.6,21.2,5.7,24.9c-1.9,3.8-42.4,14.2-45.5,14.4s-9-17.7-5.5-22.3
		C848.2,633.4,883.2,620.5,890.1,621z"/>
	<path class="st35" d="M767.9,874.9c0,0-3.9,9.6-7.4,17.5c-4.7,10.7-11.4,18.9-9.9,22.5c1.5,3.7,14.4,2.9,30.7,18.2
		c16.3,15.3,59.3,106.8,59.3,106.8l-20.5,17.5c0,0-34.6-46.7-57.7-64.8c-23.2-18.1-55.4-48.4-55.4-48.4s-6.7-7.7-12.8-21.7
		c-6.1-14,4.4-65,4.4-65L767.9,874.9z"/>
	<path class="st35" d="M805.9,865.3c0,0,6.2,42.8,10.5,68.6c2.6,15.7-6.2,28.2-5.2,45.9c1,17.7,2.9,120.3,2.9,120.3l12.5,8.9
		l12.6-9.5c0,0,22.9-98,24.8-117.4c2-19.4-5.2-30.2-3.5-38.9c4.4-22.3,8.1-46.4,11.4-75.1L805.9,865.3z"/>
	<path class="st36" d="M696,841.9l-2.6,20.4c0,0,20.8,12.4,40.8,17.9c20,5.5,34.1,2.8,34.1,2.8l5.7-16.5c0,0-15.8,4.5-36.7-2.7
		C716.4,856.5,696,841.9,696,841.9z"/>
	<path class="st36" d="M802.9,858.4c0,0,13.3,5.2,36.5,4.6c23.2-0.6,38-8,38-8l-1.6,17.6c0,0-18.1,5.3-37.5,6.3s-35-5.2-35-5.2
		L802.9,858.4z"/>
	<path class="st20" d="M705.2,941.7c0,0-12.2-13.1-5.5-19.5c6.7-6.4,22.8,10.9,24.9,13.5c2.1,2.6-3,10.7-7.2,13.7
		C713.3,952.4,708.4,945.5,705.2,941.7z"/>
	<path class="st20" d="M837.3,930.6c5.7-0.1,15.6,15.9,15.4,22.7s-26.1,7.2-27.9,0.7C823.5,949.5,826.2,930.8,837.3,930.6z"/>
	<path class="st26" d="M799.7,1090c0,0,6.8,35.8,7.6,43.4s-9.5,26.6-10.3,32.8c-0.8,6.2-1.8,13.7-1,15c0.8,1.3,13.6,6.1,27.8,5
		c14.1-1.1,28.3-5.5,28.6-8.9c0.4-3.3-4.2-30.5-7.2-38.6c-1.9-5.1,0.6-11.7,4.4-26.9c3.8-15.2,4.1-25.5,4.1-25.5l-14.7,7.3
		l-21.1,1.9L799.7,1090z"/>
	<path class="st37" d="M813.5,1080c0,0-16,2.5-15.6,7.5c0.6,7.4,16.5,11.6,27.2,11.2s26.9-5.2,27.2-12.7c0.3-5.1-8.8-4.9-8.8-4.9
		l-2.3,8.7c0,0-7.2,4.4-16.7,4.3s-10.6-3.7-10.6-3.7L813.5,1080z"/>
	<path class="st27" d="M794,1179.7c0,0-1.1,7.8,0.1,9.4c1.2,1.7,13.7,7.2,29.2,6.9c15.5-0.4,28.7-7.8,30.3-9.7s-0.9-10.9-0.9-10.9
		s-10,8.9-28.2,9.5C806.5,1185.5,794,1179.7,794,1179.7z"/>
	<path class="st33" d="M781.2,553.9c10-5.3-44.7,15.6-41.3,18c-4.3-3.2,5.9-34.3,9.3-39.6"/>
	<path class="st33" d="M822.9,551.3c0,0,34.8,22.8,39.9,19.1c5.1-3.7-8.2-38.3-8.3-40.3"/>
	<path class="st33" d="M829.3,558.1c0,0-8.2,51.2-4.9,66.1c1.6,7.6,3.4,46.2,12.5,67.1c6.7,15.4,26.6,25.8,28.5,28.8"/>
	<path class="st33" d="M847.6,590.2c0,0,2.7,23.1,2,32.8"/>
	<path class="st33" d="M834.7,578.7c2.8,2.5,2.8-1.8,2.8-1.8"/>
	<path class="st33" d="M841.8,616.1c2.8,2.5,2.8-1.8,2.8-1.8"/>
	<path class="st33" d="M835.2,622c2.8,2.5,2.8-1.8,2.8-1.8"/>
	<path class="st38" d="M816.7,948.7c0,0-6.1,38.6-6.3,54.3s4.9,71.4,4.9,71.4"/>
	<path class="st39" d="M851.6,1089c0,0-7.3,39.3-7.3,44.8c0,5.5,3.5,23.9,3.5,23.9"/>
	<path class="st40" d="M955.9,617.1c0,0,5.5-4.4,7.3-2c1.7,2.3,4.7,5.5,6.7,5.5c2,0,5.2-9.3,2.9-11.9s-8.4-5.8-11.4-4.7
		C958.5,605.2,954.4,614.8,955.9,617.1z"/>
	<path class="st40" d="M967.6,638.6c2.8-4.8,5.5-1,7.2-1.9c0.7-0.3-2.3-2.7,0-5.6c2.3-2.9,6.1-0.5,6.5-1c1.2-1.5-2.3-3.1,2-6.4
		c2.3-1.7,5.1,0.2,5.9-0.4c0.7-0.5-1.3-3.7,1.6-5.8c2.9-2,11.1,1.7,13.1,4.4s-0.3,11.9-6.4,17.8s-16,10.8-20.4,10.5
		C972.9,650,966,641.5,967.6,638.6z"/>
</g>
<g>
	<path class="st20" d="M944.4,886.5c8.7,6.8,31.5,15.7,37.2,17.2c5.7,1.5-25.4,50.1-18.3,55.8c32.1,26.1,81.6,107.3,98.4,130.9
		c16.8,23.6,4.4,30.4,4.4,30.4s-21-9.5-26-12.9c-5-3.4-21.4-20.3-44-40.3c-24.6-21.8-91.5-79.6-94.3-86.9
		c-6.8-17.6,21.4-95.2,21.4-95.2L944.4,886.5z"/>
	<path class="st41" d="M1054,1118.2c0,0-12.1-17.9-13.3-19.1c-1.2-1.2-32.2,6.9-31.8,11.9s27,12,29.7,14
		C1041.2,1127.1,1054,1118.2,1054,1118.2z"/>
	<path class="st41" d="M1023.7,1146.3c-4,3.1-11.5,18.5-10.4,26.5c1,8,4.1,15.1,4.9,16c0.9,0.9,9.9,1.6,24.2-13
		c14.3-14.6,14-16,14-16s-9-8.5-15.7-10.4C1033.9,1147.5,1023.7,1146.3,1023.7,1146.3z"/>
	<path class="st42" d="M1062.7,1092.1c0,0,4.8,7.6,3.7,11.2c-1.1,3.6-14.1,10.1-14.1,10.1l-11.7,11.8l-16.8,21.5
		c0,0,17.5,2.1,21.3,5.3s10.9,7.8,10.9,7.8s16.5-10.4,27.3-27.3s10.2-27.6,10.2-27.6s-13.5-8.1-17.9-9.5
		C1071.2,1094.1,1062.7,1092.1,1062.7,1092.1z"/>
	<path class="st43" d="M1093.3,1104.6l12.3,10.6c0,0-10.1,22.2-32.7,45c-22.6,22.8-40.1,36.5-43.3,37.4c-3.2,1-11.8-8.7-11.8-8.7
		s17.6-4.3,49.3-40.3C1098.8,1112.5,1093.3,1104.6,1093.3,1104.6z"/>
	<path class="st44" d="M1033.5,1133c0,0,3.6-4.9,12.6-4.9c5.1,0,11.6,2.9,11.6,2.9"/>
	<path class="st44" d="M1027.1,1141.1c0,0,4.8-4.2,11.3-5.5c5.4-1.1,12.7,2.9,12.7,2.9"/>
	<path class="st23" d="M1022.2,462.8c-0.3,5.1,2.1,23.4,2.1,23.4l-27.1,26.3l-11.8-13.1l-4.2-11.1l5.4-16.8L1022.2,462.8z"/>
	<path class="st21" d="M1041.2,345.1c0,0-100.8,8.9-102.4,11.7c-1.6,2.8-6.8,13.3-7.5,23.2c-1,12.7,0.5,41.4,14,62.8
		c13.5,21.4,26.8,25,36.9,26.9c10.1,1.9,28.1,0.8,40.6-6.1c12.5-6.9,25.9-19.3,32.6-37c0,0,21-8.1,21.9-19c0.9-10.9-4-15.9-9.9-15.9
		c-5.9,0-12.1,6.9-12.1,6.9l1.2-34L1041.2,345.1z"/>
	<path class="st20" d="M984.1,372.4c31,0.8,54.2,2.7,59.3,9.5s7.9,34.6-1.3,49.5c-9.1,15-26.1,28.9-42.1,33.8
		c-15.9,4.8-27.9,1.6-34.1-1.5c-6.3-3.1-16.6-11.5-23.2-25c-7.8-16-11.2-32-12.1-44.9c-0.4-5.2-0.1-10.3,0.1-14
		C933.6,378.7,955.2,371.6,984.1,372.4z"/>
	<path class="st45" d="M1037,349.9c-0.6,1-6.2,17.9-46.7,19.5c-40.5,1.6-55.9-9.5-63.2-19.3c-7.4-9.8-6.9-37.1-4-47.3
		s17.5-23.1,17.5-23.1s-1.8,8.5-0.1,15.1s3.1,7.6,3.1,7.6s3.1-11.8,6.5-13.6c3.5-1.9,12.1,13,15,14.5c2.8,1.6-1.4-8.2,0.4-8.2
		c1.8,0.1,6.7,7.3,8.5,7.6c1.8,0.3,11-0.9,11-0.9l44.8,27.9L1037,349.9z"/>
	<path class="st46" d="M1073.6,360.2c0,0,5.8-5.9,8.4-12.9c2.6-7,1.4-13.2,3-12.2c1.7,1,3.9,0.8,5.8-3.4c1.9-4.2,1.9-23.2,1.3-24.9
		c-0.6-1.8-7.6-12.5-15.7-14.7c-8.1-2.3-16.7-4.9-25.2-4.9c-8.6,0-15.3,0.6-18.3-0.3c-3-0.9-6.6-1-6.6-1l-4.2,3.7l24.1,31.2
		l21.6,31.4L1073.6,360.2z"/>
	<path class="st47" d="M1054.1,394.3c0,0-7.5-35.9-30.1-60.7c-22.6-24.7-49.1-28.8-49.1-28.8s4.4-9.2,12.3-12.5
		c7.8-3.4,13.6,1.1,13.6,1.1s14.5-4.8,21.4-3.8s23.5,0.5,38.3,20.3c14.7,19.8,17.3,63.8,17,66.1s-7.2,13.5-10.5,14.7
		C1063.6,391.7,1054.1,394.3,1054.1,394.3z"/>
	<path class="st3" d="M1031.5,380.4l-2,5.7c0,0-9.4-2.3-13.1-3.1c-3.7-0.8-11.2-0.8-11.2-0.8l3.8-6.7c0,0,6.1-0.5,13,1.2
		C1026.1,377.5,1031.5,380.4,1031.5,380.4z"/>
	<path class="st3" d="M964.7,376.3l0.4,8.1c0,0-9.4-0.3-14,0.4c-4.6,0.7-7.8,1.9-7.8,1.9s-3.1-4.3-3.1-4.9c0-0.6,6.5-3.4,12.1-4.6
		C956.8,376.2,964.7,376.3,964.7,376.3z"/>
	<path class="st48" d="M986.3,400.4c0,0-5.3-2.6-8.5-2.2c-3.1,0.4-6.7,2.4-6.7,2.4l1.2,5.2c0,0,2.9-2.8,5.6-2.7
		c2.7,0.1,6.4,2.3,6.4,2.3L986.3,400.4z"/>
	<path class="st48" d="M1053.9,390.2c0,0-5.6,0.2-10.4,1.9c-4.8,1.8-9.7,5.2-9.7,5.2l1.3,6.2c0,0,6.8-3.6,10.9-5s8.7-2.2,8.7-2.2
		l-0.2-6L1053.9,390.2z"/>
	<path class="st48" d="M928.5,396.7c-6-1-6.8-0.6-6.8-0.6l0.4,6l4.8,1.6L928.5,396.7z"/>
	<path class="st49" d="M928.9,407.6c-1.2-13.9,1.3-15.4,15.2-16.3c18.3-1.2,26.5,3.7,28.1,15.7c1.8,13.8-8.9,19.9-22.8,21
		C935.6,429.2,930.1,421.5,928.9,407.6z"/>
	<path class="st49" d="M1034.8,404.8c-1.2-13.9-11-16.3-24.9-14.9c-18.2,1.8-25.7,5.9-24.5,19.8c1.2,13.9,11.9,21.6,25.8,20.4
		C1025,428.9,1035.9,418.7,1034.8,404.8z"/>
	<path class="st50" d="M976.5,405.8c0.3,3.6,0.9,7.8-0.5,10c-1.4,2.1-4.7,3.3-5.8,6.4c-1.1,3-0.3,7.5,1.7,9.6c2,2.1,8.2,3.4,11,2.2"
		/>
	<path class="st50" d="M998.9,442.4c0,0-2.8,6.3-10,7.8c-7.3,1.6-10.7-1.9-10.7-1.9"/>
	<path class="st51" d="M957.4,404.1c0,0-3.7-3.7-10.2-3.5c-3.4,0.1-6.3,0.6-6.3,0.6"/>
	
		<ellipse transform="matrix(0.9965 -8.339144e-02 8.339144e-02 0.9965 -30.7014 80.8041)" class="st52" cx="951.9" cy="407.9" rx="6.9" ry="6.9"/>
	<path class="st20" d="M1077.7,893.7c1.8,8.7,5.2,40.8,5.7,58.3c0.4,17.5-2.2,52.8-11.7,75.8c-9.4,23-25.8,79.6-30,95.4
		c-5.6,20.8-7.4,35-5.7,32.2l-19.5,11.3l-13-17.9c0,0,1.8-26.7,5.9-48.3s4.8-74.7,7.5-103.7c1.6-17,1.4-74.5,0-84.7
		C1014,890.8,1077.7,893.7,1077.7,893.7z"/>
	<path class="st47" d="M949.6,784.5c0,0-24.9,67.5-28.5,81.6c-2.6,10.3-10.2,32.5-10.2,32.5s12.1,10.7,34.6,14.9
		c22.5,4.1,40,6.4,40.9,4.1s21.6-66.9,21.6-66.9v-4l0.3,73c0,0,36.6,0.6,48.3-2.6c11.7-3.2,23.8-4.1,26.1-10.1
		c2.2-6,4.8-75.8,3.9-87c-0.7-8.7-3.9-36.8-3.9-36.8l-114-17.2L949.6,784.5z"/>
	<line class="st53" x1="1003.3" y1="841.2" x2="977.2" y2="912.7"/>
	<path class="st20" d="M926.8,582.5c0,0-8.7,18.3-11.7,37.8c-3,19.5-9.9,47.7-11.4,54.9c-1.5,7.2,4.2,32.3,6.6,44.4
		c3.6,18.6,32.4,83.1,32.4,83.1l23.1-22.2l-26.1-99.9l14.4-28.8l-1.5-55.8L926.8,582.5z"/>
	<polyline class="st53" points="977.2,777.4 961,807.8 935.2,825.3 	"/>
	<path class="st54" d="M948.1,597.5l-28.5-11.1c0,0,6-28.8,7.5-34.5c1.5-5.7,11.1-34.5,13.5-36.9c2.4-2.4,26.4-13.5,26.4-13.5
		s5.7-3.9,7.5-6.6s4.8-7.2,4.8-7.2s5.7,1.8,8.4,3.9s6.3,7.2,6.3,7.2l3,9.9l3-11.1l29.7-19.2l10.8,11.1c0,0,8.4,4.5,16.2,3
		s29.4,3.3,33.3,6.3c3.9,3,17.7,24.6,23.4,37.8c5.7,13.2,16.8,33.7,15.3,38.2c-1.5,4.5-19.6,14.1-29.5,18.9
		c-6.5,3.1-14.4,10.7-21.2,12.1l12.5,33l-4.8,105.6l-6,0.4l1.2,21.5l-50.1,16.8l-23.7,3.6c-31.7,9.7-41.7,12.3-53.7-2.7l-8.7-135
		L948.1,597.5z"/>
	<path class="st55" d="M1002.1,499.7c0,0,2,2.4,4.4,5.7c3.6,4.8,8.2,11.6,9.1,15.3c0,0,3.3-7.8,12.6-17.4
		c9.3-9.6,12.3-13.8,12.3-13.8"/>
	<line class="st55" x1="997" y1="508.7" x2="1006.5" y2="505.4"/>
	<path class="st55" d="M994,500.3c0,0-9,7.5-11.1,12.9c-2.1,5.4-3.3,7.5-3.3,7.5l-11.1-18.6"/>
	<path class="st55" d="M997.3,508.7c0,0-1.5,32.7-1.5,73.2c0,79.8-20.7,211.8-20.7,211.8"/>
	<path class="st56" d="M986.5,558.5c-15.2,1.1-15.2,1.1-19.6,0.8c-4.4-0.3-6.5-1.1-6.5-1.1"/>
	<path class="st56" d="M986.8,559.5l-2.1,35.2c0,0-12.1,2.6-16.5,2.1c-4.4-0.5-12.9-6.6-12.9-6.6l2.1-29.6"/>
	<path class="st56" d="M985.5,569.3c0,0-8.5,1.6-12.1,1.6c-3.6,0-3.6,0-15.2-1.6"/>
	<path class="st55" d="M1011.5,550.7c3.8,1.5,1.5,4.1,1.5,4.1"/>
	<path class="st55" d="M1010.3,591.4c3.8,1.5,1.5,4.1,1.5,4.1"/>
	<path class="st55" d="M1008.8,631.7c3.8,1.5,1.5,4.1,1.5,4.1"/>
	<path class="st55" d="M1004.3,675.5c3.8,1.5,1.5,4.1,1.5,4.1"/>
	<path class="st55" d="M997.5,716.3c3.8,1.5,1.5,4.1,1.5,4.1"/>
	<path class="st41" d="M1012,1147.8c0,0,4.5-18.4,4.5-20.2s-29.7-20.7-33.3-16.6c-3.6,4.1,11.2,30.8,11.7,34.5
		C995.4,1149.1,1012,1147.8,1012,1147.8z"/>
	<path class="st41" d="M967,1149.4c-5.4-0.9-22.9,4.8-28.3,11.7c-5.4,6.9-8.5,14.7-8.5,16.1c0,1.4,6.3,9.2,28.3,9.7
		c22,0.5,22.9-0.9,22.9-0.9s-0.3-13.6-3.9-20.5C973.9,1158.5,967,1149.4,967,1149.4z"/>
	<path class="st42" d="M1038.6,1139.9c0,0-2.2,9.7-5.8,11.5s-18.4-3.7-18.4-3.7l-18-0.5l-29.2,2.8c0,0,11.7,15.6,12.1,21.2
		c0.4,5.5,2.2,14.7,2.2,14.7s20.5,5.4,41.7,1.2c21.1-4.1,28.9-12.7,28.9-12.7s-4-17-6.3-21.6
		C1043.5,1148.2,1038.6,1139.9,1038.6,1139.9z"/>
	<path class="st43" d="M1052.2,1174l1.2,17.9c0,0-24.7,8.7-59.4,7.8c-34.6-0.9-58.5-4.6-61.6-6.4c-3.1-1.8-2.2-16.1-2.2-16.1
		s16.6,10.9,68.4,9C1050.3,1184.4,1052.2,1174,1052.2,1174z"/>
	<path class="st57" d="M994.6,823"/>
	<path class="st57" d="M1003.9,837.1"/>
	<path class="st20" d="M1064.2,673.1"/>
	<path class="st58" d="M985,1147.4c0,0,6.5-0.8,13.3,6.4c3.9,4.1,6.6,11.5,6.6,11.5"/>
	<path class="st58" d="M973.9,1148.5c0,0,6.8,0.7,12.7,4.9c4.9,3.5,7.3,12.4,7.3,12.4"/>
	<path class="st50" d="M1021.8,398c0,0-5.6-0.8-12.9,1c-7.3,1.7-8.4,4.4-8.4,4.4"/>
	
		<ellipse transform="matrix(0.9965 -8.339181e-02 8.339181e-02 0.9965 -30.4424 85.4179)" class="st59" cx="1007.3" cy="407.1" rx="7.4" ry="7.4"/>
	<circle class="st11" cx="1011" cy="404" r="2.7"/>
	<circle class="st11" cx="954.6" cy="404.8" r="2.7"/>
	<polyline class="st53" points="1008.4,844.9 992.8,831.7 993.4,793.1 	"/>
	<line class="st53" x1="1006" y1="793.7" x2="1004.8" y2="834.5"/>
	<path class="st53" d="M1000,845.2c-0.9,0-8.4-6.7-8.4-6.7"/>
	<g>
		<polygon class="st60" points="1128.5,755.9 1129.6,757.3 1100.8,843 996.5,812 1020.8,727.4 		"/>
		<path class="st61" d="M1128.8,758.1c0,0,1.3,3.5,4,4.2c2.6,0.7,5.7-0.6,5.7-0.6l-29.6,84.7l-3.7,2.7l-6.6-2.8L1128.8,758.1z"/>
		<path class="st62" d="M1138.6,760.6l-29.4,84.9c0,0-2.4,3.1-5.5,2.2c-4-1.1-3.7-6-3.7-6L996.4,812c0,0-1.9,6.3,1.3,7.6
			c3.2,1.3,90.1,26.8,106.1,30.1c2.3,0.5,5.2-1.6,5.9-2.8l30-86.1L1138.6,760.6z"/>
	</g>
	<path class="st20" d="M1120.4,582.5c0,0,13.2,29.1,18,57.1c4.9,28.8,6.5,50,5.6,54.2s-35.2,49.4-45.4,63.2
		c-14.4,19.3-32.7,35.7-33.1,37.8c-1.6,7.9,1.6,9.3,1.6,12.1c-0.1,3.6-0.2,33.7-1.6,36.2c-1.3,2.5-4-3.4-4-3.4s-3.5,3.6-5.2,3.6
		c-2.7,0-2.5-2.7-4.9-3.4c-2.5-0.7-2.2,3.6-5.2,3.1s-1.3-3.6-3.1-3.6c-1.8,0-5.8,3.1-7,1.6c-1.1-1.6-0.9-12.1-1.1-17.8
		c-0.3-8.1,1.3-20.9,7-28.1c4.5-5.8,21.6-45.4,28.6-59.6c6.3-12.7,31-52.2,31-57.8c0-5.6-9.2-25.2-12.8-38.7
		c-2.3-8.6-11.6-35.9-11.6-35.9C1087.6,601.6,1106.3,589.5,1120.4,582.5z"/>
	<line class="st63" x1="1017.2" y1="1017.9" x2="1012.4" y2="1087.2"/>
	<line class="st63" x1="1061.8" y1="1050.2" x2="1042.3" y2="1116.8"/>
	<line class="st53" x1="1078.3" y1="906.2" x2="1080.1" y2="844.7"/>
	<polyline class="st55" points="1076.8,601.8 1061.5,569.5 1045.7,561.8 	"/>
	<line class="st55" x1="1062.8" y1="558.2" x2="1061.5" y2="569.5"/>
	<line class="st55" x1="948.1" y1="597.5" x2="952.6" y2="578"/>
	<g>
		<g>
			<path class="st11" d="M1090.1,571.8c4.2-5.7,6.6-10.8,7.5-15.5C1096.7,561.1,1094.3,566.2,1090.1,571.8z"/>
			<path class="st11" d="M1089.1,536.6c0.4,0.1,0.8,0.2,1.2,0.3C1089.9,536.8,1089.5,536.7,1089.1,536.6z"/>
			<polygon class="st11" points="1077.3,573.2 1077.4,573.2 1077.3,573.2 			"/>
			<path class="st11" d="M1088.3,574.2C1088.3,574.2,1088.3,574.2,1088.3,574.2c0.6-0.8,1.2-1.5,1.8-2.3
				C1089.5,572.6,1088.9,573.4,1088.3,574.2C1088.3,574.2,1088.3,574.2,1088.3,574.2z"/>
			<path class="st11" d="M1090.9,537.2c0.4,0.2,0.8,0.4,1.2,0.6C1091.7,537.6,1091.3,537.4,1090.9,537.2z"/>
		</g>
		<g>
			<path class="st11" d="M1081.2,553.7c-0.3-0.3-0.6-0.6-0.9-0.9C1080.6,553.1,1080.9,553.4,1081.2,553.7z"/>
			<path class="st11" d="M1079.8,552.1c-0.2-0.2-0.4-0.5-0.6-0.7C1079.4,551.6,1079.6,551.8,1079.8,552.1z"/>
			<path class="st11" d="M1082,554.4c-0.2-0.2-0.4-0.4-0.6-0.6C1081.6,554.1,1081.8,554.3,1082,554.4z"/>
			<path class="st11" d="M1108.6,560.7c0.5-0.4,1-0.8,1.5-1.2h0C1109.6,559.8,1109.1,560.2,1108.6,560.7z"/>
			<path class="st11" d="M1088.2,564.4c2.1,0.9,4.5,1.7,7.2,2.3C1092.7,566.1,1090.3,565.4,1088.2,564.4z"/>
			<path class="st11" d="M1103.1,568C1103.1,568,1103.1,568,1103.1,568c-2.8-0.3-5.4-0.7-7.7-1.2
				C1097.7,567.3,1100.3,567.7,1103.1,568z"/>
			<path class="st11" d="M1108.4,560.8c0.1,0,0.1-0.1,0.2-0.1C1108.5,560.7,1108.5,560.8,1108.4,560.8z"/>
			<g>
				<path class="st11" d="M1096.4,560.6c-0.3,0-0.7,0-1-0.1c-0.5,0-1-0.1-1.4-0.2c-1-0.1-2-0.3-2.9-0.5c-0.9,1.5-2,3-3.3,4.4
					c0.2,0.1,0.3,0.1,0.5,0.2c1.7,0.7,3.5,1.3,5.5,1.9C1094.8,564.3,1095.7,562.4,1096.4,560.6z"/>
				<path class="st11" d="M1107.5,560.2c-0.2,0-0.3,0.1-0.5,0.1c-0.9,0.1-1.8,0.3-2.8,0.3c-0.3,0-0.6,0-0.8,0.1
					c-1.3,0.1-2.7,0.1-4.1,0.1c-0.7,2-1.6,4.1-2.8,6.2c2.1,0.4,4.6,0.8,7,1c-0.1,0.1-0.1,0.3-0.2,0.4c1.9-3.5,4.2-6.4,6.9-8.9h0
					C1109.3,559.8,1108.4,560,1107.5,560.2z"/>
				<path class="st11" d="M1102.1,570.5c-2.6-0.3-4.9-0.7-7.1-1.2c-1.2,1.9-2.6,3.9-4.2,6l-0.2-0.1c2.8,1.1,5.6,2.6,8.8,4.6
					c0.7-3.8,1.7-7.1,3.1-9.9C1102.3,570.1,1102.2,570.4,1102.1,570.5z"/>
				<path class="st11" d="M1090.1,571.8c0.8-1.1,1.5-2.1,2.2-3.2c-2.3-0.7-4.5-1.5-6.4-2.4c-2.9,3.1-6.1,5.7-8.5,6.9l0,0
					c4.2-0.2,7.6,0.2,10.9,1.2l-0.1,0C1088.7,573.6,1089.5,572.6,1090.1,571.8z"/>
			</g>
			<path class="st11" d="M1108.4,560.8"/>
		</g>
		<g>
			<path class="st11" d="M1085.5,555.3l-11.8-14.8c-1.4,0.9-2.7,1.8-3.9,2.8L1085.5,555.3z"/>
			<g>
				<path class="st11" d="M1078.2,549.7l7.4,5.6l-8.5-10.6C1076.8,546.3,1077.3,548,1078.2,549.7z"/>
				<path class="st11" d="M1086.7,557.9c-0.1,0-2.3-1.5-2.3-1.5l-0.5-0.4c1.5,1.2,3,2.1,4.5,2.8L1086.7,557.9z"/>
				<path class="st11" d="M1061.2,551.6c7.6,6.5,13.3,12.4,15.5,18.9c2-1.1,4.4-3.2,6.8-5.6c-4.9-3-8.3-7.1-10.6-12.5
					c-0.8-1.9-1.2-3.9-1.1-5.7l-3.2-2.4C1066,546.5,1063.5,548.9,1061.2,551.6z"/>
				<path class="st11" d="M1083.8,555.9l-9.2-7c0.1,0.5,0.2,1.1,0.4,1.6c0.1,0.3,0.2,0.6,0.3,0.9c0.4,1,0.9,1.9,1.4,2.8
					c1.5,2.7,3.4,5,5.9,6.9c0.3,0.2,0.6,0.4,0.9,0.6c0.6,0.4,1.2,0.8,1.8,1.2c1.2-1.4,2.2-2.8,3.1-4.1l-0.2-0.1
					C1086.8,558.1,1085.3,557.1,1083.8,555.9z"/>
			</g>
		</g>
		<g>
			<path class="st11" d="M1080.5,536.9c-1.9,0.9-3.7,1.8-5.3,2.7l13.5,16.9"/>
			<g>
				<path class="st11" d="M1088.7,556.5l-0.3-0.6c-0.1-0.1-0.3-0.2-0.4-0.3L1088.7,556.5z"/>
				<path class="st11" d="M1082.5,541.7"/>
			</g>
		</g>
		<g>
			<path class="st11" d="M1087.7,534.4c-2,0.5-3.9,1.1-5.7,1.8l8.2,19.6L1087.7,534.4z"/>
			<path class="st11" d="M1087.6,536.4c0.1,0,0.2,0,0.4,0l-0.1-0.5l-1.1,0.4C1087,536.4,1087.3,536.4,1087.6,536.4z"/>
		</g>
		<g>
			<path class="st11" d="M1093.9,533.2c-1.6,0.2-3.2,0.5-4.6,0.8l2.2,18.6L1093.9,533.2z"/>
			<g>
				<path class="st11" d="M1093,553.7c-0.2,1.3-0.5,2.5-0.9,3.6c1.6,0.3,3.3,0.5,5.1,0.6c0.1-0.5,0.3-1.1,0.4-1.6
					c0.9-4.7,0.3-9.2-1.6-13.6c-0.1-0.3-0.3-0.6-0.4-0.9c-0.3-0.5-0.6-1-0.9-1.5l-1.5,12.5C1093.2,552.9,1093.1,553.2,1093,553.7z"
					/>
				<path class="st11" d="M1106.2,532.8c-3.7-0.2-7.2-0.2-10.6,0.2l-0.5,3.9c1.4,1.3,2.5,2.9,3.3,4.8c2.3,5.4,2.8,10.7,1.5,16.3
					c3.4,0,6.7-0.3,8.8-0.9C1105.5,550.3,1104.7,542.2,1106.2,532.8z"/>
				<g>
					<path class="st11" d="M1089.9,539.3l1.6,13.4l1.1-9.2l0,0C1092.1,541.7,1091.2,540.2,1089.9,539.3z"/>
					<path class="st11" d="M1093.1,553.5c-0.4,2.6-1.2,4.9-2.1,6.3c-3.4,5.4-9.5,11.4-13.6,13.4c0,0,0,0,0,0c3.2-0.7,6.9-0.1,10.9,1
						c0,0,0,0,0,0c0.6-0.8,1.2-1.5,1.8-2.3c4.2-5.7,6.6-10.8,7.5-15.5c0.9-4.7,0.3-9.2-1.6-13.6c-0.1-0.3-0.3-0.6-0.4-0.9
						c-0.3-0.5-0.6-1-0.9-1.5l-1.5,12.5C1093.2,552.9,1093.1,553.2,1093.1,553.5z"/>
				</g>
			</g>
		</g>
	</g>
</g>
<g>
	<path class="st21" d="M570.8,429.2c0,0,1.5,23.9-4.8,30.3c-6.4,6.4-23.6,8.2-23.6,8.2l7.3,35.5l53.6,14.5l39.1-29.1l-0.6-18.2
		c0,0-21.4-8.7-25.5-13.9c-4.2-5.5-7.3-30.9-7.3-30.9L570.8,429.2z"/>
	<path class="st23" d="M641.7,470.4c0,0-21.4-8.7-25.5-13.9c-4.2-5.5-7.3-30.9-7.3-30.9l-38.2,3.6c0,0,1.4,21.7-4,29.3
		c4.6,4.5,13.2,10.2,28.9,13.8c16.7,3.8,34.3,5.6,46.3,6.5L641.7,470.4z"/>
	<path class="st64" d="M659.1,710l9.1,24.1c0,0,8.2,77.3,8.6,101.4c0.5,24.1,1.8,83.6,3.2,92.7c1.4,9.1,15.5,126.4,15.5,129.5
		s7.3,8.2,8.2,11.4c0.9,3.2-1.4,8.2-0.9,10.9s4.1,3.6,5.5,6.8c1.4,3.2,1.4,8.6,1.4,8.6l-57.3,15.5c0,0-5.9-6.8-6.4-9.1
		c-0.5-2.3,0.9-8.6,0.9-11.4c0-2.7-7.7-5-7.7-6.4s0.9-10.5,0-13.2s-29.5-80.5-33.2-95.5c-5.5-22.6,1.8-52.3,5.5-65.9
		c3.6-13.6-13.6-99.5-13.6-99.5s-14.5,68.6-15.9,75.9c-1.4,7.3-8.2,19.5-8.2,22.3c0,2.7,5.5,33.6,3.2,46.4
		c-2.3,12.7-19.5,100.5-19.5,102.3c0,1.8-6.8,9.1-6.4,11.8c0.5,2.7,4.5,7.7,4.5,10.9s-7.7,10.5-7.7,12.7s3.6,18.2,3.6,18.2
		l-50.9,3.6c0,0-11.8-17.3-11.8-19.5c0-2.3,6.8-8.6,6.8-11.8s-5.9-6.4-5.9-8.6c0-2.3,6.4-11.8,6.4-11.8s5-68.6,5-75.5
		s-0.9-42.3-0.5-48.6c0.5-6.4,10-41.8,10-46.4s-0.5-139.5,0-141.4c0.5-1.8,16.8-45.9,16.8-45.9L659.1,710z"/>
	<polyline class="st65" points="605,729.8 605.8,782.8 606,795.3 	"/>
	<polyline class="st65" points="622.3,723.7 622.9,772.8 605.8,782.8 	"/>
	<path class="st65" d="M644.4,717.7c0,0,2.7,20.6,3,28.5c0.3,7.9,23.9,28.2,23.9,28.2"/>
	<path class="st20" d="M667.9,561.6c0,0,27.8,39.3,28.2,41.1c0.4,1.8-33.5,69.5-36.2,72c-2.7,2.5-2,15.2-3.2,19.7
		s8.8,38.7,11.7,40.9c2.8,2.1,24.5-11,27.7-15c1.4-1.8,2.8-9.3-2.7-10.8c-5.5-1.5-13.1,3.1-14.8,2c-1.6-1-6.5-16.4-7.2-19.1
		c-0.6-2.7,24.2-25.2,38.2-38.9c14-13.6,38.5-43.2,36-55.8c-2.2-11.2-49-86.1-49-86.1l-31.9,44.5L667.9,561.6z"/>
	<path class="st66" d="M644.1,1107.2c0,0,25.5-3.6,35-7.7c9.5-4.1,29.1-14.1,29.1-14.1l2.7,17.3c0,0-15,8.2-27.3,12.3
		c-12.3,4.1-31.8,6.8-31.8,6.8L644.1,1107.2z"/>
	<path class="st67" d="M649.2,1122.5c0,0,27.7-19.1,43.6-21.8c15.9-2.7,25.5,3.6,25.5,3.6s-2.3,4.5-5.5,11.8s-7.3,14.1-7.3,14.1
		s16.4,14.5,26.8,16.4c10.5,1.8,28.2-0.5,30.5,4.1c2.3,4.5,5.5,11.4,4.1,21.8c0,0-55-1.1-64.5-0.2s-51.4-2-53.2-3
		c-1.8-0.9-2.7-11.4-0.9-15c1.8-3.6,10-15,10-17.7S649.2,1122.5,649.2,1122.5z"/>
	<path class="st65" d="M602.3,805.3l17-6.1l-10.9,5.5l15.8,93.3c0,0,0.3,31.2-2.4,40.6c-2.7,9.4-3,25.2,2.4,44.5
		c5.5,19.4,24.5,82.1,25.5,83.6c0.9,1.5,3.3,5.8,2.7,8.5c-0.6,2.7,2.7,5.5,3.9,7.6c1.2,2.1,1.2,9.1,2.1,11.2s6.4,11.2,6.4,11.2"/>
	<path class="st68" d="M495,1176.4v20.5c0,0,16.4,8.2,32.7,8.2s30.9-5.9,30.9-5.9v-19.5c0,0-17.7,5.5-31.4,5
		C513.6,1184.1,495,1176.4,495,1176.4z"/>
	<polygon class="st68" points="649.2,1169.3 649.2,1184.3 767.3,1184.3 766.9,1172.5 	"/>
	<path class="st20" d="M522,340.7c0,0,3.4,23.2,3.1,27.4c-0.3,4.2-14,8.6-13.4,18.3c0.6,9.6,8.9,15.7,20.4,18.1
		c0,0,11.3,23.9,30.7,32.2c21.1,9,47.4,7.4,64.8-6.3c18.6-14.6,20.8-40.3,20.8-40.3s8.5-1.9,9.6-11.4s-5.6-15.4-5.6-15.4l-2.6-34.4
		L609,297.1l-50.8,3.5l-32.5,16.9L522,340.7z"/>
	<path class="st66" d="M488.8,1120.2l0.8-17.1c0,0,15.2,6.4,31.3,6.4s34.1-2.7,34.1-2.7l-2.7,17.9c0,0-18.3,1.2-34.3,1.2
		S488.8,1120.2,488.8,1120.2z"/>
	<path class="st67" d="M505.9,1147.3l-15.9-25.5c0,0,15-4.5,33.6-4.5c18.6,0,33.6,9.1,33.6,9.1l-11.8,21.8l13.2,31.4
		c0,0-15.5,4.5-28.2,5c-12.7,0.5-35.5-8.2-35.5-8.2L505.9,1147.3z"/>
	<path class="st69" d="M558,366.6c0,0,4.7-2.1,11.5-2.4s8.4,1.7,8.4,1.7"/>
	
		<ellipse transform="matrix(0.9809 -0.1947 0.1947 0.9809 -61.245 118.611)" class="st70" cx="572.9" cy="370.9" rx="6.7" ry="6.7"/>
	<circle class="st11" cx="575.8" cy="367.3" r="2.4"/>
	<path class="st71" d="M638.9,359.2c0,0-2.8-0.8-9.3,0.2c-6.4,1-7.6,3.2-7.6,3.2"/>
	
		<ellipse transform="matrix(1.860570e-03 -1 1 1.860570e-03 260.2196 993.2624)" class="st72" cx="627.7" cy="366.3" rx="6.4" ry="6.4"/>
	<circle class="st11" cx="631.2" cy="363.2" r="2.3"/>
	<path class="st73" d="M624,365.6"/>
	<path class="st73" d="M635.7,363.3"/>
	<path class="st74" d="M551.8,351.5l4.3,7.4c0,0,7.7-3.4,11.2-4.8c4.5-1.9,13.3-2.8,13.3-2.8l0.2-10c0,0-11.4,0.9-17.4,3.3
		C559.7,346.1,551.8,351.5,551.8,351.5z"/>
	<path class="st74" d="M619.2,349.2c0,0,12,0,16.8,2.6l3.9-8.4l-21.7-4L619.2,349.2z"/>
	<path class="st75" d="M601.6,364.3c0,0,1.2,10.7,4.3,14.2c3.1,3.6,11.2,5.4,11.3,6.1c1,4.4-5.7,8.5-10,10.2"/>
	<path class="st75" d="M593.4,414.9c0,0,8.6,2.6,14.5,1c8.2-2.3,8.4-6.3,8.4-6.3"/>
	<path class="st21" d="M648.4,390.2c0,0,8.5-1.9,9.6-11.4c1.1-9.5-5.6-15.4-5.6-15.4l-2.6-34.4l-40.8-31.7l-50.8,3.5l-32.5,16.9
		l-3.7,23.1c0,0,3.4,23.2,3.1,27.4c-0.3,4.2-14,8.6-13.4,18.3c0.6,9.6,8.9,15.7,20.4,18.1c0,0,11.3,23.9,30.7,32.2
		c10.9,4.6,23.1,6.4,34.8,5.2c1.3,0,3.4-0.5,3.4-0.5s-40.3-3.5-54.6-25.7c-10.7-16.7-12.1-40.3-11.1-54.2c1-13.9,12.3-32.6,19.3-37
		c7-4.4,40.6-6.9,40.6-6.9l49.2,21.1c0,0,6.7,20.9,6.3,27.6C650.3,373.1,648.4,390.2,648.4,390.2z"/>
	<path class="st76" d="M527.5,369.5c0,0,2.5-17.8,7.2-30.8c4.7-13,11.6-23,11.6-23s2.7,8.5,6.6,13.4c3.8,4.9,14.4,8.5,14.4,8.5
		s-6.2-12.1-6-15.5c0.2-3.3,1.7-11.6,4.2-12.2c2.6-0.7,8.9,21.5,29.6,29.7s46,4.5,46,4.5s-13.7-6.4-18.3-13
		c-4.5-6.6-6.9-14.3-6.9-14.3s15.3,19.9,30.7,20.1c15.4,0.3,20.7-2.7,20.7-2.7s-9-8.6-12.6-16.3c-2.1-4.4-11.5-32.5-31.4-39.8
		s-43-6-52.6-0.8s-11.7,5.9-11.7,5.9s-2.9-6.5-2.6-10.6c0.4-5.4,9.2-11.9,9.2-11.9s-14.9,4.4-18.8,11.6s-2.7,14-2.7,14
		s-12.1-5.9-21.4-4c-9.3,1.8-13,12.9-13,12.9s8.4-6.1,15-4.8s9.2,5.7,9.2,5.7s-15.5,6.4-18.6,15.4s-4,21-1.6,28.3
		C516.1,347,527.5,369.5,527.5,369.5z"/>
	<line class="st65" x1="596.6" y1="801.9" x2="632" y2="782.2"/>
	<polyline class="st65" points="545,719.5 542.9,759.8 511.1,809.2 	"/>
	<path class="st65" d="M655.7,954c0,0,14.2-0.6,17.6-2.7s5.5-4.2,5.5-4.2"/>
	<path class="st65" d="M522.3,949.5c0.9,0.3,11.8,5.5,17.3,5.5s16.7-3.3,16.7-3.3"/>
	<path class="st65" d="M523.8,960.1c3.6,2.9,8.7,5.2,16.4,4.8c5.5-0.3,11.5-2.4,11.5-2.4"/>
	<path class="st77" d="M513.6,1151.1c0,0,4.8-5,10.5-4.5c5.7,0.5,14.1,5.9,14.1,5.9"/>
	<path class="st77" d="M514.1,1160c0,0,3.9-5,9.1-5c5.2,0,12.3,4.3,12.3,4.3"/>
	<path class="st77" d="M515,1168.4c0,0,3.6-4.1,10-3.9c6.4,0.2,10.5,3.6,10.5,3.6"/>
	<path class="st77" d="M701.2,1152.5c0,0,2.5-8.6,5.9-10.9c3.4-2.3,9.8-2.3,9.8-2.3"/>
	<path class="st77" d="M713.9,1153.9c0,0,2.3-5.4,4.1-7c3.6-3.4,7.7-2.7,7.7-2.7"/>
	<path class="st77" d="M727.8,1154.5c0,0,2.7-6.6,8-7.7"/>
	<path class="st78" d="M635.5,466.3l-15,21.6l-24.8,5.2l4.8,90.2l67.5-112.2C653.4,468.2,635.5,466.3,635.5,466.3z"/>
	<path class="st79" d="M685.9,477.1c-2-2.2-9.4-4.3-17.9-6l-67.5,112.2l103.2-75.8C696.3,493.8,688.5,480,685.9,477.1z"/>
	<path class="st80" d="M662.6,569.1l0.9-4.1l6.7,11.5l49.1-40c0,0-7.5-14.4-15.5-29.1l-103.2,75.8h61.6c0.5-7.2,0.8-12.2,0.8-12.2
		L662.6,569.1z"/>
	<path class="st22" d="M560.3,484.3L544.7,465c0,0-15.1,1.7-30.1,4.2l85.8,114.1l-4.8-90.2l-9,1.9L560.3,484.3z"/>
	<path class="st80" d="M514.6,469.2c-13.1,2.2-26.1,5-28.7,7.9c-3,3.4-13,21.4-21.3,36.7l135.8,69.4L514.6,469.2z"/>
	<path class="st22" d="M600.5,583.3l56.6,58c0.5-4.8,1.1-9.8,1.6-14.4c0.8-7.2,2.4-29.4,3.4-43.5H600.5z"/>
	<path class="st78" d="M464.7,513.8c-6.6,12.2-12,22.6-12,22.6l49.1,40l6.7-11.5l6.1,29.1c0.2,0.7,0.5,1.4,0.8,2.3l85.3-13.1
		L464.7,513.8z"/>
	<path class="st78" d="M600.5,583.3l41.4,135.7c11.1-5.1,20.5-10.4,21.1-12.1c1.2-3.6,1.2-9.7,1.2-13.3c0-3.6-4.8-6.1-4.8-9.7
		s4.2-6.7,4.2-11.5c0-4.8-5.5-7.9-6.7-14.5c-0.7-3.8-0.4-9.9,0.2-16.5L600.5,583.3z"/>
	<path class="st79" d="M600.5,583.3l-33,140.2c16.9,4.1,35.3,7.9,42.1,7c7.3-0.9,21.2-6.4,33-11.8L600.5,583.3z"/>
	<path class="st80" d="M524.7,670.4c-2.4,4.8,2.4,9.1,2.4,11.5c0,2.4-1.2-2.4-5.5,6.7c-4.2,9.1,12.1,26.1,12.1,26.1s16,4.6,33.6,8.8
		l33-140.2l-76,69.8C525.3,662.1,525.5,668.9,524.7,670.4z"/>
	<path class="st22" d="M515.2,596.3c3.6,11.6,7.6,38.6,9.3,56.7l76-69.8L515.2,596.3z"/>
	<path class="st20" d="M492.3,582.2c0,0-24.5,47.3-24.5,49.1c0,1.8,55.5,57.3,58.6,59.1c3.2,1.8,13.6,7.3,15.9,11.4
		c2.3,4.1-7.7,46.8-10,49.5c-2.3,2.7-26.4-5-30.5-8.2c-1.8-1.4-5.5-10.9-0.5-13.6s10.9,1.8,12.3,0.5c1.4-1.4,8.6-16.8,8.6-19.5
		c0-2.7-40.9-16.8-57.7-26.8s-50.4-31.6-50.9-44.5c-0.5-11.4,39.1-98.6,39.1-98.6l41.4,35.9L492.3,582.2z"/>
	<path class="st81" d="M475,687.9c-16.8-10-60.8-35.5-61.3-48.4c-0.5-11.4,39.1-98.6,39.1-98.6l41.4,35.9l-1.8,5.9
		c0,0-24.5,47.3-24.5,49.1c0,1.8,5.3,7.2,8.5,9.1"/>
	<path class="st81" d="M676.5,573.5c0,0,19.7,28.1,20.1,29.8s-5.9,17.4-8.6,19.9"/>
	<path class="st81" d="M702.5,659.7c14.1-13.6,45.5-47.9,43.1-60.6c-2.2-11.2-30.4-54.8-30.4-54.8"/>
	<polyline class="st82" points="528.7,535.8 522,547.1 512.3,563.2 522,547.1 543.2,547.9 	"/>
	<path class="st68" d="M451,534.5c19.7,11.4,36.8,25.3,50.8,42l-4.8,8.5c-14.9-17.6-31.6-31.5-50-41.8L451,534.5z"/>
	<path class="st68" d="M720.8,534.5c-19.7,11.4-36.8,25.3-50.8,42l4.8,8.5c14.9-17.6,31.6-31.5,50-41.8L720.8,534.5z"/>
	<path class="st68" d="M549.1,464.1c0,0,14.1,25.5,45,25.5c30.9,0,35.9-27.3,35.9-27.3l7.3,3.6c0,0-7.7,32.7-41.8,32.7
		c-39.1,0-55.5-34.5-55.5-34.5H549.1z"/>
	<g>
		<g>
			<path class="st11" d="M584.7,609.3c14.2-9.6,23.8-19.2,29.6-29.3C608.5,590.2,598.9,599.8,584.7,609.3z"/>
			<path class="st11" d="M610.8,528.3c0.8,0.5,1.7,1.1,2.5,1.7C612.5,529.4,611.7,528.8,610.8,528.3z"/>
			<path class="st11" d="M554.7,602.2C554.7,602.2,554.7,602.2,554.7,602.2C554.7,602.2,554.7,602.2,554.7,602.2
				C554.7,602.2,554.7,602.2,554.7,602.2z"/>
			<path class="st11" d="M578.8,613.1C578.8,613.2,578.8,613.2,578.8,613.1c2.1-1.3,4-2.5,5.9-3.8
				C582.8,610.6,580.9,611.9,578.8,613.1C578.8,613.2,578.8,613.2,578.8,613.1z"/>
			<path class="st11" d="M614.5,531c0.8,0.7,1.5,1.5,2.2,2.4C616,532.5,615.3,531.7,614.5,531z"/>
		</g>
		<g>
			<path class="st11" d="M579.2,560.9c-0.4-0.9-0.8-1.9-1.2-2.8C578.4,559,578.8,559.9,579.2,560.9z"/>
			<path class="st11" d="M577.2,556c-0.2-0.7-0.5-1.4-0.7-2.1C576.8,554.6,577,555.3,577.2,556z"/>
			<path class="st11" d="M580.4,563.2c-0.3-0.6-0.6-1.2-0.9-1.7C579.8,562,580.1,562.6,580.4,563.2z"/>
			<path class="st11" d="M635.9,598.8c1.4-0.6,2.9-1.1,4.3-1.4c0,0,0,0,0,0C638.8,597.7,637.4,598.2,635.9,598.8z"/>
			<path class="st11" d="M586.5,591c4.1,3.8,8.9,7.5,14.5,11C595.3,598.4,590.5,594.8,586.5,591z"/>
			<path class="st11" d="M617.5,611C617.5,611,617.5,611,617.5,611c-6.2-2.9-11.7-5.9-16.6-9C605.8,605,611.3,608,617.5,611z"/>
			<path class="st11" d="M635.4,599c0.2-0.1,0.3-0.1,0.5-0.2C635.8,598.8,635.6,598.9,635.4,599z"/>
			<g>
				<path class="st11" d="M608.3,588.7c-0.8-0.3-1.5-0.7-2.3-1c-1.1-0.5-2.1-1-3.2-1.5c-2.2-1.1-4.3-2.3-6.3-3.5
					c-3.2,2.6-7,5.1-11,7.4c0.3,0.3,0.6,0.6,0.9,0.9c3.2,3,6.9,5.9,11,8.7C601.6,596.1,605.2,592.4,608.3,588.7z"/>
				<path class="st11" d="M633.8,596.7c-0.4-0.1-0.8-0.1-1.2-0.2c-2.1-0.4-4.4-0.9-6.7-1.5c-0.6-0.2-1.3-0.3-1.9-0.5
					c-3.1-0.9-6.3-1.9-9.5-3.2c-3.2,4.1-7,8.1-11.4,12c4.5,2.7,9.8,5.5,15.1,8c-0.3,0.3-0.5,0.5-0.8,0.8
					c7.1-6.6,14.8-11.3,22.8-14.7h0C638.4,597.3,636.2,597.1,633.8,596.7z"/>
				<path class="st11" d="M613.3,616.1c-5.6-2.7-10.7-5.5-15.3-8.4c-4.4,3.5-9.1,6.9-14.5,10.2l-0.3-0.3
					c5.4,4.7,10.5,10.5,16.3,17.5c4.6-8.1,9.7-14.7,15-20.2C614.1,615.3,613.6,615.7,613.3,616.1z"/>
				<path class="st11" d="M584.7,609.3c2.7-1.8,5.2-3.6,7.5-5.5c-4.8-3.4-9-6.9-12.6-10.6c-9.1,4.7-18.4,8.1-25,8.9l0,0
					c9.7,2.9,17.1,6.6,23.7,11.6l-0.2-0.2C580.2,612.3,582.8,610.6,584.7,609.3z"/>
			</g>
			<path class="st11" d="M635.4,599"/>
		</g>
		<g>
			<path class="st11" d="M587.7,568l-15-43.2c-4,0.9-7.7,2-11.1,3.1L587.7,568z"/>
			<g>
				<path class="st11" d="M575.5,549.2l12.2,18.8L577,537C575.2,540.5,574.8,544.8,575.5,549.2z"/>
				<path class="st11" d="M588.2,574.7c-0.1-0.1-4-5.2-4.1-5.3l-0.9-1.4c2.5,3.9,5.2,7.3,7.9,10.1L588.2,574.7z"/>
				<path class="st11" d="M535.3,540c12,20.9,20.3,39,20,55.6c5.4-0.9,12.7-3.7,19.9-7.3c-8.7-10.7-13.3-22.8-14-37
					c-0.3-5.1,0.4-9.8,2-13.9l-5.3-8.1C550.2,532.1,542.7,535.7,535.3,540z"/>
				<path class="st11" d="M583.2,568l-15.4-23.4c-0.2,1.3-0.3,2.6-0.4,4.1c0,0.8,0,1.5,0.1,2.3c0.1,2.6,0.4,5,0.8,7.5
					c1.3,7.3,3.8,14.1,8,20.5c0.5,0.7,0.9,1.4,1.4,2.1c1,1.4,2.1,2.8,3.2,4.1c3.8-2.2,7.3-4.5,10.4-6.8l-0.3-0.3
					C588.4,575.3,585.7,571.9,583.2,568z"/>
			</g>
		</g>
		<g>
			<path class="st11" d="M591,522c-5.1,0.4-9.9,1-14.3,1.9l17.2,49.3"/>
			<g>
				<path class="st11" d="M593.9,573.3l-0.1-1.6c-0.3-0.3-0.5-0.6-0.8-0.9L593.9,573.3z"/>
				<path class="st11" d="M591.7,534.4"/>
			</g>
		</g>
		<g>
			<path class="st11" d="M609.5,522.1c-5-0.4-9.8-0.5-14.4-0.4L598,573L609.5,522.1z"/>
			<path class="st11" d="M607.6,526.6c0.3,0.1,0.5,0.3,0.8,0.4l0.3-1.2l-2.8,0.2C606.4,526.1,607,526.3,607.6,526.6z"/>
		</g>
		<g>
			<path class="st11" d="M624.7,524.4c-3.8-0.8-7.6-1.4-11.2-1.8l-9.9,44.3L624.7,524.4z"/>
			<g>
				<path class="st11" d="M606.1,570.3c-1.6,2.8-3.3,5.4-5,7.5c3.3,2,7.1,3.9,11.1,5.6c0.8-1.1,1.5-2.2,2.1-3.4
					c5.9-10.1,8-20.7,7.4-32.1c0-0.8-0.1-1.6-0.2-2.3c-0.2-1.5-0.5-2.8-0.8-4.1l-13.5,27.1C607.1,568.7,606.7,569.4,606.1,570.3z"/>
				<path class="st11" d="M653,533.4c-8.1-3.5-16.2-6.1-24.2-8l-4.3,8.5c2.1,4,3.4,8.6,3.6,13.7c0.8,14.2-2.3,26.7-9.7,38.3
					c7.7,2.8,15.4,4.7,20.9,5C637.2,572.7,642,553.6,653,533.4z"/>
				<g>
					<path class="st11" d="M610.7,535l-7.1,31.8l10-20.1l0,0C613.7,542.3,612.9,538.2,610.7,535z"/>
					<path class="st11" d="M606.4,570c-3.1,5.5-6.7,10.1-9.8,12.6c-12,9.5-30.9,18.2-41.8,19.5c0,0,0,0,0,0c7.7,1,15.9,5.3,24.1,11
						c0,0,0,0,0,0c2.1-1.3,4-2.5,5.9-3.8c14.2-9.6,23.8-19.2,29.6-29.3c5.9-10.1,8-20.7,7.4-32.1c0-0.8-0.1-1.6-0.2-2.3
						c-0.2-1.5-0.5-2.8-0.8-4.1l-13.5,27.1C607.1,568.7,606.8,569.2,606.4,570z"/>
				</g>
			</g>
		</g>
	</g>
	<path class="st83" d="M544.1,465.6"/>
</g>
<g>
	<path class="st23" d="M136.8,473.7c0,0-1.3,15.8-0.2,21.1c1.1,5.3,21.8,8.2,21.8,8.2l-1.6,58.2l-86.2-0.7l-6.2-34.4
		c0,0,30.2-25.8,31.5-32.2s2.7-23.6,2.7-23.6L136.8,473.7z"/>
	<path class="st21" d="M151.3,501.7c-5.2,7-14.7,16.8-29.8,22.5c-25.5,9.5-57.1,1.9-57.1,1.9l6.2,34.4l86.2,0.7l1.6-58.2
		C158.4,503,155.2,502.6,151.3,501.7z"/>
	<path class="st84" d="M96.2,490.2c0,0,6.9,3.1,18.7,3.6c11.8,0.4,23.5-2.4,23.5-2.4l3.1,4c0,0-11.8,5.1-25.1,4.2
		c-16.9-1.1-24-5.8-24-5.8L96.2,490.2z"/>
	<path class="st20" d="M110.8,662c25.1-0.2,40.9-1.1,40.9-1.1s0.7-7.8,1.8-15.5c1.1-7.5,3.6-27.3,3.6-27.3l-97,4.7
		c0,0,2,9.8,2.7,17.3c0.7,7.5,1.8,16,1.8,16S87.5,662.2,110.8,662z"/>
	<path class="st20" d="M300.2,591.6c0,0.5-4.4,15.9-5.8,18.2c-5.3,9.3-34.9,15.7-37.9,18.4c-2.9,2.7-20.1,19.6-28.8,25.6
		c-11.4,7.8-23.4,16.7-33.9,21.1c-11.7,4.8-27.7,14.8-32.6,13c-4.9-1.7-11.5-20-10.1-25.5c1.5-5.5,1.3-148,11.8-157.5
		c6.5-5.9,22,4.9,23.1,10.1c5.3,24.9,1.8,51.5-0.6,68.7c-1.3,9.6-9.5,55.7-9.5,55.7s24.9-3.6,33.8-7.7c8.9-4.1,34.4-8.8,38.7-13.5
		s7.7-22.2,10.3-26.6c7.5-12.4,26-20,30.2-20.9c4.2-0.9,7.2,3.3,12,2.7C304.3,572.9,300.5,586.9,300.2,591.6z"/>
	<line class="st81" x1="153.7" y1="629.7" x2="150" y2="656.7"/>
	<path class="st85" d="M62.4,504.6c0,0,3.4,19.5,5.8,27.9c2.4,8.4,6.5,12.4,14.8,14.8c8.3,2.4,55.7-0.6,64.5-7.7
		c4-3.2,7.1-26,4.4-36.4l11.1,1.8c0,0-1,20.1,0.7,39c1.8,18.9,4.5,24.8,3.4,35.9c-1.1,11.1-10.5,41.4-11.2,44.7
		c-0.7,3.3-8,16.7-44.9,15.8c-36.9-0.9-50.2-10.9-51.1-14.7c-0.9-3.8-4.4-57.7-3.6-65.3c0.9-7.5,1.4-11.6,0.5-27.6
		c-0.9-16-3-26.4-3-26.4L62.4,504.6z"/>
	<path class="st86" d="M98.8,474.6c0,0,3.3,15.3-2.7,25.8c-6,10.4-17.8,13.3-18.2,20.4c-0.4,7.1,8.2,13.8,8.2,15.5s-18,3.7-23.6-5.6
		c-6-9.9-6.4-21.1,0.3-26.4l-8.6,2.2l-23.2,70.8c0,0-30.2-14.6-31.1-27.7c-0.9-13.1,17.1-26.6,18-43.3c0.9-16.7-8-20-6.2-30
		c1.8-10,19.1-31.1,20.9-43.1c1.8-12,2.9-57.3,17.5-77.1c14.7-19.8,39.7-25.2,45.5-28c7.5-3.6,13.1-10.9,13.8-13.1
		c0.7-2.2-8.4-7.1-9.1-12.4c-0.7-5.3,7.3-16.2,19.1-22c12-5.9,31.4-6.3,34.4,2c6.4,17.8-19.8,28.6-19.8,31.1
		c0,2.4,6.4,10.7,12.7,12.4c6.2,1.8,18.4-0.9,27.5,7.5c9.1,8.4,15.1,48,22,59.1c6.9,11.1,28.2,22.4,31.5,38.4
		c3.3,16-11.3,40.9-11.5,52c-0.2,11.1,7.1,22.9,6.4,32c-0.7,9.1-12.4,31-14.4,41.2c-2,10.2-22.2,14.7-22.2,14.7s5.3-49.3-5.3-60.8
		c-3.6-3.9-16.4-5.3-16.4-5.3s-23.1-3.1-26.6-8.4c-3.6-5.3-0.9-22.9-0.9-22.9l-18.4-8.2L98.8,474.6z"/>
	<path class="st21" d="M164.8,446.3c0,0-5.3,16.3-15.5,21.8c-22.1,11.8-43,9.8-54,5c-17.3-7.5-34.3-26.2-28-53.7
		c0,0,4.7-17.5,12.7-29.5c7-10.5,14.2-18.2,14.2-32c0,0,13.5,10.9,31.1,9.3c17.5-1.6,20-6.9,22.2-11.1c0,0,18.2,13.1,20.4,23.1
		c2.2,10-1.3,18.2-0.2,37.5C168.6,433.1,163,435.7,164.8,446.3z"/>
	<path class="st20" d="M96.3,470.3c-8.6-5.3-25.8-20.2-25.8-42.7c0-22.5,10.7-43.2,28.4-50.9c16.2-7,49.2-4.2,67.5,5.9
		c1.1,8.8,1,17.6,2,35c0.9,16.3,4.9,39.4-20.6,49.9C144.1,469,111.8,479.9,96.3,470.3z"/>
	<path class="st87" d="M161.5,404c5,0-15.3-1.4-19.2,2.5"/>
	<circle class="st88" cx="148.7" cy="411.4" r="7.1"/>
	<path class="st89" d="M79.6,402.7c0,0,15.5,0,18.6,3.6"/>
	<circle class="st88" cx="92.7" cy="411.1" r="7.1"/>
	<path class="st90" d="M165.7,395c0,0-11-4.3-22.5-4.3"/>
	<path class="st90" d="M99.5,390.5c-8.9,0.4-21.5,1.3-21.5,1.3"/>
	<path class="st91" d="M123.3,402.2c0,0-2.4,9.8,0.2,14.4c2.7,4.7,7.9,2.1,7.9,7.6c0,1.7-3,8.3-10.8,7.9c-7.8-0.4-7.5-3.7-7.5-3.7"
		/>
	<path class="st91" d="M126.9,448.3c0,0-4.3,2.5-10.8,2.4c-9.1-0.2-13.3-8.3-13.3-8.3"/>
	<line class="st92" x1="116.4" y1="496.8" x2="116.4" y2="504.8"/>
	<circle class="st93" cx="116.4" cy="507.4" r="5.5"/>
	<path class="st20" d="M54.1,506.9c0,0,3.6,14.9,4.1,22.1c0.6,7.3-1.3,27.5-1.3,27.5c-0.1,0.2,4,59.3,3.8,71
		c-0.4,23.2-4.4,53.6-4.4,53.6S30,742.1,30,741.8c-1.5-13-9.5-71.4-0.6-90.6c2.1-4.5,1.9-49.7,3-62.8c1.8-22.5-2.4-70.5,6.5-78.2
		C45.1,504.8,54.1,506.9,54.1,506.9z"/>
	<path class="st94" d="M64.2,655.3c0,0,29.2,6.1,43.7,6.1s43.5-4.4,43.5-4.4s0.3,10.7,2.4,17.5c2.1,6.8,33.6,43.7,32.9,73
		c-0.9,41.7-39.4,198.5-46.6,205.6c-9.2,9.1-29.3-71.1-29.8-74.2c-0.4-3.1,0-84.8-2.2-88.4c-2.2-3.6,1.6-26.2,2.2-24.4
		c0.4,1,20,93.6,24.4,134.1c1.1,9.7,1.2,31.6,1.8,32.4c2.9,4.3,4.4,12.5,5.1,15.5c0.8,3-0.2,11.5,0.4,14.1s3.5,4.6,4.5,8.5
		s-0.9,7.1,0,10.6c0.9,3.4,19.4,85.8,19.7,92.2c0.3,6.4,0.9,12.2-0.1,13.8c-1,1.6-10.9,7.4-16.1,8.7c-5.2,1.3-21.2,3.2-23.7,0.6
		c-2.5-2.6-21-51-23.2-59.6c-2.2-8.6-3.9-17-4.9-20.9c-1-3.9-8.9-25.9-9.8-27.5s-4.9-1-5.6-4c-0.8-3,0.2-6.5-0.9-10.8
		s-6.8-7.5-7.6-10.5s2.5-9.3,2-11.5c-0.6-2.1-5.2-7.8-5.6-10.9c-0.3-3.1-2.6-15.4-3-17.1c-0.4-1.7-40.7-146.6-41.1-155
		c-0.9-22.2,8.9-49.3,14.2-60.4s18.7-34.6,20.4-37.3C63.1,668.4,64.2,655.3,64.2,655.3z"/>
	<path class="st94" d="M165,804.4c-1.6,1-35.9,134-35.2,139.1c0.7,5.2,4.1,8.2,3.4,11.2s-5.4,10.2-6,12.8c-0.6,2.6,1,5.7,0.2,9.6
		c-0.9,3.9-4,5.9-4.8,9.4c-0.8,3.5-21.5,85.3-24.2,91.1c-2.6,5.8-4.8,11.2-6.3,12.2c-1.6,1-13.1,1.7-18.3,0.5
		c-5.2-1.1-20.3-6.8-21.4-10.2c-1.1-3.4,1.3-53.6,3.3-62.2c1.9-8.7,0.5-22.3,1.3-26.2c0.9-3.9,6.1-11.5,6-13.4
		c-0.1-1.8-3.9-3.1-3.2-6.2c0.7-3,3.1-5.7,4-10c1-4.3,0.4-5.2,1.1-8.2s4.9-7.2,5.3-9.3c0.5-2.2,2.4-9.1,3.6-12
		c1.1-2.9,10.3-23.1,10.7-24.9c0.4-1.7,1.2-119.5,2.7-127.8C91,758.1,165,804.4,165,804.4z"/>
	<path class="st21" d="M162.4,1098c0,0,4.4,22.9,5.8,27s4.2,9.5,5.1,13s12,37.1,11.1,44.2c-0.4,3,1.4,13.1-12.4,15.1
		c-13.8,2-32.2,0.3-35.1-3.1c-2.9-3.4,1.8-13.9,4.2-18.2c3.3-5.8,7.4-15.1,7.2-18.9c-0.3-3.8-1.1-16.7-6-28.3
		c-4.9-11.7-11.4-21.8-11.4-21.8L162.4,1098z"/>
	<path class="st95" d="M123.9,1098.4l-3.1,2.2c0,0,0.9,8,2.3,10.2c1.5,2.2,9.6,3.5,12.4,2.8c2.8-0.7,24.4-10.5,26.5-11.1
		c2.2-0.5,8.8-2.4,10.1-3.5c1.3-1-0.4-4.5-1.2-7.5c-0.8-3-2-8-3.7-6.4c-1.7,1.6-12,7.6-19.8,10.3
		C139.6,1098,123.9,1098.4,123.9,1098.4z"/>
	<g>
		<path class="st21" d="M101,1182.4c0,0-6.7,3.7-21.8,4.5c-15.1,0.8-22.9-3.8-22.9-3.8s8.8-25.4,8.8-33.4s-3.5-54.1-3.5-54.1
			l27.9,2.4c0,0-3,30.6-0.5,43.2C91.6,1153.8,103.8,1176.2,101,1182.4z"/>
		<path class="st93" d="M89.6,1115.2c0,0-8.1,1.6-13.5,1.6c-5.3,0.1-15-1.2-15-1.2l0.9,8.8c0,0,8.3,2,13.4,1.7
			c5.1-0.3,13.9-1.7,13.9-1.7L89.6,1115.2z"/>
		<path class="st93" d="M97.4,1160.4c0,0-9.7-1.9-17.2-1.7c-7.6,0.2-19.9,2.7-19.9,2.7l-3.1,9.1c0,0,14.1-2.3,21.9-2.1
			c7.8,0.2,22.6,2.5,22.6,2.5L97.4,1160.4z"/>
		<path class="st85" d="M103.5,1179.9l0,12.7c0,0-2.1,9.7-23.4,10.6c-21.3,1-26-8.1-26-8.1l1.5-13.6c0,0,7.9,5.8,23.4,4.7
			S103.5,1179.9,103.5,1179.9z"/>
	</g>
	<path class="st95" d="M55.9,1081.2c-4.4,0.9-6.4-0.8-7.6,1.1c-1.2,1.9-1.7,8.1-1.5,9.9c0.3,1.8,21,8.4,28.2,8.9
		c7.2,0.4,20.2-0.5,21.6-1.1c1.4-0.6,2.4-4.3,2.9-6.7s2.2-8.2-0.6-8.1c-2.9,0.1-16.1,4-22.2,2.1
		C70.6,1085.2,55.9,1081.2,55.9,1081.2z"/>
	<path class="st85" d="M135.6,1194.3l2.2,18.3c0,0,14.6,2.6,28.4,1.1c12.9-1.3,20-9,20.4-10.7c0.5-1.6-1.8-24.9-1.8-24.9
		s-0.4,13.5-9.3,17.3c-8.9,3.9-22.9,2.1-29.7,1.2C138.9,1195.9,135.6,1194.3,135.6,1194.3z"/>
	<path class="st93" d="M137.1,1180c0,0,24.7-0.6,31.3,3.2c6.5,3.9,10.9,9.8,10.9,9.8s5.4-4.4,6.4-8.2c0.9-3.8-1-9.3-1-9.3
		s-7.4-5.1-17.8-6.8c-10.4-1.8-24.5-1-24.5-1L137.1,1180z"/>
	<path class="st93" d="M138.5,1124.5c0,0,11-0.1,16.8-1.5c5.9-1.4,11.8-4.2,11.8-4.2l2.4,6.2c0,0-3.6,5-12,7.2
		c-8.4,2.2-17,1.8-17,1.8L138.5,1124.5z"/>
	<path class="st20" d="M89.3,932.6c2.2,0,22.7-3,28.1-3c5.4,0,5.4,2.4,5.7,5.1s1.1,5.4,3.8,5.7c2.7,0.3,3.5,1.4,3.8,3.8
		c0.3,2.4,1.6,5.9,0.8,7.6c-0.8,1.6-9.7,8.1-18.1,8.9c-8.4,0.8-21.9,2.7-23,0.8c-1.1-1.9,0.3-1.9,2.4-5.1c2.2-3.2,1.6-7,1.6-7
		s-4.3-0.8-4.9-2.2c-0.5-1.4,2.7-5.7,3-7.8c0.3-2.2-4.3-6.8-4.3-6.8H89.3z"/>
	<path class="st94" d="M106.7,313.1c0,0,13.6,3.6,18.1,2.7s11.3-3.6,11.3-3.6l1.5,5.3c0,0-3.8,2.7-13.3,4.1c-11.8,1.8-19.2-3-19.2-3
		l1.2-4.1L106.7,313.1z"/>
	<path class="st96" d="M63.8,668.7c0,0,22.6,12.4,32.9,13.8"/>
	<path class="st96" d="M116.2,684.2c0,0,20.6-1.1,24.9-2.7c7.1-2.7,9.3-4.9,9.3-4.9"/>
	<line class="st96" x1="108.6" y1="664.2" x2="109.5" y2="748.2"/>
	<path class="st96" d="M119.7,662c0,0,4.9,8,4.9,12s0.4,8.4,0.4,8.4"/>
	<path class="st96" d="M125,662.5c0,0,2.2,3.6,3.6,8c1.3,4.4,1.3,10.2,1.3,10.2"/>
	<path class="st96" d="M92.2,662.9c0,0-3.6,3.6-3.6,7.1c0,3.6-0.4,8.9-0.4,8.9"/>
	<path class="st96" d="M85.1,661.1c0,0-2.2,3.6-2.2,6.2c0,2.7-0.4,9.3-0.4,9.3"/>
	<path class="st96" d="M137,684.2c0,0,5.3,14.7,13.3,21.3c8,6.7,24.9,14.7,24.9,14.7"/>
	<path class="st96" d="M80.6,679.3c0,0-14.7,20.4-20.9,25.3s-14.2,8-14.2,8"/>
	<path class="st96" d="M121.9,686.4c0,2.7,3.6,31.1,4.4,36.9c0.9,5.8,1.3,9.3,0.4,14.7c-0.9,5.3-10.7,14.2-10.7,14.2"/>
	<path class="st96" d="M109.7,762.1c0,0-23.5-17.8-30.6-19.5"/>
	<path class="st96" d="M115.7,764.2c0,0,0.2-4.3,6-9.2c5.8-4.9,7.1-3.6,7.1-3.6"/>
	<circle class="st96" cx="115.3" cy="673.6" r="4"/>
	<circle class="st11" cx="152.6" cy="407.8" r="2.5"/>
	<circle class="st11" cx="96.6" cy="408" r="2.5"/>
	<path class="st96" d="M111.1,768.3c0,0,21.3,80.8,22.2,91c0.9,10.2,1.3,36.9,1.3,39.1s2.7,10.2,3.1,14.7s-0.9,12-0.9,12
		s3.6,6.2,4,10.2s-0.4,11.1-0.4,12.4s3.1,7.5,3.1,7.5l-0.4,9.3"/>
	<path class="st96" d="M66.2,914.9c1.8,7.5,7.5,20,9.3,23.1c1.8,3.1,1.8,9.3,1.8,11.5s4.9,11.5,5.8,13.8c0.9,2.2,1.8,10.2,1.8,10.2
		l4,15.1l2.7,15.5c0,0,3.6,12,6.7,20.9c3.1,8.9,11.5,31.1,11.5,31.1"/>
	<path class="st97" d="M265.2,606.2c0,0,8.9-2.7,11.1-7.5c2.2-4.9,0.9-10.7,4.4-13.3c3.6-2.7,12.9-6.2,13.3-8.9
		c0.4-2.7-2.2-4.4-2.2-4.4"/>
	<path class="st97" d="M285.1,612.9c-2.2-0.4-4.9-4.9-4.9-4.9l6.2-4l-4.4-4.9l13.3-5.8l0.9-2.2l-11.1,1.8c0,0,0-1.8,0.4-3.6
		c0.4-1.8,8-7.5,8-7.5"/>
	<g>
		<g>
			<path class="st11" d="M106.9,609c8-4.7,13.5-9.5,17.1-14.8C120.4,599.5,114.9,604.3,106.9,609z"/>
			<path class="st11" d="M123.9,566.1c0.4,0.3,0.9,0.7,1.3,1C124.7,566.7,124.3,566.4,123.9,566.1z"/>
			<polygon class="st11" points="90.8,604.1 90.9,604.1 90.8,604.1 			"/>
			<path class="st11" d="M103.5,610.9C103.5,610.9,103.5,610.9,103.5,610.9c1.2-0.6,2.3-1.2,3.3-1.9
				C105.8,609.6,104.7,610.2,103.5,610.9C103.5,610.9,103.5,610.9,103.5,610.9z"/>
			<path class="st11" d="M125.8,567.7c0.4,0.4,0.8,0.9,1.1,1.4C126.5,568.6,126.2,568.1,125.8,567.7z"/>
		</g>
		<g>
			<path class="st11" d="M105.6,582.6c-0.2-0.5-0.4-1-0.6-1.6C105.2,581.5,105.4,582.1,105.6,582.6z"/>
			<path class="st11" d="M104.7,579.9c-0.1-0.4-0.2-0.8-0.3-1.2C104.5,579.1,104.6,579.5,104.7,579.9z"/>
			<path class="st11" d="M106.2,583.9c-0.1-0.3-0.3-0.6-0.4-1C105.9,583.2,106,583.6,106.2,583.9z"/>
			<path class="st11" d="M135,605.1c0.8-0.3,1.6-0.5,2.4-0.6c0,0,0,0,0,0C136.6,604.6,135.8,604.8,135,605.1z"/>
			<path class="st11" d="M108.5,599.1c2.1,2.2,4.5,4.4,7.4,6.5C113,603.5,110.5,601.3,108.5,599.1z"/>
			<path class="st11" d="M124.5,611.1C124.5,611.1,124.5,611.1,124.5,611.1c-3.2-1.8-6.1-3.6-8.7-5.5
				C118.4,607.4,121.3,609.3,124.5,611.1z"/>
			<path class="st11" d="M134.7,605.2c0.1,0,0.2-0.1,0.3-0.1C134.9,605.2,134.8,605.2,134.7,605.2z"/>
			<g>
				<path class="st11" d="M120.3,598.7c-0.4-0.2-0.8-0.4-1.2-0.6c-0.6-0.3-1.1-0.6-1.7-1c-1.2-0.7-2.3-1.4-3.3-2.1
					c-1.9,1.3-4,2.5-6.2,3.6c0.2,0.2,0.3,0.3,0.5,0.5c1.6,1.7,3.5,3.4,5.6,5.1C116.5,602.4,118.6,600.6,120.3,598.7z"/>
				<path class="st11" d="M133.9,603.9c-0.2,0-0.4-0.1-0.6-0.2c-1.1-0.3-2.3-0.6-3.6-1.1c-0.3-0.1-0.7-0.2-1-0.4
					c-1.6-0.6-3.3-1.3-5-2c-1.9,2.1-4.1,4.1-6.6,6.1c2.3,1.6,5.1,3.3,7.9,4.9c-0.2,0.1-0.3,0.3-0.5,0.4c4.1-3.3,8.4-5.6,12.9-7.1h0
					C136.3,604.4,135.1,604.2,133.9,603.9z"/>
				<path class="st11" d="M122.1,613.7c-2.9-1.7-5.6-3.4-8-5.1c-2.5,1.7-5.2,3.4-8.2,5l-0.2-0.2c2.7,2.8,5.3,6,8.2,10
					c2.8-4.2,5.8-7.6,8.9-10.4C122.5,613.3,122.3,613.5,122.1,613.7z"/>
				<path class="st11" d="M106.9,609c1.5-0.9,2.9-1.8,4.3-2.7c-2.5-2-4.6-4.1-6.5-6.2c-5.1,2.2-10.3,3.7-13.8,3.9l0,0
					c5.1,1.9,9,4.2,12.4,7.1l-0.1-0.1C104.3,610.4,105.8,609.6,106.9,609z"/>
			</g>
			<path class="st11" d="M134.7,605.2"/>
		</g>
		<g>
			<path class="st11" d="M110,586.7l-6.6-23.9c-2.2,0.4-4.2,0.8-6.1,1.3L110,586.7z"/>
			<g>
				<path class="st11" d="M104,576.1l5.9,10.6l-4.7-17.2C104.1,571.4,103.8,573.7,104,576.1z"/>
				<path class="st11" d="M110,590.4c-0.1-0.1-2-2.9-2-3l-0.4-0.8c1.2,2.2,2.6,4.1,3.9,5.7L110,590.4z"/>
				<path class="st11" d="M82.6,569.7c5.8,11.7,9.6,21.8,8.8,30.8c2.9-0.3,7-1.5,11-3.2c-4.3-6.1-6.4-12.8-6.3-20.5
					c0-2.8,0.6-5.3,1.6-7.5l-2.6-4.6C91,566,86.8,567.6,82.6,569.7z"/>
				<path class="st11" d="M107.5,586.6l-7.5-13.2c-0.2,0.7-0.3,1.4-0.3,2.2c0,0.4-0.1,0.8-0.1,1.3c0,1.4,0,2.7,0.2,4.1
					c0.4,4,1.6,7.8,3.6,11.4c0.2,0.4,0.5,0.8,0.7,1.2c0.5,0.8,1,1.6,1.6,2.3c2.1-1,4.1-2.1,5.9-3.3l-0.1-0.2
					C110.1,590.7,108.7,588.8,107.5,586.6z"/>
			</g>
		</g>
		<g>
			<path class="st11" d="M113.4,562c-2.8,0-5.4,0.2-7.8,0.5l7.5,27.3"/>
			<g>
				<path class="st11" d="M113.1,589.8l0-0.9c-0.1-0.2-0.3-0.3-0.4-0.5L113.1,589.8z"/>
				<path class="st11" d="M113.3,568.7"/>
			</g>
		</g>
		<g>
			<path class="st11" d="M123.4,562.7c-2.7-0.4-5.3-0.6-7.8-0.7l-0.3,27.8L123.4,562.7z"/>
			<path class="st11" d="M122.2,565c0.1,0.1,0.3,0.2,0.4,0.2l0.2-0.7l-1.5,0C121.6,564.7,121.9,564.9,122.2,565z"/>
		</g>
		<g>
			<path class="st11" d="M131.5,564.4c-2-0.6-4.1-1-6-1.4l-6.9,23.6L131.5,564.4z"/>
			<g>
				<path class="st11" d="M119.8,588.7c-1,1.5-2,2.8-3,3.9c1.7,1.2,3.7,2.3,5.8,3.4c0.4-0.6,0.9-1.2,1.3-1.7
					c3.5-5.3,5.1-10.9,5.1-17.1c0-0.4,0-0.9,0-1.3c0-0.8-0.2-1.5-0.3-2.2l-8.3,14.2C120.4,587.8,120.2,588.2,119.8,588.7z"/>
				<path class="st11" d="M146.5,570.3c-4.3-2.2-8.6-3.9-12.8-5.2l-2.6,4.5c1,2.2,1.5,4.8,1.5,7.5c-0.1,7.7-2.2,14.4-6.6,20.4
					c4.1,1.8,8.2,3.1,11.1,3.4C136.6,591.1,139.9,580.9,146.5,570.3z"/>
				<g>
					<path class="st11" d="M123.6,569.7l-5,16.9l6.1-10.5l0,0C124.9,573.7,124.6,571.5,123.6,569.7z"/>
					<path class="st11" d="M120,588.5c-1.9,2.9-4,5.2-5.8,6.5c-6.8,4.7-17.4,8.8-23.3,9.1c0,0,0,0,0,0c4.1,0.8,8.4,3.4,12.7,6.8
						c0,0,0,0,0,0c1.2-0.6,2.3-1.2,3.3-1.9c8-4.7,13.5-9.5,17.1-14.8c3.5-5.3,5.1-10.9,5.1-17.1c0-0.4,0-0.9,0-1.3
						c0-0.8-0.2-1.5-0.3-2.2l-8.3,14.2C120.4,587.8,120.2,588.1,120,588.5z"/>
				</g>
			</g>
		</g>
	</g>
	<line class="st81" x1="219.5" y1="628.6" x2="220.6" y2="658.6"/>
</g>
<polygon class="st98" points="222.2,680.6 327.4,696.7 327.4,533.5 220.1,619.4 "/>
</svg>
