<?xml version="1.0" encoding="utf-8"?>
<!-- Generator: Adobe Illustrator 22.0.1, SVG Export Plug-In . SVG Version: 6.00 Build 0)  -->
<svg version="1.1" id="Layer_1" xmlns="http://www.w3.org/2000/svg" xmlns:xlink="http://www.w3.org/1999/xlink" x="0px" y="0px"
	 viewBox="0 0 322.1 341.7" style="enable-background:new 0 0 322.1 341.7;" xml:space="preserve">
<style type="text/css">
	.st0{fill:#A0695F;}
	.st1{fill:#B2776B;}
	.st2{fill:#BC7F6C;}
	.st3{fill:#680100;}
	.st4{stroke:#680100;stroke-width:0.8124;stroke-linecap:round;stroke-linejoin:round;stroke-miterlimit:10;}
	.st5{fill:none;stroke:#680100;stroke-width:0.8124;stroke-linecap:round;stroke-linejoin:round;stroke-miterlimit:10;}
	.st6{fill:#EA4918;}
	.st7{fill:#F7931E;}
	.st8{fill:#CE8936;}
	.st9{fill:#F4C484;}
	.st10{fill:#F15A24;}
	.st11{fill:#FFFFFF;}
	.st12{fill:none;stroke:#D67822;stroke-width:1.025;stroke-linecap:round;stroke-linejoin:round;stroke-miterlimit:10;}
	.st13{fill:#EFD2AF;}
	.st14{fill:#FF931E;}
	.st15{fill:#E99F5C;}
	.st16{fill:none;stroke:#A0695F;stroke-width:0.8927;stroke-linecap:round;stroke-linejoin:round;stroke-miterlimit:10;}
	.st17{fill:none;stroke:#A0695F;stroke-width:0.8927;stroke-miterlimit:10;}
	.st18{fill:none;stroke:#A0695F;stroke-width:0.9081;stroke-linecap:round;stroke-linejoin:round;stroke-miterlimit:10;}
	.st19{fill:none;stroke:#A0695F;stroke-width:0.9081;stroke-miterlimit:10;}
	.st20{fill:#FFBA85;}
	.st21{fill:#EF9D78;}
	.st22{fill:#0084E0;}
	.st23{fill:#D88D71;}
	.st24{fill:none;stroke:#680100;stroke-width:0.9833;stroke-linecap:round;stroke-linejoin:round;stroke-miterlimit:10;}
	.st25{stroke:#680100;stroke-width:0.9833;stroke-linecap:round;stroke-linejoin:round;stroke-miterlimit:10;}
	.st26{fill:#2E86B7;}
	.st27{fill:#A6CFE8;}
	.st28{fill:none;stroke:#D88D71;stroke-width:0.9833;stroke-linecap:round;stroke-linejoin:round;stroke-miterlimit:10;}
	.st29{fill:#2E3192;}
	.st30{fill:#434BAA;}
	.st31{fill:none;}
	.st32{fill:#29ABE2;}
	.st33{fill:none;stroke:#0084E0;stroke-width:0.9833;stroke-linecap:round;stroke-linejoin:round;stroke-miterlimit:10;}
	.st34{fill:none;stroke:#256C84;stroke-width:0.9833;stroke-linecap:round;stroke-linejoin:round;stroke-miterlimit:10;}
	.st35{fill:#8DAFC6;}
	.st36{fill:#7794A0;}
	.st37{fill:#256C84;}
	.st38{fill:none;stroke:#7794A0;stroke-width:0.7969;stroke-linecap:round;stroke-linejoin:round;stroke-miterlimit:10;}
	.st39{fill:none;stroke:#004F5E;stroke-width:0.9833;stroke-linecap:round;stroke-linejoin:round;stroke-miterlimit:10;}
	.st40{fill:#F0B68D;}
	.st41{fill:none;stroke:#D88D71;stroke-width:0.9007;stroke-linecap:round;stroke-linejoin:round;stroke-miterlimit:10;}
	.st42{fill:#3FD18B;}
	.st43{fill:#009245;}
	.st44{fill:#39B54A;}
	.st45{fill:none;stroke:#006837;stroke-width:0.8755;stroke-linecap:round;stroke-linejoin:bevel;stroke-miterlimit:10;}
	.st46{fill:#91AF61;}
	.st47{fill:#218955;}
	.st48{fill:#25995F;}
	.st49{fill:#006837;}
	.st50{fill:#BDCCD4;stroke:#006837;stroke-width:1.3171;stroke-miterlimit:10;}
	.st51{fill:none;stroke:#680100;stroke-width:1.0131;stroke-linecap:round;stroke-linejoin:round;stroke-miterlimit:10;}
	.st52{fill:#680100;stroke:#680100;stroke-width:1.0131;stroke-linecap:round;stroke-linejoin:round;stroke-miterlimit:10;}
	.st53{stroke:#680100;stroke-width:0.9656;stroke-linecap:round;stroke-linejoin:round;stroke-miterlimit:10;}
	.st54{fill:none;stroke:#006837;stroke-width:1.0245;stroke-linecap:round;stroke-linejoin:round;stroke-miterlimit:10;}
	.st55{fill:#36D88B;}
	.st56{fill:none;stroke:#30B271;stroke-width:1.0131;stroke-linecap:round;stroke-linejoin:round;stroke-miterlimit:10;}
	.st57{fill:none;stroke:#30B271;stroke-width:0.8826;stroke-linecap:round;stroke-linejoin:round;stroke-miterlimit:10;}
	.st58{fill:none;stroke:#006837;stroke-width:1.0131;stroke-linecap:round;stroke-linejoin:round;stroke-miterlimit:10;}
	.st59{fill:none;stroke:#006837;stroke-width:0.9569;stroke-linecap:round;stroke-linejoin:bevel;stroke-miterlimit:10;}
	.st60{stroke:#680100;stroke-width:1.0448;stroke-linecap:round;stroke-linejoin:round;stroke-miterlimit:10;}
	.st61{fill:#0FA593;}
	.st62{fill:#E6E6E6;}
	.st63{fill:#097F71;}
	.st64{fill:none;stroke:#E8A272;stroke-width:1.0245;stroke-linecap:round;stroke-linejoin:round;stroke-miterlimit:10;}
	.st65{fill:#808080;}
	.st66{fill:none;stroke:#666666;stroke-width:1.0235;stroke-linecap:round;stroke-linejoin:round;stroke-miterlimit:10;}
	.st67{fill:#999999;}
	.st68{fill:#4D4D4D;}
	.st69{fill:#CCCCCC;}
	.st70{fill:none;stroke:#680100;stroke-width:0.917;stroke-linecap:round;stroke-linejoin:round;stroke-miterlimit:10;}
	.st71{stroke:#680100;stroke-width:0.9457;stroke-linecap:round;stroke-linejoin:round;stroke-miterlimit:10;}
	.st72{fill:none;stroke:#680100;stroke-width:0.8789;stroke-linecap:round;stroke-linejoin:round;stroke-miterlimit:10;}
	.st73{stroke:#680100;stroke-width:0.9063;stroke-linecap:round;stroke-linejoin:round;stroke-miterlimit:10;}
	.st74{stroke:#680100;stroke-width:0.8423;stroke-linecap:round;stroke-linejoin:round;stroke-miterlimit:10;}
	.st75{fill:#693A1E;}
	.st76{fill:none;stroke:#680100;stroke-width:1.0235;stroke-linecap:round;stroke-linejoin:round;stroke-miterlimit:10;}
	.st77{fill:#935733;}
	.st78{fill:none;stroke:#E6E6E6;stroke-width:1.0235;stroke-linecap:round;stroke-linejoin:round;stroke-miterlimit:10;}
	.st79{fill:#6BC437;}
	.st80{fill:#FF1D7E;}
	.st81{fill:#FFA90F;}
	.st82{fill:none;stroke:#999999;stroke-width:1.0235;stroke-linecap:round;stroke-linejoin:round;stroke-miterlimit:10;}
	.st83{fill:none;stroke:#FFBA85;stroke-width:1.0235;stroke-miterlimit:10;}
	.st84{fill:#C1272D;}
	.st85{fill:#9E005D;}
	.st86{fill:#ED1E79;}
	.st87{fill:#FFFFFF;stroke:#680100;stroke-linecap:round;stroke-linejoin:bevel;stroke-miterlimit:10;}
	.st88{stroke:#680100;stroke-linejoin:bevel;stroke-miterlimit:10;}
	.st89{fill:#FFFFFF;stroke:#680100;stroke-width:0.934;stroke-linecap:round;stroke-linejoin:bevel;stroke-miterlimit:10;}
	.st90{fill:none;stroke:#D4145A;stroke-width:0.934;stroke-linecap:round;stroke-linejoin:bevel;stroke-miterlimit:10;}
	.st91{fill:none;stroke:#680100;stroke-width:0.934;stroke-linecap:round;stroke-linejoin:bevel;stroke-miterlimit:10;}
	.st92{fill:#E5CFB1;stroke:#C1272D;stroke-width:0.934;stroke-linecap:round;stroke-linejoin:round;stroke-miterlimit:10;}
	.st93{fill:#FF1D25;}
	.st94{fill:#FF7BAC;}
	.st95{fill:#E2B7C9;}
	.st96{fill:none;stroke:#DB4F88;stroke-linecap:round;stroke-linejoin:round;stroke-miterlimit:10;}
	.st97{fill:none;stroke:#E8A272;stroke-width:1.0112;stroke-linecap:round;stroke-linejoin:round;stroke-miterlimit:10;}
</style>
<g>
	<path class="st0" d="M80.3,90.6c0,0-1.2,7.2-1.8,8.3c-1.4,2.8-11,3.8-11,3.8s5.8,10.9,14.1,13.6c8.3,2.7,20.1,1.9,25.9-2.3
		c5.8-4.1,10.7-10.4,10.7-10.4s-9.2-2.4-11.5-4.4c-2.3-1.9-3.2-9.8-3.2-9.8L80.3,90.6z"/>
	<path class="st1" d="M109.5,100.9c-0.6-0.5-3-1.3-3.5-2.5c-1.7,2.2-5.4,9.4-10.3,10.8c-6.8,1.9-20-1.5-26.6-4.3
		c2.4,3.4,7.3,9.6,12.5,11.3c8.3,2.7,20.1,1.9,25.9-2.3c5.8-4.1,10.7-10.4,10.7-10.4S111.8,102.8,109.5,100.9z"/>
	<path class="st1" d="M74.9,72c0,0-1.1-12.3-0.4-14.1c0.7-1.7,11.5-11,13.3-11.5c1.7-0.6,5.7-1.1,10.7,2.2c5.1,3.3,7.9,7,8,7.3
		s0.9,3.9,1.3,6.2c0.3,2.3,0.2,8,0.2,8s4.8-3.2,5.6-3c1.6,0.4,1.2,3.9,1.1,4.9c-0.1,1.1-0.8,5.1-2.2,6.4c-1.4,1.3-4.3,1.9-4.3,1.9
		s0.3,4.7-0.7,6.6c-1,1.9-11.1,10.1-13.7,10.2C91,97.2,77.9,90.7,77,88.9c-0.9-1.8-1-4.8-1-4.8s-1.7,0.6-3.2-0.4
		c-1.5-0.9-3.3-4.8-3.7-6.7s-1.3-4.7-0.2-5.5C70,70.5,74.9,72,74.9,72z"/>
	<path class="st2" d="M93.8,94.3c4.7-0.6,9.4-6.7,11.5-10.2c2.1-3.5,1.9-7.2,2-9.8c0.1-2.7-1.2-11.5-1.7-13.1
		c-0.5-1.5-3.8-7.5-9-8.7s-12,1.1-16.3,4.2C76.1,59.8,75,71.9,75,71.9s-4.8-1.4-5.9-0.6c-1.1,0.9-0.2,3.6,0.2,5.5
		c0.4,1.9,2.2,5.8,3.7,6.7c1.5,0.9,3.2,0.4,3.2,0.4s0.2,3,1,4.8c0.3,0.6,2.2,1.9,4.6,3.2C84.7,92.9,89.7,94.8,93.8,94.3z"/>
	<path class="st3" d="M78.8,59.4l0.1,2.8c0,0,2.5-1.3,3.9-1.7c1.4-0.4,4.3-1.1,4.3-1.1s0.6-2.8-0.5-3.2C86.1,56,80.6,57.5,78.8,59.4
		z"/>
	<path class="st3" d="M103,60.8l0.6,2.7c0,0-2.8-0.6-4.2-0.7s-4.5,0-4.5,0s-1.3-2.5-0.3-3.2C95.1,59.2,100.8,59.3,103,60.8z"/>
	<circle class="st4" cx="85" cy="67.3" r="1.9"/>
	<path class="st4" d="M81.9,66.1c0,0,2-0.7,2.9-0.7"/>
	<circle class="st4" cx="97.9" cy="67.1" r="1.9"/>
	<path class="st4" d="M101,65.8c0,0-2-0.7-2.9-0.7"/>
	<path class="st5" d="M90.9,68c0,0-0.4,2.8-0.9,3.6c-0.5,1-2.2,2-2.1,3.3c0.1,1.5,1.8,2.8,4.4,2.8c2.5,0.1,4.3-1.5,4.3-1.5"/>
	<path class="st5" d="M90.9,82.8c0,0,2.4,0.9,4.7-0.3c2.3-1.2,2.7-3.5,2.7-3.5"/>
	<path class="st5" d="M73.3,74.7c0,0-1.8-0.7-2.2,0.7c-0.4,1.4,1.4,4.1,2,4.7"/>
	<path class="st5" d="M110,71.5c0,0,1.4-1.4,2.2-0.9c1.1,0.7-0.1,4-2,5.6"/>
	<path class="st6" d="M74.9,70.9c0,0,1.1-10.8,1.7-12c0.7-1.2,9.2-9.5,13.4-9.8s14.5,5.2,15.2,6.9c0.7,1.7,2.6,11.6,2.6,11.6
		s0.8-7.2,0.7-11.3c-0.1-4.1-0.6-9.9-0.6-9.9s-0.1-2.4-1.2-2.5c-1.1-0.2-2.3,1.4-2.3,1.4s-0.3-3.5-1.7-3.9c-1.4-0.4-2.3,0.9-2.3,0.9
		s-0.3-2.5-1.7-2.8c-1.4-0.3-3,1.6-3,1.6s-1-2.8-2.5-2.9c-1.5-0.1-3.3,1.5-4,2.4c0,0-1.5-1.9-3.4-1.7c-1.8,0.2-3,3.6-3,3.6
		s-2.2-2-3.9-1.3c-1.7,0.7-1,3.2-1,3.2s-1.8-1.7-3.3-0.9c-1.5,0.8-0.7,3.4-0.7,3.4s-3-0.7-4,0.1c-1,0.8,2.1,3.7,2.1,3.7
		s0.3,5.2,0.8,9.9C73.6,65.3,74.9,70.9,74.9,70.9z"/>
	<path class="st7" d="M64.2,212.1c0,0,0.9,12.5,2,22.2c0.7,6.1,2.6,12.3,2.5,13.8c-0.1,3.7-4.4,15.9-4.6,24.6
		c-0.3,8.7,3.2,17.6,3.1,18.1c-0.1,0.5,1.5,3.1,1.5,5.2s2.1,1.3,2.1,2.6s-1,3.1-1.3,4.1s3.1,3.2,3.1,3.2s4.4-0.7,7.1-0.6
		c2.7,0.1,5.5-0.7,7.3-1c1.8-0.3,0.2-2.3-0.1-3.5c-0.3-1.2-1.7-3.1-1-3.9c2.1-2.6,0.3-5,0.3-5s-0.4-18.1,0.5-24.9
		c1-7.9,0.9-9.5,1.7-18.1c0,0,4.1-24.3,4.1-32.5c0,0,5.1,27,5.2,31.4c0.1,2.9-4.7,15.7-3.7,22.1c1,6.4,7.5,20.1,7.7,21.3
		c0.2,1.2-3.1,3.8-2.9,4.8c0.2,1,2.5,2.2,2.6,2.8c0.1,0.6-2.6,1.4-2.6,2.6c0.1,1.2,2.5,3.2,3.4,3.8s3.6,0,4.2,0.4
		c0.6,0.4,3.2,0.6,4.6,0.2c1.5-0.4,5.4-1.6,5.6-2.8c0.2-1.2-1.3-2.7-1.8-3.5c-0.5-0.8,1.2-1.5,1.3-2.1c0.1-0.6-1.3-1.7-1.6-2.7
		c-0.3-1-0.3-1.5,0.1-2.3c0.3-0.8-0.3-0.9-0.4-1.9c-0.2-1,1.4-21.3,1.8-24.9c0.4-3.7,3.2-12.1,3.5-13.5c0.3-1.4,1-14.6,0.5-22.7
		c-0.5-8.1-1.5-16-1.5-16l-11.6-4.4l-35.4,2.6L64.2,212.1z"/>
	<path class="st8" d="M62.3,217.9c0,0-0.2,1.4,2.5,2c0.1,0-0.2-4.4-0.2-4.4L62.3,217.9z"/>
	<path class="st8" d="M118.4,212.5c0,0.4,0.4,6,0.4,6s3.3-0.2,3.8-1.8C123.2,215,118.4,212.5,118.4,212.5z"/>
	<path class="st9" d="M70.2,102.6c0,0-2.9-2.2-4-0.4c-4.1,6.3-13.1,25.1-14.4,29.6c-1.6,5.9,3.5,8.5,7.4,21c0.9,2.9,1.5,7.9,2,13.8
		c1.6,20,1.1,51.2,1.1,51.2s2.6-2.1,8.9-4.1c6.6-2.1,26.5-4.1,39.8-2.1c10.8,1.6,11.8,4.8,11.8,4.8s-0.1-55.8,0.5-62.6
		s6.1-16.1,7.5-24.4c1.6-9.7-18.1-31.3-20.8-28.3c0,0-0.2,1.9-1,3c-2.8,4-9.5,12.7-18.2,12.3C79.6,115.9,76,108.6,70.2,102.6z"/>
	<path class="st10" d="M69.6,102.3l4.3-0.9c0,0,2.8,7.6,6.8,9.8c6.3,3.6,17.1,2,21.3-1c3-2.2,5.4-10.8,5.4-10.8l3.2,1.2
		c0,0-2.3,7-3.5,8.8c-2.7,3.8-7.8,7-13.5,7.4c-6.7,0.5-13.6-0.5-17.1-3.8C71.8,108.6,70.7,104.3,69.6,102.3z"/>
	<g>
		<g>
			<path class="st11" d="M73.4,137.3c2.8-1.7,4.8-3.4,6-5.3C78.1,133.9,76.2,135.6,73.4,137.3z"/>
			<path class="st11" d="M79.2,122c0.2,0.1,0.3,0.2,0.5,0.4C79.6,122.3,79.4,122.1,79.2,122z"/>
			<polygon class="st11" points="67.7,135.6 67.7,135.6 67.7,135.6 			"/>
			<path class="st11" d="M72.2,137.9C72.2,137.9,72.2,137.9,72.2,137.9c0.4-0.2,0.8-0.4,1.2-0.7C73,137.5,72.6,137.7,72.2,137.9
				C72.2,137.9,72.2,137.9,72.2,137.9z"/>
			<path class="st11" d="M79.9,122.6c0.1,0.1,0.3,0.3,0.4,0.5C80.2,122.9,80.1,122.7,79.9,122.6z"/>
		</g>
		<g>
			<path class="st11" d="M72.8,127.9c-0.1-0.2-0.1-0.4-0.2-0.6C72.7,127.6,72.8,127.8,72.8,127.9z"/>
			<path class="st11" d="M72.5,127c0-0.1-0.1-0.3-0.1-0.4C72.4,126.7,72.5,126.8,72.5,127z"/>
			<path class="st11" d="M73,128.4c-0.1-0.1-0.1-0.2-0.1-0.3C72.9,128.2,73,128.3,73,128.4z"/>
			<path class="st11" d="M83.3,135.8c0.3-0.1,0.6-0.2,0.8-0.2c0,0,0,0,0,0C83.9,135.6,83.6,135.7,83.3,135.8z"/>
			<path class="st11" d="M73.9,133.8c0.7,0.8,1.6,1.5,2.7,2.3C75.5,135.3,74.6,134.6,73.9,133.8z"/>
			<path class="st11" d="M79.6,137.9C79.6,137.9,79.6,137.9,79.6,137.9c-1.2-0.6-2.2-1.3-3.1-1.9C77.5,136.7,78.5,137.3,79.6,137.9z
				"/>
			<path class="st11" d="M83.2,135.8C83.2,135.8,83.3,135.8,83.2,135.8C83.3,135.8,83.2,135.8,83.2,135.8z"/>
			<g>
				<path class="st11" d="M78.1,133.6c-0.1-0.1-0.3-0.1-0.4-0.2c-0.2-0.1-0.4-0.2-0.6-0.3c-0.4-0.2-0.8-0.5-1.2-0.7
					c-0.6,0.5-1.4,0.9-2.2,1.3c0.1,0.1,0.1,0.1,0.2,0.2c0.6,0.6,1.3,1.2,2,1.8C76.8,134.9,77.5,134.3,78.1,133.6z"/>
				<path class="st11" d="M82.9,135.4c-0.1,0-0.1,0-0.2-0.1c-0.4-0.1-0.8-0.2-1.3-0.4c-0.1,0-0.2-0.1-0.4-0.1
					c-0.6-0.2-1.2-0.4-1.8-0.7c-0.7,0.7-1.4,1.5-2.3,2.2c0.8,0.6,1.8,1.2,2.8,1.7c-0.1,0-0.1,0.1-0.2,0.1c1.4-1.2,3-2,4.5-2.6h0
					C83.8,135.6,83.4,135.5,82.9,135.4z"/>
				<path class="st11" d="M78.8,138.9c-1-0.6-2-1.2-2.8-1.8c-0.9,0.6-1.8,1.2-2.9,1.8l-0.1-0.1c1,1,1.9,2.1,2.9,3.5
					c1-1.5,2-2.7,3.1-3.7C78.9,138.7,78.8,138.8,78.8,138.9z"/>
				<path class="st11" d="M73.4,137.3c0.5-0.3,1-0.6,1.5-1c-0.9-0.7-1.6-1.4-2.3-2.2c-1.8,0.8-3.6,1.4-4.9,1.4h0
					c1.8,0.7,3.2,1.4,4.4,2.5l0,0C72.5,137.8,73,137.5,73.4,137.3z"/>
			</g>
			<path class="st11" d="M83.2,135.8"/>
		</g>
		<g>
			<path class="st11" d="M74.4,129.4L72,121c-0.8,0.1-1.5,0.3-2.2,0.5L74.4,129.4z"/>
			<g>
				<path class="st11" d="M72.3,125.7l2.1,3.7l-1.7-6.1C72.3,124,72.2,124.8,72.3,125.7z"/>
				<path class="st11" d="M74.4,130.7c0,0-0.7-1-0.7-1.1l-0.2-0.3c0.4,0.8,0.9,1.5,1.4,2L74.4,130.7z"/>
				<path class="st11" d="M64.6,123.5c2.1,4.1,3.5,7.7,3.2,10.9c1-0.1,2.5-0.6,3.9-1.2c-1.6-2.1-2.3-4.5-2.3-7.2
					c0-1,0.2-1.9,0.5-2.6l-0.9-1.6C67.6,122.1,66.1,122.7,64.6,123.5z"/>
				<path class="st11" d="M73.5,129.4l-2.7-4.7c-0.1,0.2-0.1,0.5-0.1,0.8c0,0.1,0,0.3,0,0.4c0,0.5,0,1,0.1,1.4
					c0.2,1.4,0.6,2.7,1.3,4c0.1,0.1,0.2,0.3,0.3,0.4c0.2,0.3,0.4,0.6,0.6,0.8c0.7-0.4,1.5-0.8,2.1-1.2l-0.1-0.1
					C74.4,130.8,74,130.1,73.5,129.4z"/>
			</g>
		</g>
		<g>
			<path class="st11" d="M75.5,120.6c-1,0-1.9,0.1-2.8,0.2l2.8,9.6"/>
			<g>
				<path class="st11" d="M75.5,130.5l0-0.3c0-0.1-0.1-0.1-0.1-0.2L75.5,130.5z"/>
				<path class="st11" d="M75.5,123"/>
			</g>
		</g>
		<g>
			<path class="st11" d="M79,120.9c-1-0.1-1.9-0.2-2.8-0.2l0,9.8L79,120.9z"/>
			<path class="st11" d="M78.6,121.7c0,0,0.1,0.1,0.1,0.1l0.1-0.2h-0.5C78.4,121.6,78.5,121.6,78.6,121.7z"/>
		</g>
		<g>
			<path class="st11" d="M81.9,121.4c-0.7-0.2-1.4-0.4-2.1-0.5l-2.4,8.4L81.9,121.4z"/>
			<g>
				<path class="st11" d="M77.9,130c-0.3,0.5-0.7,1-1,1.4c0.6,0.4,1.3,0.8,2.1,1.2c0.2-0.2,0.3-0.4,0.4-0.6c1.2-1.9,1.8-3.9,1.8-6.1
					c0-0.2,0-0.3,0-0.4c0-0.3-0.1-0.5-0.1-0.8l-2.9,5C78.1,129.7,78,129.9,77.9,130z"/>
				<path class="st11" d="M87.3,123.5c-1.5-0.8-3-1.4-4.6-1.8l-0.9,1.6c0.4,0.8,0.5,1.7,0.5,2.7c0,2.7-0.7,5.1-2.3,7.2
					c1.4,0.6,2.9,1.1,3.9,1.2C83.8,130.8,84.9,127.2,87.3,123.5z"/>
				<g>
					<path class="st11" d="M79.1,123.3l-1.7,6l2.1-3.7l0,0C79.6,124.8,79.5,124,79.1,123.3z"/>
					<path class="st11" d="M77.9,130c-0.6,1-1.4,1.9-2,2.3c-2.4,1.7-6.1,3.2-8.2,3.3c0,0,0,0,0,0c1.5,0.3,3,1.2,4.5,2.4c0,0,0,0,0,0
						c0.4-0.2,0.8-0.4,1.2-0.7c2.8-1.7,4.8-3.4,6-5.3c1.2-1.9,1.8-3.9,1.8-6.1c0-0.2,0-0.3,0-0.4c0-0.3-0.1-0.5-0.1-0.8l-2.9,5
						C78.1,129.7,78,129.8,77.9,130z"/>
				</g>
			</g>
		</g>
	</g>
	<line class="st12" x1="93.9" y1="216.7" x2="99.3" y2="213.7"/>
	<path class="st12" d="M80.4,212.8c0,0-0.2,11.4-1.5,13.7c-1.4,2.2-11.6,6.5-11.6,6.5"/>
	<path class="st12" d="M108.8,212.3c0,0-0.9,10.8,0.2,13.7c1,2.9,11.1,7.7,11.1,7.7"/>
	<path class="st13" d="M97.6,314.5c0,0-1.3,1.4-1.9,2.6c-0.6,1.2-0.7,3.6-0.7,3.6s0.8,1.8,2.3,1.9c1.5,0.1,4.2,1.5,5,2.3
		c0.8,0.8,5.1,1.1,6.8,1.4s9.1,5.4,11.7,6.7c3.5,1.8,9.8,0.8,11.3,0.6c2.9-0.5,4.8-3.2,4.8-3.2l0.1-2.6c0,0-0.5,2.1-2.5,2.7
		s-4.9,1.1-7.3,1c-4.3-0.2-14.5-6.1-15.5-6.4c-1-0.3-5-4.9-7.8-6.8C101,316.5,97.6,314.5,97.6,314.5z"/>
	<polygon class="st2" points="85.1,307.9 85.1,311.4 78.6,313.8 74.3,313.8 74.8,306.6 	"/>
	<polygon class="st2" points="99.5,304 99.6,307.7 107,313.1 116.1,312 113.8,305 	"/>
	<path class="st14" d="M99.3,305.4c-1,1.3-1.9,3.5-2,5.4c-0.1,2,0.4,3.8,0.4,3.8s6.5,3.8,8.2,5.5s3.1,3.5,4.6,4.4
		c1.5,0.9,10,5.6,13.9,6.8c1.8,0.6,6.6,0.5,9.7-0.4c1.4-0.4,2.8-1.5,2.9-2.3c0.1-0.8,0.5-2.7-0.8-3.9c-1.3-1.3-5.8-2.3-7-3.1
		s-9.5-10.3-9.6-12.1c-0.1-1.8-5.4-1.3-7.8-1.1c-2.4,0.2-8.1,1-9.9-0.1C100.8,307.6,99.9,304.6,99.3,305.4z"/>
	<path class="st10" d="M98.3,307.1c0,0,4.9,2.4,6,4.3c1.1,1.9,3.1,10.1,3.1,10.1s-5.6-4.8-7.1-5.4c-1-0.4-1.8-0.9-2.3-1.3
		c-0.3-0.2-0.4-0.3-0.4-0.3S96.3,309.8,98.3,307.1z"/>
	<path class="st9" d="M72.4,310.1l-1.4-4.2c0,0,3.6-2.2,5.9-1.5c2.3,0.7,7.5-0.2,8.6-0.5s2.4,0,2.4,0s1.6,1.2,1.4,2.7
		s0.2,2.4-1.4,2.8c-1.6,0.5-4.7-1-6.7-0.7C79.3,308.9,72.4,310.1,72.4,310.1z"/>
	<path class="st9" d="M98.1,300.9c0,0,0.9,3.3,0.9,3.7c0.1,0.3,0.9,0.3,3.6,0.7c2.7,0.3,3.2,0.5,5.6,0.7c2.4,0.2,2.5,0,4.6-0.5
		c2.1-0.5,3.2-1.5,3.5-1.8s-0.3-3.5-0.4-3.9c-0.1-0.4-2.3,1.1-4.2,1.3s-7.2,1.7-8.6,0.7C101.7,300.6,98.1,300.9,98.1,300.9z"/>
	<path class="st10" d="M113.8,313.6c0,0-1.1-4.3-0.6-6.8c0.4-2.4,1.1-4.3,2.6-5.6c1.4-1.3,2.3-3.2,5.1-1.2s4,2.8,4.3,4.1
		c0.3,1.3-4.1,3.3-4.7,5.2c-0.5,1.8-0.8,3.5-0.8,3.5L113.8,313.6z"/>
	<path class="st9" d="M112.8,319.1l-1.2-1.4c0,0,3-2.9,7.3-3.9c4.2-0.9,4.8,0.5,4.8,0.5l1,1.5c0,0-3.5-0.4-5.6,0.4
		S114.1,318.3,112.8,319.1z"/>
	<path class="st9" d="M116.6,322.8l-1.2-1.4c0,0,3-2.9,7.3-3.9c4.2-0.9,4.8,0.5,4.8,0.5l1,1.5c0,0-3.5-0.4-5.6,0.4
		C120.6,320.8,117.8,322,116.6,322.8z"/>
	<path class="st15" d="M73.7,308l3.2,0.7l5.8,0.1l4-1.6c0,0,1.2,4,1.2,5.8s-0.6,5.6-0.3,6.8s2.5,5,2.7,6.8c0.1,1.8-1,4.7-1.3,5.2
		c-0.3,0.4-1,2.5-3.2,2.2c-2.2-0.3-12.5,0.1-13.7-0.6s-4.6-5.8-4.6-6.8s1.2-7.4,1.9-10.8C70.2,312.4,73.7,308,73.7,308z"/>
	<path class="st10" d="M71.7,304.2c-1-1.6,2.6-3.9,4.7-4c2.1-0.1,5.6,1.9,6.2,4.9s-0.5,7.5-0.5,7.5s-5.1,0.8-5.5-0.3
		c-0.4-1.1,0.5-3.2-1.5-4.4C73,306.7,72.3,305.2,71.7,304.2z"/>
	<path class="st9" d="M72.8,315.5c0,0,4.8-1.8,9.2-0.8c4.3,1,3.2,0.3,3.2,0.3l0.2,3.5c0,0-3.4-1.4-7-1s-5.7,1.4-5.7,1.4L72.8,315.5z
		"/>
	<path class="st9" d="M72.8,320.8c0,0,4.8-1.8,9.2-0.8c4.3,1,3.2,0.3,3.2,0.3l0.2,3.5c0,0-3.4-1.4-7-1c-3.6,0.4-5.7,1.4-5.7,1.4
		L72.8,320.8z"/>
	<circle class="st11" cx="84.1" cy="66.6" r="0.7"/>
	<circle class="st11" cx="97.2" cy="66.4" r="0.7"/>
	<path class="st13" d="M90.2,326.6c0,0-0.1,0.3-0.2,0.8c-0.3,1.4-1.1,4.1-2,4.1c-1.3,0-5.3-5-8.7-4.7s-6.5,4.3-8.3,4.3
		c-1.8,0-3.7-5.8-3.7-5.8s0.3,6.3,1.3,7.4s7.2,2.7,10.8,2.5c3.5-0.1,8.7-0.6,9.7-1.9C90.3,331.7,90.6,329.8,90.2,326.6z"/>
	<path class="st2" d="M48.4,36.6c0,0,9.4-2.7,10.9-5.4c0.7-1.3,3.3-4.6,0.8-7.7c-1.3-1.6,0.3-4.7-0.3-6.2
		c-0.8-2.2-15.7-5.9-17.9-3.1c-4.2,5.4-3.6,15.1-4.1,16.7S19.3,62.7,18.7,69.9s14.9,38.6,21.8,47.4S66.4,104,66.4,104
		s-2.4-9.6-9.6-16.8c-5.8-5.8-18.1-16.3-18.1-16.3s3.5-5.4,6-14.8C47.3,46.7,48.4,36.6,48.4,36.6z"/>
	<path class="st16" d="M49.4,31.4c0,0,0-3.4,1-4.2c1-0.7,4.2-0.9,4.2-0.9s-4.8-1.6-4.8-3c0-1.3,0.3-3,1.6-3.3
		c1.3-0.3,4.9,1.8,4.9,1.8s3.1,1.5,3.3,2.3"/>
	<path class="st17" d="M44.4,14c-0.6,0.4-3.9,2.9-2.9,5.4c0.3,0.8,2.2,1.3,2.5,1"/>
	<path class="st17" d="M47.8,13.9c-0.6,0.4-3.4,2.8-3.4,5.5c0,1,0.8,2.9,2.9,1.8"/>
	<path class="st17" d="M51,14.4c-0.6,0.4-4.4,4.8-3.3,7.4c0.3,0.8,1.9,1.3,2.2,1"/>
	<path class="st17" d="M54.8,15.3c-0.7-0.1-3.5,2.6-3,4.5c0.2,0.8,4.5,0.7,4.8,0.4"/>
	<path class="st2" d="M131,23.9c0,0-9.7-1.9-11.5-4.5c-0.9-1.3-3.7-4.4-1.5-7.7c1.2-1.7-0.7-4.7-0.2-6.3c0.6-2.3,15.4-7.3,17.9-4.6
		c4.7,5.1,5,15,5.6,16.6s16,32.9,17.2,40.1c1.2,7.2-12.1,42.8-18.4,52.2c-6.4,9.5-26-8.5-26-8.5c-1-2.4,5.8-15.6,11.2-24.9
		c4.6-8,14.7-19.2,15.1-18.9c0,0-1.1-2-4.5-11.3S131,23.9,131,23.9z"/>
	<path class="st18" d="M129.5,18.7c0,0-0.3-3.5-1.4-4.1c-1.1-0.7-4.3-0.6-4.3-0.6s4.7-2.1,4.6-3.4s-0.6-3-1.9-3.2
		c-1.4-0.2-4.8,2.2-4.8,2.2s-3,1.8-3.2,2.6"/>
	<path class="st19" d="M133.1,0.6c0.6,0.4,4.2,2.6,3.4,5.3c-0.3,0.8-2.1,1.5-2.4,1.2"/>
	<path class="st19" d="M129.7,0.8c0.6,0.4,3.7,2.5,3.9,5.3c0.1,1-0.6,3-2.8,2.1"/>
	<path class="st19" d="M126.5,1.6c0.6,0.4,4.9,4.5,4,7.2c-0.3,0.8-1.9,1.4-2.2,1.2"/>
	<path class="st19" d="M122.7,2.9c0.7-0.2,3.8,2.3,3.4,4.3c-0.2,0.8-4.5,1.1-4.8,0.9"/>
	<path class="st7" d="M118.9,85.2l-8.4,15.5c0,0,0.9,0.9,2.2,2.3c2.7,2.9,7.3,7.9,9.9,12c4.4,6.9,7.1,17,7.1,17l16.6-30.7
		C141,90,132.3,84.9,118.9,85.2z"/>
	<path class="st10" d="M120.1,82.6c0,0,9.6,1.1,15.5,4c6,2.9,12.9,12.1,12.9,12.1l-1.9,4.1c0,0-4.3-8.8-12.3-12.4
		s-16.4-4.7-16.4-4.7L120.1,82.6z"/>
	<path class="st7" d="M58.9,88.8l9.9,13c0,0-7.1,9.6-9.8,14.7c-3.4,6.4-6.7,21.5-6.7,21.5c-4.9-8.3-10-18.9-17.5-26.2
		C37.4,99.1,45.2,91.8,58.9,88.8z"/>
	<path class="st10" d="M57.8,87.3c0,0-9.5,3.4-14.8,7.8s-10.2,15.4-10.2,15.4l2.9,3.7c0,0,2.3-9.9,9.5-15.6S60.7,90,60.7,90
		L57.8,87.3z"/>
</g>
<g>
	<path class="st20" d="M225.5,142.4c4.5,0,9.2-2.4,11-4.5c3-3.7,4.8-8.6,5.1-12c0.3-3.8-2.5-15.8-8.4-19.2c-5.5-3.1-8-2.6-8-2.6
		l-5.4,2.7l-10.7,12.9c0,0,1.6,10.2,3.4,14.3C214.3,138.7,221.4,142.4,225.5,142.4z"/>
	<path class="st21" d="M233,106.4c-5.5-3.1-8-2.6-8-2.6l-5.4,2.7l-3.2,3.8c4.7,0.1,13.8,1.7,17.3,4.9c4.2,3.9,4.1,8.4,4,11.3
		c-0.1,3.2,0.2,4.2-2,8.1c-1.8,3.1-4.3,4.8-6.3,5.5c-2,0.7-5.3,0.8-8.4-0.1c-2.1-0.6-5.2-3-6.8-4.9c-1.1-1.3-2.6-4.2-3.5-6
		c0.4,1.8,0.9,3.4,1.4,4.6c2,4.7,9.1,8.4,13.2,8.4c4.5,0,9.2-2.4,11-4.5c3-3.7,4.8-8.6,5.1-12C241.8,121.7,239,109.8,233,106.4z"/>
	<path class="st22" d="M228.4,104.3c0,0-3.4,5-10.7,9.8c-3.2,2.1-5.9,8-6.5,11.6c-0.4,2.8,0,6.1,1.5,8.8c2.4,4.3,6.3,5.7,8.2,6.6
		c1.9,0.9,0.6,7.3,0.6,7.3s-2,2.6-5.2,3.4c-3.2,0.9-11.9,5.2-11.9,5.2s-3.8-16.3-2.5-25.9c1.2-9.6,5.1-19.8,9.3-22.6
		c4.1-2.9,3.1-4,6.1-4.5S228.4,104.3,228.4,104.3z"/>
	<path class="st22" d="M227.7,103.4c-2.4,4.3,4.5,9.5,6.5,12.8c2.1,3.5,5,5.6,5.5,8.3c0.7,4.6-0.7,13.8-9.1,16.7
		c0,0-0.3,6.3,1.3,7.1c10.9,5.5,14.6,9.4,14.2,9.2l-17,37.6c0,0,8.4,1.5,15-6.3c6.5-7.8,11.5-20.4,11.6-36
		c0.1-15.6-12.8-46.1-12.8-46.1L227.7,103.4z"/>
	<path class="st23" d="M221.2,141.2c0,0-0.6,4.1-1.5,5.7c-0.9,1.6-3.6,2.8-3.6,2.8l-1.2,5.9c0,0,8.8,5.7,14.3,4.7
		c5.5-1,7-11.1,7-11.1s-3.4-1.4-4.2-3c-0.8-1.6-1.3-5.1-1.3-5.1C227.5,142.1,224.4,142.2,221.2,141.2z"/>
	<path class="st21" d="M232.7,147c-0.5,1.4-1.9,3.3-5.5,4.7c-3.2,1.3-8,1.4-11.7,1.2l-2.7,4.2c0,0,11.6,6.1,17,5.1
		c5.5-1,6.4-13.1,6.4-13.1S233.7,148.5,232.7,147z"/>
	<path class="st24" d="M215.5,116.5c0,0,1.6-0.5,2.3-0.4c0.7,0.1,2.1,0.8,2.1,0.8"/>
	<path class="st24" d="M230.6,116.6c0,0,2.6-0.3,4.2,0.8"/>
	<path class="st24" d="M225.2,120.2c0,0-0.1,2.9-0.9,4.3s-1.9,2.5-1.3,3.6c0.7,1.1,3,0.6,3,0.6"/>
	<path class="st24" d="M221.8,132.7c0,0,0.7,1.6,2.6,1.7s3.1-1.2,3.1-1.2"/>
	<circle class="st25" cx="217.7" cy="123" r="1.8"/>
	<path class="st25" d="M215,120.6c0,0,2,0.1,2.9,0.6"/>
	<circle class="st25" cx="231.5" cy="123.1" r="1.8"/>
	<circle class="st11" cx="217" cy="122.4" r="0.7"/>
	<circle class="st11" cx="232.2" cy="122.5" r="0.7"/>
	<path class="st25" d="M234.6,121.4c0,0-1.9-0.4-2.9-0.1"/>
	<path class="st26" d="M238.3,292.5c0,0,8.4,9.5,8.5,12.6c0.1,3.1-1.8,11.6-2.8,13.5c-2.2,4.4-6.2,4.5-10.2,4s-4.2-3.4-4.5-4.3
		c-0.2-0.8,0-3,1.1-4.4c1-1.5,5.4-5.6,5.4-9.5c0-3.9-5.3-10.6-5.3-10.6l6.4,1.4l1.4-0.4V292.5z"/>
	<path class="st27" d="M246.8,304.3l1.1,1.9c0,0-2.6,14.6-3.6,16.2c-1,1.6-4.5,3.5-9.9,2.9c-5.3-0.6-6.7-2-7.2-2.7
		c-0.5-0.6,0.4-3.2,0.4-3.2s0.4,1.9,2.1,2.4c1.7,0.5,7.9,1.2,10.4,0.4c2.5-0.8,3.3-2.9,4-5.1C244.9,315,246.8,304.3,246.8,304.3z"/>
	<path class="st28" d="M194.4,105.2"/>
	<path class="st29" d="M208.9,103.3c0,0,3.8-8.8,6.9-11.2c3.1-2.4,14.9-2.2,19-0.6c2,0.8,9.2,9.9,9.2,9.9L208.9,103.3z"/>
	<path class="st30" d="M203.7,122.6c0,0,1.1-6.3,5.1-10.5c6.2-6.7,22-8.4,31.9-0.9c6.9,5.2,7.5,10.5,7.5,10.5s19.2-9.5-1.5-19.6
		c-20.7-10.1-42.2-3.4-50.1,7.2C190.5,117.5,200.3,122.3,203.7,122.6z"/>
	<path class="st27" d="M212,192.8l-0.5-25.5l4.9-8.7c0,0,8.5,3.5,12.6,2.3c4.2-1.1,5.5-4.9,5.5-4.9l1.4,8.2l1.7,31.4
		c0,0-10.5,2.1-17.7,0.9C212.7,195.4,212,192.8,212,192.8z"/>
	<g>
		<g>
			<path class="st31" d="M220.4,178.1c2.4-1.4,4-2.9,5.1-4.5C224.4,175.2,222.7,176.7,220.4,178.1z"/>
			<path class="st31" d="M225.3,165.2c0.1,0.1,0.3,0.2,0.4,0.3C225.6,165.4,225.5,165.3,225.3,165.2z"/>
			<polygon class="st31" points="215.6,176.7 215.6,176.7 215.6,176.7 			"/>
			<path class="st31" d="M219.4,178.7C219.4,178.7,219.4,178.7,219.4,178.7c0.3-0.2,0.7-0.4,1-0.6
				C220,178.3,219.7,178.5,219.4,178.7C219.4,178.7,219.4,178.7,219.4,178.7z"/>
			<path class="st31" d="M225.9,165.7c0.1,0.1,0.2,0.3,0.3,0.4C226.1,166,226,165.8,225.9,165.7z"/>
		</g>
		<g>
			<path class="st11" d="M219.9,170.2c-0.1-0.2-0.1-0.3-0.2-0.5C219.8,169.9,219.9,170.1,219.9,170.2z"/>
			<path class="st11" d="M219.6,169.4c0-0.1-0.1-0.2-0.1-0.3C219.6,169.2,219.6,169.3,219.6,169.4z"/>
			<path class="st11" d="M220.1,170.6c0-0.1-0.1-0.2-0.1-0.3C220,170.4,220,170.5,220.1,170.6z"/>
			<path class="st11" d="M228.8,176.9c0.2-0.1,0.5-0.1,0.7-0.2c0,0,0,0,0,0C229.2,176.7,229,176.8,228.8,176.9z"/>
			<path class="st11" d="M220.8,175.1c0.6,0.7,1.4,1.3,2.2,1.9C222.2,176.4,221.4,175.8,220.8,175.1z"/>
			<path class="st11" d="M225.7,178.7C225.7,178.7,225.7,178.7,225.7,178.7c-1-0.5-1.8-1.1-2.6-1.6
				C223.8,177.6,224.7,178.1,225.7,178.7z"/>
			<path class="st11" d="M228.7,176.9C228.7,176.9,228.7,176.9,228.7,176.9C228.7,176.9,228.7,176.9,228.7,176.9z"/>
			<g>
				<path class="st11" d="M224.4,175c-0.1-0.1-0.2-0.1-0.4-0.2c-0.2-0.1-0.3-0.2-0.5-0.3c-0.3-0.2-0.7-0.4-1-0.6
					c-0.5,0.4-1.2,0.8-1.8,1.1c0,0.1,0.1,0.1,0.1,0.2c0.5,0.5,1.1,1,1.7,1.5C223.2,176.1,223.8,175.6,224.4,175z"/>
				<path class="st11" d="M228.4,176.5c-0.1,0-0.1,0-0.2,0c-0.3-0.1-0.7-0.2-1.1-0.3c-0.1,0-0.2-0.1-0.3-0.1c-0.5-0.2-1-0.4-1.5-0.6
					c-0.6,0.6-1.2,1.2-1.9,1.8c0.7,0.5,1.5,1,2.4,1.4c0,0-0.1,0.1-0.1,0.1c1.2-1,2.5-1.7,3.8-2.2h0
					C229.2,176.7,228.8,176.6,228.4,176.5z"/>
				<path class="st11" d="M224.9,179.5c-0.9-0.5-1.7-1-2.4-1.5c-0.7,0.5-1.5,1-2.4,1.5l-0.1,0c0.8,0.8,1.6,1.8,2.5,3
					c0.8-1.3,1.7-2.3,2.6-3.1C225.1,179.3,225,179.4,224.9,179.5z"/>
				<path class="st11" d="M220.4,178.1c0.5-0.3,0.9-0.5,1.3-0.8c-0.7-0.6-1.4-1.2-1.9-1.8c-1.5,0.7-3.1,1.1-4.1,1.2h0
					c1.5,0.6,2.7,1.2,3.7,2.1l0,0C219.6,178.5,220,178.3,220.4,178.1z"/>
			</g>
			<path class="st11" d="M228.7,176.9"/>
		</g>
		<g>
			<path class="st11" d="M221.2,171.4l-2-7.1c-0.7,0.1-1.3,0.2-1.8,0.4L221.2,171.4z"/>
			<g>
				<path class="st11" d="M219.4,168.3l1.8,3.2l-1.5-5.1C219.4,166.9,219.4,167.6,219.4,168.3z"/>
				<path class="st11" d="M221.2,172.5c0,0-0.6-0.9-0.6-0.9l-0.1-0.2c0.4,0.6,0.8,1.2,1.2,1.7L221.2,172.5z"/>
				<path class="st11" d="M213,166.4c1.8,3.5,2.9,6.5,2.7,9.2c0.9-0.1,2.1-0.5,3.3-1c-1.3-1.8-1.9-3.8-1.9-6.1
					c0-0.8,0.2-1.6,0.5-2.2l-0.8-1.4C215.5,165.3,214.2,165.8,213,166.4z"/>
				<path class="st11" d="M220.5,171.4l-2.3-3.9c0,0.2-0.1,0.4-0.1,0.7c0,0.1,0,0.2,0,0.4c0,0.4,0,0.8,0.1,1.2
					c0.1,1.2,0.5,2.3,1.1,3.4c0.1,0.1,0.1,0.2,0.2,0.4c0.1,0.2,0.3,0.5,0.5,0.7c0.6-0.3,1.2-0.7,1.7-1l0-0.1
					C221.3,172.6,220.9,172.1,220.5,171.4z"/>
			</g>
		</g>
		<g>
			<path class="st11" d="M222.2,164c-0.8,0-1.6,0.1-2.3,0.2l2.3,8.1"/>
			<g>
				<path class="st11" d="M222.2,172.4l0-0.3c0-0.1-0.1-0.1-0.1-0.2L222.2,172.4z"/>
				<path class="st11" d="M222.2,166"/>
			</g>
		</g>
		<g>
			<path class="st11" d="M225.2,164.2c-0.8-0.1-1.6-0.2-2.3-0.2l0,8.3L225.2,164.2z"/>
			<path class="st11" d="M224.8,164.9c0,0,0.1,0,0.1,0.1l0.1-0.2h-0.5C224.6,164.8,224.7,164.9,224.8,164.9z"/>
		</g>
		<g>
			<path class="st11" d="M227.6,164.7c-0.6-0.2-1.2-0.3-1.8-0.4l-2,7.1L227.6,164.7z"/>
			<g>
				<path class="st11" d="M224.2,172c-0.3,0.4-0.6,0.8-0.9,1.2c0.5,0.4,1.1,0.7,1.7,1c0.1-0.2,0.3-0.3,0.4-0.5
					c1-1.6,1.5-3.3,1.5-5.1c0-0.1,0-0.3,0-0.4c0-0.2-0.1-0.5-0.1-0.7l-2.4,4.3C224.4,171.7,224.3,171.8,224.2,172z"/>
				<path class="st11" d="M232.1,166.4c-1.3-0.6-2.6-1.1-3.8-1.5l-0.8,1.3c0.3,0.7,0.5,1.4,0.5,2.3c0,2.3-0.6,4.3-1.9,6.1
					c1.2,0.5,2.4,0.9,3.3,1C229.2,172.7,230.1,169.6,232.1,166.4z"/>
				<g>
					<path class="st11" d="M225.2,166.3l-1.4,5.1l1.8-3.2l0,0C225.7,167.5,225.6,166.9,225.2,166.3z"/>
					<path class="st11" d="M224.2,171.9c-0.5,0.9-1.2,1.6-1.7,2c-2,1.4-5.2,2.7-7,2.8c0,0,0,0,0,0c1.2,0.2,2.5,1,3.8,2c0,0,0,0,0,0
						c0.3-0.2,0.7-0.4,1-0.6c2.4-1.4,4-2.9,5.1-4.5c1-1.6,1.5-3.3,1.5-5.1c0-0.1,0-0.3,0-0.4c0-0.2-0.1-0.5-0.1-0.7l-2.4,4.3
						C224.4,171.7,224.3,171.8,224.2,171.9z"/>
				</g>
			</g>
		</g>
	</g>
	<path class="st32" d="M214.1,150c0-0.1-9.2,0.6-10.6,5.1c-0.7,2.3-2.6,15.3-3.2,21.4l7.3,23.2l4.5-6.5c0,0,0.3-26.2,1.1-28.3
		c0.9-2,4.6-6.8,4.6-6.8L214.1,150z"/>
	<path class="st32" d="M211.1,149.7c0,0,5.6-1.9,5.8-1.8c0.3,0.1,2.8,6.1,3,7.1s-11.1,5.2-11.7,4.3
		C207.7,158.4,210.7,150.2,211.1,149.7z"/>
	<path class="st32" d="M234.6,147c1.3-0.7,5.8,1.3,5.9,1.9c0.1,0.6,3.1,10.9,2.3,11.6c-0.7,0.8-11.4-4.9-11.6-5.8
		C231.2,153.9,233.5,147.6,234.6,147z"/>
	<path class="st33" d="M217.2,158.8c-2.1,2.4-6,9.2-5.6,14.4c0.6,8-0.2,19.7-0.2,19.7"/>
	<path class="st33" d="M211.1,172.8c-0.1,0.8-0.3,5.9-0.3,5.9"/>
	<path class="st20" d="M221.9,228.6c0,0-3.2,8.7-4.2,12.3c-1,3.6-2.6,6.5-2.6,6.5s-6.6-0.4-10.8-2.5c-4.1-2.1-7.7-4.9-7.7-5.3
		s0.3-5.9,1.3-12.8c1-6.9,3.6-15.1,3.6-15.1L221.9,228.6z"/>
	<path class="st20" d="M225.6,228.6l1.4,14.4c0,0,5.2,0.1,8.4,0.8c3.2,0.7,10.1-0.3,10.1-0.3s1.3-6,1.8-11s0.7-12.6,0.7-12.6
		L225.6,228.6z"/>
	<path class="st20" d="M201,183.6c0,0,1.2,3.3,1,5.6c-0.1,2.5-1.1,5-1,6.1c0,0,1.9,14.4,2.5,15.8c0.6,1.4,4.8-9.3,6-10.4
		c1.1-1.2,0.1-13.2,0.1-13.2L201,183.6z"/>
	<path class="st26" d="M198.2,221.2c0.6-3.1,3-8.8,6.2-15.3c3.1-6.3,7.6-13.6,7.6-13.6s2.5,2.6,11,3.2c8.5,0.6,15.4-1.2,15.4-1.2
		s4.4,7.6,6.5,12.8c2.1,5.3,3.8,10.7,4.1,13.6c0.4,2.9-23.4,6.9-23.5,6.6c0-0.2-1.4-8-1.6-7c-0.3,1.8-1.6,7.2-1.6,7.2L198.2,221.2z"
		/>
	<path class="st34" d="M226.1,200.4c0.4,0.1,8.7-0.5,13.6-1.7"/>
	<path class="st32" d="M234.9,193.5c0,0-2.1-12.5-2.7-17.3c-0.7-5.3,0.4-16.4,1.6-20.6c1.1-4.2,2.1-7.8,2.1-7.8s11.3,3.2,12.6,5.4
		s1.8,17.5,1.4,22.6s-10,4.5-10,4.5l0.7,3.9l3.4,17.9l-5-3.1L234.9,193.5z"/>
	<path class="st34" d="M223.6,201.9c0,0-0.7,6.3-0.7,10.2c0.1,3.9,0.6,7.3,0.6,7.3"/>
	<path class="st34" d="M215.9,215.6c0.2,0.1,5.1,2.4,6.3,4"/>
	<path class="st34" d="M224.6,219.4c0,0,2.4-2.5,6.5-3"/>
	<path class="st34" d="M210,196.4c1.7,1.2,7.3,3.6,9.4,4c2.1,0.5,5.1,0.4,5.3,0.1s0.5-2.5,0.3-4.3"/>
	<circle class="st34" cx="222.6" cy="198.3" r="1.1"/>
	<path class="st34" d="M215.5,200.7c0,0,0.1,4.9-4.2,7s-8.6,2.5-8.6,2.5"/>
	<path class="st34" d="M234,200.9c0,0,0.7,5.3,2.2,7c2.3,2.7,9.9,2.9,9.9,2.9"/>
	<path class="st27" d="M196.8,218.6l-0.1,5.1c0,0,2.6,3,12.5,5.2c9.9,2.2,14.2,2.3,14.2,2.3l0-4.7c0,0-9.8-1.2-14.7-2.6
		C202.3,222.1,196.8,218.6,196.8,218.6z"/>
	<path class="st27" d="M224.9,226.6l0.6,4.4c0,0,7-0.6,14-2.1c7.8-1.7,11.9-4.5,11.9-4.5l-1.1-4.7c0,0-3.1,2.8-12.4,4.8
		C230,226.2,224.9,226.6,224.9,226.6z"/>
	<path class="st27" d="M210.3,187c-1.2,0.4-11.3-3-11.4-4.2c-0.1-1.4,0.6-6.6,1.4-6.7s9.7,1.6,10.4,1.7
		C211.5,177.8,211.5,186.6,210.3,187z"/>
	<path class="st20" d="M240,178.7c0,0-0.1,5.6,0.3,10.2s1.1,8.2,2.6,8.6c1.4,0.4,15.8-7.2,20.4-9.9c4.7-2.7,9.6-7.9,11.3-7.9
		c1.8,0,2.9-6.7-0.4-5.5s-13.4,5.6-15.8,6.7c-3,1.4-8.8,4.4-8.8,4.4l-0.2-8.5L240,178.7z"/>
	<path class="st29" d="M280.3,164.1c0,0,7.3,5.6,6.7,6.9c-0.6,1.3-15.7,14.7-16.2,14.3s-5.8-7.9-5.3-8.4
		C266.1,176.3,278.2,165.7,280.3,164.1z"/>
	<path class="st27" d="M250.5,174.8c0.7,0.1,2.1,6,1.6,7c-0.5,1.1-11.9,4-12.8,4.1c-0.9,0.1-2.5-5-1.5-6.3
		C238.8,178.3,248.6,174.6,250.5,174.8z"/>
	<path class="st35" d="M216.1,246.3c0,0-1.1,2.7-2.1,4.9c-1.3,3-3.2,5.3-2.8,6.3s4,0.8,8.6,5.1c4.6,4.3,16.7,30.1,16.7,30.1
		l-5.8,4.9c0,0-9.7-13.2-16.3-18.3c-6.5-5.1-15.6-13.6-15.6-13.6s-1.9-2.2-3.6-6.1c-1.7-4,1.2-18.3,1.2-18.3L216.1,246.3z"/>
	<path class="st35" d="M226.8,243.5c0,0,1.7,12,2.9,19.3c0.7,4.4-1.7,7.9-1.5,12.9c0.3,5,0.8,33.9,0.8,33.9l3.5,2.5l3.5-2.7
		c0,0,6.4-27.6,7-33.1c0.5-5.5-1.5-8.5-1-10.9c1.2-6.3,2.3-13.1,3.2-21.1L226.8,243.5z"/>
	<path class="st36" d="M195.9,237l-0.7,5.8c0,0,5.9,3.5,11.5,5c5.6,1.5,9.6,0.8,9.6,0.8l1.6-4.7c0,0-4.5,1.3-10.3-0.8
		C201.7,241.1,195.9,237,195.9,237z"/>
	<path class="st36" d="M226,241.6c0,0,3.7,1.5,10.3,1.3s10.7-2.3,10.7-2.3l-0.4,5c0,0-5.1,1.5-10.6,1.8c-5.5,0.3-9.9-1.5-9.9-1.5
		L226,241.6z"/>
	<path class="st20" d="M198.5,265.1c0,0-3.4-3.7-1.6-5.5c1.9-1.8,6.4,3.1,7,3.8s-0.8,3-2,3.9S199.4,266.1,198.5,265.1z"/>
	<path class="st20" d="M235.7,261.9c1.6,0,4.4,4.5,4.3,6.4c0,1.9-7.3,2-7.9,0.2C231.8,267.3,232.5,262,235.7,261.9z"/>
	<path class="st26" d="M225.1,306.8c0,0,1.9,10.1,2.1,12.2s-2.7,7.5-2.9,9.2s-0.5,3.9-0.3,4.2s3.8,1.7,7.8,1.4s8-1.6,8.1-2.5
		s-1.2-8.6-2-10.9c-0.5-1.4,0.2-3.3,1.2-7.6c1.1-4.3,1.2-7.2,1.2-7.2l-4.2,2.1l-5.9,0.5L225.1,306.8z"/>
	<path class="st37" d="M229,304c0,0-4.5,0.7-4.4,2.1c0.2,2.1,4.6,3.3,7.6,3.1c3-0.1,7.6-1.5,7.7-3.6c0.1-1.4-2.5-1.4-2.5-1.4
		l-0.7,2.5c0,0-2,1.2-4.7,1.2c-2.7,0-3-1-3-1L229,304z"/>
	<path class="st27" d="M223.5,332c0,0-0.3,2.2,0,2.6c0.3,0.5,3.9,2,8.2,1.9c4.4-0.1,8.1-2.2,8.5-2.7s-0.2-3.1-0.2-3.1
		s-2.8,2.5-7.9,2.7C227,333.7,223.5,332,223.5,332z"/>
	<path class="st33" d="M219.9,155.9c2.8-1.5-12.6,4.4-11.6,5.1c-1.2-0.9,1.7-9.7,2.6-11.1"/>
	<path class="st33" d="M231.6,155.2c0,0,9.8,6.4,11.2,5.4c1.4-1-2.3-10.8-2.3-11.3"/>
	<path class="st33" d="M233.4,157.1c0,0-2.3,14.4-1.4,18.6c0.5,2.1,1,13,3.5,18.9c1.9,4.3,7.5,7.3,8,8.1"/>
	<path class="st33" d="M238.6,166.1c0,0,0.8,6.5,0.6,9.2"/>
	<path class="st33" d="M234.9,162.9c0.8,0.7,0.8-0.5,0.8-0.5"/>
	<path class="st33" d="M236.9,173.4c0.8,0.7,0.8-0.5,0.8-0.5"/>
	<path class="st33" d="M235.1,175.1c0.8,0.7,0.8-0.5,0.8-0.5"/>
	<path class="st38" d="M229.9,267c0,0-1.7,10.9-1.8,15.3c0,4.4,1.4,20.1,1.4,20.1"/>
	<path class="st39" d="M239.7,306.5c0,0-2,11.1-2,12.6s1,6.7,1,6.7"/>
	<path class="st40" d="M269,173.7c0,0,1.6-1.2,2-0.6s1.3,1.6,1.9,1.6s1.5-2.6,0.8-3.4c-0.7-0.7-2.4-1.6-3.2-1.3
		C269.8,170.3,268.6,173,269,173.7z"/>
	<path class="st40" d="M272.4,179.8c0.8-1.4,1.5-0.3,2-0.5c0.2-0.1-0.7-0.7,0-1.6s1.7-0.1,1.8-0.3c0.3-0.4-0.7-0.9,0.6-1.8
		c0.7-0.5,1.4,0,1.7-0.1c0.2-0.1-0.4-1.1,0.5-1.6c0.8-0.6,3.1,0.5,3.7,1.2s-0.1,3.4-1.8,5c-1.7,1.6-4.5,3-5.7,2.9
		S271.9,180.6,272.4,179.8z"/>
</g>
<polyline class="st41" points="254.2,193.1 254,189.5 255.6,183.4 "/>
<g>
	<path class="st20" d="M265.8,249.5c2.4,1.9,8.9,4.4,10.5,4.8s-7.1,14.1-5.2,15.7c9,7.3,23,30.2,27.7,36.8c4.7,6.6,1.2,8.6,1.2,8.6
		s-5.9-2.7-7.3-3.6c-1.4-1-6-5.7-12.4-11.3c-6.9-6.1-25.7-22.4-26.5-24.5c-1.9-5,6-26.8,6-26.8L265.8,249.5z"/>
	<path class="st42" d="M296.7,314.7c0,0-3.4-5-3.7-5.4c-0.3-0.3-9.1,1.9-9,3.4s7.6,3.4,8.3,3.9C293.1,317.2,296.7,314.7,296.7,314.7
		z"/>
	<path class="st42" d="M288.1,322.6c-1.1,0.9-3.2,5.2-2.9,7.5s1.1,4.3,1.4,4.5c0.3,0.2,2.8,0.5,6.8-3.6c4-4.1,3.9-4.5,3.9-4.5
		s-2.5-2.4-4.4-2.9C291,323,288.1,322.6,288.1,322.6z"/>
	<path class="st43" d="M299.1,307.4c0,0,1.3,2.2,1,3.2c-0.3,1-4,2.8-4,2.8l-3.3,3.3l-4.7,6c0,0,4.9,0.6,6,1.5
		c1.1,0.9,3.1,2.2,3.1,2.2s4.6-2.9,7.7-7.7c3-4.7,2.9-7.8,2.9-7.8s-3.8-2.3-5-2.7C301.5,307.9,299.1,307.4,299.1,307.4z"/>
	<path class="st44" d="M307.7,310.9l3.5,3c0,0-2.8,6.3-9.2,12.7c-6.4,6.4-11.3,10.3-12.2,10.5c-0.9,0.3-3.3-2.5-3.3-2.5
		s4.9-1.2,13.9-11.3C309.3,313.1,307.7,310.9,307.7,310.9z"/>
	<path class="st45" d="M290.9,318.9c0,0,1-1.4,3.6-1.4c1.4,0,3.3,0.8,3.3,0.8"/>
	<path class="st45" d="M289.1,321.2c0,0,1.3-1.2,3.2-1.5c1.5-0.3,3.6,0.8,3.6,0.8"/>
	<path class="st23" d="M287.7,130.3c-0.1,1.4,0.6,6.6,0.6,6.6l-7.6,7.4l-3.3-3.7l-1.2-3.1l1.5-4.7L287.7,130.3z"/>
	<path class="st21" d="M293.1,97.1c0,0-28.4,2.5-28.8,3.3c-0.4,0.8-1.9,3.8-2.1,6.5c-0.3,3.6,0.1,11.6,3.9,17.7
		c3.8,6,7.5,7,10.4,7.6c2.8,0.5,7.9,0.2,11.4-1.7c3.5-1.9,7.3-5.4,9.2-10.4c0,0,5.9-2.3,6.2-5.3c0.3-3.1-1.1-4.5-2.8-4.5
		c-1.7,0-3.4,1.9-3.4,1.9l0.3-9.6L293.1,97.1z"/>
	<path class="st20" d="M277,104.8c8.7,0.2,15.2,0.8,16.7,2.7c1.4,1.9,2.2,9.7-0.4,13.9c-2.6,4.2-7.4,8.1-11.8,9.5
		c-4.5,1.4-7.8,0.4-9.6-0.4c-1.8-0.9-4.7-3.2-6.5-7c-2.2-4.5-3.2-9-3.4-12.6c-0.1-1.5,0-2.9,0-3.9
		C262.8,106.6,268.9,104.6,277,104.8z"/>
	<path class="st46" d="M291.9,98.5c-0.2,0.3-1.7,5-13.1,5.5s-15.7-2.7-17.8-5.4s-2-10.4-1.1-13.3c0.8-2.9,4.9-6.5,4.9-6.5
		s-0.5,2.4,0,4.3c0.5,1.9,0.9,2.2,0.9,2.2s0.9-3.3,1.8-3.8c1-0.5,3.4,3.7,4.2,4.1c0.8,0.4-0.4-2.3,0.1-2.3c0.5,0,1.9,2.1,2.4,2.1
		c0.5,0.1,3.1-0.3,3.1-0.3l12.6,7.8L291.9,98.5z"/>
	<path class="st47" d="M302.2,101.4c0,0,1.6-1.7,2.4-3.6c0.7-2,0.4-3.7,0.9-3.4c0.5,0.3,1.1,0.2,1.6-1c0.5-1.2,0.5-6.5,0.4-7
		c-0.2-0.5-2.1-3.5-4.4-4.1c-2.3-0.6-4.7-1.4-7.1-1.4c-2.4,0-4.3,0.2-5.2-0.1c-0.8-0.2-1.9-0.3-1.9-0.3l-1.2,1.1l6.8,8.8l6.1,8.8
		L302.2,101.4z"/>
	<path class="st48" d="M296.7,111c0,0-2.1-10.1-8.5-17.1c-6.4-7-13.8-8.1-13.8-8.1s1.2-2.6,3.5-3.5c2.2-0.9,3.8,0.3,3.8,0.3
		s4.1-1.4,6-1.1c1.9,0.3,6.6,0.1,10.8,5.7c4.2,5.6,4.9,18,4.8,18.6c-0.1,0.6-2,3.8-3,4.1C299.4,110.2,296.7,111,296.7,111z"/>
	<path class="st3" d="M290.3,107.1l-0.6,1.6c0,0-2.6-0.6-3.7-0.9c-1-0.2-3.2-0.2-3.2-0.2l1.1-1.9c0,0,1.7-0.1,3.7,0.3
		C288.8,106.3,290.3,107.1,290.3,107.1z"/>
	<path class="st3" d="M271.5,105.9l0.1,2.3c0,0-2.6-0.1-3.9,0.1c-1.3,0.2-2.2,0.5-2.2,0.5s-0.9-1.2-0.9-1.4c0-0.2,1.8-1,3.4-1.3
		C269.3,105.9,271.5,105.9,271.5,105.9z"/>
	<path class="st49" d="M277.6,112.7c0,0-1.5-0.7-2.4-0.6c-0.9,0.1-1.9,0.7-1.9,0.7l0.3,1.5c0,0,0.8-0.8,1.6-0.8
		c0.8,0,1.8,0.7,1.8,0.7L277.6,112.7z"/>
	<path class="st49" d="M296.6,109.8c0,0-1.6,0-2.9,0.5s-2.7,1.5-2.7,1.5l0.4,1.7c0,0,1.9-1,3.1-1.4c1.2-0.4,2.4-0.6,2.4-0.6
		l-0.1-1.7L296.6,109.8z"/>
	<path class="st49" d="M261.3,111.7c-1.7-0.3-1.9-0.2-1.9-0.2l0.1,1.7l1.3,0.4L261.3,111.7z"/>
	<path class="st50" d="M261.5,114.7c-0.3-3.9,0.4-4.3,4.3-4.6c5.1-0.3,7.5,1,7.9,4.4c0.5,3.9-2.5,5.6-6.4,5.9
		C263.3,120.8,261.8,118.6,261.5,114.7z"/>
	<path class="st50" d="M291.3,113.9c-0.3-3.9-3.1-4.6-7-4.2c-5.1,0.5-7.2,1.7-6.9,5.6c0.3,3.9,3.4,6.1,7.3,5.7
		C288.5,120.7,291.6,117.8,291.3,113.9z"/>
	<path class="st51" d="M274.8,114.2c0.1,1,0.2,2.2-0.1,2.8c-0.4,0.6-1.3,0.9-1.6,1.8c-0.3,0.9-0.1,2.1,0.5,2.7
		c0.6,0.6,2.3,1,3.1,0.6"/>
	<path class="st51" d="M281.2,124.5c0,0-0.8,1.8-2.8,2.2c-2.1,0.4-3-0.5-3-0.5"/>
	<path class="st52" d="M269.5,113.7c0,0-1-1-2.9-1c-1,0-1.8,0.2-1.8,0.2"/>
	<circle class="st53" cx="267.9" cy="114.8" r="1.9"/>
	<path class="st20" d="M303.3,251.5c0.5,2.5,1.5,11.5,1.6,16.4s-0.6,14.8-3.3,21.3c-2.7,6.5-7.3,22.4-8.4,26.8
		c-1.6,5.9-2.1,9.8-1.6,9.1l-5.5,3.2l-3.7-5.1c0,0,0.5-7.5,1.6-13.6c1.1-6.1,1.4-21,2.1-29.2c0.4-4.8,0.4-21,0-23.8
		C285.4,250.7,303.3,251.5,303.3,251.5z"/>
	<path class="st48" d="M267.3,220.8c0,0-7,19-8,23c-0.7,2.9-2.9,9.2-2.9,9.2s3.4,3,9.8,4.2c6.3,1.2,11.3,1.8,11.5,1.2
		c0.3-0.6,6.1-18.8,6.1-18.8v-1.1l0.1,20.5c0,0,10.3,0.2,13.6-0.7s6.7-1.2,7.3-2.8c0.6-1.7,1.4-21.3,1.1-24.5
		c-0.2-2.5-1.1-10.4-1.1-10.4l-32.1-4.8L267.3,220.8z"/>
	<line class="st54" x1="282.4" y1="236.8" x2="275.1" y2="256.9"/>
	<path class="st20" d="M260.9,164c0,0-2.4,5.2-3.3,10.6s-2.8,13.4-3.2,15.5c-0.4,2,1.2,9.1,1.8,12.5c1,5.2,9.1,23.4,9.1,23.4
		l6.5-6.2l-7.3-28.1l4.1-8.1l-0.4-15.7L260.9,164z"/>
	<polyline class="st54" points="275.1,218.8 270.5,227.4 263.2,232.3 	"/>
	<path class="st55" d="M266.9,168.2l-8-3.1c0,0,1.7-8.1,2.1-9.7c0.4-1.6,3.1-9.7,3.8-10.4c0.7-0.7,7.4-3.8,7.4-3.8s1.6-1.1,2.1-1.9
		s1.4-2,1.4-2s1.6,0.5,2.4,1.1c0.8,0.6,1.8,2,1.8,2l0.8,2.8l0.8-3.1l8.4-5.4l3,3.1c0,0,2.4,1.3,4.6,0.8c2.2-0.4,8.3,0.9,9.4,1.8
		c1.1,0.8,5,6.9,6.6,10.6c1.6,3.7,4.7,9.5,4.3,10.8s-5.5,4-8.3,5.3c-1.8,0.9-4.1,3-6,3.4l3.5,9.3l-1.4,29.7l-1.7,0.1l0.3,6.1
		l-14.1,4.7l-6.7,1c-8.9,2.7-11.7,3.5-15.1-0.8l-2.5-38L266.9,168.2z"/>
	<path class="st56" d="M282.1,140.6c0,0,0.6,0.7,1.2,1.6c1,1.4,2.3,3.3,2.6,4.3c0,0,0.9-2.2,3.5-4.9c2.6-2.7,3.5-3.9,3.5-3.9"/>
	<line class="st56" x1="280.6" y1="143.2" x2="283.3" y2="142.3"/>
	<path class="st56" d="M279.8,140.8c0,0-2.5,2.1-3.1,3.6c-0.6,1.5-0.9,2.1-0.9,2.1l-3.1-5.2"/>
	<path class="st56" d="M280.7,143.2c0,0-0.4,9.2-0.4,20.6c0,22.5-5.8,59.6-5.8,59.6"/>
	<path class="st57" d="M277.7,157.2c-4.3,0.3-4.3,0.3-5.5,0.2c-1.2-0.1-1.8-0.3-1.8-0.3"/>
	<path class="st57" d="M277.7,157.5l-0.6,9.9c0,0-3.4,0.7-4.6,0.6c-1.2-0.1-3.6-1.9-3.6-1.9l0.6-8.3"/>
	<path class="st57" d="M277.4,160.2c0,0-2.4,0.4-3.4,0.4c-1,0-1,0-4.3-0.4"/>
	<path class="st56" d="M284.7,155c1.1,0.4,0.4,1.1,0.4,1.1"/>
	<path class="st56" d="M284.4,166.5c1.1,0.4,0.4,1.1,0.4,1.1"/>
	<path class="st56" d="M283.9,177.8c1.1,0.4,0.4,1.1,0.4,1.1"/>
	<path class="st56" d="M282.7,190.1c1.1,0.4,0.4,1.1,0.4,1.1"/>
	<path class="st56" d="M280.8,201.6c1.1,0.4,0.4,1.1,0.4,1.1"/>
	<path class="st42" d="M284.9,323.1c0,0,1.3-5.2,1.3-5.7c0-0.5-8.4-5.8-9.4-4.7c-1,1.2,3.2,8.7,3.3,9.7
		C280.2,323.4,284.9,323.1,284.9,323.1z"/>
	<path class="st42" d="M272.2,323.5c-1.5-0.3-6.5,1.4-8,3.3c-1.5,1.9-2.4,4.1-2.4,4.5c0,0.4,1.8,2.6,8,2.7c6.2,0.1,6.5-0.3,6.5-0.3
		s-0.1-3.8-1.1-5.8C274.1,326.1,272.2,323.5,272.2,323.5z"/>
	<path class="st43" d="M292.3,320.9c0,0-0.6,2.7-1.6,3.2c-1,0.5-5.2-1-5.2-1l-5.1-0.1l-8.2,0.8c0,0,3.3,4.4,3.4,6s0.6,4.1,0.6,4.1
		s5.8,1.5,11.7,0.3c6-1.2,8.1-3.6,8.1-3.6s-1.1-4.8-1.8-6.1C293.7,323.2,292.3,320.9,292.3,320.9z"/>
	<path class="st44" d="M296.2,330.4l0.3,5.1c0,0-7,2.5-16.7,2.2c-9.8-0.3-16.5-1.3-17.3-1.8s-0.6-4.5-0.6-4.5s4.7,3.1,19.2,2.5
		C295.6,333.4,296.2,330.4,296.2,330.4z"/>
	<path class="st58" d="M279.9,231.7"/>
	<path class="st58" d="M282.6,235.6"/>
	<path class="st20" d="M299.5,189.4"/>
	<path class="st59" d="M277.2,323c0,0,1.8-0.2,3.8,1.8c1.1,1.2,1.9,3.2,1.9,3.2"/>
	<path class="st59" d="M274.1,323.3c0,0,1.9,0.2,3.6,1.4c1.4,1,2.1,3.5,2.1,3.5"/>
	<path class="st51" d="M287.6,112c0,0-1.6-0.2-3.6,0.3c-2.1,0.5-2.4,1.2-2.4,1.2"/>
	<circle class="st60" cx="283.5" cy="114.6" r="2.1"/>
	<circle class="st11" cx="284.6" cy="113.7" r="0.8"/>
	<circle class="st11" cx="268.7" cy="113.9" r="0.8"/>
	<polyline class="st54" points="283.8,237.8 279.4,234.1 279.6,223.2 	"/>
	<line class="st54" x1="283.2" y1="223.4" x2="282.8" y2="234.9"/>
	<path class="st54" d="M281.5,237.9c-0.3,0-2.4-1.9-2.4-1.9"/>
	<g>
		<polygon class="st61" points="317.6,212.8 318,213.2 309.8,237.3 280.5,228.5 287.3,204.7 		"/>
		<path class="st62" d="M317.7,213.4c0,0,0.4,1,1.1,1.2c0.7,0.2,1.6-0.2,1.6-0.2l-8.3,23.9l-1.1,0.8l-1.9-0.8L317.7,213.4z"/>
		<path class="st63" d="M320.5,214.1l-8.3,23.9c0,0-0.7,0.9-1.5,0.6c-1.1-0.3-1-1.7-1-1.7l-29.2-8.4c0,0-0.5,1.8,0.4,2.2
			s25.3,7.6,29.9,8.5c0.6,0.1,1.5-0.5,1.7-0.8l8.4-24.2L320.5,214.1z"/>
	</g>
	<path class="st20" d="M315.4,164c0,0,3.7,8.2,5.1,16.1c1.4,8.1,1.8,14.1,1.6,15.3c-0.3,1.2-9.9,13.9-12.8,17.8
		c-4.1,5.4-9.2,10.1-9.3,10.6c-0.4,2.2,0.5,2.6,0.4,3.4c0,1-0.1,9.5-0.4,10.2s-1.1-0.9-1.1-0.9s-1,1-1.5,1c-0.8,0-0.7-0.8-1.4-0.9
		c-0.7-0.2-0.6,1-1.5,0.9c-0.8-0.1-0.4-1-0.9-1s-1.6,0.9-2,0.4c-0.3-0.4-0.3-3.4-0.3-5c-0.1-2.3,0.4-5.9,2-7.9
		c1.3-1.6,6.1-12.8,8-16.8c1.8-3.6,8.7-14.7,8.7-16.3c0-1.6-2.6-7.1-3.6-10.9c-0.6-2.4-3.3-10.1-3.3-10.1
		C306.1,169.3,311.4,165.9,315.4,164z"/>
	<line class="st64" x1="286.3" y1="286.5" x2="285" y2="306"/>
	<line class="st64" x1="298.9" y1="295.6" x2="293.4" y2="314.3"/>
	<line class="st54" x1="303.5" y1="255.1" x2="304" y2="237.7"/>
	<polyline class="st56" points="303.1,169.4 298.8,160.3 294.3,158.1 	"/>
	<line class="st56" x1="299.2" y1="157.1" x2="298.8" y2="160.3"/>
	<line class="st56" x1="266.9" y1="168.2" x2="268.1" y2="162.7"/>
	<g>
		<g>
			<path class="st11" d="M306.8,161c1.2-1.6,1.9-3,2.1-4.4C308.7,157.9,308,159.4,306.8,161z"/>
			<path class="st11" d="M306.5,151c0.1,0,0.2,0.1,0.3,0.1C306.8,151.1,306.6,151.1,306.5,151z"/>
			<polygon class="st11" points="303.2,161.3 303.2,161.3 303.2,161.3 			"/>
			<path class="st11" d="M306.3,161.6C306.3,161.6,306.3,161.6,306.3,161.6c0.2-0.2,0.3-0.4,0.5-0.6
				C306.7,161.2,306.5,161.4,306.3,161.6C306.3,161.6,306.3,161.6,306.3,161.6z"/>
			<path class="st11" d="M307,151.2c0.1,0,0.2,0.1,0.3,0.2C307.3,151.3,307.2,151.2,307,151.2z"/>
		</g>
		<g>
			<path class="st11" d="M304.3,155.8c-0.1-0.1-0.2-0.2-0.2-0.3C304.2,155.7,304.2,155.8,304.3,155.8z"/>
			<path class="st11" d="M303.9,155.4c-0.1-0.1-0.1-0.1-0.2-0.2C303.8,155.2,303.9,155.3,303.9,155.4z"/>
			<path class="st11" d="M304.5,156.1c-0.1-0.1-0.1-0.1-0.2-0.2C304.4,156,304.5,156,304.5,156.1z"/>
			<path class="st11" d="M312,157.8c0.1-0.1,0.3-0.2,0.4-0.3l0,0C312.3,157.6,312.2,157.7,312,157.8z"/>
			<path class="st11" d="M306.3,158.9c0.6,0.3,1.3,0.5,2,0.6C307.6,159.3,306.9,159.1,306.3,158.9z"/>
			<path class="st11" d="M310.5,159.9C310.5,159.9,310.5,159.9,310.5,159.9c-0.8-0.1-1.5-0.2-2.2-0.3
				C309,159.7,309.7,159.8,310.5,159.9z"/>
			<path class="st11" d="M312,157.8C312,157.8,312,157.8,312,157.8C312,157.8,312,157.8,312,157.8z"/>
			<g>
				<path class="st11" d="M308.6,157.8c-0.1,0-0.2,0-0.3,0c-0.1,0-0.3,0-0.4,0c-0.3,0-0.6-0.1-0.8-0.1c-0.3,0.4-0.6,0.8-0.9,1.2
					c0,0,0.1,0,0.1,0.1c0.5,0.2,1,0.4,1.5,0.5C308.2,158.8,308.4,158.3,308.6,157.8z"/>
				<path class="st11" d="M311.7,157.7c0,0-0.1,0-0.1,0c-0.2,0-0.5,0.1-0.8,0.1c-0.1,0-0.2,0-0.2,0c-0.4,0-0.8,0-1.2,0
					c-0.2,0.6-0.5,1.2-0.8,1.8c0.6,0.1,1.3,0.2,2,0.3c0,0,0,0.1-0.1,0.1c0.5-1,1.2-1.8,1.9-2.5l0,0
					C312.2,157.6,312,157.6,311.7,157.7z"/>
				<path class="st11" d="M310.2,160.6c-0.7-0.1-1.4-0.2-2-0.3c-0.3,0.5-0.7,1.1-1.2,1.7l0,0c0.8,0.3,1.6,0.7,2.5,1.3
					c0.2-1.1,0.5-2,0.9-2.8C310.3,160.5,310.2,160.5,310.2,160.6z"/>
				<path class="st11" d="M306.8,161c0.2-0.3,0.4-0.6,0.6-0.9c-0.7-0.2-1.3-0.4-1.8-0.7c-0.8,0.9-1.7,1.6-2.4,1.9v0
					c1.2-0.1,2.1,0.1,3.1,0.3l0,0C306.4,161.5,306.7,161.2,306.8,161z"/>
			</g>
			<path class="st11" d="M312,157.8"/>
		</g>
		<g>
			<path class="st11" d="M305.5,156.3l-3.3-4.2c-0.4,0.3-0.8,0.5-1.1,0.8L305.5,156.3z"/>
			<g>
				<path class="st11" d="M303.5,154.7l2.1,1.6l-2.4-3C303.1,153.8,303.2,154.2,303.5,154.7z"/>
				<path class="st11" d="M305.9,157c0,0-0.6-0.4-0.7-0.4l-0.2-0.1c0.4,0.3,0.9,0.6,1.3,0.8L305.9,157z"/>
				<path class="st11" d="M298.7,155.3c2.1,1.8,3.7,3.5,4.4,5.3c0.6-0.3,1.3-0.9,1.9-1.6c-1.4-0.8-2.3-2-3-3.5
					c-0.2-0.5-0.3-1.1-0.3-1.6l-0.9-0.7C300,153.8,299.3,154.5,298.7,155.3z"/>
				<path class="st11" d="M305,156.5l-2.6-2c0,0.1,0.1,0.3,0.1,0.5c0,0.1,0.1,0.2,0.1,0.3c0.1,0.3,0.2,0.5,0.4,0.8
					c0.4,0.8,1,1.4,1.7,1.9c0.1,0.1,0.2,0.1,0.2,0.2c0.2,0.1,0.3,0.2,0.5,0.3c0.3-0.4,0.6-0.8,0.9-1.2l0,0
					C305.9,157.1,305.5,156.8,305,156.5z"/>
			</g>
		</g>
		<g>
			<path class="st11" d="M304.1,151.1c-0.5,0.2-1,0.5-1.5,0.8l3.8,4.8"/>
			<g>
				<path class="st11" d="M306.4,156.6l-0.1-0.2c0,0-0.1,0-0.1-0.1L306.4,156.6z"/>
				<path class="st11" d="M304.7,152.5"/>
			</g>
		</g>
		<g>
			<path class="st11" d="M306.1,150.4c-0.6,0.2-1.1,0.3-1.6,0.5l2.3,5.5L306.1,150.4z"/>
			<path class="st11" d="M306.1,151c0,0,0.1,0,0.1,0l0-0.1l-0.3,0.1C306,151,306,151,306.1,151z"/>
		</g>
		<g>
			<path class="st11" d="M307.9,150.1c-0.5,0.1-0.9,0.1-1.3,0.2l0.6,5.2L307.9,150.1z"/>
			<g>
				<path class="st11" d="M307.7,155.8c-0.1,0.4-0.2,0.7-0.3,1c0.4,0.1,0.9,0.1,1.4,0.2c0-0.2,0.1-0.3,0.1-0.5
					c0.3-1.3,0.1-2.6-0.4-3.8c0-0.1-0.1-0.2-0.1-0.2c-0.1-0.2-0.2-0.3-0.3-0.4l-0.4,3.5C307.7,155.6,307.7,155.7,307.7,155.8z"/>
				<path class="st11" d="M311.4,150c-1-0.1-2,0-3,0.1l-0.1,1.1c0.4,0.4,0.7,0.8,0.9,1.4c0.6,1.5,0.8,3,0.4,4.6c1,0,1.9-0.1,2.5-0.3
					C311.2,154.9,310.9,152.6,311.4,150z"/>
				<g>
					<path class="st11" d="M306.8,151.8l0.5,3.8l0.3-2.6l0,0C307.4,152.5,307.1,152.1,306.8,151.8z"/>
					<path class="st11" d="M307.7,155.8c-0.1,0.7-0.3,1.4-0.6,1.8c-0.9,1.5-2.7,3.2-3.8,3.8c0,0,0,0,0,0c0.9-0.2,1.9,0,3.1,0.3
						c0,0,0,0,0,0c0.2-0.2,0.3-0.4,0.5-0.6c1.2-1.6,1.9-3,2.1-4.4s0.1-2.6-0.4-3.8c0-0.1-0.1-0.2-0.1-0.2c-0.1-0.2-0.2-0.3-0.3-0.4
						l-0.4,3.5C307.7,155.6,307.7,155.7,307.7,155.8z"/>
				</g>
			</g>
		</g>
	</g>
</g>
<g>
	<path class="st21" d="M160.7,120.8c0,0,0.4,6.7-1.4,8.5c-1.8,1.8-6.7,2.3-6.7,2.3l2,10l15.1,4.1l11-8.2l-0.2-5.1c0,0-6-2.5-7.2-3.9
		c-1.2-1.5-2-8.7-2-8.7L160.7,120.8z"/>
	<path class="st23" d="M180.6,132.4c0,0-6-2.5-7.2-3.9c-1.2-1.5-2-8.7-2-8.7l-10.7,1c0,0,0.4,6.1-1.1,8.2c1.3,1.3,3.7,2.9,8.1,3.9
		c4.7,1.1,9.7,1.6,13,1.8L180.6,132.4z"/>
	<path class="st65" d="M185.5,199.8l2.6,6.8c0,0,2.3,21.7,2.4,28.5c0.1,6.8,0.5,23.5,0.9,26.1c0.4,2.6,4.3,35.6,4.3,36.5
		c0,0.9,2,2.3,2.3,3.2c0.3,0.9-0.4,2.3-0.3,3.1c0.1,0.8,1.2,1,1.5,1.9c0.4,0.9,0.4,2.4,0.4,2.4l-16.1,4.3c0,0-1.7-1.9-1.8-2.6
		c-0.1-0.6,0.3-2.4,0.3-3.2s-2.2-1.4-2.2-1.8s0.3-2.9,0-3.7s-8.3-22.6-9.3-26.9c-1.5-6.4,0.5-14.7,1.5-18.6c1-3.8-3.8-28-3.8-28
		s-4.1,19.3-4.5,21.4c-0.4,2-2.3,5.5-2.3,6.3s1.5,9.5,0.9,13s-5.5,28.3-5.5,28.8s-1.9,2.6-1.8,3.3c0.1,0.8,1.3,2.2,1.3,3.1
		s-2.2,2.9-2.2,3.6s1,5.1,1,5.1l-14.3,1c0,0-3.3-4.9-3.3-5.5s1.9-2.4,1.9-3.3c0-0.9-1.7-1.8-1.7-2.4c0-0.6,1.8-3.3,1.8-3.3
		s1.4-19.3,1.4-21.2s-0.3-11.9-0.1-13.7c0.1-1.8,2.8-11.8,2.8-13s-0.1-39.3,0-39.8c0.1-0.5,4.7-12.9,4.7-12.9L185.5,199.8z"/>
	<polyline class="st66" points="170.3,205.4 170.5,220.3 170.6,223.8 	"/>
	<polyline class="st66" points="175.2,203.7 175.3,217.5 170.5,220.3 	"/>
	<path class="st66" d="M181.4,202c0,0,0.8,5.8,0.9,8c0.1,2.2,6.7,7.9,6.7,7.9"/>
	<path class="st20" d="M188,158.1c0,0,7.8,11.1,7.9,11.6c0.1,0.5-9.4,19.6-10.2,20.3c-0.8,0.7-0.6,4.3-0.9,5.6s2.5,10.9,3.3,11.5
		c0.8,0.6,6.9-3.1,7.8-4.2c0.4-0.5,0.8-2.6-0.8-3c-1.5-0.4-3.7,0.9-4.2,0.6c-0.5-0.3-1.8-4.6-2-5.4c-0.2-0.7,6.8-7.1,10.7-10.9
		s10.9-12.1,10.1-15.7c-0.6-3.1-13.8-24.2-13.8-24.2l-9,12.5L188,158.1z"/>
	<path class="st67" d="M181.3,311.6c0,0,7.2-1,9.9-2.2c2.7-1.2,8.2-4,8.2-4l0.8,4.9c0,0-4.2,2.3-7.7,3.5s-9,1.9-9,1.9L181.3,311.6z"
		/>
	<path class="st68" d="M182.7,315.9c0,0,7.8-5.4,12.3-6.1c4.5-0.8,7.2,1,7.2,1s-0.6,1.3-1.5,3.3c-0.9,2-2,4-2,4s4.6,4.1,7.5,4.6
		c2.9,0.5,7.9-0.1,8.6,1.2s1.5,3.2,1.2,6.1c0,0-15.5-0.3-18.2-0.1c-2.7,0.3-14.5-0.6-15-0.8c-0.5-0.3-0.8-3.2-0.3-4.2
		c0.5-1,2.8-4.2,2.8-5C185.3,319.1,182.7,315.9,182.7,315.9z"/>
	<path class="st66" d="M169.5,226.7l4.8-1.7l-3.1,1.5l4.4,26.3c0,0,0.1,8.8-0.7,11.4c-0.8,2.6-0.9,7.1,0.7,12.5
		c1.5,5.5,6.9,23.1,7.2,23.5s0.9,1.6,0.8,2.4c-0.2,0.8,0.8,1.5,1.1,2.1c0.3,0.6,0.3,2.6,0.6,3.2c0.3,0.6,1.8,3.2,1.8,3.2"/>
	<path class="st69" d="M139.3,331.1v5.8c0,0,4.6,2.3,9.2,2.3c4.6,0,8.7-1.7,8.7-1.7V332c0,0-5,1.5-8.8,1.4S139.3,331.1,139.3,331.1z
		"/>
	<polygon class="st69" points="182.7,329.1 182.7,333.3 216,333.3 215.9,330 	"/>
	<path class="st20" d="M146.9,95.9c0,0,1,6.5,0.9,7.7s-3.9,2.4-3.8,5.1c0.2,2.7,2.5,4.4,5.8,5.1c0,0,3.2,6.7,8.6,9.1
		c5.9,2.5,13.3,2.1,18.2-1.8c5.2-4.1,5.9-11.3,5.9-11.3s2.4-0.5,2.7-3.2c0.3-2.7-1.6-4.3-1.6-4.3l-0.7-9.7l-11.5-8.9l-14.3,1
		l-9.2,4.8L146.9,95.9z"/>
	<path class="st67" d="M137.6,315.3l0.2-4.8c0,0,4.3,1.8,8.8,1.8c4.5,0,9.6-0.8,9.6-0.8l-0.8,5c0,0-5.1,0.3-9.7,0.3
		C141.3,316.9,137.6,315.3,137.6,315.3z"/>
	<path class="st68" d="M142.4,322.9l-4.5-7.2c0,0,4.2-1.3,9.5-1.3s9.5,2.6,9.5,2.6l-3.3,6.1l3.7,8.8c0,0-4.3,1.3-7.9,1.4
		c-3.6,0.1-10-2.3-10-2.3L142.4,322.9z"/>
	<path class="st70" d="M157.1,103.2c0,0,1.3-0.6,3.2-0.7s2.4,0.5,2.4,0.5"/>
	<circle class="st71" cx="161.2" cy="104.4" r="1.9"/>
	<circle class="st11" cx="162.1" cy="103.4" r="0.7"/>
	<path class="st72" d="M179.8,101.1c0,0-0.8-0.2-2.6,0.1c-1.8,0.3-2.1,0.9-2.1,0.9"/>
	<circle class="st73" cx="176.7" cy="103.1" r="1.8"/>
	<circle class="st11" cx="177.7" cy="102.2" r="0.7"/>
	<path class="st74" d="M175.6,102.9"/>
	<path class="st74" d="M178.9,102.3"/>
	<path class="st75" d="M155.3,98.9l1.2,2.1c0,0,2.2-0.9,3.1-1.4c1.3-0.5,3.7-0.8,3.7-0.8l0.1-2.8c0,0-3.2,0.3-4.9,0.9
		C157.5,97.4,155.3,98.9,155.3,98.9z"/>
	<path class="st75" d="M174.3,98.3c0,0,3.4,0,4.7,0.7l1.1-2.4l-6.1-1.1L174.3,98.3z"/>
	<path class="st76" d="M169.3,102.5c0,0,0.3,3,1.2,4c0.9,1,3.1,1.5,3.2,1.7c0.3,1.2-1.6,2.4-2.8,2.9"/>
	<path class="st76" d="M167,116.8c0,0,2.4,0.7,4.1,0.3c2.3-0.6,2.4-1.8,2.4-1.8"/>
	<path class="st21" d="M182.5,109.8c0,0,2.4-0.5,2.7-3.2c0.3-2.7-1.6-4.3-1.6-4.3l-0.7-9.7l-11.5-8.9l-14.3,1l-9.2,4.8l-1,6.5
		c0,0,1,6.5,0.9,7.7c-0.1,1.2-3.9,2.4-3.8,5.1s2.5,4.4,5.8,5.1c0,0,3.2,6.7,8.6,9.1c3.1,1.3,6.5,1.8,9.8,1.5c0.4,0,0.9-0.1,0.9-0.1
		s-11.4-1-15.4-7.2c-3-4.7-3.4-11.3-3.1-15.3c0.3-3.9,3.5-9.2,5.4-10.4c2-1.2,11.4-1.9,11.4-1.9l13.9,6c0,0,1.9,5.9,1.8,7.8
		C183,105,182.5,109.8,182.5,109.8z"/>
	<path class="st77" d="M148.5,104c0,0,0.7-5,2-8.7s3.3-6.5,3.3-6.5s0.8,2.4,1.8,3.8c1.1,1.4,4.1,2.4,4.1,2.4s-1.8-3.4-1.7-4.4
		c0.1-0.9,0.5-3.3,1.2-3.4c0.7-0.2,2.5,6.1,8.3,8.3s13,1.3,13,1.3s-3.9-1.8-5.1-3.7c-1.3-1.9-2-4-2-4s4.3,5.6,8.7,5.7
		c4.3,0.1,5.8-0.8,5.8-0.8s-2.5-2.4-3.6-4.6c-0.6-1.2-3.2-9.2-8.8-11.2c-5.6-2-12.1-1.7-14.8-0.2s-3.3,1.6-3.3,1.6s-0.8-1.8-0.7-3
		c0.1-1.5,2.6-3.3,2.6-3.3s-4.2,1.2-5.3,3.3c-1.1,2-0.7,3.9-0.7,3.9s-3.4-1.7-6-1.1s-3.7,3.6-3.7,3.6s2.4-1.7,4.2-1.3
		c1.9,0.4,2.6,1.6,2.6,1.6s-4.4,1.8-5.2,4.3c-0.9,2.5-1.1,5.9-0.4,8C145.3,97.7,148.5,104,148.5,104z"/>
	<line class="st66" x1="167.9" y1="225.7" x2="177.9" y2="220.2"/>
	<polyline class="st66" points="153.4,202.5 152.8,213.9 143.9,227.8 	"/>
	<path class="st66" d="M184.5,268.5c0,0,4-0.2,4.9-0.8c0.9-0.6,1.5-1.2,1.5-1.2"/>
	<path class="st66" d="M147,267.3c0.3,0.1,3.3,1.5,4.9,1.5s4.7-0.9,4.7-0.9"/>
	<path class="st66" d="M147.4,270.2c1,0.8,2.5,1.5,4.6,1.4c1.6-0.1,3.2-0.7,3.2-0.7"/>
	<path class="st78" d="M144.6,324c0,0,1.3-1.4,2.9-1.3c1.6,0.1,4,1.7,4,1.7"/>
	<path class="st78" d="M144.7,326.5c0,0,1.1-1.4,2.6-1.4c1.5,0,3.5,1.2,3.5,1.2"/>
	<path class="st78" d="M144.9,328.9c0,0,1-1.2,2.8-1.1s2.9,1,2.9,1"/>
	<path class="st78" d="M197.4,324.4c0,0,0.7-2.4,1.7-3.1c1-0.6,2.8-0.6,2.8-0.6"/>
	<path class="st78" d="M200.9,324.8c0,0,0.6-1.5,1.2-2c1-1,2.2-0.8,2.2-0.8"/>
	<path class="st78" d="M204.9,325c0,0,0.8-1.9,2.2-2.2"/>
	<path class="st79" d="M178.9,131.3l-4.2,6.1l-7,1.5l1.3,25.4l19-31.6C183.9,131.8,178.9,131.3,178.9,131.3z"/>
	<path class="st80" d="M193,134.3c-0.6-0.6-2.6-1.2-5-1.7l-19,31.6l29.1-21.3C196,139,193.8,135.1,193,134.3z"/>
	<path class="st81" d="M186.5,160.2l0.2-1.2l1.9,3.2l13.8-11.3c0,0-2.1-4-4.4-8.2L169,164.2h17.3c0.1-2,0.2-3.4,0.2-3.4L186.5,160.2
		z"/>
	<path class="st22" d="M157.7,136.3l-4.4-5.4c0,0-4.3,0.5-8.5,1.2l24.2,32.1l-1.3-25.4l-2.5,0.5L157.7,136.3z"/>
	<path class="st81" d="M144.9,132.1c-3.7,0.6-7.4,1.4-8.1,2.2c-0.9,1-3.7,6-6,10.3l38.2,19.5L144.9,132.1z"/>
	<path class="st22" d="M169,164.2l15.9,16.3c0.1-1.3,0.3-2.8,0.4-4.1c0.2-2,0.7-8.3,1-12.2H169z"/>
	<path class="st79" d="M130.8,144.6c-1.8,3.4-3.4,6.4-3.4,6.4l13.8,11.3l1.9-3.2l1.7,8.2c0.1,0.2,0.1,0.4,0.2,0.6l24-3.7
		L130.8,144.6z"/>
	<path class="st79" d="M169,164.2l11.6,38.2c3.1-1.4,5.8-2.9,5.9-3.4c0.3-1,0.3-2.7,0.3-3.8s-1.4-1.7-1.4-2.7s1.2-1.9,1.2-3.2
		c0-1.4-1.5-2.2-1.9-4.1c-0.2-1.1-0.1-2.8,0.1-4.6L169,164.2z"/>
	<path class="st80" d="M169,164.2l-9.3,39.5c4.8,1.1,9.9,2.2,11.9,2c2-0.3,6-1.8,9.3-3.3L169,164.2z"/>
	<path class="st81" d="M147.7,188.7c-0.7,1.4,0.7,2.6,0.7,3.2c0,0.7-0.3-0.7-1.5,1.9c-1.2,2.6,3.4,7.3,3.4,7.3s4.5,1.3,9.5,2.5
		l9.3-39.5l-21.4,19.6C147.9,186.3,147.9,188.3,147.7,188.7z"/>
	<path class="st22" d="M145,167.8c1,3.3,2.2,10.9,2.6,16l21.4-19.6L145,167.8z"/>
	<path class="st20" d="M138.6,163.9c0,0-6.9,13.3-6.9,13.8c0,0.5,15.6,16.1,16.5,16.6c0.9,0.5,3.8,2,4.5,3.2
		c0.6,1.2-2.2,13.2-2.8,13.9c-0.6,0.8-7.4-1.4-8.6-2.3c-0.5-0.4-1.5-3.1-0.1-3.8c1.4-0.8,3.1,0.5,3.5,0.1s2.4-4.7,2.4-5.5
		c0-0.8-11.5-4.7-16.2-7.5s-14.2-8.9-14.3-12.5c-0.1-3.2,11-27.8,11-27.8l11.6,10.1L138.6,163.9z"/>
	<path class="st41" d="M133.7,193.6c-4.7-2.8-17.1-10-17.2-13.6c-0.1-3.2,11-27.8,11-27.8l11.6,10.1l-0.5,1.7c0,0-6.9,13.3-6.9,13.8
		c0,0.5,1.5,2,2.4,2.5"/>
	<path class="st41" d="M190.4,161.4c0,0,5.5,7.9,5.7,8.4s-1.7,4.9-2.4,5.6"/>
	<path class="st41" d="M197.7,185.7c4-3.8,12.8-13.5,12.1-17.1c-0.6-3.1-8.6-15.4-8.6-15.4"/>
	<polyline class="st82" points="148.8,150.8 146.9,154 144.2,158.5 146.9,154 152.9,154.2 	"/>
	<path class="st69" d="M126.9,150.4c5.5,3.2,10.3,7.1,14.3,11.8l-1.4,2.4c-4.2-5-8.9-8.9-14.1-11.8L126.9,150.4z"/>
	<path class="st69" d="M202.9,150.4c-5.5,3.2-10.3,7.1-14.3,11.8l1.4,2.4c4.2-5,8.9-8.9,14.1-11.8L202.9,150.4z"/>
	<path class="st69" d="M154.6,130.6c0,0,4,7.2,12.7,7.2s10.1-7.7,10.1-7.7l2,1c0,0-2.2,9.2-11.8,9.2c-11,0-15.6-9.7-15.6-9.7H154.6z
		"/>
	<g>
		<g>
			<path class="st11" d="M164.6,171.5c4-2.7,6.7-5.4,8.3-8.2C171.3,166.1,168.6,168.8,164.6,171.5z"/>
			<path class="st11" d="M171.9,148.7c0.2,0.1,0.5,0.3,0.7,0.5C172.4,149,172.2,148.8,171.9,148.7z"/>
			<polygon class="st11" points="156.1,169.5 156.1,169.5 156.1,169.5 			"/>
			<path class="st11" d="M162.9,172.6C162.9,172.6,162.9,172.6,162.9,172.6c0.6-0.4,1.1-0.7,1.7-1.1
				C164,171.9,163.5,172.2,162.9,172.6C162.9,172.6,162.9,172.6,162.9,172.6z"/>
			<path class="st11" d="M173,149.5c0.2,0.2,0.4,0.4,0.6,0.7C173.4,149.9,173.2,149.7,173,149.5z"/>
		</g>
		<g>
			<path class="st11" d="M163,157.9c-0.1-0.3-0.2-0.5-0.3-0.8C162.8,157.3,162.9,157.6,163,157.9z"/>
			<path class="st11" d="M162.5,156.5c-0.1-0.2-0.1-0.4-0.2-0.6C162.3,156.1,162.4,156.3,162.5,156.5z"/>
			<path class="st11" d="M163.4,158.5c-0.1-0.2-0.2-0.3-0.2-0.5C163.2,158.2,163.3,158.4,163.4,158.5z"/>
			<path class="st11" d="M179,168.5c0.4-0.2,0.8-0.3,1.2-0.4c0,0,0,0,0,0C179.8,168.2,179.4,168.4,179,168.5z"/>
			<path class="st11" d="M165.1,166.3c1.1,1.1,2.5,2.1,4.1,3.1C167.6,168.4,166.2,167.4,165.1,166.3z"/>
			<path class="st11" d="M173.8,172C173.8,172,173.8,172,173.8,172c-1.7-0.8-3.3-1.7-4.7-2.5C170.5,170.3,172.1,171.1,173.8,172z"/>
			<path class="st11" d="M178.9,168.6c0,0,0.1,0,0.1-0.1C178.9,168.6,178.9,168.6,178.9,168.6z"/>
			<g>
				<path class="st11" d="M171.2,165.7c-0.2-0.1-0.4-0.2-0.6-0.3c-0.3-0.1-0.6-0.3-0.9-0.4c-0.6-0.3-1.2-0.7-1.8-1
					c-0.9,0.7-2,1.4-3.1,2.1c0.1,0.1,0.2,0.2,0.3,0.3c0.9,0.8,1.9,1.7,3.1,2.5C169.3,167.8,170.4,166.7,171.2,165.7z"/>
				<path class="st11" d="M178.4,168c-0.1,0-0.2,0-0.3-0.1c-0.6-0.1-1.2-0.2-1.9-0.4c-0.2,0-0.4-0.1-0.5-0.2
					c-0.9-0.2-1.8-0.5-2.7-0.9c-0.9,1.2-2,2.3-3.2,3.4c1.3,0.8,2.8,1.5,4.2,2.2c-0.1,0.1-0.1,0.1-0.2,0.2c2-1.8,4.2-3.2,6.4-4.1h0
					C179.7,168.1,179.1,168.1,178.4,168z"/>
				<path class="st11" d="M172.6,173.4c-1.6-0.8-3-1.6-4.3-2.4c-1.2,1-2.6,1.9-4.1,2.9l-0.1-0.1c1.5,1.3,3,2.9,4.6,4.9
					c1.3-2.3,2.7-4.1,4.2-5.7C172.8,173.2,172.7,173.3,172.6,173.4z"/>
				<path class="st11" d="M164.6,171.5c0.8-0.5,1.5-1,2.1-1.5c-1.3-0.9-2.5-1.9-3.6-3c-2.5,1.3-5.2,2.3-7,2.5h0
					c2.7,0.8,4.8,1.9,6.7,3.3l-0.1,0C163.3,172.3,164,171.9,164.6,171.5z"/>
			</g>
			<path class="st11" d="M178.9,168.6"/>
		</g>
		<g>
			<path class="st11" d="M165.4,159.9l-4.2-12.2c-1.1,0.3-2.2,0.6-3.1,0.9L165.4,159.9z"/>
			<g>
				<path class="st11" d="M162,154.6l3.4,5.3l-3-8.7C161.9,152.1,161.8,153.3,162,154.6z"/>
				<path class="st11" d="M165.6,161.8c0,0-1.1-1.5-1.2-1.5l-0.3-0.4c0.7,1.1,1.5,2.1,2.2,2.8L165.6,161.8z"/>
				<path class="st11" d="M150.7,152c3.4,5.9,5.7,11,5.6,15.6c1.5-0.3,3.6-1,5.6-2c-2.5-3-3.7-6.4-4-10.4c-0.1-1.4,0.1-2.7,0.6-3.9
					L157,149C154.9,149.8,152.8,150.8,150.7,152z"/>
				<path class="st11" d="M164.1,159.9l-4.3-6.6c-0.1,0.4-0.1,0.7-0.1,1.1c0,0.2,0,0.4,0,0.7c0,0.7,0.1,1.4,0.2,2.1
					c0.4,2.1,1.1,4,2.2,5.8c0.1,0.2,0.3,0.4,0.4,0.6c0.3,0.4,0.6,0.8,0.9,1.2c1.1-0.6,2.1-1.3,2.9-1.9l-0.1-0.1
					C165.6,161.9,164.8,161,164.1,159.9z"/>
			</g>
		</g>
		<g>
			<path class="st11" d="M166.4,146.9c-1.4,0.1-2.8,0.3-4,0.5l4.8,13.9"/>
			<g>
				<path class="st11" d="M167.2,161.4l0-0.5c-0.1-0.1-0.2-0.2-0.2-0.3L167.2,161.4z"/>
				<path class="st11" d="M166.6,150.4"/>
			</g>
		</g>
		<g>
			<path class="st11" d="M171.5,147c-1.4-0.1-2.8-0.2-4-0.1l0.8,14.4L171.5,147z"/>
			<path class="st11" d="M171,148.2c0.1,0,0.1,0.1,0.2,0.1l0.1-0.3l-0.8,0C170.7,148.1,170.8,148.1,171,148.2z"/>
		</g>
		<g>
			<path class="st11" d="M175.8,147.6c-1.1-0.2-2.1-0.4-3.2-0.5l-2.8,12.5L175.8,147.6z"/>
			<g>
				<path class="st11" d="M170.6,160.5c-0.4,0.8-0.9,1.5-1.4,2.1c0.9,0.6,2,1.1,3.1,1.6c0.2-0.3,0.4-0.6,0.6-0.9
					c1.7-2.8,2.3-5.8,2.1-9c0-0.2,0-0.4-0.1-0.7c-0.1-0.4-0.1-0.8-0.2-1.1l-3.8,7.6C170.9,160.1,170.8,160.3,170.6,160.5z"/>
				<path class="st11" d="M183.8,150.1c-2.3-1-4.6-1.7-6.8-2.3l-1.2,2.4c0.6,1.1,0.9,2.4,1,3.9c0.2,4-0.6,7.5-2.7,10.8
					c2.2,0.8,4.3,1.3,5.9,1.4C179.4,161.2,180.7,155.8,183.8,150.1z"/>
				<g>
					<path class="st11" d="M171.9,150.6l-2,8.9l2.8-5.7l0,0C172.7,152.6,172.5,151.5,171.9,150.6z"/>
					<path class="st11" d="M170.7,160.4c-0.9,1.5-1.9,2.8-2.8,3.6c-3.4,2.7-8.7,5.1-11.8,5.5c0,0,0,0,0,0c2.2,0.3,4.5,1.5,6.8,3.1
						c0,0,0,0,0,0c0.6-0.4,1.1-0.7,1.7-1.1c4-2.7,6.7-5.4,8.3-8.2c1.7-2.8,2.3-5.8,2.1-9c0-0.2,0-0.4-0.1-0.7
						c-0.1-0.4-0.1-0.8-0.2-1.1l-3.8,7.6C170.9,160.1,170.8,160.2,170.7,160.4z"/>
				</g>
			</g>
		</g>
	</g>
	<path class="st83" d="M153.2,131"/>
</g>
<g>
	<path class="st23" d="M38.5,133.3c0,0-0.4,4.4-0.1,5.9c0.3,1.5,6.1,2.3,6.1,2.3L44.1,158l-24.3-0.2l-1.8-9.7c0,0,8.5-7.3,8.9-9.1
		s0.8-6.7,0.8-6.7L38.5,133.3z"/>
	<path class="st21" d="M42.6,141.2c-1.5,2-4.1,4.7-8.4,6.3c-7.2,2.7-16.1,0.5-16.1,0.5l1.8,9.7l24.3,0.2l0.4-16.4
		C44.6,141.6,43.7,141.5,42.6,141.2z"/>
	<path class="st84" d="M27.1,138c0,0,1.9,0.9,5.3,1c3.3,0.1,6.6-0.7,6.6-0.7l0.9,1.1c0,0-3.3,1.4-7.1,1.2C28,140.3,26,139,26,139
		L27.1,138z"/>
	<path class="st20" d="M31.2,186.3c7.1-0.1,11.5-0.3,11.5-0.3s0.2-2.2,0.5-4.4c0.3-2.1,1-7.7,1-7.7l-27.3,1.3c0,0,0.6,2.8,0.8,4.9
		c0.2,2.1,0.5,4.5,0.5,4.5S24.6,186.4,31.2,186.3z"/>
	<path class="st20" d="M84.5,166.5c0,0.1-1.3,4.5-1.6,5.1c-1.5,2.6-9.8,4.4-10.7,5.2c-0.8,0.8-5.7,5.5-8.1,7.2
		c-3.2,2.2-6.6,4.7-9.5,5.9c-3.3,1.4-7.8,4.2-9.2,3.7c-1.4-0.5-3.3-5.6-2.8-7.2c0.4-1.5,0.4-41.6,3.3-44.3c1.8-1.7,6.2,1.4,6.5,2.8
		c1.5,7,0.5,14.5-0.2,19.3c-0.4,2.7-2.7,15.7-2.7,15.7s7-1,9.5-2.2c2.5-1.2,9.7-2.5,10.9-3.8c1.2-1.3,2.2-6.2,2.9-7.5
		c2.1-3.5,7.3-5.6,8.5-5.9c1.2-0.2,2,0.9,3.4,0.8C85.7,161.3,84.6,165.2,84.5,166.5z"/>
	<line class="st41" x1="43.3" y1="177.3" x2="42.2" y2="184.8"/>
	<path class="st85" d="M17.6,142c0,0,1,5.5,1.6,7.9c0.7,2.4,1.8,3.5,4.2,4.2c2.3,0.7,15.7-0.2,18.2-2.2c1.1-0.9,2-7.3,1.3-10.3
		l3.1,0.5c0,0-0.3,5.7,0.2,11s1.3,7,1,10.1c-0.3,3.1-3,11.6-3.1,12.6s-2.3,4.7-12.6,4.4s-14.1-3.1-14.4-4.1s-1.3-16.3-1-18.4
		c0.3-2.1,0.4-3.3,0.1-7.8s-0.8-7.4-0.8-7.4L17.6,142z"/>
	<path class="st86" d="M27.8,133.6c0,0,0.9,4.3-0.8,7.3c-1.7,2.9-5,3.8-5.1,5.8s2.3,3.9,2.3,4.4s-5.1,1-6.6-1.6
		c-1.7-2.8-1.8-5.9,0.1-7.4l-2.4,0.6l-6.5,19.9c0,0-8.5-4.1-8.8-7.8s4.8-7.5,5.1-12.2s-2.3-5.6-1.8-8.4s5.4-8.8,5.9-12.1
		s0.8-16.1,4.9-21.7s11.2-7.1,12.8-7.9c2.1-1,3.7-3.1,3.9-3.7c0.2-0.6-2.4-2-2.6-3.5c-0.2-1.5,2.1-4.6,5.4-6.2
		c3.4-1.7,8.8-1.8,9.7,0.6c1.8,5-5.6,8.1-5.6,8.8s1.8,3,3.6,3.5s5.2-0.3,7.8,2.1c2.6,2.4,4.3,13.5,6.2,16.6
		c1.9,3.1,7.9,6.3,8.9,10.8c0.9,4.5-3.2,11.5-3.2,14.6c-0.1,3.1,2,6.4,1.8,9c-0.2,2.6-3.5,8.7-4.1,11.6c-0.6,2.9-6.3,4.1-6.3,4.1
		s1.5-13.9-1.5-17.1c-1-1.1-4.6-1.5-4.6-1.5s-6.5-0.9-7.5-2.4s-0.3-6.4-0.3-6.4l-5.2-2.3L27.8,133.6z"/>
	<path class="st21" d="M46.4,125.6c0,0-1.5,4.6-4.4,6.1c-6.2,3.3-12.1,2.8-15.2,1.4c-4.9-2.1-9.6-7.4-7.9-15.1c0,0,1.3-4.9,3.6-8.3
		c2-2.9,4-5.1,4-9c0,0,3.8,3.1,8.8,2.6c4.9-0.4,5.6-1.9,6.3-3.1c0,0,5.1,3.7,5.8,6.5s-0.4,5.1-0.1,10.6
		C47.5,121.9,45.9,122.6,46.4,125.6z"/>
	<path class="st20" d="M27.1,132.4c-2.4-1.5-7.3-5.7-7.3-12c0-6.3,3-12.2,8-14.3c4.6-2,13.9-1.2,19,1.7c0.3,2.5,0.3,5,0.6,9.9
		c0.3,4.6,1.4,11.1-5.8,14C40.6,132,31.5,135.1,27.1,132.4z"/>
	<path class="st87" d="M45.5,113.7c1.4,0-4.3-0.4-5.4,0.7"/>
	<circle class="st88" cx="41.8" cy="115.8" r="2"/>
	<path class="st89" d="M22.4,113.3c0,0,4.4,0,5.2,1"/>
	<circle class="st88" cx="26.1" cy="115.7" r="2"/>
	<path class="st90" d="M46.6,111.2c0,0-3.1-1.2-6.3-1.2"/>
	<path class="st90" d="M28,109.9c-2.5,0.1-6,0.4-6,0.4"/>
	<path class="st91" d="M34.7,113.2c0,0-0.7,2.8,0.1,4.1s2.2,0.6,2.2,2.1c0,0.5-0.9,2.3-3,2.2c-2.2-0.1-2.1-1-2.1-1"/>
	<path class="st91" d="M35.7,126.2c0,0-1.2,0.7-3,0.7c-2.6-0.1-3.7-2.3-3.7-2.3"/>
	<line class="st92" x1="32.8" y1="139.8" x2="32.8" y2="142.1"/>
	<circle class="st93" cx="32.8" cy="142.8" r="1.6"/>
	<path class="st20" d="M15.2,142.7c0,0,1,4.2,1.2,6.2c0.2,2-0.4,7.7-0.4,7.7c0,0.1,1.1,16.7,1.1,20c-0.1,6.5-1.2,15.1-1.2,15.1
		s-7.4,17.2-7.4,17.1c-0.4-3.7-2.7-20.1-0.2-25.5c0.6-1.3,0.5-14,0.8-17.7c0.5-6.3-0.7-19.8,1.8-22
		C12.7,142.1,15.2,142.7,15.2,142.7z"/>
	<path class="st94" d="M18.1,184.4c0,0,8.2,1.7,12.3,1.7s12.3-1.3,12.3-1.3s0.1,3,0.7,4.9c0.6,1.9,9.5,12.3,9.3,20.5
		c-0.3,11.7-11.1,55.9-13.1,57.9c-2.6,2.6-8.3-20-8.4-20.9s0-23.9-0.6-24.9s0.4-7.4,0.6-6.9c0.1,0.3,5.6,26.4,6.9,37.8
		c0.3,2.7,0.3,8.9,0.5,9.1c0.8,1.2,1.2,3.5,1.4,4.4s-0.1,3.2,0.1,4c0.2,0.7,1,1.3,1.3,2.4s-0.3,2,0,3c0.3,1,5.5,24.1,5.5,25.9
		c0.1,1.8,0.2,3.4,0,3.9c-0.3,0.5-3.1,2.1-4.5,2.5s-6,0.9-6.7,0.2c-0.7-0.7-5.9-14.4-6.5-16.8s-1.1-4.8-1.4-5.9s-2.5-7.3-2.8-7.8
		c-0.2-0.5-1.4-0.3-1.6-1.1c-0.2-0.8,0-1.8-0.3-3c-0.3-1.2-1.9-2.1-2.1-3c-0.2-0.8,0.7-2.6,0.6-3.2s-1.5-2.2-1.6-3.1
		c-0.1-0.9-0.7-4.3-0.9-4.8c-0.1-0.5-11.5-41.3-11.6-43.6c-0.3-6.3,2.5-13.9,4-17s5.3-9.8,5.8-10.5S18.1,184.4,18.1,184.4z"/>
	<path class="st94" d="M46.4,226.4c-0.4,0.3-10.1,37.7-9.9,39.2c0.2,1.5,1.2,2.3,1,3.2s-1.5,2.9-1.7,3.6s0.3,1.6,0,2.7
		c-0.2,1.1-1.1,1.7-1.4,2.6c-0.2,1-6.1,24-6.8,25.6c-0.7,1.6-1.3,3.2-1.8,3.4c-0.4,0.3-3.7,0.5-5.2,0.1c-1.5-0.3-5.7-1.9-6-2.9
		c-0.3-1,0.4-15.1,0.9-17.5c0.5-2.4,0.1-6.3,0.4-7.4c0.2-1.1,1.7-3.2,1.7-3.8c0-0.5-1.1-0.9-0.9-1.7c0.2-0.9,0.9-1.6,1.1-2.8
		c0.3-1.2,0.1-1.5,0.3-2.3c0.2-0.9,1.4-2,1.5-2.6c0.1-0.6,0.7-2.5,1-3.4s2.9-6.5,3-7s0.3-33.6,0.8-36
		C25.6,213.4,46.4,226.4,46.4,226.4z"/>
	<path class="st21" d="M45.7,309c0,0,1.2,6.5,1.6,7.6c0.4,1.1,1.2,2.7,1.4,3.7s3.4,10.4,3.1,12.4c-0.1,0.8,0.4,3.7-3.5,4.3
		c-3.9,0.6-9.1,0.1-9.9-0.9c-0.8-1,0.5-3.9,1.2-5.1c0.9-1.6,2.1-4.2,2-5.3c-0.1-1.1-0.3-4.7-1.7-8c-1.4-3.3-3.2-6.1-3.2-6.1
		L45.7,309z"/>
	<path class="st95" d="M34.9,309.1l-0.9,0.6c0,0,0.2,2.3,0.7,2.9s2.7,1,3.5,0.8c0.8-0.2,6.9-3,7.5-3.1c0.6-0.2,2.5-0.7,2.8-1
		c0.4-0.3-0.1-1.3-0.3-2.1s-0.6-2.2-1-1.8c-0.5,0.4-3.4,2.1-5.6,2.9C39.3,309.1,34.9,309.1,34.9,309.1z"/>
	<g>
		<path class="st21" d="M28.4,332.8c0,0-1.9,1-6.1,1.3c-4.2,0.2-6.4-1.1-6.4-1.1s2.5-7.1,2.5-9.4c0-2.3-1-15.2-1-15.2l7.9,0.7
			c0,0-0.8,8.6-0.1,12.2C25.8,324.8,29.2,331.1,28.4,332.8z"/>
		<path class="st93" d="M25.2,313.9c0,0-2.3,0.4-3.8,0.5c-1.5,0-4.2-0.3-4.2-0.3l0.3,2.5c0,0,2.3,0.6,3.8,0.5
			c1.4-0.1,3.9-0.5,3.9-0.5L25.2,313.9z"/>
		<path class="st93" d="M27.4,326.6c0,0-2.7-0.5-4.8-0.5c-2.1,0.1-5.6,0.8-5.6,0.8l-0.9,2.6c0,0,4-0.7,6.2-0.6
			c2.2,0.1,6.4,0.7,6.4,0.7L27.4,326.6z"/>
		<path class="st85" d="M29.1,332.1l0,3.6c0,0-0.6,2.7-6.6,3c-6,0.3-7.3-2.3-7.3-2.3l0.4-3.8c0,0,2.2,1.6,6.6,1.3
			C26.6,333.6,29.1,332.1,29.1,332.1z"/>
	</g>
	<path class="st95" d="M15.7,304.3c-1.2,0.3-1.8-0.2-2.1,0.3c-0.3,0.5-0.5,2.3-0.4,2.8c0.1,0.5,5.9,2.4,7.9,2.5
		c2,0.1,5.7-0.1,6.1-0.3c0.4-0.2,0.7-1.2,0.8-1.9c0.1-0.7,0.6-2.3-0.2-2.3c-0.8,0-4.5,1.1-6.3,0.6C19.9,305.4,15.7,304.3,15.7,304.3
		z"/>
	<path class="st85" d="M38.2,336.2l0.6,5.2c0,0,4.1,0.7,8,0.3c3.6-0.4,5.6-2.5,5.8-3c0.1-0.5-0.5-7-0.5-7s-0.1,3.8-2.6,4.9
		c-2.5,1.1-6.4,0.6-8.4,0.3C39.1,336.6,38.2,336.2,38.2,336.2z"/>
	<path class="st93" d="M39,331.6c0,0,6.5-0.2,8.2,0.7c1.7,0.9,2.8,2.3,2.8,2.3s1.4-1.1,1.7-2c0.3-0.9-0.2-2.2-0.2-2.2
		s-1.9-1.2-4.6-1.6s-6.4-0.2-6.4-0.2L39,331.6z"/>
	<path class="st93" d="M39,316.5c0,0,3.1,0,4.7-0.4c1.6-0.4,3.3-1.2,3.3-1.2l0.7,1.7c0,0-1,1.4-3.4,2c-2.4,0.6-4.8,0.5-4.8,0.5
		L39,316.5z"/>
	<path class="st20" d="M25.1,262.5c0.6,0,6.4-0.8,7.9-0.8c1.5,0,1.5,0.7,1.6,1.4s0.3,1.5,1.1,1.6c0.8,0.1,1,0.4,1.1,1.1
		c0.1,0.7,0.5,1.7,0.2,2.1s-2.7,2.3-5.1,2.5c-2.4,0.2-6.2,0.8-6.5,0.2c-0.3-0.5,0.1-0.5,0.7-1.4c0.6-0.9,0.5-2,0.5-2
		s-1.2-0.2-1.4-0.6c-0.2-0.4,0.8-1.6,0.8-2.2s-1.2-1.9-1.2-1.9H25.1z"/>
	<path class="st94" d="M30,88.1c0,0,3.8,1,5.1,0.8s3.2-1,3.2-1l0.4,1.5c0,0-1.1,0.8-3.8,1.2c-3.3,0.5-5.4-0.8-5.4-0.8l0.3-1.2
		L30,88.1z"/>
	<path class="st96" d="M17.9,188.2c0,0,6.4,3.5,9.3,3.9"/>
	<path class="st96" d="M32.7,192.6c0,0,5.8-0.3,7-0.8c2-0.8,2.6-1.4,2.6-1.4"/>
	<line class="st96" x1="30.6" y1="187" x2="30.8" y2="210.6"/>
	<path class="st96" d="M33.7,186.3c0,0,1.4,2.3,1.4,3.4s0.1,2.4,0.1,2.4"/>
	<path class="st96" d="M35.2,186.5c0,0,0.6,1,1,2.3s0.4,2.9,0.4,2.9"/>
	<path class="st96" d="M25.9,186.6c0,0-1,1-1,2s-0.1,2.5-0.1,2.5"/>
	<path class="st96" d="M23.9,186.1c0,0-0.6,1-0.6,1.8s-0.1,2.6-0.1,2.6"/>
	<path class="st96" d="M38.6,192.6c0,0,1.5,4.1,3.8,6s7,4.1,7,4.1"/>
	<path class="st96" d="M22.7,191.2c0,0-4.1,5.8-5.9,7.1s-4,2.3-4,2.3"/>
	<path class="st96" d="M34.3,193.2c0,0.8,1,8.8,1.3,10.4s0.4,2.6,0.1,4.1s-3,4-3,4"/>
	<path class="st96" d="M30.9,214.5c0,0-6.6-5-8.6-5.5"/>
	<path class="st96" d="M32.6,215.1c0,0,0.1-1.2,1.7-2.6s2-1,2-1"/>
	<circle class="st96" cx="32.4" cy="189.6" r="1.1"/>
	<circle class="st11" cx="42.9" cy="114.8" r="0.7"/>
	<circle class="st11" cx="27.2" cy="114.8" r="0.7"/>
	<path class="st96" d="M31.3,216.3c0,0,6,22.8,6.3,25.6s0.4,10.4,0.4,11s0.8,2.9,0.9,4.1s-0.3,3.4-0.3,3.4s1,1.8,1.1,2.9
		s-0.1,3.1-0.1,3.5s0.9,2.1,0.9,2.1l-0.1,2.6"/>
	<path class="st96" d="M18.6,257.5c0.5,2.1,2.1,5.6,2.6,6.5s0.5,2.6,0.5,3.3s1.4,3.3,1.6,3.9s0.5,2.9,0.5,2.9l1.1,4.3l0.8,4.4
		c0,0,1,3.4,1.9,5.9s3.3,8.8,3.3,8.8"/>
	<path class="st97" d="M74.6,170.6c0,0,2.5-0.8,3.1-2.1s0.3-3,1.3-3.8s3.6-1.8,3.8-2.5s-0.6-1.3-0.6-1.3"/>
	<path class="st97" d="M80.3,172.5c-0.6-0.1-1.4-1.4-1.4-1.4l1.8-1.1l-1.3-1.4l3.8-1.6l0.3-0.6l-3.1,0.5c0,0,0-0.5,0.1-1
		s2.3-2.1,2.3-2.1"/>
	<g>
		<g>
			<path class="st11" d="M30.1,171.4c2.3-1.3,3.8-2.7,4.8-4.2C33.9,168.7,32.3,170.1,30.1,171.4z"/>
			<path class="st11" d="M34.9,159.3c0.1,0.1,0.2,0.2,0.4,0.3C35.1,159.5,35,159.4,34.9,159.3z"/>
			<polygon class="st11" points="25.6,170 25.6,170 25.6,170 			"/>
			<path class="st11" d="M29.1,171.9C29.1,171.9,29.1,171.9,29.1,171.9c0.3-0.2,0.6-0.3,0.9-0.5C29.8,171.6,29.5,171.8,29.1,171.9
				C29.1,171.9,29.1,171.9,29.1,171.9z"/>
			<path class="st11" d="M35.4,159.8c0.1,0.1,0.2,0.2,0.3,0.4C35.6,160,35.5,159.9,35.4,159.8z"/>
		</g>
		<g>
			<path class="st11" d="M29.7,164c-0.1-0.1-0.1-0.3-0.2-0.4C29.6,163.7,29.7,163.8,29.7,164z"/>
			<path class="st11" d="M29.5,163.2c0-0.1-0.1-0.2-0.1-0.3C29.4,163,29.4,163.1,29.5,163.2z"/>
			<path class="st11" d="M29.9,164.3c0-0.1-0.1-0.2-0.1-0.3C29.8,164.2,29.8,164.3,29.9,164.3z"/>
			<path class="st11" d="M38,170.3c0.2-0.1,0.4-0.1,0.7-0.2c0,0,0,0,0,0C38.4,170.2,38.2,170.2,38,170.3z"/>
			<path class="st11" d="M30.5,168.6c0.6,0.6,1.3,1.2,2.1,1.8C31.8,169.9,31.1,169.3,30.5,168.6z"/>
			<path class="st11" d="M35.1,172C35.1,172,35.1,172,35.1,172c-0.9-0.5-1.7-1-2.4-1.5C33.3,171,34.1,171.5,35.1,172z"/>
			<path class="st11" d="M37.9,170.3C37.9,170.3,38,170.3,37.9,170.3C38,170.3,37.9,170.3,37.9,170.3z"/>
			<g>
				<path class="st11" d="M33.9,168.5c-0.1-0.1-0.2-0.1-0.3-0.2c-0.2-0.1-0.3-0.2-0.5-0.3c-0.3-0.2-0.6-0.4-0.9-0.6
					c-0.5,0.4-1.1,0.7-1.7,1c0,0,0.1,0.1,0.1,0.1c0.5,0.5,1,1,1.6,1.4C32.8,169.6,33.4,169,33.9,168.5z"/>
				<path class="st11" d="M37.7,170c-0.1,0-0.1,0-0.2,0c-0.3-0.1-0.7-0.2-1-0.3c-0.1,0-0.2-0.1-0.3-0.1c-0.5-0.2-0.9-0.4-1.4-0.6
					c-0.5,0.6-1.1,1.2-1.9,1.7c0.7,0.5,1.4,0.9,2.2,1.4c0,0-0.1,0.1-0.1,0.1c1.2-0.9,2.4-1.6,3.6-2h0C38.4,170.1,38,170.1,37.7,170z
					"/>
				<path class="st11" d="M34.4,172.7c-0.8-0.5-1.6-0.9-2.3-1.4c-0.7,0.5-1.5,1-2.3,1.4l0,0c0.8,0.8,1.5,1.7,2.3,2.8
					c0.8-1.2,1.6-2.1,2.5-2.9C34.5,172.6,34.4,172.7,34.4,172.7z"/>
				<path class="st11" d="M30.1,171.4c0.4-0.2,0.8-0.5,1.2-0.8c-0.7-0.6-1.3-1.1-1.8-1.7c-1.4,0.6-2.9,1-3.9,1.1h0
					c1.4,0.5,2.5,1.2,3.5,2l0,0C29.4,171.8,29.8,171.6,30.1,171.4z"/>
			</g>
			<path class="st11" d="M37.9,170.3"/>
		</g>
		<g>
			<path class="st11" d="M31,165.1l-1.8-6.7c-0.6,0.1-1.2,0.2-1.7,0.4L31,165.1z"/>
			<g>
				<path class="st11" d="M29.3,162.2l1.7,3l-1.3-4.8C29.3,160.8,29.2,161.5,29.3,162.2z"/>
				<path class="st11" d="M31,166.2c0,0-0.6-0.8-0.6-0.9l-0.1-0.2c0.3,0.6,0.7,1.2,1.1,1.6L31,166.2z"/>
				<path class="st11" d="M23.2,160.4c1.6,3.3,2.7,6.1,2.5,8.7c0.8-0.1,2-0.4,3.1-0.9c-1.2-1.7-1.8-3.6-1.8-5.8
					c0-0.8,0.2-1.5,0.4-2.1l-0.7-1.3C25.6,159.3,24.4,159.8,23.2,160.4z"/>
				<path class="st11" d="M30.3,165.1l-2.1-3.7c0,0.2-0.1,0.4-0.1,0.6c0,0.1,0,0.2,0,0.4c0,0.4,0,0.8,0.1,1.1c0.1,1.1,0.4,2.2,1,3.2
					c0.1,0.1,0.1,0.2,0.2,0.3c0.1,0.2,0.3,0.4,0.5,0.7c0.6-0.3,1.2-0.6,1.7-0.9l0-0.1C31,166.3,30.6,165.7,30.3,165.1z"/>
			</g>
		</g>
		<g>
			<path class="st11" d="M31.9,158.2c-0.8,0-1.5,0.1-2.2,0.2l2.1,7.7"/>
			<g>
				<path class="st11" d="M31.8,166l0-0.3c0,0-0.1-0.1-0.1-0.1L31.8,166z"/>
				<path class="st11" d="M31.9,160.1"/>
			</g>
		</g>
		<g>
			<path class="st11" d="M34.7,158.4c-0.8-0.1-1.5-0.2-2.2-0.2l-0.1,7.8L34.7,158.4z"/>
			<path class="st11" d="M34.4,159c0,0,0.1,0,0.1,0.1l0.1-0.2l-0.4,0C34.2,159,34.3,159,34.4,159z"/>
		</g>
		<g>
			<path class="st11" d="M37,158.9c-0.6-0.2-1.1-0.3-1.7-0.4l-2,6.6L37,158.9z"/>
			<g>
				<path class="st11" d="M33.7,165.7c-0.3,0.4-0.6,0.8-0.8,1.1c0.5,0.3,1,0.7,1.6,1c0.1-0.2,0.2-0.3,0.4-0.5c1-1.5,1.4-3.1,1.4-4.8
					c0-0.1,0-0.2,0-0.4c0-0.2,0-0.4-0.1-0.6l-2.3,4C33.9,165.4,33.8,165.6,33.7,165.7z"/>
				<path class="st11" d="M41.2,160.5c-1.2-0.6-2.4-1.1-3.6-1.5l-0.7,1.3c0.3,0.6,0.4,1.3,0.4,2.1c0,2.2-0.6,4.1-1.9,5.7
					c1.1,0.5,2.3,0.9,3.1,1C38.4,166.4,39.4,163.5,41.2,160.5z"/>
				<g>
					<path class="st11" d="M34.8,160.4l-1.4,4.8l1.7-3l0,0C35.2,161.5,35.1,160.9,34.8,160.4z"/>
					<path class="st11" d="M33.8,165.6c-0.5,0.8-1.1,1.5-1.6,1.8c-1.9,1.3-4.9,2.5-6.6,2.6c0,0,0,0,0,0c1.2,0.2,2.4,1,3.6,1.9
						c0,0,0,0,0,0c0.3-0.2,0.6-0.3,0.9-0.5c2.3-1.3,3.8-2.7,4.8-4.2c1-1.5,1.4-3.1,1.4-4.8c0-0.1,0-0.2,0-0.4c0-0.2,0-0.4-0.1-0.6
						l-2.3,4C33.9,165.4,33.8,165.5,33.8,165.6z"/>
				</g>
			</g>
		</g>
	</g>
	<line class="st41" x1="62.1" y1="177.3" x2="62.7" y2="184.7"/>
</g>
<polygon class="st9" points="89.5,181.5 64,189.4 63.2,170.3 85.8,149.1 "/>
</svg>
