<?xml version="1.0" encoding="utf-8"?>
<!-- Generator: Adobe Illustrator 22.0.1, SVG Export Plug-In . SVG Version: 6.00 Build 0)  -->
<svg version="1.1" id="Layer_1" xmlns="http://www.w3.org/2000/svg" xmlns:xlink="http://www.w3.org/1999/xlink" x="0px" y="0px"
	 viewBox="0 0 1919.7 1898.4" style="enable-background:new 0 0 1919.7 1898.4;" xml:space="preserve">
<style type="text/css">
	.st0{clip-path:url(#SVGID_2_);}
	.st1{fill:url(#SVGID_3_);}
	.st2{fill:url(#SVGID_4_);}
	.st3{fill:url(#SVGID_5_);}
	.st4{fill:url(#SVGID_6_);}
	.st5{fill:url(#SVGID_7_);}
	.st6{fill:url(#SVGID_8_);}
	.st7{fill:url(#SVGID_9_);}
	.st8{fill:url(#SVGID_10_);}
	.st9{fill:url(#SVGID_11_);}
	.st10{fill:url(#SVGID_12_);}
</style>
<g>
	<defs>
		<rect id="SVGID_1_" x="0.3" y="0.1" width="1919" height="1898"/>
	</defs>
	<clipPath id="SVGID_2_">
		<use xlink:href="#SVGID_1_"  style="overflow:visible;"/>
	</clipPath>
	<g class="st0">
		<g>
			
				<linearGradient id="SVGID_3_" gradientUnits="userSpaceOnUse" x1="748.5545" y1="-1503.0961" x2="921.1085" y2="-471.976" gradientTransform="matrix(-0.9993 -3.847029e-02 3.847029e-02 -0.9993 1920.3718 -526.637)">
				<stop  offset="0" style="stop-color:#00A99D"/>
				<stop  offset="1" style="stop-color:#D9E021"/>
			</linearGradient>
			<path class="st1" d="M499,676.7c40.4,3.5,80.4-13.5,106.2-45.4c21.3-26.2,19-101.6,41.7-114.8c13.1-7.6,29.5,1.2,40.5,11.7
				c18.7,17.8,35.6,29.2,60.6,35.9c25.1,6.6,58.1-3.8,80.4,10.8c28.2,18.4,27.4,80.3,41.5,110.1c17.9,37.8,45.1,70.7,78.4,95.4
				c67.8,50.4,143.6,56.6,222.4,37.7c64.7-15.5,80,70.5,145.4,74.8c55.1,3.6,104.4-38.7,110-94.5c4.2-41.4-15.6-79.3-47.6-99.9
				c-25.5-16.4-38.7-47.1-33.1-77.2c0.1-0.5,0.2-0.9,0.3-1.4c14.1-79.2,167.9-95.3,208.8-36.1c19.9,28.9,54.2,46.9,92.8,43.2
				c46.5-4.5,84.5-42.1,90.3-89.2c5.9-48-20.7-90-59.8-107.4c-28.6-12.7-45.8-42.1-44.5-73.8c4.6-110.8-79.9-212-197.1-216.6
				c-90.7-3.5-170,53.4-200.1,135.3c-13.2,35.8-49.5,56.1-86.3,48.3c-42.7-9.1-86.7-6.5-128.3,6.6c-34.5,10.9-64.2,31.9-100.1,10.1
				c-15-9.1-26.2-23.3-39.4-34.9c-58.9-52.1-151.8-46.3-204.1,12.5c-10,11.2-24.8,16.8-39.4,13.7c-89-18.7-82.1,75.1-143.3,95
				c-62.6,20.4-113.5,58-108.7,133.7C390.4,621.5,438.8,671.5,499,676.7z"/>
		</g>
		<g>
			<linearGradient id="SVGID_4_" gradientUnits="userSpaceOnUse" x1="1523.3011" y1="1518.9064" x2="2307.3657" y2="1518.9064">
				<stop  offset="0" style="stop-color:#FCEE21"/>
				<stop  offset="0.1142" style="stop-color:#FBDC20"/>
				<stop  offset="0.3551" style="stop-color:#F9BC1F"/>
				<stop  offset="0.5882" style="stop-color:#F8A61F"/>
				<stop  offset="0.8078" style="stop-color:#F7981E"/>
				<stop  offset="1" style="stop-color:#F7931E"/>
			</linearGradient>
			<path class="st2" d="M2229.8,1433.3c-23.8,5.3-48.6-2.6-63.5-21.9c-30.6-39.9-78-66.6-132.1-69c-79.4-3.6-148.8,45.7-174.3,116.8
				c-3.7,10.2-13.2,17.3-24.1,17.6c-0.2,0-0.3,0-0.5,0c-13.1,0.4-24.8-8.7-26.6-21.7c-7.1-50.9-49.7-91.3-103.1-93.8
				c-63.8-2.9-112.4,47.9-114.2,105.8c-0.7,21.8-13.4,40.9-32.9,50.7c-20,10-34.2,30.3-35.1,54.3c-1.3,34.1,25.8,63.8,59.9,65.6
				c24,1.3,45.5-11,57.3-30c11.3-18.3,31-29.9,52.5-28.4c0.4,0,0.7,0,1.1,0.1c22.1,1.3,41.6,15.1,49.6,35.7
				c20.7,53.5,85.5,79.9,138,54.6c18.1-8.7,39.3-7.1,56.7,2.9c89.1,51.5,205.3,13.6,247.9-78.4c10-21.7,31.6-36.3,55.5-35.6
				c32.3,1,63.8-23,65.5-60.4C2309.4,1452.3,2267.1,1425.1,2229.8,1433.3z"/>
		</g>
		<g>
			
				<linearGradient id="SVGID_5_" gradientUnits="userSpaceOnUse" x1="1841.8654" y1="144.3699" x2="2284.7175" y2="1297.7322" gradientTransform="matrix(0.9799 -0.1994 0.1994 0.9799 -564.204 392.0192)">
				<stop  offset="0" style="stop-color:#FCEE21"/>
				<stop  offset="0.1142" style="stop-color:#FBDC20"/>
				<stop  offset="0.3551" style="stop-color:#F9BC1F"/>
				<stop  offset="0.5882" style="stop-color:#F8A61F"/>
				<stop  offset="0.8078" style="stop-color:#F7981E"/>
				<stop  offset="1" style="stop-color:#F7931E"/>
			</linearGradient>
			<path class="st3" d="M1952.4,110c-40.1,20-87.7,17.2-122.9-10.6C1757.2,42,1661,15.8,1563.4,35.6c-142.9,29.1-244.4,148-258,286
				c-1.9,19.8-15.8,36.8-35,42.1c-0.3,0.1-0.5,0.1-0.8,0.2c-23.2,6.5-48.1-4.4-57.2-26.7C1177,249.7,1083.2,196.8,987,216.4
				C872.2,239.8,808.5,352,831.2,455.8c8.5,39.1-5.5,78.9-36,104.9c-31.1,26.7-47.3,69.2-38.1,112.4c13,61.3,74.4,102,135.9,90
				c43.2-8.5,76.1-39.9,88.5-79c11.9-37.6,41.9-67.1,80.7-74c0.7-0.1,1.3-0.2,2-0.4c39.9-7.5,80.9,8.2,104.3,41.3
				c60.9,86,188,103.9,270.1,35.4c28.3-23.6,66.8-30.3,102.2-20.2c181.6,51.7,371.6-67.8,406.2-250.6c8.1-43,40-78.8,82.8-88.2
				c57.8-12.7,103.3-69.5,89.6-136.8C2102.5,108,2015,78.6,1952.4,110z"/>
		</g>
		<g>
			
				<linearGradient id="SVGID_6_" gradientUnits="userSpaceOnUse" x1="641.1713" y1="-72.3372" x2="1000.5951" y2="863.7449" gradientTransform="matrix(0.7656 0.6434 -0.6434 0.7656 -624.5298 277.8446)">
				<stop  offset="0" style="stop-color:#4D85F7"/>
				<stop  offset="1" style="stop-color:#8EF5FB"/>
			</linearGradient>
			<path class="st4" d="M293.3,1040.7c-33-15.3-55.2-47.1-55.3-83.4c-0.1-74.9-32-149.3-93.8-201.3c-90.6-76.1-217.5-80.7-312-19.7
				c-13.6,8.8-31.3,8.5-44.4-1c-0.2-0.1-0.4-0.3-0.5-0.4c-15.9-11.5-21.5-32.8-11.8-49.8c37.6-66.7,23.9-153-37.1-204.3
				c-72.8-61.2-176.3-45-230.8,21.8c-20.6,25.2-52.9,36.3-84.8,30.1c-32.7-6.3-67.8,4.9-90.7,32.5c-32.5,39.2-27.3,98.8,11.4,131.8
				c27.2,23.2,63.8,28.2,94.9,16.3c29.9-11.4,63.8-7.2,87.7,13.9c0.4,0.4,0.8,0.7,1.2,1.1c24.9,21.6,35.6,55.5,26.4,87.2
				c-23.9,82.1,28.8,171.9,113.9,189.5c29.3,6.1,53,27.1,64.4,54.7c58.8,141.5,230.6,202,364.3,131.7c31.5-16.6,70.3-14.3,97.9,8.1
				c37.3,30.3,96.3,30.6,132.2-12.1C370.3,1135.1,344.8,1064.6,293.3,1040.7z"/>
		</g>
		<g>
			
				<linearGradient id="SVGID_7_" gradientUnits="userSpaceOnUse" x1="644.1884" y1="-606.2653" x2="1009.5673" y2="345.3261" gradientTransform="matrix(-0.6301 -0.7068 0.7482 -0.667 2147.9819 686.9884)">
				<stop  offset="0" style="stop-color:#4D85F7"/>
				<stop  offset="1" style="stop-color:#8EF5FB"/>
			</linearGradient>
			<path class="st5" d="M984.8,194.7c29.7,18.8,46.1,52.5,39.9,88.2c-12.7,73.5,5.9,150.2,57.7,208.2
				c75.8,85,199.3,103.9,302.3,54.8c14.8-7,32.2-4.8,43.3,6c0.2,0.2,0.3,0.3,0.5,0.5c13.6,13.1,15.5,34.6,3.1,50.2
				c-48.2,61.2-49.5,147.4,1.6,204.7c60.9,68.3,165.1,64.2,229.8,4.9c24.4-22.4,58-29.6,88.2-19.9c30.9,9.9,67.3,2.9,94.3-21.5
				c38.5-34.8,43.5-93.9,11.2-130.7c-22.7-25.9-57.7-34.9-90.2-26.8c-31.2,7.8-63.7-0.2-83.6-23.7c-0.3-0.4-0.7-0.8-1-1.2
				c-20.7-24-25.4-58.5-11-88.5c37.4-77.9,1-172-79.3-198.9c-27.7-9.3-47.3-32.7-53.8-61.1c-33.5-145.6-191.6-224.4-334.5-170.7
				c-33.6,12.7-71.3,6.1-94.5-19.1c-31.4-34-89.1-41-131.5-3.1C925.4,93.2,938.4,165.3,984.8,194.7z"/>
		</g>
		<g>
			
				<linearGradient id="SVGID_8_" gradientUnits="userSpaceOnUse" x1="1268.0668" y1="-5.6142" x2="1574.406" y2="-5.6142" gradientTransform="matrix(0.9956 9.421744e-02 -9.421744e-02 0.9956 -22.1799 -90.5637)">
				<stop  offset="0" style="stop-color:#9E005D"/>
				<stop  offset="0.126" style="stop-color:#B11C7E"/>
				<stop  offset="0.2672" style="stop-color:#C1369B"/>
				<stop  offset="0.4175" style="stop-color:#CE49B2"/>
				<stop  offset="0.5791" style="stop-color:#D757C2"/>
				<stop  offset="0.7601" style="stop-color:#DC5FCC"/>
				<stop  offset="1" style="stop-color:#DE62CF"/>
			</linearGradient>
			<path class="st6" d="M1240.8,23.3c-8,84.3,53.8,159.1,138,167.1c84.2,8,159-53.9,166.9-138.2c8-84.3-53.8-159.1-138-167.1
				C1323.5-122.9,1248.8-61,1240.8,23.3z"/>
		</g>
		<g>
			
				<linearGradient id="SVGID_9_" gradientUnits="userSpaceOnUse" x1="1048.6622" y1="512.0012" x2="1212.826" y2="512.0012" gradientTransform="matrix(1.1644 0.1101 -0.102 1.0771 -214.0569 -77.1565)">
				<stop  offset="0" style="stop-color:#9E005D"/>
				<stop  offset="0.126" style="stop-color:#B11C7E"/>
				<stop  offset="0.2672" style="stop-color:#C1369B"/>
				<stop  offset="0.4175" style="stop-color:#CE49B2"/>
				<stop  offset="0.5791" style="stop-color:#D757C2"/>
				<stop  offset="0.7601" style="stop-color:#DC5FCC"/>
				<stop  offset="1" style="stop-color:#DE62CF"/>
			</linearGradient>
			<path class="st7" d="M954.8,589.8c-4.6,48.9,34.4,92.5,87.2,97.5c52.8,5,99.3-30.6,104-79.5c4.6-48.9-34.4-92.5-87.2-97.5
				C1006,505.3,959.4,540.9,954.8,589.8z"/>
		</g>
		<g>
			<linearGradient id="SVGID_10_" gradientUnits="userSpaceOnUse" x1="1394.554" y1="1057.8981" x2="1577.6826" y2="1057.8981">
				<stop  offset="0" style="stop-color:#9E005D"/>
				<stop  offset="0.126" style="stop-color:#B11C7E"/>
				<stop  offset="0.2672" style="stop-color:#C1369B"/>
				<stop  offset="0.4175" style="stop-color:#CE49B2"/>
				<stop  offset="0.5791" style="stop-color:#D757C2"/>
				<stop  offset="0.7601" style="stop-color:#DC5FCC"/>
				<stop  offset="1" style="stop-color:#DE62CF"/>
			</linearGradient>
			<path class="st8" d="M1394.9,1048.6c-4.4,50.3,32.8,95.2,83.2,100.4c50.4,5.1,94.8-31.5,99.2-81.8c4.4-50.3-32.8-95.2-83.2-100.4
				C1443.7,961.7,1399.3,998.3,1394.9,1048.6z"/>
		</g>
		<g>
			
				<linearGradient id="SVGID_11_" gradientUnits="userSpaceOnUse" x1="-133.7507" y1="1519.9253" x2="76.3781" y2="1519.9253" gradientTransform="matrix(0.9012 -0.7455 0.6895 0.8337 -701.4738 452.3574)">
				<stop  offset="0" style="stop-color:#00A99D"/>
				<stop  offset="1" style="stop-color:#D9E021"/>
			</linearGradient>
			<ellipse class="st9" cx="320.6" cy="1740.9" rx="123.6" ry="121.8"/>
		</g>
		<g>
			
				<linearGradient id="SVGID_12_" gradientUnits="userSpaceOnUse" x1="1655.3715" y1="252.0295" x2="1997.7009" y2="252.0295" gradientTransform="matrix(0.9956 9.421744e-02 -9.421744e-02 0.9956 -22.1799 -90.5637)">
				<stop  offset="0" style="stop-color:#00A99D"/>
				<stop  offset="1" style="stop-color:#D9E021"/>
			</linearGradient>
			<path class="st10" d="M1602.1,316.3c-8.9,94.2,60.1,177.8,154.3,186.7c94.1,8.9,177.6-60.2,186.5-154.5
				c8.9-94.2-60.1-177.8-154.3-186.7C1694.5,152.9,1611,222.1,1602.1,316.3z"/>
		</g>
	</g>
</g>
</svg>
