<svg id="Layer_1" data-name="Layer 1" xmlns="http://www.w3.org/2000/svg" xmlns:xlink="http://www.w3.org/1999/xlink" viewBox="0 0 2184.47 1596.32"><defs><style>.cls-1{fill:url(#linear-gradient);}.cls-2{fill:url(#linear-gradient-2);}.cls-3{fill:url(#Degradado_sin_nombre_3);}.cls-4{fill:url(#linear-gradient-3);}.cls-5{fill:url(#linear-gradient-4);}.cls-6{fill:url(#linear-gradient-5);}.cls-7{fill:url(#linear-gradient-6);}.cls-8{fill:url(#Degradado_sin_nombre_3-2);}</style><linearGradient id="linear-gradient" x1="903.05" y1="-1589.34" x2="1071.2" y2="-584.51" gradientTransform="translate(2172.09 -645.31) rotate(-177.8)" gradientUnits="userSpaceOnUse"><stop offset="0" stop-color="#00aa9d"/><stop offset="1" stop-color="#d6e000"/></linearGradient><linearGradient id="linear-gradient-2" x1="1941.26" y1="121.92" x2="2384.11" y2="1275.28" gradientTransform="translate(-549.38 415.65) rotate(-11.5)" gradientUnits="userSpaceOnUse"><stop offset="0" stop-color="#fe0"/><stop offset="0.11" stop-color="#ffdc00"/><stop offset="0.36" stop-color="#ffbc00"/><stop offset="0.59" stop-color="#ffa600"/><stop offset="0.81" stop-color="#ff9800"/><stop offset="1" stop-color="#ff9300"/></linearGradient><linearGradient id="Degradado_sin_nombre_3" x1="758.46" y1="-701.21" x2="1117.43" y2="233.7" gradientTransform="matrix(-0.63, -0.71, 0.75, -0.67, 2397.49, 672.18)" gradientUnits="userSpaceOnUse"><stop offset="0" stop-color="#1086fb"/><stop offset="1" stop-color="#28f5fb"/></linearGradient><linearGradient id="linear-gradient-3" x1="1162.44" y1="491.81" x2="1326.61" y2="491.81" gradientTransform="matrix(0, 1.17, -1.08, 0, 1691.22, -874.52)" gradientUnits="userSpaceOnUse"><stop offset="0" stop-color="#b8005f"/><stop offset="0.13" stop-color="#cd1e82"/><stop offset="0.27" stop-color="#de369f"/><stop offset="0.42" stop-color="#ec4ab6"/><stop offset="0.58" stop-color="#f557c6"/><stop offset="0.76" stop-color="#fb5fd0"/><stop offset="1" stop-color="#fd62d3"/></linearGradient><linearGradient id="linear-gradient-4" x1="1363.77" y1="1207.42" x2="1546.9" y2="1207.42" gradientTransform="translate(1281.12 -675.53) rotate(45.03)" xlink:href="#linear-gradient-3"/><linearGradient id="linear-gradient-5" x1="1767.29" y1="235.24" x2="2109.62" y2="235.24" gradientTransform="translate(2116.96 -1624.03) rotate(90.04)" xlink:href="#linear-gradient"/><linearGradient id="linear-gradient-6" x1="1883.23" y1="1199.66" x2="2150.9" y2="1896.79" gradientTransform="matrix(1, 0, 0, 1, 0, 0)" xlink:href="#linear-gradient-2"/><linearGradient id="Degradado_sin_nombre_3-2" x1="143.25" y1="916.78" x2="354.84" y2="1467.83" gradientTransform="matrix(1, 0, 0, 1, 0, 0)" xlink:href="#Degradado_sin_nombre_3"/></defs><path class="cls-1" d="M608.68,645.13a120.37,120.37,0,0,0,103.45-44.19c20.73-25.56,18.54-99.06,40.66-111.84,12.77-7.38,28.78,1.19,39.48,11.4,18.22,17.38,34.65,28.5,59,34.94s56.58-3.7,78.39,10.52c27.44,17.91,26.74,78.22,40.48,107.32a248.74,248.74,0,0,0,76.43,93c66.08,49.11,140,55.13,216.76,36.74,63.06-15.09,78,68.72,141.73,72.86,53.66,3.47,101.75-37.71,107.22-92.06a103.19,103.19,0,0,0-46.43-97.36,73.83,73.83,0,0,1-32.27-75.25c.09-.46.17-.92.26-1.4,13.79-77.17,163.63-92.83,203.47-35.16a97.71,97.71,0,0,0,90.48,42.08c45.32-4.42,82.33-41.08,88-87,5.78-46.74-20.16-87.7-58.31-104.65-27.88-12.4-44.62-41-43.34-71.91,4.47-108-77.83-206.63-192-211-88.42-3.4-165.62,52.09-195,131.84-12.87,34.89-48.23,54.72-84.1,47.06-41.58-8.88-84.52-6.34-125,6.43-33.61,10.58-62.56,31.05-97.57,9.82-14.61-8.85-25.54-22.68-38.37-34-57.37-50.72-148-45.11-198.89,12.23-9.73,11-24.18,16.38-38.4,13.39C658,290.67,664.7,382,605,401.5c-61,19.9-110.63,56.53-106,130.24C502.85,591.39,550.05,640.09,608.68,645.13Z" transform="translate(-45)"/><path class="cls-2" d="M2060.11,91.77c-40.06,20-87.74,17.21-122.86-10.62a323.41,323.41,0,0,0-266.08-63.71c-142.87,29.07-244.44,148-258,286-2,19.8-15.8,36.77-35,42.05l-.81.23c-23.2,6.51-48.08-4.41-57.15-26.74-35.51-87.43-129.32-140.32-225.48-120.74C979.93,221.56,916.24,333.82,938.91,437.59c8.54,39.13-5.55,78.86-36,104.91a116.24,116.24,0,0,0-38.14,112.36c13,61.34,74.42,102,135.92,90a116.19,116.19,0,0,0,88.46-79.05c11.89-37.59,41.87-67.06,80.67-74l2-.36c39.9-7.52,80.87,8.18,104.34,41.33,60.9,86,188,103.91,270.09,35.35,28.28-23.62,66.77-30.32,102.21-20.24,181.63,51.69,371.57-67.76,406.16-250.61,8.15-43.05,40-78.84,82.8-88.25,57.84-12.73,103.28-69.46,89.57-136.81C2210.24,89.85,2122.74,60.43,2060.11,91.77Z" transform="translate(-45)"/><path class="cls-3" d="M1096.59,170.19c29.17,18.48,45.29,51.56,39.24,86.63-12.45,72.26,5.81,147.53,56.65,204.55,74.48,83.53,195.83,102.08,297,53.82,14.52-6.92,31.6-4.71,42.56,5.93.15.15.3.3.46.44a36.7,36.7,0,0,1,3.07,49.37C1488.19,631,1487,715.78,1537.11,772c59.86,67.14,162.18,63.11,225.82,4.81,24-22,57-29.06,86.67-19.53,30.39,9.75,66.13,2.85,92.7-21.17,37.79-34.16,42.78-92.21,11-128.36-22.31-25.42-56.69-34.32-88.6-26.35-30.68,7.66-62.58-.15-82.12-23.25l-1-1.17c-20.37-23.58-25-57.52-10.83-87,36.75-76.5,1-169-77.91-195.45-27.18-9.11-46.45-32.08-52.89-60C1607,71.5,1451.78-6,1311.36,46.88c-33.06,12.44-70.07,6-92.87-18.74-30.81-33.42-87.55-40.25-129.23-3.09C1038.27,70.51,1051,141.3,1096.59,170.19Z" transform="translate(-45)"/><ellipse class="cls-4" cx="1158.11" cy="580.64" rx="88.9" ry="96" transform="translate(426.78 1679.41) rotate(-84.64)"/><ellipse class="cls-5" cx="1455.33" cy="1207.42" rx="90.9" ry="92.21" transform="translate(-472.42 1383.81) rotate(-45.03)"/><ellipse class="cls-6" cx="1880.23" cy="314.24" rx="171.34" ry="171.17" transform="translate(1346.65 2156.88) rotate(-84.64)"/><circle class="cls-7" cx="1943" cy="1355.32" r="241"/><circle class="cls-8" cx="190.5" cy="1039.82" r="190.5"/></svg>