<svg id="Layer_1" data-name="Layer 1" xmlns="http://www.w3.org/2000/svg" xmlns:xlink="http://www.w3.org/1999/xlink" viewBox="0 0 2476 1641.32"><defs><style>.cls-1{fill:url(#linear-gradient);}.cls-2{fill:url(#linear-gradient-2);}.cls-3{fill:url(#Degradado_sin_nombre_3);}.cls-4{fill:url(#Degradado_sin_nombre_3-2);}.cls-5{fill:url(#linear-gradient-3);}.cls-6{fill:url(#linear-gradient-4);}.cls-7{fill:url(#linear-gradient-5);}.cls-8{fill:url(#linear-gradient-6);}</style><linearGradient id="linear-gradient" x1="1080.05" y1="-1600.2" x2="1248.2" y2="-595.37" gradientTransform="translate(2526.37 -660.23) rotate(-177.8)" gradientUnits="userSpaceOnUse"><stop offset="0" stop-color="#00aa9d"/><stop offset="1" stop-color="#d6e000"/></linearGradient><linearGradient id="linear-gradient-2" x1="2118.26" y1="111.05" x2="2561.11" y2="1264.42" gradientTransform="translate(-543.66 450.73) rotate(-11.5)" gradientUnits="userSpaceOnUse"><stop offset="0" stop-color="#fe0"/><stop offset="0.11" stop-color="#ffdc00"/><stop offset="0.36" stop-color="#ffbc00"/><stop offset="0.59" stop-color="#ffa600"/><stop offset="0.81" stop-color="#ff9800"/><stop offset="1" stop-color="#ff9300"/></linearGradient><linearGradient id="Degradado_sin_nombre_3" x1="214.87" y1="766.49" x2="556.05" y2="1655.06" gradientUnits="userSpaceOnUse"><stop offset="0" stop-color="#1086fb"/><stop offset="1" stop-color="#28f5fb"/></linearGradient><linearGradient id="Degradado_sin_nombre_3-2" x1="935.46" y1="-712.08" x2="1294.43" y2="222.84" gradientTransform="matrix(-0.63, -0.71, 0.75, -0.67, 2694.16, 779.16)" xlink:href="#Degradado_sin_nombre_3"/><linearGradient id="linear-gradient-3" x1="1339.44" y1="480.95" x2="1503.61" y2="480.95" gradientTransform="matrix(0, 1.17, -1.08, 0, 1856.62, -1092.41)" gradientUnits="userSpaceOnUse"><stop offset="0" stop-color="#b8005f"/><stop offset="0.13" stop-color="#cd1e82"/><stop offset="0.27" stop-color="#de369f"/><stop offset="0.42" stop-color="#ec4ab6"/><stop offset="0.58" stop-color="#f557c6"/><stop offset="0.76" stop-color="#fb5fd0"/><stop offset="1" stop-color="#fd62d3"/></linearGradient><linearGradient id="linear-gradient-4" x1="1679.3" y1="1028.84" x2="1862.43" y2="1028.84" gradientTransform="translate(1247.32 -951.15) rotate(45.03)" xlink:href="#linear-gradient-3"/><linearGradient id="linear-gradient-5" x1="1944.29" y1="224.38" x2="2286.62" y2="224.38" gradientTransform="translate(2283.24 -1811.91) rotate(90.04)" xlink:href="#linear-gradient"/><linearGradient id="linear-gradient-6" x1="2175.23" y1="1244.66" x2="2442.9" y2="1941.79" gradientTransform="matrix(1, 0, 0, 1, 0, 0)" xlink:href="#linear-gradient-2"/></defs><path class="cls-1" d="M785.68,634.27a120.35,120.35,0,0,0,103.45-44.2c20.73-25.56,18.54-99.05,40.66-111.84,12.77-7.38,28.78,1.19,39.48,11.41,18.22,17.38,34.65,28.49,59,34.94s56.58-3.71,78.39,10.52c27.44,17.9,26.74,78.21,40.48,107.32a248.64,248.64,0,0,0,76.43,93c66.08,49.11,140,55.13,216.76,36.75,63.06-15.1,78,68.72,141.73,72.85,53.66,3.48,101.75-37.7,107.22-92.06a103.17,103.17,0,0,0-46.43-97.35,73.83,73.83,0,0,1-32.27-75.25c.09-.47.17-.93.26-1.41,13.79-77.17,163.63-92.82,203.47-35.15a97.7,97.7,0,0,0,90.48,42.07c45.32-4.41,82.33-41.07,88-87,5.78-46.73-20.16-87.69-58.31-104.65-27.88-12.39-44.62-41-43.34-71.9,4.47-108-77.83-206.64-192-211-88.42-3.41-165.62,52.08-195,131.84-12.87,34.89-48.23,54.71-84.1,47.05-41.58-8.88-84.52-6.34-125,6.43-33.61,10.59-62.56,31.05-97.57,9.83-14.61-8.86-25.54-22.68-38.37-34-57.37-50.73-148-45.12-198.89,12.22-9.73,11-24.18,16.38-38.4,13.4C835,279.81,841.7,371.18,782,390.63c-61,19.91-110.63,56.54-106,130.25C679.85,580.53,727.05,629.23,785.68,634.27Z" transform="translate(0 10.87)"/><path class="cls-2" d="M2237.11,80.9c-40.06,20-87.74,17.22-122.86-10.62A323.41,323.41,0,0,0,1848.17,6.57c-142.87,29.08-244.44,148-258,286-2,19.8-15.8,36.77-35,42.06l-.81.22c-23.2,6.51-48.08-4.4-57.15-26.74-35.51-87.43-129.32-140.31-225.48-120.74C1156.93,210.7,1093.24,323,1115.91,426.73c8.54,39.12-5.55,78.86-36,104.91A116.22,116.22,0,0,0,1041.81,644c13,61.35,74.42,102,135.92,90a116.18,116.18,0,0,0,88.46-79c11.89-37.59,41.87-67.07,80.67-74l2-.37c39.9-7.51,80.87,8.19,104.34,41.33,60.9,86,188,103.92,270.09,35.35,28.28-23.61,66.77-30.32,102.21-20.23,181.63,51.69,371.57-67.76,406.16-250.62,8.15-43.05,40-78.83,82.8-88.25,57.84-12.73,103.28-69.46,89.57-136.8C2387.24,79,2299.74,49.57,2237.11,80.9Z" transform="translate(0 10.87)"/><path class="cls-3" d="M611.1,1158.3c-35.88,42.7-94.87,42.45-132.15,12.12a85.49,85.49,0,0,0-53.78-18.91,93.82,93.82,0,0,0-44.11,10.82c-116.18,61.1-261.15,23.46-335.72-80.37A267.7,267.7,0,0,1,0,932.46C0,804.39,89.5,697.22,209.37,670.1a263,263,0,0,1,313.38,258A88.34,88.34,0,0,0,535,972.89a97.26,97.26,0,0,0,43,38.71C629.54,1035.59,655,1106.05,611.1,1158.3Z" transform="translate(0 10.87)"/><path class="cls-4" d="M1273.59,159.32c29.17,18.49,45.29,51.57,39.24,86.64-12.45,72.25,5.81,147.53,56.65,204.55,74.48,83.53,195.83,102.07,297,53.82,14.52-6.93,31.6-4.71,42.56,5.92l.46.45a36.69,36.69,0,0,1,3.07,49.36c-47.38,60.1-48.58,144.86,1.54,201.08,59.86,67.13,162.18,63.11,225.82,4.81,24-22,57-29.06,86.67-19.54,30.39,9.75,66.13,2.86,92.7-21.17,37.79-34.16,42.78-92.21,11-128.36-22.31-25.41-56.69-34.31-88.6-26.34-30.68,7.66-62.58-.16-82.12-23.25-.33-.4-.67-.79-1-1.18-20.37-23.57-25-57.52-10.83-87,36.75-76.5,1-169-77.91-195.45-27.18-9.11-46.45-32.08-52.89-60-33-143-188.21-220.5-328.63-167.66-33.06,12.44-70.07,6-92.87-18.74-30.81-33.41-87.55-40.24-129.23-3.08C1215.27,59.65,1228,130.44,1273.59,159.32Z" transform="translate(0 10.87)"/><ellipse class="cls-5" cx="1335.11" cy="569.77" rx="88.9" ry="96" transform="translate(643.06 1856.65) rotate(-84.64)"/><ellipse class="cls-6" cx="1770.86" cy="1028.84" rx="90.9" ry="92.21" transform="translate(-208.52 1565.54) rotate(-45.03)"/><ellipse class="cls-7" cx="2057.23" cy="303.38" rx="171.34" ry="171.17" transform="translate(1562.93 2334.12) rotate(-84.64)"/><circle class="cls-8" cx="2235" cy="1400.32" r="241"/></svg>