<svg width="2203" height="1372" viewBox="0 0 2203 1372" fill="none" xmlns="http://www.w3.org/2000/svg">
<path fill-rule="evenodd" clip-rule="evenodd" d="M1894.15 88.5001H1758.99C1754.76 101.938 1748.76 113.759 1730.15 127.8C1666.15 176.2 1291.15 157.2 1170.15 137.8C1133.46 131.896 1091.15 123.476 1044.21 114.132C884.431 82.3306 670.94 39.8384 442.155 49.5001C146.155 62.0001 -5.54511 333.2 0.15489 558.8C5.85092 785.429 158.642 905.391 272.296 994.624C346.202 1052.65 403.558 1097.68 393.155 1150.6C376.855 1233.6 108.155 1281.8 108.155 1281.8V1371.3C108.155 1371.3 485.355 1317.4 489.155 1158.2C490.731 1092.14 471.74 1048.42 455.601 1011.26C432.82 958.817 415.72 919.448 470.155 848.8C489.531 823.656 581.338 840.359 715.424 864.753C969.562 910.988 1375.58 984.855 1728.15 853.8C1884.15 795.8 2025.75 634 2016.15 488.1C2011.15 412.137 1979.29 376.626 1943.38 336.609C1914.67 304.614 1883.37 269.737 1861.15 209C1859.75 205.1 1858.55 200.9 1857.55 196.5C1856.45 160.4 1864.15 120.1 1894.15 88.5001Z" fill="url(#paint0_linear)"/>
<path d="M246.155 252C315.743 252 372.155 195.588 372.155 126C372.155 56.4121 315.743 0 246.155 0C176.567 0 120.155 56.4121 120.155 126C120.155 195.588 176.567 252 246.155 252Z" fill="url(#paint1_linear)"/>
<path d="M207.155 921C294.968 921 366.155 849.813 366.155 762C366.155 674.187 294.968 603 207.155 603C119.342 603 48.1549 674.187 48.1549 762C48.1549 849.813 119.342 921 207.155 921Z" fill="url(#paint2_linear)"/>
<path d="M384.155 504C433.861 504 474.155 463.706 474.155 414C474.155 364.294 433.861 324 384.155 324C334.449 324 294.155 364.294 294.155 414C294.155 463.706 334.449 504 384.155 504Z" fill="url(#paint3_linear)"/>
<path d="M1732.65 867C1789.82 867 1836.15 820.661 1836.15 763.5C1836.15 706.339 1789.82 660 1732.65 660C1675.49 660 1629.15 706.339 1629.15 763.5C1629.15 820.661 1675.49 867 1732.65 867Z" fill="url(#paint4_linear)"/>
<path d="M2001.15 636C2112.16 636 2202.15 546.009 2202.15 435C2202.15 323.991 2112.16 234 2001.15 234C1890.15 234 1800.15 323.991 1800.15 435C1800.15 546.009 1890.15 636 2001.15 636Z" fill="url(#paint5_linear)"/>
<defs>
<linearGradient id="paint0_linear" x1="1159.16" y1="-3504.1" x2="1159.16" y2="1371.54" gradientUnits="userSpaceOnUse">
<stop offset="0.00769231" stop-color="#9D37BA" stop-opacity="0.97"/>
<stop offset="0.259" stop-color="#D15FBA" stop-opacity="0.99"/>
<stop offset="0.2974" stop-color="#C7E06B"/>
<stop offset="0.4564" stop-color="#00C06B"/>
<stop offset="0.5205" stop-color="#FFD300"/>
<stop offset="0.6795" stop-color="#FFA440"/>
<stop offset="0.7282" stop-color="#00E8EF"/>
<stop offset="0.9923" stop-color="#0082EE"/>
</linearGradient>
<linearGradient id="paint1_linear" x1="120.155" y1="126" x2="372.155" y2="126" gradientUnits="userSpaceOnUse">
<stop stop-color="#4D85F7"/>
<stop offset="1" stop-color="#8EF5FB"/>
</linearGradient>
<linearGradient id="paint2_linear" x1="48.1549" y1="762" x2="366.155" y2="762" gradientUnits="userSpaceOnUse">
<stop stop-color="#4D85F7"/>
<stop offset="1" stop-color="#8EF5FB"/>
</linearGradient>
<linearGradient id="paint3_linear" x1="294.155" y1="414" x2="474.155" y2="414" gradientUnits="userSpaceOnUse">
<stop stop-color="#4D85F7"/>
<stop offset="1" stop-color="#8EF5FB"/>
</linearGradient>
<linearGradient id="paint4_linear" x1="1629.15" y1="763.5" x2="1836.15" y2="763.5" gradientUnits="userSpaceOnUse">
<stop stop-color="#4D85F7"/>
<stop offset="1" stop-color="#8EF5FB"/>
</linearGradient>
<linearGradient id="paint5_linear" x1="1800.15" y1="435" x2="2202.15" y2="435" gradientUnits="userSpaceOnUse">
<stop stop-color="#4D85F7"/>
<stop offset="1" stop-color="#8EF5FB"/>
</linearGradient>
</defs>
</svg>
