<svg width="2203" height="941" viewBox="0 0 2203 941" fill="none" xmlns="http://www.w3.org/2000/svg">
<path fill-rule="evenodd" clip-rule="evenodd" d="M1719.07 134.212C1805.7 113.512 1847.19 164.946 1857.55 196.5C1858.55 200.9 1859.75 205.1 1861.15 209C1883.37 269.737 1914.67 304.614 1943.38 336.609C1979.29 376.626 2011.15 412.137 2016.15 488.1C2025.75 634 1884.15 795.8 1728.15 853.8C1375.58 984.855 969.562 910.988 715.424 864.753L715.422 864.753C702.966 862.487 691.048 860.294 679.656 858.199C568.408 837.735 507.317 826.497 486 846C480.985 850.588 475.568 856.184 470.213 861.716C462.219 869.974 454.362 878.09 448.186 882.5C212.335 1050.9 62.2234 812.333 16.6487 672C7.05549 637.471 1.1876 599.889 0.15489 558.8C-5.54511 333.2 146.155 62.0001 442.155 49.5001C670.94 39.8384 884.431 82.3306 1044.21 114.132C1091.15 123.476 1133.46 131.896 1170.15 137.8C1274.78 154.575 1569.33 171.052 1688.5 143.909C1700.64 141.145 1710.96 137.927 1719.07 134.212Z" fill="url(#paint0_linear)"/>
<path d="M1688.5 143.909C1700.64 141.145 1710.96 137.927 1719.07 134.212C1709.44 136.512 1700.5 141.176 1688.5 143.909Z" fill="url(#paint1_linear)"/>
<path d="M246.155 252C315.743 252 372.155 195.588 372.155 126C372.155 56.4121 315.743 0 246.155 0C176.567 0 120.155 56.4121 120.155 126C120.155 195.588 176.567 252 246.155 252Z" fill="url(#paint2_linear)"/>
<path d="M207.155 921C294.968 921 366.155 849.813 366.155 762C366.155 674.187 294.968 603 207.155 603C119.342 603 48.1549 674.187 48.1549 762C48.1549 849.813 119.342 921 207.155 921Z" fill="url(#paint3_linear)"/>
<path d="M384.155 504C433.861 504 474.155 463.706 474.155 414C474.155 364.294 433.861 324 384.155 324C334.449 324 294.155 364.294 294.155 414C294.155 463.706 334.449 504 384.155 504Z" fill="url(#paint4_linear)"/>
<path d="M1732.65 867C1789.82 867 1836.15 820.661 1836.15 763.5C1836.15 706.339 1789.82 660 1732.65 660C1675.49 660 1629.15 706.339 1629.15 763.5C1629.15 820.661 1675.49 867 1732.65 867Z" fill="url(#paint5_linear)"/>
<path d="M2001.15 636C2112.16 636 2202.15 546.009 2202.15 435C2202.15 323.991 2112.16 234 2001.15 234C1890.15 234 1800.15 323.991 1800.15 435C1800.15 546.009 1890.15 636 2001.15 636Z" fill="url(#paint6_linear)"/>
<defs>
<linearGradient id="paint0_linear" x1="1159.16" y1="-3504.1" x2="1159.16" y2="1371.54" gradientUnits="userSpaceOnUse">
<stop offset="0.00769231" stop-color="#9D37BA" stop-opacity="0.97"/>
<stop offset="0.259" stop-color="#D15FBA" stop-opacity="0.99"/>
<stop offset="0.2974" stop-color="#C7E06B"/>
<stop offset="0.4564" stop-color="#00C06B"/>
<stop offset="0.5205" stop-color="#FFD300"/>
<stop offset="0.6795" stop-color="#FFA440"/>
<stop offset="0.7282" stop-color="#00E8EF"/>
<stop offset="0.9923" stop-color="#0082EE"/>
</linearGradient>
<linearGradient id="paint1_linear" x1="1159.16" y1="-3504.1" x2="1159.16" y2="1371.54" gradientUnits="userSpaceOnUse">
<stop offset="0.00769231" stop-color="#9D37BA" stop-opacity="0.97"/>
<stop offset="0.259" stop-color="#D15FBA" stop-opacity="0.99"/>
<stop offset="0.2974" stop-color="#C7E06B"/>
<stop offset="0.4564" stop-color="#00C06B"/>
<stop offset="0.5205" stop-color="#FFD300"/>
<stop offset="0.6795" stop-color="#FFA440"/>
<stop offset="0.7282" stop-color="#00E8EF"/>
<stop offset="0.9923" stop-color="#0082EE"/>
</linearGradient>
<linearGradient id="paint2_linear" x1="120.155" y1="126" x2="372.155" y2="126" gradientUnits="userSpaceOnUse">
<stop stop-color="#4D85F7"/>
<stop offset="1" stop-color="#8EF5FB"/>
</linearGradient>
<linearGradient id="paint3_linear" x1="48.1549" y1="762" x2="366.155" y2="762" gradientUnits="userSpaceOnUse">
<stop stop-color="#4D85F7"/>
<stop offset="1" stop-color="#8EF5FB"/>
</linearGradient>
<linearGradient id="paint4_linear" x1="294.155" y1="414" x2="474.155" y2="414" gradientUnits="userSpaceOnUse">
<stop stop-color="#4D85F7"/>
<stop offset="1" stop-color="#8EF5FB"/>
</linearGradient>
<linearGradient id="paint5_linear" x1="1629.15" y1="763.5" x2="1836.15" y2="763.5" gradientUnits="userSpaceOnUse">
<stop stop-color="#4D85F7"/>
<stop offset="1" stop-color="#8EF5FB"/>
</linearGradient>
<linearGradient id="paint6_linear" x1="1800.15" y1="435" x2="2202.15" y2="435" gradientUnits="userSpaceOnUse">
<stop stop-color="#4D85F7"/>
<stop offset="1" stop-color="#8EF5FB"/>
</linearGradient>
</defs>
</svg>
