<svg width="2014" height="874" viewBox="0 0 2014 874" fill="none" xmlns="http://www.w3.org/2000/svg">
<path fill-rule="evenodd" clip-rule="evenodd" d="M3.00001 632.9C18.8 771.6 66.5 789.5 131.5 799C242.5 815.223 401.653 802 466.03 718C474.088 703.809 494.116 694.882 507 693.9C551.558 690.38 628.678 714.636 724.382 744.738L724.383 744.738C843.461 782.192 991.308 828.694 1141 842C1477.6 871.9 1941 893.1 1939 633C1938.74 599.836 1923.09 560.854 1906.06 518.404C1864.69 415.317 1879.8 358.5 1993.5 231C2070.64 144.5 1914 56.9724 1784.57 120.688C1773.5 126.137 1761.34 131.527 1748 136.9C1628.71 176.007 1451.28 149.178 1253.05 119.204C1018.89 83.7974 755.697 44.0011 525 103.3C234.8 177.9 -31.1 332.8 3.00001 632.9Z" fill="url(#paint0_linear)"/>
<path d="M266 539C343.872 539 407 475.872 407 398C407 320.128 343.872 257 266 257C188.128 257 125 320.128 125 398C125 475.872 188.128 539 266 539Z" fill="url(#paint1_linear)"/>
<path d="M314 841C362.049 841 401 802.049 401 754C401 705.951 362.049 667 314 667C265.951 667 227 705.951 227 754C227 802.049 265.951 841 314 841Z" fill="url(#paint2_linear)"/>
<path d="M956 204C1012.33 204 1058 158.333 1058 102C1058 45.667 1012.33 0 956 0C899.667 0 854 45.667 854 102C854 158.333 899.667 204 956 204Z" fill="url(#paint3_linear)"/>
<path d="M1717 874C1786.59 874 1843 817.588 1843 748C1843 678.412 1786.59 622 1717 622C1647.41 622 1591 678.412 1591 748C1591 817.588 1647.41 874 1717 874Z" fill="url(#paint4_linear)"/>
<path d="M1898 590C1949.36 590 1991 548.362 1991 497C1991 445.638 1949.36 404 1898 404C1846.64 404 1805 445.638 1805 497C1805 548.362 1846.64 590 1898 590Z" fill="url(#paint5_linear)"/>
<defs>
<linearGradient id="paint0_linear" x1="1182.01" y1="-1440.1" x2="1182.01" y2="3435.54" gradientUnits="userSpaceOnUse">
<stop offset="0.00769231" stop-color="#9D37BA" stop-opacity="0.97"/>
<stop offset="0.259" stop-color="#D15FBA" stop-opacity="0.99"/>
<stop offset="0.2974" stop-color="#C7E06B"/>
<stop offset="0.4564" stop-color="#00C06B"/>
<stop offset="0.5205" stop-color="#FFD300"/>
<stop offset="0.6795" stop-color="#FFA440"/>
<stop offset="0.7282" stop-color="#00E8EF"/>
<stop offset="0.9923" stop-color="#0082EE"/>
</linearGradient>
<linearGradient id="paint1_linear" x1="125" y1="398" x2="407" y2="398" gradientUnits="userSpaceOnUse">
<stop stop-color="#D9E021"/>
<stop offset="1" stop-color="#00A99D"/>
</linearGradient>
<linearGradient id="paint2_linear" x1="227" y1="754" x2="401" y2="754" gradientUnits="userSpaceOnUse">
<stop stop-color="#D9E021"/>
<stop offset="1" stop-color="#00A99D"/>
</linearGradient>
<linearGradient id="paint3_linear" x1="854" y1="102" x2="1058" y2="102" gradientUnits="userSpaceOnUse">
<stop stop-color="#D9E021"/>
<stop offset="1" stop-color="#00A99D"/>
</linearGradient>
<linearGradient id="paint4_linear" x1="1591" y1="748" x2="1843" y2="748" gradientUnits="userSpaceOnUse">
<stop stop-color="#00A99D"/>
<stop offset="1" stop-color="#D9E021"/>
</linearGradient>
<linearGradient id="paint5_linear" x1="1805" y1="497" x2="1991" y2="497" gradientUnits="userSpaceOnUse">
<stop stop-color="#D9E021"/>
<stop offset="1" stop-color="#00A99D"/>
</linearGradient>
</defs>
</svg>
