<?xml version="1.0" encoding="utf-8"?>
<!-- Generator: Adobe Illustrator 22.0.1, SVG Export Plug-In . SVG Version: 6.00 Build 0)  -->
<svg version="1.1" id="Layer_1" xmlns="http://www.w3.org/2000/svg" xmlns:xlink="http://www.w3.org/1999/xlink" x="0px" y="0px"
	 viewBox="0 0 1797.8 785.5" style="enable-background:new 0 0 1797.8 785.5;" xml:space="preserve">
<style type="text/css">
	.st0{fill:url(#SVGID_1_);}
	.st1{fill:url(#SVGID_2_);}
	.st2{fill:url(#SVGID_3_);}
	.st3{fill:url(#SVGID_4_);}
	.st4{fill:url(#SVGID_5_);}
	.st5{fill:url(#SVGID_6_);}
	.st6{fill:url(#SVGID_7_);}
	.st7{fill:url(#SVGID_8_);}
	.st8{fill:url(#SVGID_9_);}
	.st9{fill:url(#SVGID_10_);}
	.st10{fill:url(#SVGID_11_);}
	.st11{fill:url(#SVGID_12_);}
	.st12{fill:url(#SVGID_13_);}
	.st13{fill:url(#SVGID_14_);}
	.st14{fill:url(#SVGID_15_);}
	.st15{fill:url(#SVGID_16_);}
	.st16{fill:url(#SVGID_17_);}
	.st17{fill:url(#SVGID_18_);}
	.st18{fill:url(#SVGID_19_);}
	.st19{fill:url(#SVGID_20_);}
	.st20{fill:url(#SVGID_21_);}
	.st21{fill:url(#SVGID_22_);}
	.st22{fill:url(#SVGID_23_);}
</style>
<g>
	<linearGradient id="SVGID_1_" gradientUnits="userSpaceOnUse" x1="1371.3335" y1="180.1482" x2="1571.7706" y2="180.1482">
		<stop  offset="0" style="stop-color:#9E005D"/>
		<stop  offset="0.126" style="stop-color:#B11C7E"/>
		<stop  offset="0.2672" style="stop-color:#C1369B"/>
		<stop  offset="0.4175" style="stop-color:#CE49B2"/>
		<stop  offset="0.5791" style="stop-color:#D757C2"/>
		<stop  offset="0.7601" style="stop-color:#DC5FCC"/>
		<stop  offset="1" style="stop-color:#DE62CF"/>
	</linearGradient>
	<path class="st0" d="M1371.7,170c-4.8,55.1,35.9,104.3,91.1,109.9c55.1,5.6,103.7-34.5,108.6-89.5c4.8-55.1-35.9-104.3-91.1-109.9
		C1425.2,74.8,1376.6,114.9,1371.7,170z"/>
</g>
<g>
	<g>
		
			<linearGradient id="SVGID_2_" gradientUnits="userSpaceOnUse" x1="5804.9268" y1="-4827.6904" x2="5902.001" y2="-4247.6108" gradientTransform="matrix(0.5061 -0.8625 -0.9379 -0.5504 -6530.1621 2806.6238)">
			<stop  offset="0" style="stop-color:#00A99D"/>
			<stop  offset="1" style="stop-color:#D9E021"/>
		</linearGradient>
		<path class="st1" d="M910.9,106.9c0.9,19.3,33.1,39.3,44.2,55.8c14.1,20.8,22.7,44.5,25.4,68.4c5.3,48.6-14.6,86.5-48.3,117.6
			c-27.7,25.5,12,61-5.7,93.3c-14.9,27.2-51.8,36.7-82.3,21c-22.6-11.6-36.2-33.4-37.1-55.3c-0.7-17.4-12.5-33.7-29.8-41
			c-0.3-0.1-0.5-0.2-0.8-0.3c-45.2-19.3-100.4,48.2-82.3,86.9c8.8,18.9,7.7,41-6,58.1c-16.5,20.5-47.5,26.1-73.6,13.4
			c-26.6-12.9-40.2-39.3-37.2-63.5c2.2-17.7-7.8-35.5-24.5-45.2c-58.6-34.2-85.1-107.3-51.7-164.2C527,207.7,580.5,189,632,201.5
			c22.5,5.5,44.1-5,51.2-25c8.3-23.2,23.1-43.2,42.5-58.5c16.1-12.7,36-19.9,35.7-44C761.3,63.9,910.2,91.6,910.9,106.9z"/>
	</g>
	<g>
		
			<linearGradient id="SVGID_3_" gradientUnits="userSpaceOnUse" x1="763.3828" y1="-4297.1494" x2="1068.7285" y2="-3501.9082" gradientTransform="matrix(0.4122 0.8399 -0.8977 0.4406 -3152.6057 1490.4779)">
			<stop  offset="0" style="stop-color:#FCEE21"/>
			<stop  offset="0.1142" style="stop-color:#FBDC20"/>
			<stop  offset="0.3551" style="stop-color:#F9BC1F"/>
			<stop  offset="0.5882" style="stop-color:#F8A61F"/>
			<stop  offset="0.8078" style="stop-color:#F7981E"/>
			<stop  offset="1" style="stop-color:#F7931E"/>
		</linearGradient>
		<path class="st2" d="M1162.9,657.1c-19.5-21.5-25-52-12-79.1c26.8-55.9,29.3-121.1,1-178.7c-41.4-84.4-136.1-126.6-229.7-110
			c-13.4,2.4-26.8-3.2-33.3-14.3c-0.1-0.2-0.2-0.3-0.3-0.5c-7.9-13.4-4.5-31,8.9-40.8c52.5-38.2,73-106.8,45.1-163.6
			C909.3,2.3,825-17.2,759.6,15.9c-24.6,12.5-53.2,10.9-75.2-3.5C662-2.2,631.2-4.6,604.1,9c-38.7,19.3-56.1,65.3-38.6,101.8
			c12.3,25.6,38.3,40.5,66.1,41.2c26.8,0.6,51,14.1,61.6,37.2c0.2,0.4,0.4,0.8,0.5,1.2c11.2,23.7,7.1,52.3-11.2,73.1
			c-47.6,53.9-39.8,137,18.4,176.1c20.1,13.5,30.5,36.4,29.3,60.5c-6.1,123.5,102.6,221,229.2,209.4c29.8-2.7,58.5,10.8,71.4,35.9
			c17.4,34,62.1,52.2,104.6,31.3C1187.4,751.1,1193.4,690.8,1162.9,657.1z"/>
	</g>
	<g>
		
			<linearGradient id="SVGID_4_" gradientUnits="userSpaceOnUse" x1="5970.7383" y1="-565.8193" x2="6235.543" y2="123.8364" gradientTransform="matrix(0.7747 -0.6694 0.6553 0.7584 -3538.1082 4725.7759)">
			<stop  offset="0" style="stop-color:#4D85F7"/>
			<stop  offset="1" style="stop-color:#8EF5FB"/>
		</linearGradient>
		<path class="st3" d="M1063.5,64.3c-15.5,22.6-41.7,35.5-68.5,31.5c-55.2-8.2-114,7.1-160.2,46.9C767.4,201,748,294,781,370.4
			c4.7,11,2.3,24-6.3,32.6c-0.1,0.1-0.2,0.2-0.4,0.4c-10.4,10.4-26.9,12.2-38.2,3.2c-44.4-35.1-109.7-34.5-155.2,4.8
			c-54.3,46.9-55.4,125-13.1,172.5c16,17.9,20,43,11.5,65.8c-8.8,23.4-5,50.5,12.5,70.4c24.8,28.2,69.4,31,98.6,6.2
			c20.5-17.5,28.8-43.9,24-68.1c-4.6-23.3,2.7-47.8,21.4-63.1c0.3-0.3,0.6-0.5,0.9-0.8c19-16,45.4-20.1,67.6-9.8
			c57.5,26.7,130.3-2.3,154-63c8.2-20.9,26.7-36,48.5-41.5c111.7-27.7,177.9-147.7,143-254c-8.2-25-1.7-53.4,18.3-71.3
			c27.1-24.1,34.7-67.6,7.8-98.7C1142.8,18,1087.7,28.9,1063.5,64.3z"/>
	</g>
	<g>
		
			<linearGradient id="SVGID_5_" gradientUnits="userSpaceOnUse" x1="-952.0865" y1="-3838.3621" x2="-694.7397" y2="-3838.3621" gradientTransform="matrix(0.1604 0.9871 -0.9871 0.1604 -2513.3518 1856.1921)">
			<stop  offset="0" style="stop-color:#9E005D"/>
			<stop  offset="0.126" style="stop-color:#B11C7E"/>
			<stop  offset="0.2672" style="stop-color:#C1369B"/>
			<stop  offset="0.4175" style="stop-color:#CE49B2"/>
			<stop  offset="0.5791" style="stop-color:#D757C2"/>
			<stop  offset="0.7601" style="stop-color:#DC5FCC"/>
			<stop  offset="1" style="stop-color:#DE62CF"/>
		</linearGradient>
		<path class="st4" d="M1122.6,300.7c-70.2,11.4-117.9,77.5-106.5,147.7c11.4,70.1,77.6,117.8,147.8,106.3
			c70.2-11.4,117.9-77.5,106.5-147.7C1259,336.9,1192.8,289.3,1122.6,300.7z"/>
	</g>
	<g>
		
			<linearGradient id="SVGID_6_" gradientUnits="userSpaceOnUse" x1="-811.9675" y1="-3470.49" x2="-564.3732" y2="-3470.49" gradientTransform="matrix(0.1604 0.9871 -0.9871 0.1604 -2513.3518 1856.1921)">
			<stop  offset="0" style="stop-color:#00A99D"/>
			<stop  offset="1" style="stop-color:#D9E021"/>
		</linearGradient>
		<path class="st5" d="M782,498.1c-67.6,11-113.4,74.6-102.5,142.1c11,67.5,74.6,113.3,142.2,102.3c67.6-11,113.4-74.6,102.5-142.1
			C913.2,532.9,849.5,487.1,782,498.1z"/>
	</g>
	<g>
		
			<linearGradient id="SVGID_7_" gradientUnits="userSpaceOnUse" x1="-747.5397" y1="-3235.2729" x2="-598.9831" y2="-3235.2729" gradientTransform="matrix(0.1723 1.0605 -1.0679 0.1735 -2650.9771 1455.0876)">
			<stop  offset="0" style="stop-color:#9E005D"/>
			<stop  offset="0.126" style="stop-color:#B11C7E"/>
			<stop  offset="0.2672" style="stop-color:#C1369B"/>
			<stop  offset="0.4175" style="stop-color:#CE49B2"/>
			<stop  offset="0.5791" style="stop-color:#D757C2"/>
			<stop  offset="0.7601" style="stop-color:#DC5FCC"/>
			<stop  offset="1" style="stop-color:#DE62CF"/>
		</linearGradient>
		<path class="st6" d="M675,100.9c-43.9,7.1-73.7,48.2-66.6,91.7c7.1,43.5,48.4,73,92.2,65.9c43.9-7.1,73.7-48.2,66.6-91.7
			C760.2,123.2,718.9,93.7,675,100.9z"/>
	</g>
</g>
<g>
	<g>
		
			<linearGradient id="SVGID_8_" gradientUnits="userSpaceOnUse" x1="4689.6328" y1="-6122.8311" x2="4784.5684" y2="-5555.5293" gradientTransform="matrix(0.9946 0.104 0.1131 -1.0816 -3781.7791 -6579.6372)">
			<stop  offset="0" style="stop-color:#00A99D"/>
			<stop  offset="1" style="stop-color:#D9E021"/>
		</linearGradient>
		<path class="st7" d="M492,366.5c-16.9,8.6-21.6,45.4-31.8,61.9c-12.9,21-30.5,38.3-50.6,50.2c-41.1,24.4-82.9,22-124.2,4.5
			c-33.9-14.4-49.4,35.4-85.4,32.6c-30.3-2.3-53.6-31.3-52-64.8c1.2-24.8,15.1-45.7,34.2-55.4c15.2-7.7,25-24.8,24.5-43.1
			c0-0.3,0-0.6,0-0.9c-1.1-48-83.5-69.9-110.7-38.1c-13.3,15.5-33.4,23.5-54.1,18.1C16.8,325.4-0.7,300.1,0,271.7
			c0.8-28.9,18.8-51.7,41.5-58.8c16.6-5.2,28.4-21.3,30.4-40.2c6.7-66,61.1-119.2,125.3-112.5c49.7,5.2,88.1,45.3,97.7,96.2
			c4.2,22.3,22.3,37.2,43,35.5c24-2,47.8,3.1,69.3,14.2c17.9,9.2,32.3,24,53.7,14C469.7,215.9,505.4,359.6,492,366.5z"/>
	</g>
	<g>
		
			<linearGradient id="SVGID_9_" gradientUnits="userSpaceOnUse" x1="-905.1286" y1="-3151.6125" x2="-667.3363" y2="-3151.6125" gradientTransform="matrix(0.1604 0.9871 -0.9871 0.1604 -2513.3518 1856.1921)">
			<stop  offset="0" style="stop-color:#9E005D"/>
			<stop  offset="0.126" style="stop-color:#B11C7E"/>
			<stop  offset="0.2672" style="stop-color:#C1369B"/>
			<stop  offset="0.4175" style="stop-color:#CE49B2"/>
			<stop  offset="0.5791" style="stop-color:#D757C2"/>
			<stop  offset="0.7601" style="stop-color:#DC5FCC"/>
			<stop  offset="1" style="stop-color:#DE62CF"/>
		</linearGradient>
		<path class="st8" d="M452.3,457.2c-64.9,10.5-108.9,71.6-98.4,136.4c10.5,64.8,71.7,108.8,136.6,98.3
			c64.9-10.5,108.9-71.6,98.4-136.4C578.3,490.7,517.1,446.7,452.3,457.2z"/>
	</g>
	<g>
		
			<linearGradient id="SVGID_10_" gradientUnits="userSpaceOnUse" x1="-980.7352" y1="-2843.4417" x2="-733.1409" y2="-2843.4417" gradientTransform="matrix(0.1604 0.9871 -0.9871 0.1604 -2513.3518 1856.1921)">
			<stop  offset="0" style="stop-color:#00A99D"/>
			<stop  offset="1" style="stop-color:#D9E021"/>
		</linearGradient>
		<path class="st9" d="M136,432.1C68.4,443,22.5,506.6,33.5,574.1c11,67.5,74.6,113.3,142.2,102.3c67.6-11,113.4-74.6,102.5-142.1
			C267.2,466.9,203.5,421.1,136,432.1z"/>
	</g>
	<g>
		
			<linearGradient id="SVGID_11_" gradientUnits="userSpaceOnUse" x1="-831.1427" y1="-2715.4736" x2="-700.3206" y2="-2715.4736" gradientTransform="matrix(0.1723 1.0605 -1.0679 0.1735 -2650.9771 1455.0876)">
			<stop  offset="0" style="stop-color:#9E005D"/>
			<stop  offset="0.126" style="stop-color:#B11C7E"/>
			<stop  offset="0.2672" style="stop-color:#C1369B"/>
			<stop  offset="0.4175" style="stop-color:#CE49B2"/>
			<stop  offset="0.5791" style="stop-color:#D757C2"/>
			<stop  offset="0.7601" style="stop-color:#DC5FCC"/>
			<stop  offset="1" style="stop-color:#DE62CF"/>
		</linearGradient>
		<path class="st10" d="M105.6,102.4c-38.6,6.3-64.9,42.4-58.7,80.7c6.2,38.3,42.6,64.3,81.2,58c38.6-6.3,64.9-42.4,58.7-80.7
			C180.5,122.1,144.2,96.1,105.6,102.4z"/>
	</g>
	<g>
		
			<linearGradient id="SVGID_12_" gradientUnits="userSpaceOnUse" x1="-583.9958" y1="-2983.7468" x2="-391.9617" y2="-2983.7468" gradientTransform="matrix(0.1723 1.0605 -1.0679 0.1735 -2650.9771 1455.0876)">
			<stop  offset="0" style="stop-color:#FCEE21"/>
			<stop  offset="0.1142" style="stop-color:#FBDC20"/>
			<stop  offset="0.3551" style="stop-color:#F9BC1F"/>
			<stop  offset="0.5882" style="stop-color:#F8A61F"/>
			<stop  offset="0.8078" style="stop-color:#F7981E"/>
			<stop  offset="1" style="stop-color:#F7931E"/>
		</linearGradient>
		<path class="st11" d="M434.6,318c-56.7,9.2-95.2,62.3-86.1,118.5c9.1,56.2,62.5,94.4,119.2,85.1c56.7-9.2,95.2-62.3,86.1-118.5
			C544.7,346.9,491.3,308.7,434.6,318z"/>
	</g>
	<g>
		
			<linearGradient id="SVGID_13_" gradientUnits="userSpaceOnUse" x1="-619.0239" y1="-2691.4578" x2="-490.8647" y2="-2691.4578" gradientTransform="matrix(0.1723 1.0605 -1.0679 0.1735 -2650.9771 1455.0876)">
			<stop  offset="0" style="stop-color:#FCEE21"/>
			<stop  offset="0.1142" style="stop-color:#FBDC20"/>
			<stop  offset="0.3551" style="stop-color:#F9BC1F"/>
			<stop  offset="0.5882" style="stop-color:#F8A61F"/>
			<stop  offset="0.8078" style="stop-color:#F7981E"/>
			<stop  offset="1" style="stop-color:#F7931E"/>
		</linearGradient>
		<path class="st12" d="M116.5,331.5c-37.8,6.1-63.6,41.6-57.5,79.1c6.1,37.5,41.7,63,79.5,56.8c37.8-6.1,63.6-41.6,57.5-79.1
			C189.9,350.8,154.3,325.4,116.5,331.5z"/>
	</g>
	<g>
		
			<linearGradient id="SVGID_14_" gradientUnits="userSpaceOnUse" x1="-350.2949" y1="-2765.7727" x2="-239.6378" y2="-2765.7727" gradientTransform="matrix(0.1723 1.0605 -1.0679 0.1735 -2650.9771 1455.0876)">
			<stop  offset="0" style="stop-color:#4D85F7"/>
			<stop  offset="1" style="stop-color:#8EF5FB"/>
		</linearGradient>
		<path class="st13" d="M242.1,603.6c-32.7,5.3-54.9,35.9-49.6,68.3c5.3,32.4,36,54.4,68.7,49.1c32.7-5.3,54.9-35.9,49.6-68.3
			C305.6,620.3,274.8,598.3,242.1,603.6z"/>
	</g>
</g>
<g>
	<g>
		
			<linearGradient id="SVGID_15_" gradientUnits="userSpaceOnUse" x1="6155.9912" y1="-5520.001" x2="6258.2144" y2="-4909.1528" gradientTransform="matrix(0.5801 -0.9885 -0.9388 -0.5509 -7039.1606 3659.7729)">
			<stop  offset="0" style="stop-color:#00A99D"/>
			<stop  offset="1" style="stop-color:#D9E021"/>
		</linearGradient>
		<path class="st14" d="M1710.1,208.3c-0.3,22.5,33.5,43.7,44.6,62.2c14,23.4,21.9,50.5,23.2,78.2c2.6,56.4-21.7,102-60.7,140.5
			c-32,31.7,9.1,70.4-12.5,109.3c-18.2,32.8-59.1,46.3-91.4,30.1c-24-12-37.3-36.6-36.8-62.1c0.4-20.3-11.5-38.6-29.8-45.9
			c-0.3-0.1-0.6-0.2-0.9-0.4c-48.1-19.5-112.9,62.9-95.7,107c8.4,21.5,5.7,47.4-10.4,68.2c-19.4,25.1-53.7,33.7-81.4,20.6
			c-28.2-13.3-41.3-43.2-36.4-71.7c3.5-20.8-6.1-40.9-23.8-51.2c-61.8-36-85.9-119.7-45.6-188.3c31.2-53.2,91-78.7,146.4-67.4
			c24.2,4.9,48.5-8.8,57.7-32.6c10.6-27.6,28.1-51.9,50.4-71.2c18.5-16,40.7-25.7,42-53.8C1549.4,168,1710.4,190.4,1710.1,208.3z"/>
	</g>
	<g>
		
			<linearGradient id="SVGID_16_" gradientUnits="userSpaceOnUse" x1="-723.2606" y1="-4086.8748" x2="-465.9137" y2="-4086.8748" gradientTransform="matrix(0.1604 0.9871 -0.9871 0.1604 -2513.3518 1856.1921)">
			<stop  offset="0" style="stop-color:#9E005D"/>
			<stop  offset="0.126" style="stop-color:#B11C7E"/>
			<stop  offset="0.2672" style="stop-color:#C1369B"/>
			<stop  offset="0.4175" style="stop-color:#CE49B2"/>
			<stop  offset="0.5791" style="stop-color:#D757C2"/>
			<stop  offset="0.7601" style="stop-color:#DC5FCC"/>
			<stop  offset="1" style="stop-color:#DE62CF"/>
		</linearGradient>
		<path class="st15" d="M1404.6,486.7c-70.2,11.4-117.9,77.5-106.5,147.7c11.4,70.1,77.6,117.8,147.8,106.3
			c70.2-11.4,117.9-77.5,106.5-147.7C1541,522.9,1474.8,475.3,1404.6,486.7z"/>
	</g>
	<g>
		
			<linearGradient id="SVGID_17_" gradientUnits="userSpaceOnUse" x1="-1070.6505" y1="-4378.563" x2="-844.6046" y2="-4378.563" gradientTransform="matrix(0.1604 0.9871 -0.9871 0.1604 -2513.3518 1856.1921)">
			<stop  offset="0" style="stop-color:#FCEE21"/>
			<stop  offset="0.1142" style="stop-color:#FBDC20"/>
			<stop  offset="0.3551" style="stop-color:#F9BC1F"/>
			<stop  offset="0.5882" style="stop-color:#F8A61F"/>
			<stop  offset="0.8078" style="stop-color:#F7981E"/>
			<stop  offset="1" style="stop-color:#F7931E"/>
		</linearGradient>
		<path class="st16" d="M1636.8,97.1c-61.7,10-103.6,68.1-93.5,129.7c10,61.6,68.1,103.4,129.8,93.4c61.7-10,103.6-68.1,93.5-129.7
			C1756.6,128.9,1698.5,87,1636.8,97.1z"/>
	</g>
	<g>
		
			<linearGradient id="SVGID_18_" gradientUnits="userSpaceOnUse" x1="-859.6836" y1="-4197.2173" x2="-724.7565" y2="-4197.2173" gradientTransform="matrix(0.1604 0.9871 -0.9871 0.1604 -2513.3518 1856.1921)">
			<stop  offset="0" style="stop-color:#FCEE21"/>
			<stop  offset="0.1142" style="stop-color:#FBDC20"/>
			<stop  offset="0.3551" style="stop-color:#F9BC1F"/>
			<stop  offset="0.5882" style="stop-color:#F8A61F"/>
			<stop  offset="0.8078" style="stop-color:#F7981E"/>
			<stop  offset="1" style="stop-color:#F7931E"/>
		</linearGradient>
		<path class="st17" d="M1491.6,334.4c-36.8,6-61.8,40.6-55.8,77.4c6,36.8,40.7,61.7,77.5,55.8c36.8-6,61.8-40.6,55.8-77.4
			C1563.1,353.4,1528.4,328.4,1491.6,334.4z"/>
	</g>
	<g>
		
			<linearGradient id="SVGID_19_" gradientUnits="userSpaceOnUse" x1="-605.474" y1="-3722.3088" x2="-431.9567" y2="-3722.3088" gradientTransform="matrix(0.1723 1.0605 -1.0679 0.1735 -2650.9771 1455.0876)">
			<stop  offset="0" style="stop-color:#00A99D"/>
			<stop  offset="1" style="stop-color:#D9E021"/>
		</linearGradient>
		<path class="st18" d="M1219.6,167c-51.2,8.3-86,56.3-77.8,107.1c8.3,50.8,56.5,85.3,107.7,76.9c51.2-8.3,86-56.3,77.8-107.1
			C1319.1,193.1,1270.8,158.7,1219.6,167z"/>
	</g>
	<g>
		
			<linearGradient id="SVGID_20_" gradientUnits="userSpaceOnUse" x1="-783.5769" y1="-2972.75" x2="-552.9431" y2="-2972.75" gradientTransform="matrix(0.1723 1.0605 -1.0679 0.1735 -2650.9771 1455.0876)">
			<stop  offset="0" style="stop-color:#4D85F7"/>
			<stop  offset="1" style="stop-color:#8EF5FB"/>
		</linearGradient>
		<path class="st19" d="M388.5,108.2c-68.1,11.1-114.4,74.8-103.4,142.3c11,67.5,75.1,113.3,143.1,102.3
			c68.1-11.1,114.4-74.8,103.4-142.3C520.7,142.9,456.6,97.1,388.5,108.2z"/>
	</g>
	<g>
		
			<linearGradient id="SVGID_21_" gradientUnits="userSpaceOnUse" x1="-536.3044" y1="-3859.365" x2="-355.6224" y2="-3859.365" gradientTransform="matrix(0.1723 1.0605 -1.0679 0.1735 -2650.9771 1455.0876)">
			<stop  offset="0" style="stop-color:#4D85F7"/>
			<stop  offset="1" style="stop-color:#8EF5FB"/>
		</linearGradient>
		<path class="st20" d="M1377.9,216.6c-53.3,8.7-89.6,58.6-81,111.5c8.6,52.9,58.8,88.8,112.1,80.1c53.3-8.7,89.6-58.6,81-111.5
			C1481.4,243.8,1431.2,207.9,1377.9,216.6z"/>
	</g>
	<g>
		
			<linearGradient id="SVGID_22_" gradientUnits="userSpaceOnUse" x1="-287.1841" y1="-3682.1924" x2="-171.1754" y2="-3682.1924" gradientTransform="matrix(0.1723 1.0605 -1.0679 0.1735 -2650.9771 1455.0876)">
			<stop  offset="0" style="stop-color:#4D85F7"/>
			<stop  offset="1" style="stop-color:#8EF5FB"/>
		</linearGradient>
		<path class="st21" d="M1231.6,511.5c-34.2,5.6-57.5,37.6-52,71.6c5.5,34,37.8,57,72,51.4c34.2-5.6,57.5-37.6,52-71.6
			C1298.1,529,1265.9,505.9,1231.6,511.5z"/>
	</g>
	<g>
		
			<linearGradient id="SVGID_23_" gradientUnits="userSpaceOnUse" x1="-342.8953" y1="-4142.229" x2="-208.2224" y2="-4142.229" gradientTransform="matrix(0.1723 1.0605 -1.0679 0.1735 -2650.9771 1455.0876)">
			<stop  offset="0" style="stop-color:#9E005D"/>
			<stop  offset="0.126" style="stop-color:#B11C7E"/>
			<stop  offset="0.2672" style="stop-color:#C1369B"/>
			<stop  offset="0.4175" style="stop-color:#CE49B2"/>
			<stop  offset="0.5791" style="stop-color:#D757C2"/>
			<stop  offset="0.7601" style="stop-color:#DC5FCC"/>
			<stop  offset="1" style="stop-color:#DE62CF"/>
		</linearGradient>
		<path class="st22" d="M1713.3,372.6c-39.8,6.5-66.8,43.7-60.4,83.1c6.4,39.4,43.8,66.2,83.6,59.7c39.8-6.5,66.8-43.7,60.4-83.1
			C1790.5,392.9,1753,366.1,1713.3,372.6z"/>
	</g>
</g>
</svg>
