<?xml version="1.0" encoding="utf-8"?>
<!-- Generator: Adobe Illustrator 22.0.1, SVG Export Plug-In . SVG Version: 6.00 Build 0)  -->
<svg version="1.1" id="Layer_1" xmlns="http://www.w3.org/2000/svg" xmlns:xlink="http://www.w3.org/1999/xlink" x="0px" y="0px"
	 viewBox="0 0 1920 1080" style="enable-background:new 0 0 1920 1080;" xml:space="preserve">
<style type="text/css">
	.st0{fill:url(#SVGID_1_);}
	.st1{fill:url(#SVGID_2_);}
	.st2{fill:url(#SVGID_3_);}
	.st3{fill:url(#SVGID_4_);}
	.st4{fill:url(#SVGID_5_);}
	.st5{fill:url(#SVGID_6_);}
	.st6{fill:url(#SVGID_7_);}
	.st7{fill:url(#SVGID_8_);}
	.st8{display:none;fill:#FFFFFF;}
	.st9{display:none;fill:#FFFFFF;stroke:#FF1B4A;stroke-miterlimit:10;}
	.st10{display:none;fill:#FF1B4A;stroke:#FFFFFF;stroke-miterlimit:10;}
	.st11{font-family:'Montserrat-Regular';}
	.st12{font-size:20px;}
	.st13{display:none;}
	.st14{display:inline;fill:#FF1B4A;}
	.st15{display:inline;}
	.st16{fill:#FF1B4A;}
	.st17{fill:#FFFFFF;}
	
		.st18{display:inline;fill:#6BC437;stroke:#FFFFFF;stroke-width:4.677;stroke-linecap:round;stroke-linejoin:round;stroke-miterlimit:10;}
	
		.st19{display:inline;fill:#0084E0;stroke:#FFFFFF;stroke-width:4.677;stroke-linecap:round;stroke-linejoin:round;stroke-miterlimit:10;}
	
		.st20{display:inline;fill:#FF1D7E;stroke:#FFFFFF;stroke-width:4.677;stroke-linecap:round;stroke-linejoin:round;stroke-miterlimit:10;}
	
		.st21{display:inline;fill:#FFA90F;stroke:#FFFFFF;stroke-width:4.677;stroke-linecap:round;stroke-linejoin:round;stroke-miterlimit:10;}
	.st22{fill:#808180;}
	.st23{font-family:'Geometric415BT-BlackA';}
	.st24{font-size:16.8953px;}
	.st25{font-family:'Chango-Regular';}
	.st26{font-size:52px;}
	.st27{display:none;fill:#808180;}
	.st28{clip-path:url(#SVGID_10_);}
	.st29{fill:url(#SVGID_11_);}
	.st30{fill:url(#SVGID_12_);}
</style>
<g>
	<linearGradient id="SVGID_1_" gradientUnits="userSpaceOnUse" x1="1545.5793" y1="168.6066" x2="1728.708" y2="168.6066">
		<stop  offset="0" style="stop-color:#9E005D"/>
		<stop  offset="0.126" style="stop-color:#B11C7E"/>
		<stop  offset="0.2672" style="stop-color:#C1369B"/>
		<stop  offset="0.4175" style="stop-color:#CE49B2"/>
		<stop  offset="0.5791" style="stop-color:#D757C2"/>
		<stop  offset="0.7601" style="stop-color:#DC5FCC"/>
		<stop  offset="1" style="stop-color:#DE62CF"/>
	</linearGradient>
	<path class="st0" d="M1545.9,159.3c-4.4,50.3,32.8,95.2,83.2,100.4c50.4,5.1,94.8-31.5,99.2-81.8c4.4-50.3-32.8-95.2-83.2-100.4
		C1594.8,72.4,1550.4,109,1545.9,159.3z"/>
</g>
<g>
	
		<linearGradient id="SVGID_2_" gradientUnits="userSpaceOnUse" x1="238.5474" y1="812.2295" x2="377.3947" y2="812.2295" gradientTransform="matrix(0.9012 -0.7455 0.6895 0.8337 -454.179 508.6635)">
		<stop  offset="0" style="stop-color:#00A99D"/>
		<stop  offset="1" style="stop-color:#D9E021"/>
	</linearGradient>
	<ellipse class="st1" cx="383.4" cy="956.2" rx="81.7" ry="80.5"/>
</g>
<g>
	
		<linearGradient id="SVGID_3_" gradientUnits="userSpaceOnUse" x1="5957.0181" y1="-4719.4756" x2="6051.9536" y2="-4152.1738" gradientTransform="matrix(0.5061 -0.8625 -0.9379 -0.5504 -6360.3804 3089.9634)">
		<stop  offset="0" style="stop-color:#00A99D"/>
		<stop  offset="1" style="stop-color:#D9E021"/>
	</linearGradient>
	<path class="st2" d="M1056.7,207.3c0.9,18.9,32.3,38.4,43.2,54.5c13.8,20.4,22.2,43.6,24.8,66.9c5.2,47.5-14.3,84.6-47.3,115
		c-27.1,25,11.7,59.6-5.6,91.3c-14.6,26.6-50.7,35.9-80.5,20.6c-22.1-11.4-35.4-32.6-36.2-54.1c-0.7-17-12.3-33-29.1-40.1
		c-0.3-0.1-0.5-0.2-0.8-0.3c-44.2-18.9-98.1,47.1-80.5,85c8.6,18.5,7.5,40.1-5.9,56.8c-16.1,20.1-46.5,25.6-72,13.1
		c-26-12.6-39.3-38.4-36.4-62.1c2.1-17.3-7.6-34.7-24-44.2c-57.3-33.4-83.3-105-50.6-160.6c25.3-43.1,77.6-61.5,128-49.2
		c22,5.4,43.1-4.9,50.1-24.4c8.1-22.7,22.6-42.2,41.6-57.2c15.8-12.5,35.2-19.5,34.9-43.1C910.4,165.2,1056,192.2,1056.7,207.3z"/>
</g>
<g>
	
		<linearGradient id="SVGID_4_" gradientUnits="userSpaceOnUse" x1="868.6724" y1="-4250.0171" x2="1174.0181" y2="-3454.7761" gradientTransform="matrix(0.4122 0.8399 -0.8977 0.4406 -2983.3896 1525.5955)">
		<stop  offset="0" style="stop-color:#FCEE21"/>
		<stop  offset="0.1142" style="stop-color:#FBDC20"/>
		<stop  offset="0.3551" style="stop-color:#F9BC1F"/>
		<stop  offset="0.5882" style="stop-color:#F8A61F"/>
		<stop  offset="0.8078" style="stop-color:#F7981E"/>
		<stop  offset="1" style="stop-color:#F7931E"/>
	</linearGradient>
	<path class="st3" d="M1333.2,801.5c-19.5-21.5-25-52-12-79.1c26.8-55.9,29.3-121.1,1-178.7c-41.4-84.4-136.1-126.6-229.7-110
		c-13.4,2.4-26.8-3.2-33.3-14.3c-0.1-0.2-0.2-0.3-0.3-0.5c-7.9-13.4-4.5-31,8.9-40.8c52.5-38.2,73-106.8,45.1-163.6
		c-33.3-67.9-117.6-87.4-182.9-54.3c-24.6,12.5-53.2,10.9-75.2-3.5c-22.5-14.7-53.2-17.1-80.4-3.5c-38.7,19.3-56.1,65.3-38.6,101.8
		c12.3,25.6,38.3,40.5,66.1,41.2c26.8,0.6,51,14.1,61.6,37.2c0.2,0.4,0.4,0.8,0.5,1.2c11.2,23.7,7.1,52.3-11.2,73.1
		c-47.6,53.9-39.8,137,18.4,176.1c20.1,13.5,30.5,36.4,29.3,60.5c-6.1,123.5,102.6,221,229.2,209.4c29.8-2.7,58.5,10.8,71.4,35.9
		c17.4,34,62.1,52.2,104.6,31.3C1357.7,895.4,1363.7,835.1,1333.2,801.5z"/>
</g>
<g>
	
		<linearGradient id="SVGID_5_" gradientUnits="userSpaceOnUse" x1="6086.8198" y1="-343.4109" x2="6351.624" y2="346.2449" gradientTransform="matrix(0.7747 -0.6694 0.6553 0.7584 -3623.4824 4801.1206)">
		<stop  offset="0" style="stop-color:#4D85F7"/>
		<stop  offset="1" style="stop-color:#8EF5FB"/>
	</linearGradient>
	<path class="st4" d="M1213.8,230.6c-15.5,22.6-41.7,35.5-68.5,31.5c-55.2-8.2-114,7.1-160.2,46.9c-67.5,58.4-86.9,151.4-53.9,227.8
		c4.7,11,2.3,24-6.3,32.6c-0.1,0.1-0.2,0.2-0.4,0.4c-10.4,10.4-26.9,12.2-38.2,3.2c-44.4-35.1-109.7-34.5-155.2,4.8
		c-54.3,46.9-55.4,125-13.1,172.5c16,17.9,20,43,11.5,65.8c-8.8,23.4-5,50.5,12.5,70.4c24.8,28.2,69.4,31,98.6,6.2
		c20.5-17.5,28.8-43.9,24-68.1c-4.6-23.3,2.7-47.8,21.4-63.1c0.3-0.3,0.6-0.5,0.9-0.8c19-16,45.4-20.1,67.6-9.8
		c57.5,26.7,130.3-2.3,154-63c8.2-20.9,26.7-36,48.5-41.5c111.7-27.7,177.9-147.7,143-254c-8.2-25-1.7-53.4,18.3-71.3
		c27.1-24.1,34.7-67.6,7.8-98.7C1293.1,184.3,1238,195.3,1213.8,230.6z"/>
</g>
<g>
	
		<linearGradient id="SVGID_6_" gradientUnits="userSpaceOnUse" x1="-895.7768" y1="-3775.4954" x2="-638.4299" y2="-3775.4954" gradientTransform="matrix(0.1604 0.9871 -0.9871 0.1604 -2316.0239 1924.8469)">
		<stop  offset="0" style="stop-color:#9E005D"/>
		<stop  offset="0.126" style="stop-color:#B11C7E"/>
		<stop  offset="0.2672" style="stop-color:#C1369B"/>
		<stop  offset="0.4175" style="stop-color:#CE49B2"/>
		<stop  offset="0.5791" style="stop-color:#D757C2"/>
		<stop  offset="0.7601" style="stop-color:#DC5FCC"/>
		<stop  offset="1" style="stop-color:#DE62CF"/>
	</linearGradient>
	<path class="st5" d="M1266.9,435.1c-70.2,11.4-117.9,77.5-106.5,147.7c11.4,70.1,77.6,117.8,147.8,106.3
		c70.2-11.4,117.9-77.5,106.5-147.7C1403.3,471.3,1337.1,423.6,1266.9,435.1z"/>
</g>
<g>
	
		<linearGradient id="SVGID_7_" gradientUnits="userSpaceOnUse" x1="-678.0118" y1="-3174.2722" x2="-556.9134" y2="-3174.2722" gradientTransform="matrix(0.1723 1.0605 -1.0679 0.1735 -2442.1963 1517.4854)">
		<stop  offset="0" style="stop-color:#9E005D"/>
		<stop  offset="0.126" style="stop-color:#B11C7E"/>
		<stop  offset="0.2672" style="stop-color:#C1369B"/>
		<stop  offset="0.4175" style="stop-color:#CE49B2"/>
		<stop  offset="0.5791" style="stop-color:#D757C2"/>
		<stop  offset="0.7601" style="stop-color:#DC5FCC"/>
		<stop  offset="1" style="stop-color:#DE62CF"/>
	</linearGradient>
	<path class="st6" d="M830.7,247.6c-35.7,5.8-60.1,39.3-54.3,74.7c5.8,35.5,39.4,59.5,75.2,53.7c35.7-5.8,60.1-39.3,54.3-74.7
		C900.1,265.8,866.4,241.8,830.7,247.6z"/>
</g>
<g>
	
		<linearGradient id="SVGID_8_" gradientUnits="userSpaceOnUse" x1="-741.6167" y1="-3431.6826" x2="-494.0224" y2="-3431.6826" gradientTransform="matrix(0.1604 0.9871 -0.9871 0.1604 -2316.0239 1924.8469)">
		<stop  offset="0" style="stop-color:#00A99D"/>
		<stop  offset="1" style="stop-color:#D9E021"/>
	</linearGradient>
	<path class="st7" d="M952.3,642.4c-67.6,11-113.4,74.6-102.5,142.1c11,67.5,74.6,113.3,142.2,102.3c67.6-11,113.4-74.6,102.5-142.1
		C1083.5,677.2,1019.8,631.4,952.3,642.4z"/>
</g>
<path class="st8" d="M1162.7,750.7H906.3c-44.2,0-80.3-36.1-80.3-80.3V399c0-44.2,36.1-80.3,80.3-80.3h256.4
	c44.2,0,80.3,36.1,80.3,80.3v271.4C1243,714.6,1206.9,750.7,1162.7,750.7z"/>
<path class="st9" d="M1154.5,528.2h-241c-11.5,0-21-9.5-21-21v0c0-11.5,9.5-21,21-21h241c11.6,0,21,9.4,21,21v0
	C1175.5,518.8,1166.1,528.2,1154.5,528.2z"/>
<path class="st9" d="M1154.5,601.2h-241c-11.5,0-21-9.5-21-21v0c0-11.5,9.5-21,21-21h241c11.6,0,21,9.4,21,21v0
	C1175.5,591.8,1166.1,601.2,1154.5,601.2z"/>
<path class="st10" d="M1083.5,678.2h-99c-11.5,0-21-9.5-21-21v0c0-11.5,9.5-21,21-21h99c11.6,0,21,9.4,21,21v0
	C1104.5,668.8,1095.1,678.2,1083.5,678.2z"/>
<text transform="matrix(1 0 0 1 1002.6665 663.0344)" class="st8 st11 st12">Log In</text>
<g class="st13">
	<path class="st14" d="M495.3,139.5c-18,6.5-34.9,18.4-49.4,40.7c-15.5-20.9-26.6-32.6-49.4-40.7c4.7-20.9-4.1-44.6-18.3-72.7
		c44.7-22.8,90-22.7,135.8,0C498.5,92,491.9,116.1,495.3,139.5z"/>
	<g class="st15">
		<path class="st16" d="M466.5,156.9C428,136,410.9,112.7,411,81.4c0-17.2,9.7-25.3,17.8-29.1c8.5-4,16.9-4,17.2-4l3.7,3.7v4.3
			l-3.4,3.7c-10.2,0.7-16.1,4.4-18,11.3c-3.9,14,9.6,38.2,19.9,45.4c13.6,9.6,35.3,18.3,47.5,19.1l0.4,7.3
			c-8.5,1.6-17.3,7.4-25.5,13.5L466.5,156.9z"/>
		<path class="st17" d="M445.9,52v4.3c-40.9,2.9-15.5,52.5,0,63.4c14.4,10.2,36.7,18.9,49.4,19.7c-9.1,1.7-18.3,7.7-27.1,14.2
			c-39.1-21.3-53.6-44-53.6-72.2C414.7,52,445.9,52,445.9,52 M445.9,44.6c-1,0-9.7,0.1-18.8,4.4c-12.8,6-19.9,17.6-19.9,32.5
			c0,16.3,4.4,30.3,13.5,43c9.3,13,23.7,24.7,44,35.7l7.9-0.6c7.5-5.5,16.2-11.4,24-12.9l-0.9-14.7c-11.4-0.7-32.7-9.3-45.6-18.4
			c-8.5-6-22-28.4-18.4-41.4c0.6-2.1,2.2-7.7,14.7-8.6l6.9-7.4V52L445.9,44.6L445.9,44.6z"/>
	</g>
	<g class="st15">
		<path class="st16" d="M421.4,156.6c-8.2-6.1-17-11.9-25.5-13.5l0.4-7.3c12.2-0.8,33.9-9.5,47.5-19.1c10.2-7.2,23.8-31.4,19.9-45.4
			c-1.9-6.9-7.8-10.6-18-11.3l-3.4-3.7V52l3.7-3.7c0.4,0,8.7,0,17.2,4c8.1,3.8,17.8,12,17.8,29.1c0,31.3-17.1,54.5-55.5,75.5
			L421.4,156.6z"/>
		<path class="st17" d="M445.9,52c0,0,31.3,0,31.3,29.5c0,28.2-14.5,50.9-53.6,72.2c-8.8-6.5-17.9-12.5-27.1-14.2
			c12.7-0.8,35-9.6,49.4-19.7c15.5-11,40.9-60.5,0-63.4V52 M445.9,44.6l-7.4,7.4v4.3l6.9,7.4c12.6,0.9,14.1,6.5,14.7,8.6
			c3.6,13-10,35.4-18.4,41.4c-12.9,9.1-34.2,17.7-45.6,18.4l-0.9,14.7c7.8,1.5,16.5,7.3,24,12.9l7.9,0.6c20.3-11,34.6-22.7,44-35.7
			c9.1-12.7,13.5-26.8,13.5-43c0-14.9-7.1-26.4-19.9-32.5C455.7,44.7,446.9,44.6,445.9,44.6L445.9,44.6z"/>
	</g>
	<polygon class="st18" points="445.9,47.3 424.1,49.1 442.4,113 445.9,115.7 	"/>
	<polygon class="st19" points="424.1,49.1 405.8,52.8 437.8,108.9 442.4,113.3 	"/>
	<polygon class="st20" points="445.9,47.3 467.8,48.8 449.5,113 445.9,115.7 	"/>
	<polygon class="st21" points="467.8,48.8 486,52.4 454.1,108.5 449.5,113 	"/>
	<g class="st15">
		<text transform="matrix(1 0 0 1 398.5054 202.821)"><tspan x="0" y="0" class="st22 st23 st24">STRONGER </tspan><tspan x="0" y="16.9" class="st22 st23 st24">TOGETHER</tspan></text>
	</g>
</g>
<g class="st13">
	<text transform="matrix(1 0 0 1 913.0352 414.1419)" class="st14 st25 st26">Log in</text>
</g>
<text transform="matrix(1 0 0 1 910.2705 513.3152)" class="st27 st11 st12">Email</text>
<text transform="matrix(1 0 0 1 910.2705 586.3152)" class="st27 st11 st12">Password</text>
<g>
	<defs>
		<rect id="SVGID_9_" x="1" y="-1" width="1920" height="1082"/>
	</defs>
	<clipPath id="SVGID_10_">
		<use xlink:href="#SVGID_9_"  style="overflow:visible;"/>
	</clipPath>
	<g class="st28">
		<linearGradient id="SVGID_11_" gradientUnits="userSpaceOnUse" x1="1528.5145" y1="846.8568" x2="2207.8367" y2="846.8568">
			<stop  offset="0" style="stop-color:#FCEE21"/>
			<stop  offset="0.1142" style="stop-color:#FBDC20"/>
			<stop  offset="0.3551" style="stop-color:#F9BC1F"/>
			<stop  offset="0.5882" style="stop-color:#F8A61F"/>
			<stop  offset="0.8078" style="stop-color:#F7981E"/>
			<stop  offset="1" style="stop-color:#F7931E"/>
		</linearGradient>
		<path class="st29" d="M2140.6,772.7c-20.7,4.6-42.1-2.2-55-19c-26.5-34.6-67.5-57.7-114.5-59.8c-68.8-3.1-129,39.6-151.1,101.2
			c-3.2,8.8-11.5,15-20.9,15.2c-0.1,0-0.3,0-0.4,0c-11.4,0.3-21.5-7.6-23.1-18.8c-6.2-44.1-43-79.1-89.3-81.3
			c-55.3-2.5-97.3,41.5-98.9,91.6c-0.6,18.9-11.6,35.5-28.5,43.9c-17.3,8.6-29.6,26.2-30.4,47c-1.1,29.6,22.3,55.3,51.9,56.9
			c20.8,1.1,39.4-9.5,49.6-26c9.8-15.8,26.9-25.9,45.5-24.6c0.3,0,0.6,0,1,0.1c19.1,1.2,36.1,13.1,43,30.9
			c18,46.4,74.1,69.2,119.6,47.3c15.7-7.6,34.1-6.2,49.1,2.5c77.2,44.6,177.9,11.8,214.8-67.9c8.7-18.8,27.4-31.5,48.1-30.9
			c27.9,0.8,55.3-19.9,56.8-52.3C2209.6,789.1,2172.9,765.6,2140.6,772.7z"/>
	</g>
	<g class="st28">
		
			<linearGradient id="SVGID_12_" gradientUnits="userSpaceOnUse" x1="424.7418" y1="-532.3271" x2="784.1656" y2="403.755" gradientTransform="matrix(0.7656 0.6434 -0.6434 0.7656 -806.0617 101.857)">
			<stop  offset="0" style="stop-color:#4D85F7"/>
			<stop  offset="1" style="stop-color:#8EF5FB"/>
		</linearGradient>
		<path class="st30" d="M242,373.3c-33-15.3-55.2-47.1-55.3-83.4c-0.1-74.9-32-149.3-93.8-201.3C2.3,12.4-124.5,7.9-219,68.9
			c-13.6,8.8-31.3,8.5-44.4-1c-0.2-0.1-0.4-0.3-0.5-0.4c-15.9-11.5-21.5-32.8-11.8-49.8c37.6-66.7,23.9-153-37.1-204.3
			c-72.8-61.2-176.3-45-230.8,21.8c-20.6,25.2-52.9,36.3-84.8,30.1c-32.7-6.3-67.8,4.9-90.7,32.5C-751.7-63-746.5-3.4-707.8,29.6
			c27.2,23.2,63.8,28.2,94.9,16.3c29.9-11.4,63.8-7.2,87.7,13.9c0.4,0.4,0.8,0.7,1.2,1.1c24.9,21.6,35.6,55.5,26.4,87.2
			c-23.9,82.1,28.8,171.9,113.9,189.5c29.3,6.1,53,27.1,64.4,54.7C-260.4,533.9-88.6,594.3,45,524c31.5-16.6,70.3-14.3,97.9,8.1
			c37.3,30.3,96.3,30.6,132.2-12.1C319,467.7,293.5,397.3,242,373.3z"/>
	</g>
</g>
</svg>
