<?xml version="1.0" encoding="utf-8"?>
<!-- Generator: Adobe Illustrator 22.0.1, SVG Export Plug-In . SVG Version: 6.00 Build 0)  -->
<svg version="1.1" id="Layer_1" xmlns="http://www.w3.org/2000/svg" xmlns:xlink="http://www.w3.org/1999/xlink" x="0px" y="0px"
	 viewBox="0 0 1920 4880" style="enable-background:new 0 0 1920 4880;" xml:space="preserve">
<style type="text/css">
	.st0{clip-path:url(#SVGID_2_);fill:url(#SVGID_3_);}
	.st1{clip-path:url(#SVGID_2_);fill:url(#SVGID_4_);}
	.st2{clip-path:url(#SVGID_2_);fill:url(#SVGID_5_);}
	.st3{clip-path:url(#SVGID_2_);fill:url(#SVGID_6_);}
	.st4{clip-path:url(#SVGID_2_);fill:url(#SVGID_7_);}
	.st5{clip-path:url(#SVGID_2_);fill:url(#SVGID_8_);}
	.st6{clip-path:url(#SVGID_2_);fill:url(#SVGID_9_);}
	.st7{clip-path:url(#SVGID_2_);fill:url(#SVGID_10_);}
	.st8{clip-path:url(#SVGID_2_);fill:url(#SVGID_11_);}
	.st9{clip-path:url(#SVGID_2_);fill:url(#SVGID_12_);}
	.st10{clip-path:url(#SVGID_2_);fill:url(#SVGID_13_);}
	.st11{clip-path:url(#SVGID_2_);fill:url(#SVGID_14_);}
	.st12{clip-path:url(#SVGID_2_);fill:url(#SVGID_15_);}
	.st13{clip-path:url(#SVGID_2_);fill:url(#SVGID_16_);}
	.st14{clip-path:url(#SVGID_2_);fill:url(#SVGID_17_);}
	.st15{clip-path:url(#SVGID_2_);fill:url(#SVGID_18_);}
	.st16{clip-path:url(#SVGID_2_);fill:url(#SVGID_19_);}
	.st17{clip-path:url(#SVGID_2_);fill:url(#SVGID_20_);}
	.st18{clip-path:url(#SVGID_2_);fill:url(#SVGID_21_);}
	.st19{clip-path:url(#SVGID_2_);fill:url(#SVGID_22_);}
</style>
<g>
	<defs>
		<rect id="SVGID_1_" y="-1354" width="1920" height="6362"/>
	</defs>
	<clipPath id="SVGID_2_">
		<use xlink:href="#SVGID_1_"  style="overflow:visible;"/>
	</clipPath>
	<linearGradient id="SVGID_3_" gradientUnits="userSpaceOnUse" x1="984.009" y1="2.898" x2="984.009" y2="4878.54">
		<stop  offset="7.692308e-03" style="stop-color:#9D37BA;stop-opacity:0.97"/>
		<stop  offset="0.259" style="stop-color:#D15FBA;stop-opacity:0.99"/>
		<stop  offset="0.2974" style="stop-color:#C7E06B"/>
		<stop  offset="0.4564" style="stop-color:#00C06B"/>
		<stop  offset="0.5205" style="stop-color:#FFD300"/>
		<stop  offset="0.6795" style="stop-color:#FFA440"/>
		<stop  offset="0.7282" style="stop-color:#00E8EF"/>
		<stop  offset="0.9923" style="stop-color:#0082EE"/>
	</linearGradient>
	<path class="st0" d="M2167,2953.1c-4-268.5-49-343.7-340-410c-437.1-99.6-932,66-1274-12c-416.7-95-101.8-150.2-276-331.6
		c-34-35.4,9.7-60.9,32-62.6C409,2129,673,2261,943,2285c336.6,29.9,800,51.1,798-209c-0.9-113.7-182.6-295.8,18.7-451.5
		c69.8-40,133.9-78.9,167.3-97.2c156-85.4,220-48.4,216-350.2S1901.2,619.5,1611,545C1175,433,425.2,728.4,260.5,517.9
		C145,370.3,260,331.4,256,162.5S-86,3-86,3l-3,79.7c0,0,237.7-19.7,255,68.3c28,142.4-355,348.4-365,745.1
		c-6,239.3,116,410,430,423.3s556-49.4,752-53.2s456-17.1,548,26.6c92,43.7,186,108.1,146,192.1c-17.4,36.5-55,66-127,95
		c-260.2,85.3-797-143.1-1223-33.6c-290.2,74.6-556.1,229.5-522,529.6c15.8,138.7,59.7,159.9,120.5,161.2
		c73.6,10.4,265.5,43.2,279.5,106.4c28.1,126.6-124,188.1-134,541c-6,212.9,135.2,460.5,450,472.3s583-66,777-92
		c194.8-26.1,360.8-54.6,453-15.8c92.2,38.8,104,113.9,64,163.3c-54.4,67.1-149.9,43.8-196,106.3c-2.7,3.7-5.1,7.8-7.2,12.4
		c-36.6,52.1-15.2,72.4-56.8,103.8c-64,48.4-439,29.4-560,10c-161.6-26-432-100.8-728-88.3s-447.7,283.7-442,509.3
		c9.4,374,419.4,457.5,393,591.8c-16.3,83-285,131.2-285,131.2v89.5c0,0,377.2-53.9,381-213.1c3.8-159.3-112-188.7-19-309.4
		c56.1-72.8,719.4,205.2,1258,5c156-58,297.6-219.8,288-365.7c-9-136.7-105-142.4-155-279.1c-1.4-3.9-2.6-8.1-3.6-12.5
		c-1.1-36.1,6.6-76.4,36.6-108c55-58.1,166.1-13.4,248-53.2C2123.4,3466.5,2171,3221.5,2167,2953.1z"/>
	<linearGradient id="SVGID_4_" gradientUnits="userSpaceOnUse" x1="113" y1="561" x2="413" y2="561">
		<stop  offset="0" style="stop-color:#DE62CF"/>
		<stop  offset="1" style="stop-color:#D4145A"/>
	</linearGradient>
	<circle class="st1" cx="263" cy="561" r="150"/>
	<linearGradient id="SVGID_5_" gradientUnits="userSpaceOnUse" x1="98" y1="1248" x2="368" y2="1248">
		<stop  offset="0" style="stop-color:#DE62CF"/>
		<stop  offset="1" style="stop-color:#D4145A"/>
	</linearGradient>
	<circle class="st2" cx="233" cy="1248" r="135"/>
	<linearGradient id="SVGID_6_" gradientUnits="userSpaceOnUse" x1="-73" y1="1911" x2="209" y2="1911">
		<stop  offset="0" style="stop-color:#D9E021"/>
		<stop  offset="1" style="stop-color:#00A99D"/>
	</linearGradient>
	<circle class="st3" cx="68" cy="1911" r="141"/>
	<linearGradient id="SVGID_7_" gradientUnits="userSpaceOnUse" x1="29" y1="2277" x2="203" y2="2277">
		<stop  offset="0" style="stop-color:#D9E021"/>
		<stop  offset="1" style="stop-color:#00A99D"/>
	</linearGradient>
	<circle class="st4" cx="116" cy="2277" r="87"/>
	<linearGradient id="SVGID_8_" gradientUnits="userSpaceOnUse" x1="656" y1="1545" x2="860" y2="1545">
		<stop  offset="0" style="stop-color:#D9E021"/>
		<stop  offset="1" style="stop-color:#00A99D"/>
	</linearGradient>
	<circle class="st5" cx="758" cy="1545" r="102"/>
	<linearGradient id="SVGID_9_" gradientUnits="userSpaceOnUse" x1="1393" y1="2201" x2="1645" y2="2201">
		<stop  offset="0" style="stop-color:#00A99D"/>
		<stop  offset="1" style="stop-color:#D9E021"/>
	</linearGradient>
	<circle class="st6" cx="1519" cy="2201" r="126"/>
	<linearGradient id="SVGID_10_" gradientUnits="userSpaceOnUse" x1="44" y1="3114" x2="380" y2="3114">
		<stop  offset="0" style="stop-color:#FCEE21"/>
		<stop  offset="0.1142" style="stop-color:#FBDC20"/>
		<stop  offset="0.3551" style="stop-color:#F9BC1F"/>
		<stop  offset="0.5882" style="stop-color:#F8A61F"/>
		<stop  offset="0.8078" style="stop-color:#F7981E"/>
		<stop  offset="1" style="stop-color:#F7931E"/>
	</linearGradient>
	<circle class="st7" cx="212" cy="3114" r="168"/>
	<linearGradient id="SVGID_11_" gradientUnits="userSpaceOnUse" x1="1700" y1="2610.5" x2="2095" y2="2610.5">
		<stop  offset="0" style="stop-color:#FCEE21"/>
		<stop  offset="0.1142" style="stop-color:#FBDC20"/>
		<stop  offset="0.3551" style="stop-color:#F9BC1F"/>
		<stop  offset="0.5882" style="stop-color:#F8A61F"/>
		<stop  offset="0.8078" style="stop-color:#F7981E"/>
		<stop  offset="1" style="stop-color:#F7931E"/>
	</linearGradient>
	<circle class="st8" cx="1897.5" cy="2610.5" r="197.5"/>
	<linearGradient id="SVGID_12_" gradientUnits="userSpaceOnUse" x1="161" y1="2751" x2="359" y2="2751">
		<stop  offset="0" style="stop-color:#FCEE21"/>
		<stop  offset="0.1142" style="stop-color:#FBDC20"/>
		<stop  offset="0.3551" style="stop-color:#F9BC1F"/>
		<stop  offset="0.5882" style="stop-color:#F8A61F"/>
		<stop  offset="0.8078" style="stop-color:#F7981E"/>
		<stop  offset="1" style="stop-color:#F7931E"/>
	</linearGradient>
	<circle class="st9" cx="260" cy="2751" r="99"/>
	<linearGradient id="SVGID_13_" gradientUnits="userSpaceOnUse" x1="1028" y1="3315" x2="1280" y2="3315">
		<stop  offset="0" style="stop-color:#FCEE21"/>
		<stop  offset="0.1142" style="stop-color:#FBDC20"/>
		<stop  offset="0.3551" style="stop-color:#F9BC1F"/>
		<stop  offset="0.5882" style="stop-color:#F8A61F"/>
		<stop  offset="0.8078" style="stop-color:#F7981E"/>
		<stop  offset="1" style="stop-color:#F7931E"/>
	</linearGradient>
	<circle class="st10" cx="1154" cy="3315" r="126"/>
	<linearGradient id="SVGID_14_" gradientUnits="userSpaceOnUse" x1="-55" y1="3633" x2="197" y2="3633">
		<stop  offset="0" style="stop-color:#4D85F7"/>
		<stop  offset="1" style="stop-color:#8EF5FB"/>
	</linearGradient>
	<circle class="st11" cx="71" cy="3633" r="126"/>
	<linearGradient id="SVGID_15_" gradientUnits="userSpaceOnUse" x1="-127" y1="4269" x2="191" y2="4269">
		<stop  offset="0" style="stop-color:#4D85F7"/>
		<stop  offset="1" style="stop-color:#8EF5FB"/>
	</linearGradient>
	<circle class="st12" cx="32" cy="4269" r="159"/>
	<linearGradient id="SVGID_16_" gradientUnits="userSpaceOnUse" x1="119" y1="3921" x2="299" y2="3921">
		<stop  offset="0" style="stop-color:#4D85F7"/>
		<stop  offset="1" style="stop-color:#8EF5FB"/>
	</linearGradient>
	<circle class="st13" cx="209" cy="3921" r="90"/>
	<linearGradient id="SVGID_17_" gradientUnits="userSpaceOnUse" x1="1454" y1="4270.5" x2="1661" y2="4270.5">
		<stop  offset="0" style="stop-color:#4D85F7"/>
		<stop  offset="1" style="stop-color:#8EF5FB"/>
	</linearGradient>
	<circle class="st14" cx="1557.5" cy="4270.5" r="103.5"/>
	<linearGradient id="SVGID_18_" gradientUnits="userSpaceOnUse" x1="1625" y1="3942" x2="2027" y2="3942">
		<stop  offset="0" style="stop-color:#4D85F7"/>
		<stop  offset="1" style="stop-color:#8EF5FB"/>
	</linearGradient>
	<circle class="st15" cx="1826" cy="3942" r="201"/>
	<linearGradient id="SVGID_19_" gradientUnits="userSpaceOnUse" x1="1607" y1="1940" x2="1793" y2="1940">
		<stop  offset="0" style="stop-color:#D9E021"/>
		<stop  offset="1" style="stop-color:#00A99D"/>
	</linearGradient>
	<circle class="st16" cx="1700" cy="1940" r="93"/>
	<linearGradient id="SVGID_20_" gradientUnits="userSpaceOnUse" x1="1709" y1="696" x2="1991" y2="696">
		<stop  offset="0" style="stop-color:#DE62CF"/>
		<stop  offset="1" style="stop-color:#D4145A"/>
	</linearGradient>
	<circle class="st17" cx="1850" cy="696" r="141"/>
	<linearGradient id="SVGID_21_" gradientUnits="userSpaceOnUse" x1="1724" y1="1110" x2="1898" y2="1110">
		<stop  offset="0" style="stop-color:#DE62CF"/>
		<stop  offset="1" style="stop-color:#D4145A"/>
	</linearGradient>
	<circle class="st18" cx="1811" cy="1110" r="87"/>
	<linearGradient id="SVGID_22_" gradientUnits="userSpaceOnUse" x1="47" y1="891" x2="221" y2="891">
		<stop  offset="0" style="stop-color:#DE62CF"/>
		<stop  offset="1" style="stop-color:#D4145A"/>
	</linearGradient>
	<circle class="st19" cx="134" cy="891" r="87"/>
</g>
</svg>
