<svg id="Layer_1" data-name="Layer 1" xmlns="http://www.w3.org/2000/svg" xmlns:xlink="http://www.w3.org/1999/xlink" viewBox="0 0 2366.44 4875.64"><defs><style>.cls-1{fill:url(#linear-gradient);}.cls-2{fill:url(#linear-gradient-2);}.cls-3{fill:url(#linear-gradient-3);}.cls-4{fill:url(#linear-gradient-4);}.cls-5{fill:url(#linear-gradient-5);}.cls-6{fill:url(#linear-gradient-6);}.cls-7{fill:url(#linear-gradient-7);}.cls-8{fill:url(#linear-gradient-8);}.cls-9{fill:url(#linear-gradient-9);}.cls-10{fill:url(#linear-gradient-10);}.cls-11{fill:url(#linear-gradient-11);}.cls-12{fill:url(#Degradado_sin_nombre_3);}.cls-13{fill:url(#Degradado_sin_nombre_3-2);}.cls-14{fill:url(#Degradado_sin_nombre_3-3);}.cls-15{fill:url(#Degradado_sin_nombre_3-4);}.cls-16{fill:url(#Degradado_sin_nombre_3-5);}.cls-17{fill:url(#linear-gradient-12);}.cls-18{fill:url(#linear-gradient-13);}.cls-19{fill:url(#linear-gradient-14);}.cls-20{fill:url(#linear-gradient-15);}</style><linearGradient id="linear-gradient" x1="1183.22" x2="1183.22" y2="4875.64" gradientUnits="userSpaceOnUse"><stop offset="0.01" stop-color="#b534be" stop-opacity="0.97"/><stop offset="0.26" stop-color="#ed5fbd" stop-opacity="0.99"/><stop offset="0.3" stop-color="#bce062"/><stop offset="0.46" stop-color="#00c065"/><stop offset="0.52" stop-color="#ffd300"/><stop offset="0.68" stop-color="#ffa433"/><stop offset="0.73" stop-color="#00e8ef"/><stop offset="0.99" stop-color="#0082f1"/></linearGradient><linearGradient id="linear-gradient-2" x1="312.21" y1="558.1" x2="612.21" y2="558.1" gradientUnits="userSpaceOnUse"><stop offset="0" stop-color="#fd62d3"/><stop offset="1" stop-color="#f60c5b"/></linearGradient><linearGradient id="linear-gradient-3" x1="297.21" y1="1245.1" x2="567.21" y2="1245.1" xlink:href="#linear-gradient-2"/><linearGradient id="linear-gradient-4" x1="126.21" y1="1908.1" x2="408.21" y2="1908.1" gradientUnits="userSpaceOnUse"><stop offset="0" stop-color="#d6e000"/><stop offset="1" stop-color="#00aa9d"/></linearGradient><linearGradient id="linear-gradient-5" x1="228.21" y1="2274.1" x2="402.21" y2="2274.1" xlink:href="#linear-gradient-4"/><linearGradient id="linear-gradient-6" x1="855.21" y1="1542.1" x2="1059.21" y2="1542.1" xlink:href="#linear-gradient-4"/><linearGradient id="linear-gradient-7" x1="1592.21" y1="2198.1" x2="1844.21" y2="2198.1" gradientUnits="userSpaceOnUse"><stop offset="0" stop-color="#00aa9d"/><stop offset="1" stop-color="#d6e000"/></linearGradient><linearGradient id="linear-gradient-8" x1="243.21" y1="3111.1" x2="579.21" y2="3111.1" gradientUnits="userSpaceOnUse"><stop offset="0" stop-color="#fe0"/><stop offset="0.11" stop-color="#ffdc00"/><stop offset="0.36" stop-color="#ffbc00"/><stop offset="0.59" stop-color="#ffa600"/><stop offset="0.81" stop-color="#ff9800"/><stop offset="1" stop-color="#ff9300"/></linearGradient><linearGradient id="linear-gradient-9" x1="1899.21" y1="2607.6" x2="2294.21" y2="2607.6" xlink:href="#linear-gradient-8"/><linearGradient id="linear-gradient-10" x1="360.21" y1="2748.1" x2="558.21" y2="2748.1" xlink:href="#linear-gradient-8"/><linearGradient id="linear-gradient-11" x1="1227.21" y1="3312.1" x2="1479.21" y2="3312.1" xlink:href="#linear-gradient-8"/><linearGradient id="Degradado_sin_nombre_3" x1="144.21" y1="3630.1" x2="396.21" y2="3630.1" gradientUnits="userSpaceOnUse"><stop offset="0" stop-color="#1086fb"/><stop offset="1" stop-color="#28f5fb"/></linearGradient><linearGradient id="Degradado_sin_nombre_3-2" x1="72.21" y1="4266.1" x2="390.21" y2="4266.1" xlink:href="#Degradado_sin_nombre_3"/><linearGradient id="Degradado_sin_nombre_3-3" x1="318.21" y1="3918.1" x2="498.21" y2="3918.1" xlink:href="#Degradado_sin_nombre_3"/><linearGradient id="Degradado_sin_nombre_3-4" x1="1653.21" y1="4267.6" x2="1860.21" y2="4267.6" xlink:href="#Degradado_sin_nombre_3"/><linearGradient id="Degradado_sin_nombre_3-5" x1="1824.21" y1="3939.1" x2="2226.21" y2="3939.1" xlink:href="#Degradado_sin_nombre_3"/><linearGradient id="linear-gradient-12" x1="1806.21" y1="1937.1" x2="1992.21" y2="1937.1" xlink:href="#linear-gradient-4"/><linearGradient id="linear-gradient-13" x1="1908.21" y1="693.1" x2="2190.21" y2="693.1" xlink:href="#linear-gradient-2"/><linearGradient id="linear-gradient-14" x1="1923.21" y1="1107.1" x2="2097.21" y2="1107.1" xlink:href="#linear-gradient-2"/><linearGradient id="linear-gradient-15" x1="246.21" y1="888.1" x2="420.21" y2="888.1" xlink:href="#linear-gradient-2"/></defs><path class="cls-1" d="M2366.21,2950.17c-4-268.48-49-343.73-340-410.05-437.08-99.62-932,66-1274-12-416.66-95-101.84-150.19-276-331.59-34-35.41,9.66-60.91,32-62.64,100-7.77,364,124.23,634,148.23,336.6,29.92,800,51.1,798-209-.87-113.68-182.59-295.8,18.74-451.47,69.79-40,133.9-78.89,167.26-97.16,156-85.43,220-48.41,216-350.25s-241.77-557.6-532-632.16c-436-112-1185.77,183.46-1350.5-27.05-115.5-147.6-.5-186.51-4.5-355.47S113.21.1,113.21.1l-3,79.73s237.69-19.71,255,68.34c28,142.38-355,348.35-365,745.11-6,239.32,116,410.05,430,423.34s556-49.36,752-53.16,456-17.08,548,26.58,186,108.06,146,192.06c-17.4,36.55-55,66-127,95-260.21,85.29-797-143-1223-33.63C236,1618-29.91,1773,4.21,2073.12,20,2211.78,63.91,2233,124.68,2234.35c73.61,10.35,265.53,43.25,279.53,106.44,28.07,126.64-124,188.14-134,541-6,212.86,135.22,460.45,450,472.27s583-66,777-92c194.78-26.1,360.77-54.62,453-15.78s104,113.9,64,163.26c-54.4,67.12-149.88,43.83-196,106.3a72.14,72.14,0,0,0-7.24,12.44c-36.58,52.12-15.24,72.38-56.76,103.78-64,48.41-439,29.44-560,10-161.6-25.95-432-100.78-728-88.25s-447.7,283.7-442,509.31c9.43,374,419.41,457.53,393,591.75-16.32,83-285,131.19-285,131.19v89.54s377.23-53.86,381-213.14-112-188.65-19-309.4c56.06-72.79,719.43,205.24,1258,5,156-58,297.61-219.78,288-365.72-9-136.69-105-142.38-155-279.06a105.18,105.18,0,0,1-3.64-12.55c-1.13-36.15,6.64-76.36,36.64-108,55-58.05,166.08-13.35,248-53.16C2322.6,3463.63,2370.22,3218.64,2366.21,2950.17Z"/><circle class="cls-2" cx="462.21" cy="558.1" r="150"/><circle class="cls-3" cx="432.21" cy="1245.1" r="135"/><circle class="cls-4" cx="267.21" cy="1908.1" r="141"/><circle class="cls-5" cx="315.21" cy="2274.1" r="87"/><circle class="cls-6" cx="957.21" cy="1542.1" r="102"/><circle class="cls-7" cx="1718.21" cy="2198.1" r="126"/><circle class="cls-8" cx="411.21" cy="3111.1" r="168"/><circle class="cls-9" cx="2096.71" cy="2607.6" r="197.5"/><circle class="cls-10" cx="459.21" cy="2748.1" r="99"/><circle class="cls-11" cx="1353.21" cy="3312.1" r="126"/><circle class="cls-12" cx="270.21" cy="3630.1" r="126"/><circle class="cls-13" cx="231.21" cy="4266.1" r="159"/><circle class="cls-14" cx="408.21" cy="3918.1" r="90"/><circle class="cls-15" cx="1756.71" cy="4267.6" r="103.5"/><circle class="cls-16" cx="2025.21" cy="3939.1" r="201"/><circle class="cls-17" cx="1899.21" cy="1937.1" r="93"/><circle class="cls-18" cx="2049.21" cy="693.1" r="141"/><circle class="cls-19" cx="2010.21" cy="1107.1" r="87"/><circle class="cls-20" cx="333.21" cy="888.1" r="87"/></svg>