<?xml version="1.0" encoding="utf-8"?>
<!-- Generator: Adobe Illustrator 24.0.3, SVG Export Plug-In . SVG Version: 6.00 Build 0)  -->
<svg version="1.1" id="Layer_1" xmlns="http://www.w3.org/2000/svg" xmlns:xlink="http://www.w3.org/1999/xlink" x="0px" y="0px"
	 viewBox="0 0 1920 611.3" style="enable-background:new 0 0 1920 611.3;" xml:space="preserve">
<style type="text/css">
	.st0{display:none;}
	.st1{display:inline;opacity:0.7;}
	.st2{filter:url(#Adobe_OpacityMaskFilter);}
	.st3{mask:url(#SVGID_1_);}
	.st4{fill:#F8F6F8;}
	.st5{clip-path:url(#SVGID_3_);}
	.st6{fill:url(#SVGID_4_);}
	.st7{fill:url(#SVGID_5_);}
	.st8{fill:url(#SVGID_6_);}
	.st9{fill:url(#SVGID_7_);}
	.st10{fill:url(#SVGID_8_);}
	.st11{fill:url(#SVGID_9_);}
	.st12{fill:url(#SVGID_10_);}
	.st13{fill:url(#SVGID_11_);}
	.st14{fill:url(#SVGID_12_);}
</style>
<g>
	<g class="st0">
		<g class="st1">
			<g>
				<defs>
					<filter id="Adobe_OpacityMaskFilter" filterUnits="userSpaceOnUse" x="0" y="454.4" width="1913.9" height="261.8">
						<feFlood  style="flood-color:white;flood-opacity:1" result="back"/>
						<feBlend  in="SourceGraphic" in2="back" mode="normal"/>
					</filter>
				</defs>
				<mask maskUnits="userSpaceOnUse" x="0" y="454.4" width="1913.9" height="261.8" id="SVGID_1_">
					<g class="st2">
						
							<image style="overflow:visible;" width="1919" height="266" xlink:href="FE1153C3AF3DD64E.jpg"  transform="matrix(1 0 0 1 -2.734 452.2902)">
						</image>
					</g>
				</mask>
				<g class="st3">
					<path d="M1913.9,716.3C1279.9,615.8,634,615.8,0,716.3C0,629,0,541.7,0,454.4c638,0,1275.9,0,1913.9,0
						C1913.9,541.7,1913.9,629,1913.9,716.3z"/>
				</g>
			</g>
		</g>
	</g>
	<g>
		<g>
			<g>
				<g>
					<g>
						<g>
							<g>
								<g>
									<g>
										<rect x="0.2" y="0" class="st4" width="1919.8" height="611.5"/>
									</g>
								</g>
							</g>
						</g>
					</g>
				</g>
			</g>
		</g>
		<g>
			<defs>
				<rect id="SVGID_2_" x="0.2" y="0" width="1919.8" height="611.5"/>
			</defs>
			<clipPath id="SVGID_3_">
				<use xlink:href="#SVGID_2_"  style="overflow:visible;"/>
			</clipPath>
			<g class="st5">
				<g>
					
						<image style="overflow:visible;opacity:0.8;" width="1977" height="975" xlink:href="FE1153C3AF3DD652.png"  transform="matrix(1 0 0 1 382.3029 -187.6729)">
					</image>
					<g>
						
							<linearGradient id="SVGID_4_" gradientUnits="userSpaceOnUse" x1="408.0081" y1="-42.586" x2="974.9609" y2="1433.9836" gradientTransform="matrix(-1 0 0 1 1906.7174 0)">
							<stop  offset="0" style="stop-color:#1086FB"/>
							<stop  offset="1" style="stop-color:#28F5FB"/>
						</linearGradient>
						<path class="st6" d="M627.4,61.3c55.4,14.9,114.5-0.8,151.5-44.7c76.2-90.4,190.2-147.8,317.6-147.8
							c186.7,0,344.5,123.3,396.8,292.8c7.5,24.3,29.2,42.1,54.6,43.8c0.4,0,0.7,0,1.1,0.1c30.8,2.2,59.2-17.8,64.9-48.1
							c22.2-118.7,126.4-209,252.1-209c150.1,0,258.7,124.5,256.7,260.5c-0.7,51.3,27.1,97.5,71.9,122.4
							c45.9,25.5,77,74.8,76.6,131.2c-0.6,80.3-67.3,147-147.6,147.6c-56.4,0.4-105.7-30.7-131.2-76.6
							c-24.5-44.1-69.7-73.4-120.1-72.2c-0.9,0-1.7,0-2.6,0.1c-52,0.8-99.4,30.9-120.4,78.5c-54.5,123.4-209.4,178.3-329.9,113.3
							c-41.5-22.4-91.5-21-133.4,0.7c-214.7,111.2-483.6,9.9-573.7-210.7c-21.2-51.9-70.4-88.7-126.4-89.6
							c-75.8-1.2-147.3-60.8-147.3-148.7C438.6,97.2,540.8,38,627.4,61.3z"/>
					</g>
				</g>
				<g>
					
						<image style="overflow:visible;opacity:0.8;" width="1047" height="1574" xlink:href="FE1153C3AF3DD655.png"  transform="matrix(1 0 0 1 7.4487 -557.527)">
					</image>
					<g>
						
							<linearGradient id="SVGID_5_" gradientUnits="userSpaceOnUse" x1="469.4317" y1="-285.0832" x2="647.7324" y2="860.5976" gradientTransform="matrix(0.3872 -0.922 -0.922 -0.3872 308.9311 758.0146)">
							<stop  offset="0" style="stop-color:#1086FB"/>
							<stop  offset="1" style="stop-color:#28F5FB"/>
						</linearGradient>
						<path class="st7" d="M600.5-287.6c-11.4,55.4-7.7,119.7,37.3,134.3c1.1,0.4,2.2,0.7,3.3,1.1c30.5,10.4,63.1-5.2,75.6-34.9
							c29.1-69,109.6-109.7,186.7-81.2c74.5,27.6,113.7,107.3,89.3,182.9C972.2-22.3,914.4,16.5,853.1,16.8
							c-31.5,0.1-57.4,25.5-59.1,57c-4.3,83.4-55.1,158.3-130.2,193.4c-38.7,18.1-54.8,65.4-35.4,103.5
							c40,78.4,46.4,173.3,9.7,260.8C593.8,737,498,805.1,392.1,818.9c-33.6,4.4-60.5,29.8-66.6,63.1c-10.2,55.7-70.3,98-132.1,72.1
							c-56.7-23.8-72.3-88.5-47.1-135.1c15.7-29.1,9.6-65.4-13.7-88.8c-86-86.4-116.3-219.5-66.1-338.9
							c41-97.7,126.2-163.3,222.6-183.5c42-8.8,69.2-50.7,59.1-92.4c-16.4-67.8-0.5-140.4,43.3-195.1c20.6-25.7,16.6-62.4-8.5-83.8
							c-42.8-36.5-60.8-98.5-37-155.2c16.5-39.3,49.5-66.8,87.6-77.6c26.2-7.5,47-27.7,53-54.4c11.7-51.9,68.8-88.2,125-64.6
							c77.8,32.6,53.1,102.1,16.7,154.4C617.2-345.1,606.6-317.7,600.5-287.6z"/>
					</g>
				</g>
				<g>
					
						<image style="overflow:visible;opacity:0.8;" width="1418" height="1092" xlink:href="FE1153C3AF3DD656.png"  transform="matrix(1 0 0 1 1021.8707 16.895)">
					</image>
					<g>
						
							<linearGradient id="SVGID_6_" gradientUnits="userSpaceOnUse" x1="607.356" y1="403.045" x2="-798.8123" y2="866.3679" gradientTransform="matrix(-1 0 0 1 1906.7174 0)">
							<stop  offset="0" style="stop-color:#1086FB"/>
							<stop  offset="4.077369e-02" style="stop-color:#128FFB"/>
							<stop  offset="0.235" style="stop-color:#1AB4FB"/>
							<stop  offset="0.4298" style="stop-color:#20D0FB"/>
							<stop  offset="0.6231" style="stop-color:#24E5FB"/>
							<stop  offset="0.814" style="stop-color:#27F1FB"/>
							<stop  offset="1" style="stop-color:#28F5FB"/>
						</linearGradient>
						<path class="st8" d="M1305.6,837.4c42.3-36.7,78.1-89.5,51.5-128c-0.6-0.9-1.3-1.9-1.9-2.8c-17.7-26.6-52.8-33.9-80.5-18
							c-64.4,36.8-152.2,20.4-195.7-48.5c-42-66.5-24.9-152.8,39.8-197.6c54.1-37.5,123-33.2,171.3,3.4
							c24.9,18.8,60.5,14.5,80.7-9.3c53.6-63,138.6-91.3,218.8-73.8c41.3,9,82.5-18.5,90.1-60.1c15.8-85.7,67.8-164.2,149.3-211
							c98.3-56.3,214.7-52.2,306.3,0.6c29.1,16.8,65.5,13,90.4-9.6c41.6-37.7,114.3-34.8,147.3,22.8c30.3,52.8,3.6,113.2-44.2,134.6
							c-29.9,13.4-46.9,45.7-42.6,78.1c15.6,119.7-40.6,242.6-151.9,306.3c-91,52.1-197.5,52.5-285.5,10.4
							c-38.3-18.4-84.9-1.7-102.1,37.1c-27.9,63.3-84.1,110.7-151.5,127.4c-31.7,7.8-50.6,39.1-43.8,71
							c11.7,54.5-11.4,114.1-64.2,144.3c-36.7,21-79.1,22.7-115.6,8.3c-25.1-9.9-53.7-6.5-74.4,10.8
							c-40.4,33.7-107.2,27.9-137.2-24.5c-41.6-72.5,19.7-112.3,79.8-131.5C1257.9,872.5,1282.7,857.3,1305.6,837.4z"/>
					</g>
				</g>
				<g>
					
						<image style="overflow:visible;opacity:0.8;" width="2061" height="971" xlink:href="FE1153C3AF3DD654.png"  transform="matrix(1 0 0 1 -544.9879 -229.9637)">
					</image>
					<g>
						
							<linearGradient id="SVGID_7_" gradientUnits="userSpaceOnUse" x1="1659.7992" y1="-471.5708" x2="1236.2593" y2="976.7571" gradientTransform="matrix(-1 0 0 1 1906.7174 0)">
							<stop  offset="0" style="stop-color:#1086FB"/>
							<stop  offset="1" style="stop-color:#28F5FB"/>
						</linearGradient>
						<path class="st9" d="M-309.8,99.3c58.6,8.4,117.2-15,149.6-64.5c66.8-102,176.5-175,307.1-190.8
							C338.1-179.1,515-72.4,589.5,94.8c10.7,24,35.1,39.5,61.4,38.1c0.4,0,0.7,0,1.1-0.1c31.8-1.5,58.4-25.6,60.5-57.3
							c8.1-124.4,103.6-229.8,232.4-245.3c153.7-18.6,280.4,95.5,295.2,235c5.6,52.6,39.8,96.5,88.8,116.5
							c50.2,20.4,88.1,67.1,94.7,124.9c9.3,82.3-50.8,158.9-132.9,169.4c-57.8,7.4-112.1-18.3-143.9-62.2
							c-30.6-42.1-80.5-66.6-132-59.1c-0.9,0.1-1.8,0.3-2.6,0.4c-53.2,7.2-98,44-113.6,95.3C873,535,798.7,588.8,711.9,595.6
							c-92.5,7.3-173.4-50.4-264.3-54.9c-80.7-3.9-139.4,50.3-209.6,79.4c-47.6,19.8-103.8,30.4-155.4,29.3
							c-114.1-2.5-204.1-72.4-258.2-169.6c-28.2-50.6-83.1-82.1-140.6-76.1c-77.8,8.2-158.4-44-169.3-134.1
							C-498.9,159.5-401.4,86.1-309.8,99.3z"/>
					</g>
				</g>
				<g>
					
						<image style="overflow:visible;opacity:0.8;" width="249" height="249" xlink:href="FE1153C3AF3DD653.png"  transform="matrix(1 0 0 1 1598.1017 -92.8741)">
					</image>
					<g>
						
							<linearGradient id="SVGID_8_" gradientUnits="userSpaceOnUse" x1="144.4536" y1="-188.005" x2="267.0325" y2="321.1675" gradientTransform="matrix(-1 0 0 1 1906.7174 0)">
							<stop  offset="0" style="stop-color:#1086FB"/>
							<stop  offset="4.077369e-02" style="stop-color:#128FFB"/>
							<stop  offset="0.235" style="stop-color:#1AB4FB"/>
							<stop  offset="0.4298" style="stop-color:#20D0FB"/>
							<stop  offset="0.6231" style="stop-color:#24E5FB"/>
							<stop  offset="0.814" style="stop-color:#27F1FB"/>
							<stop  offset="1" style="stop-color:#28F5FB"/>
						</linearGradient>
						<circle class="st10" cx="1712" cy="20.9" r="78.6"/>
					</g>
				</g>
				<g>
					
						<image style="overflow:visible;opacity:0.8;" width="284" height="283" xlink:href="FE1153C3AF3DD65D.png"  transform="matrix(1 0 0 1 58.7713 327.7955)">
					</image>
					<g>
						
							<linearGradient id="SVGID_9_" gradientUnits="userSpaceOnUse" x1="1659.9659" y1="219.3539" x2="1799.7256" y2="799.8923" gradientTransform="matrix(-1 0 0 1 1906.7174 0)">
							<stop  offset="0" style="stop-color:#1086FB"/>
							<stop  offset="4.077369e-02" style="stop-color:#128FFB"/>
							<stop  offset="0.235" style="stop-color:#1AB4FB"/>
							<stop  offset="0.4298" style="stop-color:#20D0FB"/>
							<stop  offset="0.6231" style="stop-color:#24E5FB"/>
							<stop  offset="0.814" style="stop-color:#27F1FB"/>
							<stop  offset="1" style="stop-color:#28F5FB"/>
						</linearGradient>
						<circle class="st11" cx="189.4" cy="457.6" r="89.6"/>
					</g>
				</g>
				<g>
					
						<image style="overflow:visible;opacity:0.8;" width="139" height="140" xlink:href="FE1153C3AF3DD65E.png"  transform="matrix(1 0 0 1 556.0743 -63.9014)">
					</image>
					<g>
						
							<linearGradient id="SVGID_10_" gradientUnits="userSpaceOnUse" x1="1259.1691" y1="-116.5302" x2="1327.5399" y2="167.4709" gradientTransform="matrix(-1 0 0 1 1906.7174 0)">
							<stop  offset="0" style="stop-color:#1086FB"/>
							<stop  offset="4.077369e-02" style="stop-color:#128FFB"/>
							<stop  offset="0.235" style="stop-color:#1AB4FB"/>
							<stop  offset="0.4298" style="stop-color:#20D0FB"/>
							<stop  offset="0.6231" style="stop-color:#24E5FB"/>
							<stop  offset="0.814" style="stop-color:#27F1FB"/>
							<stop  offset="1" style="stop-color:#28F5FB"/>
						</linearGradient>
						<circle class="st12" cx="619.5" cy="0" r="43.8"/>
					</g>
				</g>
				<g>
					
						<image style="overflow:visible;opacity:0.8;" width="139" height="140" xlink:href="FE1153C3AF3DD65C.png"  transform="matrix(1 0 0 1 200.0743 114.0986)">
					</image>
					<g>
						
							<linearGradient id="SVGID_11_" gradientUnits="userSpaceOnUse" x1="1615.1691" y1="61.4698" x2="1683.5399" y2="345.4709" gradientTransform="matrix(-1 0 0 1 1906.7174 0)">
							<stop  offset="0" style="stop-color:#1086FB"/>
							<stop  offset="4.077369e-02" style="stop-color:#128FFB"/>
							<stop  offset="0.235" style="stop-color:#1AB4FB"/>
							<stop  offset="0.4298" style="stop-color:#20D0FB"/>
							<stop  offset="0.6231" style="stop-color:#24E5FB"/>
							<stop  offset="0.814" style="stop-color:#27F1FB"/>
							<stop  offset="1" style="stop-color:#28F5FB"/>
						</linearGradient>
						<circle class="st13" cx="263.5" cy="178" r="43.8"/>
					</g>
				</g>
				<g>
					
						<image style="overflow:visible;opacity:0.8;" width="140" height="140" xlink:href="B8811B4853EFF991.png"  transform="matrix(1 0 0 1 993.0743 443.0986)">
					</image>
					<g>
						
							<linearGradient id="SVGID_12_" gradientUnits="userSpaceOnUse" x1="821.6374" y1="390.4029" x2="890.0083" y2="674.404" gradientTransform="matrix(-1 0 0 1 1906.7174 0)">
							<stop  offset="0" style="stop-color:#1086FB"/>
							<stop  offset="4.077369e-02" style="stop-color:#128FFB"/>
							<stop  offset="0.235" style="stop-color:#1AB4FB"/>
							<stop  offset="0.4298" style="stop-color:#20D0FB"/>
							<stop  offset="0.6231" style="stop-color:#24E5FB"/>
							<stop  offset="0.814" style="stop-color:#27F1FB"/>
							<stop  offset="1" style="stop-color:#28F5FB"/>
						</linearGradient>
						<circle class="st14" cx="1057" cy="506.9" r="43.8"/>
					</g>
				</g>
			</g>
		</g>
	</g>
</g>
</svg>
