<?xml version="1.0" encoding="utf-8"?>
<!-- Generator: Adobe Illustrator 22.0.1, SVG Export Plug-In . SVG Version: 6.00 Build 0)  -->
<svg version="1.1" id="Layer_1" xmlns="http://www.w3.org/2000/svg" xmlns:xlink="http://www.w3.org/1999/xlink" x="0px" y="0px"
	 viewBox="0 0 268.4 794" style="enable-background:new 0 0 268.4 794;" xml:space="preserve">
<style type="text/css">
	.st0{fill:none;stroke:#CCCCCC;stroke-width:3.2725;stroke-linecap:round;stroke-linejoin:round;stroke-miterlimit:10;}
	.st1{fill:#D88D71;}
	.st2{fill:#EF9D78;}
	.st3{fill:#FFBA85;}
	.st4{fill:none;stroke:#680100;stroke-width:3.2725;stroke-linecap:round;stroke-linejoin:round;stroke-miterlimit:10;}
	.st5{stroke:#680100;stroke-width:3.2725;stroke-linecap:round;stroke-linejoin:round;stroke-miterlimit:10;}
	.st6{fill:#FFFFFF;}
	.st7{fill:#0084E0;}
	.st8{fill:none;stroke:#D88D71;stroke-width:3.2725;stroke-linecap:round;stroke-linejoin:round;stroke-miterlimit:10;}
	.st9{fill:#2E3192;}
	.st10{fill:#434BAA;}
	.st11{fill:#A6CFE8;}
	.st12{fill:#29ABE2;}
	.st13{fill:none;stroke:#0084E0;stroke-width:3.2725;stroke-linecap:round;stroke-linejoin:round;stroke-miterlimit:10;}
	.st14{fill:#2E86B7;}
	.st15{fill:none;stroke:#256C84;stroke-width:3.2725;stroke-linecap:round;stroke-linejoin:round;stroke-miterlimit:10;}
	.st16{fill:#8DAFC6;}
	.st17{fill:#7794A0;}
	.st18{fill:#256C84;}
	.st19{fill:none;stroke:#7794A0;stroke-width:3.2725;stroke-linecap:round;stroke-linejoin:round;stroke-miterlimit:10;}
</style>
<g>
	<g>
		<path class="st0" d="M239.7,183.7c9.1-5,14.4-4.6,14.4-4.6"/>
		<path class="st0" d="M229.1,182c0,0,4.1-9.9,3.7-14.8"/>
		<path class="st0" d="M219.4,184.5c-7.3-6.3-13.1-5.9-13.1-5.9"/>
		<path class="st1" d="M133.8,164.7c0,0-2,7,0,12.7c2,5.7,10.2,11,10.2,11l0.6,20.1c0,0-32.2,13.6-49.6,7.3
			c-17.4-6.3-16.8-40.1-16.8-40.1s9.8-1.3,13.5-6.1c3.7-4.8,6.1-11.4,6.1-11.4L133.8,164.7z"/>
		<path class="st2" d="M90.9,170.5c1,4.8,4.5,11.9,15.6,18.6c9.9,5.9,25.4,8.9,37.9,10.4l0.3,8.9c0,0-32.2,13.6-49.6,7.3
			c-17.4-6.3-16.8-40.1-16.8-40.1S86.7,174.5,90.9,170.5z"/>
		<path class="st2" d="M161.1,158.2c-15.1,10.4-32.2,13-51.2,8.2s-34.8-28.9-34.8-28.9L123,40.4l36.6,1.7L189,111
			C189,111,173.3,149.8,161.1,158.2z"/>
		<g>
			<path class="st3" d="M120.3,167.3c-12.3-3.1-22.3-12.5-25.4-21.1c-5.2-14.3-4.7-25-0.1-35.7S110,86,129.6,78.1s36.7,0.5,36.7,0.5
				l4.2-4.9l16.6,38.8c0,0-15.7,38.8-27.9,47.2c-3.6,2.5-7.4,4.5-11.2,6.1C140.8,167.6,128,169.2,120.3,167.3z"/>
		</g>
		<path class="st4" d="M176.5,103.3c0,0-4.7-3.2-6.9-3.6s-7.5,0.4-7.5,0.4"/>
		<path class="st4" d="M135.5,90.2c0,0-7.9-3.7-14.1-1.7"/>
		<path class="st4" d="M145.1,103.3c0,0-2.6,9.2-1.6,14.6c1,5.4,3.5,9.9,0.2,12.7c-3.3,2.8-10.2-1.2-10.2-1.2"/>
		<path class="st4" d="M143.4,145.4c0,0-3.9,4.4-10.1,2.7c-6.3-1.7-8.5-6.8-8.5-6.8"/>
		<ellipse class="st5" cx="164.4" cy="120.8" rx="5.9" ry="5.8"/>
		<path class="st5" d="M174.7,114.8c0,0-6.5-0.9-9.8,0.2"/>
		<ellipse class="st5" cx="121.2" cy="106.9" rx="5.9" ry="5.8"/>
		<ellipse class="st6" cx="167.2" cy="119.4" rx="2.5" ry="2.4"/>
		<ellipse class="st6" cx="119.8" cy="104.3" rx="2.5" ry="2.4"/>
		<path class="st5" d="M114,97.5c0,0,6.4,1.6,9,3.9"/>
		<path class="st7" d="M151.1,44.7c0,0,0.9,17.2,8.3,27.6s17.3,22.8,21.3,32.9s4.2,14.4,3.6,16.8c-0.6,2.4-10.8,24.1-18.2,31.2
			c-7,6.8-18,13.5-24.9,14.4c-6.9,0.9-8.2,1.4-8.2,1.4s-4.2,8.9,5,14.9c9.2,6,36,15.9,36,15.9s23.9-20,30.1-51.5
			c6.3-31.6,0.2-66.8-9.8-80s-13.7-14.2-22.6-18.9C162.9,44.6,151.1,44.7,151.1,44.7z"/>
		<path class="st7" d="M151.6,46.9c3.1,16-24.3,25.3-34,33.5c-10.3,8.7-19.2,18.9-23.3,26.8c-7.1,13.6-16,35,3.1,52.3
			c0,0-2.5,8.2-7.5,11.5c-5,3.3-53.3,27-53.3,27l14.6,136c0,0-28.3-4.1-40.8-35.5s-15.1-76.2,0.9-125.2
			c16.1-49.1,89.1-131.6,89.1-131.6L151.6,46.9z"/>
		<path class="st8" d="M204,91.6"/>
		<path class="st9" d="M134.3,20.1c0,0-23.7-18.2-35.7-20S50.3,21.6,46,26.8S35.7,67.2,35.7,67.2L134.3,20.1z"/>
		<path class="st10" d="M203.5,92.1c0,0-8-28.6-34.1-39.7s-67.6-2.9-94.5,24.6s-41.2,53.3-41.2,53.3s-44.4-30.1,9.9-76.6
			s127-46.3,157.1-18.4S213.7,88.5,203.5,92.1z"/>
		<path class="st11" d="M170.3,305.6L158,238.1l-16.2-28.9c0,0-28.3,11.4-42.3,7.7S81,200.7,81,200.7l-4.7,27.2l-6.5,93.9
			c0,0,37.2,3.4,61.5-0.4C155.5,317.5,170.3,305.6,170.3,305.6z"/>
		<g>
			<g>
				<path class="st6" d="M128.4,273.9c-8-4.7-13.4-9.6-16.9-14.8C115,264.3,120.4,269.2,128.4,273.9z"/>
				<path class="st6" d="M111.8,231.2c-0.4,0.3-0.9,0.6-1.3,1C110.9,231.8,111.4,231.5,111.8,231.2z"/>
				<polygon class="st6" points="144.5,269.1 144.5,269.1 144.5,269.1 				"/>
				<path class="st6" d="M131.7,275.7C131.7,275.7,131.7,275.7,131.7,275.7c-1.2-0.6-2.3-1.2-3.3-1.9
					C129.5,274.5,130.6,275.1,131.7,275.7C131.7,275.7,131.7,275.7,131.7,275.7z"/>
				<path class="st6" d="M109.9,232.8c-0.4,0.4-0.8,0.8-1.1,1.3C109.1,233.6,109.5,233.2,109.9,232.8z"/>
			</g>
			<g>
				<path class="st6" d="M129.9,247.7c0.2-0.5,0.4-1,0.6-1.6C130.3,246.7,130.1,247.2,129.9,247.7z"/>
				<path class="st6" d="M130.8,245c0.1-0.4,0.2-0.8,0.3-1.1C131,244.2,130.9,244.6,130.8,245z"/>
				<path class="st6" d="M129.4,249c0.1-0.3,0.3-0.6,0.4-1C129.6,248.3,129.5,248.7,129.4,249z"/>
				<path class="st6" d="M100.4,269.7c-0.8-0.3-1.6-0.5-2.4-0.6c0,0,0,0,0,0C98.8,269.2,99.6,269.5,100.4,269.7z"/>
				<path class="st6" d="M126.9,264.1c-2.1,2.2-4.6,4.3-7.5,6.3C122.3,268.3,124.8,266.2,126.9,264.1z"/>
				<path class="st6" d="M110.7,275.7C110.7,275.7,110.7,275.7,110.7,275.7c3.3-1.8,6.1-3.5,8.7-5.3
					C116.9,272.2,114,274,110.7,275.7z"/>
				<path class="st6" d="M100.6,269.8c-0.1,0-0.2-0.1-0.3-0.1C100.5,269.8,100.6,269.8,100.6,269.8z"/>
				<g>
					<path class="st6" d="M115,263.5c0.4-0.2,0.8-0.4,1.2-0.6c0.6-0.3,1.1-0.6,1.7-0.9c1.2-0.7,2.3-1.4,3.3-2.1
						c1.8,1.3,4,2.5,6.2,3.6c-0.2,0.2-0.3,0.3-0.5,0.5c-1.6,1.7-3.5,3.4-5.7,5C118.9,267.2,116.8,265.4,115,263.5z"/>
					<path class="st6" d="M101.5,268.6c0.2,0,0.4-0.1,0.6-0.1c1.1-0.3,2.3-0.6,3.6-1c0.3-0.1,0.7-0.2,1-0.3c1.7-0.6,3.3-1.2,5-2
						c1.9,2.1,4,4.1,6.5,6.1c-2.4,1.6-5.1,3.2-7.9,4.7c0.2,0.1,0.3,0.3,0.5,0.4c-4.1-3.3-8.4-5.6-12.8-7.2h0
						C99,269,100.2,268.9,101.5,268.6z"/>
					<path class="st6" d="M113.2,278.3c3-1.6,5.6-3.3,8-5c2.5,1.7,5.2,3.4,8.2,5l0.2-0.2c-2.8,2.7-5.4,5.9-8.3,9.9
						c-2.7-4.2-5.7-7.6-8.7-10.4C112.7,277.9,113,278.2,113.2,278.3z"/>
					<path class="st6" d="M128.4,273.9c-1.5-0.9-2.9-1.8-4.2-2.7c2.5-2,4.7-4,6.5-6.1c5,2.2,10.2,3.8,13.8,4h0
						c-5.2,1.8-9,4-12.5,6.9l0.1-0.1C130.9,275.3,129.5,274.5,128.4,273.9z"/>
				</g>
				<path class="st6" d="M100.6,269.8"/>
			</g>
			<g>
				<path class="st6" d="M125.5,251.8l6.8-23.6c2.2,0.4,4.2,0.8,6.1,1.3L125.5,251.8z"/>
				<g>
					<path class="st6" d="M131.6,241.3l-6,10.4l4.9-16.9C131.5,236.7,131.8,238.9,131.6,241.3z"/>
					<path class="st6" d="M125.5,255.4c0.1-0.1,2-2.9,2.1-3l0.5-0.8c-1.2,2.1-2.6,4.1-4,5.6L125.5,255.4z"/>
					<path class="st6" d="M153.1,235.2c-5.9,11.6-9.8,21.5-9.1,30.4c-2.9-0.3-7-1.6-11-3.3c4.4-6,6.5-12.6,6.5-20.3
						c0-2.7-0.5-5.2-1.5-7.4l2.6-4.5C144.7,231.4,148.9,233.1,153.1,235.2z"/>
					<path class="st6" d="M128,251.7l7.6-13c0.1,0.7,0.3,1.4,0.3,2.2c0,0.4,0,0.8,0,1.2c0,1.4-0.1,2.7-0.2,4
						c-0.5,4-1.6,7.7-3.7,11.2c-0.2,0.4-0.5,0.8-0.7,1.2c-0.5,0.8-1,1.5-1.6,2.3c-2.1-1-4.1-2.2-5.8-3.3l0.1-0.2
						C125.4,255.7,126.8,253.8,128,251.7z"/>
				</g>
			</g>
			<g>
				<path class="st6" d="M122.3,227.2c2.8,0.1,5.4,0.3,7.8,0.6l-7.8,27"/>
				<g>
					<path class="st6" d="M122.3,254.8l0-0.9c0.1-0.2,0.3-0.3,0.4-0.5L122.3,254.8z"/>
					<path class="st6" d="M122.3,233.9"/>
				</g>
			</g>
			<g>
				<path class="st6" d="M112.4,227.9c2.7-0.4,5.3-0.6,7.8-0.6l0,27.6L112.4,227.9z"/>
				<path class="st6" d="M113.5,230.2c-0.1,0.1-0.3,0.2-0.4,0.2l-0.2-0.6h1.5C114.1,229.9,113.8,230,113.5,230.2z"/>
			</g>
			<g>
				<path class="st6" d="M104.2,229.5c2-0.5,4.1-1,6-1.3l6.7,23.4L104.2,229.5z"/>
				<g>
					<path class="st6" d="M115.6,253.6c0.9,1.5,1.9,2.8,2.9,3.9c-1.7,1.2-3.7,2.3-5.8,3.3c-0.4-0.6-0.9-1.2-1.3-1.7
						c-3.5-5.2-5-10.8-5-17c0-0.4,0-0.8,0-1.2c0.1-0.8,0.2-1.5,0.3-2.2l8.2,14.1C115.1,252.7,115.3,253.1,115.6,253.6z"/>
					<path class="st6" d="M89.1,235.2c4.3-2.1,8.6-3.8,12.9-5l2.6,4.4c-1,2.2-1.6,4.7-1.6,7.5c0,7.6,2.1,14.3,6.4,20.3
						c-4.1,1.7-8.2,3-11.1,3.3C98.9,255.8,95.7,245.7,89.1,235.2z"/>
					<g>
						<path class="st6" d="M112.1,234.8l4.8,16.8l-6-10.5l0,0C110.7,238.8,111,236.6,112.1,234.8z"/>
						<path class="st6" d="M115.5,253.4c1.8,2.9,3.9,5.2,5.7,6.5c6.8,4.7,17.3,8.8,23.2,9.2c0,0,0,0,0,0c-4.2,0.8-8.4,3.3-12.7,6.6
							c0,0,0,0,0,0c-1.2-0.6-2.3-1.2-3.3-1.9c-8-4.7-13.4-9.6-16.9-14.8c-3.5-5.2-5-10.8-5-17c0-0.4,0-0.8,0-1.2
							c0.1-0.8,0.2-1.5,0.3-2.2l8.2,14.1C115,252.7,115.2,253,115.5,253.4z"/>
					</g>
				</g>
			</g>
		</g>
		<path class="st12" d="M149.1,184c0,0,24.4,6.2,29.3,12.5c4.9,6.3,17.4,47.9,19.4,68.3l-20.1,64l-14.2-21.6c0,0-8.4-70.4-11.4-77.2
			c-3-6.8-15.3-22.5-15.3-22.5L149.1,184z"/>
		<path class="st12" d="M76,308.8c0,0,11-25.3,13-41c2.2-17.5-1.4-54.2-5.2-68.2c-3.8-14-7-25.9-7-25.9s-37.8,10.7-42,17.9
			c-4.3,7.2-6.1,58.1-4.6,74.8c1.5,16.7,37.4,12.1,37.4,12.1l3,40.6L76,308.8z"/>
		<path class="st12" d="M161,185c0,0-18.7-6.4-19.5-6c-0.9,0.3-9.5,20.3-10.1,23.5c-0.7,3.2,36.9,17.2,39,14.3
			C172.5,213.9,162.5,186.7,161,185z"/>
		<path class="st12" d="M81,170.9c-4.3-2.3-19.5,4.2-19.9,6.2c-0.4,2-10.3,35.9-7.9,38.6c2.5,2.6,38.2-16.4,38.6-19.2
			C92.3,193.6,84.5,172.8,81,170.9z"/>
		<path class="st13" d="M139,209.9c7.1,7.9,20.1,30.5,18.7,47.8c-2.1,26.5,6.8,52.6,6.8,52.6"/>
		<path class="st13" d="M161.8,241.4c0.3,2.7,0.9,19.4,0.9,19.4"/>
		<path class="st3" d="M129.1,429.6c0,0-3.9,23-5.9,35.1s-2.1,15.8-2.1,15.8s23.1,9.6,38.6,9s30.2-4.3,30.7-5.3
			c0.5-1,7.8-17.6,10.8-40c3-22.4,3-44.3,3-44.3L129.1,429.6z"/>
		<path class="st3" d="M113.3,426.9l0.5,41.9c0,0-18,8.8-28.7,11S51.4,479,51.4,479s-6.7-19.5-8.6-36.2s0.3-41.9,0.3-41.9
			L113.3,426.9z"/>
		<path class="st14" d="M209.2,402.9c-2-10.4-5.3-30.9-17.1-51c-11.8-20.1-29.2-44.8-29.2-44.8s-8.3,8.5-36.7,10.6
			c-28.4,2-51.6-4.1-51.6-4.1S59.9,338.8,52.8,356c-7.2,17.4-12.5,35.4-13.7,45.1c-1.2,9.7,75.8,18.9,75.8,18.1
			c0.1-0.8,2.4-19.2,8-19.4c5.6-0.2,5.5,23.9,5.5,23.9L209.2,402.9z"/>
		<path class="st15" d="M124.2,337.7c0,0,2.4,20.8,2.2,33.7s-2.2,24.1-2.2,24.1"/>
		<path class="st15" d="M150,383.1c-0.6,0.4-16.9,8.1-21.1,13.2"/>
		<path class="st15" d="M121,395.5c0,0-8.2-8.4-21.7-10.1"/>
		<path class="st15" d="M169.9,319.3c-5.7,4-24.6,11.8-31.5,13.3s-17.1,1.4-17.7,0.3c-0.5-1.1-1.6-8.4-1-14.4"/>
		<path class="st15" d="M115.8,332.8c-1.5,0.2-24.9,1.3-41.2-2.6"/>
		<ellipse class="st15" cx="127.8" cy="325.7" rx="3.7" ry="3.7"/>
		<path class="st15" d="M151.4,333.7c0,0-0.3,16.3,14.2,23.2c14.5,6.9,30.5,7.1,30.5,7.1"/>
		<path class="st15" d="M89.4,334.4c0,0-2.4,17.5-7.2,23.3c-7.5,9-32.9,9.6-32.9,9.6"/>
		<path class="st11" d="M213.9,392.8l0.3,17c0,0-8.6,9.9-41.8,17.1c-33.1,7.2-47.6,7.7-47.6,7.7l0-15.5c0,0,32.7-3.9,49.1-8.6
			C195.5,404.4,213.9,392.8,213.9,392.8z"/>
		<path class="st11" d="M119.9,419.3l-2,14.5c0,0-23.4-1.9-46.6-7c-26.1-5.7-39.8-14.8-39.8-14.8l3.5-15.7c0,0,10.4,9.2,41.6,16
			C102.8,418.1,119.9,419.3,119.9,419.3z"/>
		<path class="st9" d="M260,190.7c0,0-41.5-3.8-44.2,0c-2.8,3.9-17.5,70-15.3,71s39.3,3.1,40.1,0.7S259,199.3,260,190.7z"/>
		<path class="st3" d="M200.2,290.1l0.8,17.2c0,0,32.1-47.3,38.7-53.6l-10.5,4.1c0,0-7.5-15.6-5.6-22.8c0,0,20.8-7.2,18.4-10
			c-1.8-2-15.5,1.5-15.5,1.5s-2.7-3.8,3-6.8c1.7-0.9,22.8-3.1,26.1-0.1c3.3,3,13.2,16.8,12.8,21.4s-11.8,14-13.9,18.8
			c-2,4.7-41.3,69.4-45.6,74.8s-24.8,11.7-28.7,7.8c-3.8-3.8-6.9-40.6-6.9-40.6L200.2,290.1z"/>
		<path class="st11" d="M167.6,305.5c3.9,1.5,45-18.2,44-20.1c-2.4-4.5-9.1-19-11.6-19.2c-2.5-0.2-30.9,5.9-33.3,6.2
			C164.2,272.8,163.7,304,167.6,305.5z"/>
		<path class="st3" d="M37.1,294.1c0,0,1.8,18.4,4.7,33.3c2.9,14.9,6.6,26.7,11.5,27.3c4.9,0.7,49-31.5,63.6-42.1
			c14.6-10.6,29.9-27,35.8-27.7c5.8-0.6,22.3,6.4,29,2c6.7-4.4,3.7-35.4,6.4-38.4c2.7-3.1,12.3,0.7,13.5-4.4c1.2-5.1-6.4-6-10-6
			s-10.3,1.4-13.5,3.8s-18.1,19.8-28.7,25s-42.4,23-50,27.6c-9.5,5.8-27.5,17.7-27.5,17.7l-3.8-28.1L37.1,294.1z"/>
		<path class="st11" d="M24,271.2c-2.2,1.1,1.4,20.9,4.5,23.4s41.9-3.6,44.7-4.6c2.8-1,1.1-18.5-3.7-21.1
			C64.8,266.3,29.8,268.2,24,271.2z"/>
		<path class="st16" d="M185,498.8c0,0-7.7,21.9-12.4,31.7s-12.5,24.7-13,28.4c-0.5,3.6,10.4,9,16.6,28.9
			c6.2,19.9-1.1,113.9-1.1,113.9l-24.9,4.8c0,0-6.6-53.8-17.1-79.2c-10.5-25.3-22.8-64.7-22.8-64.7s-1.9-9.3-0.4-23.5
			c1.6-14.2,11.4-60.2,11.4-60.2L185,498.8z"/>
		<path class="st16" d="M114.4,469.3c0,0,3.9,48.7,3.8,80.2c-0.1,31.5-5.3,73.5-6.2,90s-1.5,54.2-1.5,54.2l-11.8,8.3L86.9,693
			c0,0-18.7-60.1-20.5-78.2c-1.8-18.1,6.5-50.3,5.8-58.6c-0.8-8.2-18.1-51.5-21.5-78.9L114.4,469.3z"/>
		<path class="st17" d="M196.6,480.5l-6.6,18.1c0,0-22.8,1.5-41.8-2.5c-19.1-4-29.7-12.2-29.7-12.2l2.3-16.2
			c0,0,11.3,10.5,31.9,13.4S196.6,480.5,196.6,480.5z"/>
		<path class="st17" d="M116.2,464.5c0,0-11.7,6.6-33.3,9.2c-21.6,2.6-36.5-2.3-36.5-2.3l3.9,16c0,0,17.5,2.4,35.8,0.8
			s31.9-9.5,31.9-9.5L116.2,464.5z"/>
		<path class="st3" d="M151.4,568.2c0,0-12.2-22.2-21.9-20.1s-6,25.3-4.8,28.4c1.2,3.2,11.5,3.2,16.6,1.3S151,570.4,151.4,568.2z"/>
		<path class="st3" d="M100,546.2c-5.3-0.4-15.5,13.9-15.8,20.2c-0.3,6.3,24.1,8.2,26.2,2.3C111.7,564.6,110.4,547,100,546.2z"/>
		<path class="st14" d="M185.1,686.5c0,0,8.4,34.4,9.6,44.7c1.2,10.3-1.3,39.7-5.9,45.3c-4.6,5.6-16.4,8.7-29.9,8
			c-13.5-0.7-18.1-2.5-19.2-5.2c-1-2.7-0.6-9.9,2.4-14.9c3.1-5.1,16.7-19.9,15.6-32.9c-1-12.9-20.2-33.7-20.2-33.7l21.6,2.9
			l20.3-6.2L185.1,686.5z"/>
		<path class="st14" d="M123.9,689.6c0,0-6.4,33.4-7.2,40.5c-0.8,7.1,8.9,24.8,9.7,30.6c0.8,5.8,1.6,12.8,0.9,14
			c-0.7,1.2-12.8,5.7-26.1,4.7c-13.3-1.1-26.6-5.2-27-8.3c-0.4-3.1,3.9-28.4,6.8-36c1.8-4.8-0.6-10.9-4.2-25
			c-3.6-14.2-3.9-23.8-3.9-23.8l13.9,6.8l19.8,1.8L123.9,689.6z"/>
		<path class="st18" d="M179.2,672.6c0,0,8.8,3.8,8.1,9.2c-0.6,5.5-3.9,15.2-13.7,18.7c-9.8,3.5-25.7,2.3-31.4,0.4
			c-5.6-1.9-5.7-8.8-4.6-12c1.1-3.2,7.9-8.6,7.9-8.6l2.8,16c0,0,2.3,2.6,14.4-0.1c12.2-2.7,13.7-6.5,13.7-6.5L179.2,672.6z"/>
		<path class="st18" d="M112,680.9c0,0,12.6,2,12.2,6.7c-0.6,6.9-15.5,10.8-25.6,10.4s-25.3-4.9-25.6-11.8c-0.2-4.7,9.7-4.8,9.7-4.8
			l2.8,8.6c0,0,4.8,3.9,13.7,3.7s12-3.3,12-3.3L112,680.9z"/>
		<path class="st11" d="M195.8,730.5l3,9.2c0,0-1.5,36.6-4.4,42.3c-2.9,5.7-14,12.6-32.3,11.9c-17.7-0.6-22.9-5.1-24.6-7.1
			c-1.7-2,0.5-10.8,0.5-10.8s1.8,6.3,7.6,7.5c5.9,1.3,26.6,2.1,34.9-1.1c8.3-3.2,10.3-10.4,12.2-17.8
			C194.5,757.3,195.8,730.5,195.8,730.5z"/>
		<path class="st11" d="M128.8,774.4c0,0,1.1,7.2-0.1,8.8c-1.2,1.5-12.9,6.7-27.5,6.4c-14.6-0.3-27-7.2-28.5-9s0.8-10.1,0.8-10.1
			s9.4,8.3,26.5,8.8S128.8,774.4,128.8,774.4z"/>
		<path class="st13" d="M131.4,202.5c0,0,33.5,17.6,37.6,14.7s-3.5-24.2-6.7-29.1"/>
		<path class="st13" d="M90.8,197.9c0,0-32.8,21.2-37.6,17.8c-4.8-3.4,7.7-35.7,7.8-37.6"/>
		<path class="st13" d="M84.8,204.2c0,0,7.7,47.7,4.7,61.6c-3,13.9-10.7,36.7-14.4,42.4"/>
		<path class="st13" d="M67.5,234.2c0,0-2.6,21.6-1.9,30.6"/>
		<path class="st13" d="M79.7,223.4c-2.7,2.3-2.6-1.7-2.6-1.7"/>
		<path class="st13" d="M79.7,243.2c-2.7,2.3-2.6-1.7-2.6-1.7"/>
		<path class="st13" d="M79.2,263.8c-2.7,2.3-2.6-1.7-2.6-1.7"/>
		<path class="st19" d="M115.6,480.6c0,0,2.5,50.9,2.7,68.8c0.2,18-5.7,82.2-5.7,82.2"/>
	</g>
</g>
</svg>
