<svg width="268" height="790" viewBox="0 0 268 790" fill="none" xmlns="http://www.w3.org/2000/svg">
<g clip-path="url(#clip0)">
<path d="M238.493 182.774C247.547 177.8 252.82 178.198 252.82 178.198" stroke="#CCCCCC" stroke-width="3.2725" stroke-miterlimit="10" stroke-linecap="round" stroke-linejoin="round"/>
<path d="M227.946 181.083C227.946 181.083 232.025 171.233 231.627 166.358" stroke="#CCCCCC" stroke-width="3.2725" stroke-miterlimit="10" stroke-linecap="round" stroke-linejoin="round"/>
<path d="M218.295 183.571C211.032 177.302 205.261 177.7 205.261 177.7" stroke="#CCCCCC" stroke-width="3.2725" stroke-miterlimit="10" stroke-linecap="round" stroke-linejoin="round"/>
<path d="M133.126 163.87C133.126 163.87 131.136 170.835 133.126 176.506C135.116 182.177 143.275 187.451 143.275 187.451L143.872 207.449C143.872 207.449 111.834 220.981 94.5216 214.713C77.2092 208.444 77.8062 174.815 77.8062 174.815C77.8062 174.815 87.5568 173.521 91.2382 168.745C94.9195 163.97 97.3075 157.403 97.3075 157.403L133.126 163.87Z" fill="#D88D71"/>
<path d="M90.4418 169.641C91.4368 174.417 94.9192 181.481 105.963 188.147C115.813 194.018 131.235 197.003 143.672 198.495L143.971 207.35C143.971 207.35 111.933 220.882 94.6207 214.613C77.3083 208.345 77.9053 174.715 77.9053 174.715C77.9053 174.715 86.263 173.621 90.4418 169.641Z" fill="#EF9D78"/>
<path d="M160.288 157.403C145.264 167.75 128.251 170.337 109.346 165.562C90.4421 160.786 74.7217 136.807 74.7217 136.807L122.38 40.1963L158.796 41.8877L188.048 110.441C188.048 110.441 172.427 149.045 160.288 157.403Z" fill="#EF9D78"/>
<path d="M119.694 166.457C107.456 163.373 97.5065 154.02 94.4221 145.463C89.2483 131.235 89.7458 120.589 94.3226 109.943C98.8994 99.2971 109.446 85.5667 128.947 77.7064C148.449 69.8462 165.462 78.2039 165.462 78.2039L169.641 73.3286L186.158 111.933C186.158 111.933 170.537 150.538 158.398 158.895C154.816 161.383 151.035 163.373 147.255 164.965C140.091 166.756 127.355 168.348 119.694 166.457Z" fill="#FFBA85"/>
<path d="M175.611 102.78C175.611 102.78 170.934 99.5958 168.745 99.1979C166.556 98.7999 161.283 99.5958 161.283 99.5958" stroke="#680100" stroke-width="3.2725" stroke-miterlimit="10" stroke-linecap="round" stroke-linejoin="round"/>
<path d="M134.818 89.7458C134.818 89.7458 126.957 86.0645 120.789 88.0544" stroke="#680100" stroke-width="3.2725" stroke-miterlimit="10" stroke-linecap="round" stroke-linejoin="round"/>
<path d="M144.369 102.78C144.369 102.78 141.782 111.933 142.777 117.306C143.772 122.679 146.26 127.156 142.976 129.942C139.693 132.728 132.828 128.748 132.828 128.748" stroke="#680100" stroke-width="3.2725" stroke-miterlimit="10" stroke-linecap="round" stroke-linejoin="round"/>
<path d="M142.678 144.668C142.678 144.668 138.797 149.046 132.629 147.354C126.36 145.663 124.171 140.588 124.171 140.588" stroke="#680100" stroke-width="3.2725" stroke-miterlimit="10" stroke-linecap="round" stroke-linejoin="round"/>
<path d="M163.572 125.962C166.814 125.962 169.442 123.379 169.442 120.192C169.442 117.005 166.814 114.421 163.572 114.421C160.33 114.421 157.702 117.005 157.702 120.192C157.702 123.379 160.33 125.962 163.572 125.962Z" fill="black" stroke="#680100" stroke-width="3.2725" stroke-miterlimit="10" stroke-linecap="round" stroke-linejoin="round"/>
<path d="M173.82 114.221C173.82 114.221 167.353 113.326 164.069 114.42Z" fill="black"/>
<path d="M173.82 114.221C173.82 114.221 167.353 113.326 164.069 114.42" stroke="#680100" stroke-width="3.2725" stroke-miterlimit="10" stroke-linecap="round" stroke-linejoin="round"/>
<path d="M120.59 112.132C123.832 112.132 126.46 109.549 126.46 106.362C126.46 103.174 123.832 100.591 120.59 100.591C117.347 100.591 114.719 103.174 114.719 106.362C114.719 109.549 117.347 112.132 120.59 112.132Z" fill="black" stroke="#680100" stroke-width="3.2725" stroke-miterlimit="10" stroke-linecap="round" stroke-linejoin="round"/>
<path d="M166.358 121.186C167.731 121.186 168.845 120.117 168.845 118.799C168.845 117.48 167.731 116.411 166.358 116.411C164.984 116.411 163.87 117.48 163.87 118.799C163.87 120.117 164.984 121.186 166.358 121.186Z" fill="white"/>
<path d="M119.196 106.163C120.57 106.163 121.684 105.093 121.684 103.775C121.684 102.456 120.57 101.387 119.196 101.387C117.823 101.387 116.709 102.456 116.709 103.775C116.709 105.093 117.823 106.163 119.196 106.163Z" fill="white"/>
<path d="M113.426 97.0088C113.426 97.0088 119.794 98.6007 122.38 100.889Z" fill="black"/>
<path d="M113.426 97.0088C113.426 97.0088 119.794 98.6007 122.38 100.889" stroke="#680100" stroke-width="3.2725" stroke-miterlimit="10" stroke-linecap="round" stroke-linejoin="round"/>
<path d="M150.339 44.4748C150.339 44.4748 151.234 61.5881 158.597 71.9357C165.96 82.2833 175.81 94.6209 179.79 104.67C183.769 114.719 183.968 118.997 183.371 121.385C182.774 123.773 172.626 145.364 165.263 152.428C158.298 159.194 147.354 165.86 140.489 166.756C133.623 167.651 132.33 168.149 132.33 168.149C132.33 168.149 128.151 177.004 137.305 182.973C146.458 188.943 173.123 198.793 173.123 198.793C173.123 198.793 196.903 178.894 203.072 147.553C209.34 116.112 203.271 81.0894 193.321 67.9559C183.371 54.8224 179.69 53.8274 170.835 49.1511C162.079 44.3753 150.339 44.4748 150.339 44.4748Z" fill="#0084E0"/>
<path d="M150.836 46.6636C153.921 62.5829 126.659 71.8361 117.008 79.9948C106.76 88.651 97.9044 98.7996 93.825 106.66C86.7608 120.191 77.9056 141.483 96.9094 158.696C96.9094 158.696 94.422 166.855 89.4472 170.138C84.4724 173.422 36.4157 197.002 36.4157 197.002L50.9422 332.317C50.9422 332.317 22.7847 328.238 10.3477 296.996C-2.08933 265.754 -4.67623 221.18 11.2432 172.427C27.2621 123.574 99.8943 41.4897 99.8943 41.4897L150.836 46.6636Z" fill="#0084E0"/>
<path d="M133.623 19.9986C133.623 19.9986 110.043 1.89031 98.1031 0.0993809C86.1636 -1.69155 50.0465 21.4911 45.7681 26.6649C41.4898 31.8387 35.52 66.8613 35.52 66.8613L133.623 19.9986Z" fill="#2E3192"/>
<path d="M202.475 91.636C202.475 91.636 194.515 63.1801 168.547 52.136C142.578 41.092 101.287 49.2507 74.5227 76.6121C47.7583 103.974 33.5303 129.644 33.5303 129.644C33.5303 129.644 -10.646 99.6952 43.3804 53.4295C97.4069 7.16375 169.741 7.36274 199.689 35.1222C229.637 62.8816 212.623 88.0542 202.475 91.636Z" fill="#434BAA"/>
<path d="M169.442 304.061L157.204 236.901L141.086 208.146C141.086 208.146 112.928 219.489 98.9986 215.807C85.0691 212.126 80.5918 199.689 80.5918 199.689L75.9155 226.752L69.4482 320.179C69.4482 320.179 106.461 323.562 130.638 319.781C154.716 315.901 169.442 304.061 169.442 304.061Z" fill="#A6CFE8"/>
<path d="M127.753 272.52C119.794 267.844 114.421 262.969 110.938 257.795C114.421 262.969 119.794 267.844 127.753 272.52Z" fill="white"/>
<path d="M111.237 230.035C110.839 230.334 110.341 230.632 109.943 231.03C110.341 230.632 110.839 230.334 111.237 230.035Z" fill="white"/>
<path d="M131.036 274.311C129.842 273.714 128.748 273.117 127.753 272.421C128.847 273.117 129.942 273.714 131.036 274.311Z" fill="white"/>
<path d="M109.346 231.627C108.948 232.025 108.55 232.423 108.252 232.921C108.55 232.423 108.948 232.025 109.346 231.627Z" fill="white"/>
<path d="M129.246 246.452C129.445 245.955 129.644 245.457 129.843 244.86C129.644 245.457 129.445 245.955 129.246 246.452Z" fill="white"/>
<path d="M130.141 243.766C130.241 243.368 130.34 242.97 130.44 242.671C130.34 242.97 130.241 243.368 130.141 243.766Z" fill="white"/>
<path d="M128.748 247.746C128.848 247.447 129.047 247.149 129.146 246.751C128.947 247.049 128.848 247.447 128.748 247.746Z" fill="white"/>
<path d="M99.8943 268.342C99.0983 268.043 98.3023 267.844 97.5063 267.745C98.3023 267.844 99.0983 268.143 99.8943 268.342Z" fill="white"/>
<path d="M126.261 262.77C124.171 264.958 121.684 267.048 118.798 269.038C121.684 266.948 124.171 264.859 126.261 262.77Z" fill="white"/>
<path d="M110.143 274.311C113.426 272.52 116.212 270.829 118.799 269.038C116.311 270.829 113.426 272.62 110.143 274.311Z" fill="white"/>
<path d="M100.093 268.441C99.9939 268.441 99.8944 268.341 99.7949 268.341C99.9939 268.441 100.093 268.441 100.093 268.441Z" fill="white"/>
<path d="M114.421 262.173C114.819 261.974 115.217 261.775 115.615 261.576C116.212 261.277 116.709 260.979 117.306 260.68C118.5 259.984 119.595 259.287 120.59 258.591C122.381 259.884 124.57 261.078 126.758 262.173C126.559 262.372 126.46 262.471 126.261 262.67C124.669 264.362 122.779 266.053 120.59 267.645C118.301 265.854 116.212 264.063 114.421 262.173Z" fill="white"/>
<path d="M100.989 267.247C101.188 267.247 101.387 267.148 101.586 267.148C102.68 266.849 103.874 266.551 105.168 266.153C105.466 266.053 105.864 265.954 106.163 265.854C107.854 265.257 109.446 264.66 111.137 263.864C113.028 265.954 115.117 267.944 117.605 269.934C115.217 271.525 112.53 273.117 109.744 274.61C109.943 274.709 110.043 274.908 110.242 275.008C106.163 271.724 101.884 269.436 97.5063 267.844C98.5013 267.645 99.6953 267.546 100.989 267.247Z" fill="white"/>
<path d="M112.63 276.898C115.615 275.306 118.201 273.615 120.589 271.923C123.077 273.615 125.763 275.306 128.748 276.898L128.947 276.699C126.161 279.386 123.574 282.569 120.689 286.549C118.002 282.37 115.018 278.988 112.033 276.202C112.132 276.5 112.431 276.799 112.63 276.898Z" fill="white"/>
<path d="M127.753 272.52C126.261 271.625 124.868 270.729 123.574 269.834C126.062 267.844 128.251 265.854 130.041 263.765C135.016 265.954 140.19 267.546 143.772 267.745C138.598 269.535 134.817 271.724 131.335 274.61L131.434 274.51C130.24 273.913 128.848 273.117 127.753 272.52Z" fill="white"/>
<path d="M124.868 250.531L131.633 227.05C133.822 227.448 135.812 227.846 137.703 228.344L124.868 250.531Z" fill="white"/>
<path d="M130.937 240.084L124.967 250.432L129.843 233.617C130.838 235.508 131.136 237.697 130.937 240.084Z" fill="white"/>
<path d="M124.868 254.113C124.968 254.014 126.858 251.228 126.957 251.128L127.455 250.333C126.261 252.422 124.868 254.412 123.475 255.904L124.868 254.113Z" fill="white"/>
<path d="M152.329 234.015C146.459 245.557 142.578 255.407 143.275 264.262C140.389 263.964 136.31 262.67 132.33 260.979C136.708 255.009 138.797 248.442 138.797 240.781C138.797 238.095 138.3 235.607 137.305 233.418L139.892 228.941C143.971 230.234 148.15 231.926 152.329 234.015Z" fill="white"/>
<path d="M127.355 250.432L134.917 237.498C135.016 238.194 135.215 238.891 135.215 239.686C135.215 240.084 135.215 240.482 135.215 240.88C135.215 242.273 135.116 243.567 135.016 244.86C134.519 248.84 133.424 252.521 131.335 256.004C131.136 256.402 130.838 256.8 130.639 257.198C130.141 257.994 129.644 258.69 129.047 259.486C126.957 258.491 124.967 257.297 123.276 256.203L123.375 256.004C124.768 254.412 126.161 252.521 127.355 250.432Z" fill="white"/>
<path d="M121.684 226.056C124.47 226.155 127.057 226.354 129.445 226.653L121.684 253.517" fill="white"/>
<path d="M121.684 253.517V252.621C121.784 252.422 121.983 252.323 122.082 252.124L121.684 253.517Z" fill="white"/>
<path d="M111.834 226.752C114.52 226.354 117.107 226.155 119.595 226.155V253.616L111.834 226.752Z" fill="white"/>
<path d="M112.929 229.04C112.829 229.14 112.63 229.239 112.531 229.239L112.332 228.642H113.824C113.526 228.742 113.227 228.841 112.929 229.04Z" fill="white"/>
<path d="M103.675 228.344C105.665 227.846 107.755 227.349 109.645 227.05L116.311 250.332L103.675 228.344Z" fill="white"/>
<path d="M115.018 252.322C115.913 253.814 116.908 255.108 117.903 256.202C116.212 257.396 114.222 258.491 112.133 259.486C111.735 258.889 111.237 258.292 110.839 257.794C107.357 252.621 105.864 247.049 105.864 240.88C105.864 240.482 105.864 240.084 105.864 239.686C105.964 238.89 106.063 238.194 106.163 237.497L114.321 251.526C114.52 251.427 114.719 251.825 115.018 252.322Z" fill="white"/>
<path d="M88.6514 234.015C92.9297 231.925 97.208 230.234 101.486 229.04L104.073 233.418C103.078 235.607 102.481 238.094 102.481 240.88C102.481 248.442 104.571 255.108 108.849 261.078C104.77 262.769 100.69 264.063 97.805 264.361C98.402 254.511 95.2181 244.462 88.6514 234.015Z" fill="white"/>
<path d="M111.536 233.617L116.311 250.332L110.342 239.885C110.143 237.597 110.441 235.408 111.536 233.617Z" fill="white"/>
<path d="M114.919 252.123C116.709 255.008 118.799 257.297 120.59 258.59C127.356 263.266 137.803 267.346 143.673 267.744C139.494 268.54 135.315 271.027 131.037 274.311C129.843 273.714 128.748 273.117 127.754 272.42C119.794 267.744 114.421 262.868 110.939 257.695C107.456 252.521 105.964 246.949 105.964 240.78C105.964 240.382 105.964 239.984 105.964 239.586C106.063 238.79 106.163 238.094 106.262 237.397L114.421 251.426C114.421 251.426 114.62 251.725 114.919 252.123Z" fill="white"/>
<path d="M148.349 183.073C148.349 183.073 172.626 189.242 177.501 195.51C182.377 201.779 194.814 243.169 196.804 263.466L176.805 327.144L162.676 305.653C162.676 305.653 154.319 235.607 151.334 228.842C148.349 222.076 136.111 206.455 136.111 206.455L148.349 183.073Z" fill="#29ABE2"/>
<path d="M75.6171 307.244C75.6171 307.244 86.5617 282.072 88.5516 266.451C90.7405 249.039 87.1587 212.524 83.3778 198.594C79.597 184.665 76.4131 172.825 76.4131 172.825C76.4131 172.825 38.8035 183.471 34.6247 190.635C30.3463 197.798 28.5554 248.442 30.0478 265.058C31.5403 281.674 67.2594 277.097 67.2594 277.097L70.2443 317.492L75.6171 307.244Z" fill="#29ABE2"/>
<path d="M160.189 184.068C160.189 184.068 141.583 177.7 140.787 178.098C139.892 178.396 131.335 198.296 130.738 201.48C130.042 204.663 167.452 218.593 169.542 215.708C171.631 212.822 161.681 185.759 160.189 184.068Z" fill="#29ABE2"/>
<path d="M80.5918 170.039C76.3135 167.751 61.19 174.218 60.7921 176.208C60.3941 178.198 50.5439 211.927 52.9319 214.614C55.4193 217.2 90.9394 198.296 91.3374 195.51C91.8349 192.625 84.0742 171.93 80.5918 170.039Z" fill="#29ABE2"/>
<path d="M138.3 208.843C145.364 216.703 158.299 239.189 156.906 256.402C154.816 282.768 163.671 308.737 163.671 308.737" stroke="#0084E0" stroke-width="3.2725" stroke-miterlimit="10" stroke-linecap="round" stroke-linejoin="round"/>
<path d="M160.985 240.184C161.283 242.87 161.88 259.486 161.88 259.486" stroke="#0084E0" stroke-width="3.2725" stroke-miterlimit="10" stroke-linecap="round" stroke-linejoin="round"/>
<path d="M128.449 427.436C128.449 427.436 124.569 450.32 122.579 462.359C120.589 474.398 120.49 478.079 120.49 478.079C120.49 478.079 143.473 487.631 158.895 487.034C174.317 486.437 188.943 482.756 189.441 481.761C189.938 480.766 197.201 464.249 200.186 441.962C203.171 419.675 203.171 397.885 203.171 397.885L128.449 427.436Z" fill="#FFBA85"/>
<path d="M112.729 424.749L113.226 466.438C113.226 466.438 95.3172 475.194 84.6711 477.383C74.025 479.572 51.1408 476.587 51.1408 476.587C51.1408 476.587 44.4746 457.185 42.5842 440.569C40.6937 423.953 42.8827 398.88 42.8827 398.88L112.729 424.749Z" fill="#FFBA85"/>
<path d="M208.146 400.87C206.156 390.522 202.873 370.126 191.132 350.127C179.392 330.128 162.079 305.553 162.079 305.553C162.079 305.553 153.821 314.01 125.564 316.099C97.3072 318.089 74.2241 312.02 74.2241 312.02C74.2241 312.02 59.5982 337.093 52.534 354.206C45.3702 371.519 40.0969 389.428 38.903 399.079C37.709 408.73 114.321 417.884 114.321 417.088C114.421 416.292 116.709 397.985 122.281 397.786C127.853 397.587 127.753 421.565 127.753 421.565L208.146 400.87Z" fill="#2E86B7"/>
<path d="M123.574 335.999C123.574 335.999 125.962 356.694 125.763 369.529C125.564 382.364 123.574 393.508 123.574 393.508" stroke="#256C84" stroke-width="3.2725" stroke-miterlimit="10" stroke-linecap="round" stroke-linejoin="round"/>
<path d="M149.244 381.17C148.647 381.568 132.429 389.229 128.25 394.303" stroke="#256C84" stroke-width="3.2725" stroke-miterlimit="10" stroke-linecap="round" stroke-linejoin="round"/>
<path d="M120.39 393.508C120.39 393.508 112.232 385.15 98.7998 383.458" stroke="#256C84" stroke-width="3.2725" stroke-miterlimit="10" stroke-linecap="round" stroke-linejoin="round"/>
<path d="M169.044 317.691C163.373 321.671 144.568 329.432 137.703 330.924C130.837 332.417 120.689 332.317 120.092 331.223C119.594 330.128 118.5 322.865 119.097 316.896" stroke="#256C84" stroke-width="3.2725" stroke-miterlimit="10" stroke-linecap="round" stroke-linejoin="round"/>
<path d="M115.217 331.123C113.724 331.322 90.442 332.417 74.2241 328.537" stroke="#256C84" stroke-width="3.2725" stroke-miterlimit="10" stroke-linecap="round" stroke-linejoin="round"/>
<path d="M127.156 327.741C129.189 327.741 130.837 326.092 130.837 324.059C130.837 322.026 129.189 320.378 127.156 320.378C125.123 320.378 123.475 322.026 123.475 324.059C123.475 326.092 125.123 327.741 127.156 327.741Z" stroke="#256C84" stroke-width="3.2725" stroke-miterlimit="10" stroke-linecap="round" stroke-linejoin="round"/>
<path d="M150.637 332.019C150.637 332.019 150.339 348.237 164.766 355.102C179.193 361.967 195.112 362.166 195.112 362.166" stroke="#256C84" stroke-width="3.2725" stroke-miterlimit="10" stroke-linecap="round" stroke-linejoin="round"/>
<path d="M88.9497 332.715C88.9497 332.715 86.5618 350.127 81.786 355.898C74.3238 364.853 49.0518 365.45 49.0518 365.45" stroke="#256C84" stroke-width="3.2725" stroke-miterlimit="10" stroke-linecap="round" stroke-linejoin="round"/>
<path d="M212.823 390.821L213.121 407.735C213.121 407.735 204.564 417.586 171.532 424.749C138.598 431.913 124.171 432.41 124.171 432.41V416.989C124.171 416.989 156.707 413.108 173.024 408.432C194.515 402.363 212.823 390.821 212.823 390.821Z" fill="#A6CFE8"/>
<path d="M119.296 417.188L117.306 431.615C117.306 431.615 94.0239 429.724 70.9408 424.65C44.9723 418.979 31.3413 409.924 31.3413 409.924L34.8237 394.303C34.8237 394.303 45.1713 403.457 76.2141 410.223C102.282 415.994 119.296 417.188 119.296 417.188Z" fill="#A6CFE8"/>
<path d="M258.69 189.739C258.69 189.739 217.399 185.959 214.713 189.739C211.927 193.62 197.301 259.387 199.49 260.382C201.679 261.377 238.592 263.466 239.388 261.078C240.184 258.69 257.695 198.296 258.69 189.739Z" fill="#2E3192"/>
<path d="M199.191 288.639L199.987 305.752C199.987 305.752 231.925 258.69 238.492 252.422L228.045 256.501C228.045 256.501 220.583 240.98 222.473 233.816C222.473 233.816 243.169 226.653 240.781 223.867C238.99 221.877 225.359 225.359 225.359 225.359C225.359 225.359 222.672 221.578 228.344 218.593C230.035 217.698 251.029 215.509 254.312 218.494C257.596 221.479 267.446 235.209 267.048 239.786C266.65 244.363 255.307 253.716 253.218 258.491C251.228 263.168 212.126 327.542 207.847 332.915C203.569 338.287 183.172 344.556 179.292 340.675C175.511 336.894 172.427 300.28 172.427 300.28L199.191 288.639Z" fill="#FFBA85"/>
<path d="M166.755 303.961C170.636 305.453 211.529 285.852 210.534 283.962C208.146 279.485 201.48 265.058 198.992 264.859C196.505 264.66 168.248 270.729 165.86 271.028C163.373 271.426 162.875 302.468 166.755 303.961Z" fill="#A6CFE8"/>
<path d="M36.9131 292.618C36.9131 292.618 38.704 310.926 41.5894 325.75C44.4748 340.575 48.1562 352.316 53.0315 352.913C57.9068 353.609 101.785 321.572 116.311 311.025C130.838 300.478 146.06 284.161 151.931 283.465C157.701 282.868 174.118 289.832 180.785 285.455C187.451 281.077 184.466 250.233 187.152 247.248C189.839 244.164 199.39 247.944 200.584 242.87C201.778 237.796 194.217 236.9 190.635 236.9C187.053 236.9 180.387 238.293 177.203 240.681C174.019 243.069 159.194 260.381 148.647 265.555C138.101 270.729 106.461 288.439 98.8992 293.016C89.4471 298.787 71.5378 310.627 71.5378 310.627L67.7569 282.669L36.9131 292.618Z" fill="#FFBA85"/>
<path d="M23.879 269.834C21.69 270.928 25.2719 290.629 28.3563 293.116C31.4407 295.603 70.0452 289.534 72.8311 288.539C75.617 287.544 73.9256 270.132 69.1497 267.546C64.4734 264.959 29.6497 266.849 23.879 269.834Z" fill="#A6CFE8"/>
<path d="M184.068 496.287C184.068 496.287 176.407 518.077 171.73 527.827C167.054 537.578 159.293 552.403 158.796 556.084C158.298 559.666 169.143 565.039 175.312 584.839C181.481 604.638 174.218 698.165 174.218 698.165L149.443 702.941C149.443 702.941 142.877 649.412 132.429 624.14C121.982 598.967 109.744 559.766 109.744 559.766C109.744 559.766 107.854 550.512 109.346 536.384C110.938 522.256 120.689 476.487 120.689 476.487L184.068 496.287Z" fill="#A1CFE2" stroke="#8EB1BC" stroke-width="2" stroke-miterlimit="10"/>
<path d="M113.824 466.936C113.824 466.936 117.704 515.39 117.605 546.732C117.505 578.073 112.331 619.862 111.436 636.278C110.541 652.695 109.944 690.205 109.944 690.205L98.203 698.464L86.4625 689.509C86.4625 689.509 67.8567 629.712 66.0657 611.703C64.2748 593.694 72.533 561.656 71.8365 553.398C71.0405 545.239 53.8277 502.157 50.4448 474.895L113.824 466.936Z" fill="#A1CFE2" stroke="#8EB1BC" stroke-width="2" stroke-miterlimit="10"/>
<path d="M195.609 478.079L189.043 496.088C189.043 496.088 166.357 497.581 147.453 493.601C128.449 489.621 117.903 481.462 117.903 481.462L120.191 465.344C120.191 465.344 131.434 475.791 151.931 478.676C172.427 481.562 195.609 478.079 195.609 478.079Z" fill="#7794A0"/>
<path d="M115.614 462.16C115.614 462.16 103.973 468.727 82.4821 471.314C60.991 473.9 46.166 469.025 46.166 469.025L50.0464 484.945C50.0464 484.945 67.4582 487.332 85.666 485.741C103.874 484.149 117.405 476.288 117.405 476.288L115.614 462.16Z" fill="#7794A0"/>
<path d="M150.637 565.337C150.637 565.337 138.499 543.249 128.848 545.339C119.197 547.428 122.878 570.511 124.072 573.596C125.266 576.779 135.514 576.779 140.588 574.889C145.663 572.999 150.239 567.526 150.637 565.337Z" fill="#FFBA85"/>
<path d="M99.4961 543.448C94.2228 543.05 84.0742 557.278 83.7757 563.547C83.4772 569.815 107.754 571.705 109.844 565.835C111.137 561.756 109.844 544.244 99.4961 543.448Z" fill="#FFBA85"/>
<path d="M184.167 683.042C184.167 683.042 192.525 717.268 193.719 727.516C194.913 737.764 192.426 767.016 187.849 772.588C183.272 778.16 171.531 781.244 158.099 780.548C144.667 779.851 140.091 778.06 138.996 775.374C138.001 772.688 138.399 765.524 141.384 760.549C144.468 755.475 158 740.749 156.905 727.815C155.91 714.98 136.807 694.285 136.807 694.285L158.298 697.17L178.496 691.001L184.167 683.042Z" fill="#2E86B7"/>
<path d="M123.276 686.126C123.276 686.126 116.908 719.358 116.112 726.422C115.316 733.486 124.967 751.097 125.763 756.868C126.559 762.638 127.355 769.603 126.659 770.797C125.962 771.991 113.923 776.468 100.69 775.473C87.4571 774.379 74.2241 770.3 73.8262 767.215C73.4282 764.131 77.7065 738.958 80.5919 731.397C82.3828 726.621 79.9949 720.552 76.4131 706.523C72.8312 692.394 72.5327 682.843 72.5327 682.843L86.3627 689.608L106.063 691.399L123.276 686.126Z" fill="#2E86B7"/>
<path d="M178.297 669.211C178.297 669.211 187.053 672.992 186.357 678.365C185.76 683.837 182.476 693.489 172.726 696.971C162.975 700.453 147.155 699.259 141.484 697.369C135.912 695.478 135.813 688.613 136.907 685.429C138.001 682.245 144.767 676.873 144.767 676.873L147.553 692.792C147.553 692.792 149.842 695.379 161.881 692.693C174.019 690.006 175.512 686.225 175.512 686.225L178.297 669.211Z" fill="#256C84"/>
<path d="M111.436 677.47C111.436 677.47 123.972 679.46 123.574 684.136C122.977 691.001 108.153 694.881 98.1034 694.484C88.0543 694.086 72.9309 689.608 72.6324 682.743C72.4334 678.067 82.2835 677.967 82.2835 677.967L85.0694 686.524C85.0694 686.524 89.8452 690.404 98.7004 690.205C107.556 690.006 110.64 686.922 110.64 686.922L111.436 677.47Z" fill="#256C84"/>
<path d="M194.814 726.82L197.799 735.973C197.799 735.973 196.306 772.389 193.421 778.06C190.535 783.732 179.491 790.597 161.283 789.9C143.673 789.303 138.499 784.826 136.807 782.836C135.116 780.846 137.305 772.091 137.305 772.091C137.305 772.091 139.096 778.359 144.867 779.553C150.737 780.846 171.333 781.642 179.591 778.458C187.849 775.275 189.839 768.111 191.729 760.748C193.52 753.485 194.814 726.82 194.814 726.82Z" fill="#A6CFE8"/>
<path d="M128.151 770.499C128.151 770.499 129.246 777.662 128.052 779.254C126.858 780.747 115.217 785.921 100.69 785.622C86.164 785.324 73.8264 778.458 72.334 776.667C70.8415 774.877 73.13 766.618 73.13 766.618C73.13 766.618 82.4826 774.877 99.4965 775.374C116.51 775.872 128.151 770.499 128.151 770.499Z" fill="#A6CFE8"/>
<path d="M130.738 201.48C130.738 201.48 164.07 218.991 168.149 216.106C172.228 213.22 164.666 192.028 161.483 187.152" stroke="#0084E0" stroke-width="3.2725" stroke-miterlimit="10" stroke-linecap="round" stroke-linejoin="round"/>
<path d="M90.3424 196.903C90.3424 196.903 57.7077 217.996 52.9319 214.613C48.156 211.23 60.5931 179.093 60.6926 177.203" stroke="#0084E0" stroke-width="3.2725" stroke-miterlimit="10" stroke-linecap="round" stroke-linejoin="round"/>
<path d="M84.3728 203.171C84.3728 203.171 92.034 250.631 89.0491 264.461C86.0642 278.291 78.403 300.976 74.7217 306.647" stroke="#0084E0" stroke-width="3.2725" stroke-miterlimit="10" stroke-linecap="round" stroke-linejoin="round"/>
<path d="M67.1599 233.02C67.1599 233.02 64.573 254.511 65.2694 263.466" stroke="#0084E0" stroke-width="3.2725" stroke-miterlimit="10" stroke-linecap="round" stroke-linejoin="round"/>
<path d="M79.2983 222.274C76.6119 224.563 76.7114 220.583 76.7114 220.583" stroke="#0084E0" stroke-width="3.2725" stroke-miterlimit="10" stroke-linecap="round" stroke-linejoin="round"/>
<path d="M79.2983 241.975C76.6119 244.263 76.7114 240.283 76.7114 240.283" stroke="#0084E0" stroke-width="3.2725" stroke-miterlimit="10" stroke-linecap="round" stroke-linejoin="round"/>
<path d="M78.8012 262.471C76.1148 264.76 76.2143 260.78 76.2143 260.78" stroke="#0084E0" stroke-width="3.2725" stroke-miterlimit="10" stroke-linecap="round" stroke-linejoin="round"/>
<path d="M115.018 478.179C115.018 478.179 117.505 528.822 117.704 546.632C117.903 564.541 112.033 628.418 112.033 628.418" stroke="#8EB1BC" stroke-width="3.2725" stroke-miterlimit="10" stroke-linecap="round" stroke-linejoin="round"/>
</g>
<defs>
<clipPath id="clip0">
<rect width="267.048" height="790" fill="white"/>
</clipPath>
</defs>
</svg>
