<?xml version="1.0" encoding="utf-8"?>
<!-- Generator: Adobe Illustrator 22.0.1, SVG Export Plug-In . SVG Version: 6.00 Build 0)  -->
<svg version="1.1" id="Layer_1" xmlns="http://www.w3.org/2000/svg" xmlns:xlink="http://www.w3.org/1999/xlink" x="0px" y="0px"
	 viewBox="0 0 60.3 60.3" style="enable-background:new 0 0 60.3 60.3;" xml:space="preserve">
<style type="text/css">
	.st0{fill:#FF1B4A;}
	.st1{fill:#FFFFFF;}
</style>
<g>
	<path class="st0" d="M60.3,30.1c0,16.6-13.5,30.1-30.1,30.1C13.5,60.3,0,46.8,0,30.1C0,13.5,13.5,0,30.2,0
		C46.8,0,60.3,13.5,60.3,30.1z"/>
	<g>
		<path class="st1" d="M25.1,49h7.5c0,0,0-10.4,0-18.8h5.6l0.7-7.5h-6v-3c0-1.5,1-1.8,1.7-1.8c0.7,0,4.2,0,4.2,0v-6.5l-5.8,0
			c-6.5,0-7.9,4.8-7.9,7.9v3.4h-3.7v7.5h3.8C25.1,38.7,25.1,49,25.1,49z"/>
	</g>
</g>
</svg>
