<?xml version="1.0" encoding="utf-8"?>
<!-- Generator: Adobe Illustrator 24.0.3, SVG Export Plug-In . SVG Version: 6.00 Build 0)  -->
<svg version="1.1" id="Layer_1" xmlns="http://www.w3.org/2000/svg" xmlns:xlink="http://www.w3.org/1999/xlink" x="0px" y="0px"
	 viewBox="0 0 296.9 793" style="enable-background:new 0 0 296.9 793;" xml:space="preserve">
<style type="text/css">
	.st0{fill:none;stroke:#FFBA82;stroke-width:3.0182;stroke-miterlimit:10;}
	.st1{fill:#FF9D77;}
	.st2{fill:#EE8D70;}
	.st3{fill:#717171;}
	.st4{fill:none;stroke:#666666;stroke-width:3.0182;stroke-linecap:round;stroke-linejoin:round;stroke-miterlimit:10;}
	.st5{fill:#E6E6E6;}
	.st6{fill:#B3B3B3;}
	.st7{fill:none;stroke:#999999;stroke-width:3.0182;stroke-linecap:round;stroke-linejoin:round;stroke-miterlimit:10;}
	.st8{fill:#999999;}
	.st9{fill:#4C4C4C;}
	.st10{fill:#CCCCCC;}
	.st11{fill:#FFBA82;}
	.st12{fill:none;stroke:#7A0000;stroke-width:2.8414;stroke-linecap:round;stroke-linejoin:round;stroke-miterlimit:10;}
	.st13{stroke:#7A0000;stroke-width:2.9302;stroke-linecap:round;stroke-linejoin:round;stroke-miterlimit:10;}
	.st14{fill:#FFFFFF;}
	.st15{fill:none;stroke:#7A0000;stroke-width:2.6313;stroke-linecap:round;stroke-linejoin:round;stroke-miterlimit:10;}
	.st16{stroke:#7A0000;stroke-width:2.7136;stroke-linecap:round;stroke-linejoin:round;stroke-miterlimit:10;}
	.st17{fill:#773716;}
	.st18{fill:none;stroke:#7A0000;stroke-width:3.0182;stroke-linecap:round;stroke-linejoin:round;stroke-miterlimit:10;}
	.st19{fill:#A5562D;}
	.st20{fill:none;stroke:#E6E6E6;stroke-width:3.0182;stroke-linecap:round;stroke-linejoin:round;stroke-miterlimit:10;}
</style>
<g>
	
		<image style="overflow:visible;opacity:0.5;" width="328" height="824" xlink:href="A7BBD4CFE6A86301.png"  transform="matrix(1 0 0 1 -5.3737 -5.8158)">
	</image>
	<g>
		<g>
			<path class="st0" d="M107.2,171.4"/>
			<path class="st1" d="M129.1,141c0,0,1.2,20.1-4,25.4s-19.4,6.9-19.4,6.9l6,29.7l44.1,12.2l32.1-24.4l-0.5-15.2
				c0,0-17.6-7.3-20.9-11.7c-3.5-4.6-6-25.9-6-25.9L129.1,141z"/>
			<path class="st2" d="M187.3,175.5c0,0-17.6-7.3-20.9-11.7c-3.5-4.6-6-25.9-6-25.9l-31.4,3c0,0,1.1,18.2-3.3,24.5
				c3.8,3.8,10.9,8.5,23.7,11.5c13.7,3.2,28.2,4.7,38.1,5.5L187.3,175.5z"/>
			<path class="st3" d="M201.7,376.4l7.5,20.2c0,0,6.7,64.8,7.1,85c0.4,20.2,1.5,70.1,2.6,77.8s12.7,106,12.7,108.6s6,6.9,6.7,9.5
				c0.7,2.7-1.1,6.9-0.7,9.1s3.4,3,4.5,5.7c1.1,2.7,1.1,7.2,1.1,7.2l-47.1,13c0,0-4.9-5.7-5.2-7.6c-0.4-1.9,0.7-7.2,0.7-9.5
				s-6.3-4.2-6.3-5.3c0-1.1,0.7-8.8,0-11.1c-0.7-2.3-24.3-67.5-27.3-80c-4.5-19,1.5-43.8,4.5-55.3c3-11.4-11.2-83.5-11.2-83.5
				s-11.9,57.6-13.1,63.7c-1.1,6.1-6.7,16.4-6.7,18.7c0,2.3,4.5,28.2,2.6,38.9c-1.9,10.7-16.1,84.2-16.1,85.8s-5.6,7.6-5.2,9.9
				c0.4,2.3,3.7,6.5,3.7,9.1s-6.3,8.8-6.3,10.7s3,15.2,3,15.2l-41.8,3c0,0-9.7-14.5-9.7-16.4s5.6-7.2,5.6-9.9c0-2.7-4.9-5.3-4.9-7.2
				s5.2-9.9,5.2-9.9s4.1-57.6,4.1-63.3s-0.7-35.4-0.4-40.8c0.4-5.3,8.2-35.1,8.2-38.9s-0.4-117,0-118.5c0.4-1.5,13.8-38.5,13.8-38.5
				L201.7,376.4z"/>
			<polyline class="st4" points="157.2,393 157.8,437.5 158,447.9 			"/>
			<polyline class="st4" points="171.4,387.9 171.9,429.1 157.8,437.5 			"/>
			<path class="st4" d="M189.6,382.9c0,0,2.2,17.3,2.5,23.9c0.2,6.6,19.7,23.6,19.7,23.6"/>
			<path class="st4" d="M155,456.3l13.9-5.1l-9,4.6l12.9,78.3c0,0,0.2,26.2-2,34.1c-2.2,7.9-2.5,21.1,2,37.4
				c4.5,16.3,20.2,68.9,20.9,70.1c0.7,1.3,2.7,4.8,2.2,7.1c-0.5,2.3,2.2,4.6,3.2,6.4c1,1.8,1,7.6,1.7,9.4c0.7,1.8,5.2,9.4,5.2,9.4"
				/>
			<path class="st5" d="M107.7,170.9l12.8,16.2l21.7,9l27.8-5.9l12.3-18.1l6.9,2.9l15.6,84.9c0,0-2.5,37.6-3.5,46.8
				s-2.5,20.3-1.5,25.9s5.5,8.1,5.5,12.2s-3.5,6.6-3.5,9.7c0,3,4,5.1,4,8.1c0,3,0,8.1-1,11.2c-1,3-32.4,18.3-43.8,19.8
				c-11.5,1.5-62.2-13.2-62.2-13.2s-13.4-14.2-10-21.9c3.5-7.6,4.5-3.6,4.5-5.6c0-2-4-5.6-2-9.7c2-4.1-4-51.8-8.5-64l-5-24.4
				l-5.5,9.7L32,230.9c0,0,22.9-44.7,27.4-49.8C63.9,176,107.7,170.9,107.7,170.9z"/>
			<path class="st6" d="M111.3,170.2c0,0,11.6,21.3,37,21.3s29.5-22.9,29.5-22.9l6,3c0,0-6.3,27.4-34.4,27.4
				c-32.1,0-45.6-29-45.6-29H111.3z"/>
			<polyline class="st7" points="91.5,232.3 86,241.8 78,255.3 86,241.8 103.4,242.5 			"/>
			<path class="st8" d="M189.3,709.5c0,0,20.9-3,28.8-6.5c7.8-3.4,23.9-11.8,23.9-11.8l2.2,14.5c0,0-12.3,6.9-22.4,10.3
				c-10.1,3.4-26.1,5.7-26.1,5.7L189.3,709.5z"/>
			<path class="st9" d="M199.8,721.3c0,0,22.8-16,35.8-18.3s20.9,3,20.9,3s-1.9,3.8-4.5,9.9c-2.6,6.1-6,11.8-6,11.8
				s13.4,12.2,22,13.7s23.2-0.4,25,3.4c1.9,3.8,4.5,9.5,3.4,18.3c0,0-45.2-1-53-0.2c-7.8,0.8-42.2-1.7-43.7-2.5s-2.2-9.5-0.7-12.6
				c1.5-3,8.2-12.6,8.2-14.9S199.8,721.3,199.8,721.3z"/>
			<path class="st10" d="M63.9,769v17.2c0,0,13.4,6.9,26.9,6.9s25.4-5,25.4-5v-16.4c0,0-14.6,4.6-25.8,4.2S63.9,769,63.9,769z"/>
			<polygon class="st10" points="199.8,760.6 199.8,773.2 296.9,773.2 296.5,763.3 			"/>
			<path class="st11" d="M64.6,269.3c0,0-20.2,39.6-20.2,41.2s45.6,48,48.2,49.6s11.2,6.1,13.1,9.5c1.9,3.4-6.3,39.3-8.2,41.5
				s-21.7-4.2-25-6.9c-1.5-1.2-4.5-9.1-0.4-11.4s9,1.5,10.1,0.4c1.1-1.1,7.1-14.1,7.1-16.4s-33.6-14.1-47.4-22.5
				C28,345.9,0.4,327.8,0,316.9c-0.4-9.5,32.1-82.7,32.1-82.7l34,30.1L64.6,269.3z"/>
			<path class="st11" d="M77.8,72.5c0,0,6.1,18.6,6.5,22.1c0.4,3.5-10,9.2-8.2,17.1s9.5,11.6,19.2,11.9c0,0,12.6,18.1,29.5,22
				c18.4,4.3,39.4-1,51.4-14.8c12.9-14.8,10.9-36.4,10.9-36.4s6.6-2.8,6.1-10.9c-0.5-8-6.8-11.9-6.8-11.9l-7.1-28l-37.6-20.1
				l-40.5,10.5L77.4,52.9L77.8,72.5z"/>
			<path class="st11" d="M244.2,275.1c-2.2-22.8-38.3-110.3-38.3-114.1c0-3.8-2-16.7-2.2-18.9s1.8-20.9-1.7-21.3
				c-3.4-0.4-5.9,12.8-9.5,14.4c-3.6,1.5-36.8-8.6-38-5c-1.2,3.6,16,9.9,16.6,12.9s-0.5,14.2,0.4,16.4s16.5,4.1,16.5,4.1
				s7,98.1,9.3,109c4.1,19.1,26.2,38.8,33.8,39.1C241.7,312.2,244.2,275.1,244.2,275.1z"/>
			<path class="st6" d="M30.6,229.3c16.2,9.6,30.2,21.2,41.7,35.2l-4,7.1c-12.2-14.8-25.9-26.5-41.1-35.1L30.6,229.3z"/>
			<path class="st8" d="M61.7,720.4l0.7-14.3c0,0,12.5,5.4,25.7,5.4s28.1-2.3,28.1-2.3l-2.2,15c0,0-15,1-28.2,1
				S61.7,720.4,61.7,720.4z"/>
			<path class="st9" d="M72.8,744.6l-13.1-21.3c0,0,12.3-3.8,27.6-3.8s27.6,7.6,27.6,7.6l-9.7,18.3l10.8,26.3c0,0-12.7,3.8-23.2,4.2
				S63.9,769,63.9,769L72.8,744.6z"/>
			<path class="st12" d="M110.4,89.6c0,0,3.7-2.5,9.4-3.9c5.7-1.3,7.4,0.2,7.4,0.2"/>
			<ellipse class="st13" cx="123.6" cy="91" rx="5.8" ry="5.9"/>
			<ellipse class="st14" cx="125.5" cy="87.5" rx="2.1" ry="2.2"/>
			<path class="st15" d="M159.3,74.8c0,0,1-1.5,6.3-2.7c5.3-1.2,6.9,0.2,6.9,0.2"/>
			<ellipse class="st16" cx="169.3" cy="76.9" rx="5.4" ry="5.5"/>
			<ellipse class="st14" cx="171" cy="73.6" rx="2" ry="2"/>
			<path class="st17" d="M103.5,77l4.6,5.5c0,0,5.7-3.9,8.3-5.6c3.4-2.2,10.3-4.3,10.3-4.3l-1.3-8.3c0,0-9.1,2.5-13.6,5.3
				C109,71.3,103.5,77,103.5,77z"/>
			<path class="st17" d="M155.9,66.3c0,0,9.7-1.8,14-0.4l2-7.5l-18.1-0.1L155.9,66.3z"/>
			<path class="st18" d="M145.6,80.1c0,0,2.5,8.6,5.5,11.1c3,2.5,9.8,2.8,10.1,3.3c1.4,3.5-3.4,7.9-6.6,9.9"/>
			<path class="st18" d="M153.4,121c0,0,7.9-1.1,11.2-5c2.6-3.1,1.8-4.7,1.8-4.7"/>
			<path class="st1" d="M187.2,94.5c0,0,6.6-2.8,6.1-10.9c-0.5-8-6.8-11.9-6.8-11.9l-7.1-28l-37.6-20.1l-40.5,10.5L77.5,52.9
				l0.4,19.6c0,0,6.1,18.6,6.5,22.1c0.4,3.5-10,9.2-8.2,17.1s9.5,11.6,19.2,11.9c0,0,12.6,18.1,29.5,22c9.5,2.2,19.6,1.9,28.9-0.9
				c1.1-0.2,2.7-0.9,2.7-0.9s-33.1,3.1-47.9-13.1c-11-12.2-15.6-31.4-16.9-43.1c-1.2-11.6,5.2-28.7,10.2-33.4
				c5-4.6,31.8-11.7,31.8-11.7l42.9,10.1c0,0,8.5,16.3,9.1,21.8C186.3,80.1,187.2,94.5,187.2,94.5z"/>
			<path class="st19" d="M86.4,95.5c0,0-0.6-15.1,1.3-26.5c1.9-11.5,6.1-20.7,6.1-20.7s3.5,6.6,7.3,10.1c3.8,3.4,12.9,4.9,12.9,4.9
				s-6.8-9.1-7.1-11.9c-0.3-2.8-0.4-9.8,1.6-10.7c2-0.9,10.4,16.4,28.3,20.1s37.9-3.1,37.9-3.1s-12-3.2-16.7-8s-7.7-10.7-7.7-10.7
				s15.3,14.1,27.8,12s16.3-5.3,16.3-5.3s-8.5-5.7-12.6-11.6c-2.3-3.3-14-25.1-31.2-28.2S114.9,7.3,108,13c-7,5.7-8.6,6.6-8.6,6.6
				s-3.3-5-3.6-8.4C95.2,6.7,101.4,0,101.4,0S90,5.8,87.9,12.4c-2.1,6.6-0.1,12-0.1,12s-10.7-3-17.9-0.1s-8.6,12.6-8.6,12.6
				s5.9-6.3,11.4-6.2c5.5,0.1,8.3,3.3,8.3,3.3s-11.6,7.6-12.8,15.5S68,67.3,71,73C74,78.6,86.4,95.5,86.4,95.5z"/>
			<path class="st1" d="M179.4,133.2c-0.2,0-23.9-6-24.9-3.1c-1.2,3.6,16,9.9,16.6,12.9s-0.5,14.2,0.4,16.4c0.7,1.5,4.8,2.4,9.5,3.1
				C178,159,166.9,138.3,179.4,133.2z"/>
			<line class="st4" x1="150.2" y1="453.5" x2="179.4" y2="437"/>
			<polyline class="st4" points="107.9,384.4 106.2,418.2 80,459.6 			"/>
			<path class="st4" d="M198.8,581.1c0,0,11.7-0.5,14.4-2.3c2.7-1.8,4.5-3.6,4.5-3.6"/>
			<path class="st4" d="M89.3,577.3c0.7,0.3,9.7,4.6,14.2,4.6c4.5,0,13.7-2.8,13.7-2.8"/>
			<path class="st4" d="M90.5,586.2c3,2.4,7.2,4.4,13.4,4.1c4.5-0.2,9.5-2,9.5-2"/>
			<path class="st20" d="M79.2,747.8c0,0,3.9-4.2,8.6-3.8c4.7,0.4,11.6,5,11.6,5"/>
			<path class="st20" d="M79.5,755.3c0,0,3.2-4.2,7.5-4.2s10.1,3.6,10.1,3.6"/>
			<path class="st20" d="M80.3,762.3c0,0,3-3.4,8.2-3.2c5.2,0.2,8.6,3,8.6,3"/>
			<path class="st20" d="M242.5,746.5c0,0,2.1-7.2,4.9-9.1c2.8-1.9,8-1.9,8-1.9"/>
			<path class="st20" d="M253,747.6c0,0,1.9-4.5,3.4-5.9c3-2.9,6.3-2.3,6.3-2.3"/>
			<path class="st20" d="M264.4,748.2c0,0,2.2-5.5,6.5-6.5"/>
			<path class="st7" d="M131.5,253.7c0,0-8-28.5,13.4-29.5c21.4-1,28.7,11.4,28.9,19.8c0.5,18.3-18.9,22.6-20.9,33
				c-2.2,11,1,14.2,1,14.2"/>
			<path class="st7" d="M154.7,304.3c-1,4.5,0.1,7.6,0.1,7.6"/>
		</g>
	</g>
</g>
</svg>
