<?xml version="1.0" encoding="utf-8"?>
<!-- Generator: Adobe Illustrator 24.0.3, SVG Export Plug-In . SVG Version: 6.00 Build 0)  -->
<svg version="1.1" id="Layer_1" xmlns="http://www.w3.org/2000/svg" xmlns:xlink="http://www.w3.org/1999/xlink" x="0px" y="0px"
	 viewBox="0 0 1920 611.9" style="enable-background:new 0 0 1920 611.9;" xml:space="preserve">
<style type="text/css">
	.st0{fill:#F8F6F8;}
	.st1{clip-path:url(#SVGID_2_);}
	.st2{fill:url(#SVGID_3_);}
	.st3{fill:url(#SVGID_4_);}
	.st4{fill:url(#SVGID_5_);}
	.st5{fill:url(#SVGID_6_);}
	.st6{fill:url(#SVGID_7_);}
	.st7{fill:url(#SVGID_8_);}
	.st8{fill:url(#SVGID_9_);}
	.st9{fill:url(#SVGID_10_);}
</style>
<g>
	<g>
		<g>
			<g>
				<g>
					<g>
						<g>
							<g>
								<g>
									<g>
										<rect class="st0" width="1920" height="611.9"/>
									</g>
								</g>
							</g>
						</g>
					</g>
				</g>
			</g>
		</g>
		<g>
			<defs>
				<rect id="SVGID_1_" width="1920" height="611.9"/>
			</defs>
			<clipPath id="SVGID_2_">
				<use xlink:href="#SVGID_1_"  style="overflow:visible;"/>
			</clipPath>
			<g class="st1">
				<g>
					<g>
						
							<image style="overflow:visible;opacity:0.8;" width="1771" height="1084" xlink:href="A655ED9BAE43D323.png"  transform="matrix(1 0 0 1 -693.5393 -72.4112)">
						</image>
						<g>
							
								<linearGradient id="SVGID_3_" gradientUnits="userSpaceOnUse" x1="-257.5147" y1="1082.3951" x2="-1868.1421" y2="1436.5382" gradientTransform="matrix(0.2695 -1.1938 0.966 0.2772 -774.4262 -728.1477)">
								<stop  offset="0" style="stop-color:#00AA9D"/>
								<stop  offset="1" style="stop-color:#6BC62A"/>
							</linearGradient>
							<path class="st2" d="M931,341.5c-36.1-17.5-61.6-57.7-62.1-105.7C867.7,103,787-12.3,671.8-24.6
								C558.2-36.8,459.7,54.5,427,175.6c-19.6,72.3-66.8,131-127.3,148.3c-2.7,0.8-5.5,1.6-8.2,2.5
								c-65.7,22.1-133.9-7.7-173.5-72.2c-92-150-264.2-201.7-410.3-120.4c-57.7,32.1-122.2,40-180.3,15.4
								C-542.2,119.7-633,170.4-644.9,281c-10.5,98.2,47.7,124,95.8,180.5c67.4,79.2,50.1,217.8,105.5,311.2
								c55.1,93,142,152.7,237.2,163c70.4,7.6,142.8-12,205.6-55.8c58.8-41.1,105.1-125.5,179.4-109.5c30.6,6.6,57.1,28.3,86.6,39.9
								c69.8,27.6,164.5-37.5,217.8,33.6c16.4,21.9,40.3,35.5,67.8,34.9c45.8-1,59.9-46.6,67.4-102.1c13.9-102.9-34.2-88-66-148.9
								c-10.7-20.5-11.6-49.4,0.1-70.3c36.9-65.4,175.5-55,218-15c19.6,18.4,32.8,45.5,52.7,63.4c68,60.9,166.2-13.2,178.8-108.9
								C1011.2,426.2,978.9,364.8,931,341.5z"/>
						</g>
					</g>
					<g>
						
							<image style="overflow:visible;opacity:0.8;" width="2608" height="1308" xlink:href="A655ED9BAE43D321.png"  transform="matrix(1 0 0 1 -930.8109 -498.6827)">
						</image>
						<g>
							
								<linearGradient id="SVGID_4_" gradientUnits="userSpaceOnUse" x1="607.0992" y1="567.2947" x2="508.3218" y2="-531.4908" gradientTransform="matrix(0.9959 8.953191e-02 -8.953191e-02 0.9959 -196.8234 -141.9665)">
								<stop  offset="0" style="stop-color:#00AA9D"/>
								<stop  offset="0.1012" style="stop-color:#23B383"/>
								<stop  offset="0.2727" style="stop-color:#59C15C"/>
								<stop  offset="0.4404" style="stop-color:#86CC3B"/>
								<stop  offset="0.6005" style="stop-color:#A9D521"/>
								<stop  offset="0.7511" style="stop-color:#C2DB0F"/>
								<stop  offset="0.8883" style="stop-color:#D1DF04"/>
								<stop  offset="1" style="stop-color:#D6E000"/>
							</linearGradient>
							<path class="st3" d="M1247.8,323.8c-89.4-26.2-180.1-81.1-166.7-157.8c0.3-1.9,0.6-3.7,0.9-5.6
								c8.4-52.5,56.3-87.8,109.2-83.1c122.9,10.9,244.2-74.9,262.1-209.1c17.2-129.7-68.5-248.3-197.3-271.1
								C1148.1-422,1047-367.8,999.4-278.8c-24.5,45.7-106.2,41.8-153.2,19.9c-124.7-58-248.1-19.8-357.1,62.4
								c-56.2,42.4-137.5,29.3-177.9-28.3C227.7-343.5,94.7-426.1-61-440.1C-248.8-457-421.8-370-523.5-226.6
								c-32.3,45.6-90,65.1-143.3,48.3c-89-28.1-196.9,26.8-206.8,136.8c-9.1,100.9,73.1,173.6,160.2,172.8
								c54.4-0.5,102.6,36.5,118.7,88.5c59.5,191.9,229.8,338.6,442.2,357.7c173.8,15.7,334.9-57.7,438.6-182.5
								c45.2-54.4,127.1-61.6,180.1-14.7c86.1,76.3,204,109.1,317.4,87.5C837,457.8,887.4,492,899.2,545
								c20.2,90.5,96.5,164.5,197.3,173.6c70,6.3,135.3-20.6,180.5-67.7c31.1-32.4,76.6-47,120-35.3c84.5,23,181.4-32.1,190.4-132.2
								c12.5-138.5-107.7-156.1-211.9-143.4C1344.4,343.8,1296.3,338,1247.8,323.8z"/>
						</g>
					</g>
				</g>
				<g>
					
						<image style="overflow:visible;opacity:0.8;" width="431" height="431" xlink:href="A655ED9BAE43D327.png"  transform="matrix(1 0 0 1 85.8206 -100.0513)">
					</image>
					<g>
						<linearGradient id="SVGID_5_" gradientUnits="userSpaceOnUse" x1="420.7193" y1="97.863" x2="147.4562" y2="97.863">
							<stop  offset="0" style="stop-color:#D6E000"/>
							<stop  offset="1" style="stop-color:#00AA9D"/>
						</linearGradient>
						<ellipse class="st4" cx="284.1" cy="97.9" rx="136.6" ry="136.7"/>
					</g>
				</g>
				<g>
					
						<image style="overflow:visible;opacity:0.8;" width="1312" height="764" xlink:href="A655ED9BAE43D320.png"  transform="matrix(1 0 0 1 827.9971 -175.8747)">
					</image>
					<g>
						<linearGradient id="SVGID_6_" gradientUnits="userSpaceOnUse" x1="1413.4496" y1="-196.8643" x2="1567.4366" y2="723.3057">
							<stop  offset="0" style="stop-color:#D6E000"/>
							<stop  offset="1" style="stop-color:#00AA9D"/>
						</linearGradient>
						<path class="st5" d="M1979.6,23.3c-36.7-1.7-72.3,14.8-94.6,44.1c-18.4,24.1-13.7,91.3-33.8,103.8c-11.6,7.2-26.8-0.1-37.1-9
							c-17.6-15.3-33.2-24.9-56.1-29.9c-23-5.1-52.5,5.4-73.2-6.9c-26.1-15.4-27.7-70.6-41.5-96.8c-17.5-33.1-43.4-61.5-74.4-82.4
							c-63.2-42.6-132.1-45.5-202.8-26c-58.1,16-75-60.1-134.3-61.7c-50-1.3-93.2,38.1-96.4,88c-2.3,37,16.9,70.2,46.6,87.5
							c23.6,13.7,36.7,40.7,32.7,67.7c-0.1,0.4-0.1,0.9-0.2,1.3c-10.1,71.1-148.8,90.7-187.9,39.3c-19.1-25.1-50.7-40-85.6-35.3
							c-42,5.6-75,40.5-78.7,82.7c-3.7,43,21.9,79.5,57.9,93.7c26.4,10.4,42.9,36,42.9,64.3c-0.3,99,79.7,186.4,186,186.4
							c82.3,0,152.1-53.5,176.5-127.5c10.7-32.4,42.9-51.8,76.5-46c39,6.7,78.8,2.8,116-10.3c30.9-10.9,57-30.6,90.3-12.4
							c13.9,7.6,24.5,19.9,36.9,29.8c55.1,44.4,139.1,36.1,184.4-18.2c8.7-10.4,21.9-15.8,35.2-13.6c81.3,13.6,71.8-69.8,126.5-89.7
							c56-20.4,100.8-55.6,93.8-122.9C2079.9,68.8,2034.3,25.9,1979.6,23.3z"/>
					</g>
				</g>
				<g>
					
						<image style="overflow:visible;opacity:0.8;" width="1396" height="947" xlink:href="A655ED9BAE43D32E.png"  transform="matrix(1 0 0 1 1046.6273 -119.2445)">
					</image>
					<g>
						
							<linearGradient id="SVGID_7_" gradientUnits="userSpaceOnUse" x1="1828.1954" y1="345.2359" x2="2267.385" y2="1489.0598" gradientTransform="matrix(0.9417 -0.3364 0.3364 0.9417 -308.5119 402.7992)">
							<stop  offset="0" style="stop-color:#00AA9D"/>
							<stop  offset="1" style="stop-color:#D6E000"/>
						</linearGradient>
						<path class="st6" d="M2191.8-38.2c-36.5,25.3-83.7,29.2-122.1,6.9c-79.1-46.1-177.2-58.3-270.2-25.1
							c-136.2,48.6-219.2,179.7-213.1,317c0.9,19.7-10.3,38.3-28.4,46.2c-0.3,0.1-0.5,0.2-0.8,0.3c-21.9,9.7-47.8,2.4-59.9-18.2
							c-47.2-80.8-146.7-119.6-238.3-86.8c-109.4,39.1-156.2,158.2-119.3,256.9c13.9,37.2,5.6,78.2-20.5,108
							c-26.8,30.6-36.7,74.6-21.6,115.7c21.3,58.4,87.4,89.7,146.1,69.2c41.3-14.4,69.1-49.9,75.7-90c6.4-38.6,31.7-71.7,68.8-84
							c0.6-0.2,1.3-0.4,1.9-0.6c38.1-13,80.5-3.3,108.2,25.9c71.9,75.9,199.2,75.6,270.1-3.3c24.4-27.2,61.3-39.2,97.5-34.2
							c185.6,25.2,355.2-118.8,363.5-303.1c1.9-43.4,28.2-83,68.9-98.3c55-20.6,91.6-82.7,68.7-146.9
							C2338.9-61.2,2248.9-77.8,2191.8-38.2z"/>
					</g>
				</g>
				<g>
					
						<image style="overflow:visible;opacity:0.8;" width="261" height="262" xlink:href="A655ED9BAE43D32F.png"  transform="matrix(1 0 0 1 1350.8348 122.9629)">
					</image>
					<g>
						<linearGradient id="SVGID_8_" gradientUnits="userSpaceOnUse" x1="1448.0239" y1="147.4623" x2="1577.0586" y2="683.4507">
							<stop  offset="0" style="stop-color:#D6E000"/>
							<stop  offset="1" style="stop-color:#00AA9D"/>
						</linearGradient>
						<ellipse class="st7" cx="1471.1" cy="243.3" rx="82.7" ry="82.7"/>
					</g>
				</g>
				<g>
					
						<image style="overflow:visible;opacity:0.8;" width="154" height="154" xlink:href="A655ED9BAE43D322.png"  transform="matrix(1 0 0 1 1697.5635 338.6917)">
					</image>
					<g>
						<linearGradient id="SVGID_9_" gradientUnits="userSpaceOnUse" x1="1754.7201" y1="352.9549" x2="1830.2036" y2="666.5009">
							<stop  offset="0" style="stop-color:#D6E000"/>
							<stop  offset="1" style="stop-color:#00AA9D"/>
						</linearGradient>
						<ellipse class="st8" cx="1768.2" cy="409" rx="48.4" ry="48.4"/>
					</g>
				</g>
				<g>
					
						<image style="overflow:visible;opacity:0.8;" width="176" height="176" xlink:href="A655ED9BAE43D325.png"  transform="matrix(1 0 0 1 272.4008 444.529)">
					</image>
					<g>
						<linearGradient id="SVGID_10_" gradientUnits="userSpaceOnUse" x1="317.4719" y1="377.2067" x2="404.2553" y2="737.6905">
							<stop  offset="0" style="stop-color:#D6E000"/>
							<stop  offset="1" style="stop-color:#00AA9D"/>
						</linearGradient>
						<path class="st9" d="M297.5,525.1c0,30.7,24.9,55.6,55.6,55.6c30.7,0,55.6-24.9,55.6-55.6c0-30.7-24.9-55.6-55.6-55.6
							C322.4,469.5,297.5,494.4,297.5,525.1z"/>
					</g>
				</g>
			</g>
		</g>
	</g>
</g>
</svg>
