<?xml version="1.0" encoding="utf-8"?>
<!-- Generator: Adobe Illustrator 24.0.3, SVG Export Plug-In . SVG Version: 6.00 Build 0)  -->
<svg version="1.1" xmlns="http://www.w3.org/2000/svg" xmlns:xlink="http://www.w3.org/1999/xlink" x="0px" y="0px"
	 viewBox="0 0 3071 2125.4" style="enable-background:new 0 0 3071 2125.4;" xml:space="preserve">
<style type="text/css">
	.st0{fill:url(#SVGID_1_);}
	.st1{fill:url(#SVGID_2_);}
	.st2{fill:url(#SVGID_3_);}
	.st3{fill:url(#SVGID_4_);}
	.st4{fill:url(#SVGID_5_);}
	.st5{fill:url(#SVGID_6_);}
	.st6{fill:url(#SVGID_7_);}
	.st7{fill:url(#SVGID_8_);}
	.st8{fill:url(#SVGID_9_);}
	.st9{fill:url(#SVGID_10_);}
	.st10{display:none;fill:none;stroke:#ED1C24;stroke-width:3;stroke-miterlimit:10;}
</style>
<g id="footer">
</g>
<g id="blue">
</g>
<g id="yellow">
</g>
<g id="green">
</g>
<g id="purple">
</g>
<g id="protect">
</g>
<g id="connect">
</g>
<g id="treat">
</g>
<g id="love">
</g>
<g id="logo">
</g>
<g id="header">
	<g>
		
			<image style="overflow:visible;opacity:0.8;" width="1413" height="829" xlink:href="2E29D2306F524F04.png"  transform="matrix(1 0 0 1 1079.6265 288.0907)">
		</image>
		<g>
			
				<linearGradient id="SVGID_1_" gradientUnits="userSpaceOnUse" x1="1826.8177" y1="595.0985" x2="1994.9729" y2="1599.9318" gradientTransform="matrix(-0.9993 -3.847029e-02 3.847029e-02 -0.9993 3628.7266 1776.2356)">
				<stop  offset="0" style="stop-color:#00A99D"/>
				<stop  offset="1" style="stop-color:#D9E021"/>
			</linearGradient>
			<path class="st0" d="M1226.3,848.3c39.4,3.4,78.3-13.2,103.4-44.2c20.7-25.6,18.5-99.1,40.7-111.8c12.8-7.4,28.8,1.2,39.5,11.4
				c18.2,17.4,34.7,28.5,59,34.9c24.5,6.5,56.6-3.7,78.4,10.5c27.4,17.9,26.7,78.2,40.5,107.3c17.4,36.8,44,68.9,76.4,93
				c66.1,49.1,140,55.1,216.8,36.7c63.1-15.1,78,68.7,141.7,72.9c53.7,3.5,101.7-37.7,107.2-92.1c4.1-40.3-15.2-77.3-46.4-97.4
				c-24.8-16-37.7-45.9-32.3-75.3c0.1-0.5,0.2-0.9,0.3-1.4c13.8-77.2,163.6-92.8,203.5-35.2c19.4,28.1,52.8,45.7,90.5,42.1
				c45.3-4.4,82.3-41.1,88-87c5.8-46.7-20.2-87.7-58.3-104.7c-27.9-12.4-44.6-41-43.3-71.9c4.5-108-77.8-206.6-192-211
				c-88.4-3.4-165.6,52.1-195,131.8c-12.9,34.9-48.2,54.7-84.1,47.1c-41.6-8.9-84.5-6.3-125.1,6.4c-33.6,10.6-62.6,31-97.6,9.8
				c-14.6-8.9-25.5-22.7-38.4-34c-57.4-50.7-148-45.1-198.9,12.2c-9.7,11-24.2,16.4-38.4,13.4c-86.8-18.2-80,73.1-139.7,92.6
				c-61,19.9-110.6,56.5-106,130.2C1120.4,794.6,1167.6,843.3,1226.3,848.3z"/>
		</g>
	</g>
	<g>
		
			<image style="overflow:visible;opacity:0.8;" width="847" height="417" xlink:href="2E29D2306F524F05.png"  transform="matrix(1 0 0 1 2223.9932 1502.4574)">
		</image>
		<g>
			<linearGradient id="SVGID_2_" gradientUnits="userSpaceOnUse" x1="2248.6348" y1="1703.9064" x2="3032.6995" y2="1703.9064">
				<stop  offset="0" style="stop-color:#FCEE21"/>
				<stop  offset="0.1142" style="stop-color:#FBDC20"/>
				<stop  offset="0.3551" style="stop-color:#F9BC1F"/>
				<stop  offset="0.5882" style="stop-color:#F8A61F"/>
				<stop  offset="0.8078" style="stop-color:#F7981E"/>
				<stop  offset="1" style="stop-color:#F7931E"/>
			</linearGradient>
			<path class="st1" d="M2955.1,1618.3c-23.8,5.3-48.6-2.6-63.5-21.9c-30.6-39.9-78-66.6-132.1-69c-79.4-3.6-148.8,45.7-174.3,116.8
				c-3.7,10.2-13.2,17.3-24.1,17.6c-0.2,0-0.3,0-0.5,0c-13.1,0.4-24.8-8.7-26.6-21.7c-7.1-50.9-49.7-91.3-103.1-93.8
				c-63.8-2.9-112.4,47.9-114.2,105.8c-0.7,21.8-13.4,40.9-32.9,50.7c-20,10-34.2,30.3-35.1,54.3c-1.3,34.1,25.8,63.8,59.9,65.6
				c24,1.3,45.5-11,57.3-30c11.3-18.3,31-29.9,52.5-28.4c0.4,0,0.7,0,1.1,0.1c22.1,1.3,41.6,15.1,49.6,35.7
				c20.7,53.5,85.5,79.9,138,54.6c18.1-8.7,39.3-7.1,56.7,2.9c89.1,51.5,205.3,13.6,247.9-78.4c10-21.7,31.6-36.3,55.5-35.6
				c32.3,1,63.8-23,65.5-60.4C3034.7,1637.3,2992.4,1610.1,2955.1,1618.3z"/>
		</g>
	</g>
	<g>
		
			<image style="overflow:visible;opacity:0.8;" width="1481" height="850" xlink:href="2E29D2306F524F06.png"  transform="matrix(1 0 0 1 1435.4113 169.8755)">
		</image>
		<g>
			
				<linearGradient id="SVGID_3_" gradientUnits="userSpaceOnUse" x1="2759.6948" y1="318.3396" x2="3202.5469" y2="1471.702" gradientTransform="matrix(0.9799 -0.1994 0.1994 0.9799 -772.9572 589.5906)">
				<stop  offset="0" style="stop-color:#FCEE21"/>
				<stop  offset="0.1142" style="stop-color:#FBDC20"/>
				<stop  offset="0.3551" style="stop-color:#F9BC1F"/>
				<stop  offset="0.5882" style="stop-color:#F8A61F"/>
				<stop  offset="0.8078" style="stop-color:#F7981E"/>
				<stop  offset="1" style="stop-color:#F7931E"/>
			</linearGradient>
			<path class="st2" d="M2677.7,295c-40.1,20-87.7,17.2-122.9-10.6c-72.4-57.3-168.6-83.6-266.1-63.7c-142.9,29.1-244.4,148-258,286
				c-1.9,19.8-15.8,36.8-35,42.1c-0.3,0.1-0.5,0.1-0.8,0.2c-23.2,6.5-48.1-4.4-57.2-26.7c-35.5-87.4-129.3-140.3-225.5-120.7
				c-114.8,23.4-178.5,135.6-155.9,239.4c8.5,39.1-5.5,78.9-36,104.9c-31.1,26.7-47.3,69.2-38.1,112.4c13,61.3,74.4,102,135.9,90
				c43.2-8.5,76.1-39.9,88.5-79c11.9-37.6,41.9-67.1,80.7-74c0.7-0.1,1.3-0.2,2-0.4c39.9-7.5,80.9,8.2,104.3,41.3
				c60.9,86,188,103.9,270.1,35.4c28.3-23.6,66.8-30.3,102.2-20.2c181.6,51.7,371.6-67.8,406.2-250.6c8.1-43,40-78.8,82.8-88.2
				c57.8-12.7,103.3-69.5,89.6-136.8C2827.8,293,2740.3,263.6,2677.7,295z"/>
		</g>
	</g>
	<g>
		
			<image style="overflow:visible;opacity:0.8;" width="1131" height="872" xlink:href="2E29D2306F524F03.png"  transform="matrix(1 0 0 1 0 591.4642)">
		</image>
		<g>
			
				<linearGradient id="SVGID_4_" gradientUnits="userSpaceOnUse" x1="790.7145" y1="432.5225" x2="1150.1384" y2="1368.6046" gradientTransform="matrix(0.7656 0.6434 -0.6434 0.7656 311.1241 -19.8685)">
				<stop  offset="0" style="stop-color:#4D85F7"/>
				<stop  offset="1" style="stop-color:#8EF5FB"/>
			</linearGradient>
			<path class="st3" d="M1018.6,1225.7c-33-15.3-55.2-47.1-55.3-83.4c-0.1-74.9-32-149.3-93.8-201.3c-90.6-76.1-217.5-80.7-312-19.7
				c-13.6,8.8-31.3,8.5-44.4-1c-0.2-0.1-0.4-0.3-0.5-0.4c-15.9-11.5-21.5-32.8-11.8-49.8c37.6-66.7,23.9-153-37.1-204.3
				c-72.8-61.2-176.3-45-230.8,21.8c-20.6,25.2-52.9,36.3-84.8,30.1c-32.7-6.3-67.8,4.9-90.7,32.5C25,789.3,30.1,848.9,68.8,882
				c27.2,23.2,63.8,28.2,94.9,16.3c29.9-11.4,63.8-7.2,87.7,13.9c0.4,0.4,0.8,0.7,1.2,1.1c24.9,21.6,35.6,55.5,26.4,87.2
				c-23.9,82.1,28.8,171.9,113.9,189.5c29.3,6.1,53,27.1,64.4,54.7c58.8,141.5,230.6,202,364.3,131.7c31.5-16.6,70.3-14.3,97.9,8.1
				c37.3,30.3,96.3,30.6,132.2-12.1C1095.6,1320.1,1070.1,1249.6,1018.6,1225.7z"/>
		</g>
	</g>
	<g>
		
			<image style="overflow:visible;opacity:0.8;" width="1011" height="914" xlink:href="2E29D2306F524F1C.png"  transform="matrix(1 0 0 1 1638.057 167.5212)">
		</image>
		<g>
			
				<linearGradient id="SVGID_5_" gradientUnits="userSpaceOnUse" x1="2387.48" y1="1055.4072" x2="2746.4551" y2="1990.3206" gradientTransform="matrix(-0.6301 -0.7068 0.7482 -0.667 2727.3738 3198.4482)">
				<stop  offset="0" style="stop-color:#4D85F7"/>
				<stop  offset="1" style="stop-color:#8EF5FB"/>
			</linearGradient>
			<path class="st4" d="M1714.2,373.4c29.2,18.5,45.3,51.6,39.2,86.6c-12.5,72.3,5.8,147.5,56.6,204.5
				c74.5,83.5,195.8,102.1,297,53.8c14.5-6.9,31.6-4.7,42.6,5.9c0.2,0.1,0.3,0.3,0.5,0.4c13.3,12.8,15.2,34,3.1,49.4
				c-47.4,60.1-48.6,144.9,1.5,201.1c59.9,67.1,162.2,63.1,225.8,4.8c24-22,57-29.1,86.7-19.5c30.4,9.8,66.1,2.9,92.7-21.2
				c37.8-34.2,42.8-92.2,11.1-128.4c-22.3-25.4-56.7-34.3-88.6-26.3c-30.7,7.7-62.6-0.2-82.1-23.2c-0.3-0.4-0.7-0.8-1-1.2
				c-20.4-23.6-25-57.5-10.8-87c36.8-76.5,1-169-77.9-195.5c-27.2-9.1-46.5-32.1-52.9-60c-33-143-188.2-220.5-328.6-167.7
				c-33.1,12.4-70.1,6-92.9-18.7c-30.8-33.4-87.6-40.2-129.2-3.1C1655.9,273.7,1668.6,344.5,1714.2,373.4z"/>
		</g>
	</g>
	<g>
		
			<image style="overflow:visible;opacity:0.8;" width="484" height="485" xlink:href="2E29D2306F524F01.png"  transform="matrix(1 0 0 1 1896.5358 0)">
		</image>
		<g>
			
				<linearGradient id="SVGID_6_" gradientUnits="userSpaceOnUse" x1="1904.5656" y1="197.8386" x2="2210.9048" y2="197.8386" gradientTransform="matrix(0.9956 9.421744e-02 -9.421744e-02 0.9956 88.6552 -168.0807)">
				<stop  offset="0" style="stop-color:#9E005D"/>
				<stop  offset="0.126" style="stop-color:#B11C7E"/>
				<stop  offset="0.2672" style="stop-color:#C1369B"/>
				<stop  offset="0.4175" style="stop-color:#CE49B2"/>
				<stop  offset="0.5791" style="stop-color:#D757C2"/>
				<stop  offset="0.7601" style="stop-color:#DC5FCC"/>
				<stop  offset="1" style="stop-color:#DE62CF"/>
			</linearGradient>
			<path class="st5" d="M1966.1,208.3c-8,84.3,53.8,159.1,138,167.1c84.2,8,159-53.9,166.9-138.2c8-84.3-53.8-159.1-138-167.1
				C2048.8,62.1,1974.1,124,1966.1,208.3z"/>
		</g>
	</g>
	<g>
		
			<image style="overflow:visible;opacity:0.8;" width="288" height="274" xlink:href="2E29D2306F524F02.png"  transform="matrix(1 0 0 1 1642.4159 657.8801)">
		</image>
		<g>
			
				<linearGradient id="SVGID_7_" gradientUnits="userSpaceOnUse" x1="1719.8893" y1="785.9423" x2="1884.053" y2="785.9423" gradientTransform="matrix(1.1644 0.1101 -0.102 1.0771 -242.3615 -261.1294)">
				<stop  offset="0" style="stop-color:#9E005D"/>
				<stop  offset="0.126" style="stop-color:#B11C7E"/>
				<stop  offset="0.2672" style="stop-color:#C1369B"/>
				<stop  offset="0.4175" style="stop-color:#CE49B2"/>
				<stop  offset="0.5791" style="stop-color:#D757C2"/>
				<stop  offset="0.7601" style="stop-color:#DC5FCC"/>
				<stop  offset="1" style="stop-color:#DE62CF"/>
			</linearGradient>
			<path class="st6" d="M1680.1,774.8c-4.6,48.9,34.4,92.5,87.2,97.5c52.8,5,99.3-30.6,104-79.5c4.6-48.9-34.4-92.5-87.2-97.5
				C1731.3,690.3,1684.7,725.9,1680.1,774.8z"/>
		</g>
	</g>
	<g>
		
			<image style="overflow:visible;opacity:0.8;" width="278" height="278" xlink:href="2E29D2306F524F00.png"  transform="matrix(1 0 0 1 2082.8386 1114.303)">
		</image>
		<g>
			<linearGradient id="SVGID_8_" gradientUnits="userSpaceOnUse" x1="2119.8877" y1="1242.8981" x2="2303.0164" y2="1242.8981">
				<stop  offset="0" style="stop-color:#9E005D"/>
				<stop  offset="0.126" style="stop-color:#B11C7E"/>
				<stop  offset="0.2672" style="stop-color:#C1369B"/>
				<stop  offset="0.4175" style="stop-color:#CE49B2"/>
				<stop  offset="0.5791" style="stop-color:#D757C2"/>
				<stop  offset="0.7601" style="stop-color:#DC5FCC"/>
				<stop  offset="1" style="stop-color:#DE62CF"/>
			</linearGradient>
			<path class="st7" d="M2120.2,1233.6c-4.4,50.3,32.8,95.2,83.2,100.4c50.4,5.1,94.8-31.5,99.2-81.8c4.4-50.3-32.8-95.2-83.2-100.4
				C2169.1,1146.7,2124.7,1183.3,2120.2,1233.6z"/>
		</g>
	</g>
	<g>
		
			<image style="overflow:visible;opacity:0.8;" width="374" height="371" xlink:href="2E29D2306F524F0C.png"  transform="matrix(1 0 0 1 872.9184 1754.3826)">
		</image>
		<g>
			
				<linearGradient id="SVGID_9_" gradientUnits="userSpaceOnUse" x1="1160.7278" y1="1889.3458" x2="1370.8566" y2="1889.3458" gradientTransform="matrix(0.9012 -0.7455 0.6895 0.8337 -1397.4707 1294.3785)">
				<stop  offset="0" style="stop-color:#00A99D"/>
				<stop  offset="1" style="stop-color:#D9E021"/>
			</linearGradient>
			<ellipse class="st8" cx="1046" cy="1925.9" rx="123.6" ry="121.8"/>
		</g>
	</g>
	<g>
		
			<image style="overflow:visible;opacity:0.8;" width="541" height="541" xlink:href="AC0B610016E56CE0.png"  transform="matrix(1 0 0 1 2249.1873 268.6516)">
		</image>
		<g>
			
				<linearGradient id="SVGID_10_" gradientUnits="userSpaceOnUse" x1="2291.8701" y1="455.4822" x2="2634.1997" y2="455.4822" gradientTransform="matrix(0.9956 9.421744e-02 -9.421744e-02 0.9956 88.6552 -168.0807)">
				<stop  offset="0" style="stop-color:#00A99D"/>
				<stop  offset="1" style="stop-color:#D9E021"/>
			</linearGradient>
			<path class="st9" d="M2327.4,501.3c-8.9,94.2,60.1,177.8,154.3,186.7c94.1,8.9,177.6-60.2,186.5-154.5
				c8.9-94.2-60.1-177.8-154.3-186.7C2419.9,337.9,2336.3,407.1,2327.4,501.3z"/>
		</g>
	</g>
</g>
<g id="Gary">
</g>
<g id="text">
</g>
<g id="icons">
</g>
<g id="grid">
	<rect x="726.6" y="187.1" class="st10" width="1920" height="1080"/>
</g>
</svg>
