<?xml version="1.0" encoding="utf-8"?>
<!-- Generator: Adobe Illustrator 22.0.1, SVG Export Plug-In . SVG Version: 6.00 Build 0)  -->
<svg version="1.1" id="Layer_1" xmlns="http://www.w3.org/2000/svg" xmlns:xlink="http://www.w3.org/1999/xlink" x="0px" y="0px"
	 viewBox="0 0 53.8 40" style="enable-background:new 0 0 53.8 40;" xml:space="preserve">
<style type="text/css">
	.st0{fill:#FFFFFF;}
</style>
<g id="XMLID_1_">
	<path id="XMLID_6_" class="st0" d="M8.3,22.4h28.3c1.4,0,2.4-1.1,2.4-2.4c0-1.4-1.1-2.4-2.4-2.4H8.3l3.2-3.2c1-1,1-2.5,0-3.5
		c-1-1-2.5-1-3.5,0l-7.3,7.3c-0.1,0.1-0.1,0.1-0.2,0.2c0,0,0,0,0,0c0,0-0.1,0.1-0.1,0.1c0,0,0,0,0,0c0,0.1-0.1,0.1-0.1,0.2
		c0,0,0,0,0,0c0,0.1-0.1,0.1-0.1,0.2c0,0,0,0,0,0c0,0.1-0.1,0.1-0.1,0.2c0,0,0,0,0,0c0,0.1,0,0.1-0.1,0.2c0,0,0,0,0,0.1
		c0,0.1,0,0.1,0,0.2c0,0.1,0,0.2,0,0.2c0,0.1,0,0.2,0,0.2c0,0.1,0,0.1,0,0.2c0,0,0,0,0,0.1c0,0.1,0,0.1,0.1,0.2c0,0,0,0,0,0
		c0,0.1,0,0.1,0.1,0.2c0,0,0,0,0,0c0,0.1,0.1,0.1,0.1,0.2c0,0,0,0,0,0c0,0.1,0.1,0.1,0.1,0.2c0,0,0,0,0,0c0,0.1,0.1,0.1,0.1,0.1
		c0,0,0,0,0,0c0.1,0.1,0.1,0.1,0.2,0.2l7.3,7.3c0.5,0.5,1.1,0.7,1.7,0.7s1.3-0.2,1.7-0.7c1-1,1-2.5,0-3.5L8.3,22.4z"/>
	<path id="XMLID_3_" class="st0" d="M33.8,0c-6.7,0-12.9,3.3-16.6,8.9c-0.8,1.1-0.5,2.6,0.7,3.4c1.1,0.8,2.6,0.5,3.4-0.7
		c2.8-4.2,7.5-6.7,12.6-6.7c8.3,0,15.1,6.8,15.1,15.1s-6.8,15.1-15.1,15.1c-5,0-9.7-2.5-12.5-6.7c-0.8-1.1-2.3-1.4-3.4-0.7
		c-1.1,0.8-1.4,2.3-0.7,3.4c3.7,5.5,9.9,8.8,16.6,8.8c11,0,20-9,20-20S44.8,0,33.8,0z"/>
</g>
</svg>
