<?xml version="1.0" encoding="utf-8"?>
<!-- Generator: Adobe Illustrator 22.0.1, SVG Export Plug-In . SVG Version: 6.00 Build 0)  -->
<svg version="1.1" id="Layer_1" xmlns="http://www.w3.org/2000/svg" xmlns:xlink="http://www.w3.org/1999/xlink" x="0px" y="0px"
	 viewBox="0 0 60.3 60.3" style="enable-background:new 0 0 60.3 60.3;" xml:space="preserve">
<style type="text/css">
	.st0{fill:#FF1B4A;}
	.st1{fill:#FFFFFF;}
</style>
<g>
	<path class="st0" d="M60.3,30.1c0,16.6-13.5,30.1-30.1,30.1C13.5,60.3,0,46.8,0,30.1C0,13.5,13.5,0,30.1,0
		C46.8,0,60.3,13.5,60.3,30.1z"/>
	<g>
		<path class="st1" d="M41.7,11.3H18.6c-4,0-7.3,3.3-7.3,7.3v7.7v15.4c0,4,3.3,7.3,7.3,7.3h23.1c4,0,7.3-3.3,7.3-7.3V26.3v-7.7
			C49,14.6,45.7,11.3,41.7,11.3z M43.8,15.6l0.8,0v0.8V22l-6.4,0l0-6.4L43.8,15.6z M24.8,26.3c1.2-1.7,3.2-2.8,5.4-2.8
			s4.2,1.1,5.4,2.8c0.8,1.1,1.3,2.4,1.3,3.9c0,3.7-3,6.6-6.6,6.6c-3.7,0-6.6-3-6.6-6.6C23.5,28.7,24,27.4,24.8,26.3z M45.3,41.7
			c0,2-1.6,3.6-3.6,3.6H18.6c-2,0-3.6-1.6-3.6-3.6V26.3h5.6c-0.5,1.2-0.8,2.5-0.8,3.9c0,5.7,4.6,10.3,10.3,10.3
			c5.7,0,10.3-4.6,10.3-10.3c0-1.4-0.3-2.7-0.8-3.9h5.6V41.7z"/>
	</g>
</g>
</svg>
