<?xml version="1.0" encoding="utf-8"?>
<!-- Generator: Adobe Illustrator 22.0.1, SVG Export Plug-In . SVG Version: 6.00 Build 0)  -->
<svg version="1.1" id="Layer_1" xmlns="http://www.w3.org/2000/svg" xmlns:xlink="http://www.w3.org/1999/xlink" x="0px" y="0px"
	 viewBox="0 0 40 40" style="enable-background:new 0 0 40 40;" xml:space="preserve">
<style type="text/css">
	.st0{fill:#FFFFFF;}
</style>
<g id="surface1_1_">
	<path class="st0" d="M20,40c11,0,20-9,20-20S31,0,20,0S0,9,0,20S9,40,20,40z M15.1,16.3c0-2.7,2.2-4.9,4.9-4.9s4.9,2.2,4.9,4.9
		s-2.2,4.9-4.9,4.9S15.1,19.1,15.1,16.3z M20,36.3c-3.5,0-6.7-1.1-9.4-3c-0.3-0.2-0.6-0.4-0.9-0.7c0.5-1.7,1.4-3.3,2.7-4.6
		c2-2,4.7-3.1,7.6-3.1c4.8,0,9,3.2,10.3,7.7c-0.3,0.2-0.6,0.5-0.9,0.7C26.7,35.2,23.5,36.3,20,36.3z M20,3.7c9,0,16.3,7.3,16.3,16.3
		c0,3.6-1.2,7-3.2,9.7c-1.4-3.2-4-5.7-7.1-7.2c1.6-1.6,2.7-3.8,2.7-6.2c0-4.8-3.9-8.6-8.6-8.6s-8.6,3.9-8.6,8.6c0,2.4,1,4.7,2.7,6.2
		c-1.5,0.7-3,1.7-4.2,2.9s-2.2,2.7-2.9,4.2c-2-2.7-3.2-6.1-3.2-9.7C3.7,11,11,3.7,20,3.7z"/>
</g>
</svg>
