<?xml version="1.0" encoding="utf-8"?>
<!-- Generator: Adobe Illustrator 22.0.1, SVG Export Plug-In . SVG Version: 6.00 Build 0)  -->
<svg version="1.1" id="Layer_1" xmlns="http://www.w3.org/2000/svg" xmlns:xlink="http://www.w3.org/1999/xlink" x="0px" y="0px"
	 viewBox="0 0 136 175" style="enable-background:new 0 0 136 175;" xml:space="preserve">
<style type="text/css">
	.st0{fill:#808180;}
	.st1{fill:none;}
	.st2{fill:#FF1B4A;}
	.st3{fill:#FFFFFF;}
	.st4{fill:#0084E0;}
	.st5{fill:#6BC437;}
	.st6{fill:#FF1D7E;}
	.st7{fill:#FFA90F;}
</style>
<g>
	<g>
		<g>
			<path class="st0" d="M21.5,150.7c0.7,0.5,1.4,0.8,1.9,0.9s1,0.3,1.5,0.3c0.5,0,0.9-0.1,1.2-0.3c0.3-0.2,0.4-0.5,0.4-0.8
				c0-0.5-0.5-1-1.6-1.7c-0.2-0.1-0.3-0.2-0.4-0.2l-0.8-0.5c-0.8-0.4-1.4-0.9-1.7-1.5c-0.4-0.6-0.6-1.2-0.6-1.9c0-1,0.4-1.8,1.1-2.4
				c0.7-0.6,1.7-0.9,2.8-0.9c0.4,0,0.9,0,1.4,0.1c0.5,0.1,1,0.3,1.6,0.5v2.8c-0.6-0.4-1.1-0.6-1.6-0.8c-0.5-0.2-1-0.3-1.3-0.3
				c-0.4,0-0.7,0.1-0.9,0.3c-0.2,0.2-0.3,0.4-0.3,0.7c0,0.2,0.1,0.4,0.2,0.6c0.1,0.2,0.3,0.3,0.6,0.5l1.4,0.8c1.2,0.6,2,1.2,2.4,1.8
				c0.4,0.6,0.6,1.2,0.6,2c0,1.2-0.4,2.1-1.2,2.8c-0.8,0.7-1.8,1.1-3.2,1.1c-0.4,0-0.9,0-1.5-0.1c-0.5-0.1-1.1-0.2-1.7-0.4
				L21.5,150.7z"/>
			<path class="st0" d="M33.8,154.1v-9.5H30v-2.5h10.4v2.5h-3.8v9.5H33.8z"/>
			<path class="st0" d="M41.8,154.1v-12h3.1c1,0,1.7,0.1,2.3,0.2c0.5,0.1,1,0.3,1.4,0.6c0.4,0.3,0.8,0.7,1,1.2
				c0.2,0.5,0.4,1,0.4,1.5c0,0.8-0.2,1.4-0.6,2s-0.9,1-1.7,1.3l3.6,5.1h-3.3l-3.2-4.7h-0.4v4.7H41.8z M45,144.3h-0.5v3.3h0.6
				c0.7,0,1.3-0.1,1.6-0.4c0.4-0.3,0.6-0.7,0.6-1.3c0-0.6-0.2-1-0.6-1.2C46.5,144.4,45.9,144.3,45,144.3z"/>
			<path class="st0" d="M51.8,148.1c0-0.9,0.2-1.7,0.5-2.5s0.8-1.5,1.3-2.1c0.6-0.6,1.2-1,2-1.3c0.7-0.3,1.5-0.5,2.3-0.5
				c0.8,0,1.6,0.2,2.3,0.5c0.7,0.3,1.4,0.8,2,1.4c0.6,0.6,1,1.3,1.3,2s0.4,1.6,0.4,2.5c0,0.7-0.1,1.5-0.3,2.1
				c-0.2,0.7-0.5,1.3-0.9,1.8c-0.6,0.8-1.3,1.4-2.1,1.8c-0.8,0.4-1.8,0.6-2.7,0.6c-0.8,0-1.6-0.2-2.3-0.5c-0.7-0.3-1.4-0.8-2-1.4
				c-0.6-0.6-1-1.3-1.3-2.1C52,149.8,51.8,149,51.8,148.1z M54.7,148.1c0,1,0.3,1.9,0.9,2.6c0.6,0.7,1.4,1.1,2.2,1.1
				c0.9,0,1.6-0.3,2.3-1c0.6-0.7,0.9-1.6,0.9-2.6c0-1.1-0.3-1.9-0.9-2.6s-1.4-1.1-2.3-1.1c-0.9,0-1.6,0.4-2.2,1.1
				C55,146.2,54.7,147.1,54.7,148.1z"/>
			<path class="st0" d="M66,154.1v-12.3h0.3l7.4,7v-6.6h2.6v12.4h-0.2l-7.5-7v6.5H66z"/>
			<path class="st0" d="M89.2,147.5v5.8c-0.8,0.4-1.6,0.7-2.3,0.9c-0.8,0.2-1.5,0.3-2.2,0.3c-1.8,0-3.3-0.6-4.5-1.8
				c-1.2-1.2-1.8-2.7-1.8-4.5c0-1.8,0.6-3.4,1.8-4.6s2.8-1.8,4.6-1.8c0.7,0,1.4,0.1,2,0.3c0.6,0.2,1.3,0.5,1.8,0.9l-0.3,3
				c-0.6-0.6-1.1-1-1.7-1.2s-1.1-0.4-1.7-0.4c-1.1,0-2,0.4-2.7,1.1s-1.1,1.6-1.1,2.7c0,1.1,0.3,2.1,1,2.8s1.6,1.1,2.6,1.1
				c0.2,0,0.5,0,0.8-0.1c0.3,0,0.5-0.1,0.8-0.2v-1.7h-2.3v-2.4H89.2z"/>
			<path class="st0" d="M91.6,154.1v-12H99v2.5h-4.6v2.2h3.9v2.5h-3.9v2.4H99v2.5H91.6z"/>
			<path class="st0" d="M101.2,154.1v-12h3.1c1,0,1.7,0.1,2.3,0.2c0.5,0.1,1,0.3,1.4,0.6c0.4,0.3,0.8,0.7,1,1.2
				c0.2,0.5,0.4,1,0.4,1.5c0,0.8-0.2,1.4-0.6,2s-0.9,1-1.7,1.3l3.6,5.1h-3.3l-3.2-4.7H104v4.7H101.2z M104.5,144.3H104v3.3h0.6
				c0.7,0,1.3-0.1,1.6-0.4c0.4-0.3,0.6-0.7,0.6-1.3c0-0.6-0.2-1-0.6-1.2C105.9,144.4,105.3,144.3,104.5,144.3z"/>
			<path class="st0" d="M24.5,171v-9.5h-3.8V159h10.4v2.5h-3.8v9.5H24.5z"/>
			<path class="st0" d="M31.7,165c0-0.9,0.2-1.7,0.5-2.5c0.3-0.8,0.8-1.5,1.3-2.1c0.6-0.6,1.2-1,2-1.3c0.7-0.3,1.5-0.5,2.3-0.5
				c0.8,0,1.6,0.2,2.3,0.5c0.7,0.3,1.4,0.8,2,1.4c0.6,0.6,1,1.3,1.3,2c0.3,0.8,0.4,1.6,0.4,2.5c0,0.7-0.1,1.5-0.3,2.1
				s-0.5,1.3-0.9,1.8c-0.6,0.8-1.3,1.4-2.1,1.8s-1.8,0.6-2.7,0.6c-0.8,0-1.6-0.2-2.3-0.5c-0.7-0.3-1.4-0.8-2-1.4
				c-0.6-0.6-1-1.3-1.3-2.1C31.9,166.7,31.7,165.9,31.7,165z M34.7,165c0,1,0.3,1.9,0.9,2.6c0.6,0.7,1.4,1.1,2.2,1.1
				c0.9,0,1.6-0.3,2.3-1s0.9-1.6,0.9-2.6c0-1-0.3-1.9-0.9-2.6s-1.4-1.1-2.3-1.1c-0.9,0-1.6,0.4-2.2,1.1C35,163.1,34.7,164,34.7,165z
				"/>
			<path class="st0" d="M56.1,164.4v5.8c-0.8,0.4-1.6,0.7-2.3,0.9c-0.8,0.2-1.5,0.3-2.2,0.3c-1.8,0-3.3-0.6-4.5-1.8
				c-1.2-1.2-1.8-2.7-1.8-4.5c0-1.8,0.6-3.4,1.8-4.6s2.8-1.8,4.6-1.8c0.7,0,1.4,0.1,2,0.3c0.6,0.2,1.3,0.5,1.8,0.9l-0.3,3
				c-0.6-0.6-1.1-1-1.7-1.2c-0.5-0.3-1.1-0.4-1.7-0.4c-1.1,0-2,0.4-2.7,1.1s-1.1,1.6-1.1,2.7c0,1.1,0.3,2.1,1,2.8s1.6,1.1,2.6,1.1
				c0.2,0,0.5,0,0.8-0.1c0.3,0,0.5-0.1,0.8-0.2v-1.7H51v-2.4H56.1z"/>
			<path class="st0" d="M58.5,171v-12h7.4v2.5h-4.6v2.2h3.9v2.5h-3.9v2.4h4.7v2.5H58.5z"/>
			<path class="st0" d="M70.5,171v-9.5h-3.8V159h10.4v2.5h-3.8v9.5H70.5z"/>
			<path class="st0" d="M78.5,171v-12h2.8v4.4h4.6V159h2.8v12h-2.8v-5h-4.6v5H78.5z"/>
			<path class="st0" d="M91.5,171v-12h7.4v2.5h-4.6v2.2h3.9v2.5h-3.9v2.4h4.7v2.5H91.5z"/>
			<path class="st0" d="M101.1,171v-12h3.1c1,0,1.7,0.1,2.3,0.2c0.5,0.1,1,0.3,1.4,0.6c0.4,0.3,0.8,0.7,1,1.2c0.2,0.5,0.4,1,0.4,1.5
				c0,0.8-0.2,1.4-0.6,2s-0.9,1-1.7,1.3l3.6,5.1h-3.3l-3.2-4.7h-0.4v4.7H101.1z M104.4,161.2h-0.5v3.3h0.6c0.7,0,1.3-0.1,1.6-0.4
				c0.4-0.3,0.6-0.7,0.6-1.3c0-0.6-0.2-1-0.6-1.2C105.8,161.3,105.2,161.2,104.4,161.2z"/>
		</g>
	</g>
</g>
<g>
	<g>
		<path class="st1" d="M52.4,100.2c16.9-10.1,28.6-20.5,36-31.8C81.1,79.6,69.4,90.1,52.4,100.2z"/>
		<path class="st1" d="M87.8,8.5c0.9,0.7,1.9,1.4,2.7,2.2C89.6,9.9,88.7,9.2,87.8,8.5z"/>
		<path class="st1" d="M18.3,90C18.3,90,18.3,90,18.3,90C18.3,90,18.3,90,18.3,90C18.3,90,18.3,90,18.3,90z"/>
		<path class="st1" d="M45.4,104.2C45.4,104.2,45.4,104.2,45.4,104.2c2.5-1.3,4.8-2.7,7.1-4C50.2,101.5,47.8,102.9,45.4,104.2
			C45.4,104.2,45.4,104.2,45.4,104.2z"/>
		<path class="st1" d="M91.8,11.9c0.8,0.9,1.6,1.8,2.4,2.9C93.4,13.8,92.6,12.8,91.8,11.9z"/>
	</g>
	<g>
		<path class="st1" d="M49.3,44c-0.4-1.1-0.9-2.2-1.2-3.3C48.4,41.8,48.8,42.9,49.3,44z"/>
		<path class="st1" d="M47.3,38.2c-0.2-0.8-0.4-1.6-0.6-2.5C46.8,36.6,47,37.4,47.3,38.2z"/>
		<path class="st1" d="M50.4,46.8c-0.3-0.7-0.6-1.4-0.9-2.1C49.8,45.4,50.1,46.1,50.4,46.8z"/>
		<path class="st1" d="M112.1,91.3c1.7-0.6,3.4-1.1,5.1-1.4h0C115.5,90.3,113.8,90.8,112.1,91.3z"/>
		<path class="st1" d="M55.6,79.1c4.4,4.6,9.7,9.2,15.9,13.6C65.3,88.3,60.1,83.8,55.6,79.1z"/>
		<path class="st1" d="M90.1,104.2L90.1,104.2c-6.9-3.8-13.1-7.6-18.5-11.5C77,96.6,83.2,100.4,90.1,104.2z"/>
		<path class="st1" d="M111.5,91.6c0.2-0.1,0.4-0.1,0.5-0.2C111.9,91.4,111.7,91.5,111.5,91.6z"/>
		<g>
			<path class="st2" d="M80.9,78c-0.9-0.4-1.7-0.9-2.6-1.3c-1.2-0.6-2.4-1.3-3.5-2c-2.5-1.5-4.9-3-7-4.5c-3.9,2.8-8.4,5.4-13.1,7.8
				c0.3,0.4,0.7,0.7,1,1.1c3.5,3.7,7.5,7.2,12.1,10.7C72.8,86,77.2,82,80.9,78z"/>
			<path class="st2" d="M109.7,88.8c-0.4-0.1-0.9-0.2-1.3-0.3c-2.4-0.6-5-1.3-7.6-2.2c-0.7-0.2-1.5-0.5-2.2-0.7
				c-3.5-1.2-7.1-2.7-10.7-4.2c-4,4.5-8.6,8.8-13.9,13c5,3.4,10.9,6.9,16.9,10.2c-0.3,0.3-0.6,0.6-1,0.8c8.6-7.1,17.8-12,27.2-15.5
				h0C115,89.8,112.5,89.4,109.7,88.8z"/>
			<path class="st2" d="M84.9,109.8c-6.3-3.5-11.9-7-17.1-10.7c-5.2,3.7-11,7.3-17.4,10.8l-0.4-0.3c5.9,5.8,11.4,12.7,17.7,21.2
				c5.8-9,12.1-16.3,18.6-22.2C85.9,109,85.3,109.4,84.9,109.8z"/>
			<path class="st2" d="M52.4,100.2c3.2-1.9,6.2-3.8,9-5.8c-5.3-4.2-9.9-8.5-13.8-13c-10.7,4.8-21.8,8.1-29.3,8.6h0
				c11,3.9,19.2,8.7,26.6,14.9l-0.2-0.2C47.1,103.3,50.2,101.5,52.4,100.2z"/>
		</g>
		<path class="st3" d="M111.5,91.6"/>
	</g>
	<g>
		<path class="st4" d="M58.6,52.8L44.2,2c-4.6,0.8-9,1.8-13,2.9L58.6,52.8z"/>
		<g>
			<path class="st1" d="M45.7,30.4l12.8,22.4L48.2,16.4C45.9,20.3,45.2,25.2,45.7,30.4z"/>
			<path class="st1" d="M58.7,60.6c-0.2-0.2-4.3-6.2-4.4-6.4l-1-1.7c2.6,4.6,5.5,8.8,8.5,12.1L58.7,60.6z"/>
			<path class="st2" d="M0,17.1C12.5,42,20.8,63.4,19.4,82.4c6.2-0.7,14.8-3.4,23.4-7.1C33.4,62.5,29,48.2,29,31.9
				c0-5.9,1.1-11.2,3.2-15.9l-5.6-9.7C17.7,9,8.9,12.6,0,17.1z"/>
			<path class="st2" d="M53.4,52.5l-16.2-28c-0.3,1.5-0.6,3-0.7,4.7c-0.1,0.9-0.1,1.8-0.1,2.7c0,3,0.2,5.8,0.5,8.7
				c1,8.5,3.5,16.5,7.8,24.1c0.5,0.8,1,1.7,1.5,2.5c1.1,1.7,2.2,3.3,3.5,4.9c4.5-2.2,8.7-4.7,12.4-7.2l-0.3-0.4
				C58.9,61.3,55.9,57.1,53.4,52.5z"/>
		</g>
	</g>
	<g>
		<path class="st5" d="M65.4,0c-5.9,0.2-11.5,0.6-16.6,1.3l16.6,57.9"/>
		<g>
			<path class="st1" d="M65.4,59.3l0-1.9c-0.3-0.4-0.6-0.7-0.9-1.1L65.4,59.3z"/>
			<path class="st1" d="M65.4,14.4"/>
		</g>
	</g>
	<g>
		<path class="st6" d="M86.6,1.4C80.9,0.6,75.3,0.1,70.1,0l0,59.2L86.6,1.4z"/>
		<path class="st1" d="M84.1,6.4c0.3,0.2,0.6,0.3,0.9,0.5l0.4-1.4h-3.2C82.8,5.8,83.5,6.1,84.1,6.4z"/>
	</g>
	<g>
		<path class="st7" d="M104,4.9c-4.4-1.1-8.6-2.1-12.8-2.8L76.9,52.4L104,4.9z"/>
		<g>
			<path class="st2" d="M79.6,56.7c-2,3.1-4.1,6-6.3,8.3c3.7,2.5,7.9,4.9,12.4,7.1c0.9-1.2,1.8-2.5,2.7-3.7
				c7.4-11.2,10.6-23.3,10.6-36.5c0-0.9,0-1.8-0.1-2.7c-0.1-1.7-0.4-3.3-0.7-4.8L80.9,54.8C80.9,54.8,80.3,55.6,79.6,56.7z"/>
			<path class="st2" d="M136,17.1c-9.1-4.5-18.3-8.1-27.4-10.8l-5.5,9.5c2.1,4.7,3.3,10.1,3.3,16c0,16.4-4.4,30.6-13.7,43.5
				c8.7,3.7,17.4,6.4,23.7,7.1C115.3,61.4,122,39.7,136,17.1z"/>
			<g>
				<path class="st1" d="M87.2,16.3L76.9,52.4l12.8-22.5l0,0C90.2,24.8,89.5,20.1,87.2,16.3z"/>
				<path class="st2" d="M79.9,56.3c-3.9,6.1-8.3,11.2-12.2,13.9C53.3,80.4,31,89.2,18.3,90c0,0,0,0,0,0c8.8,1.6,17.9,7.1,27.1,14.2
					c0,0,0,0,0,0c2.5-1.3,4.8-2.7,7.1-4c16.9-10.1,28.6-20.5,36-31.8c7.4-11.2,10.6-23.3,10.6-36.5c0-0.9,0-1.8-0.1-2.7
					c-0.1-1.7-0.4-3.3-0.7-4.8L80.9,54.8C80.9,54.8,80.5,55.4,79.9,56.3z"/>
			</g>
		</g>
	</g>
</g>
</svg>
