<?xml version="1.0" encoding="utf-8"?>
<!-- Generator: Adobe Illustrator 22.0.1, SVG Export Plug-In . SVG Version: 6.00 Build 0)  -->
<svg version="1.1" id="Layer_1" xmlns="http://www.w3.org/2000/svg" xmlns:xlink="http://www.w3.org/1999/xlink" x="0px" y="0px"
	 viewBox="0 0 273 832.4" style="enable-background:new 0 0 273 832.4;" xml:space="preserve">
<style type="text/css">
	.st0{fill:#D88D71;}
	.st1{fill:#EF9D78;}
	.st2{fill:#C1272D;}
	.st3{fill:#ED1E79;}
	.st4{fill:#FFBA85;}
	.st5{fill:#9E005D;}
	.st6{fill:#FFFFFF;stroke:#680100;stroke-width:3.229;stroke-linecap:round;stroke-linejoin:bevel;stroke-miterlimit:10;}
	.st7{stroke:#680100;stroke-width:3.229;stroke-linejoin:bevel;stroke-miterlimit:10;}
	.st8{fill:#FFFFFF;stroke:#680100;stroke-width:3.016;stroke-linecap:round;stroke-linejoin:bevel;stroke-miterlimit:10;}
	.st9{fill:none;stroke:#D4145A;stroke-width:3.016;stroke-linecap:round;stroke-linejoin:bevel;stroke-miterlimit:10;}
	.st10{fill:none;stroke:#680100;stroke-width:3.016;stroke-linecap:round;stroke-linejoin:bevel;stroke-miterlimit:10;}
	.st11{fill:#E5CFB1;stroke:#C1272D;stroke-width:3.016;stroke-linecap:round;stroke-linejoin:round;stroke-miterlimit:10;}
	.st12{fill:#FF1D25;}
	.st13{fill:#FF7BAC;}
	.st14{fill:#E2B7C9;}
	.st15{fill:none;stroke:#FF7BAC;stroke-width:3.016;stroke-linecap:round;stroke-linejoin:round;stroke-miterlimit:10;}
	.st16{fill:none;stroke:#DB4F88;stroke-width:3.229;stroke-linecap:round;stroke-linejoin:round;stroke-miterlimit:10;}
	.st17{fill:#FFFFFF;}
</style>
<g>
	<g>
		<path class="st0" d="M156.3,179.3c0,0-1.2,14.3-0.2,19.2s19.8,7.5,19.8,7.5l-1.4,52.9l-78.3-0.6l-5.7-31.3
			c0,0,27.4-23.4,28.7-29.3c1.2-5.9,1.8-17.2,1.8-17.2L156.3,179.3z"/>
		<path class="st1" d="M169.4,204.8c-4.7,6.4-13.3,15.3-27.1,20.4c-23.1,8.6-51.9,1.7-51.9,1.7l5.7,31.3l78.3,0.6l1.4-52.9
			C175.8,206,173,205.5,169.4,204.8z"/>
		<path class="st2" d="M119.3,194.2c0,0,6.3,2.8,17,3.2c10.7,0.4,21.4-2.2,21.4-2.2l2.8,3.6c0,0-10.7,4.6-22.8,3.8
			c-15.3-1-21.8-5.2-21.8-5.2L119.3,194.2z"/>
		<path class="st3" d="M57.6,277c0,0-1.6,8.1,6.1,9.7c7.7,1.6,9.1-2.8,16.1-4.4c7.1-1.6,9.3-7.7,9.3-7.7l-3-25.2L57.6,277z"/>
		<path class="st3" d="M176.2,278.2c0,0-1.6,8.1,6.1,9.7s11.9,0.4,19-1.2c7.1-1.6,13.7-11.7,13.7-11.7l-10.3-24.4l-23.6-2.2
			L176.2,278.2z"/>
		<path class="st4" d="M132.6,350.5c22.8-0.2,37.1-1,37.1-1s0.6-7.1,1.6-14.1c1-6.8,3.2-24.8,3.2-24.8l-88.2,4.2
			c0,0,1.8,8.9,2.4,15.7c0.6,6.9,1.6,14.5,1.6,14.5S111.5,350.7,132.6,350.5z"/>
		<path class="st5" d="M88.6,207.4c0,0,3.1,17.7,5.3,25.4c2.2,7.7,5.9,11.3,13.5,13.5c7.5,2.2,50.6-0.5,58.7-7
			c3.7-2.9,6.5-23.6,4-33.1l10.1,1.6c0,0-0.9,18.3,0.7,35.5c1.6,17.2,4.1,22.5,3.1,32.6c-1,10.1-9.6,37.6-10.2,40.6
			c-0.6,3-7.3,15.1-40.8,14.3c-33.5-0.8-45.6-9.9-46.4-13.3c-0.8-3.4-4-52.5-3.2-59.3c0.8-6.9,1.3-10.6,0.5-25.1
			C83,218.5,81.1,209,81.1,209L88.6,207.4z"/>
		<path class="st3" d="M121.8,180.1c0,0,3,13.9-2.4,23.4c-5.4,9.5-16.1,12.1-16.5,18.6s7.5,12.5,7.5,14.1c0,1.6-16.3,3.4-21.5-5.1
			c-5.4-9-5.8-19.2,0.3-23.9l-7.8,2L42.6,261c0,0-9.9-0.8-10.7-12.7s15.5-24.2,16.3-39.4c0.8-15.1-7.3-18.2-5.7-27.2
			s17.4-28.3,19-39.2s2.6-52.1,15.9-70s36.1-22.9,41.4-25.4c6.9-3.2,11.9-9.9,12.5-11.9c0.6-2-7.7-6.5-8.3-11.3
			c-0.6-4.8,6.7-14.7,17.4-20c10.9-5.3,28.5-5.7,31.3,1.8c5.9,16.1-18,26-18,28.3s5.9,9.7,11.5,11.3c5.7,1.6,16.8-0.8,25,6.9
			c8.3,7.7,13.7,43.6,20,53.7c6.3,10.1,25.6,20.4,28.7,34.9c3,14.5-10.3,37.1-10.5,47.2c-0.2,10.1,6.5,20.8,5.9,29.1
			c-0.6,8.3-9.1,11.9-10.9,21.2c-1.8,9.3-17,15.1-17,15.1l-25.2-45.6c0,0-21-2.8-24.2-7.7c-3.2-4.8-0.8-20.8-0.8-20.8l-16.8-7.5
			L121.8,180.1z"/>
		<path class="st1" d="M89.5,150.3c0,0-0.2,17.2,20.8,26s40.7,5.1,50.7,0.7c15.7-6.9,26.4-32.8,26.4-32.8s10.3,1.4,15.7-4.8
			c5.4-6.3,6.7-14.1,0.8-21.2c-5.9-7.1-16.5,8.5-17.6,10.1c0,0-7.9-15.5-11.5-26.8c-3.4-10.9-13.9-16.8-7.7-30.1
			c0,0-9.5,10.5-25.4,9.1c-15.9-1.4-22.6-8.1-24.6-11.9c0,0-20.2,14.1-22.2,23.2c-2,9.1,1.2,16.5,0.2,34.1
			C94.3,140.7,91.1,140.6,89.5,150.3z"/>
		<path class="st4" d="M120.1,179.6c15.4,1.6,29.5-3.1,37.3-6c8.6-3.2,24.2-17.8,24.2-38.2c0-20.5-9.7-39.3-25.8-46.3
			c-14.8-6.4-44.8-3.8-61.3,5.3c-1,8,1.6,15.6,0.6,31.4c-0.9,14.8-4,14.7-5.7,24.4c0,0-0.2,17.2,20.8,26
			C113.6,177.7,116.8,178.7,120.1,179.6z"/>
		<path class="st6" d="M101.4,114.7c0,0,16.1,0,19.4,3.2"/>
		<circle class="st7" cx="115.7" cy="122.4" r="6.5"/>
		<path class="st8" d="M174.8,113.9c0,0-14.1,0-16.9,3.2"/>
		<circle class="st7" cx="162.9" cy="121.6" r="6.5"/>
		<path class="st9" d="M94.5,110.5c0,0,9.7-7.3,20.2-7.3"/>
		<path class="st9" d="M158.3,102c8.1,0.4,17.8,3.8,17.8,3.8"/>
		<path class="st10" d="M135.1,113.5c0,0,2.2,8.9-0.2,13.1s-7.2,2-7.2,6.9c0,1.5,2.8,7.6,9.8,7.2c7.1-0.4,6.9-3.4,6.9-3.4"/>
		<path class="st10" d="M123.6,151.5c0,0,1.6,5.4,9.9,5.7c8.3,0.2,12.3-5.2,12.3-5.2"/>
		<line class="st11" x1="137.7" y1="200.3" x2="137.7" y2="207.6"/>
		<circle class="st12" cx="137.7" cy="210" r="5"/>
		<path class="st4" d="M132.1,301.6c0.2,0.4,8.4-3.5,10.8-3.5c5.9,0,11.1,4.4,14.1,8.3c3,3.8,10.9,3.6,14.3,4.8
			c3.4,1.2,23.9,9.1,33.3,10.9c12.3,2.4,28,4.6,38.3,4.4c11.5-0.2,23.8,0.4,27.2-2.8c3.4-3.2,3.6-11.3,0.4-15.3
			c-3.2-4-61.3-84.3-71.4-92.3c-8.2-6.4-13.9-8.2-18.8-8.2s1.2,45.2,1.2,45.2s18.6,22,25.6,27.2c7.1,5.2,31.1,26.2,31.1,26.2
			s-6.7-3.4-8.9-3.4s-12.5-0.4-21.4-0.6s-28.5-0.2-33.7-2.6s-6.7-16.8-6.9-21.4s0.4-14.9-1.4-16.5c-1.8-1.6-6.1-2.8-10.3-5.4
			c-4.2-2.6-8.1-7.5-9.9-7.5c-3.2,0-5.2,2-9.5,5c-2.5,1.8-6.3,4.8-6.3,7.1s-0.4,4.8,1.8,5.7s2.4-4.8,4.6-5.9
			c2.2-1,10.3-2.4,13.9,1.6s9.7,7.1,6.7,17.6c-3,10.5-3.8,10.3-7.7,11.1c-3.8,0.8-6.3,0.8-10.5,2
			C136.3,294.1,130.2,297.8,132.1,301.6z"/>
		<path class="st4" d="M81.1,209.5c0,0,3.2,13.5,3.8,20.1c0.5,6.6-1.2,25-1.2,25s-31.9,36.9-42.4,46.8c-10.5,9.9-21,18.8-21,18.8
			s28.3-13.9,35.1-16.1s29.1-8.7,30.9-9.9c1.8-1.2,5.2-7.7,6.3-12.1c1-4.4,1.6-12.9,3.2-15.5s8.3-6.5,10.1-8.5
			c1.8-2,7.5-8.1,9.4-8.1s6.2,2.9,7.4,3.5c1.2,0.6,6.5,1.6,7.3,2.8c0.8,1.2,0.4,8.1,0.2,9.3c-0.2,1.2-2.8-1.5-3.2-3.1
			c-0.4-1.6-7.2-3.3-8.2-3.1s-5.7,1.9-7.1,5.5c-1.4,3.6-2.9,6.7-2.1,12.8c0.8,6.1,4,12.3,12.1,14.5s9.3,5.4,9.3,7.3
			c0,1.8-0.2,2.6-0.2,2.6s-3.6-3.8-9.9-5.2c-6.3-1.4-12.3-1-15.1,2.8c-2.8,3.8-15.7,1.6-19.6,3.4s-40.8,29.9-49.2,34.7
			c-8.5,4.8-20,12.3-24.2,10.9c-4.2-1.4-13.5-18-11.1-29.7S65,218.9,70.9,214S81.1,209.5,81.1,209.5z"/>
		<path class="st13" d="M90.5,345c0,0,26.6,5.6,39.8,5.6s39.6-4,39.6-4s0.3,9.7,2.2,15.9c1.9,6.2,28.9,46.6,31.3,63.5
			c1.8,12.9,11.7,123.1,10.5,134.8c-1.2,11.7-3.6,19-3.2,21.4c0.4,2.4,4.8,2.8,5.2,4.8c0.4,2-2.4,7.3-2,9.7c0.4,2.4,3.6,2,4,3.2
			c0.4,1.2-2.8,5.2-2.8,6.5c0,1.2,1.6,2.8,2.4,4.4c0.8,1.6,0,9.3,0,11.3c0,2,4,3.6,4,10.5c0,6.9,1.6,30.7,2.8,37.5
			c1.2,6.9,8.1,23,8.1,31.5s-0.8,12.1-1.2,13.3c-0.4,1.2-7.3,6.1-14.5,7.7c-7.3,1.6-20.2,2.8-22.6,0c-2.4-2.8-19.8-47.2-21-56.1
			s-6.9-12.5-5.2-16.5c1.6-4-0.8-22.2-2.8-26.6c-2-4.4-2.4-14.1-2.4-16.1c0-2-4.4-2.8-4.4-4.4s2.4-8.5,2.4-10.1
			c0-1.6-5.7-3.6-5.7-6.5c0-2.8,2.4-5.7,2-8.5c-0.4-2.8-18.6-114.6-20.6-117.9c-2-3.2-4.8-6.5-6.1-5.2c-1.2,1.2-5.7,125.9-4,130.4
			s5.2,6.5,5.2,9.3s-2.8,10.1-2.8,12.5c0,2.4,2,4.8,2,8.5c0,3.6-2.4,6.1-2.4,9.3c0,3.2-2.4,79.9-3.6,85.6s-2,10.9-3.2,12.1
			c-1.2,1.2-11.3,4-16.1,4c-4.8,0-19.4-2-21-4.8c-1.6-2.8-6.9-49.6-6.9-57.7c0-8.1-3.6-14.9-3.6-18.6c0-3.6,0.4-14.5,0-16.1
			c-0.4-1.6-4-2-4-4.8c0-2.8,1.6-5.7,1.6-9.7c0-4-4.4-6.5-4.4-9.3c0-2.8,1.6-7.3,1.6-9.3c0-2-2.8-8.1-2.4-10.9
			c0.4-2.8,1.2-14.1,1.2-15.7c0-1.6-10.6-113.4-10.9-121.1c-0.8-20.2,8.9-44.4,13.7-54.5c4.8-10.1,16.1-31.9,17.8-34.3
			S90.5,345,90.5,345z"/>
		<path class="st1" d="M85.8,811.8c0,0,6.3,4.8,20,4.8s20.6-4.6,20.6-4.6s-9.3-22.6-9.7-29.9c-0.4-7.3,0.4-49.2,0.4-49.2l-25.2,3.6
			c0,0,4.2,27.6,2.6,39.2S83,806.3,85.8,811.8z"/>
		<path class="st1" d="M232.7,728.4c0,0,1.2,21.2,2,25s2.6,9.1,3,12.3c0.4,3.2,4,39.2,2.4,41.4c-1.6,2.2-4.8,8.5-17.6,8.7
			c-12.7,0.2-26.8-1.4-29.1-4.8c-2.2-3.4,8-11.1,10.7-14.7c3.6-4.8,8.5-12.7,8.7-16.1s1-15.1-2-26.2c-3-11.1-7.7-21-7.7-21
			L232.7,728.4z"/>
		<path class="st14" d="M84.6,723.8l-3.2,1.2c0,0-1,7.3-0.2,9.5c0.8,2.2,7.7,5.2,10.3,5.2c2.6,0,23.8-3.8,25.8-3.8s8.3-0.2,9.7-0.8
			c1.4-0.6,0.6-4,0.6-6.9s0-7.5-1.8-6.5c-1.8,1-12.3,4-19.8,4.6C98.5,727,84.6,723.8,84.6,723.8z"/>
		<path class="st14" d="M198.2,724c-3.4,2.2-5.7,1.4-6.1,3.4c-0.4,2,1.2,7.5,2,8.9c0.8,1.4,20.6,0.2,26.8-1.8c6.3-2,17-7.1,18-8.1
			c1-1,0.6-4.4,0.2-6.7s-0.8-7.7-3.2-6.7s-12.3,8.7-18.2,9.1C212,722.6,198.2,724,198.2,724z"/>
		<path class="st12" d="M92.3,753.3c0,0,7.5,1,12.3,0.8c4.8-0.2,13.5-1.8,13.5-1.8l-0.4,8.1c0,0-7.5,2.2-12.1,2.2
			c-4.6,0-12.7-0.8-12.7-0.8L92.3,753.3z"/>
		<path class="st12" d="M87.4,794.6c0,0,8.7-2.2,15.5-2.4c6.9-0.2,18.2,1.4,18.2,1.4l3.2,8.1c0,0-12.9-1.4-20-0.8
			c-7.1,0.6-20.4,3.4-20.4,3.4L87.4,794.6z"/>
		<path class="st5" d="M85,812.4l0.6,11.5c0,0,2.4,8.7,21.8,8.5c19.4-0.2,23.2-8.7,23.2-8.7l-2-12.3c0,0-6.9,5.7-21,5.4
			C93.5,816.6,85,812.4,85,812.4z"/>
		<path class="st5" d="M192,811.4l-0.2,16.8c0,0,17,4.2,29.5,3c12.5-1.2,21.2-8.3,21.8-9.7c0.6-1.4-1-19.4-1-19.4
			s-2.2,9.9-10.7,12.3c-8.5,2.4-24.4,2-30.5,0.4C194.8,813.2,192,811.4,192,811.4z"/>
		<path class="st12" d="M200.1,798.5c0,0,20.8,2,25.8,5.7c5,3.6,8.1,8.7,8.1,8.7s5-2.8,6.3-5.7s0.2-7.3,0.2-7.3s-5.7-4.6-14.1-7.1
			c-8.5-2.4-20.4-3.2-20.4-3.2L200.1,798.5z"/>
		<path class="st12" d="M208.9,752.1c0,0,9.9,1.2,15.3,0.6s11.1-2.4,11.1-2.4l1.4,5.9c0,0-3.8,4-11.7,5c-7.9,1-15.5-0.4-15.5-0.4
			L208.9,752.1z"/>
		<path class="st4" d="M115.2,578.2c0,0-8.1,2.7-14.5,2.4c-6.5-0.3-15.9,1.3-17,4.3c-1.1,3-1.3,7-1.6,9.7c-0.3,2.7-3.2,4.6-3.2,5.9
			s5.7,3,6.2,5.1c0.5,2.2-2.2,5.7-1.6,8.1c0.5,2.4-1.1,2.2,9.7,2.7s30.7-2.2,28.3-3c-2.4-0.8-5.9-3.5-5.9-3.5s4.6-0.8,5.1-4.3
			c0.5-3.5,0.5-12.1-2.4-12.9c-3-0.8-7.3-4.6-7.3-6.7C110.9,583.9,115.2,578.2,115.2,578.2z"/>
		<path class="st4" d="M165.2,572.8c2.2,0,22.6-3,28-3c5.4,0,5.4,2.4,5.7,5.1c0.3,2.7,1.1,5.4,3.8,5.7c2.7,0.3,3.5,1.3,3.8,3.8
			c0.3,2.4,1.6,5.9,0.8,7.5c-0.8,1.6-9.7,8.1-18,8.9s-21.8,2.7-22.9,0.8c-1.1-1.9,0.3-1.9,2.4-5.1c2.2-3.2,1.6-7,1.6-7
			s-4.3-0.8-4.8-2.2s2.7-5.7,3-7.8s-4.3-6.7-4.3-6.7H165.2z"/>
		<path class="st13" d="M128.9,33.3c0,0,12.4,3.2,16.4,2.4c4-0.8,10.2-3.2,10.2-3.2l1.3,4.8c0,0-3.5,2.4-12.1,3.8
			c-10.7,1.7-17.5-2.7-17.5-2.7l1.1-3.8L128.9,33.3z"/>
		<path class="st15" d="M192.6,139.4c0.4,0.2,8.5,18,0,18.2c-4.4,0.1-2.4-10.5-2.4-10.5"/>
		<path class="st4" d="M-37.4,229"/>
		<path class="st16" d="M89.9,356.5c0,0,20.6,11.3,29.9,12.5"/>
		<path class="st16" d="M137.5,370.6c0,0,18.7-1,22.6-2.4c6.5-2.4,8.5-4.4,8.5-4.4"/>
		<line class="st16" x1="130.6" y1="352.5" x2="131.4" y2="428.8"/>
		<path class="st16" d="M140.7,350.5c0,0,4.4,7.3,4.4,10.9c0,3.6,0.4,7.7,0.4,7.7"/>
		<path class="st16" d="M145.6,350.9c0,0,2,3.2,3.2,7.3c1.2,4,1.2,9.3,1.2,9.3"/>
		<path class="st16" d="M115.7,351.3c0,0-3.2,3.2-3.2,6.5c0,3.2-0.4,8.1-0.4,8.1"/>
		<path class="st16" d="M109.2,349.6c0,0-2,3.2-2,5.7s-0.4,8.5-0.4,8.5"/>
		<path class="st16" d="M156.5,370.6c0,0,4.8,13.3,12.1,19.4c7.3,6.1,22.6,13.3,22.6,13.3"/>
		<path class="st16" d="M105.2,366.2c0,0-13.3,18.6-19,23c-5.7,4.4-12.9,7.3-12.9,7.3"/>
		<path class="st16" d="M142.7,372.6c0,2.4,3.2,28.3,4,33.5c0.8,5.2,1.2,8.5,0.4,13.3c-0.8,4.8-9.7,12.9-9.7,12.9"/>
		<path class="st16" d="M125.8,452.2c0,0-10.1-10.9-16.5-12.5"/>
		<path class="st16" d="M137.1,452.2c0,0,2.8-6.5,8.1-10.9s13.3-8.1,13.3-8.1"/>
		<circle class="st16" cx="136.7" cy="360.9" r="3.6"/>
		<circle class="st17" cx="112.2" cy="119.1" r="2.3"/>
		<circle class="st17" cx="159.4" cy="118.7" r="2.3"/>
		<g>
			<g>
				<path class="st17" d="M176.8,535.3c6-5.2,9.9-10.2,12-15.2C186.7,525.2,182.8,530.1,176.8,535.3z"/>
				<path class="st17" d="M184.3,496.5c0.4,0.2,0.8,0.4,1.2,0.7C185.1,496.9,184.7,496.7,184.3,496.5z"/>
				<polygon class="st17" points="162.5,533.7 162.5,533.7 162.5,533.7 				"/>
				<path class="st17" d="M174.3,537.4C174.3,537.4,174.3,537.4,174.3,537.4c0.9-0.7,1.7-1.4,2.5-2.1
					C176,536,175.1,536.7,174.3,537.4C174.3,537.4,174.3,537.4,174.3,537.4z"/>
				<path class="st17" d="M186.1,497.6c0.4,0.3,0.8,0.6,1.1,1C186.9,498.2,186.5,497.9,186.1,497.6z"/>
			</g>
			<g>
				<path class="st17" d="M171.5,513.3c-0.3-0.4-0.5-0.8-0.7-1.2C171,512.5,171.3,512.9,171.5,513.3z"/>
				<path class="st17" d="M170.3,511.1c-0.2-0.3-0.3-0.6-0.4-0.9C170,510.5,170.2,510.8,170.3,511.1z"/>
				<path class="st17" d="M172.2,514.3c-0.2-0.2-0.3-0.5-0.5-0.8C171.9,513.8,172,514.1,172.2,514.3z"/>
				<path class="st17" d="M199.8,527.6c0.6-0.4,1.3-0.7,1.9-0.9c0,0,0,0,0,0C201.1,527,200.4,527.3,199.8,527.6z"/>
				<path class="st17" d="M176.5,526.8c2.1,1.5,4.5,2.9,7.3,4.3C181.1,529.7,178.6,528.3,176.5,526.8z"/>
				<path class="st17" d="M192,534.3C192,534.3,192,534.3,192,534.3c-3-1-5.7-2.1-8.2-3.2C186.3,532.2,189,533.3,192,534.3z"/>
				<path class="st17" d="M199.6,527.7c0.1,0,0.1-0.1,0.2-0.1C199.7,527.7,199.7,527.7,199.6,527.7z"/>
				<g>
					<path class="st17" d="M186.5,524.5c-0.4-0.1-0.8-0.2-1.1-0.3c-0.5-0.2-1-0.4-1.5-0.5c-1.1-0.4-2.1-0.8-3.1-1.3
						c-1.4,1.4-3,2.7-4.7,4c0.2,0.1,0.3,0.2,0.5,0.4c1.6,1.2,3.5,2.3,5.6,3.4C183.8,528.3,185.3,526.4,186.5,524.5z"/>
					<path class="st17" d="M198.7,526.8c-0.2,0-0.4,0-0.6,0c-1-0.1-2.1-0.2-3.2-0.3c-0.3,0-0.6-0.1-0.9-0.1c-1.5-0.2-3-0.5-4.5-0.9
						c-1.2,2.1-2.8,4.1-4.6,6.1c2.2,1,4.8,2,7.4,2.8c-0.1,0.1-0.2,0.3-0.3,0.4c2.9-3.4,6.2-6,9.7-8.1h0
						C200.8,526.8,199.8,526.8,198.7,526.8z"/>
					<path class="st17" d="M190.3,536.9c-2.7-0.9-5.2-1.9-7.5-3c-1.8,1.8-3.8,3.7-6.1,5.5l-0.2-0.1c2.7,1.9,5.4,4.2,8.5,7.2
						c1.7-4,3.6-7.3,5.8-10.1C190.6,536.5,190.5,536.7,190.3,536.9z"/>
					<path class="st17" d="M176.8,535.3c1.1-1,2.2-2,3.2-2.9c-2.4-1.3-4.5-2.7-6.4-4.2c-3.9,2.7-8.1,4.8-11,5.5h0
						c4.6,0.8,8.2,2.1,11.6,4l-0.1-0.1C174.9,537,176,536,176.8,535.3z"/>
				</g>
				<path class="st17" d="M199.6,527.7"/>
			</g>
			<g>
				<path class="st17" d="M175.9,516.1l-9.3-19.1c-1.8,0.6-3.4,1.3-4.9,2.1L175.9,516.1z"/>
				<g>
					<path class="st17" d="M169.2,508.1l6.7,8l-6.7-13.7C168.5,504.2,168.6,506.1,169.2,508.1z"/>
					<path class="st17" d="M176.5,519.2c-0.1,0-2.1-2.2-2.2-2.2l-0.5-0.6c1.3,1.6,2.8,3.1,4.2,4.2L176.5,519.2z"/>
					<path class="st17" d="M150.1,506.1c6.7,9,11.5,16.9,12.3,24.5c2.4-0.7,5.6-2.4,8.8-4.5c-4.6-4.4-7.4-9.8-8.5-16.3
						c-0.4-2.3-0.4-4.5,0.2-6.5l-2.9-3.4C156.6,501.7,153.3,503.7,150.1,506.1z"/>
					<path class="st17" d="M173.8,516.4l-8.4-9.9c0,0.6,0,1.2,0.1,1.9c0,0.3,0.1,0.7,0.2,1.1c0.2,1.2,0.5,2.3,0.8,3.4
						c1,3.3,2.5,6.3,4.8,9c0.3,0.3,0.5,0.6,0.8,0.9c0.5,0.6,1.1,1.2,1.7,1.7c1.6-1.2,3.1-2.5,4.4-3.7l-0.1-0.1
						C176.6,519.5,175.1,518,173.8,516.4z"/>
				</g>
			</g>
			<g>
				<path class="st17" d="M174.8,494.7c-2.3,0.5-4.5,1-6.5,1.7l10.7,21.8"/>
				<g>
					<path class="st17" d="M179,518.2l-0.1-0.8c-0.1-0.1-0.3-0.3-0.4-0.4L179,518.2z"/>
					<path class="st17" d="M175.8,500.4"/>
				</g>
			</g>
			<g>
				<path class="st17" d="M183.3,493.8c-2.3,0.1-4.6,0.3-6.7,0.6l4.2,23.5L183.3,493.8z"/>
				<path class="st17" d="M182.7,495.9c0.1,0,0.3,0.1,0.4,0.1l0.1-0.6l-1.3,0.2C182.1,495.8,182.4,495.8,182.7,495.9z"/>
			</g>
			<g>
				<path class="st17" d="M190.5,493.9c-1.8-0.1-3.6-0.2-5.3-0.2l-2.1,21L190.5,493.9z"/>
				<g>
					<path class="st17" d="M184.5,516.2c-0.6,1.4-1.2,2.7-1.9,3.7c1.6,0.7,3.5,1.4,5.4,1.9c0.3-0.6,0.6-1.1,0.8-1.7
						c2.1-5,2.6-10,1.6-15.2c-0.1-0.4-0.1-0.7-0.2-1.1c-0.2-0.7-0.4-1.3-0.6-1.8l-4.7,13.3C184.8,515.4,184.7,515.7,184.5,516.2z"/>
					<path class="st17" d="M204,496.5c-3.9-1.2-7.8-1.9-11.6-2.4l-1.5,4.2c1.2,1.7,2,3.8,2.4,6.1c1.2,6.5,0.4,12.5-2.4,18.2
						c3.7,0.9,7.4,1.3,9.9,1.1C199,515.5,200.1,506.4,204,496.5z"/>
					<g>
						<path class="st17" d="M184.6,499.6l-1.5,15.1l3.5-9.8l0,0C186.4,502.8,185.8,501,184.6,499.6z"/>
						<path class="st17" d="M184.6,516c-1.1,2.7-2.5,5-3.8,6.4c-5,5.1-13.2,10.1-18.2,11.3c0,0,0,0,0,0c3.6,0,7.6,1.6,11.7,3.7
							c0,0,0,0,0,0c0.9-0.7,1.7-1.4,2.5-2.1c6-5.2,9.9-10.2,12-15.2c2.1-5,2.6-10,1.6-15.2c-0.1-0.4-0.1-0.7-0.2-1.1
							c-0.2-0.7-0.4-1.3-0.6-1.8l-4.7,13.3C184.8,515.3,184.7,515.6,184.6,516z"/>
					</g>
				</g>
			</g>
		</g>
	</g>
</g>
</svg>
