<?xml version="1.0" encoding="utf-8"?>
<!-- Generator: Adobe Illustrator 24.0.3, SVG Export Plug-In . SVG Version: 6.00 Build 0)  -->
<svg version="1.1" xmlns="http://www.w3.org/2000/svg" xmlns:xlink="http://www.w3.org/1999/xlink" x="0px" y="0px"
	 viewBox="0 0 310.4 832.4" style="enable-background:new 0 0 310.4 832.4;" xml:space="preserve">
<style type="text/css">
	.st0{fill:#D88D71;}
	.st1{fill:#EF9D78;}
	.st2{fill:#C1272D;}
	.st3{fill:#ED1E79;}
	.st4{fill:#FFBA85;}
	.st5{fill:#9E005D;}
	.st6{fill:#FFFFFF;stroke:#680100;stroke-width:3.229;stroke-linecap:round;stroke-linejoin:bevel;stroke-miterlimit:10;}
	.st7{stroke:#680100;stroke-width:3.229;stroke-linejoin:bevel;stroke-miterlimit:10;}
	.st8{fill:#FFFFFF;stroke:#680100;stroke-width:3.016;stroke-linecap:round;stroke-linejoin:bevel;stroke-miterlimit:10;}
	.st9{fill:none;stroke:#D4145A;stroke-width:3.016;stroke-linecap:round;stroke-linejoin:bevel;stroke-miterlimit:10;}
	.st10{fill:none;stroke:#680100;stroke-width:3.016;stroke-linecap:round;stroke-linejoin:bevel;stroke-miterlimit:10;}
	.st11{fill:#E5CFB1;stroke:#C1272D;stroke-width:3.016;stroke-linecap:round;stroke-linejoin:round;stroke-miterlimit:10;}
	.st12{fill:#FF1D25;}
	.st13{fill:#FF7BAC;}
	.st14{fill:#E2B7C9;}
	.st15{fill:none;stroke:#FF7BAC;stroke-width:3.016;stroke-linecap:round;stroke-linejoin:round;stroke-miterlimit:10;}
	.st16{fill:none;stroke:#DB4F88;stroke-width:3.229;stroke-linecap:round;stroke-linejoin:round;stroke-miterlimit:10;}
	.st17{fill:#FFFFFF;}
	.st18{fill:#FF1B4A;}
	.st19{fill:#0084E0;}
	.st20{fill:#6BC437;}
	.st21{fill:#FF1D7E;}
	.st22{fill:#FFA90F;}
	.st23{display:none;fill:none;stroke:#ED1C24;stroke-width:3;stroke-miterlimit:10;}
</style>
<g id="footer">
</g>
<g id="blue">
</g>
<g id="yellow">
</g>
<g id="green">
</g>
<g id="purple">
</g>
<g id="protect">
</g>
<g id="connect">
</g>
<g id="treat">
</g>
<g id="love">
	<g>
		
			<image style="overflow:visible;opacity:0.5;" width="342" height="863" xlink:href="B3F9A5B43F58D7D2.png"  transform="matrix(1 0 0 1 -5.9041 -5.0682)">
		</image>
		<g>
			<g>
				<path class="st0" d="M193.7,179.3c0,0-1.2,14.3-0.2,19.2s19.8,7.5,19.8,7.5l-1.4,52.9l-78.3-0.6l-5.7-31.3
					c0,0,27.4-23.4,28.7-29.3c1.2-5.9,1.8-17.2,1.8-17.2L193.7,179.3z"/>
				<path class="st1" d="M206.8,204.8c-4.7,6.4-13.3,15.3-27.1,20.4c-23.1,8.6-51.9,1.7-51.9,1.7l5.7,31.3l78.3,0.6l1.4-52.9
					C213.2,206,210.4,205.5,206.8,204.8z"/>
				<path class="st2" d="M156.7,194.2c0,0,6.3,2.8,17,3.2c10.7,0.4,21.4-2.2,21.4-2.2l2.8,3.6c0,0-10.7,4.6-22.8,3.8
					c-15.3-1-21.8-5.2-21.8-5.2L156.7,194.2z"/>
				<path class="st3" d="M95,277c0,0-1.6,8.1,6.1,9.7c7.7,1.6,9.1-2.8,16.1-4.4c7.1-1.6,9.3-7.7,9.3-7.7l-3-25.2L95,277z"/>
				<path class="st3" d="M213.6,278.2c0,0-1.6,8.1,6.1,9.7s11.9,0.4,19-1.2c7.1-1.6,13.7-11.7,13.7-11.7l-10.3-24.4l-23.6-2.2
					L213.6,278.2z"/>
				<path class="st4" d="M170.1,350.5c22.8-0.2,37.1-1,37.1-1s0.6-7.1,1.6-14.1c1-6.8,3.2-24.8,3.2-24.8l-88.2,4.2
					c0,0,1.8,8.9,2.4,15.7c0.6,6.9,1.6,14.5,1.6,14.5S148.9,350.7,170.1,350.5z"/>
				<path class="st5" d="M126,207.4c0,0,3.1,17.7,5.3,25.4c2.2,7.7,5.9,11.3,13.5,13.5s50.6-0.5,58.7-7c3.7-2.9,6.5-23.6,4-33.1
					l10.1,1.6c0,0-0.9,18.3,0.7,35.5c1.6,17.2,4.1,22.5,3.1,32.6c-1,10.1-9.6,37.6-10.2,40.6c-0.6,3-7.3,15.1-40.8,14.3
					c-33.5-0.8-45.6-9.9-46.4-13.3c-0.8-3.4-4-52.5-3.2-59.3c0.8-6.9,1.3-10.6,0.5-25.1c-0.8-14.5-2.7-23.9-2.7-23.9L126,207.4z"/>
				<path class="st3" d="M159.2,180.1c0,0,3,13.9-2.4,23.4c-5.4,9.5-16.1,12.1-16.5,18.6s7.5,12.5,7.5,14.1c0,1.6-16.3,3.4-21.5-5.1
					c-5.4-9-5.8-19.2,0.3-23.9l-7.8,2L80.1,261c0,0-9.9-0.8-10.7-12.7c-0.8-11.9,15.5-24.2,16.3-39.4c0.8-15.1-7.3-18.2-5.7-27.2
					c1.6-9.1,17.4-28.3,19-39.2c1.6-10.9,2.6-52.1,15.9-70s36.1-22.9,41.4-25.4c6.9-3.2,11.9-9.9,12.5-11.9c0.6-2-7.7-6.5-8.3-11.3
					c-0.6-4.8,6.7-14.7,17.4-20c10.9-5.3,28.5-5.7,31.3,1.8c5.9,16.1-18,26-18,28.3s5.9,9.7,11.5,11.3c5.7,1.6,16.8-0.8,25,6.9
					c8.3,7.7,13.7,43.6,20,53.7c6.3,10.1,25.6,20.4,28.7,34.9s-10.3,37.1-10.5,47.2c-0.2,10.1,6.5,20.8,5.9,29.1
					c-0.6,8.3-9.1,11.9-10.9,21.2c-1.8,9.3-17,15.1-17,15.1l-25.2-45.6c0,0-21-2.8-24.2-7.7c-3.2-4.8-0.8-20.8-0.8-20.8l-16.8-7.5
					L159.2,180.1z"/>
				<path class="st1" d="M126.9,150.3c0,0-0.2,17.2,20.8,26s40.7,5.1,50.7,0.7c15.7-6.9,26.4-32.8,26.4-32.8s10.3,1.4,15.7-4.8
					c5.4-6.3,6.7-14.1,0.8-21.2c-5.9-7.1-16.5,8.5-17.6,10.1c0,0-7.9-15.5-11.5-26.8c-3.4-10.9-13.9-16.8-7.7-30.1
					c0,0-9.5,10.5-25.4,9.1c-15.9-1.4-22.6-8.1-24.6-11.9c0,0-20.2,14.1-22.2,23.2c-2,9.1,1.2,16.5,0.2,34.1
					C131.7,140.7,128.5,140.6,126.9,150.3z"/>
				<path class="st4" d="M157.5,179.6c15.4,1.6,29.5-3.1,37.3-6c8.6-3.2,24.2-17.8,24.2-38.2c0-20.5-9.7-39.3-25.8-46.3
					c-14.8-6.4-44.8-3.8-61.3,5.3c-1,8,1.6,15.6,0.6,31.4c-0.9,14.8-4,14.7-5.7,24.4c0,0-0.2,17.2,20.8,26
					C151,177.7,154.2,178.7,157.5,179.6z"/>
				<path class="st6" d="M138.8,114.7c0,0,16.1,0,19.4,3.2"/>
				<circle class="st7" cx="153.2" cy="122.4" r="6.5"/>
				<path class="st8" d="M212.2,113.9c0,0-14.1,0-16.9,3.2"/>
				<circle class="st7" cx="200.3" cy="121.6" r="6.5"/>
				<path class="st9" d="M131.9,110.5c0,0,9.7-7.3,20.2-7.3"/>
				<path class="st9" d="M195.7,102c8.1,0.4,17.8,3.8,17.8,3.8"/>
				<path class="st10" d="M172.5,113.5c0,0,2.2,8.9-0.2,13.1s-7.2,2-7.2,6.9c0,1.5,2.8,7.6,9.8,7.2c7.1-0.4,6.9-3.4,6.9-3.4"/>
				<path class="st10" d="M161,151.5c0,0,1.6,5.4,9.9,5.7c8.3,0.2,12.3-5.2,12.3-5.2"/>
				<line class="st11" x1="175.1" y1="200.3" x2="175.1" y2="207.6"/>
				<circle class="st12" cx="175.1" cy="210" r="5"/>
				<path class="st4" d="M169.5,301.6c0.2,0.4,8.4-3.5,10.8-3.5c5.9,0,11.1,4.4,14.1,8.3c3,3.8,10.9,3.6,14.3,4.8
					c3.4,1.2,23.9,9.1,33.3,10.9c12.3,2.4,28,4.6,38.3,4.4c11.5-0.2,23.8,0.4,27.2-2.8c3.4-3.2,3.6-11.3,0.4-15.3
					c-3.2-4-61.3-84.3-71.4-92.3c-8.2-6.4-13.9-8.2-18.8-8.2s1.2,45.2,1.2,45.2s18.6,22,25.6,27.2c7.1,5.2,31.1,26.2,31.1,26.2
					s-6.7-3.4-8.9-3.4s-12.5-0.4-21.4-0.6s-28.5-0.2-33.7-2.6s-6.7-16.8-6.9-21.4s0.4-14.9-1.4-16.5c-1.8-1.6-6.1-2.8-10.3-5.4
					c-4.2-2.6-8.1-7.5-9.9-7.5c-3.2,0-5.2,2-9.5,5c-2.5,1.8-6.3,4.8-6.3,7.1s-0.4,4.8,1.8,5.7s2.4-4.8,4.6-5.9
					c2.2-1,10.3-2.4,13.9,1.6s9.7,7.1,6.7,17.6c-3,10.5-3.8,10.3-7.7,11.1c-3.8,0.8-6.3,0.8-10.5,2
					C173.7,294.1,167.6,297.8,169.5,301.6z"/>
				<path class="st4" d="M118.5,209.5c0,0,3.2,13.5,3.8,20.1c0.5,6.6-1.2,25-1.2,25s-31.9,36.9-42.4,46.8c-10.5,9.9-21,18.8-21,18.8
					s28.3-13.9,35.1-16.1s29.1-8.7,30.9-9.9c1.8-1.2,5.2-7.7,6.3-12.1s1.6-12.9,3.2-15.5c1.6-2.6,8.3-6.5,10.1-8.5
					c1.8-2,7.5-8.1,9.4-8.1c1.8,0,6.2,2.9,7.4,3.5c1.2,0.6,6.5,1.6,7.3,2.8c0.8,1.2,0.4,8.1,0.2,9.3c-0.2,1.2-2.8-1.5-3.2-3.1
					c-0.4-1.6-7.2-3.3-8.2-3.1s-5.7,1.9-7.1,5.5c-1.4,3.6-2.9,6.7-2.1,12.8c0.8,6.1,4,12.3,12.1,14.5s9.3,5.4,9.3,7.3
					c0,1.8-0.2,2.6-0.2,2.6s-3.6-3.8-9.9-5.2c-6.3-1.4-12.3-1-15.1,2.8c-2.8,3.8-15.7,1.6-19.6,3.4s-40.8,29.9-49.2,34.7
					c-8.5,4.8-20,12.3-24.2,10.9c-4.2-1.4-13.5-18-11.1-29.7c2.4-11.7,63.6-100,69.4-104.9S118.5,209.5,118.5,209.5z"/>
				<path class="st13" d="M127.9,345c0,0,26.6,5.6,39.8,5.6c13.2,0,39.6-4,39.6-4s0.3,9.7,2.2,15.9c1.9,6.2,28.9,46.6,31.3,63.5
					c1.8,12.9,11.7,123.1,10.5,134.8c-1.2,11.7-3.6,19-3.2,21.4c0.4,2.4,4.8,2.8,5.2,4.8c0.4,2-2.4,7.3-2,9.7c0.4,2.4,3.6,2,4,3.2
					c0.4,1.2-2.8,5.2-2.8,6.5c0,1.2,1.6,2.8,2.4,4.4c0.8,1.6,0,9.3,0,11.3c0,2,4,3.6,4,10.5c0,6.9,1.6,30.7,2.8,37.5
					c1.2,6.9,8.1,23,8.1,31.5s-0.8,12.1-1.2,13.3c-0.4,1.2-7.3,6.1-14.5,7.7c-7.3,1.6-20.2,2.8-22.6,0c-2.4-2.8-19.8-47.2-21-56.1
					s-6.9-12.5-5.2-16.5c1.6-4-0.8-22.2-2.8-26.6c-2-4.4-2.4-14.1-2.4-16.1c0-2-4.4-2.8-4.4-4.4s2.4-8.5,2.4-10.1
					c0-1.6-5.7-3.6-5.7-6.5c0-2.8,2.4-5.7,2-8.5c-0.4-2.8-18.6-114.6-20.6-117.9c-2-3.2-4.8-6.5-6.1-5.2c-1.2,1.2-5.7,125.9-4,130.4
					c1.6,4.4,5.2,6.5,5.2,9.3s-2.8,10.1-2.8,12.5c0,2.4,2,4.8,2,8.5c0,3.6-2.4,6.1-2.4,9.3c0,3.2-2.4,79.9-3.6,85.6
					c-1.2,5.7-2,10.9-3.2,12.1c-1.2,1.2-11.3,4-16.1,4s-19.4-2-21-4.8c-1.6-2.8-6.9-49.6-6.9-57.7c0-8.1-3.6-14.9-3.6-18.6
					c0-3.6,0.4-14.5,0-16.1c-0.4-1.6-4-2-4-4.8c0-2.8,1.6-5.7,1.6-9.7c0-4-4.4-6.5-4.4-9.3c0-2.8,1.6-7.3,1.6-9.3
					c0-2-2.8-8.1-2.4-10.9c0.4-2.8,1.2-14.1,1.2-15.7c0-1.6-10.6-113.4-10.9-121.1c-0.8-20.2,8.9-44.4,13.7-54.5
					c4.8-10.1,16.1-31.9,17.8-34.3S127.9,345,127.9,345z"/>
				<path class="st1" d="M123.2,811.8c0,0,6.3,4.8,20,4.8c13.7,0,20.6-4.6,20.6-4.6s-9.3-22.6-9.7-29.9c-0.4-7.3,0.4-49.2,0.4-49.2
					l-25.2,3.6c0,0,4.2,27.6,2.6,39.2C130.3,787.2,120.4,806.3,123.2,811.8z"/>
				<path class="st1" d="M270.2,728.4c0,0,1.2,21.2,2,25s2.6,9.1,3,12.3c0.4,3.2,4,39.2,2.4,41.4s-4.8,8.5-17.6,8.7
					c-12.7,0.2-26.8-1.4-29.1-4.8c-2.2-3.4,8-11.1,10.7-14.7c3.6-4.8,8.5-12.7,8.7-16.1s1-15.1-2-26.2c-3-11.1-7.7-21-7.7-21
					L270.2,728.4z"/>
				<path class="st14" d="M122,723.8l-3.2,1.2c0,0-1,7.3-0.2,9.5c0.8,2.2,7.7,5.2,10.3,5.2c2.6,0,23.8-3.8,25.8-3.8s8.3-0.2,9.7-0.8
					c1.4-0.6,0.6-4,0.6-6.9s0-7.5-1.8-6.5c-1.8,1-12.3,4-19.8,4.6C136,727,122,723.8,122,723.8z"/>
				<path class="st14" d="M235.6,724c-3.4,2.2-5.7,1.4-6.1,3.4c-0.4,2,1.2,7.5,2,8.9c0.8,1.4,20.6,0.2,26.8-1.8c6.3-2,17-7.1,18-8.1
					c1-1,0.6-4.4,0.2-6.7s-0.8-7.7-3.2-6.7c-2.4,1-12.3,8.7-18.2,9.1C249.4,722.6,235.6,724,235.6,724z"/>
				<path class="st12" d="M129.7,753.3c0,0,7.5,1,12.3,0.8c4.8-0.2,13.5-1.8,13.5-1.8l-0.4,8.1c0,0-7.5,2.2-12.1,2.2
					s-12.7-0.8-12.7-0.8L129.7,753.3z"/>
				<path class="st12" d="M124.9,794.6c0,0,8.7-2.2,15.5-2.4c6.9-0.2,18.2,1.4,18.2,1.4l3.2,8.1c0,0-12.9-1.4-20-0.8
					c-7.1,0.6-20.4,3.4-20.4,3.4L124.9,794.6z"/>
				<path class="st5" d="M122.4,812.4l0.6,11.5c0,0,2.4,8.7,21.8,8.5c19.4-0.2,23.2-8.7,23.2-8.7l-2-12.3c0,0-6.9,5.7-21,5.4
					C130.9,816.6,122.4,812.4,122.4,812.4z"/>
				<path class="st5" d="M229.4,811.4l-0.2,16.8c0,0,17,4.2,29.5,3c12.5-1.2,21.2-8.3,21.8-9.7c0.6-1.4-1-19.4-1-19.4
					s-2.2,9.9-10.7,12.3c-8.5,2.4-24.4,2-30.5,0.4C232.2,813.2,229.4,811.4,229.4,811.4z"/>
				<path class="st12" d="M237.5,798.5c0,0,20.8,2,25.8,5.7c5,3.6,8.1,8.7,8.1,8.7s5-2.8,6.3-5.7c1.2-2.8,0.2-7.3,0.2-7.3
					s-5.7-4.6-14.1-7.1c-8.5-2.4-20.4-3.2-20.4-3.2L237.5,798.5z"/>
				<path class="st12" d="M246.3,752.1c0,0,9.9,1.2,15.3,0.6c5.4-0.6,11.1-2.4,11.1-2.4l1.4,5.9c0,0-3.8,4-11.7,5
					c-7.9,1-15.5-0.4-15.5-0.4L246.3,752.1z"/>
				<path class="st4" d="M152.6,578.2c0,0-8.1,2.7-14.5,2.4c-6.5-0.3-15.9,1.3-17,4.3c-1.1,3-1.3,7-1.6,9.7
					c-0.3,2.7-3.2,4.6-3.2,5.9s5.7,3,6.2,5.1c0.5,2.2-2.2,5.7-1.6,8.1c0.5,2.4-1.1,2.2,9.7,2.7s30.7-2.2,28.3-3
					c-2.4-0.8-5.9-3.5-5.9-3.5s4.6-0.8,5.1-4.3s0.5-12.1-2.4-12.9c-3-0.8-7.3-4.6-7.3-6.7C148.3,583.9,152.6,578.2,152.6,578.2z"/>
				<path class="st4" d="M202.6,572.8c2.2,0,22.6-3,28-3c5.4,0,5.4,2.4,5.7,5.1c0.3,2.7,1.1,5.4,3.8,5.7c2.7,0.3,3.5,1.3,3.8,3.8
					c0.3,2.4,1.6,5.9,0.8,7.5c-0.8,1.6-9.7,8.1-18,8.9s-21.8,2.7-22.9,0.8c-1.1-1.9,0.3-1.9,2.4-5.1c2.2-3.2,1.6-7,1.6-7
					s-4.3-0.8-4.8-2.2s2.7-5.7,3-7.8s-4.3-6.7-4.3-6.7H202.6z"/>
				<path class="st13" d="M166.3,33.3c0,0,12.4,3.2,16.4,2.4c4-0.8,10.2-3.2,10.2-3.2l1.3,4.8c0,0-3.5,2.4-12.1,3.8
					c-10.7,1.7-17.5-2.7-17.5-2.7l1.1-3.8L166.3,33.3z"/>
				<path class="st15" d="M230,139.4c0.4,0.2,8.5,18,0,18.2c-4.4,0.1-2.4-10.5-2.4-10.5"/>
				<path class="st4" d="M0,229"/>
				<path class="st16" d="M127.3,356.5c0,0,20.6,11.3,29.9,12.5"/>
				<path class="st16" d="M174.9,370.6c0,0,18.7-1,22.6-2.4c6.5-2.4,8.5-4.4,8.5-4.4"/>
				<line class="st16" x1="168" y1="352.5" x2="168.8" y2="428.8"/>
				<path class="st16" d="M178.1,350.5c0,0,4.4,7.3,4.4,10.9c0,3.6,0.4,7.7,0.4,7.7"/>
				<path class="st16" d="M183,350.9c0,0,2,3.2,3.2,7.3c1.2,4,1.2,9.3,1.2,9.3"/>
				<path class="st16" d="M153.1,351.3c0,0-3.2,3.2-3.2,6.5c0,3.2-0.4,8.1-0.4,8.1"/>
				<path class="st16" d="M146.6,349.6c0,0-2,3.2-2,5.7s-0.4,8.5-0.4,8.5"/>
				<path class="st16" d="M193.9,370.6c0,0,4.8,13.3,12.1,19.4c7.3,6.1,22.6,13.3,22.6,13.3"/>
				<path class="st16" d="M142.6,366.2c0,0-13.3,18.6-19,23s-12.9,7.3-12.9,7.3"/>
				<path class="st16" d="M180.1,372.6c0,2.4,3.2,28.3,4,33.5c0.8,5.2,1.2,8.5,0.4,13.3c-0.8,4.8-9.7,12.9-9.7,12.9"/>
				<path class="st16" d="M163.2,452.2c0,0-10.1-10.9-16.5-12.5"/>
				<path class="st16" d="M174.5,452.2c0,0,2.8-6.5,8.1-10.9s13.3-8.1,13.3-8.1"/>
				<circle class="st16" cx="174.1" cy="360.9" r="3.6"/>
				<circle class="st17" cx="149.6" cy="119.1" r="2.3"/>
				<circle class="st17" cx="196.8" cy="118.7" r="2.3"/>
				<g>
					<g>
						<g>
							<path class="st18" d="M218.3,485.8c-0.4-0.1-0.8-0.2-1.2-0.4c-0.6-0.2-1.1-0.4-1.6-0.6c-1.2-0.4-2.3-0.9-3.3-1.4
								c-1.4,1.5-3.1,2.9-4.9,4.3c0.2,0.1,0.3,0.3,0.5,0.4c1.7,1.3,3.7,2.5,5.9,3.6C215.4,489.8,217,487.8,218.3,485.8z"/>
							<path class="st18" d="M231.2,488.2c-0.2,0-0.4,0-0.6,0c-1.1-0.1-2.2-0.2-3.4-0.3c-0.3,0-0.7-0.1-1-0.1
								c-1.6-0.2-3.2-0.6-4.8-1c-1.3,2.2-2.9,4.4-4.8,6.5c2.4,1.1,5.1,2.1,7.9,3c-0.1,0.1-0.2,0.3-0.3,0.4c3.1-3.6,6.6-6.4,10.3-8.5
								l0,0C233.5,488.2,232.4,488.2,231.2,488.2z"/>
							<path class="st18" d="M222.3,498.9c-2.9-1-5.6-2.1-8-3.2c-1.9,1.9-4.1,3.9-6.5,5.9l-0.2-0.1c2.9,2,5.8,4.5,9,7.6
								c1.8-4.2,3.9-7.8,6.2-10.8C222.7,498.4,222.5,498.7,222.3,498.9z"/>
							<path class="st18" d="M208,497.3c1.2-1,2.3-2.1,3.4-3.1c-2.5-1.4-4.8-2.8-6.8-4.4c-4.2,2.8-8.5,5.1-11.7,5.8l0,0
								c4.9,0.8,8.7,2.2,12.3,4.3l-0.1-0.1C205.9,499,207.1,498,208,497.3z"/>
						</g>
						<path class="st17" d="M232.2,489.2"/>
					</g>
					<g>
						<path class="st19" d="M207,476.9l-9.9-20.3c-1.9,0.7-3.6,1.4-5.2,2.2L207,476.9z"/>
						<g>
							<path class="st18" d="M179.7,466.3c7.1,9.5,12.2,17.9,13.1,26c2.6-0.8,6-2.5,9.3-4.7c-4.9-4.7-7.8-10.4-9.1-17.3
								c-0.4-2.5-0.4-4.8,0.2-6.9l-3.1-3.6C186.5,461.5,183,463.7,179.7,466.3z"/>
							<path class="st18" d="M204.8,477.1l-8.9-10.6c0,0.6,0,1.3,0.1,2c0,0.4,0.1,0.7,0.2,1.1c0.2,1.2,0.5,2.4,0.9,3.6
								c1,3.5,2.7,6.7,5.1,9.6c0.3,0.3,0.5,0.6,0.8,0.9c0.6,0.6,1.2,1.2,1.8,1.8c1.7-1.3,3.3-2.6,4.7-3.9l-0.2-0.1
								C207.7,480.4,206.2,478.9,204.8,477.1z"/>
						</g>
					</g>
					<g>
						<path class="st20" d="M205.9,454.1c-2.5,0.5-4.8,1.1-6.9,1.8l11.3,23.1"/>
					</g>
					<g>
						<path class="st21" d="M214.9,453.1c-2.5,0.1-4.8,0.3-7.1,0.7l4.5,24.9L214.9,453.1z"/>
					</g>
					<g>
						<path class="st22" d="M222.5,453.3c-1.9-0.2-3.8-0.2-5.6-0.2l-2.2,22.2L222.5,453.3z"/>
						<g>
							<path class="st18" d="M216.1,476.9c-0.6,1.5-1.3,2.8-2,4c1.7,0.8,3.7,1.5,5.8,2.1c0.3-0.6,0.6-1.2,0.8-1.8
								c2.3-5.3,2.7-10.6,1.7-16.2c-0.1-0.4-0.1-0.8-0.2-1.1c-0.2-0.7-0.4-1.3-0.7-1.9l-5,14.1C216.5,476,216.3,476.4,216.1,476.9z"
								/>
							<path class="st18" d="M236.9,456c-4.2-1.2-8.3-2-12.3-2.5L223,458c1.3,1.8,2.1,4,2.6,6.5c1.2,6.9,0.5,13.2-2.5,19.3
								c3.9,0.9,7.8,1.4,10.5,1.2C231.5,476.2,232.7,466.6,236.9,456z"/>
							<g>
								<path class="st18" d="M216.2,476.7c-1.2,2.9-2.7,5.3-4.1,6.8c-5.3,5.4-14,10.7-19.3,12c0,0,0,0,0,0c3.8,0,8.1,1.7,12.5,3.9
									c0,0,0,0,0,0c0.9-0.7,1.8-1.5,2.7-2.2c6.4-5.5,10.5-10.8,12.8-16.1c2.3-5.3,2.7-10.6,1.7-16.2c-0.1-0.4-0.1-0.8-0.2-1.1
									c-0.2-0.7-0.4-1.3-0.7-1.9l-5,14.1C216.5,476,216.4,476.3,216.2,476.7z"/>
							</g>
						</g>
					</g>
				</g>
			</g>
		</g>
	</g>
</g>
<g id="logo">
</g>
<g id="header">
</g>
<g id="Gary">
</g>
<g id="text">
</g>
<g id="icons">
</g>
<g id="grid">
	<rect x="1752.1" y="-1648.1" class="st23" width="1920" height="1080"/>
</g>
</svg>
