<svg width="260" height="790" viewBox="0 0 260 790" fill="none" xmlns="http://www.w3.org/2000/svg">
<g clip-path="url(#clip0)">
<path d="M148.338 170.167C148.338 170.167 147.2 183.739 148.149 188.389C149.098 193.039 166.94 195.507 166.94 195.507L165.611 245.712L91.2998 245.143L85.8901 215.437C85.8901 215.437 111.894 193.229 113.128 187.63C114.267 182.03 114.837 171.306 114.837 171.306L148.338 170.167Z" fill="#D88D71"/>
<path d="M160.771 194.368C156.311 200.442 148.149 208.889 135.052 213.729C113.128 221.891 85.7954 215.342 85.7954 215.342L91.2051 245.048L165.517 245.618L166.845 195.412C166.845 195.507 164.188 195.033 160.771 194.368Z" fill="#EF9D78"/>
<path d="M113.223 184.308C113.223 184.308 119.202 186.965 129.357 187.345C139.512 187.725 149.667 185.257 149.667 185.257L152.325 188.674C152.325 188.674 142.17 193.039 130.686 192.28C116.165 191.331 109.997 187.345 109.997 187.345L113.223 184.308Z" fill="#C1272D"/>
<path d="M54.666 262.89C54.666 262.89 53.1475 270.578 60.4553 272.096C67.7631 273.615 69.0918 269.439 75.7352 267.92C82.4736 266.402 84.5615 260.613 84.5615 260.613L81.7143 236.696L54.666 262.89Z" fill="#ED1E79"/>
<path d="M167.225 264.029C167.225 264.029 165.707 271.717 173.014 273.235C180.322 274.754 184.308 273.615 191.047 272.096C197.785 270.578 204.049 260.992 204.049 260.992L194.273 237.835L171.876 235.747L167.225 264.029Z" fill="#ED1E79"/>
<path d="M125.846 332.646C147.485 332.457 161.056 331.697 161.056 331.697C161.056 331.697 161.626 324.959 162.575 318.316C163.524 311.862 165.612 294.779 165.612 294.779L81.9043 298.765C81.9043 298.765 83.6126 307.212 84.182 313.665C84.7515 320.214 85.7005 327.427 85.7005 327.427C85.7005 327.427 105.821 332.836 125.846 332.646Z" fill="#FFBA85"/>
<path d="M84.0872 196.836C84.0872 196.836 87.0293 213.634 89.1172 220.942C91.2052 228.25 94.7167 231.666 101.93 233.754C109.048 235.842 149.952 233.28 157.64 227.111C161.151 224.358 163.809 204.713 161.436 195.697L171.021 197.215C171.021 197.215 170.167 214.583 171.686 230.907C173.204 247.231 175.577 252.261 174.628 261.846C173.679 271.432 165.517 297.531 164.947 300.378C164.378 303.226 158.019 314.709 126.226 313.95C94.432 313.191 82.9483 304.554 82.1891 301.327C81.4298 298.101 78.3928 251.502 79.1521 245.048C79.9113 238.5 80.3859 234.988 79.6266 221.227C78.7725 207.37 76.9692 198.354 76.9692 198.354L84.0872 196.836Z" fill="#9E005D"/>
<path d="M115.596 170.926C115.596 170.926 118.443 184.118 113.318 193.134C108.193 202.15 98.0382 204.618 97.6586 210.787C97.2789 216.956 104.777 222.65 104.777 224.169C104.777 225.687 89.3068 227.395 84.3717 219.328C79.2467 210.787 78.8671 201.106 84.6564 196.646L77.2537 198.544L40.4301 247.705C40.4301 247.705 31.0343 246.946 30.2751 235.652C29.5158 224.358 44.9856 212.685 45.7448 198.259C46.5041 183.928 38.8167 180.986 40.3352 172.445C41.8537 163.903 56.8489 145.586 58.3674 135.241C59.8859 124.897 60.8349 85.7953 73.4575 68.8071C86.08 51.8188 107.719 47.0735 112.749 44.7009C119.297 41.6639 124.043 35.3051 124.612 33.407C125.181 31.5089 117.304 27.2381 116.735 22.6826C116.165 18.1271 123.093 8.73139 133.248 3.70136C143.593 -1.32868 160.297 -1.7083 162.954 5.40967C168.554 20.6896 145.871 30.0853 145.871 32.2681C145.871 34.451 151.47 41.4741 156.785 42.9926C162.195 44.5111 172.729 42.2333 180.512 49.5411C188.389 56.8489 193.514 90.9202 199.493 100.506C205.472 110.091 223.789 119.867 226.731 133.628C229.578 147.389 216.956 168.838 216.766 178.424C216.576 188.009 222.935 198.164 222.365 206.042C221.796 213.919 213.729 217.335 212.021 226.162C210.312 234.988 195.887 240.493 195.887 240.493L171.97 197.215C171.97 197.215 152.04 194.558 149.003 189.908C145.966 185.352 148.244 170.167 148.244 170.167L132.299 163.049L115.596 170.926Z" fill="#ED1E79"/>
<path d="M84.941 142.644C84.941 142.644 84.7512 158.968 104.681 167.32C124.612 175.672 143.308 172.16 152.799 167.984C167.699 161.436 177.854 136.855 177.854 136.855C177.854 136.855 187.63 138.184 192.755 132.3C197.879 126.321 199.113 118.918 193.514 112.179C187.914 105.441 177.854 120.247 176.81 121.765C176.81 121.765 169.313 107.055 165.896 96.3301C162.669 85.9853 152.704 80.3859 158.588 67.7633C158.588 67.7633 149.572 77.7285 134.482 76.3998C119.392 75.0711 113.033 68.7124 111.135 65.106C111.135 65.106 91.9641 78.4877 90.0659 87.1242C88.1678 95.7607 91.2048 102.784 90.2557 119.487C89.4965 133.533 86.4595 133.438 84.941 142.644Z" fill="#EF9D78"/>
<path d="M113.982 170.452C128.598 171.97 141.98 167.51 149.383 164.757C157.544 161.72 172.35 147.864 172.35 128.503C172.35 109.047 163.144 91.2049 147.864 84.5614C133.818 78.4874 105.346 80.955 89.6865 89.5915C88.7374 97.184 91.205 104.397 90.2559 119.392C89.4018 133.438 86.4597 133.343 84.8463 142.549C84.8463 142.549 84.6564 158.873 104.587 167.225C107.814 168.648 110.851 169.597 113.982 170.452Z" fill="#FFBA85"/>
<path d="M96.2349 108.857C96.2349 108.857 111.515 108.857 114.647 111.894Z" fill="white"/>
<path d="M96.2349 108.857C96.2349 108.857 111.515 108.857 114.647 111.894" stroke="#680100" stroke-width="3.229" stroke-miterlimit="10" stroke-linecap="round" stroke-linejoin="bevel"/>
<path d="M109.807 122.334C113.214 122.334 115.976 119.572 115.976 116.165C115.976 112.758 113.214 109.997 109.807 109.997C106.4 109.997 103.638 112.758 103.638 116.165C103.638 119.572 106.4 122.334 109.807 122.334Z" fill="black" stroke="#680100" stroke-width="3.229" stroke-miterlimit="10" stroke-linejoin="bevel"/>
<path d="M165.896 108.098C165.896 108.098 152.514 108.098 149.857 111.135Z" fill="white"/>
<path d="M165.896 108.098C165.896 108.098 152.514 108.098 149.857 111.135" stroke="#680100" stroke-width="3.016" stroke-miterlimit="10" stroke-linecap="round" stroke-linejoin="bevel"/>
<path d="M154.603 121.575C158.01 121.575 160.771 118.813 160.771 115.406C160.771 111.999 158.01 109.237 154.603 109.237C151.196 109.237 148.434 111.999 148.434 115.406C148.434 118.813 151.196 121.575 154.603 121.575Z" fill="black" stroke="#680100" stroke-width="3.229" stroke-miterlimit="10" stroke-linejoin="bevel"/>
<path d="M89.6865 104.872C89.6865 104.872 98.8924 97.9434 108.858 97.9434" stroke="#D4145A" stroke-width="3.016" stroke-miterlimit="10" stroke-linecap="round" stroke-linejoin="bevel"/>
<path d="M150.237 96.8042C157.924 97.1838 167.13 100.411 167.13 100.411" stroke="#D4145A" stroke-width="3.016" stroke-miterlimit="10" stroke-linecap="round" stroke-linejoin="bevel"/>
<path d="M128.218 107.719C128.218 107.719 130.306 116.165 128.029 120.151C125.751 124.138 121.195 122.05 121.195 126.7C121.195 128.124 123.853 133.913 130.496 133.533C137.234 133.154 137.045 130.306 137.045 130.306" stroke="#680100" stroke-width="3.016" stroke-miterlimit="10" stroke-linecap="round" stroke-linejoin="bevel"/>
<path d="M117.304 143.783C117.304 143.783 118.823 148.908 126.7 149.193C134.577 149.383 138.373 144.258 138.373 144.258" stroke="#680100" stroke-width="3.016" stroke-miterlimit="10" stroke-linecap="round" stroke-linejoin="bevel"/>
<path d="M130.686 190.097V197.025" stroke="#C1272D" stroke-width="3.016" stroke-miterlimit="10" stroke-linecap="round" stroke-linejoin="round"/>
<path d="M130.686 204.049C133.307 204.049 135.431 201.924 135.431 199.303C135.431 196.683 133.307 194.558 130.686 194.558C128.065 194.558 125.94 196.683 125.94 199.303C125.94 201.924 128.065 204.049 130.686 204.049Z" fill="#FF1D25"/>
<path d="M125.371 286.237C125.561 286.617 133.343 282.916 135.621 282.916C141.221 282.916 146.156 287.091 149.003 290.793C151.85 294.399 159.348 294.209 162.575 295.348C165.801 296.487 185.257 303.985 194.178 305.693C205.852 307.971 220.752 310.059 230.527 309.869C241.442 309.679 253.115 310.249 256.342 307.212C259.569 304.175 259.759 296.487 256.722 292.691C253.685 288.895 198.544 212.685 188.959 205.092C181.176 199.018 175.767 197.31 171.116 197.31C166.466 197.31 172.255 240.208 172.255 240.208C172.255 240.208 189.908 261.087 196.551 266.022C203.289 270.957 226.067 290.888 226.067 290.888C226.067 290.888 219.708 287.661 217.62 287.661C215.532 287.661 205.757 287.281 197.31 287.091C188.864 286.902 170.262 286.902 165.327 284.624C160.392 282.346 158.968 268.68 158.778 264.314C158.588 259.948 159.158 250.173 157.45 248.654C155.741 247.136 151.66 245.997 147.674 243.529C143.688 241.062 139.987 236.411 138.279 236.411C135.242 236.411 133.343 238.31 129.262 241.157C126.89 242.865 123.283 245.712 123.283 247.895C123.283 250.078 122.904 252.451 124.992 253.305C127.08 254.159 127.269 248.749 129.357 247.705C131.445 246.756 139.133 245.428 142.549 249.224C145.966 253.02 151.755 255.962 148.908 265.927C146.061 275.892 145.302 275.703 141.6 276.462C137.994 277.221 135.621 277.221 131.635 278.36C129.357 279.119 123.568 282.631 125.371 286.237Z" fill="#FFBA85"/>
<path d="M76.9691 198.829C76.9691 198.829 80.0061 211.641 80.5756 217.905C81.0501 224.169 79.4367 241.632 79.4367 241.632C79.4367 241.632 49.1616 276.652 39.1964 286.048C29.2312 295.443 19.2661 303.89 19.2661 303.89C19.2661 303.89 46.1246 290.698 52.5782 288.61C59.0318 286.522 80.1959 280.353 81.9042 279.214C83.6126 278.076 86.8394 271.907 87.8833 267.731C88.8324 263.555 89.4018 255.488 90.9203 253.02C92.4388 250.553 98.7976 246.851 100.506 244.953C102.214 243.055 107.624 237.266 109.427 237.266C111.23 237.266 115.311 240.018 116.45 240.588C117.589 241.157 122.619 242.106 123.378 243.245C124.138 244.384 123.758 250.932 123.568 252.071C123.378 253.21 120.911 250.648 120.531 249.129C120.151 247.611 113.698 245.997 112.749 246.187C111.8 246.377 107.339 247.99 106.01 251.407C104.682 254.823 103.258 257.766 104.017 263.555C104.777 269.344 107.814 275.228 115.501 277.316C123.188 279.404 124.327 282.441 124.327 284.244C124.327 285.953 124.138 286.712 124.138 286.712C124.138 286.712 120.721 283.106 114.742 281.777C108.763 280.448 103.068 280.828 100.411 284.434C97.7536 288.041 85.5107 285.953 81.8093 287.661C78.108 289.369 43.0876 316.038 35.1154 320.594C27.0484 325.149 16.1342 332.267 12.1481 330.938C8.16205 329.61 -0.664234 313.855 1.61352 302.751C3.89127 291.647 61.6892 207.75 67.2887 203.1C72.8881 198.449 76.9691 198.829 76.9691 198.829Z" fill="#FFBA85"/>
<path d="M85.8903 327.427C85.8903 327.427 111.135 332.742 123.663 332.742C136.191 332.742 161.246 328.945 161.246 328.945C161.246 328.945 161.531 338.151 163.334 344.035C165.137 349.92 190.762 388.262 193.04 404.301C194.748 416.544 204.144 521.13 203.005 532.235C201.866 543.339 199.588 550.267 199.968 552.544C200.347 554.822 204.523 555.202 204.903 557.1C205.282 558.998 202.625 564.028 203.005 566.306C203.384 568.584 206.421 568.204 206.801 569.343C207.181 570.482 204.144 574.278 204.144 575.512C204.144 576.651 205.662 578.169 206.421 579.688C207.181 581.206 206.421 588.514 206.421 590.412C206.421 592.31 210.218 593.829 210.218 600.377C210.218 606.926 211.736 629.513 212.875 635.967C214.014 642.516 220.562 657.796 220.562 665.863C220.562 673.93 219.803 677.346 219.423 678.485C219.044 679.624 212.495 684.274 205.662 685.793C198.734 687.311 186.491 688.45 184.213 685.793C181.935 683.135 165.422 640.997 164.283 632.55C163.144 624.104 157.734 620.687 159.348 616.891C160.866 613.095 158.589 595.822 156.69 591.646C154.792 587.47 154.413 578.264 154.413 576.366C154.413 574.468 150.237 573.709 150.237 572.19C150.237 570.672 152.515 564.123 152.515 562.605C152.515 561.086 147.105 559.188 147.105 556.436C147.105 553.778 149.383 551.026 149.003 548.369C148.623 545.711 131.35 439.606 129.452 436.474C127.554 433.437 124.897 430.305 123.663 431.539C122.524 432.678 118.253 551.026 119.867 555.297C121.48 559.568 124.802 561.466 124.802 564.123C124.802 566.78 122.145 573.709 122.145 575.986C122.145 578.264 124.043 580.542 124.043 584.053C124.043 587.47 121.765 589.843 121.765 592.88C121.765 595.917 119.487 668.71 118.348 674.119C117.209 679.529 116.45 684.464 115.311 685.603C114.172 686.742 104.587 689.399 100.031 689.399C95.4759 689.399 81.6195 687.501 80.101 684.844C78.5825 682.186 73.5525 637.77 73.5525 630.083C73.5525 622.396 70.1359 615.942 70.1359 612.43C70.1359 609.014 70.5155 598.669 70.1359 597.15C69.7562 595.632 66.3396 595.252 66.3396 592.595C66.3396 589.938 67.8581 587.185 67.8581 583.389C67.8581 579.593 63.6822 577.22 63.6822 574.563C63.6822 571.905 65.2007 567.635 65.2007 565.736C65.2007 563.838 62.5434 558.049 62.923 555.392C63.3026 552.734 64.0619 542.01 64.0619 540.491C64.0619 538.973 54.0018 432.868 53.7171 425.56C52.9578 406.389 62.1637 383.421 66.7192 373.836C71.2747 364.25 81.9992 343.561 83.6126 341.283C85.226 339.005 85.8903 327.427 85.8903 327.427Z" fill="#FF7BAC"/>
<path d="M81.4296 770.449C81.4296 770.449 87.4087 775.005 100.411 775.005C113.413 775.005 119.962 770.639 119.962 770.639C119.962 770.639 111.135 749.19 110.756 742.262C110.376 735.334 111.135 695.568 111.135 695.568L87.2189 698.985C87.2189 698.985 91.2049 725.179 89.6864 736.188C88.1679 747.197 78.7722 765.23 81.4296 770.449Z" fill="#EF9D78"/>
<path d="M220.847 691.297C220.847 691.297 221.986 711.417 222.745 715.024C223.504 718.63 225.212 723.66 225.592 726.697C225.972 729.734 229.388 763.901 227.87 765.989C226.351 768.076 223.314 774.056 211.166 774.245C199.113 774.435 185.731 772.917 183.549 769.69C181.461 766.463 191.141 759.155 193.704 755.739C197.12 751.183 201.771 743.686 201.96 740.459C202.15 737.232 202.909 726.128 200.062 715.593C197.215 705.059 192.754 695.663 192.754 695.663L220.847 691.297Z" fill="#EF9D78"/>
<path d="M80.2907 686.932L77.2538 688.071C77.2538 688.071 76.3047 694.999 77.0639 697.087C77.8232 699.175 84.3717 702.022 86.8393 702.022C89.3068 702.022 109.427 698.415 111.325 698.415C113.223 698.415 119.202 698.226 120.531 697.656C121.86 697.087 121.1 693.86 121.1 691.108C121.1 688.355 121.1 683.99 119.392 684.939C117.684 685.888 107.719 688.735 100.601 689.304C93.4827 689.969 80.2907 686.932 80.2907 686.932Z" fill="#E2B7C9"/>
<path d="M188.104 687.122C184.877 689.209 182.694 688.45 182.315 690.348C181.935 692.246 183.454 697.466 184.213 698.795C184.972 700.124 203.764 698.985 209.648 697.087C215.627 695.189 225.782 690.348 226.731 689.399C227.68 688.45 227.3 685.223 226.921 683.041C226.541 680.858 226.162 675.733 223.884 676.682C221.606 677.631 212.21 684.939 206.611 685.318C201.201 685.793 188.104 687.122 188.104 687.122Z" fill="#E2B7C9"/>
<path d="M87.5986 714.929C87.5986 714.929 94.7166 715.878 99.2721 715.688C103.828 715.498 112.084 713.98 112.084 713.98L111.705 721.667C111.705 721.667 104.587 723.755 100.221 723.755C95.8555 723.755 88.1681 722.996 88.1681 722.996L87.5986 714.929Z" fill="#FF1D25"/>
<path d="M82.9482 754.125C82.9482 754.125 91.205 752.038 97.6587 751.848C104.207 751.658 114.932 753.176 114.932 753.176L117.969 760.864C117.969 760.864 105.726 759.535 98.9873 760.105C92.249 760.674 79.6265 763.331 79.6265 763.331L82.9482 754.125Z" fill="#FF1D25"/>
<path d="M80.6704 771.019L81.2398 781.933C81.2398 781.933 83.5176 790.19 101.929 790C120.341 789.81 123.948 781.743 123.948 781.743L122.05 770.07C122.05 770.07 115.501 775.479 102.119 775.195C88.7374 775.005 80.6704 771.019 80.6704 771.019Z" fill="#9E005D"/>
<path d="M182.22 770.07L182.03 786.014C182.03 786.014 198.164 790 210.028 788.861C221.891 787.722 230.148 780.984 230.717 779.655C231.287 778.327 229.768 761.243 229.768 761.243C229.768 761.243 227.68 770.639 219.613 772.917C211.546 775.195 196.456 774.815 190.667 773.297C184.877 771.778 182.22 770.07 182.22 770.07Z" fill="#9E005D"/>
<path d="M189.908 757.827C189.908 757.827 209.648 759.725 214.394 763.236C219.139 766.653 222.081 771.493 222.081 771.493C222.081 771.493 226.826 768.836 228.06 766.084C229.294 763.331 228.25 759.156 228.25 759.156C228.25 759.156 222.84 754.79 214.868 752.417C206.801 750.139 195.507 749.38 195.507 749.38L189.908 757.827Z" fill="#FF1D25"/>
<path d="M198.259 713.79C198.259 713.79 207.655 714.929 212.78 714.36C217.905 713.79 223.315 712.082 223.315 712.082L224.643 717.681C224.643 717.681 221.037 721.478 213.539 722.427C206.042 723.376 198.829 722.047 198.829 722.047L198.259 713.79Z" fill="#FF1D25"/>
<path d="M109.332 548.748C109.332 548.748 101.644 551.31 95.5704 551.026C89.4015 550.741 80.4803 552.26 79.4364 555.107C78.3924 557.954 78.2026 561.75 77.9179 564.313C77.6331 566.875 74.8809 568.678 74.8809 569.912C74.8809 571.146 80.2905 572.759 80.765 574.752C81.2396 576.84 78.6771 580.162 79.2465 582.44C79.7211 584.718 78.2026 584.528 88.4525 585.002C98.7023 585.477 117.589 582.914 115.311 582.155C113.033 581.396 109.711 578.833 109.711 578.833C109.711 578.833 114.077 578.074 114.552 574.752C115.026 571.431 115.026 563.269 112.274 562.509C109.427 561.75 105.346 558.144 105.346 556.151C105.251 554.158 109.332 548.748 109.332 548.748Z" fill="#FFBA85"/>
<path d="M156.785 543.623C158.873 543.623 178.234 540.776 183.359 540.776C188.484 540.776 188.484 543.054 188.769 545.616C189.053 548.179 189.813 550.741 192.375 551.026C194.938 551.31 195.697 552.26 195.982 554.632C196.266 556.91 197.5 560.232 196.741 561.75C195.982 563.269 187.535 569.438 179.658 570.197C171.781 570.956 158.968 572.759 157.924 570.956C156.88 569.153 158.209 569.153 160.202 566.116C162.29 563.079 161.72 559.472 161.72 559.472C161.72 559.472 157.639 558.713 157.165 557.385C156.69 556.056 159.727 551.975 160.012 549.982C160.297 547.989 155.931 543.623 155.931 543.623H156.785V543.623Z" fill="#FFBA85"/>
<path d="M122.334 31.604C122.334 31.604 134.102 34.641 137.899 33.8817C141.695 33.1225 147.579 30.8447 147.579 30.8447L148.813 35.4002C148.813 35.4002 145.491 37.678 137.329 39.0067C127.174 40.6201 120.721 36.4442 120.721 36.4442L121.765 32.8378L122.334 31.604Z" fill="#FF7BAC"/>
<path d="M182.79 132.299C183.169 132.489 190.857 149.382 182.79 149.572C178.614 149.667 180.512 139.607 180.512 139.607" stroke="#FF7BAC" stroke-width="3.016" stroke-miterlimit="10" stroke-linecap="round" stroke-linejoin="round"/>
<path d="M85.3208 338.341C85.3208 338.341 104.871 349.065 113.698 350.204" stroke="#DB4F88" stroke-width="3.229" stroke-miterlimit="10" stroke-linecap="round" stroke-linejoin="round"/>
<path d="M130.496 351.723C130.496 351.723 148.244 350.774 151.945 349.445C158.114 347.167 160.012 345.269 160.012 345.269" stroke="#DB4F88" stroke-width="3.229" stroke-miterlimit="10" stroke-linecap="round" stroke-linejoin="round"/>
<path d="M123.948 334.545L124.707 406.958" stroke="#DB4F88" stroke-width="3.229" stroke-miterlimit="10" stroke-linecap="round" stroke-linejoin="round"/>
<path d="M133.533 332.646C133.533 332.646 137.709 339.575 137.709 342.991C137.709 346.408 138.089 350.299 138.089 350.299" stroke="#DB4F88" stroke-width="3.229" stroke-miterlimit="10" stroke-linecap="round" stroke-linejoin="round"/>
<path d="M138.184 333.026C138.184 333.026 140.082 336.063 141.221 339.954C142.359 343.751 142.359 348.781 142.359 348.781" stroke="#DB4F88" stroke-width="3.229" stroke-miterlimit="10" stroke-linecap="round" stroke-linejoin="round"/>
<path d="M109.807 333.406C109.807 333.406 106.77 336.443 106.77 339.575C106.77 342.612 106.39 347.262 106.39 347.262" stroke="#DB4F88" stroke-width="3.229" stroke-miterlimit="10" stroke-linecap="round" stroke-linejoin="round"/>
<path d="M103.638 331.792C103.638 331.792 101.739 334.829 101.739 337.202C101.739 339.575 101.36 345.269 101.36 345.269" stroke="#DB4F88" stroke-width="3.229" stroke-miterlimit="10" stroke-linecap="round" stroke-linejoin="round"/>
<path d="M148.528 351.723C148.528 351.723 153.084 364.345 160.012 370.134C166.94 375.924 181.461 382.757 181.461 382.757" stroke="#DB4F88" stroke-width="3.229" stroke-miterlimit="10" stroke-linecap="round" stroke-linejoin="round"/>
<path d="M99.8415 347.547C99.8415 347.547 87.219 365.199 81.8093 369.375C76.3997 373.551 69.5664 376.303 69.5664 376.303" stroke="#DB4F88" stroke-width="3.229" stroke-miterlimit="10" stroke-linecap="round" stroke-linejoin="round"/>
<path d="M135.431 353.621C135.431 355.899 138.468 380.479 139.228 385.414C139.987 390.35 140.367 393.481 139.607 398.037C138.848 402.592 130.401 410.28 130.401 410.28" stroke="#DB4F88" stroke-width="3.229" stroke-miterlimit="10" stroke-linecap="round" stroke-linejoin="round"/>
<path d="M119.392 429.166C119.392 429.166 109.806 418.821 103.732 417.303" stroke="#DB4F88" stroke-width="3.229" stroke-miterlimit="10" stroke-linecap="round" stroke-linejoin="round"/>
<path d="M130.117 429.166C130.117 429.166 132.774 422.997 137.804 418.821C142.834 414.646 150.427 411.134 150.427 411.134" stroke="#DB4F88" stroke-width="3.229" stroke-miterlimit="10" stroke-linecap="round" stroke-linejoin="round"/>
<path d="M129.737 345.933C131.624 345.933 133.154 344.404 133.154 342.517C133.154 340.63 131.624 339.1 129.737 339.1C127.85 339.1 126.32 340.63 126.32 342.517C126.32 344.404 127.85 345.933 129.737 345.933Z" stroke="#DB4F88" stroke-width="3.229" stroke-miterlimit="10" stroke-linecap="round" stroke-linejoin="round"/>
<path d="M106.485 115.216C107.691 115.216 108.668 114.239 108.668 113.033C108.668 111.828 107.691 110.851 106.485 110.851C105.28 110.851 104.302 111.828 104.302 113.033C104.302 114.239 105.28 115.216 106.485 115.216Z" fill="white"/>
<path d="M151.28 114.836C152.486 114.836 153.463 113.859 153.463 112.654C153.463 111.448 152.486 110.471 151.28 110.471C150.075 110.471 149.098 111.448 149.098 112.654C149.098 113.859 150.075 114.836 151.28 114.836Z" fill="white"/>
<path d="M167.794 508.033C173.489 503.098 177.19 498.353 179.183 493.608C177.19 498.448 173.489 503.098 167.794 508.033Z" fill="white"/>
<path d="M174.912 471.21C175.292 471.4 175.671 471.589 176.051 471.874C175.671 471.589 175.292 471.4 174.912 471.21Z" fill="white"/>
<path d="M165.422 510.027C166.276 509.362 167.035 508.698 167.795 508.033C167.035 508.698 166.181 509.362 165.422 510.027Z" fill="white"/>
<path d="M176.621 472.254C177 472.538 177.38 472.823 177.665 473.203C177.38 472.823 177 472.538 176.621 472.254Z" fill="white"/>
<path d="M162.764 487.154C162.48 486.774 162.29 486.395 162.1 486.015C162.29 486.395 162.575 486.774 162.764 487.154Z" fill="white"/>
<path d="M161.626 485.066C161.436 484.781 161.341 484.497 161.246 484.212C161.341 484.497 161.531 484.781 161.626 485.066Z" fill="white"/>
<path d="M163.429 488.103C163.239 487.913 163.144 487.628 162.954 487.344C163.144 487.628 163.239 487.913 163.429 488.103Z" fill="white"/>
<path d="M189.623 500.726C190.192 500.346 190.857 500.061 191.426 499.872C190.857 500.156 190.192 500.441 189.623 500.726Z" fill="white"/>
<path d="M167.51 499.966C169.503 501.39 171.781 502.719 174.438 504.047C171.875 502.719 169.503 501.39 167.51 499.966Z" fill="white"/>
<path d="M182.22 507.084C179.373 506.135 176.811 505.091 174.438 504.047C176.811 505.091 179.373 506.135 182.22 507.084Z" fill="white"/>
<path d="M189.433 500.821C189.528 500.821 189.528 500.726 189.623 500.726C189.528 500.82 189.528 500.821 189.433 500.821Z" fill="white"/>
<path d="M177.001 497.784C176.621 497.689 176.241 497.594 175.957 497.499C175.482 497.309 175.008 497.119 174.533 497.024C173.489 496.645 172.54 496.265 171.591 495.791C170.262 497.119 168.744 498.353 167.13 499.587C167.32 499.682 167.415 499.777 167.605 499.966C169.123 501.105 170.927 502.149 172.92 503.193C174.438 501.39 175.862 499.587 177.001 497.784Z" fill="white"/>
<path d="M188.579 499.966C188.389 499.966 188.199 499.966 188.01 499.966C187.061 499.872 186.017 499.777 184.973 499.682C184.688 499.682 184.403 499.587 184.118 499.587C182.695 499.397 181.271 499.112 179.848 498.733C178.709 500.726 177.19 502.624 175.482 504.522C177.57 505.471 180.037 506.42 182.505 507.179C182.41 507.274 182.315 507.464 182.22 507.559C184.973 504.332 188.104 501.865 191.426 499.872C190.572 499.966 189.623 499.966 188.579 499.966Z" fill="white"/>
<path d="M180.607 509.552C178.044 508.698 175.672 507.749 173.489 506.705C171.781 508.413 169.882 510.216 167.7 511.925L167.51 511.83C170.072 513.633 172.635 515.816 175.577 518.663C177.19 514.867 178.993 511.735 181.081 509.077C180.892 509.172 180.797 509.362 180.607 509.552Z" fill="white"/>
<path d="M167.795 508.033C168.839 507.084 169.882 506.135 170.832 505.281C168.554 504.047 166.561 502.719 164.758 501.295C161.056 503.858 157.07 505.851 154.318 506.515C158.684 507.274 162.1 508.508 165.327 510.311L165.232 510.216C165.991 509.647 167.035 508.698 167.795 508.033Z" fill="white"/>
<path d="M166.94 489.811L158.114 471.684C156.405 472.254 154.887 472.918 153.463 473.677L166.94 489.811Z" fill="white"/>
<path d="M160.581 482.219L166.94 489.811L160.581 476.809C159.917 478.517 160.012 480.321 160.581 482.219Z" fill="white"/>
<path d="M167.509 492.754C167.414 492.754 165.516 490.666 165.421 490.666L164.947 490.096C166.181 491.615 167.604 493.038 168.933 494.082L167.509 492.754Z" fill="white"/>
<path d="M142.454 480.321C148.813 488.862 153.368 496.36 154.128 503.573C156.405 502.908 159.442 501.295 162.479 499.302C158.114 495.126 155.456 490.001 154.412 483.832C154.033 481.649 154.033 479.561 154.602 477.663L151.85 474.437C148.623 476.145 145.491 478.043 142.454 480.321Z" fill="white"/>
<path d="M164.947 490.096L156.975 480.7C156.975 481.27 156.975 481.839 157.07 482.504C157.07 482.788 157.164 483.168 157.259 483.548C157.449 484.687 157.734 485.73 158.019 486.774C158.968 489.906 160.391 492.754 162.574 495.316C162.859 495.601 163.049 495.885 163.333 496.17C163.808 496.74 164.377 497.309 164.947 497.784C166.465 496.645 167.889 495.411 169.123 494.272L169.028 494.177C167.604 493.038 166.181 491.615 164.947 490.096Z" fill="white"/>
<path d="M165.896 469.501C163.714 469.976 161.626 470.451 159.728 471.115L169.883 491.804" fill="white"/>
<path d="M169.883 491.804L169.788 491.045C169.693 490.95 169.503 490.76 169.408 490.666L169.883 491.804Z" fill="white"/>
<path d="M173.963 468.647C171.78 468.742 169.598 468.932 167.604 469.217L171.591 491.52L173.963 468.647Z" fill="white"/>
<path d="M173.394 470.64C173.488 470.64 173.678 470.735 173.773 470.735L173.868 470.166L172.634 470.356C172.824 470.545 173.109 470.545 173.394 470.64Z" fill="white"/>
<path d="M180.796 468.742C179.088 468.647 177.38 468.552 175.766 468.552L173.773 488.483L180.796 468.742Z" fill="white"/>
<path d="M175.103 489.906C174.533 491.235 173.964 492.469 173.299 493.418C174.818 494.082 176.621 494.746 178.424 495.221C178.709 494.651 178.994 494.177 179.183 493.607C181.177 488.862 181.651 484.117 180.702 479.182C180.607 478.802 180.607 478.517 180.512 478.138C180.322 477.473 180.133 476.904 179.943 476.429L175.482 489.052C175.387 489.147 175.292 489.432 175.103 489.906Z" fill="white"/>
<path d="M193.609 471.21C189.908 470.071 186.206 469.406 182.6 468.932L181.176 472.918C182.315 474.531 183.074 476.524 183.454 478.707C184.593 484.876 183.834 490.571 181.176 495.98C184.688 496.834 188.199 497.214 190.572 497.024C188.864 489.242 189.908 480.605 193.609 471.21Z" fill="white"/>
<path d="M175.197 474.152L173.773 488.482L177.095 479.182C176.905 477.189 176.336 475.48 175.197 474.152Z" fill="white"/>
<path d="M175.197 489.716C174.153 492.279 172.825 494.462 171.591 495.79C166.845 500.631 159.063 505.376 154.318 506.515C157.734 506.515 161.531 508.033 165.422 510.026C166.276 509.362 167.035 508.698 167.795 508.033C173.489 503.098 177.19 498.353 179.183 493.607C181.176 488.862 181.651 484.117 180.702 479.182C180.607 478.802 180.607 478.517 180.512 478.138C180.322 477.473 180.132 476.904 179.943 476.429L175.482 489.052C175.387 489.052 175.292 489.337 175.197 489.716Z" fill="white"/>
</g>
<defs>
<clipPath id="clip0">
<rect width="259.094" height="790" fill="white"/>
</clipPath>
</defs>
</svg>
