<?xml version="1.0" encoding="utf-8"?>
<!-- Generator: Adobe Illustrator 22.0.1, SVG Export Plug-In . SVG Version: 6.00 Build 0)  -->
<svg version="1.1" id="Layer_1" xmlns="http://www.w3.org/2000/svg" xmlns:xlink="http://www.w3.org/1999/xlink" x="0px" y="0px"
	 viewBox="0 0 213.6 213.6" style="enable-background:new 0 0 213.6 213.6;" xml:space="preserve">
<style type="text/css">
	.st0{clip-path:url(#SVGID_2_);}
	.st1{fill:#A0695F;}
	.st2{fill:#B2776B;}
	.st3{fill:#BC7F6C;}
	.st4{fill:#680100;}
	.st5{stroke:#680100;stroke-width:1.5045;stroke-linecap:round;stroke-linejoin:round;stroke-miterlimit:10;}
	.st6{fill:none;stroke:#680100;stroke-width:1.5045;stroke-linecap:round;stroke-linejoin:round;stroke-miterlimit:10;}
	.st7{fill:#EA4918;}
	.st8{fill:#F7931E;}
	.st9{fill:#CE8936;}
	.st10{fill:#EAD453;stroke:#E2A12E;stroke-width:1.1964;stroke-miterlimit:10;}
	.st11{fill:#F15A24;}
	.st12{fill:#FFFFFF;}
	.st13{fill:#C18372;}
	.st14{fill:none;stroke:#D67822;stroke-width:1.7553;stroke-linecap:round;stroke-linejoin:round;stroke-miterlimit:10;}
	.st15{fill:#EFD2AF;}
	.st16{fill:#FF931E;}
	.st17{fill:#F4C484;}
	.st18{fill:none;stroke:#EDEDED;stroke-width:2.4134;stroke-miterlimit:10;}
</style>
<g>
	<g>
		<defs>
			<circle id="SVGID_1_" cx="106.8" cy="106.8" r="105.6"/>
		</defs>
		<clipPath id="SVGID_2_">
			<use xlink:href="#SVGID_1_"  style="overflow:visible;"/>
		</clipPath>
		<g class="st0">
			<g>
				<path class="st1" d="M86.9,100.1c0,0-0.7,11.6-1.6,13.5c-2.5,4.8-18.1,5.5-18.1,5.5S77.4,138.3,92,143
					c14.6,4.7,35.2,3.3,45.4-3.9c10.2-7.2,18.8-18.3,18.8-18.3s-10.3-0.5-14.4-3.9c-4.1-3.4-7.4-20.3-7.4-20.3L86.9,100.1z"/>
				<path class="st2" d="M141.8,116.8c-1-0.8-2.9-4.7-3.7-6.7c-2.9,3.9-12.7,18.3-21.3,20.6c-12,3.3-35.1-2.6-46.7-7.5
					c4.3,6,12.8,16.8,21.9,19.7c14.6,4.7,35.2,3.3,45.4-3.9c10.2-7.2,18.8-18.3,18.8-18.3S145.8,120.2,141.8,116.8z"/>
				<path class="st2" d="M78.6,66c0,0-2-22.8-0.7-26c1.3-3.2,21.4-20.3,24.6-21.4s10.5-2,19.9,4.1s14.6,12.9,14.8,13.6
					c0.1,0.7,1.8,7.2,2.3,11.4c0.6,4.2,0.3,14.8,0.3,14.8s8.8-6,10.4-5.6c2.9,0.7,2.2,7.3,2,9.1c-0.2,2-1.5,9.5-4.1,11.8
					c-2.6,2.3-8,3.5-8,3.5s0.6,8.8-1.3,12.3c-1.9,3.5-20.5,18.7-25.3,18.9s-29.3-11.8-30.9-15.2c-1.6-3.4-1.9-8.9-1.9-8.9
					s-3.1,1-5.9-0.7c-2.8-1.8-6.1-8.9-6.9-12.4c-0.7-3.5-2.3-8.6-0.3-10.2C69.7,63.3,78.6,66,78.6,66z"/>
				<path class="st3" d="M113.7,107.3c8.7-1.2,17.4-12.5,21.3-18.9c4-6.5,3.5-13.4,3.7-18.1c0.1-5-2.2-21.4-3.1-24.2
					s-7-14-16.7-16.2c-9.7-2.2-22.2,2-30.1,7.8S79,65.7,79,65.7s-8.9-2.6-11-1c-2,1.6-0.4,6.7,0.3,10.2c0.7,3.5,4.1,10.7,6.9,12.4
					c2.8,1.8,5.9,0.7,5.9,0.7s0.3,5.6,1.9,8.9c0.6,1.2,4.1,3.5,8.5,5.9C96.9,104.7,106.1,108.3,113.7,107.3z"/>
				<path class="st4" d="M87.4,45.2l0.1,5.1c0,0,4.7-2.3,7.3-3.1c2.6-0.7,8-2,8-2s1.2-5.1-0.9-5.9C100.8,38.9,90.6,41.7,87.4,45.2z"
					/>
				<path class="st4" d="M131.4,43l0.7,5.1c0,0-5-1.5-7.7-1.8c-2.7-0.3-8.3-0.7-8.3-0.7s-2-4.9-0.1-5.9
					C117.1,39,127.6,40.1,131.4,43z"/>
				<circle class="st5" cx="97.3" cy="57.3" r="3.5"/>
				<path class="st5" d="M91.6,55.1c0,0,3.7-1.4,5.4-1.3"/>
				<circle class="st5" cx="121.3" cy="56.9" r="3.5"/>
				<path class="st5" d="M127,54.6c0,0-3.7-1.4-5.4-1.3"/>
				<path class="st6" d="M108.3,58.7c0,0-0.8,5.1-1.6,6.7c-1,1.9-4.1,3.7-3.9,6c0.1,2.9,3.4,5.2,8.1,5.3c4.7,0.1,7.9-2.7,7.9-2.7"/>
				<path class="st6" d="M103.8,83.7c0,0,1.6,4.1,6.3,3.9c4.6-0.1,5.8-3.9,5.8-3.9"/>
				<path class="st6" d="M75.6,71c0,0-3.4-1.3-4.1,1.2c-0.7,2.5,2.6,7.6,3.7,8.8"/>
				<path class="st6" d="M143.8,65.1c0,0,2.6-2.6,4.1-1.6c2.1,1.3-0.2,7.5-3.6,10.4"/>
				<path class="st7" d="M78.6,64c0,0,2-20.1,3.2-22.3c1.2-2.2,17.1-17.7,24.8-18.1c7.7-0.4,26.8,9.7,28.1,12.8
					c1.3,3.2,4.8,21.5,4.8,21.5s1.4-13.3,1.3-20.8c-0.1-7.6-1.1-18.3-1.1-18.3s-0.2-4.4-2.2-4.7s-4.2,2.5-4.2,2.5s-0.5-6.5-3.2-7.1
					s-4.2,1.8-4.2,1.8s-0.5-4.7-3.2-5.3c-2.6-0.5-5.5,3-5.5,3s-1.9-5.3-4.6-5.4c-2.7-0.1-6.1,2.7-7.4,4.4c0,0-2.9-3.5-6.3-3.2
					c-3.4,0.3-5.5,6.6-5.5,6.6S89.6,7.7,86.5,9s-1.9,5.9-1.9,5.9s-3.3-3.2-6.1-1.8s-1.3,6.4-1.3,6.4s-5.5-1.3-7.4,0.2
					c-1.9,1.5,3.9,6.9,3.9,6.9s0.5,9.7,1.5,18.3C76.3,53.6,78.6,64,78.6,64z"/>
				<path class="st8" d="M69.4,316.2c0,0-0.9,40.1-1,46.4c-0.1,6.3-1.8,34.2-2.2,49.1c-0.4,14.9-3.8,27.5-3.9,28.4
					c-0.1,0.9-6.4,0.7-6.4,4.4c0,3.7,2.8,6.3,2.8,8.5c0,2.2-3.5,4.1-3.9,5.9c-0.4,1.8-0.1,6.7-0.1,6.7s10.2,0.6,14.9,0.7
					s7.8,3.8,10.8,3.2s2-5.9,1.6-7.9c-0.4-2,0.4-7.5,2.2-8c1.8-0.6,4.2-4.7,4.2-4.7s12-23.4,14.9-34.7s4.1-27.4-1.6-37.6
					c0,0,14.8-42.7,14.8-56.8c0,0,4.7,44.9,5,52.5c0.1,5-8,26.9-6.3,37.9s12.9,34.4,13.2,36.4c0.3,2-5.3,6.4-5,8.2
					c0.3,1.8,4.2,3.8,4.4,4.8c0.1,1-4.5,2.3-4.4,4.4c0.1,2,4.2,5.6,5.9,6.4c1.6,0.9,6.1,0,7.2,0.7c1,0.7,5.4,1,7.9,0.3
					s9.2-2.8,9.5-4.8c0.3-2-2.2-4.7-3.1-6c-0.9-1.3,2-2.6,2.2-3.7c0.1-1-2.2-2.9-2.8-4.7c-0.6-1.8-0.4-2.6,0.1-3.9
					c0.6-1.3-0.4-1.5-0.7-3.2c-0.3-1.8,2.3-36.4,3.1-42.7c0.7-6.3,5.6-20.8,6-23.1c0.4-2.3,1.8-25,0.9-38.9
					c-0.9-13.9-2.5-27.4-2.5-27.4l-19.9-7.6l-60.6,4.5L69.4,316.2z"/>
				<path class="st9" d="M58.2,321.6c0,0,0.4,3.1,6.4,4.1c6,1,6.1,0.1,6.1,0.1l0.3-11.7l-9.2,2.5L58.2,321.6z"/>
				<path class="st9" d="M157.3,312.6c0,0.7,0,10.2,0,10.2s5.7-0.3,6.7-3.2C165,316.7,157.3,312.6,157.3,312.6z"/>
				<path class="st10" d="M69.4,125.7c0,0-14.2,15.7-17,26c-2.9,10.3-1.4,30.2,5.4,52.1s0.4,117.8,0.4,117.8s4.5-3.7,15.6-7.2
					c11.6-3.7,46.5-7.3,69.8-3.7c18.9,2.9,20.6,8.3,20.6,8.3s-0.2-97.9,0.9-109.9c1.1-12.1,5.3-32.5,3.7-47
					c-1.5-14.5-10.3-28.1-15.8-33.1c0,0-18.6,18.2-38.2,17.3C95.3,145.4,79.5,136.2,69.4,125.7z"/>
				<path class="st8" d="M49.4,185.4c0,0-14,1.1-22.2,5.5c-8.1,4.4-17.9,14-17.9,14S6,184.7,6.2,169.6c0.2-15.1,5.9-23.4,11.4-29
					c5.7-5.7,15.1-10.1,24.1-14s22.8-6.8,22.8-6.8l4.8,5.9c0,0-15.8,18-17.1,28.7c-1.3,10.8,0.4,28.5,0.4,28.5L49.4,185.4z"/>
				<path class="st8" d="M153,129l6.4-8.3c0,0,23.3,3.3,32.5,5.9c9.2,2.6,17.8,10.1,20.4,14.9c2.6,4.8,5.3,12.9,5.7,24.1
					c0.4,11.2-0.2,29.3-0.2,29.3s-10.4-12-23.7-14.2c-13.1-2.2-25.9,4.4-25.9,4.4s2.2-21.3-1.5-30.9
					C162.8,144.6,162.2,140.2,153,129z"/>
				<path class="st11" d="M61.6,119.7l9.3-1.9c0,0,4.8,10.3,16.1,16.5c11.2,6,29.4,12.7,49.8,1.6c11-5.9,16.9-15.9,16.9-15.9
					l8.8,0.3c0,0-7.1,10.2-15,16.3s-15.6,11.8-32.3,12.3s-29.9-5.9-39.2-12.5S63.6,123.2,61.6,119.7z"/>
				<g>
					<g>
						<path class="st12" d="M78.9,182.6c5.4-3.2,9-6.5,11.4-10C87.9,176.1,84.2,179.4,78.9,182.6z"/>
						<path class="st12" d="M90,153.6c0.3,0.2,0.6,0.4,0.9,0.7C90.6,154.1,90.3,153.8,90,153.6z"/>
						<polygon class="st12" points="68.1,179.4 68.1,179.4 68.1,179.4 						"/>
						<path class="st12" d="M76.6,183.9C76.6,183.9,76.6,183.9,76.6,183.9c0.8-0.4,1.5-0.8,2.2-1.3C78.2,183,77.4,183.4,76.6,183.9
							C76.6,183.9,76.6,183.9,76.6,183.9z"/>
						<path class="st12" d="M91.3,154.7c0.3,0.3,0.5,0.6,0.7,0.9C91.8,155.3,91.6,155,91.3,154.7z"/>
					</g>
					<g>
						<path class="st12" d="M77.9,164.8c-0.1-0.3-0.3-0.7-0.4-1.1C77.6,164.1,77.7,164.5,77.9,164.8z"/>
						<path class="st12" d="M77.2,163c-0.1-0.3-0.1-0.5-0.2-0.8C77.1,162.5,77.2,162.8,77.2,163z"/>
						<path class="st12" d="M78.2,165.7c-0.1-0.2-0.2-0.4-0.3-0.7C78,165.3,78.1,165.5,78.2,165.7z"/>
						<path class="st12" d="M97.7,179.8c0.5-0.2,1.1-0.3,1.6-0.4c0,0,0,0,0,0C98.8,179.5,98.3,179.6,97.7,179.8z"/>
						<path class="st12" d="M79.9,175.9c1.4,1.5,3.1,2.9,5,4.3C82.9,178.8,81.3,177.4,79.9,175.9z"/>
						<path class="st12" d="M90.8,183.9C90.8,183.9,90.8,183.9,90.8,183.9c-2.2-1.2-4.1-2.4-5.9-3.6
							C86.6,181.5,88.6,182.7,90.8,183.9z"/>
						<path class="st12" d="M97.5,179.9c0.1,0,0.1,0,0.2-0.1C97.7,179.8,97.6,179.9,97.5,179.9z"/>
						<g>
							<path class="st12" d="M87.9,175.6c-0.3-0.1-0.5-0.3-0.8-0.4c-0.4-0.2-0.8-0.4-1.1-0.6c-0.8-0.5-1.5-0.9-2.2-1.4
								c-1.2,0.9-2.7,1.7-4.2,2.5c0.1,0.1,0.2,0.2,0.3,0.3c1.1,1.2,2.4,2.3,3.8,3.4C85.3,178.1,86.7,176.9,87.9,175.6z"/>
							<path class="st12" d="M97,179c-0.1,0-0.3-0.1-0.4-0.1c-0.8-0.2-1.6-0.4-2.4-0.7c-0.2-0.1-0.5-0.2-0.7-0.2
								c-1.1-0.4-2.3-0.8-3.4-1.3c-1.2,1.4-2.7,2.8-4.4,4.1c1.6,1.1,3.5,2.2,5.3,3.2c-0.1,0.1-0.2,0.2-0.3,0.3
								c2.7-2.2,5.6-3.8,8.6-4.9h0C98.6,179.3,97.8,179.2,97,179z"/>
							<path class="st12" d="M89.1,185.6c-2-1.1-3.8-2.2-5.4-3.4c-1.7,1.2-3.5,2.3-5.5,3.4l-0.1-0.1c1.9,1.8,3.6,4,5.6,6.7
								c1.8-2.8,3.8-5.1,5.9-7C89.4,185.4,89.3,185.5,89.1,185.6z"/>
							<path class="st12" d="M78.9,182.6c1-0.6,2-1.2,2.9-1.8c-1.7-1.3-3.1-2.7-4.4-4.1c-3.4,1.5-6.9,2.6-9.3,2.7h0
								c3.5,1.2,6.1,2.7,8.4,4.7l-0.1-0.1C77.2,183.6,78.2,183,78.9,182.6z"/>
						</g>
						<path class="st12" d="M97.5,179.9"/>
					</g>
					<g>
						<path class="st12" d="M80.8,167.6l-4.6-16c-1.5,0.3-2.8,0.6-4.1,0.9L80.8,167.6z"/>
						<g>
							<path class="st12" d="M76.7,160.5l4.1,7.1l-3.3-11.5C76.8,157.4,76.6,158.9,76.7,160.5z"/>
							<path class="st12" d="M80.9,170.1c0,0-1.4-2-1.4-2l-0.3-0.5c0.8,1.5,1.7,2.8,2.7,3.8L80.9,170.1z"/>
							<path class="st12" d="M62.3,156.3c4,7.9,6.6,14.6,6.1,20.6c2-0.2,4.7-1.1,7.4-2.2c-3-4.1-4.4-8.6-4.4-13.7c0-1.9,0.4-3.5,1-5
								l-1.8-3.1C67.9,153.8,65.1,154.9,62.3,156.3z"/>
							<path class="st12" d="M79.2,167.5l-5.1-8.8c-0.1,0.5-0.2,0.9-0.2,1.5c0,0.3,0,0.6,0,0.8c0,0.9,0,1.8,0.2,2.7
								c0.3,2.7,1.1,5.2,2.5,7.6c0.2,0.3,0.3,0.5,0.5,0.8c0.3,0.5,0.7,1,1.1,1.6c1.4-0.7,2.8-1.5,3.9-2.3l-0.1-0.1
								C80.9,170.3,80,169,79.2,167.5z"/>
						</g>
					</g>
					<g>
						<path class="st12" d="M83,150.9c-1.9,0-3.6,0.2-5.2,0.4l5.2,18.3"/>
						<g>
							<path class="st12" d="M83,169.7l0-0.6c-0.1-0.1-0.2-0.2-0.3-0.4L83,169.7z"/>
							<path class="st12" d="M83,155.5"/>
						</g>
					</g>
					<g>
						<path class="st12" d="M89.7,151.4c-1.8-0.2-3.6-0.4-5.2-0.4l0,18.7L89.7,151.4z"/>
						<path class="st12" d="M88.9,153c0.1,0,0.2,0.1,0.3,0.2l0.1-0.4h-1C88.5,152.8,88.7,152.9,88.9,153z"/>
					</g>
					<g>
						<path class="st12" d="M95.2,152.5c-1.4-0.4-2.7-0.7-4-0.9l-4.5,15.9L95.2,152.5z"/>
						<g>
							<path class="st12" d="M87.5,168.8c-0.6,1-1.3,1.9-2,2.6c1.2,0.8,2.5,1.6,3.9,2.3c0.3-0.4,0.6-0.8,0.8-1.2
								c2.3-3.6,3.4-7.4,3.3-11.5c0-0.3,0-0.6,0-0.8c0-0.5-0.1-1-0.2-1.5l-5.5,9.6C87.8,168.3,87.7,168.5,87.5,168.8z"/>
							<path class="st12" d="M105.3,156.3c-2.9-1.4-5.8-2.6-8.6-3.4l-1.7,3c0.7,1.5,1,3.2,1,5.1c0,5.2-1.4,9.7-4.3,13.8
								c2.7,1.2,5.5,2,7.5,2.2C98.7,170.3,100.9,163.5,105.3,156.3z"/>
							<g>
								<path class="st12" d="M89.8,156.1l-3.2,11.4l4.1-7.1l0,0C90.8,158.8,90.6,157.3,89.8,156.1z"/>
								<path class="st12" d="M87.5,168.7c-1.2,1.9-2.6,3.5-3.8,4.4c-4.6,3.2-11.6,6-15.6,6.3c0,0,0,0,0,0c2.8,0.5,5.7,2.3,8.6,4.5
									c0,0,0,0,0,0c0.8-0.4,1.5-0.8,2.2-1.3c5.4-3.2,9-6.5,11.4-10c2.3-3.6,3.4-7.4,3.3-11.5c0-0.3,0-0.6,0-0.8
									c0-0.5-0.1-1-0.2-1.5l-5.5,9.6C87.9,168.3,87.7,168.5,87.5,168.7z"/>
							</g>
						</g>
					</g>
				</g>
				<path class="st1" d="M217.7,202.7c0,0,1.9,17.8-5.4,28.1c-7.3,10.2-19.2,16.4-44,11.6c-24.9-4.8-54-26-54-26l38.3-25.6l14.8,0.9
					c0,0,13.7-7.9,25-6.3C203.7,186.9,215.4,197.9,217.7,202.7z"/>
				<path class="st2" d="M217.7,202.7c-2.3-4.8-14-15.8-25.3-17.4c-11.3-1.6-25,6.3-25,6.3s-5.7,0.7-14.2,5.7
					c-5.8,3.4-20,18.4-25.2,27.5c10.4,6.6,23.5,14.3,40.2,17.6c24.9,4.8,36.7-1.3,44-11.6C219.6,220.6,217.7,202.7,217.7,202.7z"/>
				<path class="st2" d="M54,191.3c0,0,16.2,0.7,19.9,0.3c3.7-0.4,54.6-8.3,63-8.6c8.5-0.3,17.3-0.7,21.5,1.3s6.4,7.2,6.4,7.2
					l-12.4,0.4c-8.2,3.7-37,25-54.3,34.8S45.4,253,30.6,245.4s-19-35-19-35L24,195.4l17.3-5.6L54,191.3z"/>
				<path class="st11" d="M10.5,211.4l-1.8-6.9c0,0,9.9-10.3,18.4-14.5s25.3-6.1,25.3-6.1l1.5,7c0,0-15.1-0.4-23.5,4.4
					C21.8,200.1,10.5,211.4,10.5,211.4z"/>
				<path class="st11" d="M168,184.3c0,0,14.3-5.4,24.6-4.4c10.2,1,25.7,14.6,25.7,14.6l-0.6,8.2c0,0-11.3-13.6-24.7-14.5
					c-13.5-0.9-26.2,3.7-26.2,3.7L168,184.3z"/>
				<path class="st13" d="M39.6,188.8c-0.4,0.4-0.5,1.5,0.8,3.1c1.3,1.6,6.4,1.5,8.3,1.5c1.9,0,6.9,1.3,10.8,1.3s8.6-0.7,15.1-3.1
					c0,0-8-10.8-13.5-12.6c-5.4-1.8-24.3-3.2-25.2-1.9s-1.3,2.9-0.5,3.7c0.7,0.7,8.4,0,8.4,0l7.6,2.1l-13.5-0.2c0,0-1.1,1.3-0.9,2.6
					c0.8,1.4,2.2,1.7,2.5,2.3C39.7,188.1,39.6,188.8,39.6,188.8z"/>
				<line class="st14" x1="116.6" y1="319.3" x2="125.9" y2="314.2"/>
				<path class="st14" d="M91.8,312.6c0,0-0.3,19.6-2.6,23.4s-19.9,11.1-19.9,11.1"/>
				<path class="st14" d="M140.3,311.7c0,0-1.5,18.4,0.3,23.4s19,13.2,19,13.2"/>
				<path class="st15" d="M126.3,486.4c0,0-2,2.7-2.8,4.8c-0.8,2.2-0.5,6.2-0.5,6.2s1.7,3,4.3,2.9c2.6-0.1,7.5,1.8,8.9,2.9
					c1.5,1.2,8.9,0.9,11.8,1.2c2.9,0.3,16.6,7.5,21.1,9.2c6.3,2.3,16.9-0.4,19.3-1c4.8-1.3,7.6-6.3,7.6-6.3l-0.3-4.4
					c0,0-0.4,3.7-3.8,5.1c-3.4,1.5-8.2,2.8-12.3,3.1c-7.3,0.4-25.9-7.8-27.6-8s-9.4-7.5-14.5-10.1
					C132.4,489.3,126.3,486.4,126.3,486.4z"/>
				<polygon class="st3" points="79.5,468.3 78.4,473.9 60.3,475.1 53.6,467.9 55.3,462.6 				"/>
				<polygon class="st3" points="127.6,468.2 128.3,474.5 141.9,482.4 157.3,478.7 152,467.3 				"/>
				<path class="st16" d="M127.4,470.5c-1.5,2.4-2.6,6.3-2.5,9.7c0.1,3.4,1.5,6.4,1.5,6.4s11.7,5.3,14.9,7.8
					c3.2,2.5,5.9,5.3,8.6,6.7c2.8,1.3,18.1,7.8,24.9,9.1c3.2,0.6,11.3-0.3,16.4-2.5c2.3-1,4.5-3.1,4.5-4.4c0-1.3,0.4-4.7-2-6.6
					c-2.5-1.9-10.4-2.9-12.4-3.9c-2-1-18.1-15.8-18.6-18.9c-0.4-3.1-9.4-1.3-13.5-0.4c-4,0.8-13.6,3.2-16.8,1.6
					C130.5,474.1,128.3,469.1,127.4,470.5z"/>
				<path class="st11" d="M153.6,481.9c0,0-2.6-7.2-2.3-11.4s1.2-7.5,3.4-9.9c2.2-2.5,3.4-5.9,8.5-2.9c5.1,2.9,7.3,3.9,8,6.1
					c0.7,2.2-6.4,6.4-7,9.7s-0.7,6.1-0.7,6.1L153.6,481.9z"/>
				<path class="st11" d="M126.1,473.8c0,0,8.8,3.2,11,6.3c2.2,3.1,7.2,16.7,7.2,16.7s-10.4-7.2-13-7.9c-1.7-0.5-3.2-1.2-4.1-1.7
					c-0.5-0.3-0.8-0.5-0.8-0.5S123.2,478.7,126.1,473.8z"/>
				<path class="st16" d="M79,470.2c0,0,2.2,1.3,2.6,3.4c0.4,2,1.6,8.3,1,10.7c-0.6,2.3-1.8,2.9-1.8,2.9s-20,1.3-24.1,2.8
					c-4.1,1.5-11.9,6.4-23.8,7.2S12.2,495.8,9,492c-3.2-3.8-1.9-5.9-1.9-5.9s1.5-2.9,8.6-2.6c7.2,0.3,9.7-0.4,12.4-1.2
					c2.8-0.7,15.1-8.8,16.5-11.1c1.5-2.3,8.3-4.5,10.2-3.4c1.9,1.2,8.6,4.8,11.4,5c2.8,0.1,11-0.7,11.6-1.3
					C78.4,471,79,470.2,79,470.2z"/>
				<path class="st15" d="M6.9,486.9c0,0-1.7,1.6-1.8,4.3c0,1,2,6.1,7.2,8.6c4.9,2.3,12.7,3.4,20.9,2.2s18-3.8,20.6-3.1
					c2.6,0.7,6,2.2,9.5,2.5c3.5,0.3,9.2-3.4,12.3-3.4s8.8,1.3,11.3,1.5c2.5,0.1-1.8-12.9-4.8-12.9s-23.4,1.8-26,3.1
					s-15.5,8.3-28.2,7.2c-12.7-1.2-16-2.7-18.6-5.1C7.5,490,6.9,486.9,6.9,486.9z"/>
				<path class="st17" d="M54.5,465.6l-0.7-7.6c0,0,6.9-2.3,10.4-0.3c3.5,2,12.6,2.5,14.6,2.5s4.1,0.9,4.1,0.9s0.9,3.2,0,5.7
					c-0.9,2.5,0.7,3.4-2.2,3.5s-7.5-3.5-10.8-3.8C66.4,466.2,54.5,465.6,54.5,465.6z"/>
				<path class="st17" d="M122,463.4c0,0,1.5,5.7,1.6,6.3c0.1,0.6,1.5,0.6,6.1,1.2c4.7,0.6,5.6,0.9,9.7,1.2s4.2,0,7.9-0.9
					s5.6-2.6,6-3.1c0.4-0.4-0.6-6-0.7-6.7s-3.9,1.9-7.2,2.2c-3.2,0.3-12.3,2.9-14.8,1.2C128.2,462.9,122,463.4,122,463.4z"/>
				<path class="st11" d="M81.7,476.5c0,0-6.1-2.2-11.1,0.3c-5,2.5-7.3,4.5-9.4,6.7c-1.9,2-4.9,6.1-4.9,6.1
					c-0.1-0.8,25.7-3.8,25.8-3C82.1,486.6,84.6,479,81.7,476.5z"/>
				<path class="st11" d="M34.3,458.7c-1.6-2.4,6.7-6.6,10.4-6.7c3.7-0.1,7.6,3.5,8.6,7.9s4.7,11.7,4.7,11.7s-8.8-1.6-9.5-3.2
					c-0.7-1.6-3.4-3.8-6.9-5.6C38.1,461,35.3,460.2,34.3,458.7z"/>
				<path class="st17" d="M153,491.5l-2.3-2.2c0,0,4.5-5.6,11.7-7.9c7-2.3,8.2,0,8.2,0l1.9,2.3c0,0-6,0-9.5,1.8
					C159.5,487.2,154.9,489.8,153,491.5z"/>
				<path class="st17" d="M160.1,497.2l-2.3-2.2c0,0,4.5-5.6,11.7-7.9c7-2.3,8.2,0,8.2,0l1.9,2.3c0,0-6,0-9.5,1.8
					C166.5,492.9,162,495.6,160.1,497.2z"/>
				<path class="st17" d="M41.4,471.9c0,0,5.1-0.7,9.9,2.9s3.5,3.4,3.5,3.4l-3.7,3.4c0,0-1.2-3.7-5.9-5.1c-4.7-1.5-7.9-1.5-7.9-1.5
					L41.4,471.9z"/>
				<path class="st17" d="M32.1,477.9c0,0,5.1-0.7,9.9,2.9s3.5,3.4,3.5,3.4l-3.7,3.4c0,0-1.2-3.7-5.9-5.1s-7.9-1.5-7.9-1.5
					L32.1,477.9z"/>
				<circle class="st12" cx="95.8" cy="56.1" r="1.3"/>
				<circle class="st12" cx="120" cy="55.6" r="1.3"/>
			</g>
		</g>
	</g>
	<circle class="st18" cx="106.8" cy="106.8" r="105.6"/>
</g>
</svg>
