<?xml version="1.0" encoding="utf-8"?>
<!-- Generator: Adobe Illustrator 22.0.1, SVG Export Plug-In . SVG Version: 6.00 Build 0)  -->
<svg version="1.1" id="Layer_1" xmlns="http://www.w3.org/2000/svg" xmlns:xlink="http://www.w3.org/1999/xlink" x="0px" y="0px"
	 viewBox="0 0 194.7 194.7" style="enable-background:new 0 0 194.7 194.7;" xml:space="preserve">
<style type="text/css">
	.st0{fill:none;stroke:#EDEDED;stroke-width:2.2004;stroke-miterlimit:10;}
	.st1{clip-path:url(#SVGID_2_);}
	.st2{fill:none;stroke:#FFBA85;stroke-width:1.1002;stroke-miterlimit:10;}
	.st3{fill:#EF9D78;}
	.st4{fill:#D88D71;}
	.st5{fill:#707070;}
	.st6{fill:none;stroke:#666666;stroke-width:1.1002;stroke-linecap:round;stroke-linejoin:round;stroke-miterlimit:10;}
	.st7{fill:#E6E6E6;}
	.st8{fill:#B3B3B3;}
	.st9{fill:none;stroke:#999999;stroke-width:1.1002;stroke-linecap:round;stroke-linejoin:round;stroke-miterlimit:10;}
	.st10{fill:#999999;}
	.st11{fill:#4D4D4D;}
	.st12{fill:#CCCCCC;}
	.st13{fill:#FFBA85;}
	.st14{fill:none;stroke:#680100;stroke-width:1.1002;stroke-linecap:round;stroke-linejoin:round;stroke-miterlimit:10;}
	.st15{stroke:#680100;stroke-width:1.1002;stroke-linecap:round;stroke-linejoin:round;stroke-miterlimit:10;}
	.st16{fill:#FFFFFF;}
	.st17{fill:#693A1E;}
	.st18{fill:#935733;}
	.st19{fill:none;stroke:#E6E6E6;stroke-width:1.1002;stroke-linecap:round;stroke-linejoin:round;stroke-miterlimit:10;}
</style>
<g>
	<circle class="st0" cx="97.4" cy="97.4" r="96.3"/>
	<g>
		<defs>
			<circle id="SVGID_1_" cx="97.4" cy="97.4" r="96.3"/>
		</defs>
		<clipPath id="SVGID_2_">
			<use xlink:href="#SVGID_1_"  style="overflow:visible;"/>
		</clipPath>
		<g class="st1">
			<g>
				<path class="st2" d="M76.5,100.9"/>
				<path class="st3" d="M88.4,84.3c0,0,0.7,10.9-2.2,13.9c-2.9,2.9-10.6,3.7-10.6,3.7l3.3,16.2l24,6.7l17.5-13.3l-0.3-8.3
					c0,0-9.6-4-11.4-6.4c-1.9-2.5-3.3-14.1-3.3-14.1L88.4,84.3z"/>
				<path class="st4" d="M120.2,103.1c0,0-9.6-4-11.4-6.4c-1.9-2.5-3.3-14.1-3.3-14.1l-17.1,1.7c0,0,0.6,9.9-1.8,13.4
					c2.1,2.1,5.9,4.7,12.9,6.3c7.5,1.7,15.4,2.6,20.8,3L120.2,103.1z"/>
				<path class="st5" d="M128,212.7l4.1,11c0,0,3.7,35.3,3.9,46.4c0.2,11,0.8,38.3,1.4,42.4c0.6,4.2,6.9,57.8,6.9,59.2
					c0,1.5,3.3,3.7,3.7,5.2c0.4,1.5-0.6,3.7-0.4,5c0.2,1.2,1.8,1.7,2.4,3.1c0.6,1.5,0.6,3.9,0.6,3.9l-25.7,7.1c0,0-2.6-3.1-2.9-4.2
					c-0.2-1,0.4-3.9,0.4-5.2c0-1.2-3.5-2.3-3.5-2.9c0-0.6,0.4-4.8,0-6c-0.4-1.2-13.2-36.8-14.9-43.7c-2.5-10.3,0.8-23.9,2.4-30.1
					c1.6-6.2-6.1-45.5-6.1-45.5s-6.5,31.4-7.1,34.7c-0.6,3.3-3.7,8.9-3.7,10.2s2.4,15.4,1.4,21.2c-1,5.8-8.8,45.9-8.8,46.8
					c0,0.8-3.1,4.2-2.9,5.4c0.2,1.2,2,3.5,2,5c0,1.5-3.5,4.8-3.5,5.8c0,1,1.6,8.3,1.6,8.3l-22.8,1.7c0,0-5.3-7.9-5.3-8.9
					s3.1-3.9,3.1-5.4c0-1.5-2.6-2.9-2.6-3.9s2.9-5.4,2.9-5.4s2.2-31.4,2.2-34.5c0-3.1-0.4-19.3-0.2-22.2s4.5-19.1,4.5-21.2
					s-0.2-63.8,0-64.7c0.2-0.8,7.5-21,7.5-21L128,212.7z"/>
				<polyline class="st6" points="103.8,221.8 104.1,246 104.2,251.7 				"/>
				<polyline class="st6" points="111.5,219 111.8,241.5 104.1,246 				"/>
				<path class="st6" d="M121.4,216.2c0,0,1.2,9.4,1.4,13s10.7,12.9,10.7,12.9"/>
				<path class="st6" d="M102.6,256.3l7.6-2.8l-4.9,2.5l7.1,42.7c0,0,0.1,14.3-1.1,18.6c-1.2,4.3-1.4,11.5,1.1,20.4
					c2.4,8.9,11,37.6,11.4,38.3c0.4,0.7,1.5,2.6,1.2,3.9c-0.3,1.2,1.2,2.5,1.8,3.5c0.5,1,0.5,4.2,1,5.1c0.4,1,2.9,5.1,2.9,5.1"/>
				<path class="st7" d="M76.8,100.7l7,8.8l11.8,4.9l15.2-3.2l6.7-9.9l3.8,1.6l8.5,46.3c0,0-1.4,20.5-1.9,25.5
					c-0.5,5-1.4,11.1-0.8,14.1s3,4.4,3,6.7s-1.9,3.6-1.9,5.3c0,1.7,2.2,2.8,2.2,4.4c0,1.7,0,4.4-0.5,6.1c-0.5,1.7-17.7,10-23.9,10.8
					c-6.2,0.8-33.9-7.2-33.9-7.2s-7.3-7.8-5.4-11.9c1.9-4.2,2.4-1.9,2.4-3c0-1.1-2.2-3-1.1-5.3s-2.2-28.3-4.6-34.9l-2.7-13.3l-3,5.3
					l-22-18.3c0,0,12.5-24.4,14.9-27.2C52.9,103.4,76.8,100.7,76.8,100.7z"/>
				<path class="st8" d="M78.7,100.2c0,0,6.3,11.6,20.2,11.6S115,99.4,115,99.4l3.3,1.7c0,0-3.5,15-18.7,15
					c-17.5,0-24.8-15.8-24.8-15.8H78.7z"/>
				<polyline class="st9" points="68,134.1 64.9,139.3 60.6,146.7 64.9,139.3 74.5,139.7 				"/>
				<path class="st10" d="M121.3,394.4c0,0,11.4-1.7,15.7-3.5s13-6.4,13-6.4l1.2,7.9c0,0-6.7,3.7-12.2,5.6
					c-5.5,1.9-14.3,3.1-14.3,3.1L121.3,394.4z"/>
				<path class="st11" d="M127,400.9c0,0,12.4-8.7,19.6-10c7.1-1.2,11.4,1.7,11.4,1.7s-1,2.1-2.4,5.4c-1.4,3.3-3.3,6.4-3.3,6.4
					s7.3,6.7,12,7.5c4.7,0.8,12.6-0.2,13.6,1.9c1,2.1,2.4,5.2,1.8,10c0,0-24.6-0.5-28.9-0.1c-4.3,0.4-23-0.9-23.8-1.4
					c-0.8-0.4-1.2-5.2-0.4-6.9c0.8-1.7,4.5-6.9,4.5-8.1S127,400.9,127,400.9z"/>
				<path class="st12" d="M52.9,426.8v9.4c0,0,7.3,3.7,14.7,3.7s13.8-2.7,13.8-2.7v-8.9c0,0-7.9,2.5-14.1,2.3
					C61.2,430.4,52.9,426.8,52.9,426.8z"/>
				<polygon class="st12" points="127,422.3 127,429.1 180,429.1 179.8,423.7 				"/>
				<path class="st13" d="M53.3,154.3c0,0-11,21.6-11,22.5s24.8,26.2,26.3,27c1.4,0.8,6.1,3.3,7.1,5.2c1,1.9-3.5,21.4-4.5,22.7
					c-1,1.2-11.8-2.3-13.6-3.7c-0.8-0.6-2.4-5-0.2-6.2c2.2-1.2,4.9,0.8,5.5,0.2s3.9-7.7,3.9-8.9c0-1.2-18.3-7.7-25.9-12.3
					c-7.5-4.6-22.6-14.5-22.8-20.4c-0.2-5.2,17.5-45.1,17.5-45.1l18.5,16.4L53.3,154.3z"/>
				<path class="st13" d="M60.5,47c0,0,3.3,10.2,3.5,12.1s-5.5,5-4.5,9.3c1,4.3,5.2,6.3,10.5,6.5c0,0,6.9,9.9,16.1,12
					c10,2.3,21.5-0.5,28.1-8.1c7-8.1,6-19.8,6-19.8s3.6-1.5,3.3-5.9c-0.3-4.4-3.7-6.5-3.7-6.5l-3.9-15.3l-20.5-11L73.3,26l-13,10.3
					L60.5,47z"/>
				<path class="st13" d="M151.2,157.5c-1.2-12.4-20.9-60.2-20.9-62.2c0-2.1-1.1-9.1-1.2-10.3c-0.1-1.2,1-11.4-0.9-11.6
					c-1.9-0.2-3.2,7-5.2,7.8s-20.1-4.7-20.7-2.7c-0.6,1.9,8.7,5.4,9.1,7c0.4,1.6-0.3,7.8,0.2,9s9,2.2,9,2.2s3.8,53.5,5.1,59.4
					c2.2,10.4,14.3,21.2,18.4,21.3C149.9,177.7,151.2,157.5,151.2,157.5z"/>
				<path class="st8" d="M34.7,132.5c8.8,5.2,16.5,11.6,22.7,19.2l-2.2,3.9c-6.7-8.1-14.1-14.4-22.4-19.1L34.7,132.5z"/>
				<path class="st10" d="M51.7,400.4l0.4-7.8c0,0,6.8,2.9,14,2.9c7.2,0,15.3-1.3,15.3-1.3l-1.2,8.2c0,0-8.2,0.6-15.4,0.6
					S51.7,400.4,51.7,400.4z"/>
				<path class="st11" d="M57.8,413.5l-7.1-11.6c0,0,6.7-2.1,15.1-2.1s15.1,4.2,15.1,4.2l-5.3,10l5.9,14.3c0,0-6.9,2.1-12.6,2.3
					c-5.7,0.2-15.9-3.7-15.9-3.7L57.8,413.5z"/>
				<path class="st14" d="M78.2,56.3c0,0,2-1.4,5.1-2.1c3.1-0.7,4.1,0.1,4.1,0.1"/>
				<ellipse class="st15" cx="85.5" cy="57.1" rx="3.2" ry="3.2"/>
				<ellipse class="st16" cx="86.5" cy="55.1" rx="1.2" ry="1.2"/>
				<path class="st14" d="M104.9,48.2c0,0,0.6-0.8,3.5-1.5c2.9-0.7,3.8,0.1,3.8,0.1"/>
				<ellipse class="st15" cx="110.4" cy="49.4" rx="2.9" ry="3"/>
				<ellipse class="st16" cx="111.3" cy="47.6" rx="1.1" ry="1.1"/>
				<path class="st17" d="M74.5,49.4l2.5,3c0,0,3.1-2.1,4.5-3.1c1.9-1.2,5.6-2.3,5.6-2.3l-0.7-4.5c0,0-4.9,1.3-7.4,2.9
					C77.5,46.3,74.5,49.4,74.5,49.4z"/>
				<path class="st17" d="M103.1,43.6c0,0,5.3-1,7.6-0.2l1.1-4.1l-9.9-0.1L103.1,43.6z"/>
				<path class="st14" d="M97.5,51.1c0,0,1.4,4.7,3,6.1s5.4,1.5,5.5,1.8c0.8,1.9-1.8,4.3-3.6,5.4"/>
				<path class="st14" d="M101.7,73.4c0,0,4.3-0.6,6.1-2.7c1.4-1.7,1-2.5,1-2.5"/>
				<path class="st3" d="M120.2,59c0,0,3.6-1.5,3.3-5.9c-0.3-4.4-3.7-6.5-3.7-6.5l-3.9-15.3l-20.5-11L73.3,26l-13,10.3L60.5,47
					c0,0,3.3,10.2,3.5,12.1c0.2,1.9-5.5,5-4.5,9.3c1,4.3,5.2,6.3,10.5,6.5c0,0,6.9,9.9,16.1,12c5.2,1.2,10.7,1,15.8-0.5
					c0.6-0.1,1.4-0.5,1.4-0.5s-18.1,1.7-26.1-7.2c-6-6.6-8.5-17.2-9.2-23.5c-0.7-6.3,2.8-15.7,5.6-18.2c2.7-2.5,17.3-6.4,17.3-6.4
					l23.4,5.5c0,0,4.6,8.9,5,11.9C119.6,51.1,120.2,59,120.2,59z"/>
				<path class="st18" d="M65.2,59.5c0,0-0.3-8.2,0.7-14.5c1-6.2,3.3-11.3,3.3-11.3s1.9,3.6,4,5.5c2.1,1.9,7,2.7,7,2.7
					s-3.7-5-3.9-6.5c-0.2-1.5-0.2-5.3,0.9-5.8c1.1-0.5,5.6,9,15.4,10.9s20.7-1.7,20.7-1.7s-6.6-1.8-9.1-4.4
					c-2.5-2.6-4.2-5.9-4.2-5.9s8.3,7.7,15.2,6.6c6.8-1.1,8.9-2.9,8.9-2.9s-4.7-3.1-6.9-6.3c-1.3-1.8-7.7-13.7-17-15.4
					s-19.4,0.8-23.2,3.9s-4.7,3.6-4.7,3.6s-1.8-2.7-2-4.6c-0.3-2.5,3.1-6.1,3.1-6.1s-6.2,3.2-7.4,6.8s-0.1,6.5-0.1,6.5
					s-5.8-1.7-9.8-0.1c-4,1.6-4.7,6.8-4.7,6.8s3.2-3.4,6.2-3.4s4.5,1.8,4.5,1.8s-6.3,4.2-7,8.4s-0.1,9.8,1.6,12.9
					C58.4,50.3,65.2,59.5,65.2,59.5z"/>
				<path class="st3" d="M115.9,80.1c-0.1,0-13.1-3.2-13.6-1.7c-0.6,1.9,8.7,5.4,9.1,7c0.4,1.6-0.3,7.8,0.2,9
					c0.4,0.8,2.6,1.3,5.2,1.7C115.1,94.1,109.1,82.8,115.9,80.1z"/>
				<line class="st6" x1="100" y1="254.8" x2="115.9" y2="245.8"/>
				<polyline class="st6" points="76.9,217.1 76,235.5 61.7,258.1 				"/>
				<path class="st6" d="M126.5,324.3c0,0,6.4-0.3,7.9-1.2c1.5-1,2.4-1.9,2.4-1.9"/>
				<path class="st6" d="M66.7,322.3c0.4,0.1,5.3,2.5,7.7,2.5c2.4,0,7.5-1.5,7.5-1.5"/>
				<path class="st6" d="M67.4,327.1c1.6,1.3,3.9,2.4,7.3,2.2c2.5-0.1,5.2-1.1,5.2-1.1"/>
				<path class="st19" d="M61.2,415.3c0,0,2.1-2.3,4.7-2.1c2.5,0.2,6.3,2.7,6.3,2.7"/>
				<path class="st19" d="M61.4,419.4c0,0,1.7-2.3,4.1-2.3c2.3,0,5.5,2,5.5,2"/>
				<path class="st19" d="M61.8,423.2c0,0,1.6-1.9,4.5-1.8c2.9,0.1,4.7,1.7,4.7,1.7"/>
				<path class="st19" d="M150.3,414.6c0,0,1.1-3.9,2.6-5c1.5-1,4.4-1,4.4-1"/>
				<path class="st19" d="M156,415.2c0,0,1-2.5,1.8-3.2c1.6-1.6,3.5-1.2,3.5-1.2"/>
				<path class="st19" d="M162.2,415.5c0,0,1.2-3,3.6-3.5"/>
				<path class="st9" d="M89.8,145.8c0,0-4.3-15.5,7.3-16.1s15.6,6.2,15.8,10.8c0.3,10-10.3,12.3-11.4,18c-1.2,6,0.5,7.8,0.5,7.8"/>
				<path class="st9" d="M102.4,173.4c-0.5,2.5,0.1,4.1,0.1,4.1"/>
			</g>
		</g>
	</g>
</g>
</svg>
