<?xml version="1.0" encoding="utf-8"?>
<!-- Generator: Adobe Illustrator 22.0.1, SVG Export Plug-In . SVG Version: 6.00 Build 0)  -->
<svg version="1.1" id="Layer_1" xmlns="http://www.w3.org/2000/svg" xmlns:xlink="http://www.w3.org/1999/xlink" x="0px" y="0px"
	 viewBox="0 0 212.4 212.4" style="enable-background:new 0 0 212.4 212.4;" xml:space="preserve">
<style type="text/css">
	.st0{clip-path:url(#SVGID_2_);}
	.st1{fill:none;stroke:#CCCCCC;stroke-width:1.9465;stroke-linecap:round;stroke-linejoin:round;stroke-miterlimit:10;}
	.st2{fill:#D88D71;}
	.st3{fill:#EF9D78;}
	.st4{fill:#FFBA85;}
	.st5{fill:none;stroke:#680100;stroke-width:1.9465;stroke-linecap:round;stroke-linejoin:round;stroke-miterlimit:10;}
	.st6{stroke:#680100;stroke-width:1.9465;stroke-linecap:round;stroke-linejoin:round;stroke-miterlimit:10;}
	.st7{fill:#FFFFFF;}
	.st8{fill:#0084E0;}
	.st9{fill:none;stroke:#D88D71;stroke-width:1.9465;stroke-linecap:round;stroke-linejoin:round;stroke-miterlimit:10;}
	.st10{fill:#2E3192;}
	.st11{fill:#434BAA;}
	.st12{fill:#A6CFE8;}
	.st13{fill:#29ABE2;}
	.st14{fill:none;stroke:#0084E0;stroke-width:1.9465;stroke-linecap:round;stroke-linejoin:round;stroke-miterlimit:10;}
	.st15{fill:#2E86B7;}
	.st16{fill:none;stroke:#256C84;stroke-width:1.9465;stroke-linecap:round;stroke-linejoin:round;stroke-miterlimit:10;}
	.st17{fill:#A1CFE2;stroke:#8EB1BC;stroke-width:1.1896;stroke-miterlimit:10;}
	.st18{fill:#7794A0;}
	.st19{fill:#256C84;}
	.st20{fill:none;stroke:#8EB1BC;stroke-width:1.9465;stroke-linecap:round;stroke-linejoin:round;stroke-miterlimit:10;}
	.st21{fill:none;stroke:#EDEDED;stroke-width:2.4134;stroke-miterlimit:10;}
</style>
<g>
	<g>
		<defs>
			<circle id="SVGID_1_" cx="106.2" cy="106.2" r="105"/>
		</defs>
		<clipPath id="SVGID_2_">
			<use xlink:href="#SVGID_1_"  style="overflow:visible;"/>
		</clipPath>
		<g class="st0">
			<g>
				<path class="st1" d="M173.8,118.2c5.4-3,8.6-2.7,8.6-2.7"/>
				<path class="st1" d="M167.5,117.2c0,0,2.4-5.9,2.2-8.8"/>
				<path class="st1" d="M161.8,118.7c-4.4-3.7-7.8-3.5-7.8-3.5"/>
				<path class="st2" d="M110.9,106.9c0,0-1.2,4.2,0,7.5c1.2,3.4,6.1,6.6,6.1,6.6l0.4,11.9c0,0-19.2,8.1-29.5,4.3
					c-10.4-3.7-10-23.9-10-23.9s5.8-0.8,8-3.6c2.2-2.9,3.6-6.8,3.6-6.8L110.9,106.9z"/>
				<path class="st3" d="M85.4,110.3c0.6,2.8,2.7,7.1,9.3,11.1c5.9,3.5,15.1,5.3,22.6,6.2l0.2,5.3c0,0-19.2,8.1-29.5,4.3
					c-10.4-3.7-10-23.9-10-23.9S82.9,112.7,85.4,110.3z"/>
				<path class="st3" d="M127.1,103.1c-9,6.2-19.1,7.7-30.4,4.9S76,90.8,76,90.8L104.4,33l21.7,1l17.5,41
					C143.7,75,134.4,98,127.1,103.1z"/>
				<g>
					<path class="st4" d="M102.9,108.4c-7.3-1.9-13.2-7.4-15.1-12.5C84.7,87.4,85,81,87.7,74.7c2.7-6.3,9-14.6,20.7-19.3
						s21.8,0.3,21.8,0.3l2.5-2.9l9.9,23.1c0,0-9.3,23.1-16.6,28.1c-2.2,1.5-4.4,2.7-6.7,3.6C115,108.6,107.4,109.6,102.9,108.4z"/>
				</g>
				<path class="st5" d="M136.2,70.4c0,0-2.8-1.9-4.1-2.1s-4.4,0.3-4.4,0.3"/>
				<path class="st5" d="M111.9,62.6c0,0-4.7-2.2-8.4-1"/>
				<path class="st5" d="M117.6,70.4c0,0-1.5,5.5-0.9,8.7c0.6,3.2,2.1,5.9,0.1,7.5s-6.1-0.7-6.1-0.7"/>
				<path class="st5" d="M116.6,95.4c0,0-2.3,2.6-6,1.6c-3.7-1-5.1-4-5.1-4"/>
				<ellipse class="st6" cx="129.1" cy="80.8" rx="3.5" ry="3.5"/>
				<path class="st6" d="M135.2,77.2c0,0-3.9-0.6-5.8,0.1"/>
				<ellipse class="st6" cx="103.4" cy="72.5" rx="3.5" ry="3.5"/>
				<ellipse class="st7" cx="130.8" cy="80" rx="1.5" ry="1.5"/>
				<ellipse class="st7" cx="102.5" cy="71" rx="1.5" ry="1.5"/>
				<path class="st6" d="M99.1,66.9c0,0,3.8,0.9,5.3,2.3"/>
				<path class="st8" d="M121.2,35.5c0,0,0.5,10.2,4.9,16.4c4.4,6.2,10.3,13.6,12.6,19.6s2.5,8.6,2.1,10
					c-0.4,1.4-6.4,14.3-10.8,18.6c-4.1,4-10.7,8-14.8,8.5c-4.1,0.5-4.8,0.8-4.8,0.8s-2.5,5.3,3,8.9s21.4,9.5,21.4,9.5
					S149,116,152.7,97.2c3.7-18.8,0.1-39.7-5.8-47.6c-6-7.9-8.1-8.4-13.4-11.3C128.2,35.5,121.2,35.5,121.2,35.5z"/>
				<path class="st8" d="M121.5,36.8c1.8,9.5-14.5,15.1-20.2,19.9C95.1,62,89.8,68,87.4,72.7c-4.2,8.1-9.5,20.8,1.8,31.1
					c0,0-1.5,4.9-4.5,6.9c-3,2-31.7,16.1-31.7,16.1l8.7,80.9c0,0-16.8-2.4-24.3-21.1s-9-45.3,0.5-74.5c9.5-29.2,53-78.3,53-78.3
					L121.5,36.8z"/>
				<path class="st9" d="M152.6,63.4"/>
				<path class="st10" d="M111.2,20.9c0,0-14.1-10.8-21.2-11.9S61.2,21.8,58.6,24.9c-2.6,3.1-6.1,24.1-6.1,24.1L111.2,20.9z"/>
				<path class="st11" d="M152.4,63.7c0,0-4.8-17-20.3-23.6s-40.2-1.7-56.2,14.6S51.3,86.5,51.3,86.5S25,68.6,57.2,40.9
					s75.5-27.6,93.4-10.9S158.4,61.6,152.4,63.7z"/>
				<path class="st12" d="M132.6,190.7l-7.3-40.2l-9.7-17.2c0,0-16.9,6.8-25.1,4.6c-8.3-2.2-11-9.6-11-9.6l-2.8,16.2l-3.9,55.8
					c0,0,22.2,2,36.6-0.3C123.8,197.8,132.6,190.7,132.6,190.7z"/>
				<g>
					<g>
						<path class="st7" d="M107.7,171.8c-4.7-2.8-8-5.7-10.1-8.8C99.7,166.1,102.9,169,107.7,171.8z"/>
						<path class="st7" d="M97.8,146.4c-0.3,0.2-0.5,0.4-0.8,0.6C97.3,146.8,97.5,146.6,97.8,146.4z"/>
						<polygon class="st7" points="117.2,169 117.2,169 117.2,169 						"/>
						<path class="st7" d="M109.6,172.9C109.6,172.9,109.6,172.9,109.6,172.9c-0.7-0.4-1.3-0.7-2-1.1
							C108.3,172.2,109,172.6,109.6,172.9C109.6,172.9,109.6,172.9,109.6,172.9z"/>
						<path class="st7" d="M96.7,147.4c-0.2,0.2-0.5,0.5-0.7,0.8C96.2,147.9,96.4,147.6,96.7,147.4z"/>
					</g>
					<g>
						<path class="st7" d="M108.6,156.3c0.1-0.3,0.2-0.6,0.3-0.9C108.8,155.7,108.7,156,108.6,156.3z"/>
						<path class="st7" d="M109.1,154.7c0.1-0.2,0.1-0.5,0.2-0.7C109.2,154.2,109.2,154.4,109.1,154.7z"/>
						<path class="st7" d="M108.2,157c0.1-0.2,0.2-0.4,0.2-0.6C108.4,156.7,108.3,156.8,108.2,157z"/>
						<path class="st7" d="M91,169.4c-0.5-0.2-0.9-0.3-1.4-0.4h0C90,169.1,90.5,169.2,91,169.4z"/>
						<path class="st7" d="M106.8,166c-1.2,1.3-2.7,2.5-4.5,3.8C104.1,168.5,105.5,167.3,106.8,166z"/>
						<path class="st7" d="M97.1,172.9C97.1,172.9,97.1,172.9,97.1,172.9c1.9-1,3.7-2.1,5.2-3.2C100.8,170.8,99.1,171.9,97.1,172.9z
							"/>
						<path class="st7" d="M91.1,169.4c-0.1,0-0.1,0-0.2-0.1C91,169.4,91.1,169.4,91.1,169.4z"/>
						<g>
							<path class="st7" d="M99.7,165.7c0.2-0.1,0.5-0.2,0.7-0.4c0.3-0.2,0.7-0.4,1-0.6c0.7-0.4,1.4-0.8,2-1.2
								c1.1,0.8,2.4,1.5,3.7,2.2c-0.1,0.1-0.2,0.2-0.3,0.3c-1,1-2.1,2-3.4,3C102,167.9,100.8,166.8,99.7,165.7z"/>
							<path class="st7" d="M91.6,168.7c0.1,0,0.2-0.1,0.4-0.1c0.7-0.2,1.4-0.4,2.1-0.6c0.2-0.1,0.4-0.1,0.6-0.2c1-0.3,2-0.7,3-1.2
								c1.1,1.2,2.4,2.4,3.9,3.6c-1.4,0.9-3.1,1.9-4.7,2.8c0.1,0.1,0.2,0.2,0.3,0.2c-2.4-2-5-3.3-7.6-4.3h0
								C90.2,169,90.9,168.9,91.6,168.7z"/>
							<path class="st7" d="M98.6,174.5c1.8-1,3.3-2,4.8-3c1.5,1,3.1,2,4.9,3l0.1-0.1c-1.6,1.6-3.2,3.5-4.9,5.9
								c-1.6-2.5-3.4-4.5-5.2-6.2C98.3,174.3,98.5,174.4,98.6,174.5z"/>
							<path class="st7" d="M107.7,171.8c-0.9-0.5-1.7-1.1-2.5-1.6c1.5-1.2,2.8-2.4,3.9-3.6c3,1.3,6.1,2.3,8.2,2.4h0
								c-3.1,1.1-5.4,2.4-7.4,4.1l0.1-0.1C109.2,172.7,108.3,172.2,107.7,171.8z"/>
						</g>
						<path class="st7" d="M91.1,169.4"/>
					</g>
					<g>
						<path class="st7" d="M105.9,158.7l4-14.1c1.3,0.2,2.5,0.5,3.6,0.8L105.9,158.7z"/>
						<g>
							<path class="st7" d="M109.5,152.5l-3.6,6.2l2.9-10.1C109.5,149.7,109.7,151.1,109.5,152.5z"/>
							<path class="st7" d="M105.9,160.9c0,0,1.2-1.7,1.2-1.8l0.3-0.5c-0.7,1.3-1.5,2.4-2.4,3.3L105.9,160.9z"/>
							<path class="st7" d="M122.3,148.8c-3.5,6.9-5.8,12.8-5.4,18.1c-1.7-0.2-4.1-0.9-6.5-2c2.6-3.6,3.9-7.5,3.8-12
								c0-1.6-0.3-3.1-0.9-4.4l1.6-2.7C117.4,146.6,119.8,147.6,122.3,148.8z"/>
							<path class="st7" d="M107.4,158.6l4.5-7.8c0.1,0.4,0.2,0.8,0.2,1.3c0,0.2,0,0.5,0,0.7c0,0.8,0,1.6-0.1,2.4
								c-0.3,2.4-1,4.6-2.2,6.7c-0.1,0.2-0.3,0.5-0.4,0.7c-0.3,0.5-0.6,0.9-1,1.4c-1.3-0.6-2.4-1.3-3.5-2l0.1-0.1
								C105.9,161,106.7,159.9,107.4,158.6z"/>
						</g>
					</g>
					<g>
						<path class="st7" d="M104,144.1c1.6,0,3.2,0.2,4.6,0.4l-4.6,16.1"/>
						<g>
							<path class="st7" d="M104,160.5l0-0.5c0.1-0.1,0.2-0.2,0.2-0.3L104,160.5z"/>
							<path class="st7" d="M104,148.1"/>
						</g>
					</g>
					<g>
						<path class="st7" d="M98.1,144.5c1.6-0.2,3.2-0.3,4.6-0.4l0,16.4L98.1,144.5z"/>
						<path class="st7" d="M98.8,145.8c-0.1,0-0.2,0.1-0.2,0.1l-0.1-0.4h0.9C99.2,145.7,99,145.8,98.8,145.8z"/>
					</g>
					<g>
						<path class="st7" d="M93.3,145.4c1.2-0.3,2.4-0.6,3.6-0.8l4,13.9L93.3,145.4z"/>
						<g>
							<path class="st7" d="M100.1,159.8c0.6,0.9,1.2,1.7,1.8,2.3c-1,0.7-2.2,1.4-3.5,2c-0.3-0.3-0.5-0.7-0.7-1
								c-2.1-3.1-3-6.4-3-10.1c0-0.3,0-0.5,0-0.7c0-0.5,0.1-0.9,0.2-1.3l4.9,8.4C99.7,159.3,99.9,159.5,100.1,159.8z"/>
							<path class="st7" d="M84.3,148.8c2.6-1.3,5.1-2.3,7.6-3l1.5,2.6c-0.6,1.3-0.9,2.8-0.9,4.4c0,4.5,1.2,8.5,3.8,12.1
								c-2.4,1-4.9,1.8-6.6,2C90.1,161.1,88.2,155.1,84.3,148.8z"/>
							<g>
								<path class="st7" d="M98,148.6l2.9,10l-3.6-6.2l0,0C97.1,151,97.3,149.7,98,148.6z"/>
								<path class="st7" d="M100,159.7c1.1,1.7,2.3,3.1,3.4,3.9c4,2.8,10.3,5.3,13.8,5.5c0,0,0,0,0,0c-2.5,0.5-5,2-7.6,3.9
									c0,0,0,0,0,0c-0.7-0.4-1.3-0.7-2-1.1c-4.7-2.8-8-5.7-10.1-8.8c-2.1-3.1-3-6.4-3-10.1c0-0.3,0-0.5,0-0.7
									c0-0.5,0.1-0.9,0.2-1.3l4.9,8.4C99.7,159.3,99.8,159.4,100,159.7z"/>
							</g>
						</g>
					</g>
				</g>
				<path class="st13" d="M120,118.4c0,0,14.5,3.7,17.4,7.5c2.9,3.8,10.3,28.5,11.6,40.6L137,204.6l-8.4-12.8c0,0-5-41.9-6.8-45.9
					c-1.8-4-9.1-13.4-9.1-13.4L120,118.4z"/>
				<path class="st13" d="M76.5,192.6c0,0,6.5-15,7.7-24.4c1.3-10.4-0.8-32.3-3.1-40.6S77,112.2,77,112.2s-22.5,6.4-25,10.7
					c-2.6,4.3-3.6,34.6-2.7,44.5c0.9,9.9,22.2,7.2,22.2,7.2l1.8,24.2L76.5,192.6z"/>
				<path class="st13" d="M127.1,119c0,0-11.1-3.8-11.6-3.6c-0.5,0.2-5.6,12.1-6,14c-0.4,1.9,22,10.2,23.2,8.5
					C133.9,136.2,128,120,127.1,119z"/>
				<path class="st13" d="M79.4,110.6c-2.6-1.4-11.6,2.5-11.8,3.7c-0.2,1.2-6.1,21.4-4.7,23c1.5,1.6,22.7-9.7,23-11.4
					C86.2,124.1,81.5,111.7,79.4,110.6z"/>
				<path class="st14" d="M114,133.8c4.2,4.7,11.9,18.2,11.1,28.4c-1.3,15.8,4,31.3,4,31.3"/>
				<path class="st14" d="M127.5,152.5c0.2,1.6,0.5,11.5,0.5,11.5"/>
				<path class="st4" d="M108.1,264.5c0,0-2.3,13.7-3.5,20.9c-1.2,7.2-1.2,9.4-1.2,9.4s13.8,5.7,23,5.3s18-2.6,18.3-3.2
					c0.3-0.6,4.6-10.4,6.5-23.8c1.8-13.3,1.8-26.3,1.8-26.3L108.1,264.5z"/>
				<path class="st4" d="M98.7,262.9l0.3,24.9c0,0-10.7,5.2-17.1,6.5c-6.4,1.3-20.1-0.5-20.1-0.5s-4-11.6-5.1-21.5
					s0.2-24.9,0.2-24.9L98.7,262.9z"/>
				<path class="st15" d="M155.7,248.6c-1.2-6.2-3.2-18.4-10.2-30.3c-7-12-17.3-26.6-17.3-26.6s-4.9,5.1-21.8,6.3
					c-16.9,1.2-30.7-2.4-30.7-2.4s-8.7,15-12.9,25.2c-4.3,10.4-7.5,21-8.2,26.8c-0.7,5.8,45.1,11.2,45.1,10.7s1.4-11.4,4.7-11.5
					s3.3,14.2,3.3,14.2L155.7,248.6z"/>
				<path class="st16" d="M105.2,209.8c0,0,1.5,12.4,1.3,20s-1.3,14.4-1.3,14.4"/>
				<path class="st16" d="M120.5,236.8c-0.4,0.2-10.1,4.8-12.5,7.9"/>
				<path class="st16" d="M103.2,244.2c0,0-4.9-5-12.9-6"/>
				<path class="st16" d="M132.3,198.8c-3.4,2.4-14.6,7-18.7,7.9s-10.2,0.8-10.5,0.2c-0.3-0.6-0.9-5-0.6-8.6"/>
				<path class="st16" d="M100.2,206.9c-0.9,0.1-14.8,0.8-24.5-1.6"/>
				<ellipse class="st16" cx="107.3" cy="202.7" rx="2.2" ry="2.2"/>
				<path class="st16" d="M121.3,207.4c0,0-0.2,9.7,8.5,13.8c8.6,4.1,18.2,4.2,18.2,4.2"/>
				<path class="st16" d="M84.5,207.8c0,0-1.4,10.4-4.3,13.9c-4.5,5.4-19.6,5.7-19.6,5.7"/>
				<path class="st12" d="M158.5,242.6l0.2,10.1c0,0-5.1,5.9-24.8,10.2s-28.3,4.6-28.3,4.6l0-9.2c0,0,19.4-2.3,29.2-5.1
					C147.6,249.5,158.5,242.6,158.5,242.6z"/>
				<path class="st12" d="M102.6,258.3l-1.2,8.7c0,0-13.9-1.1-27.7-4.1C58.1,259.4,50,254,50,254l2.1-9.3c0,0,6.2,5.5,24.7,9.5
					C92.4,257.6,102.6,258.3,102.6,258.3z"/>
				<path class="st10" d="M185.9,122.4c0,0-24.7-2.3-26.3,0c-1.7,2.3-10.4,41.6-9.1,42.2s23.4,1.9,23.8,0.4S185.3,127.5,185.9,122.4
					z"/>
				<path class="st4" d="M150.3,181.5l0.5,10.2c0,0,19.1-28.1,23-31.9l-6.2,2.4c0,0-4.5-9.3-3.3-13.5c0,0,12.4-4.3,10.9-5.9
					c-1-1.2-9.2,0.9-9.2,0.9s-1.6-2.2,1.8-4.1c1-0.5,13.6-1.8,15.5-0.1c2,1.8,7.9,10,7.6,12.8c-0.2,2.7-7,8.4-8.3,11.2
					c-1.2,2.8-24.6,41.3-27.1,44.5c-2.5,3.2-14.8,6.9-17,4.6c-2.3-2.3-4.1-24.1-4.1-24.1L150.3,181.5z"/>
				<path class="st12" d="M131,190.7c2.3,0.9,26.8-10.8,26.2-11.9c-1.4-2.7-5.4-11.3-6.9-11.4c-1.5-0.1-18.4,3.5-19.8,3.7
					C129,171.2,128.7,189.8,131,190.7z"/>
				<path class="st4" d="M53.4,183.9c0,0,1.1,10.9,2.8,19.8c1.7,8.9,4,15.9,6.9,16.3c2.9,0.4,29.1-18.8,37.8-25
					c8.7-6.3,17.8-16.1,21.3-16.5c3.5-0.4,13.3,3.8,17.2,1.2s2.2-21,3.8-22.9c1.6-1.8,7.3,0.4,8.1-2.6c0.7-3-3.8-3.5-5.9-3.5
					c-2.1,0-6.1,0.8-8,2.3c-1.9,1.5-10.8,11.8-17.1,14.8S95,181.5,90.5,184.2c-5.7,3.4-16.4,10.5-16.4,10.5l-2.3-16.7L53.4,183.9z"
					/>
				<path class="st12" d="M45.6,170.3c-1.3,0.7,0.8,12.5,2.7,13.9c1.8,1.5,24.9-2.2,26.6-2.8s0.6-11-2.2-12.6
					C69.8,167.3,49,168.5,45.6,170.3z"/>
				<path class="st17" d="M141.3,305.6c0,0-4.6,13-7.4,18.9c-2.8,5.9-7.4,14.7-7.7,16.9c-0.3,2.2,6.2,5.3,9.9,17.2
					c3.7,11.8-0.7,67.7-0.7,67.7l-14.8,2.8c0,0-3.9-32-10.2-47.1c-6.3-15.1-13.6-38.5-13.6-38.5s-1.1-5.6-0.2-14s6.8-35.8,6.8-35.8
					L141.3,305.6z"/>
				<path class="st17" d="M99.3,288.1c0,0,2.3,29,2.3,47.7c0,18.7-3.2,43.7-3.7,53.5c-0.5,9.8-0.9,32.2-0.9,32.2l-7,4.9l-7.1-5.3
					c0,0-11.1-35.7-12.2-46.5c-1.1-10.8,3.9-29.9,3.4-34.8c-0.5-4.9-10.8-30.6-12.8-46.9L99.3,288.1z"/>
				<path class="st18" d="M148.2,294.7l-3.9,10.7c0,0-13.6,0.9-24.9-1.5s-17.7-7.2-17.7-7.2l1.4-9.6c0,0,6.7,6.2,19,7.9
					C134.3,296.8,148.2,294.7,148.2,294.7z"/>
				<path class="st18" d="M100.4,285.2c0,0-6.9,3.9-19.8,5.5c-12.9,1.5-21.7-1.4-21.7-1.4l2.3,9.5c0,0,10.4,1.4,21.3,0.5
					c10.9-1,19-5.7,19-5.7L100.4,285.2z"/>
				<path class="st4" d="M121.3,346.9c0,0-7.3-13.2-13-12c-5.7,1.2-3.5,15-2.8,16.9c0.7,1.9,6.8,1.9,9.9,0.8
					C118.4,351.5,121.1,348.2,121.3,346.9z"/>
				<path class="st4" d="M90.7,333.8c-3.2-0.3-9.2,8.3-9.4,12c-0.2,3.8,14.3,4.9,15.6,1.4C97.8,344.8,97,334.3,90.7,333.8z"/>
				<path class="st15" d="M141.4,417.3c0,0,5,20.4,5.7,26.6s-0.8,23.6-3.5,26.9s-9.7,5.2-17.8,4.8s-10.8-1.5-11.4-3.1
					s-0.4-5.9,1.5-8.9c1.8-3,9.9-11.9,9.3-19.6c-0.6-7.7-12-20-12-20l12.9,1.7l12.1-3.7L141.4,417.3z"/>
				<path class="st15" d="M105,419.1c0,0-3.8,19.9-4.3,24.1c-0.5,4.2,5.3,14.8,5.8,18.2c0.5,3.4,1,7.6,0.6,8.3s-7.6,3.4-15.5,2.8
					s-15.8-3.1-16-4.9c-0.2-1.8,2.3-16.9,4.1-21.4c1.1-2.8-0.3-6.5-2.5-14.9c-2.1-8.4-2.3-14.2-2.3-14.2l8.3,4.1l11.8,1.1L105,419.1
					z"/>
				<path class="st19" d="M137.9,409c0,0,5.2,2.2,4.8,5.5c-0.4,3.2-2.3,9-8.1,11.1c-5.8,2.1-15.3,1.3-18.7,0.2
					c-3.3-1.1-3.4-5.2-2.7-7.1c0.6-1.9,4.7-5.1,4.7-5.1l1.7,9.5c0,0,1.3,1.6,8.6,0s8.2-3.8,8.2-3.8L137.9,409z"/>
				<path class="st19" d="M97.9,414c0,0,7.5,1.2,7.3,4c-0.3,4.1-9.2,6.4-15.2,6.2c-6-0.2-15-2.9-15.2-7c-0.1-2.8,5.7-2.8,5.7-2.8
					l1.7,5.1c0,0,2.9,2.3,8.2,2.2s7.1-2,7.1-2L97.9,414z"/>
				<path class="st12" d="M147.7,443.4l1.8,5.5c0,0-0.9,21.8-2.6,25.2s-8.3,7.5-19.2,7.1c-10.5-0.4-13.6-3-14.6-4.2
					c-1-1.2,0.3-6.4,0.3-6.4s1,3.7,4.5,4.5s15.8,1.3,20.8-0.7c4.9-1.9,6.1-6.2,7.2-10.6S147.7,443.4,147.7,443.4z"/>
				<path class="st12" d="M107.9,469.5c0,0,0.6,4.3-0.1,5.2s-7.7,4-16.4,3.8s-16.1-4.3-17-5.4c-0.9-1,0.5-6,0.5-6s5.6,4.9,15.8,5.3
					C100.9,472.7,107.9,469.5,107.9,469.5z"/>
				<path class="st14" d="M109.4,129.4c0,0,19.9,10.5,22.3,8.7s-2.1-14.4-4-17.3"/>
				<path class="st14" d="M85.3,126.6c0,0-19.5,12.6-22.3,10.6s4.6-21.2,4.7-22.4"/>
				<path class="st14" d="M81.7,130.4c0,0,4.6,28.4,2.8,36.7c-1.8,8.3-6.3,21.9-8.6,25.2"/>
				<path class="st14" d="M71.5,148.2c0,0-1.5,12.8-1.1,18.2"/>
				<path class="st14" d="M78.7,141.8c-1.6,1.4-1.6-1-1.6-1"/>
				<path class="st14" d="M78.7,153.6c-1.6,1.4-1.6-1-1.6-1"/>
				<path class="st14" d="M78.4,165.8c-1.6,1.4-1.6-1-1.6-1"/>
				<path class="st20" d="M100,294.8c0,0,1.5,30.2,1.6,40.9c0.1,10.7-3.4,48.9-3.4,48.9"/>
			</g>
		</g>
	</g>
	<circle class="st21" cx="106.2" cy="106.2" r="105"/>
</g>
</svg>
