<?xml version="1.0" encoding="utf-8"?>
<!-- Generator: Adobe Illustrator 22.0.1, SVG Export Plug-In . SVG Version: 6.00 Build 0)  -->
<svg version="1.1" id="Layer_1" xmlns="http://www.w3.org/2000/svg" xmlns:xlink="http://www.w3.org/1999/xlink" x="0px" y="0px"
	 viewBox="0 0 213.6 213.6" style="enable-background:new 0 0 213.6 213.6;" xml:space="preserve">
<style type="text/css">
	.st0{clip-path:url(#SVGID_2_);}
	.st1{fill:#089685;}
	.st2{fill:#00A99D;}
	.st3{fill:#D88D71;}
	.st4{fill:#EF9D78;}
	.st5{fill:#FFBA85;}
	.st6{fill:#91AF61;}
	.st7{fill:#218955;}
	.st8{fill:#25995F;}
	.st9{fill:#680100;}
	.st10{fill:#006837;}
	.st11{fill:#BDCCD4;stroke:#006837;stroke-width:2.4459;stroke-miterlimit:10;}
	.st12{fill:none;stroke:#680100;stroke-width:1.8814;stroke-linecap:round;stroke-linejoin:round;stroke-miterlimit:10;}
	.st13{fill:#680100;stroke:#680100;stroke-width:1.8814;stroke-linecap:round;stroke-linejoin:round;stroke-miterlimit:10;}
	.st14{stroke:#680100;stroke-width:1.9402;stroke-linecap:round;stroke-linejoin:round;stroke-miterlimit:10;}
	.st15{stroke:#680100;stroke-width:1.7932;stroke-linecap:round;stroke-linejoin:round;stroke-miterlimit:10;}
	.st16{fill:#36D88B;}
	.st17{fill:none;stroke:#006837;stroke-width:1.8814;stroke-linecap:round;stroke-linejoin:round;stroke-miterlimit:10;}
	.st18{fill:none;stroke:#30B271;stroke-width:1.8814;stroke-linecap:round;stroke-linejoin:round;stroke-miterlimit:10;}
	.st19{fill:#B2E561;}
	.st20{fill:#F2F2F2;}
	.st21{fill:#9BC622;}
	.st22{fill:#05C6B3;}
	.st23{fill:#029385;}
	.st24{fill:#E6E6E6;}
	.st25{fill:#B9DD22;}
	.st26{fill:#7BA33B;}
	.st27{fill:#CCCCCC;}
	.st28{fill:#39B54A;}
	.st29{fill:#009245;}
	.st30{fill:#D9E021;}
	.st31{fill:#BFBF1B;}
	.st32{fill:#3FD18B;}
	.st33{fill:none;stroke:#006837;stroke-width:1.7573;stroke-linecap:round;stroke-linejoin:bevel;stroke-miterlimit:10;}
	.st34{fill:#FFFFFF;}
	.st35{fill:none;stroke:#EDEDED;stroke-width:2.4134;stroke-miterlimit:10;}
</style>
<g>
	<g>
		<defs>
			<circle id="SVGID_1_" cx="106.8" cy="106.8" r="105.6"/>
		</defs>
		<clipPath id="SVGID_2_">
			<use xlink:href="#SVGID_1_"  style="overflow:visible;"/>
		</clipPath>
		<g class="st0">
			<g>
				<path class="st1" d="M65,247.9c0,0-16-2-19.1-7.5c-3.1-5.5-8.5-31.5-8.9-65.2s7.4-50.8,9.6-53.5c2.2-2.7,23.7,6.7,23.7,6.7
					L65,247.9z"/>
				<path class="st2" d="M64.4,131.7l-19.1-6.4l-4.6,10.7l-1.1-16.3c0,0,9.5-5.6,26-5.6s54.5,8.9,57.1,9.7c5,1.7,10.5,5.2,11.4,7.8
					s1.1,7.1,1.1,7.1l-58.3-3.4L64.4,131.7z"/>
				<path class="st3" d="M100.8,115.2c0.2,2.7-1.1,12.2-1.1,12.2l14.2,13.8l6.2-6.9l2.2-5.8l-2.8-8.8L100.8,115.2z"/>
				<path class="st4" d="M90.2,57c0,0,52.9,0.2,53.9,1.6c0.9,1.4,4.1,6.6,4.9,11.8c1.1,6.6,1.6,21.6-4.5,33.3
					c-6.1,11.8-12.9,14.2-18,15.6c-5.2,1.4-14.6,1.6-21.4-1.4c-6.8-3.1-14.3-8.9-18.6-17.9c0,0-11.3-3.3-12.2-8.9
					c-0.9-5.6,1.4-8.5,4.5-8.7c3.1-0.2,6.6,3.1,6.6,3.1l-2.1-17.6L90.2,57z"/>
				<path class="st5" d="M121.2,68.8c-16.1,1.8-28.1,3.8-30.5,7.5c-2.4,3.8-2.6,18.3,2.8,25.8c5.4,7.4,14.9,13.9,23.4,15.8
					c8.5,1.8,14.6-0.4,17.7-2.3s8.2-6.7,11-14c3.4-8.7,4.5-17.2,4.4-23.9c0-2.7-0.4-5.4-0.7-7.3C147.7,69.9,136.1,67.1,121.2,68.8z"
					/>
				<path class="st6" d="M92.6,59.4c0.4,0.5,4,9.1,25.2,8.1c21.2-0.9,28.7-7.4,32.1-12.8c3.4-5.4,2-19.6,0-24.8
					c-2-5.2-10.1-11.3-10.1-11.3s1.3,4.4,0.7,7.9c-0.6,3.5-1.3,4.1-1.3,4.1s-2.1-6-4-6.8c-1.9-0.8-5.8,7.3-7.2,8.2s0.4-4.4-0.6-4.2
					c-0.9,0.1-3.2,4.1-4.1,4.4c-0.9,0.2-5.8,0-5.8,0L95.4,48.5L92.6,59.4z"/>
				<path class="st7" d="M74,66.3c0,0-3.3-2.8-4.9-6.3s-1.3-6.8-2.1-6.2c-0.8,0.6-2,0.6-3.2-1.5c-1.2-2.1-2-12-1.8-12.9
					c0.2-0.9,3.4-6.8,7.5-8.3c4.1-1.5,8.5-3.3,12.9-3.6c4.5-0.4,8-0.4,9.5-0.9c1.5-0.6,3.4-0.8,3.4-0.8l2.4,1.8L86.6,44.5l-9.9,17.3
					L74,66.3z"/>
				<path class="st8" d="M85.6,83.2c0,0,2.4-19,13.1-32.9C109.4,36.4,123,33.1,123,33.1s-2.7-4.6-6.9-6c-4.2-1.4-7.1,1.2-7.1,1.2
					s-7.8-1.9-11.3-1.1c-3.5,0.8-12.2,1.3-19,12.2c-6.8,10.9-6.2,34-6,35.2c0.2,1.2,4.4,6.7,6.1,7.2C80.6,82.3,85.6,83.2,85.6,83.2z
					"/>
				<path class="st9" d="M96.8,75l1.3,2.9c0,0,4.8-1.6,6.7-2.2c1.9-0.6,5.8-0.9,5.8-0.9l-2.3-3.3c0,0-3.2,0-6.7,1.2
					C99.5,73.3,96.8,75,96.8,75z"/>
				<path class="st9" d="M131.4,70l0.2,4.2c0,0,4.9-0.5,7.3-0.4c2.4,0.2,4.2,0.6,4.2,0.6s1.4-2.4,1.4-2.7s-3.5-1.5-6.5-1.9
					C135.5,69.6,131.4,70,131.4,70z"/>
				<path class="st10" d="M121.2,83.5c0,0,2.7-1.6,4.3-1.5c1.6,0.1,3.6,0.9,3.6,0.9l-0.4,2.7c0,0-1.6-1.3-3.1-1.2
					c-1.4,0.2-3.2,1.5-3.2,1.5L121.2,83.5z"/>
				<path class="st10" d="M85.6,81.1c0,0,2.9-0.2,5.5,0.5c2.6,0.7,5.3,2.3,5.3,2.3l-0.4,3.3c0,0-3.7-1.6-5.9-2.1
					c-2.2-0.5-4.6-0.8-4.6-0.8l-0.2-3.1L85.6,81.1z"/>
				<path class="st10" d="M151.2,79c3.1-0.8,3.5-0.6,3.5-0.6l0.1,3.1l-2.4,1L151.2,79z"/>
				<path class="st11" d="M151.4,84.7c0-7.3-1.4-8-8.6-7.8c-9.6,0.2-13.6,3.1-14,9.4c-0.4,7.3,5.5,10,12.8,10S151.4,92,151.4,84.7z"
					/>
				<path class="st11" d="M96.2,87.9c0-7.3,5-9,12.3-8.9c9.6,0.2,13.6,2,13.6,9.3c0,7.3-5.3,11.8-12.5,11.8S96.2,95.1,96.2,87.9z"/>
				<path class="st12" d="M126.6,85.8c0,1.9-0.1,4.1,0.7,5.2c0.8,1.1,2.6,1.5,3.3,3.1c0.7,1.5,0.5,3.9-0.5,5.1
					c-0.9,1.2-4.1,2.1-5.6,1.6"/>
				<path class="st12" d="M118.3,107.2c0,0,2.4,2.7,6.2,2.4c3.9-0.4,5.1-2.6,5.1-2.6"/>
				<path class="st12" d="M102.6,83.8c0,0,2.9-0.6,6.8-0.1c3.9,0.6,4.6,1.9,4.6,1.9"/>
				<path class="st13" d="M136.4,84.1c0,0,1.8-2.1,5.2-2.3c1.8-0.1,3.3,0.1,3.3,0.1"/>
				<circle class="st14" cx="110.6" cy="87.9" r="3.9"/>
				<circle class="st15" cx="139.4" cy="85.9" r="3.6"/>
				<path class="st5" d="M73.7,344.3c-0.9,5.6-1.9,11.5-3.5,14.1s-3.8,8.2-4,12.9c-0.2,4.7,3.1,75.3,6.1,89.8s8.9,12.9,8.9,12.9
					s4.7-11.1,5.4-14.1c0.7-3.1,0.7-13.9,3.8-29.2s10.6-48.4,10.6-56.4s-2.4-15.1-1.6-19c0.7-4,0.7-8.7,0.7-8.7L73.7,344.3z"/>
				<path class="st5" d="M127.7,343.6c-0.9,4.5-4.2,18.8-4.5,27.8c-0.2,8.9,3.1,24.2,8,36c4.9,11.8,20.9,41.6,22.3,49.9
					s1.4,19.8,1.4,19.8l11.3,4.2l6.8-9.2c0,0-4.2-14.6-6.3-25.6c-2.1-11.1-8.2-42.1-9.6-56.9c-0.8-8.7-0.5-19.8-1.2-24.9
					c-0.7-5.2-1.9-9.4-2.1-13.2s-0.2-13.9-0.2-13.9L127.7,343.6z"/>
				<path class="st8" d="M150.4,281.6c0,0,2.9,34.9,3.6,40.3c0.7,5.4,1.9,18.1,1.9,18.1s-4,4-15.8,6.1c-11.8,2.1-19.5,2.4-20,1.2
					s-9.9-36.5-9.9-36.5l1.2-6.3l-8.5,45.6c0,0-14.8-0.5-20.9-2.1s-15.5-5.4-16.7-8.5s2.6-36.2,2.6-40.7c0-4.5,0.5-19.3,0.5-19.3
					L150.4,281.6z"/>
				<path class="st16" d="M59.4,222c0,0,3.4,52.4,4.2,55c0.7,2.6,0.9,4.9,4.7,4.2c3.8-0.7,13.6,0.9,13.6,0.9L70.6,245L59.4,222z"/>
				<line class="st17" x1="113.9" y1="307.6" x2="125.2" y2="347.7"/>
				<path class="st5" d="M147,181.2c0,0,3.4,8.5,5,18.7c1.6,10.2,1.6,16,2.4,19.8s3.8,20.9,3.6,27.3c-0.2,6.4-1.4,33.6-1.4,33.6
					l-9.3-6.7l-8.2-55.8l-0.9-11l-1.1-22.1L147,181.2z"/>
				<path class="st16" d="M96.9,123.4l15.5,10l1.6,5.8l1.6-5.2c0,0,1.9-2.7,3.3-3.8c1.4-1.1,4.4-2,4.4-2s1.6,2.4,2.5,3.8
					c0.9,1.4,3.9,3.4,3.9,3.4s11.1,2.8,12.4,4.1c1.3,1.3,3.9,17.7,4.7,20.7s7.7,19.6,7.7,19.6l-17.2,6.3l1.9,27l8.2,63.1l-51,6.5
					l-16.5-6.3l-5-85.7c0,0-10.7-1.9-15.8-4.4c-5.2-2.5-13.2-7.1-14-9.4s4.2-19.3,7.2-26.2c3-6.9,11.4-19.3,13.5-20.9
					c2-1.6,15.2-2.2,19.3-1.4c4.1,0.8,6.3,0.8,6.3,0.8L96.9,123.4z"/>
				<path class="st18" d="M111.3,134.5c0,0-1,1.3-2.3,3c-1.9,2.5-4.3,6-4.8,8c0,0-1.7-4.1-6.6-9.1c-4.9-5-6.4-7.2-6.4-7.2"/>
				<line class="st18" x1="113.9" y1="139.2" x2="109" y2="137.5"/>
				<path class="st18" d="M115.5,134.8c0,0,4.7,3.9,5.8,6.7c1.1,2.8,1.7,3.9,1.7,3.9l5.8-9.7"/>
				<path class="st18" d="M113.6,140.3c0,0-4.4,16-4.1,37.2s1.4,37,1.4,37"/>
				<path class="st18" d="M115.2,169.3c0,0,9.3,0.6,11.9,0.5c2.7-0.2,3.9-0.6,3.9-0.6"/>
				<path class="st18" d="M115,169.9l1.3,20.9c0,0,7.4,1.6,10,1.3c2.7-0.3,7.8-3.9,7.8-3.9l-1.3-17.6"/>
				<path class="st18" d="M115.8,175.7c0,0,5.2,0.9,7.4,0.9s9.3-0.9,9.3-0.9"/>
				<path class="st18" d="M104.2,162.5c-2,0.8-0.8,2.1-0.8,2.1"/>
				<path class="st18" d="M103.2,182.4c-2,0.8-0.8,2.1-0.8,2.1"/>
				<path class="st18" d="M103,203.1c-2,0.8-0.8,2.1-0.8,2.1"/>
				<path class="st1" d="M75.8,126.3l-0.8,1.8c0,0,9,11,8.7,22.2c-0.3,14.6-8.9,42.1-8.9,42.1l0.8,7.8c0,0,12.9-22.9,15.9-39
					c2.9-15.5,1.4-22.1,0.4-26.3c-1.1-4.2-3.9-7.4-3.9-7.4L75.8,126.3z"/>
				<path class="st1" d="M139.1,136.9c0,0,0.2,0.7-0.1,1.3c-1.1,2.9-4.5,11.3-4.3,17.8c0.2,7.9,3.6,27.4,3.6,27.4l-0.2,8.3
					c0,0-9.8-23-10.3-32.9c-0.6-9.9,2.8-22.6,3.1-24.7L139.1,136.9z"/>
				<g>
					<polygon class="st19" points="90.2,294.7 90,296.2 110.6,297.6 159.4,285.4 141.8,286 					"/>
					<path class="st20" d="M91.6,296.5c0,0,1.4,3.2,1.4,6.7c0,3.5-1,5.8-1,5.8l21.1,0.8l2.5-7.5l-4.1-5L91.6,296.5z"/>
					<path class="st21" d="M91.5,308.3l19.9,1c0,0,0.6-1.5,0.9-5.4c0.2-3.9-1.8-7.3-1.8-7.3l48.9-11.1c0,0,2.1,2.4,2.3,6.9
						c0.2,4.5-2.6,6.3-2.6,6.3l-47.5,12.3l-20.5-1.6L91.5,308.3z"/>
				</g>
				<g>
					<path class="st20" d="M90.2,280.7c0,0,1.3,2.9,1,6c-0.3,3.1-1.6,5-1.6,5l28.4,3.4l2.2-8.1l-1.7-4L90.2,280.7z"/>
					<path class="st22" d="M117.3,284.2c-1.1,0-30-3-30-3l0-1.3l45.7-6.5l22.7,1.5L117.3,284.2z"/>
					<path class="st23" d="M89,291l28,3.3c0,0,1.6-1.4,1.7-4.5s-2.5-5.9-2.5-5.9l39.5-9.1c0,0,2.7,2.6,2.5,5c-0.2,2.3-3,4.4-3,4.4
						l-38.7,11.8l-27.8-3.7L89,291z"/>
				</g>
				<g>
					<path class="st24" d="M87.6,270.9c0,0,1.1,2.5,0.9,4.2c-0.1,1.8-1.1,3.6-1.1,3.6l27.8,0.6l3.8-3.3l-1.6-4.8l-6-0.9L87.6,270.9z
						"/>
					<polygon class="st25" points="113.5,271.7 85.8,271.6 86,270.2 127.4,265.8 151.2,264.9 					"/>
					<path class="st26" d="M151.2,265c0,0,2,2.3,2.3,4.2c0.3,1.9-1.3,4-1.3,4l-35.9,6.9l-29.8-0.3v-1.7l28.4,0.6
						c0,0,1.9-1.9,0.9-4.4c-0.7-1.9-2.2-2.8-2.2-2.8L151.2,265z"/>
				</g>
				<g>
					<path class="st27" d="M89.2,253.5c0,0,2,3.9,1.9,7.2c-0.2,3.3-1.3,6.4-1.3,6.4l17.6,2.7l4.9-0.9l-0.8-11.9l-2.7-3.8L89.2,253.5
						z"/>
					<path class="st28" d="M107.8,254.9c0,0,1.7,2.2,1.9,5.5c0.2,3.3-1.9,8.8-1.9,8.8l-19-2.7v2.2l19.8,2.5l40.8-8.5
						c0,0,3.2-5.8,1.3-11.3c-1.4-3.9-4.9-6.3-4.9-6.3L107.8,254.9z"/>
				</g>
				<g>
					<path class="st24" d="M85.6,242.9c0,0,1.4,2.5,1.3,5.2c-0.2,2.7-1.4,4.4-1.4,4.4l28.5,2l1.9-7.1l-1.9-3.4L85.6,242.9z"/>
					<path class="st22" d="M112.8,245c-1.1,0-30.1-1.7-30.1-1.7l0-1.1l45.5-7.1l22.7,0.6L112.8,245z"/>
					<path class="st23" d="M84.8,251.8l28.1,2c0,0,1.6-1.3,1.6-3.9s-2.7-5-2.7-5l39.2-9.2c0,0,2.8,2.2,2.7,4.2
						c-0.2,2-2.8,3.9-2.8,3.9l-38.2,11.5l-27.9-2.3L84.8,251.8z"/>
				</g>
				<g>
					<polygon class="st29" points="78,228.7 77.7,229.8 101.6,231.5 158.8,223.9 138.2,223.7 					"/>
					<path class="st27" d="M79.6,230.1c0,0,1.4,2.5,1.3,5.2c-0.2,2.7-1.4,4.4-1.4,4.4l24.5,1.3l3.3-5.6l-4.5-3.9L79.6,230.1z"/>
					<path class="st10" d="M78.8,239.1l23,1.4c0,0,0.8-1.1,1.3-4.1s-1.7-5.6-1.7-5.6l57.2-6.9c0,0,2.4,1.9,2.4,5.3
						c0,3.4-3.3,4.7-3.3,4.7l-55.7,7.8l-23.7-1.9L78.8,239.1z"/>
				</g>
				<g>
					<polygon class="st30" points="78.5,215.6 79,217.1 101.4,219 150,212.6 129.5,212.4 					"/>
					<path class="st20" d="M79,217.1c0,0,1.4,2.5,1.3,5.2c-0.2,2.7-1.4,5-1.4,5l24,2l3.8-7.1l-5.2-3.3L79,217.1z"/>
					<path class="st31" d="M78.8,227.3l23,1.4c0,0,0.8-1.1,1.3-4.1s-1.7-5.6-1.7-5.6l48.6-6.4c0,0,2.4,1.9,2.4,5.3
						c0,3.4-3.3,4.7-3.3,4.7l-47,7.4l-23.7-1.9L78.8,227.3z"/>
				</g>
				<path class="st5" d="M53.7,183.7c0,0-0.6,17.5,3,31.9c3.6,14.4,5.8,19,6.3,21.2s3.4,23.2,6.9,31.5s10.5,22.3,10.7,23.4
					s-0.3,7.9-0.2,9.8c0.1,1.9,2,10.8,2.7,12.1c0.7,1.3,3.6-0.5,3.6-0.5s0.9,2.7,1.8,3.1c0.8,0.4,1.9-1.8,3.2-2.2
					c1.3-0.4,1.6,2.5,3.2,2.3c1.5-0.2,2.2-1.9,3.1-1.9c0.9,0,3.9-0.4,4.5-1.2c0.6-0.8,1.6-2.8,1.6-2.8l-4.4-0.2c0,0-3.1-3.1-4-5.5
					c-0.9-2.4-2-7.2-2-7.2s4.2,1.2,5.3,2.7c1.1,1.5,3.3,3.3,3.9,3.5c1.9,0.8,4.1-0.1,4.1-0.1s-6-11.6-8.9-14.1
					c-2.9-2.5-9.6-2.7-10-3.2c-0.4-0.5-1.3-16.3-3.5-23.4c-2.2-7.1-6.1-21.9-6.1-24.8s-0.7-25.2-1.4-29.8
					c-0.7-4.6-2.3-17.7-2.3-17.7C69.1,189.6,61,187.3,53.7,183.7z"/>
				<path class="st32" d="M87.3,473.4c-0.2-2.8,4.2-8.5,4-12c-0.2-3.5-5.4-5.6-10.6-4.5c-5.2,1.2-14.1,3.1-14.1,5.2
					c0,2.1,3.5,6.3,4.5,9.2C71.5,472.7,87.5,476.2,87.3,473.4z"/>
				<path class="st29" d="M62.8,491.5c0,0,9.9,6.1,16.2,6.3c6.3,0.2,16.9-3.3,17.2-5.2c0.2-1.9-8.7-16.5-8.9-19.3
					c-0.2-2.8-17.2-5-16.2-2.1c0.5,1.4-5.9,7.3-6.8,11.3C63.3,486.6,63.1,491,62.8,491.5z"/>
				<path class="st32" d="M168.7,471.5c0,0-2.4-9.4-2.4-10.3c0-0.9,15.5-10.6,17.4-8.5s-5.9,15.8-6.1,17.6S168.7,471.5,168.7,471.5z
					"/>
				<path class="st32" d="M192.2,472.3c2.8-0.5,12,2.5,14.8,6c2.8,3.5,4.5,7.5,4.5,8.2s-3.3,4.7-14.8,4.9c-11.5,0.2-12-0.5-12-0.5
					s0.2-7,2-10.5C188.6,477,192.2,472.3,192.2,472.3z"/>
				<path class="st29" d="M154.8,467.5c0,0,1.2,4.9,3.1,5.9c1.9,0.9,9.6-1.9,9.6-1.9l9.4-0.2l15.3,1.4c0,0-6.1,8-6.3,10.8
					c-0.2,2.8-1.2,7.5-1.2,7.5s-10.7,2.7-21.8,0.6c-11.1-2.1-15.1-6.5-15.1-6.5s2.1-8.7,3.3-11.1
					C152.2,471.7,154.8,467.5,154.8,467.5z"/>
				<path class="st28" d="M61.9,492l0.2,9.2c0,0,11.3,3.8,15.3,3.8c4,0,13.4-1.9,16.2-3.8c2.8-1.9,3.3-3.5,3.3-3.5l-0.7-4.9
					c0,0-7.8,5.4-17.2,5.2C69.7,497.6,61.9,492,61.9,492z"/>
				<path class="st28" d="M147.7,484.9l-0.6,9.2c0,0,12.9,4.5,31,4c18.1-0.5,30.6-2.4,32.2-3.3c1.6-0.9,1.2-8.2,1.2-8.2
					s-8.7,5.6-35.7,4.6C148.7,490.2,147.7,484.9,147.7,484.9z"/>
				<path class="st32" d="M61.9,492c0,0-0.2-10.1,15.5-10.8s18.8,11.5,18.8,11.5s-8.7,5.4-16,5.4C72.9,498.1,61.9,492,61.9,492z"/>
				<path class="st17" d="M115.2,303.5"/>
				<path class="st17" d="M110.3,310.9"/>
				<path class="st5" d="M78.8,225.1"/>
				<path class="st33" d="M182.8,471.3c0,0-3.4-0.4-7,3.3c-2,2.1-3.4,5.9-3.4,5.9"/>
				<path class="st33" d="M188.6,471.9c0,0-3.6,0.3-6.7,2.5c-2.6,1.8-3.8,6.3-3.8,6.3"/>
				<path class="st33" d="M72.2,474.4c0,0,2.2-0.9,5.3-1.3s7.5,2.5,7.5,2.5"/>
				<path class="st33" d="M71.9,478.2c0,0,4.2-1.5,6.7-1.5s6.7,2.4,6.7,2.4"/>
				<circle class="st34" cx="108.5" cy="86.4" r="1.4"/>
				<circle class="st34" cx="137.9" cy="84.3" r="1.4"/>
				<g>
					<g>
						<path class="st34" d="M59.7,167.9c3.7-1,6.5-2.3,8.5-4C66.1,165.7,63.4,167,59.7,167.9z"/>
						<path class="st34" d="M71.3,152.8c0.1,0.2,0.3,0.4,0.4,0.6C71.6,153.1,71.4,152.9,71.3,152.8z"/>
						<polygon class="st34" points="53.8,164.1 53.8,164.2 53.8,164.1 						"/>
						<path class="st34" d="M58.1,168.3C58.1,168.3,58.1,168.3,58.1,168.3c0.5-0.1,1-0.2,1.5-0.4C59.2,168.1,58.7,168.2,58.1,168.3
							C58.1,168.3,58.1,168.3,58.1,168.3z"/>
						<path class="st34" d="M71.9,153.6c0.1,0.2,0.2,0.4,0.3,0.7C72.1,154,72,153.8,71.9,153.6z"/>
					</g>
					<g>
						<path class="st34" d="M62.2,157.3c0-0.2,0-0.5,0-0.7C62.1,156.8,62.1,157,62.2,157.3z"/>
						<path class="st34" d="M62.1,156.1c0-0.2,0-0.3,0-0.5C62.1,155.7,62.1,155.9,62.1,156.1z"/>
						<path class="st34" d="M62.2,157.9c0-0.1,0-0.3-0.1-0.4C62.2,157.6,62.2,157.7,62.2,157.9z"/>
						<path class="st34" d="M71.3,169.6c0.3,0,0.7,0,1,0c0,0,0,0,0,0C72,169.6,71.6,169.6,71.3,169.6z"/>
						<path class="st34" d="M61.4,164.2c0.6,1.1,1.3,2.2,2.2,3.4C62.7,166.4,62,165.3,61.4,164.2z"/>
						<path class="st34" d="M66.5,170.8L66.5,170.8c-1.1-1.1-2-2.1-2.8-3.2C64.4,168.6,65.4,169.7,66.5,170.8z"/>
						<path class="st34" d="M71.2,169.6c0,0,0.1,0,0.1,0C71.2,169.6,71.2,169.6,71.2,169.6z"/>
						<g>
							<path class="st34" d="M66.2,165.4c-0.1-0.1-0.3-0.3-0.4-0.4c-0.2-0.2-0.4-0.4-0.6-0.6c-0.4-0.4-0.7-0.8-1.1-1.2
								c-0.9,0.3-1.9,0.5-2.9,0.7c0,0.1,0.1,0.2,0.1,0.3c0.5,0.9,1,1.8,1.7,2.7C64.2,166.4,65.3,165.9,66.2,165.4z"/>
							<path class="st34" d="M71,169c-0.1,0-0.2-0.1-0.2-0.1c-0.4-0.2-0.9-0.5-1.3-0.8c-0.1-0.1-0.2-0.2-0.4-0.3
								c-0.6-0.4-1.2-0.9-1.8-1.4c-1,0.6-2.1,1.2-3.3,1.7c0.7,0.9,1.7,1.9,2.6,2.8c-0.1,0-0.1,0.1-0.2,0.1c2-0.9,4-1.3,5.9-1.4h0
								C71.9,169.4,71.5,169.2,71,169z"/>
							<path class="st34" d="M65.2,171.5c-1-1-1.8-2-2.6-2.9c-1.2,0.4-2.5,0.8-3.8,1.1l-0.1-0.1c0.8,1.4,1.4,3,2.1,4.9
								c1.6-1.4,3.2-2.4,4.7-3.1C65.4,171.4,65.3,171.5,65.2,171.5z"/>
							<path class="st34" d="M59.7,167.9c0.7-0.2,1.4-0.4,2-0.6c-0.8-1.1-1.4-2.1-1.9-3.2c-2.3,0.3-4.5,0.3-6,0l0,0
								c1.8,1.3,3.1,2.7,4.1,4.2l0-0.1C58.5,168.2,59.2,168.1,59.7,167.9z"/>
						</g>
						<path class="st34" d="M71.2,169.6"/>
					</g>
					<g>
						<path class="st34" d="M63.4,159.4l0.1-10.3c-0.9-0.1-1.8-0.2-2.6-0.2L63.4,159.4z"/>
						<g>
							<path class="st34" d="M62.3,154.5l1.2,4.9l0.1-7.4C62.8,152.7,62.4,153.5,62.3,154.5z"/>
							<path class="st34" d="M63,160.9c0,0-0.5-1.4-0.5-1.4l-0.1-0.4c0.2,1,0.6,1.9,0.9,2.7L63,160.9z"/>
							<path class="st34" d="M54.4,149.5c1,5.3,1.3,9.8,0,13.3c1.2,0.2,3,0.2,4.8,0c-1-2.9-1.1-5.8-0.2-8.9c0.3-1.1,0.8-2,1.5-2.8
								L60,149C58.2,149,56.3,149.2,54.4,149.5z"/>
							<path class="st34" d="M62.5,159.1L61,153c-0.1,0.3-0.3,0.5-0.4,0.8c-0.1,0.2-0.1,0.3-0.2,0.5c-0.2,0.6-0.3,1.1-0.4,1.6
								c-0.3,1.6-0.3,3.3,0.1,4.9c0,0.2,0.1,0.4,0.1,0.6c0.1,0.4,0.2,0.7,0.4,1.1c1-0.2,1.9-0.4,2.7-0.7l0-0.1
								C63,161,62.7,160.1,62.5,159.1z"/>
						</g>
					</g>
					<g>
						<path class="st34" d="M67.6,149.9c-1.1-0.3-2.2-0.5-3.2-0.7L64.3,161"/>
						<g>
							<path class="st34" d="M64.3,161l0.1-0.4c0-0.1-0.1-0.2-0.1-0.3L64.3,161z"/>
							<path class="st34" d="M66.8,152.6"/>
						</g>
					</g>
					<g>
						<path class="st34" d="M71.5,151.4c-1-0.5-2-0.9-3-1.2l-3.3,11.1L71.5,151.4z"/>
						<path class="st34" d="M70.7,152.2c0,0,0.1,0.1,0.1,0.1l0.2-0.2l-0.6-0.2C70.5,152,70.6,152.1,70.7,152.2z"/>
					</g>
					<g>
						<path class="st34" d="M74.5,153c-0.8-0.5-1.5-0.9-2.2-1.2l-5.4,8.6L74.5,153z"/>
						<g>
							<path class="st34" d="M67.1,161.3c-0.5,0.5-1.1,0.9-1.6,1.2c0.6,0.7,1.2,1.4,1.9,2c0.2-0.2,0.5-0.4,0.7-0.6
								c2-1.7,3.3-3.8,4-6.2c0.1-0.2,0.1-0.3,0.1-0.5c0.1-0.3,0.1-0.6,0.1-0.9l-4.9,4.7C67.5,161,67.3,161.2,67.1,161.3z"/>
							<path class="st34" d="M79.8,157c-1.5-1.4-3-2.5-4.5-3.5l-1.5,1.5c0.1,1,0.1,2.1-0.3,3.2c-0.9,3.1-2.5,5.5-5,7.4
								c1.4,1.2,2.9,2.2,4,2.6C73.5,164.2,76,160.5,79.8,157z"/>
							<g>
								<path class="st34" d="M70.8,154.2l-3.9,6.2l3.6-3.5l0,0C70.9,155.9,71,155,70.8,154.2z"/>
								<path class="st34" d="M67.2,161.2c-1.1,0.9-2.2,1.6-3,1.9c-3.3,1.1-7.9,1.5-10.3,1c0,0,0,0,0,0c1.6,0.8,3,2.3,4.3,4.1
									c0,0,0,0,0,0c0.5-0.1,1-0.2,1.5-0.4c3.7-1,6.5-2.3,8.5-4c2-1.7,3.3-3.8,4-6.2c0.1-0.2,0.1-0.3,0.1-0.5
									c0.1-0.3,0.1-0.6,0.1-0.9l-4.9,4.7C67.5,161,67.4,161.1,67.2,161.2z"/>
							</g>
						</g>
					</g>
				</g>
			</g>
		</g>
	</g>
	<circle class="st35" cx="106.8" cy="106.8" r="105.6"/>
</g>
</svg>
