<?xml version="1.0" encoding="utf-8"?>
<!-- Generator: Adobe Illustrator 22.0.1, SVG Export Plug-In . SVG Version: 6.00 Build 0)  -->
<svg version="1.1" id="Layer_1" xmlns="http://www.w3.org/2000/svg" xmlns:xlink="http://www.w3.org/1999/xlink" x="0px" y="0px"
	 viewBox="0 0 212.3 212.3" style="enable-background:new 0 0 212.3 212.3;" xml:space="preserve">
<style type="text/css">
	.st0{clip-path:url(#SVGID_2_);}
	.st1{fill:#D88D71;}
	.st2{fill:#EF9D78;}
	.st3{fill:#C1272D;}
	.st4{fill:#ED1E79;}
	.st5{fill:#FFBA85;}
	.st6{fill:#9E005D;}
	.st7{fill:#FFFFFF;stroke:#680100;stroke-width:2.012;stroke-linecap:round;stroke-linejoin:bevel;stroke-miterlimit:10;}
	.st8{stroke:#680100;stroke-width:2.012;stroke-linejoin:bevel;stroke-miterlimit:10;}
	.st9{fill:#FFFFFF;stroke:#680100;stroke-width:1.8793;stroke-linecap:round;stroke-linejoin:bevel;stroke-miterlimit:10;}
	.st10{fill:none;stroke:#D4145A;stroke-width:1.8793;stroke-linecap:round;stroke-linejoin:bevel;stroke-miterlimit:10;}
	.st11{fill:none;stroke:#680100;stroke-width:1.8793;stroke-linecap:round;stroke-linejoin:bevel;stroke-miterlimit:10;}
	.st12{fill:#E5CFB1;stroke:#C1272D;stroke-width:1.8793;stroke-linecap:round;stroke-linejoin:round;stroke-miterlimit:10;}
	.st13{fill:#FF1D25;}
	.st14{fill:#FF7BAC;}
	.st15{fill:#E2B7C9;}
	.st16{fill:none;stroke:#FF7BAC;stroke-width:1.8793;stroke-linecap:round;stroke-linejoin:round;stroke-miterlimit:10;}
	.st17{fill:none;stroke:#DB4F88;stroke-width:2.012;stroke-linecap:round;stroke-linejoin:round;stroke-miterlimit:10;}
	.st18{fill:#FFFFFF;}
	.st19{fill:none;stroke:#EDEDED;stroke-width:1.0968;stroke-miterlimit:10;}
</style>
<g>
	<g>
		<defs>
			<circle id="SVGID_1_" cx="106.1" cy="106.1" r="105.6"/>
		</defs>
		<clipPath id="SVGID_2_">
			<use xlink:href="#SVGID_1_"  style="overflow:visible;"/>
		</clipPath>
		<g class="st0">
			<g>
				<path class="st1" d="M119.4,119.5c0,0-0.8,8.9-0.1,11.9c0.6,3,12.3,4.7,12.3,4.7l-0.9,32.9l-48.8-0.4l-3.5-19.5
					c0,0,17.1-14.6,17.9-18.2s1.1-10.7,1.1-10.7L119.4,119.5z"/>
				<path class="st2" d="M127.6,135.3c-2.9,4-8.3,9.5-16.9,12.7c-14.4,5.4-32.3,1.1-32.3,1.1l3.5,19.5l48.8,0.4l0.9-32.9
					C131.6,136.1,129.8,135.8,127.6,135.3z"/>
				<path class="st3" d="M96.4,128.8c0,0,3.9,1.8,10.6,2c6.7,0.3,13.3-1.4,13.3-1.4l1.8,2.3c0,0-6.7,2.9-14.2,2.4
					c-9.6-0.6-13.6-3.3-13.6-3.3L96.4,128.8z"/>
				<path class="st4" d="M57.9,180.3c0,0-1,5,3.8,6s5.7-1.8,10.1-2.8c4.4-1,5.8-4.8,5.8-4.8l-1.9-15.7L57.9,180.3z"/>
				<path class="st4" d="M131.8,181.1c0,0-1,5,3.8,6c4.8,1,7.4,0.3,11.8-0.8c4.4-1,8.6-7.3,8.6-7.3l-6.4-15.2l-14.7-1.4L131.8,181.1
					z"/>
				<path class="st5" d="M104.7,226.1c14.2-0.1,23.1-0.6,23.1-0.6s0.4-4.4,1-8.8c0.6-4.2,2-15.5,2-15.5l-55,2.6c0,0,1.1,5.5,1.5,9.8
					c0.4,4.3,1,9.1,1,9.1S91.5,226.2,104.7,226.1z"/>
				<path class="st6" d="M77.2,136.9c0,0,1.9,11,3.3,15.8c1.4,4.8,3.7,7,8.4,8.4c4.7,1.3,31.5-0.3,36.6-4.4c2.3-1.8,4-14.7,2.5-20.6
					l6.3,1c0,0-0.6,11.4,0.4,22.1c1,10.7,2.6,14,1.9,20.3c-0.6,6.3-6,23.4-6.3,25.3c-0.4,1.9-4.5,9.4-25.4,8.9s-28.4-6.2-28.9-8.3
					c-0.5-2.1-2.5-32.7-2-37s0.8-6.6,0.3-15.6c-0.5-9.1-1.7-14.9-1.7-14.9L77.2,136.9z"/>
				<path class="st4" d="M97.9,120c0,0,1.9,8.7-1.5,14.6c-3.4,5.9-10.1,7.5-10.3,11.6c-0.3,4,4.7,7.8,4.7,8.8s-10.2,2.1-13.4-3.2
					c-3.4-5.6-3.6-11.9,0.2-14.9l-4.9,1.3l-24.1,32.3c0,0-6.2-0.5-6.7-7.9s9.7-15.1,10.2-24.5s-4.5-11.3-3.5-17
					c1-5.7,10.8-17.6,11.8-24.4c1-6.8,1.6-32.4,9.9-43.6s22.5-14.3,25.8-15.8c4.3-2,7.4-6.2,7.8-7.4c0.4-1.3-4.8-4-5.2-7
					c-0.4-3,4.1-9.2,10.8-12.4c6.8-3.3,17.8-3.6,19.5,1.1c3.6,10.1-11.2,16.2-11.2,17.6s3.6,6,7.2,7c3.5,1,10.4-0.5,15.6,4.3
					c5.2,4.8,8.6,27.2,12.4,33.4c3.9,6.3,16,12.7,17.9,21.8c1.9,9.1-6.4,23.1-6.5,29.4c-0.1,6.3,4,13,3.6,18.1
					c-0.4,5.2-5.7,7.4-6.8,13.2c-1.1,5.8-10.6,9.4-10.6,9.4L135,137.2c0,0-13.1-1.8-15.1-4.8c-2-3-0.5-13-0.5-13l-10.4-4.7L97.9,120
					z"/>
				<path class="st2" d="M77.8,101.4c0,0-0.1,10.7,13,16.2s25.4,3.2,31.6,0.5c9.8-4.3,16.5-20.5,16.5-20.5s6.4,0.9,9.8-3
					c3.4-3.9,4.1-8.8,0.5-13.2c-3.6-4.4-10.3,5.3-10.9,6.3c0,0-4.9-9.7-7.2-16.7c-2.1-6.8-8.7-10.4-4.8-18.7c0,0-5.9,6.5-15.8,5.7
					s-14.1-5-15.3-7.4c0,0-12.6,8.8-13.8,14.5s0.8,10.3,0.1,21.3C80.7,95.4,78.8,95.3,77.8,101.4z"/>
				<path class="st5" d="M96.8,119.6c9.6,1,18.4-1.9,23.3-3.8c5.4-2,15.1-11.1,15.1-23.8c0-12.7-6-24.5-16.1-28.8
					c-9.2-4-27.9-2.4-38.2,3.3c-0.6,5,1,9.7,0.4,19.6c-0.5,9.3-2.5,9.2-3.5,15.2c0,0-0.1,10.7,13,16.2
					C92.8,118.4,94.8,119.1,96.8,119.6z"/>
				<path class="st7" d="M85.2,79.2c0,0,10.1,0,12.1,2"/>
				<circle class="st8" cx="94.1" cy="84" r="4"/>
				<path class="st9" d="M130.9,78.7c0,0-8.8,0-10.5,2"/>
				<circle class="st8" cx="123.5" cy="83.5" r="4"/>
				<path class="st10" d="M80.9,76.6c0,0,6-4.5,12.6-4.5"/>
				<path class="st10" d="M120.6,71.3c5,0.3,11.1,2.4,11.1,2.4"/>
				<path class="st11" d="M106.2,78.5c0,0,1.4,5.5-0.1,8.2c-1.5,2.6-4.5,1.2-4.5,4.3c0,1,1.7,4.7,6.1,4.5c4.4-0.3,4.3-2.1,4.3-2.1"
					/>
				<path class="st11" d="M99,102.1c0,0,1,3.4,6.2,3.5c5.2,0.1,7.7-3.3,7.7-3.3"/>
				<line class="st12" x1="107.8" y1="132.5" x2="107.8" y2="137.1"/>
				<circle class="st13" cx="107.8" cy="138.5" r="3.1"/>
				<path class="st5" d="M104.3,195.7c0.1,0.3,5.2-2.2,6.7-2.2c3.6,0,6.9,2.8,8.8,5.2c1.9,2.4,6.8,2.3,8.9,3
					c2.1,0.8,14.9,5.6,20.7,6.8c7.7,1.5,17.5,2.9,23.9,2.8c7.2-0.1,14.8,0.3,17-1.8c2.1-2,2.3-7,0.3-9.6c-2-2.5-38.2-52.5-44.5-57.5
					c-5.1-4-8.7-5.1-11.7-5.1s0.8,28.2,0.8,28.2s11.6,13.7,16,17c4.4,3.3,19.4,16.3,19.4,16.3s-4.1-2.1-5.5-2.1
					c-1.4,0-7.8-0.3-13.3-0.4c-5.5-0.1-17.7-0.1-21-1.6c-3.3-1.5-4.1-10.4-4.3-13.3c-0.1-2.9,0.3-9.3-0.9-10.3
					c-1.1-1-3.8-1.8-6.4-3.4c-2.6-1.6-5-4.7-6.2-4.7c-2,0-3.3,1.3-5.9,3.1c-1.6,1.1-3.9,3-3.9,4.4c0,1.4-0.3,3,1.1,3.5
					c1.4,0.5,1.5-3,2.9-3.6c1.4-0.6,6.4-1.5,8.7,1c2.3,2.5,6,4.4,4.1,10.9s-2.4,6.4-4.8,6.9c-2.4,0.5-3.9,0.5-6.5,1.3
					C106.9,191,103.1,193.3,104.3,195.7z"/>
				<path class="st5" d="M72.5,138.2c0,0,2,8.4,2.3,12.5c0.3,4.1-0.8,15.6-0.8,15.6s-19.9,23-26.4,29.1
					c-6.5,6.2-13.1,11.7-13.1,11.7s17.6-8.7,21.9-10.1s18.1-5.4,19.2-6.2s3.3-4.8,3.9-7.5c0.6-2.8,1-8,2-9.7c1-1.6,5.2-4,6.3-5.3
					c1.1-1.3,4.7-5.1,5.8-5.1c1.1,0,3.9,1.8,4.6,2.2c0.8,0.4,4,1,4.5,1.8c0.5,0.8,0.3,5,0.1,5.8c-0.1,0.8-1.7-0.9-2-1.9
					c-0.3-1-4.5-2.1-5.1-1.9c-0.6,0.1-3.6,1.2-4.4,3.4c-0.9,2.3-1.8,4.2-1.3,8s2.5,7.7,7.5,9.1c5,1.4,5.8,3.4,5.8,4.5
					s-0.1,1.6-0.1,1.6s-2.3-2.4-6.2-3.3c-3.9-0.9-7.7-0.6-9.4,1.8c-1.8,2.4-9.8,1-12.2,2.1c-2.4,1.1-25.4,18.6-30.7,21.6
					s-12.4,7.7-15.1,6.8s-8.4-11.2-6.9-18.5c1.5-7.3,39.6-62.3,43.3-65.3C69.8,138.1,72.5,138.2,72.5,138.2z"/>
				<path class="st14" d="M78.4,222.7c0,0,16.6,3.5,24.8,3.5s24.6-2.5,24.6-2.5s0.2,6,1.3,9.9c1.2,3.9,18,29,19.5,39.6
					c1.2,8.1,7.3,76.7,6.5,84s-2.3,11.8-2,13.3c0.3,1.5,3,1.8,3.3,3c0.3,1.3-1.5,4.5-1.3,6c0.3,1.5,2.3,1.3,2.5,2s-1.8,3.3-1.8,4
					s1,1.8,1.5,2.8s0,5.8,0,7c0,1.3,2.5,2.3,2.5,6.5c0,4.3,1,19.1,1.8,23.4s5,14.3,5,19.6c0,5.3-0.5,7.5-0.8,8.3s-4.5,3.8-9.1,4.8
					c-4.5,1-12.6,1.8-14.1,0c-1.5-1.8-12.3-29.4-13.1-35c-0.8-5.5-4.3-7.8-3.3-10.3c1-2.5-0.5-13.8-1.8-16.6
					c-1.3-2.8-1.5-8.8-1.5-10.1c0-1.3-2.8-1.8-2.8-2.8s1.5-5.3,1.5-6.3s-3.5-2.3-3.5-4c0-1.8,1.5-3.5,1.3-5.3
					c-0.3-1.8-11.6-71.4-12.8-73.4c-1.3-2-3-4-3.8-3.3c-0.8,0.8-3.5,78.5-2.5,81.2c1,2.8,3.3,4,3.3,5.8s-1.8,6.3-1.8,7.8
					c0,1.5,1.3,3,1.3,5.3s-1.5,3.8-1.5,5.8s-1.5,49.8-2.3,53.3c-0.8,3.5-1.3,6.8-2,7.5c-0.8,0.8-7,2.5-10.1,2.5
					c-3,0-12.1-1.3-13.1-3c-1-1.8-4.3-30.9-4.3-36c0-5-2.3-9.3-2.3-11.6c0-2.3,0.3-9.1,0-10.1c-0.3-1-2.5-1.3-2.5-3s1-3.5,1-6
					s-2.8-4-2.8-5.8s1-4.5,1-5.8c0-1.3-1.8-5-1.5-6.8c0.3-1.8,0.8-8.8,0.8-9.8s-6.6-70.7-6.8-75.4c-0.5-12.6,5.5-27.7,8.6-34
					c3-6.3,10.1-19.9,11.1-21.4C77.8,230.1,78.4,222.7,78.4,222.7z"/>
				<path class="st2" d="M75.5,513.6c0,0,3.9,3,12.4,3s12.8-2.9,12.8-2.9s-5.8-14.1-6-18.6c-0.3-4.5,0.3-30.7,0.3-30.7l-15.7,2.3
					c0,0,2.6,17.2,1.6,24.4C79.9,498.2,73.7,510.2,75.5,513.6z"/>
				<path class="st2" d="M167,461.6c0,0,0.8,13.2,1.3,15.6s1.6,5.7,1.9,7.7c0.3,2,2.5,24.4,1.5,25.8c-1,1.4-3,5.3-10.9,5.4
					c-7.9,0.1-16.7-0.9-18.1-3c-1.4-2.1,5-6.9,6.7-9.2c2.3-3,5.3-7.9,5.4-10.1c0.1-2.1,0.6-9.4-1.3-16.3c-1.9-6.9-4.8-13.1-4.8-13.1
					L167,461.6z"/>
				<path class="st15" d="M74.7,458.7l-2,0.8c0,0-0.6,4.5-0.1,5.9c0.5,1.4,4.8,3.3,6.4,3.3c1.6,0,14.8-2.4,16.1-2.4s5.2-0.1,6-0.5
					c0.9-0.4,0.4-2.5,0.4-4.3s0-4.7-1.1-4c-1.1,0.6-7.7,2.5-12.3,2.9C83.4,460.7,74.7,458.7,74.7,458.7z"/>
				<path class="st15" d="M145.5,458.9c-2.1,1.4-3.5,0.9-3.8,2.1s0.8,4.7,1.3,5.5c0.5,0.9,12.8,0.1,16.7-1.1s10.6-4.4,11.2-5
					c0.6-0.6,0.4-2.8,0.1-4.1c-0.3-1.4-0.5-4.8-2-4.1c-1.5,0.6-7.7,5.4-11.3,5.7C154.1,458,145.5,458.9,145.5,458.9z"/>
				<path class="st13" d="M79.5,477.1c0,0,4.7,0.6,7.7,0.5c3-0.1,8.4-1.1,8.4-1.1l-0.3,5c0,0-4.7,1.4-7.5,1.4
					c-2.9,0-7.9-0.5-7.9-0.5L79.5,477.1z"/>
				<path class="st13" d="M76.5,502.9c0,0,5.4-1.4,9.7-1.5c4.3-0.1,11.3,0.9,11.3,0.9l2,5c0,0-8-0.9-12.4-0.5
					c-4.4,0.4-12.7,2.1-12.7,2.1L76.5,502.9z"/>
				<path class="st6" d="M75,513.9l0.4,7.2c0,0,1.5,5.4,13.6,5.3s14.5-5.4,14.5-5.4l-1.3-7.7c0,0-4.3,3.5-13.1,3.4
					S75,513.9,75,513.9z"/>
				<path class="st6" d="M141.6,513.3l-0.1,10.4c0,0,10.6,2.6,18.4,1.9c7.8-0.8,13.2-5.2,13.6-6s-0.6-12.1-0.6-12.1
					s-1.4,6.2-6.7,7.7c-5.3,1.5-15.2,1.3-19,0.3S141.6,513.3,141.6,513.3z"/>
				<path class="st13" d="M146.7,505.3c0,0,13,1.3,16.1,3.5c3.1,2.3,5,5.4,5,5.4s3.1-1.8,3.9-3.5c0.8-1.8,0.1-4.5,0.1-4.5
					s-3.5-2.9-8.8-4.4c-5.3-1.5-12.7-2-12.7-2L146.7,505.3z"/>
				<path class="st13" d="M152.2,476.3c0,0,6.2,0.8,9.6,0.4c3.4-0.4,6.9-1.5,6.9-1.5l0.9,3.6c0,0-2.4,2.5-7.3,3.1
					c-4.9,0.6-9.7-0.3-9.7-0.3L152.2,476.3z"/>
				<path class="st5" d="M93.8,368c0,0-5,1.7-9.1,1.5s-9.9,0.8-10.6,2.7c-0.7,1.8-0.8,4.4-1,6c-0.2,1.7-2,2.9-2,3.7s3.5,1.8,3.9,3.2
					c0.3,1.3-1.3,3.5-1,5s-0.7,1.3,6,1.7c6.7,0.3,19.1-1.3,17.6-1.8c-1.5-0.5-3.7-2.2-3.7-2.2s2.9-0.5,3.2-2.7
					c0.3-2.2,0.3-7.5-1.5-8s-4.5-2.9-4.5-4.2C91.1,371.5,93.8,368,93.8,368z"/>
				<path class="st5" d="M124.9,364.7c1.3,0,14.1-1.8,17.4-1.8s3.4,1.5,3.5,3.2c0.2,1.7,0.7,3.4,2.3,3.5c1.7,0.2,2.2,0.8,2.3,2.3
					c0.2,1.5,1,3.7,0.5,4.7s-6,5-11.2,5.5c-5.2,0.5-13.6,1.7-14.3,0.5c-0.7-1.2,0.2-1.2,1.5-3.2c1.3-2,1-4.4,1-4.4s-2.7-0.5-3-1.3
					c-0.3-0.8,1.7-3.5,1.8-4.9s-2.7-4.2-2.7-4.2H124.9z"/>
				<path class="st14" d="M102.3,28.5c0,0,7.7,2,10.2,1.5c2.5-0.5,6.4-2,6.4-2l0.8,3c0,0-2.2,1.5-7.5,2.3c-6.7,1-10.9-1.7-10.9-1.7
					l0.7-2.3L102.3,28.5z"/>
				<path class="st16" d="M142,94.6c0.2,0.1,5.3,11.2,0,11.3c-2.7,0.1-1.5-6.5-1.5-6.5"/>
				<path class="st5" d="M-1.3,150.4"/>
				<path class="st17" d="M78,229.9c0,0,12.8,7,18.6,7.8"/>
				<path class="st17" d="M107.7,238.7c0,0,11.7-0.6,14.1-1.5c4-1.5,5.3-2.8,5.3-2.8"/>
				<line class="st17" x1="103.4" y1="227.4" x2="103.9" y2="274.9"/>
				<path class="st17" d="M109.7,226.1c0,0,2.8,4.5,2.8,6.8s0.3,4.8,0.3,4.8"/>
				<path class="st17" d="M112.7,226.3c0,0,1.3,2,2,4.5c0.8,2.5,0.8,5.8,0.8,5.8"/>
				<path class="st17" d="M94.1,226.6c0,0-2,2-2,4c0,2-0.3,5-0.3,5"/>
				<path class="st17" d="M90.1,225.6c0,0-1.3,2-1.3,3.5s-0.3,5.3-0.3,5.3"/>
				<path class="st17" d="M119.5,238.7c0,0,3,8.3,7.5,12.1s14.1,8.3,14.1,8.3"/>
				<path class="st17" d="M87.6,235.9c0,0-8.3,11.6-11.8,14.3s-8,4.5-8,4.5"/>
				<path class="st17" d="M110.9,239.9c0,1.5,2,17.6,2.5,20.9c0.5,3.3,0.8,5.3,0.3,8.3c-0.5,3-6,8-6,8"/>
				<path class="st17" d="M100.4,289.5c0,0-6.3-6.8-10.3-7.8"/>
				<path class="st17" d="M107.4,289.5c0,0,1.8-4,5-6.8c3.3-2.8,8.3-5,8.3-5"/>
				<circle class="st17" cx="107.2" cy="232.6" r="2.3"/>
				<circle class="st18" cx="91.9" cy="81.9" r="1.4"/>
				<circle class="st18" cx="121.3" cy="81.7" r="1.4"/>
				<g>
					<g>
						<path class="st18" d="M128.3,317.6c4-3.4,6.5-6.7,8-10C134.8,310.8,132.2,314.1,128.3,317.6z"/>
						<path class="st18" d="M133.2,291.9c0.3,0.1,0.6,0.3,0.8,0.4C133.8,292.2,133.5,292,133.2,291.9z"/>
						<polygon class="st18" points="118.8,316.5 118.8,316.5 118.8,316.5 						"/>
						<path class="st18" d="M126.6,319C126.6,319,126.6,319,126.6,319c0.6-0.5,1.1-0.9,1.7-1.4C127.7,318,127.2,318.5,126.6,319
							C126.6,319,126.6,319,126.6,319z"/>
						<path class="st18" d="M134.5,292.6c0.3,0.2,0.5,0.4,0.8,0.6C135,293,134.7,292.8,134.5,292.6z"/>
					</g>
					<g>
						<path class="st18" d="M124.8,303c-0.2-0.3-0.3-0.5-0.5-0.8C124.5,302.5,124.6,302.7,124.8,303z"/>
						<path class="st18" d="M124,301.6c-0.1-0.2-0.2-0.4-0.3-0.6C123.8,301.2,123.9,301.4,124,301.6z"/>
						<path class="st18" d="M125.3,303.7c-0.1-0.2-0.2-0.3-0.3-0.5C125,303.3,125.1,303.5,125.3,303.7z"/>
						<path class="st18" d="M143.5,312.5c0.4-0.2,0.8-0.4,1.3-0.6c0,0,0,0,0,0C144.3,312,143.9,312.2,143.5,312.5z"/>
						<path class="st18" d="M128.1,311.9c1.4,1,3,1.9,4.8,2.8C131.1,313.8,129.5,312.9,128.1,311.9z"/>
						<path class="st18" d="M138.3,316.9C138.3,316.9,138.3,316.9,138.3,316.9c-2-0.7-3.8-1.4-5.4-2.1
							C134.5,315.5,136.3,316.2,138.3,316.9z"/>
						<path class="st18" d="M143.4,312.5c0,0,0.1-0.1,0.1-0.1C143.4,312.5,143.4,312.5,143.4,312.5z"/>
						<g>
							<path class="st18" d="M134.7,310.4c-0.2-0.1-0.5-0.1-0.7-0.2c-0.3-0.1-0.7-0.2-1-0.4c-0.7-0.3-1.4-0.5-2.1-0.8
								c-0.9,0.9-2,1.8-3.1,2.7c0.1,0.1,0.2,0.2,0.3,0.2c1.1,0.8,2.3,1.5,3.7,2.2C132.9,312.9,133.9,311.7,134.7,310.4z"/>
							<path class="st18" d="M142.8,311.9c-0.1,0-0.2,0-0.4,0c-0.7,0-1.4-0.1-2.1-0.2c-0.2,0-0.4-0.1-0.6-0.1c-1-0.2-2-0.4-3-0.6
								c-0.8,1.4-1.8,2.7-3,4.1c1.5,0.7,3.2,1.3,4.9,1.9c-0.1,0.1-0.1,0.2-0.2,0.3c1.9-2.3,4.1-4,6.4-5.3h0
								C144.2,311.9,143.5,311.9,142.8,311.9z"/>
							<path class="st18" d="M137.2,318.6c-1.8-0.6-3.5-1.3-5-2c-1.2,1.2-2.5,2.4-4,3.7l-0.1-0.1c1.8,1.2,3.6,2.8,5.6,4.7
								c1.1-2.6,2.4-4.8,3.8-6.7C137.4,318.3,137.3,318.5,137.2,318.6z"/>
							<path class="st18" d="M128.3,317.6c0.8-0.7,1.4-1.3,2.1-1.9c-1.6-0.9-3-1.8-4.2-2.8c-2.6,1.8-5.3,3.1-7.3,3.6h0
								c3.1,0.5,5.4,1.4,7.7,2.7l-0.1,0C127,318.6,127.7,318,128.3,317.6z"/>
						</g>
						<path class="st18" d="M143.4,312.5"/>
					</g>
					<g>
						<path class="st18" d="M127.7,304.9l-6.2-12.6c-1.2,0.4-2.3,0.9-3.3,1.4L127.7,304.9z"/>
						<g>
							<path class="st18" d="M123.2,299.6l4.4,5.3l-4.4-9.1C122.8,296.9,122.9,298.2,123.2,299.6z"/>
							<path class="st18" d="M128.1,306.9c0,0-1.4-1.4-1.5-1.5l-0.3-0.4c0.9,1.1,1.9,2,2.8,2.8L128.1,306.9z"/>
							<path class="st18" d="M110.6,298.3c4.4,5.9,7.6,11.1,8.1,16.2c1.6-0.5,3.7-1.6,5.8-2.9c-3.1-2.9-4.9-6.5-5.6-10.8
								c-0.3-1.5-0.2-3,0.1-4.3l-1.9-2.3C114.9,295.3,112.8,296.7,110.6,298.3z"/>
							<path class="st18" d="M126.3,305l-5.6-6.6c0,0.4,0,0.8,0,1.3c0,0.2,0.1,0.5,0.1,0.7c0.1,0.8,0.3,1.5,0.5,2.3
								c0.7,2.2,1.7,4.2,3.2,6c0.2,0.2,0.3,0.4,0.5,0.6c0.4,0.4,0.7,0.8,1.1,1.1c1.1-0.8,2.1-1.6,2.9-2.5l-0.1-0.1
								C128.1,307.1,127.2,306.1,126.3,305z"/>
						</g>
					</g>
					<g>
						<path class="st18" d="M127,290.7c-1.5,0.3-3,0.7-4.3,1.1l7.1,14.4"/>
						<g>
							<path class="st18" d="M129.8,306.2l-0.1-0.5c-0.1-0.1-0.2-0.2-0.3-0.3L129.8,306.2z"/>
							<path class="st18" d="M127.7,294.5"/>
						</g>
					</g>
					<g>
						<path class="st18" d="M132.6,290.1c-1.5,0.1-3,0.2-4.4,0.4L131,306L132.6,290.1z"/>
						<path class="st18" d="M132.2,291.5c0.1,0,0.2,0.1,0.3,0.1l0-0.4l-0.8,0.2C131.8,291.4,132,291.4,132.2,291.5z"/>
					</g>
					<g>
						<path class="st18" d="M137.3,290.2c-1.2-0.1-2.4-0.1-3.5-0.1l-1.4,13.9L137.3,290.2z"/>
						<g>
							<path class="st18" d="M133.4,304.9c-0.4,0.9-0.8,1.8-1.3,2.5c1.1,0.5,2.3,0.9,3.6,1.3c0.2-0.4,0.4-0.7,0.5-1.1
								c1.4-3.3,1.7-6.6,1.1-10.1c0-0.2-0.1-0.5-0.1-0.7c-0.1-0.4-0.3-0.8-0.4-1.2l-3.1,8.8C133.6,304.3,133.5,304.6,133.4,304.9z"
								/>
							<path class="st18" d="M146.3,291.9c-2.6-0.8-5.2-1.3-7.7-1.6l-1,2.8c0.8,1.1,1.3,2.5,1.6,4c0.8,4.3,0.3,8.2-1.6,12
								c2.5,0.6,4.9,0.9,6.5,0.7C142.9,304.5,143.7,298.5,146.3,291.9z"/>
							<g>
								<path class="st18" d="M133.5,294l-1,10l2.3-6.5l0,0C134.6,296.1,134.2,294.9,133.5,294z"/>
								<path class="st18" d="M133.4,304.8c-0.7,1.8-1.7,3.3-2.5,4.2c-3.3,3.3-8.8,6.7-12,7.5c0,0,0,0,0,0c2.4,0,5,1,7.8,2.5
									c0,0,0,0,0,0c0.6-0.5,1.1-0.9,1.7-1.4c4-3.4,6.5-6.7,8-10c1.4-3.3,1.7-6.6,1.1-10.1c0-0.2-0.1-0.5-0.1-0.7
									c-0.1-0.4-0.3-0.8-0.4-1.2l-3.1,8.8C133.6,304.3,133.5,304.5,133.4,304.8z"/>
							</g>
						</g>
					</g>
				</g>
			</g>
		</g>
	</g>
	<circle class="st19" cx="106.1" cy="106.1" r="105.6"/>
</g>
</svg>
