<?xml version="1.0" encoding="utf-8"?>
<!-- Generator: Adobe Illustrator 22.0.1, SVG Export Plug-In . SVG Version: 6.00 Build 0)  -->
<svg version="1.1" id="Layer_1" xmlns="http://www.w3.org/2000/svg" xmlns:xlink="http://www.w3.org/1999/xlink" x="0px" y="0px"
	 viewBox="0 0 1920 800" style="enable-background:new 0 0 1920 800;" xml:space="preserve">
<style type="text/css">
	.st0{clip-path:url(#SVGID_2_);}
	.st1{fill:url(#SVGID_3_);}
	.st2{fill:url(#SVGID_4_);}
	.st3{fill:url(#SVGID_5_);}
	.st4{fill:url(#SVGID_6_);}
	.st5{fill:url(#SVGID_7_);}
	.st6{fill:url(#SVGID_8_);}
	.st7{fill:url(#SVGID_9_);}
	.st8{fill:url(#SVGID_10_);}
	.st9{fill:url(#SVGID_11_);}
	.st10{fill:url(#SVGID_12_);}
	.st11{fill:url(#SVGID_13_);}
</style>
<g>
	<g>
		<g>
			<defs>
				<rect id="SVGID_1_" x="-0.4" y="0" width="1920.2" height="800"/>
			</defs>
			<clipPath id="SVGID_2_">
				<use xlink:href="#SVGID_1_"  style="overflow:visible;"/>
			</clipPath>
			<g class="st0">
				<g>
					
						<linearGradient id="SVGID_3_" gradientUnits="userSpaceOnUse" x1="-895.5047" y1="136.7461" x2="-623.1816" y2="1764.0497" gradientTransform="matrix(-0.9804 0.1972 0.1972 0.9804 1072.2806 2.437)">
						<stop  offset="0" style="stop-color:#F0CE3A"/>
						<stop  offset="1" style="stop-color:#DB3362"/>
					</linearGradient>
					<path class="st1" d="M1086,535.1c62.1-15.6,128.6,0.9,176.8,44c39.7,35.5,55.2,153.6,93.9,168.3c22.3,8.5,45.7-9.3,60.2-28.4
						c24.6-32.5,48-54.5,85.3-71.1c37.5-16.7,91.4-8.7,122.6-37c39.3-35.7,22.6-132,37-182c18.3-63.4,52.6-121.5,98.2-168.4
						c93-95.6,209.5-124.3,337.1-114.7c104.7,7.9,107-130,207.8-153.1c84.9-19.4,172.4,34,195.2,119.5
						c16.9,63.4-4.4,127.4-49.1,167.6c-35.5,31.9-48.4,83.1-32.2,128.6c0.3,0.7,0.5,1.4,0.8,2.2c42,119.8,285.6,106.2,334.4,3.7
						c23.8-50,72.7-86.8,133.8-90.6c73.6-4.6,142.2,44.4,163.1,116.3c21.3,73.2-9.6,145.4-66.2,182.4c-41.4,27-60.8,77.1-50.7,126.1
						c35,171.5-71.1,350.4-252.6,387c-140.5,28.3-278.2-40.5-345.8-160.4c-29.6-52.5-91.2-75-146.6-53.5
						c-64.2,24.9-133.5,31.9-201.6,22c-56.5-8.3-108-33.5-158.5,9.5c-21.1,17.9-35,42.9-52.6,64.3
						c-78.6,95.9-224.9,110.3-321.1,31.8c-18.4-15-42.9-19.9-64.8-11.5c-134,51.5-146.8-96.3-247.2-112
						c-102.7-16.1-191.5-61.8-203-180.9C930.6,648.4,993.5,558.3,1086,535.1z"/>
				</g>
				<g>
					
						<linearGradient id="SVGID_4_" gradientUnits="userSpaceOnUse" x1="675.2422" y1="-723.2725" x2="947.5653" y2="904.031" gradientTransform="matrix(-0.9804 0.1972 0.1972 0.9804 1072.2806 2.437)">
						<stop  offset="0" style="stop-color:#F0CE3A"/>
						<stop  offset="1" style="stop-color:#DB3362"/>
					</linearGradient>
					<path class="st2" d="M-623.6,1.8c62.1-15.6,128.6,0.9,176.8,44c39.7,35.5,55.2,153.6,93.9,168.3c22.3,8.5,45.7-9.3,60.2-28.4
						c24.6-32.5,48-54.5,85.3-71.1c37.5-16.7,91.4-8.7,122.6-37c39.3-35.7,22.6-132,37-182C-29.4-167.9,4.8-226,50.5-272.9
						c93-95.6,209.5-124.3,337.1-114.7c104.7,7.9,107-130,207.8-153.1c84.9-19.4,172.4,34,195.2,119.5
						c16.9,63.4-4.4,127.4-49.1,167.6c-35.5,31.9-48.4,83.1-32.2,128.6c0.3,0.7,0.5,1.4,0.8,2.2C752-2.9,995.6-16.5,1044.4-119
						c23.8-50,72.7-86.8,133.8-90.6c73.6-4.6,142.2,44.4,163.1,116.3c21.3,73.2-9.6,145.4-66.2,182.4c-41.4,27-60.8,77.1-50.7,126.1
						c35,171.5-71.1,350.4-252.6,387C831.3,630.4,693.6,561.6,626,441.7c-29.6-52.5-91.2-75-146.6-53.5
						c-64.2,24.9-133.5,31.9-201.6,22c-56.5-8.3-108-33.5-158.5,9.5c-21.1,17.9-35,42.9-52.6,64.3
						c-78.6,95.9-224.9,110.3-321.1,31.8c-18.4-15-42.9-19.9-64.8-11.5c-134,51.5-146.8-96.3-247.2-112
						c-102.7-16.1-191.5-61.8-203-180.9C-778.9,115.1-716,25-623.6,1.8z"/>
				</g>
				<g>
					
						<linearGradient id="SVGID_5_" gradientUnits="userSpaceOnUse" x1="-195.0556" y1="-170.5133" x2="-2321.2302" y2="296.9876" gradientTransform="matrix(-1 0 0 1 1620.8635 0)">
						<stop  offset="0" style="stop-color:#F0CE3A"/>
						<stop  offset="1" style="stop-color:#DB3362"/>
					</linearGradient>
					<path class="st3" d="M2078.5,899.3c-7.4-51.3-41.5-95.8-91.3-110.3c-137.6-40.1-233.2-177-211.7-328.4
						c21.2-149.4,145.4-249.3,280.9-256.2c80.9-4.2,155.9-47.8,191.9-120.4c1.6-3.3,3.3-6.5,5.1-9.7c42.5-77.9,32-174.1-23.3-243.6
						c-128.4-161.5-130.7-397.5-2.7-561.5c50.5-64.7,77.9-145.2,69.7-226.9c-9.9-97.9,69.8-199.8,188.3-183
						c105.1,14.9,114.5,97.2,158.9,175.3C2706.4-856,2855.4-838.1,2936-740c80.2,97.7,116.3,226.5,98.5,351.6
						c-13.1,92.6-55,179.8-119.3,247.7C2855-77,2753.6-42.1,2748.1,57.9c-2.3,41.2,12.3,81.5,15.6,122.7c7.9,97.5-88,200.3-30,289.2
						c17.8,27.4,24.9,62,16.1,97.1c-14.7,58.5-66.2,63.3-126.2,56.9c-111-12-81.2-69.4-134.9-127.9c-18.1-19.7-47.8-29.3-73-20.2
						c-78.9,28.4-109.5,209.3-80.5,275.4c13.3,30.5,37.5,55.3,50.1,86.1c42.9,104.9-63.2,209.4-166.4,198
						C2142.5,1026.7,2088.4,967.5,2078.5,899.3z"/>
				</g>
				<g>
					
						<linearGradient id="SVGID_6_" gradientUnits="userSpaceOnUse" x1="-312.9756" y1="272.0024" x2="-98.4228" y2="1790.3756" gradientTransform="matrix(-0.8677 0.497 0.497 0.8677 1328.2122 -288.0991)">
						<stop  offset="0" style="stop-color:#FCEE21"/>
						<stop  offset="0.1142" style="stop-color:#FBDC20"/>
						<stop  offset="0.3551" style="stop-color:#F9BC1F"/>
						<stop  offset="0.5882" style="stop-color:#F8A61F"/>
						<stop  offset="0.8078" style="stop-color:#F7981E"/>
						<stop  offset="1" style="stop-color:#F7931E"/>
					</linearGradient>
					<path class="st4" d="M934.4,935.6c92.9-80.7,171.4-196.5,113-281.2c-1.4-2.1-2.8-4.1-4.2-6.2c-38.9-58.3-115.9-74.4-176.8-39.6
						c-141.4,80.8-334.2,44.7-429.6-106.5c-92.1-146-54.6-335.7,87.3-434c118.8-82.3,270-72.9,376.1,7.5
						c54.6,41.4,150.4-8.3,194.8-60.5c117.6-138.3,286.7-160.4,462.8-121.9c90.8,19.9,181.1-40.5,197.9-131.9
						c34.6-188.3,148.7-360.7,327.8-463.3c215.9-123.7,471.4-114.7,672.4,1.4c63.9,36.9,143.8,28.6,198.4-21
						c91.3-82.8,250.9-76.4,323.4,50.2c66.4,116.1,7.9,248.5-97,295.6c-65.5,29.4-102.9,100.3-93.6,171.6
						c34.3,263-89.1,532.8-333.5,672.7c-199.8,114.5-433.6,115.3-626.7,22.7c-84.1-40.3-186.4-3.8-224.1,81.6
						c-61.2,138.9-184.6,243.2-332.5,279.8c-69.5,17.2-111.1,86-96.1,156c25.7,119.7-25.1,250.5-141,316.9
						c-80.5,46.1-173.7,49.9-253.8,18.2c-55.2-21.8-117.8-14.2-163.4,23.8c-88.7,74.1-235.3,61.4-301.2-53.7
						c-91.2-159.2,43.2-246.5,175.2-288.8C829.5,1012.7,884.1,979.3,934.4,935.6z"/>
				</g>
				<g>
					
						<linearGradient id="SVGID_7_" gradientUnits="userSpaceOnUse" x1="563.2128" y1="138.97" x2="808.1844" y2="1602.8314" gradientTransform="matrix(-0.9992 -4.006930e-02 -4.006930e-02 0.9992 1331.4299 -70.7136)">
						<stop  offset="0" style="stop-color:#F0CE3A"/>
						<stop  offset="1" style="stop-color:#DB3362"/>
					</linearGradient>
					<path class="st5" d="M-138.2,358.9C-80.6,358.5-26,387,7,434.9c27.2,39.5,15.6,146,46.3,167.1c17.7,12.2,41.9,1.6,58.6-12
						c28.4-23.2,53.6-37.4,89.7-44c36.3-6.6,81.7,11.9,115-6.3c41.9-22.9,47.8-110.5,71.1-151.2c29.5-51.5,71.8-95,121.6-126.3
						c101.6-63.8,209.6-64.1,319-28.6c89.9,29.1,121.1-90.9,214.2-89.6c78.3,1.1,143.5,66.4,145.2,146c1.3,59-30.9,110.5-78.6,136.1
						c-37.9,20.4-60,62.4-55.5,105.6c0.1,0.7,0.1,1.4,0.2,2.1c11.2,113.7,227,153.5,291.5,74.3c31.4-38.6,81.9-60.4,136.2-50.8
						c65.3,11.6,114.9,69.1,117.9,136.4c3,68.5-39.3,125.1-96.7,145.3c-41.9,14.8-69.5,54.4-71.2,99.5
						c-5.8,157.3-136.7,291.2-303,284.5c-128.8-5.2-234.6-94.6-268.2-213.8c-14.7-52.1-63.8-85-116.8-78
						c-61.4,8.1-123.5-0.5-180.9-23.6c-47.6-19.2-87.3-52.2-140.6-25.4c-22.2,11.2-39.7,30-59.6,45
						c-89.1,67.1-220.1,48.6-287.5-40.5c-12.9-17-33.2-26.6-54.2-23.8c-128.1,16.6-107.9-115.4-192.3-150.4
						c-86.4-35.9-154.2-94.8-139-201.3C-298,424.9-223.9,359.5-138.2,358.9z"/>
				</g>
				<g>
					
						<linearGradient id="SVGID_8_" gradientUnits="userSpaceOnUse" x1="1452.1614" y1="-9.5487" x2="2031.9318" y2="1500.4028" gradientTransform="matrix(-1 0 0 1 1620.8635 0)">
						<stop  offset="0" style="stop-color:#F0CE3A"/>
						<stop  offset="1" style="stop-color:#FCFB5E"/>
					</linearGradient>
					<path class="st6" d="M-722.1,96.7c56.6,15.3,117.1-0.8,154.8-45.7c77.9-92.5,194.4-151.2,324.7-151.2
						c190.9,0,352.2,126.1,405.6,299.5c7.7,24.9,29.9,43,55.8,44.8c0.4,0,0.7,0.1,1.1,0.1c31.5,2.3,60.5-18.2,66.3-49.2
						C309.1,73.5,415.7-18.9,544.2-18.9c153.4,0,264.4,127.4,262.4,266.4c-0.7,52.4,27.7,99.7,73.5,125.2
						c46.9,26.1,78.7,76.5,78.3,134.2c-0.6,82.1-68.8,150.3-150.9,150.9c-57.7,0.4-108-31.4-134.1-78.3
						c-25.1-45.1-71.2-75.1-122.8-73.8c-0.9,0-1.8,0-2.6,0.1c-53.1,0.8-101.6,31.6-123.1,80.3C369.2,712.3,210.8,768.5,87.6,701.9
						C45.2,679-6,680.5-48.8,702.6c-219.5,113.7-494.4,10.1-586.5-215.5c-21.7-53.1-71.9-90.7-129.3-91.6
						c-77.5-1.2-150.6-62.1-150.6-152.1C-915.2,133.4-810.6,72.8-722.1,96.7z"/>
				</g>
				<g>
					
						<linearGradient id="SVGID_9_" gradientUnits="userSpaceOnUse" x1="-192.8151" y1="270.4534" x2="-48.8918" y2="868.2869" gradientTransform="matrix(-1 0 0 1 1620.8635 0)">
						<stop  offset="0" style="stop-color:#F0CE3A"/>
						<stop  offset="1" style="stop-color:#DB3362"/>
					</linearGradient>
					<ellipse class="st7" cx="1754.6" cy="515.8" rx="92.2" ry="92.3"/>
				</g>
				<g>
					
						<linearGradient id="SVGID_10_" gradientUnits="userSpaceOnUse" x1="1373.6647" y1="376.443" x2="1561.189" y2="1155.3875" gradientTransform="matrix(-1 0 0 1 1620.8635 0)">
						<stop  offset="0" style="stop-color:#F0CE3A"/>
						<stop  offset="1" style="stop-color:#DB3362"/>
					</linearGradient>
					<ellipse class="st8" cx="213.7" cy="515.7" rx="120.2" ry="120.2"/>
				</g>
				<g>
					
						<linearGradient id="SVGID_11_" gradientUnits="userSpaceOnUse" x1="506.6535" y1="666.5474" x2="696.0932" y2="1453.4481" gradientTransform="matrix(-1 0 0 1 1620.8635 0)">
						<stop  offset="0" style="stop-color:#F0CE3A"/>
						<stop  offset="1" style="stop-color:#DB3362"/>
					</linearGradient>
					<ellipse class="st9" cx="1080.3" cy="807.2" rx="121.4" ry="121.4"/>
				</g>
				<g>
					
						<linearGradient id="SVGID_12_" gradientUnits="userSpaceOnUse" x1="983.9928" y1="513.3682" x2="1083.6375" y2="927.2756" gradientTransform="matrix(-1 0 0 1 1620.8635 0)">
						<stop  offset="0" style="stop-color:#FCFB5E"/>
						<stop  offset="1" style="stop-color:#E2A12E"/>
					</linearGradient>
					<path class="st10" d="M659.8,683.2c0,35.3-28.6,63.9-63.8,63.9c-35.3,0-63.8-28.6-63.8-63.9c0-35.3,28.6-63.9,63.8-63.9
						C631.2,619.3,659.8,647.9,659.8,683.2z"/>
				</g>
				<g>
					
						<linearGradient id="SVGID_13_" gradientUnits="userSpaceOnUse" x1="-318.9044" y1="-1115.601" x2="-46.5814" y2="511.7026" gradientTransform="matrix(-0.9903 -0.1389 -0.1389 0.9903 991.7715 -83.5146)">
						<stop  offset="0" style="stop-color:#F0CE3A"/>
						<stop  offset="1" style="stop-color:#DB3362"/>
					</linearGradient>
					<path class="st11" d="M431-896.7c63.7,5.9,121,43.5,152.2,100.1c25.7,46.7,1.2,163.2,32.8,189.9c18.2,15.4,46.2,6.3,66.2-6.9
						c34-22.5,63.4-35.5,104.1-38.8c40.9-3.3,89.1,22.1,128,5.7c48.9-20.7,65-117,95.3-159.5c38.3-53.7,89.8-97.2,148.5-126.3
						c119.4-59.3,238.9-47.8,356,3.5c96.2,42.1,144-87.2,246.8-75.5c86.5,9.8,151.4,89.2,144.5,177.5
						c-5.1,65.4-46.3,118.8-101.9,141.9c-44.1,18.3-73.2,62.4-73,110.7c0,0.8,0,1.5,0,2.3c-0.1,127,234.2,194.8,314.3,114.3
						c39-39.3,97.3-57.8,156.3-41.1c71,20,119.5,89,115.4,163.8c-4.2,76.1-57.3,134-122.9,150.1c-48,11.8-82.9,52.6-89.7,102.2
						c-23.8,173.4-183.2,307.1-366.5,281.4c-141.9-19.9-249.1-130.5-273.1-266c-10.5-59.3-61.2-101-120.6-99.1
						c-68.8,2.2-136.5-14.1-197.5-46.1c-50.5-26.5-90.8-67.4-152.7-43.6c-25.8,9.9-47.2,28.8-70.9,43.3
						c-106,64.4-248.8,29.5-313.5-76.5c-12.4-20.3-33.9-33-57.4-32.4C408-317.6,444.9-461.3,355.4-509.4
						c-91.6-49.2-160.1-121.8-131.6-238C246.9-841.3,336.1-905.4,431-896.7z"/>
				</g>
			</g>
		</g>
	</g>
</g>
</svg>
