<?xml version="1.0" encoding="utf-8"?>
<!-- Generator: Adobe Illustrator 22.0.1, SVG Export Plug-In . SVG Version: 6.00 Build 0)  -->
<svg version="1.1" id="Layer_1" xmlns="http://www.w3.org/2000/svg" xmlns:xlink="http://www.w3.org/1999/xlink" x="0px" y="0px"
	 viewBox="0 0 1920 800" style="enable-background:new 0 0 1920 800;" xml:space="preserve">
<style type="text/css">
	.st0{clip-path:url(#SVGID_2_);}
	.st1{fill:url(#SVGID_3_);}
	.st2{fill:url(#SVGID_4_);}
	.st3{fill:url(#SVGID_5_);}
	.st4{fill:url(#SVGID_6_);}
	.st5{fill:url(#SVGID_7_);}
	.st6{fill:url(#SVGID_8_);}
	.st7{fill:url(#SVGID_9_);}
	.st8{fill:url(#SVGID_10_);}
	.st9{fill:url(#SVGID_11_);}
</style>
<g>
	<g>
		<g>
			<defs>
				<rect id="SVGID_1_" x="0.8" y="0.2" width="1920" height="799.8"/>
			</defs>
			<clipPath id="SVGID_2_">
				<use xlink:href="#SVGID_1_"  style="overflow:visible;"/>
			</clipPath>
			<g class="st0">
				<g>
					
						<linearGradient id="SVGID_3_" gradientUnits="userSpaceOnUse" x1="1486.3552" y1="-304.711" x2="1978.0413" y2="1346.4694" gradientTransform="matrix(-1.0075 -0.1933 0.1937 -1.0096 1958.0942 1026.7266)">
						<stop  offset="0" style="stop-color:#DE62CF"/>
						<stop  offset="0.7462" style="stop-color:#7C0361"/>
						<stop  offset="1" style="stop-color:#79005D"/>
					</linearGradient>
					<path class="st1" d="M-772.5,111.1c50.7,26.1,84.7,77.5,82,134.6c-7.5,157.7,100.6,306.3,265.6,338
						c162.8,31.3,310.9-62.6,366.5-201.4c33.2-82.9,105.3-145.5,193.6-157.1c4-0.5,8-1.1,11.9-1.8c96.1-16.5,192.3,28.9,244.7,111.2
						c122,191.6,366.3,278.3,582.3,203.4c85.2-29.5,178.7-29.4,260.6,8.4c98.2,45.3,232.5-1.5,257.3-130.9
						c22-114.9-60.1-154.1-125.4-228.2c-91.5-103.9-56.9-265.7-130.1-384.7c-72.8-118.4-193.8-202.1-330.1-228.3
						c-100.8-19.4-206.4-6.9-299.9,35.9C519-349.9,446.4-256.6,340.6-286.6c-43.7-12.4-80.3-42-121.8-60.1
						c-98.5-43-239.5,20.2-311.1-72c-22.1-28.4-55.5-48.1-95.2-51.5c-66-5.6-127.5,39.8-142.2,104.6c-27.2,120,81.2,116.1,122.7,193
						c14,25.9,13.3,60.3-5.1,83.3c-57.7,72.1-256.5,39.4-314.9-14.4c-26.9-24.8-44-58.9-71.5-83c-93.6-82.2-240.1-8.9-265.1,102.8
						C-882-1.2-839.8,76.4-772.5,111.1z"/>
				</g>
				<g>
					
						<linearGradient id="SVGID_4_" gradientUnits="userSpaceOnUse" x1="633.5313" y1="-881.3581" x2="945.5195" y2="982.9698" gradientTransform="matrix(-0.9998 -2.170000e-02 2.170000e-02 -0.9998 1283.998 719.1422)">
						<stop  offset="0" style="stop-color:#DE62CF"/>
						<stop  offset="0.7462" style="stop-color:#7C0361"/>
						<stop  offset="1" style="stop-color:#79005D"/>
					</linearGradient>
					<path class="st2" d="M-74.6,896c38.8,17.5,83.7,11.6,125.8,17.7c114.1,16.4,85.6,128,124.7,206.1
						c33.9,67.8,85.1,126.5,146.9,170.2c126,89.1,265.4,98,409.4,61.6c118.3-29.9,149.1,125.1,269.3,130.9
						c101.2,4.8,190.4-73.1,198.9-174.1c6.3-74.9-31.1-142.9-90.6-179.2c-47.2-28.9-72.4-84-63.2-138.6c0.1-0.9,0.3-1.7,0.4-2.6
						c23.5-143.6,305.1-177.2,382-71.4c37.5,51.6,101,83.3,171.7,75.3c85.2-9.6,153.7-78.7,162.9-164
						c9.4-86.9-40.8-162.1-113.2-192.4c-52.9-22.1-85.4-74.7-83.9-132.1c5-200.5-153.2-381-368.4-385.7
						c-166.6-3.6-310.2,101.7-363,250.6c-23.1,65.1-89.1,103-156.9,89.9c-78.6-15.2-159.4-9.2-235.3,15.7
						c-62.9,20.7-116.8,59.5-183.4,21.2c-27.8-16-48.8-41.3-73.4-62c-109.7-92.4-280.1-79.2-374.1,28.7c-18,20.6-45,31.1-71.9,26
						c-164-31.2-148.3,138.1-260.1,176.1C-634.1,702.5-726.2,772-715.1,908.6c9,110.5,99.4,199.4,210.1,207
						c78.5,5.4,142-30.2,183.5-95.8"/>
				</g>
				<g>
					<linearGradient id="SVGID_5_" gradientUnits="userSpaceOnUse" x1="127.8846" y1="311.9094" x2="2643.5159" y2="311.9094">
						<stop  offset="0" style="stop-color:#9E005D"/>
						<stop  offset="0.126" style="stop-color:#B11C7E"/>
						<stop  offset="0.2672" style="stop-color:#C1369B"/>
						<stop  offset="0.4175" style="stop-color:#CE49B2"/>
						<stop  offset="0.5791" style="stop-color:#D757C2"/>
						<stop  offset="0.7601" style="stop-color:#DC5FCC"/>
						<stop  offset="1" style="stop-color:#DE62CF"/>
					</linearGradient>
					<path class="st3" d="M2171.5,850c-80-69.6-147.7-169.4-97.4-242.4c1.2-1.8,2.4-3.6,3.6-5.3c33.6-50.3,99.9-64.1,152.3-34.1
						c121.9,69.7,288,38.5,370.1-91.8c79.4-125.9,47-289.4-75.3-374.2c-102.4-71-232.6-62.9-324.1,6.5
						c-47,35.7-114.5,27.4-152.7-17.5C1946.8-28.1,1786-81.8,1634.2-48.6c-78.2,17.1-156-34.9-170.5-113.8
						c-29.9-162.4-128.2-311-282.5-399.5c-186-106.7-406.2-98.9-579.4,1.2c-55,31.8-123.9,24.6-171-18.1
						c-78.7-71.4-216.2-65.8-278.6,43.3c-57.3,100.1-6.8,214.3,83.6,254.9c56.5,25.4,88.7,86.5,80.7,148
						c-29.6,226.8,76.8,459.4,287.3,580.1c172.2,98.7,373.6,99.4,540,19.6c72.5-34.8,160.7-3.3,193.1,70.3
						c52.8,119.8,159.1,209.7,286.5,241.3c59.9,14.8,95.7,74.1,82.8,134.5c-22.1,103.2,21.6,216,121.5,273.3
						c69.4,39.8,149.7,43,218.7,15.7c47.5-18.8,101.5-12.3,140.8,20.5c76.4,63.9,202.8,52.9,259.6-46.3
						c78.6-137.3-37.3-212.6-151-249C2261.9,916.6,2214.9,887.8,2171.5,850z"/>
				</g>
				<g>
					
						<linearGradient id="SVGID_6_" gradientUnits="userSpaceOnUse" x1="181.9231" y1="251.8495" x2="541.0042" y2="1457.7161" gradientTransform="matrix(-0.9821 -0.1884 0.1884 -0.9821 1898.6202 1001.5815)">
						<stop  offset="0" style="stop-color:#DE62CF"/>
						<stop  offset="0.7462" style="stop-color:#7C0361"/>
						<stop  offset="1" style="stop-color:#79005D"/>
					</linearGradient>
					<path class="st4" d="M931.5,54.6c36.1,18.6,60.3,55.1,58.4,95.6c-5.3,112.1,71.7,217.6,189.1,240.2
						c115.9,22.3,221.3-44.4,260.8-143c23.6-58.9,74.9-103.3,137.8-111.5c2.8-0.4,5.7-0.8,8.5-1.3c68.4-11.7,136.9,20.6,174.2,79.1
						c86.9,136.1,260.8,197.8,414.6,144.7c60.7-21,127.2-20.8,185.5,6c69.9,32.2,165.5-1,183.1-93c15.6-81.7-42.8-109.5-89.3-162.2
						c-65.2-73.8-40.6-188.8-92.7-273.4c-51.9-84.2-138-143.7-235-162.3c-71.8-13.8-146.9-4.9-213.5,25.4
						c-62.3,28.4-113.9,94.7-189.3,73.4c-31.1-8.8-57.1-29.8-86.7-42.7c-70.1-30.6-170.5,14.3-221.5-51.2
						c-15.7-20.2-39.5-34.2-67.7-36.6c-47-4-90.7,28.2-101.2,74.2c-19.3,85.2,57.8,82.5,87.4,137.2c10,18.4,9.5,42.8-3.6,59.2
						c-41,51.2-182.6,27.9-224.2-10.3c-19.1-17.6-31.4-41.8-50.9-59c-66.7-58.4-170.9-6.4-188.6,73C853.5-25.1,883.5,30,931.5,54.6z
						"/>
				</g>
				<g>
					
						<linearGradient id="SVGID_7_" gradientUnits="userSpaceOnUse" x1="613.4722" y1="-164.0588" x2="865.4252" y2="1454.8789" gradientTransform="matrix(-0.9156 -0.4021 0.4021 -0.9156 682.9937 975.4193)">
						<stop  offset="0" style="stop-color:#DE62CF"/>
						<stop  offset="1" style="stop-color:#D4145A"/>
					</linearGradient>
					<path class="st5" d="M-498.4,67.7c5.7-57.4-30.6-111.5-86.4-125.6c-1.7-0.4-3.4-0.8-5-1.2c-88.1-18.2-180.9-65.3-133-174.4
						c34.7-79.1,128.8-97.3,191.2-55.2c31.8,21.5,72.7,21.6,106.7,3.8c49.5-26,109.9-30,165.1-5.7
						c80.1,35.2,121.9,117.2,112.7,196.9C-152.6-48-118.6-7.7-73-1.2c97.5,13.8,183.8,72.5,232.7,157.6
						c30.1,52.5,98.9,69,150.3,37.2c118.3-73.1,269.2-88.7,406.1-28.6c167.9,73.8,266.3,240.3,261.6,413.1
						c-1.3,46.3,28.3,88.4,72.3,102.8c71,23.2,117.9,104.7,83,184.2c-38,86.7-140.7,101.9-205.3,54.7
						c-38.6-28.2-90.6-28.4-129.1-0.2c-121.8,89.1-286.3,112.7-434.4,47.6c-123.3-54.2-209-158.3-244.1-278.3
						c-17-58.2-79.8-88.6-137.3-69.6c-110.4,36.4-234.2,9.3-319.4-71c-31.9-30.1-84.8-31.8-116.7-1.7
						c-62.9,59.2-159.7,75.7-242,30.9c-98.6-53.6-136-173.8-86.4-274.6c34.8-70.7,102.1-110.2,172.1-115.1
						c57.3-3.9,104.1-47.1,109.7-104.3L-498.4,67.7z"/>
				</g>
				<g>
					<linearGradient id="SVGID_8_" gradientUnits="userSpaceOnUse" x1="207.4444" y1="-428.7533" x2="440.5659" y2="539.5941">
						<stop  offset="0" style="stop-color:#DE62CF"/>
						<stop  offset="1" style="stop-color:#D4145A"/>
					</linearGradient>
					<ellipse class="st6" cx="303.1" cy="-31.4" rx="149.3" ry="149.4"/>
				</g>
				<g>
					<linearGradient id="SVGID_9_" gradientUnits="userSpaceOnUse" x1="1521.8066" y1="404.7438" x2="1634.0779" y2="871.0997">
						<stop  offset="0" style="stop-color:#DE62CF"/>
						<stop  offset="0.7462" style="stop-color:#7C0361"/>
						<stop  offset="1" style="stop-color:#79005D"/>
					</linearGradient>
					<ellipse class="st7" cx="1567.9" cy="596.1" rx="71.9" ry="72"/>
				</g>
				<g>
					<linearGradient id="SVGID_10_" gradientUnits="userSpaceOnUse" x1="1714.1609" y1="-49.0669" x2="1870.7223" y2="601.2626">
						<stop  offset="0" style="stop-color:#DE62CF"/>
						<stop  offset="1" style="stop-color:#D4145A"/>
					</linearGradient>
					<path class="st8" d="M1678.1,217.8c0,55.4,44.9,100.4,100.3,100.4c55.4,0,100.3-44.9,100.3-100.4
						c0-55.4-44.9-100.4-100.3-100.4C1723,117.4,1678.1,162.3,1678.1,217.8z"/>
				</g>
				<g>
					<linearGradient id="SVGID_11_" gradientUnits="userSpaceOnUse" x1="358.3352" y1="292.4239" x2="549.6584" y2="1087.1479">
						<stop  offset="0" style="stop-color:#DE62CF"/>
						<stop  offset="0.7462" style="stop-color:#7C0361"/>
						<stop  offset="1" style="stop-color:#79005D"/>
					</linearGradient>
					<path class="st9" d="M314.3,618.5c0,67.7,54.9,122.6,122.5,122.6s122.5-54.9,122.5-122.6c0-67.7-54.9-122.7-122.5-122.7
						S314.3,550.8,314.3,618.5z"/>
				</g>
			</g>
		</g>
	</g>
</g>
</svg>
