<?xml version="1.0" encoding="utf-8"?>
<!-- Generator: Adobe Illustrator 24.0.3, SVG Export Plug-In . SVG Version: 6.00 Build 0)  -->
<svg version="1.1" id="Layer_1" xmlns="http://www.w3.org/2000/svg" xmlns:xlink="http://www.w3.org/1999/xlink" x="0px" y="0px"
	 viewBox="0 0 1920 612.1" style="enable-background:new 0 0 1920 612.1;" xml:space="preserve">
<style type="text/css">
	.st0{display:none;}
	.st1{display:inline;opacity:0.7;}
	.st2{filter:url(#Adobe_OpacityMaskFilter);}
	.st3{mask:url(#SVGID_1_);}
	.st4{fill:#F8F6F8;}
	.st5{clip-path:url(#SVGID_3_);}
	.st6{fill:url(#SVGID_4_);}
	.st7{fill:url(#SVGID_5_);}
	.st8{fill:url(#SVGID_6_);}
	.st9{fill:url(#SVGID_7_);}
	.st10{fill:url(#SVGID_8_);}
	.st11{fill:url(#SVGID_9_);}
	.st12{fill:url(#SVGID_10_);}
	.st13{fill:url(#SVGID_11_);}
</style>
<g>
	<g class="st0">
		<g class="st1">
			<g>
				<defs>
					<filter id="Adobe_OpacityMaskFilter" filterUnits="userSpaceOnUse" x="0" y="457" width="1913.9" height="262.1">
						<feFlood  style="flood-color:white;flood-opacity:1" result="back"/>
						<feBlend  in="SourceGraphic" in2="back" mode="normal"/>
					</filter>
				</defs>
				<mask maskUnits="userSpaceOnUse" x="0" y="457" width="1913.9" height="262.1" id="SVGID_1_">
					<g class="st2">
						
							<image style="overflow:visible;" width="1919" height="267" xlink:href="30C8B8271ADC13D2.jpg"  transform="matrix(1 0 0 1 -2.4626 454.3085)">
						</image>
					</g>
				</mask>
				<g class="st3">
					<path d="M1913.9,719.1C1279.9,618.7,634,618.7,0,719.1C0,631.7,0,544.3,0,457c638,0,1275.9,0,1913.9,0
						C1913.9,544.3,1913.9,631.7,1913.9,719.1z"/>
				</g>
			</g>
		</g>
	</g>
	<g>
		<g>
			<g>
				<g>
					<g>
						<g>
							<g>
								<g>
									<g>
										<rect x="0.2" class="st4" width="1919.8" height="612.2"/>
									</g>
								</g>
							</g>
						</g>
					</g>
				</g>
			</g>
		</g>
		<g>
			<defs>
				<rect id="SVGID_2_" x="0.2" width="1919.8" height="612.2"/>
			</defs>
			<clipPath id="SVGID_3_">
				<use xlink:href="#SVGID_2_"  style="overflow:visible;"/>
			</clipPath>
			<g class="st5">
				
					<image style="overflow:visible;opacity:0.8;" width="1812" height="1117" xlink:href="30C8B8271ADC13D6.png"  transform="matrix(1 0 0 1 -130.6056 51.1655)">
				</image>
				<g>
					
						<linearGradient id="SVGID_4_" gradientUnits="userSpaceOnUse" x1="575.4137" y1="-568.5633" x2="788.489" y2="704.6973" gradientTransform="matrix(-0.9998 -2.169926e-02 2.324935e-02 -1.0712 1423.1139 576.1024)">
						<stop  offset="0" style="stop-color:#FD62D3"/>
						<stop  offset="0.7462" style="stop-color:#910063"/>
						<stop  offset="1" style="stop-color:#8D005F"/>
					</linearGradient>
					<path class="st6" d="M353.1,668.1c26.5,12.8,57.1,8.4,85.9,12.8c77.9,11.9,58.3,93.5,85,150.7c23.1,49.6,58,92.4,100.2,124.4
						c86,65.1,181.1,71.4,279.5,44.6c80.8-22,101.7,91.4,183.8,95.5c69.1,3.4,130.1-53.7,136.1-127.6c4.4-54.8-21.1-104.5-61.7-131
						c-32.2-21.1-49.4-61.4-43-101.4c0.1-0.6,0.2-1.3,0.3-1.9c16.2-105.1,208.6-130,261-52.7c25.6,37.7,68.9,60.8,117.2,54.9
						c58.2-7.1,105.1-57.8,111.4-120.2c6.5-63.6-27.7-118.6-77.1-140.7c-36.1-16.1-58.2-54.6-57.2-96.6
						c3.6-146.7-104.2-278.6-251.2-281.8c-113.8-2.5-212,74.7-248.2,183.7c-15.8,47.7-60.9,75.5-107.2,65.9
						c-53.7-11-108.8-6.6-160.7,11.8c-43,15.2-79.8,43.7-125.3,15.7c-19-11.7-33.3-30.2-50-45.3c-74.8-67.5-191.2-57.7-255.6,21.4
						c-12.3,15.1-30.8,22.8-49.1,19.1c-112-22.6-101.5,101.2-177.8,129.1C-28.8,527.1-91.8,578.1-84.3,678
						c6,80.9,67.7,145.8,143.2,151.3c53.6,3.9,97-22.3,125.4-70.3"/>
				</g>
			</g>
			<g class="st5">
				
					<image style="overflow:visible;opacity:0.8;" width="2180" height="1680" xlink:href="30C8B8271ADC13D1.png"  transform="matrix(1 0 0 1 407.7716 -572.4573)">
				</image>
				<g>
					<linearGradient id="SVGID_5_" gradientUnits="userSpaceOnUse" x1="459.7091" y1="252.374" x2="2504.7146" y2="252.374">
						<stop  offset="0" style="stop-color:#B8005F"/>
						<stop  offset="0.1331" style="stop-color:#CD1E82"/>
						<stop  offset="0.2731" style="stop-color:#DE36A0"/>
						<stop  offset="0.4222" style="stop-color:#EC4AB7"/>
						<stop  offset="0.5825" style="stop-color:#F657C7"/>
						<stop  offset="0.762" style="stop-color:#FB5FD0"/>
						<stop  offset="1" style="stop-color:#FD62D3"/>
					</linearGradient>
					<path class="st7" d="M2121,689.8c-65.1-56.6-120.1-137.7-79.2-197.1c1-1.4,2-2.9,2.9-4.3c27.3-40.9,81.2-52.1,123.8-27.7
						c99.1,56.6,234.1,31.3,300.9-74.6c64.5-102.4,38.2-235.3-61.2-304.2c-83.2-57.7-189.1-51.1-263.4,5.3
						c-38.2,29-93.1,22.3-124.2-14.3C1938.3-24,1807.6-67.7,1684.3-40.7c-63.6,13.9-126.8-28.4-138.6-92.5
						c-24.3-132-104.2-252.8-229.7-324.7c-151.2-86.7-330.2-80.4-471,1c-44.7,25.9-100.7,20-139-14.7
						c-63.9-58-175.8-53.5-226.5,35.2c-46.5,81.4-5.6,174.2,68,207.2C593.3-208.7,619.5-159,613-109
						c-24,184.3,62.4,373.4,233.6,471.5c140,80.3,303.7,80.8,439,15.9c58.9-28.3,130.6-2.7,157,57.2
						c42.9,97.4,129.3,170.5,232.9,196.1c48.7,12.1,77.8,60.3,67.3,109.4c-18,83.9,17.6,175.6,98.8,222.2
						c56.4,32.3,121.7,35,177.8,12.8c38.6-15.3,82.6-10,114.4,16.7c62.1,51.9,164.8,43,211-37.6c63.9-111.6-30.3-172.8-122.8-202.4
						C2194.5,743.9,2156.3,720.5,2121,689.8z"/>
				</g>
			</g>
			<g class="st5">
				
					<image style="overflow:visible;opacity:0.8;" width="1470" height="714" xlink:href="30C8B8271ADC13D2.png"  transform="matrix(1 0 0 1 1018.2349 -331.994)">
				</image>
				<g>
					
						<linearGradient id="SVGID_6_" gradientUnits="userSpaceOnUse" x1="306.8443" y1="248.8241" x2="598.7483" y2="1229.0964" gradientTransform="matrix(-0.9821 -0.1884 0.1884 -0.9821 2046.978 886.2706)">
						<stop  offset="0" style="stop-color:#FD62D3"/>
						<stop  offset="0.7462" style="stop-color:#910063"/>
						<stop  offset="1" style="stop-color:#8D005F"/>
					</linearGradient>
					<path class="st8" d="M1113,43.2c29.3,15.1,49,44.8,47.5,77.8c-4.3,91.1,58.3,176.9,153.8,195.3c94.2,18.1,179.9-36.1,212-116.2
						c19.2-47.9,60.9-84,112-90.7c2.3-0.3,4.6-0.6,6.9-1c55.6-9.5,111.3,16.7,141.6,64.3c70.6,110.7,212,160.8,337,117.6
						c49.3-17,103.4-16.9,150.8,4.9c56.8,26.2,134.5-0.8,148.8-75.6c12.7-66.4-34.8-89-72.6-131.8c-53-60-33-153.5-75.4-222.2
						c-42.2-68.4-112.2-116.8-191.1-131.9c-58.4-11.2-119.4-4-173.5,20.7c-50.7,23.1-92.6,77-153.9,59.6
						c-25.3-7.1-46.4-24.2-70.5-34.7c-57-24.9-138.6,11.6-180.1-41.6c-12.8-16.4-32.1-27.8-55.1-29.7c-38.2-3.2-73.8,22.9-82.3,60.4
						c-15.7,69.3,47,67.1,71.1,111.5c8.1,15,7.7,34.8-2.9,48.1c-33.4,41.6-148.4,22.7-182.2-8.4c-15.6-14.3-25.5-34-41.4-47.9
						c-54.2-47.5-139-5.2-153.4,59.3C1049.6-21.6,1074,23.2,1113,43.2z"/>
				</g>
			</g>
			<g class="st5">
				
					<image style="overflow:visible;opacity:0.8;" width="1685" height="1171" xlink:href="30C8B8271ADC13D0.png"  transform="matrix(1 0 0 1 -336.7651 -292.994)">
				</image>
				<g>
					
						<linearGradient id="SVGID_7_" gradientUnits="userSpaceOnUse" x1="469.4031" y1="-25.1099" x2="674.2206" y2="1290.9559" gradientTransform="matrix(-0.9156 -0.4021 0.4021 -0.9156 840.6107 879.0922)">
						<stop  offset="0" style="stop-color:#FD62D3"/>
						<stop  offset="1" style="stop-color:#F60C5B"/>
					</linearGradient>
					<path class="st9" d="M-49.4,53.9c4.6-46.6-24.9-90.7-70.3-102.1c-1.4-0.4-2.8-0.7-4.1-0.9c-71.6-14.8-147.1-53.1-108.1-141.8
						c28.2-64.3,104.7-79.1,155.4-44.9c25.8,17.4,59.1,17.6,86.7,3.1c40.2-21.1,89.4-24.4,134.2-4.7c65.1,28.6,99.1,95.3,91.6,160.1
						c-4.3,37.2,23.3,69.9,60.4,75.1C375.6,9,445.8,56.7,485.5,126c24.5,42.6,80.4,56.1,122.2,30.3c96.1-59.4,218.9-72.1,330.1-23.2
						c136.5,60,216.5,195.4,212.6,335.9c-1,37.6,23,71.9,58.8,83.6c57.7,18.8,95.8,85.1,67.5,149.8
						c-30.9,70.5-114.3,82.8-166.9,44.5c-31.4-22.9-73.6-23.1-105-0.1c-99,72.4-232.8,91.6-353.1,38.7
						c-100.2-44-169.9-128.7-198.4-226.2c-13.8-47.3-64.9-72-111.6-56.6C252,532,151.3,510,82,444.7c-25.9-24.4-68.9-25.8-94.9-1.4
						c-51.1,48.1-129.8,61.6-196.7,25.2c-80.1-43.6-110.5-141.3-70.3-223.2c28.3-57.5,83-89.6,139.9-93.5
						c46.6-3.2,84.6-38.3,89.2-84.8L-49.4,53.9z"/>
				</g>
			</g>
			<g class="st5">
				
					<image style="overflow:visible;opacity:0.8;" width="422" height="423" xlink:href="30C8B8271ADC13DE.png"  transform="matrix(1 0 0 1 405.5953 -216.6336)">
				</image>
				<g>
					<linearGradient id="SVGID_8_" gradientUnits="userSpaceOnUse" x1="513.8336" y1="-378.237" x2="722.763" y2="489.6205">
						<stop  offset="0" style="stop-color:#FD62D3"/>
						<stop  offset="1" style="stop-color:#F60C5B"/>
					</linearGradient>
					<ellipse class="st10" cx="599.6" cy="-22.1" rx="133.8" ry="133.9"/>
				</g>
			</g>
			<g class="st5">
				
					<image style="overflow:visible;opacity:0.8;" width="242" height="242" xlink:href="30C8B8271ADC13D3.png"  transform="matrix(1 0 0 1 1483.5203 451.2913)">
				</image>
				<g>
					<linearGradient id="SVGID_9_" gradientUnits="userSpaceOnUse" x1="1545.7181" y1="358.7494" x2="1665.2428" y2="855.2349">
						<stop  offset="0" style="stop-color:#FD62D3"/>
						<stop  offset="0.7462" style="stop-color:#910063"/>
						<stop  offset="1" style="stop-color:#8D005F"/>
					</linearGradient>
					<ellipse class="st11" cx="1594.8" cy="562.5" rx="76.5" ry="76.6"/>
				</g>
			</g>
			<g class="st5">
				
					<image style="overflow:visible;opacity:0.8;" width="152" height="152" xlink:href="30C8B8271ADC13D7.png"  transform="matrix(1 0 0 1 1669.0024 321.7735)">
				</image>
				<g>
					<linearGradient id="SVGID_10_" gradientUnits="userSpaceOnUse" x1="1708.5072" y1="264.3658" x2="1783.2754" y2="574.9403">
						<stop  offset="0" style="stop-color:#FD62D3"/>
						<stop  offset="0.7462" style="stop-color:#910063"/>
						<stop  offset="1" style="stop-color:#8D005F"/>
					</linearGradient>
					<path class="st12" d="M1691.3,391.8c0,26.5,21.4,47.9,47.9,47.9c26.4,0,47.9-21.5,47.9-47.9c0-26.5-21.4-47.9-47.9-47.9
						C1712.7,343.9,1691.3,365.3,1691.3,391.8z"/>
				</g>
			</g>
			<g class="st5">
				
					<image style="overflow:visible;opacity:0.8;" width="278" height="278" xlink:href="30C8B8271ADC13D5.png"  transform="matrix(1 0 0 1 125.0998 255.8709)">
				</image>
				<g>
					<linearGradient id="SVGID_11_" gradientUnits="userSpaceOnUse" x1="196.4665" y1="150.0126" x2="333.4243" y2="718.9125">
						<stop  offset="0" style="stop-color:#FD62D3"/>
						<stop  offset="0.7462" style="stop-color:#910063"/>
						<stop  offset="1" style="stop-color:#8D005F"/>
					</linearGradient>
					<path class="st13" d="M165,383.4c0,48.5,39.3,87.8,87.7,87.8s87.7-39.3,87.7-87.8c0-48.5-39.3-87.8-87.7-87.8
						S165,335,165,383.4z"/>
				</g>
			</g>
		</g>
	</g>
</g>
</svg>
