<?xml version="1.0" encoding="utf-8"?>
<!-- Generator: Adobe Illustrator 24.0.3, SVG Export Plug-In . SVG Version: 6.00 Build 0)  -->
<svg version="1.1" id="Layer_1" xmlns="http://www.w3.org/2000/svg" xmlns:xlink="http://www.w3.org/1999/xlink" x="0px" y="0px"
	 viewBox="0 0 262.1 628.3" style="enable-background:new 0 0 262.1 628.3;" xml:space="preserve">
<style type="text/css">
	.st0{fill:#B1695E;}
	.st1{fill:#C4786B;}
	.st2{fill:#CF806B;}
	.st3{fill:#7A0000;}
	.st4{stroke:#7A0000;stroke-width:2.4855;stroke-linecap:round;stroke-linejoin:round;stroke-miterlimit:10;}
	.st5{fill:none;stroke:#7A0000;stroke-width:2.4855;stroke-linecap:round;stroke-linejoin:round;stroke-miterlimit:10;}
	.st6{fill:#FF470A;}
	.st7{fill:#FF9300;}
	.st8{fill:#E3892A;}
	.st9{fill:#FFC480;}
	.st10{fill:#FF5A19;}
	.st11{fill:#FF144A;}
	.st12{fill:#FFFFFF;}
	.st13{fill:#0084E3;}
	.st14{fill:#00C41C;}
	.st15{fill:#FF1780;}
	.st16{fill:#FFAA00;}
	.st17{fill:#D48372;}
	.st18{fill:none;stroke:#EF790E;stroke-width:2.8998;stroke-linecap:round;stroke-linejoin:round;stroke-miterlimit:10;}
	.st19{fill:#F9D2AE;}
</style>
<g>
	
		<image style="overflow:visible;opacity:0.5;" width="293" height="660" xlink:href="E6D32ACE6110F43D.png"  transform="matrix(1 0 0 1 -5.8936 -5.9327)">
	</image>
	<g>
		<g>
			<path class="st0" d="M100.6,118.7c0,0-0.8,14.3-2,16.6c-3.1,5.9-22.3,6.7-22.3,6.7s12.5,23.6,30.5,29.4c17.9,5.8,43.3,4,55.9-4.9
				c12.5-8.9,23.1-22.5,23.1-22.5s-12.7-0.7-17.7-4.9c-5-4.2-9-25-9-25L100.6,118.7z"/>
			<path class="st1" d="M168,139.2c-1.2-1-3.5-5.7-4.6-8.2c-3.6,4.8-15.6,22.5-26.2,25.4c-14.8,4-43.2-3.2-57.5-9.2
				c5.3,7.4,15.8,20.7,27,24.3c17.9,5.8,43.3,4,55.9-4.9c12.5-8.9,23.1-22.5,23.1-22.5S173,143.4,168,139.2z"/>
			<path class="st1" d="M90.3,76.7c0,0-2.5-28.1-0.9-32s26.3-25,30.2-26.3c4-1.3,13-2.5,24.5,5c11.5,7.6,18,15.8,18.2,16.7
				c0.2,0.9,2.2,8.8,2.9,14s0.4,18.2,0.4,18.2s10.8-7.3,12.8-6.8c3.6,0.9,2.7,9,2.5,11.2c-0.2,2.5-1.8,11.7-5,14.6s-9.9,4.3-9.9,4.3
				s0.7,10.8-1.6,15.1s-25.2,23-31.1,23.2c-5.9,0.2-36-14.6-38-18.7c-2-4.1-2.3-11-2.3-11s-3.8,1.3-7.2-0.9
				c-3.4-2.2-7.6-11-8.5-15.3c-0.9-4.3-2.9-10.6-0.4-12.6C79.3,73.4,90.3,76.7,90.3,76.7z"/>
			<path class="st2" d="M133.5,127.5c10.7-1.4,21.3-15.4,26.2-23.2c4.9-8,4.3-16.5,4.5-22.3c0.2-6.2-2.7-26.3-3.8-29.8
				c-1.1-3.5-8.6-17.2-20.5-19.9c-11.9-2.7-27.3,2.5-37.1,9.5S90.8,76.4,90.8,76.4s-11-3.2-13.5-1.3c-2.5,2-0.5,8.3,0.4,12.6
				c0.9,4.3,5,13.1,8.5,15.3c3.4,2.2,7.2,0.9,7.2,0.9s0.4,6.8,2.3,11c0.7,1.5,5,4.3,10.5,7.3C112.8,124.3,124.1,128.8,133.5,127.5z"
				/>
			<path class="st3" d="M101.1,51.1l0.2,6.3c0,0,5.8-2.9,9-3.8s9.9-2.5,9.9-2.5s1.4-6.3-1.1-7.2C117.6,43.4,105.1,46.8,101.1,51.1z"
				/>
			<path class="st3" d="M155.2,48.5l0.9,6.2c0,0-6.1-1.9-9.5-2.3c-3.3-0.4-10.2-0.9-10.2-0.9s-2.4-6-0.1-7.3
				C137.7,43.6,150.6,44.8,155.2,48.5z"/>
			<circle class="st4" cx="113.3" cy="66.1" r="4.3"/>
			<path class="st4" d="M106.3,63.3c0,0,4.5-1.7,6.7-1.6"/>
			<circle class="st4" cx="142.9" cy="65.5" r="4.3"/>
			<path class="st4" d="M149.9,62.7c0,0-4.5-1.7-6.7-1.6"/>
			<path class="st5" d="M126.9,67.7c0,0-1,6.3-2,8.2c-1.2,2.3-5,4.6-4.9,7.4c0.2,3.5,4.2,6.3,10,6.5c5.8,0.1,9.7-3.4,9.7-3.4"/>
			<path class="st5" d="M121.3,98.5c0,0,2,5,7.7,4.9c5.7-0.1,7.2-4.9,7.2-4.9"/>
			<path class="st5" d="M86.7,82.8c0,0-4.2-1.7-5,1.5c-0.8,3.1,3.2,9.3,4.6,10.8"/>
			<path class="st5" d="M170.5,75.7c0,0,3.1-3.2,5-2c2.6,1.6-0.3,9.2-4.5,12.8"/>
			<path class="st6" d="M90.3,74.3c0,0,2.4-24.7,3.9-27.4c1.5-2.7,21-21.7,30.5-22.3c9.4-0.5,32.9,11.9,34.5,15.8s5.9,26.4,5.9,26.4
				s1.8-16.3,1.6-25.6c-0.1-9.3-1.3-22.5-1.3-22.5s-0.3-5.4-2.7-5.8s-5.1,3.1-5.1,3.1s-0.7-8-3.9-8.8s-5.1,2.2-5.1,2.2
				s-0.7-5.8-3.9-6.5s-6.7,3.6-6.7,3.6s-2.3-6.5-5.7-6.6c-3.4-0.1-7.6,3.4-9,5.4c0,0-3.5-4.3-7.7-3.9c-4.2,0.4-6.7,8.1-6.7,8.1
				s-5-4.6-8.8-3s-2.3,7.3-2.3,7.3s-4-3.9-7.6-2.2s-1.6,7.8-1.6,7.8s-6.7-1.6-9,0.3c-2.3,1.9,4.9,8.5,4.9,8.5s0.7,11.9,1.9,22.5
				C87.5,61.5,90.3,74.3,90.3,74.3z"/>
			<path class="st7" d="M79,384.5c0,0-1.1,49.3-1.3,57c-0.2,7.7-2.2,42.1-2.7,60.4c-0.5,18.3-4.7,33.8-4.9,34.9
				c-0.2,1.1-7.9,0.9-7.9,5.4c0,4.5,3.4,7.7,3.4,10.4s-4.3,5-4.9,7.2c-0.5,2.2-0.2,8.3-0.2,8.3s12.6,0.7,18.3,0.9
				c5.8,0.2,9.5,4.7,13.3,4c3.8-0.7,2.5-7.2,2-9.7c-0.5-2.5,0.5-9.2,2.7-9.9c2.2-0.7,5.2-5.8,5.2-5.8s14.8-28.8,18.3-42.6
				c3.6-13.9,5-33.6-2-46.2c0,0,18.2-52.5,18.2-69.8c0,0,5.8,55.2,6.1,64.6c0.2,6.1-9.9,33.1-7.7,46.6c2.2,13.5,15.8,42.3,16.2,44.8
				c0.4,2.5-6.5,7.9-6.1,10.1s5.2,4.7,5.4,5.9c0.2,1.3-5.6,2.9-5.4,5.4c0.2,2.5,5.2,6.8,7.2,7.9c2,1.1,7.6,0,8.8,0.9
				c1.3,0.9,6.7,1.3,9.7,0.4c3.1-0.9,11.3-3.4,11.7-5.9c0.4-2.5-2.7-5.8-3.8-7.4c-1.1-1.6,2.5-3.2,2.7-4.5c0.2-1.3-2.7-3.6-3.4-5.8
				c-0.7-2.2-0.5-3.2,0.2-4.9c0.7-1.6-0.5-1.8-0.9-4c-0.4-2.2,2.9-44.8,3.8-52.5c0.9-7.7,6.8-25.5,7.4-28.4
				c0.5-2.9,2.2-30.8,1.1-47.9c-1.1-17.1-3.1-33.6-3.1-33.6l-24.5-9.4l-74.5,5.6L79,384.5z"/>
			<path class="st8" d="M65.2,391.1c0,0,0.4,3.8,7.8,5c7.4,1.3,7.6,0.2,7.6,0.2L81,382L69.6,385L65.2,391.1z"/>
			<path class="st8" d="M187.1,380c0,0.9,0,12.6,0,12.6s7-0.4,8.3-4C196.6,385,187.1,380,187.1,380z"/>
			<path class="st9" d="M79,150.2c0,0-17.4,19.3-20.9,32s-1.8,37.1,6.6,64.1s0.5,144.9,0.5,144.9s5.6-4.5,19.2-8.9
				c14.3-4.6,57.2-8.9,85.8-4.6c23.2,3.5,25.4,10.3,25.4,10.3s-0.3-120.3,1.1-135.2c1.3-14.8,6.5-39.9,4.6-57.7
				c-1.9-17.8-12.7-34.5-19.4-40.7c0,0-22.9,22.4-47,21.3S91.4,163.1,79,150.2z"/>
			<path class="st7" d="M54.4,223.6c0,0-17.3,1.3-27.3,6.7c-10,5.4-22,17.3-22,17.3S1,222.8,1.3,204.1s7.2-28.8,14-35.6
				c7-7,18.6-12.4,29.7-17.3s28.1-8.4,28.1-8.4l5.9,7.3c0,0-19.4,22.1-21,35.3c-1.6,13.2,0.5,35.1,0.5,35.1L54.4,223.6z"/>
			<path class="st7" d="M181.8,154.2l7.8-10.3c0,0,28.6,4,39.9,7.3s21.9,12.4,25.1,18.3c3.2,5.9,6.5,15.9,7,29.7s-0.3,36-0.3,36
				s-12.8-14.7-29.1-17.4c-16.1-2.7-31.8,5.4-31.8,5.4s2.7-26.2-1.9-38C193.9,173.4,193.1,168,181.8,154.2z"/>
			<path class="st10" d="M69.4,142.7l11.5-2.3c0,0,5.9,12.7,19.8,20.2c13.8,7.4,36.2,15.6,61.3,2c13.5-7.3,20.8-19.6,20.8-19.6
				l10.8,0.4c0,0-8.8,12.5-18.5,20.1c-9.7,7.6-19.2,14.6-39.7,15.1s-36.8-7.3-48.2-15.4S71.8,147.1,69.4,142.7z"/>
			<g>
				<g>
					<g>
						<path class="st11" d="M99.3,209.2c-0.3-0.2-0.6-0.3-0.9-0.5c-0.4-0.2-0.9-0.5-1.3-0.7c-0.9-0.5-1.7-1.1-2.5-1.6
							c-1.4,1-3,1.9-4.7,2.8c0.1,0.1,0.2,0.3,0.4,0.4c1.3,1.3,2.7,2.6,4.3,3.9C96.4,212.1,98,210.7,99.3,209.2z"/>
						<path class="st11" d="M109.7,213.1c-0.2,0-0.3-0.1-0.5-0.1c-0.9-0.2-1.8-0.5-2.7-0.8c-0.3-0.1-0.5-0.2-0.8-0.3
							c-1.3-0.4-2.6-1-3.8-1.5c-1.4,1.6-3.1,3.2-5,4.7c1.8,1.2,3.9,2.5,6.1,3.7c-0.1,0.1-0.2,0.2-0.3,0.3c3.1-2.5,6.4-4.3,9.8-5.5h0
							C111.5,213.5,110.6,213.3,109.7,213.1z"/>
						<path class="st11" d="M100.7,220.6c-2.3-1.3-4.3-2.5-6.1-3.8c-1.9,1.3-3.9,2.6-6.2,3.9l-0.1-0.1c2.1,2.1,4.1,4.6,6.4,7.6
							c2.1-3.2,4.3-5.8,6.7-8C101.1,220.3,100.9,220.5,100.7,220.6z"/>
						<path class="st11" d="M89.1,217.2c1.2-0.7,2.2-1.4,3.2-2.1c-1.9-1.5-3.6-3.1-5-4.7c-3.9,1.7-7.8,2.9-10.5,3.1h0
							c3.9,1.4,6.9,3.1,9.5,5.3l-0.1-0.1C87.2,218.3,88.3,217.7,89.1,217.2z"/>
					</g>
					<path class="st12" d="M110.3,214.1"/>
				</g>
				<g>
					<path class="st13" d="M91.3,200.2l-5.2-18.2c-1.7,0.3-3.2,0.6-4.7,1L91.3,200.2z"/>
					<g>
						<path class="st11" d="M70.3,187.4c4.5,8.9,7.5,16.6,7,23.4c2.2-0.2,5.3-1.2,8.4-2.5c-3.4-4.6-5-9.7-4.9-15.6
							c0-2.1,0.4-4,1.2-5.7l-2-3.5C76.6,184.4,73.4,185.7,70.3,187.4z"/>
						<path class="st11" d="M89.4,200.1l-5.8-10c-0.1,0.5-0.2,1.1-0.2,1.7c0,0.3,0,0.6,0,1c0,1.1,0.1,2.1,0.2,3.1
							c0.4,3.1,1.3,5.9,2.8,8.7c0.2,0.3,0.4,0.6,0.5,0.9c0.4,0.6,0.8,1.2,1.2,1.8c1.6-0.8,3.1-1.7,4.5-2.6l-0.1-0.1
							C91.4,203.2,90.3,201.7,89.4,200.1z"/>
					</g>
				</g>
				<g>
					<path class="st14" d="M93.7,181.2c-2.1,0.1-4.1,0.2-6,0.5l6,20.8"/>
				</g>
				<g>
					<path class="st15" d="M101.4,181.7c-2.1-0.3-4.1-0.5-5.9-0.5l0,21.3L101.4,181.7z"/>
				</g>
				<g>
					<path class="st16" d="M107.6,183c-1.6-0.4-3.1-0.8-4.6-1L97.9,200L107.6,183z"/>
					<g>
						<path class="st11" d="M98.9,201.5c-0.7,1.1-1.5,2.1-2.3,3c1.3,0.9,2.9,1.8,4.5,2.6c0.3-0.4,0.7-0.9,1-1.3
							c2.7-4,3.8-8.4,3.8-13.1c0-0.3,0-0.7,0-1c0-0.6-0.1-1.2-0.3-1.7l-6.2,10.9C99.3,200.9,99.1,201.2,98.9,201.5z"/>
						<path class="st11" d="M119.1,187.4c-3.3-1.6-6.6-2.9-9.8-3.9l-2,3.4c0.8,1.7,1.2,3.6,1.2,5.7c0,5.9-1.6,11-4.9,15.6
							c3.1,1.3,6.3,2.3,8.5,2.5C111.7,203.2,114.1,195.5,119.1,187.4z"/>
						<g>
							<path class="st11" d="M98.9,201.4c-1.4,2.2-3,4-4.4,5c-5.2,3.7-13.2,6.8-17.8,7.1c0,0,0,0,0,0c3.2,0.6,6.4,2.6,9.7,5.1
								c0,0,0,0,0,0c0.9-0.5,1.7-1,2.5-1.4c6.1-3.6,10.3-7.4,12.9-11.4c2.7-4,3.8-8.4,3.8-13.1c0-0.3,0-0.7,0-1
								c0-0.6-0.1-1.2-0.3-1.7l-6.2,10.9C99.3,200.9,99.1,201.1,98.9,201.4z"/>
						</g>
					</g>
				</g>
			</g>
			<path class="st0" d="M261.4,244.9c0,0,2.3,21.9-6.7,34.5s-23.6,20.1-54.1,14.2c-30.6-5.9-66.4-32-66.4-32l47.1-31.5l18.2,1.1
				c0,0,16.9-9.7,30.8-7.7C244.1,225.5,258.5,238.9,261.4,244.9z"/>
			<path class="st1" d="M261.4,244.9c-2.9-5.9-17.3-19.4-31.1-21.4c-13.9-2-30.8,7.7-30.8,7.7s-7,0.9-17.4,7
				c-7.2,4.2-24.5,22.7-30.9,33.8c12.8,8.2,28.9,17.6,49.5,21.6c30.6,5.9,45.2-1.6,54.1-14.2C263.7,266.8,261.4,244.9,261.4,244.9z"
				/>
			<path class="st1" d="M60.1,230.9c0,0,20,0.9,24.5,0.4c4.5-0.5,67.1-10.3,77.5-10.6c10.4-0.4,21.2-0.9,26.4,1.6
				c5.2,2.5,7.9,8.8,7.9,8.8l-15.3,0.5c-10.1,4.5-45.5,30.8-66.7,42.8s-64.9,32.4-83.1,23c-18.2-9.4-23.4-43-23.4-43l15.3-18.5
				l21.2-6.8L60.1,230.9z"/>
			<path class="st10" d="M6.5,255.5l-2.2-8.5c0,0,12.2-12.6,22.6-17.9s31.1-7.6,31.1-7.6l1.8,8.6c0,0-18.5-0.5-29,5.4
				S6.5,255.5,6.5,255.5z"/>
			<path class="st10" d="M200.2,222.2c0,0,17.6-6.7,30.2-5.4s31.7,18,31.7,18l-0.7,10.1c0,0-13.9-16.7-30.4-17.8
				c-16.6-1.1-32.2,4.5-32.2,4.5L200.2,222.2z"/>
			<path class="st17" d="M42.4,227.8c-0.5,0.5-0.7,1.8,0.9,3.8c1.6,2,7.9,1.8,10.3,1.8c2.3,0,8.5,1.6,13.3,1.6s10.6-0.9,18.5-3.8
				c0,0-9.9-13.3-16.6-15.5c-6.7-2.2-29.9-4-30.9-2.3s-1.6,3.6-0.7,4.5c0.9,0.9,10.3,0,10.3,0l9.3,2.6l-16.6-0.2
				c0,0-1.3,1.6-1.1,3.2c1,1.7,2.7,2.1,3,2.8S42.4,227.8,42.4,227.8z"/>
			<line class="st18" x1="137.1" y1="388.3" x2="148.5" y2="382"/>
			<path class="st18" d="M106.5,380c0,0-0.4,24.1-3.2,28.8s-24.5,13.7-24.5,13.7"/>
			<path class="st18" d="M166.2,378.9c0,0-1.8,22.7,0.4,28.8c2.2,6.1,23.4,16.2,23.4,16.2"/>
			<path class="st19" d="M149,593.8c0,0-2.5,3.3-3.4,5.8c-1,2.7-0.6,7.6-0.6,7.6s2.1,3.7,5.3,3.5c3.2-0.2,9.2,2.2,11,3.6
				c1.8,1.4,11,1.1,14.6,1.4c3.6,0.4,20.4,9.3,25.9,11.3c7.7,2.9,20.8-0.5,23.7-1.3c5.9-1.6,9.4-7.7,9.4-7.7l-0.4-5.4
				c0,0-0.5,4.5-4.7,6.3c-4.1,1.8-10.1,3.5-15.1,3.8c-9,0.5-31.8-9.5-34-9.9c-2.2-0.4-11.5-9.2-17.8-12.4
				C156.5,597.3,149,593.8,149,593.8z"/>
			<polygon class="st2" points="91.4,571.6 90.1,578.4 67.8,579.8 59.5,571 61.7,564.6 			"/>
			<polygon class="st2" points="150.6,571.4 151.5,579.1 168.2,588.8 187.1,584.3 180.6,570.3 			"/>
			<path class="st7" d="M150.4,574.3c-1.8,3-3.2,7.7-3.1,11.9c0.2,4.1,1.8,7.9,1.8,7.9s14.4,6.6,18.3,9.6c4,3.1,7.2,6.6,10.6,8.2
				c3.4,1.6,22.3,9.5,30.6,11.2c3.9,0.8,13.9-0.4,20.1-3.1c2.8-1.2,5.6-3.8,5.6-5.4c0-1.6,0.5-5.8-2.5-8.1
				c-3.1-2.3-12.8-3.6-15.3-4.9c-2.5-1.3-22.3-19.4-22.8-23.2c-0.5-3.8-11.5-1.6-16.6-0.5c-4.9,1-16.7,4-20.7,2
				C154.1,578.6,151.5,572.5,150.4,574.3z"/>
			<path class="st10" d="M182.6,588.3c0,0-3.2-8.8-2.9-14c0.4-5.2,1.4-9.2,4.1-12.2c2.7-3.1,4.1-7.2,10.4-3.6c6.3,3.6,9,4.9,9.9,7.6
				s-7.9,7.9-8.6,11.9c-0.7,4-0.9,7.6-0.9,7.6L182.6,588.3z"/>
			<path class="st10" d="M148.7,578.2c0,0,10.9,4,13.6,7.7s8.8,20.5,8.8,20.5s-12.8-8.8-16-9.7c-2.1-0.6-3.9-1.5-5-2.1
				c-0.6-0.3-0.9-0.6-0.9-0.6S145.2,584.3,148.7,578.2z"/>
			<path class="st7" d="M90.8,573.9c0,0,2.7,1.6,3.2,4.1c0.5,2.5,2,10.3,1.3,13.1c-0.7,2.9-2.2,3.6-2.2,3.6s-24.6,1.6-29.7,3.4
				c-5,1.8-14.7,7.8-29.2,8.9s-25.6-1.7-29.6-6.4c-4-4.7-2.3-7.2-2.3-7.2s1.8-3.6,10.6-3.2c8.8,0.4,11.9-0.5,15.3-1.4
				s18.5-10.8,20.3-13.7c1.8-2.9,10.3-5.6,12.6-4.1c2.3,1.4,10.6,5.9,14,6.1c3.4,0.2,13.5-0.9,14.2-1.6
				C90.1,574.8,90.8,573.9,90.8,573.9z"/>
			<path class="st19" d="M2.2,594.4c0,0-2.1,2-2.2,5.3c0,1.3,2.5,7.6,8.8,10.5c6,2.8,15.7,4.1,25.7,2.7s22.1-4.7,25.4-3.8
				s7.4,2.7,11.7,3.1c4.3,0.4,11.3-4.1,15.1-4.1c3.8,0,10.8,1.6,13.9,1.8c3.1,0.2-2.2-15.8-5.9-15.8c-3.8,0-28.8,2.2-32,3.8
				c-3.2,1.6-19.1,10.3-34.7,8.8c-15.7-1.4-19.7-3.3-22.8-6.3C2.8,598.3,2.2,594.4,2.2,594.4z"/>
			<path class="st9" d="M60.6,568.2l-0.9-9.4c0,0,8.5-2.9,12.8-0.4c4.3,2.5,15.5,3.1,18,3.1c2.5,0,5,1.1,5,1.1s1.1,4,0,7
				c-1.1,3.1,0.9,4.1-2.7,4.3c-3.6,0.2-9.2-4.3-13.3-4.7C75.4,568.9,60.6,568.2,60.6,568.2z"/>
			<path class="st9" d="M143.7,565.5c0,0,1.8,7,2,7.7c0.2,0.7,1.8,0.7,7.6,1.4c5.8,0.7,6.8,1.1,11.9,1.4c5,0.4,5.2,0,9.7-1.1
				s6.8-3.2,7.4-3.8c0.5-0.5-0.7-7.4-0.9-8.3c-0.2-0.9-4.9,2.3-8.8,2.7c-4,0.4-15.1,3.6-18.2,1.4
				C151.3,564.9,143.7,565.5,143.7,565.5z"/>
			<path class="st10" d="M94.1,581.6c0,0-7.6-2.7-13.7,0.4c-6.1,3.1-9,5.6-11.5,8.3c-2.3,2.5-6,7.5-6,7.5c-0.1-1,31.6-4.6,31.8-3.7
				C94.6,594.1,97.7,584.7,94.1,581.6z"/>
			<path class="st10" d="M35.8,559.7c-2-2.9,8.3-8.1,12.8-8.3c4.5-0.2,9.4,4.3,10.6,9.7c1.3,5.4,5.8,14.4,5.8,14.4s-10.8-2-11.7-4
				c-0.9-2-4.1-4.7-8.5-6.8S37.1,561.5,35.8,559.7z"/>
			<path class="st9" d="M181.9,600l-2.9-2.7c0,0,5.6-6.8,14.4-9.7c8.6-2.8,10.1,0,10.1,0l2.3,2.9c0,0-7.4,0-11.7,2.2
				C189.8,594.8,184.2,598,181.9,600z"/>
			<path class="st9" d="M190.5,607l-2.9-2.7c0,0,5.6-6.8,14.4-9.7c8.6-2.8,10.1,0,10.1,0l2.3,2.9c0,0-7.4,0-11.7,2.2
				C198.4,601.8,192.8,605,190.5,607z"/>
			<path class="st9" d="M44.6,575.9c0,0,6.3-0.9,12.2,3.6s4.3,4.1,4.3,4.1l-4.5,4.1c0,0-1.4-4.5-7.2-6.3s-9.7-1.8-9.7-1.8
				L44.6,575.9z"/>
			<path class="st9" d="M33.1,583.3c0,0,6.3-0.9,12.2,3.6s4.3,4.1,4.3,4.1l-4.5,4.1c0,0-1.4-4.5-7.2-6.3s-9.7-1.8-9.7-1.8
				L33.1,583.3z"/>
			<circle class="st12" cx="111.4" cy="64.6" r="1.6"/>
			<circle class="st12" cx="141.2" cy="63.9" r="1.6"/>
		</g>
	</g>
</g>
</svg>
