<?xml version="1.0" encoding="utf-8"?>
<!-- Generator: Adobe Illustrator 22.0.1, SVG Export Plug-In . SVG Version: 6.00 Build 0)  -->
<svg version="1.1" id="Layer_1" xmlns="http://www.w3.org/2000/svg" xmlns:xlink="http://www.w3.org/1999/xlink" x="0px" y="0px"
	 viewBox="0 0 352.1 844" style="enable-background:new 0 0 352.1 844;" xml:space="preserve">
<style type="text/css">
	.st0{fill:#A0695F;}
	.st1{fill:#B2776B;}
	.st2{fill:#BC7F6C;}
	.st3{fill:#680100;}
	.st4{stroke:#680100;stroke-width:2.4855;stroke-linecap:round;stroke-linejoin:round;stroke-miterlimit:10;}
	.st5{fill:none;stroke:#680100;stroke-width:2.4855;stroke-linecap:round;stroke-linejoin:round;stroke-miterlimit:10;}
	.st6{fill:#EA4918;}
	.st7{fill:#F7931E;}
	.st8{fill:#CE8936;}
	.st9{fill:#F4C484;}
	.st10{fill:#F15A24;}
	.st11{fill:#FFFFFF;}
	.st12{fill:#C18372;}
	.st13{fill:none;stroke:#D67822;stroke-width:2.8998;stroke-linecap:round;stroke-linejoin:round;stroke-miterlimit:10;}
	.st14{fill:#EFD2AF;}
	.st15{fill:#FF931E;}
</style>
<g>
	<g>
		<path class="st0" d="M135.1,159.5c0,0-1.1,19.2-2.7,22.3c-4.2,8-29.9,9.1-29.9,9.1s16.9,31.7,41,39.5c24.1,7.8,58.2,5.4,75-6.5
			c16.9-12,31-30.3,31-30.3s-17-0.9-23.7-6.5c-6.7-5.6-12.1-33.5-12.1-33.5L135.1,159.5z"/>
		<path class="st1" d="M225.7,187c-1.7-1.4-4.7-7.7-6.2-11.1c-4.8,6.4-20.9,30.2-35.2,34.1c-19.8,5.4-58-4.3-77.2-12.3
			c7.1,10,21.2,27.7,36.2,32.6c24.1,7.8,58.2,5.4,75-6.5c16.9-12,31-30.3,31-30.3S232.4,192.7,225.7,187z"/>
		<path class="st1" d="M121.3,103c0,0-3.4-37.7-1.2-43c2.2-5.3,35.3-33.6,40.6-35.3c5.3-1.7,17.4-3.4,32.9,6.8S217.7,52.7,218,54
			c0.2,1.2,2.9,11.8,3.9,18.8c1,7,0.5,24.4,0.5,24.4s14.5-9.8,17.2-9.2c4.8,1.2,3.6,12.1,3.4,15c-0.3,3.4-2.4,15.7-6.8,19.6
			c-4.3,3.9-13.3,5.8-13.3,5.8s1,14.5-2.2,20.3c-3.1,5.8-33.8,30.9-41.8,31.2c-8,0.2-48.3-19.6-51-25.1c-2.7-5.6-3.1-14.7-3.1-14.7
			s-5.1,1.7-9.7-1.2s-10.1-14.7-11.4-20.5c-1.2-5.8-3.9-14.3-0.5-16.9C106.6,98.7,121.3,103,121.3,103z"/>
		<path class="st2" d="M179.3,171.3c14.4-1.9,28.7-20.6,35.2-31.2c6.6-10.7,5.8-22.1,6-30c0.2-8.3-3.6-35.3-5.1-40
			c-1.4-4.7-11.6-23.1-27.5-26.7s-36.7,3.4-49.8,12.8s-16.2,46.4-16.2,46.4s-14.7-4.3-18.1-1.7c-3.4,2.7-0.7,11.1,0.5,16.9
			c1.2,5.8,6.8,17.6,11.4,20.5c4.6,2.9,9.7,1.2,9.7,1.2s0.5,9.2,3.1,14.7c0.9,2,6.7,5.8,14.1,9.8C151.6,167,166.7,173,179.3,171.3z"
			/>
		<path class="st3" d="M135.8,68.7l0.2,8.5c0,0,7.7-3.9,12.1-5.1c4.3-1.2,13.3-3.4,13.3-3.4s1.9-8.5-1.4-9.7
			C158,58.3,141.1,62.9,135.8,68.7z"/>
		<path class="st3" d="M208.5,65.1l1.1,8.4c0,0-8.3-2.6-12.7-3c-4.5-0.5-13.7-1.2-13.7-1.2s-3.3-8-0.1-9.8
			C184.9,58.5,202.3,60.2,208.5,65.1z"/>
		<circle class="st4" cx="152.2" cy="88.8" r="5.8"/>
		<path class="st4" d="M142.8,85c0,0,6.1-2.3,9-2.1"/>
		<circle class="st4" cx="191.9" cy="88" r="5.8"/>
		<path class="st4" d="M201.4,84.3c0,0-6.1-2.3-9-2.1"/>
		<path class="st5" d="M170.4,91c0,0-1.3,8.4-2.7,11.1c-1.6,3.1-6.7,6.2-6.5,10c0.2,4.7,5.6,8.5,13.4,8.7c7.8,0.2,13-4.5,13-4.5"/>
		<path class="st5" d="M163,132.3c0,0,2.7,6.7,10.3,6.5c7.6-0.2,9.6-6.5,9.6-6.5"/>
		<path class="st5" d="M116.4,111.3c0,0-5.6-2.2-6.7,2c-1.1,4.2,4.3,12.5,6.2,14.5"/>
		<path class="st5" d="M229,101.7c0,0,4.2-4.3,6.7-2.7c3.4,2.2-0.4,12.3-6,17.2"/>
		<path class="st6" d="M121.3,99.9c0,0,3.3-33.2,5.3-36.8c2-3.6,28.3-29.2,41-29.9c12.7-0.7,44.2,15.9,46.4,21.2
			c2.2,5.3,8,35.5,8,35.5s2.4-21.9,2.2-34.4c-0.2-12.5-1.8-30.3-1.8-30.3s-0.4-7.2-3.6-7.8s-6.9,4.2-6.9,4.2s-0.9-10.7-5.3-11.8
			s-6.9,2.9-6.9,2.9s-0.9-7.8-5.3-8.7s-9.1,4.9-9.1,4.9s-3.1-8.7-7.6-8.9c-4.5-0.2-10.1,4.5-12.1,7.2c0,0-4.7-5.8-10.3-5.3
			c-5.6,0.5-9.1,10.9-9.1,10.9s-6.7-6.2-11.8-4c-5.1,2.2-3.1,9.8-3.1,9.8s-5.4-5.3-10.1-2.9c-4.7,2.4-2.2,10.5-2.2,10.5
			s-9.1-2.2-12.1,0.4c-3.1,2.5,6.5,11.4,6.5,11.4s0.9,15.9,2.5,30.3C117.5,82.6,121.3,99.9,121.3,99.9z"/>
		<path class="st7" d="M106.1,516.5c0,0-1.4,66.2-1.7,76.6c-0.2,10.4-2.9,56.5-3.6,81.2c-0.7,24.6-6.3,45.4-6.5,46.9
			c-0.2,1.4-10.6,1.2-10.6,7.2c0,6,4.6,10.4,4.6,14s-5.8,6.8-6.5,9.7c-0.7,2.9-0.2,11.1-0.2,11.1s16.9,1,24.6,1.2s12.8,6.3,17.9,5.3
			c5.1-1,3.4-9.7,2.7-13c-0.7-3.4,0.7-12.3,3.6-13.3c2.9-1,7-7.7,7-7.7s19.8-38.7,24.6-57.3c4.8-18.6,6.8-45.2-2.7-62.1
			c0,0,24.4-70.6,24.4-93.8c0,0,7.8,74.1,8.2,86.8c0.2,8.2-13.3,44.5-10.4,62.6c2.9,18.1,21.3,56.8,21.7,60.2
			c0.5,3.4-8.7,10.6-8.2,13.5c0.5,2.9,7,6.3,7.2,8c0.2,1.7-7.5,3.9-7.2,7.2c0.2,3.4,7,9.2,9.7,10.6s10.1,0,11.8,1.2
			c1.7,1.2,8.9,1.7,13,0.5c4.1-1.2,15.2-4.6,15.7-8c0.5-3.4-3.6-7.7-5.1-9.9c-1.4-2.2,3.4-4.3,3.6-6c0.2-1.7-3.6-4.8-4.6-7.7
			c-1-2.9-0.7-4.3,0.2-6.5c1-2.2-0.7-2.4-1.2-5.3c-0.5-2.9,3.9-60.2,5.1-70.6s9.2-34.3,9.9-38.2s2.9-41.3,1.4-64.3
			s-4.1-45.2-4.1-45.2l-32.9-12.6l-100,7.5L106.1,516.5z"/>
		<path class="st8" d="M87.6,525.4c0,0,0.6,5.1,10.5,6.8c9.9,1.7,10.1,0.2,10.1,0.2l0.5-19.3l-15.2,4.1L87.6,525.4z"/>
		<path class="st8" d="M251.3,510.4c0,1.2,0,16.9,0,16.9s9.4-0.5,11.1-5.3C264.1,517.2,251.3,510.4,251.3,510.4z"/>
		<path class="st9" d="M106.1,201.7c0,0-23.4,25.9-28.1,43s-2.4,49.8,8.9,86.1s0.7,194.6,0.7,194.6s7.5-6.1,25.7-12
			c19.2-6.2,76.8-12,115.3-6.2c31.2,4.7,34.1,13.8,34.1,13.8s-0.4-161.7,1.4-181.6c1.8-19.9,8.7-53.6,6.2-77.6s-17-46.4-26.1-54.7
			c0,0-30.8,30.1-63.1,28.6C148.9,234.3,122.8,219.1,106.1,201.7z"/>
		<path class="st7" d="M73.1,300.3c0,0-23.2,1.8-36.6,9.1S6.9,332.6,6.9,332.6s-5.6-33.3-5.3-58.4s9.7-38.7,18.8-47.8
			c9.4-9.4,25-16.7,39.9-23.2c14.9-6.5,37.7-11.2,37.7-11.2l8,9.8c0,0-26.1,29.7-28.3,47.5c-2.2,17.8,0.7,47.1,0.7,47.1L73.1,300.3z
			"/>
		<path class="st7" d="M244.2,207.2l10.5-13.8c0,0,38.4,5.4,53.6,9.8c15.2,4.3,29.4,16.7,33.7,24.6c4.3,8,8.7,21.4,9.4,39.9
			s-0.4,48.4-0.4,48.4s-17.2-19.8-39.1-23.4c-21.6-3.6-42.8,7.2-42.8,7.2s3.6-35.2-2.5-51.1C260.5,232.9,259.4,225.6,244.2,207.2z"
			/>
		<path class="st10" d="M93.2,191.8l15.4-3.1c0,0,7.9,17.1,26.6,27.2c18.5,10,48.6,20.9,82.3,2.7c18.1-9.8,27.9-26.3,27.9-26.3
			l14.5,0.5c0,0-11.8,16.9-24.8,27s-25.7,19.6-53.3,20.3s-49.5-9.8-64.7-20.7S96.5,197.6,93.2,191.8z"/>
		<g>
			<g>
				<path class="st11" d="M121.8,295.7c8.8-5.3,14.9-10.7,18.8-16.6C136.7,285,130.6,290.4,121.8,295.7z"/>
				<path class="st11" d="M140.2,247.8c0.5,0.3,1,0.7,1.4,1.1C141.2,248.6,140.7,248.2,140.2,247.8z"/>
				<polygon class="st11" points="103.9,290.4 103.9,290.4 103.9,290.4 				"/>
				<path class="st11" d="M118.1,297.8C118.1,297.8,118.1,297.8,118.1,297.8c1.3-0.7,2.5-1.4,3.7-2.1
					C120.6,296.4,119.4,297.1,118.1,297.8C118.1,297.8,118.1,297.8,118.1,297.8z"/>
				<path class="st11" d="M142.3,249.6c0.4,0.5,0.9,1,1.2,1.5C143.2,250.6,142.8,250.1,142.3,249.6z"/>
			</g>
			<g>
				<path class="st11" d="M120.1,266.4c-0.2-0.6-0.4-1.2-0.6-1.7C119.7,265.2,119.9,265.8,120.1,266.4z"/>
				<path class="st11" d="M119.1,263.4c-0.1-0.4-0.2-0.9-0.3-1.3C118.8,262.5,118.9,262.9,119.1,263.4z"/>
				<path class="st11" d="M120.7,267.8c-0.2-0.4-0.3-0.7-0.5-1.1C120.4,267.1,120.6,267.5,120.7,267.8z"/>
				<path class="st11" d="M152.9,291.1c0.9-0.3,1.8-0.5,2.7-0.7c0,0,0,0,0,0C154.7,290.5,153.8,290.8,152.9,291.1z"/>
				<path class="st11" d="M123.4,284.7c2.3,2.4,5.1,4.8,8.3,7.1C128.5,289.5,125.7,287.1,123.4,284.7z"/>
				<path class="st11" d="M141.4,297.8C141.4,297.8,141.4,297.8,141.4,297.8c-3.6-2-6.8-4-9.7-6
					C134.6,293.8,137.8,295.8,141.4,297.8z"/>
				<path class="st11" d="M152.6,291.2c0.1,0,0.2-0.1,0.3-0.1C152.8,291.1,152.7,291.2,152.6,291.2z"/>
				<g>
					<path class="st11" d="M136.6,284.1c-0.4-0.2-0.9-0.4-1.3-0.7c-0.6-0.3-1.2-0.7-1.8-1c-1.3-0.8-2.5-1.5-3.7-2.3
						c-2,1.4-4.4,2.8-6.9,4.1c0.2,0.2,0.4,0.4,0.5,0.6c1.8,1.9,3.9,3.8,6.3,5.6C132.4,288.3,134.7,286.2,136.6,284.1z"/>
					<path class="st11" d="M151.7,289.8c-0.2-0.1-0.5-0.1-0.7-0.2c-1.3-0.3-2.6-0.7-4-1.1c-0.4-0.1-0.8-0.3-1.1-0.4
						c-1.8-0.6-3.7-1.4-5.6-2.2c-2.1,2.3-4.5,4.6-7.2,6.8c2.6,1.8,5.7,3.6,8.8,5.3c-0.2,0.2-0.3,0.3-0.5,0.4
						c4.5-3.7,9.3-6.3,14.2-8.1h0C154.4,290.3,153.1,290.1,151.7,289.8z"/>
					<path class="st11" d="M138.7,300.7c-3.3-1.8-6.2-3.7-8.9-5.6c-2.7,1.9-5.7,3.8-9.1,5.7l-0.2-0.2c3.1,3,6,6.6,9.2,11.1
						c3.1-4.7,6.3-8.5,9.7-11.6C139.2,300.3,138.9,300.5,138.7,300.7z"/>
					<path class="st11" d="M121.8,295.7c1.7-1,3.2-2,4.7-3c-2.8-2.2-5.2-4.5-7.2-6.8c-5.6,2.5-11.4,4.2-15.3,4.5h0
						c5.7,2.1,10,4.5,13.9,7.8l-0.1-0.1C119,297.3,120.6,296.4,121.8,295.7z"/>
				</g>
				<path class="st11" d="M152.6,291.2"/>
			</g>
			<g>
				<path class="st11" d="M125,271l-7.5-26.5c-2.4,0.4-4.7,0.9-6.8,1.5L125,271z"/>
				<g>
					<path class="st11" d="M118.3,259.3L125,271l-5.4-19C118.4,254,118,256.6,118.3,259.3z"/>
					<path class="st11" d="M125,275c-0.1-0.1-2.2-3.3-2.3-3.3l-0.5-0.9c1.3,2.4,2.9,4.6,4.4,6.3L125,275z"/>
					<path class="st11" d="M94.4,252.3c6.5,13,10.9,24.1,10.1,34.1c3.3-0.4,7.8-1.8,12.2-3.7c-4.9-6.7-7.2-14.2-7.2-22.7
						c0-3.1,0.6-5.9,1.7-8.3l-2.9-5C103.6,248.1,99,250,94.4,252.3z"/>
					<path class="st11" d="M122.2,270.8l-8.4-14.6c-0.2,0.8-0.3,1.6-0.4,2.4c0,0.5,0,0.9,0,1.4c0,1.5,0.1,3,0.2,4.5
						c0.5,4.4,1.8,8.6,4.1,12.6c0.3,0.4,0.5,0.9,0.8,1.3c0.5,0.9,1.2,1.7,1.8,2.6c2.3-1.2,4.6-2.4,6.5-3.7l-0.2-0.2
						C125.1,275.4,123.6,273.2,122.2,270.8z"/>
				</g>
			</g>
			<g>
				<path class="st11" d="M128.5,243.4c-3.1,0.1-6,0.3-8.7,0.7l8.7,30.3"/>
				<g>
					<path class="st11" d="M128.5,274.3l0-1c-0.2-0.2-0.3-0.4-0.5-0.6L128.5,274.3z"/>
					<path class="st11" d="M128.5,250.9"/>
				</g>
			</g>
			<g>
				<path class="st11" d="M139.6,244.1c-3-0.4-5.9-0.7-8.6-0.7l0,30.9L139.6,244.1z"/>
				<path class="st11" d="M138.3,246.7c0.2,0.1,0.3,0.2,0.5,0.3l0.2-0.7h-1.7C137.6,246.4,138,246.6,138.3,246.7z"/>
			</g>
			<g>
				<path class="st11" d="M148.7,246c-2.3-0.6-4.5-1.1-6.7-1.5l-7.5,26.3L148.7,246z"/>
				<g>
					<path class="st11" d="M136,273c-1,1.6-2.2,3.1-3.3,4.4c1.9,1.3,4.1,2.6,6.5,3.7c0.5-0.6,1-1.3,1.4-2c3.9-5.9,5.5-12.2,5.5-19.1
						c0-0.5,0-0.9,0-1.4c-0.1-0.9-0.2-1.7-0.4-2.5l-9.1,15.9C136.6,272,136.3,272.5,136,273z"/>
					<path class="st11" d="M165.4,252.3c-4.8-2.4-9.5-4.2-14.3-5.7l-2.9,5c1.1,2.5,1.7,5.3,1.7,8.4c0,8.6-2.3,16-7.2,22.7
						c4.5,1.9,9.1,3.4,12.4,3.7C154.6,275.5,158.1,264.1,165.4,252.3z"/>
					<g>
						<path class="st11" d="M139.9,251.9l-5.4,18.9l6.7-11.8l0,0C141.5,256.4,141.1,253.9,139.9,251.9z"/>
						<path class="st11" d="M136.1,272.8c-2,3.2-4.3,5.9-6.4,7.3c-7.5,5.3-19.2,9.9-25.8,10.3c0,0,0,0,0,0c4.6,0.9,9.4,3.7,14.1,7.4
							c0,0,0,0,0,0c1.3-0.7,2.5-1.4,3.7-2.1c8.8-5.3,14.9-10.7,18.8-16.6c3.9-5.9,5.5-12.2,5.5-19.1c0-0.5,0-0.9,0-1.4
							c-0.1-0.9-0.2-1.7-0.4-2.5l-9.1,15.9C136.6,272,136.4,272.4,136.1,272.8z"/>
					</g>
				</g>
			</g>
		</g>
		<path class="st0" d="M351.1,329c0,0,3.1,29.5-8.9,46.4c-12.1,16.9-31.7,27.1-72.7,19.1c-41.1-8-89.2-43-89.2-43l63.3-42.3
			l24.4,1.4c0,0,22.7-13,41.3-10.4C327.9,302.9,347.3,321,351.1,329z"/>
		<path class="st1" d="M351.1,329c-3.9-8-23.2-26.1-41.8-28.8c-18.6-2.7-41.3,10.4-41.3,10.4s-9.4,1.2-23.4,9.4
			c-9.6,5.7-33,30.4-41.6,45.4c17.2,11,38.8,23.6,66.5,29c41.1,8,60.7-2.2,72.7-19.1C354.3,358.4,351.1,329,351.1,329z"/>
		<path class="st1" d="M80.7,310.1c0,0,26.8,1.2,32.9,0.5s90.1-13.8,104.2-14.3c14-0.5,28.5-1.2,35.5,2.2c7,3.4,10.6,11.8,10.6,11.8
			l-20.5,0.7c-13.5,6-61.1,41.3-89.7,57.5c-28.5,16.2-87.2,43.5-111.6,30.9s-31.4-57.8-31.4-57.8l20.5-24.9l28.5-9.2L80.7,310.1z"/>
		<path class="st10" d="M8.8,343.3l-2.9-11.4c0,0,16.4-17,30.4-24s41.8-10.1,41.8-10.1l2.4,11.6c0,0-24.9-0.7-38.9,7.2
			S8.8,343.3,8.8,343.3z"/>
		<path class="st10" d="M269,298.5c0,0,23.7-8.9,40.6-7.2c16.9,1.7,42.5,24.2,42.5,24.2l-1,13.5c0,0-18.6-22.5-40.8-23.9
			c-22.2-1.4-43.3,6-43.3,6L269,298.5z"/>
		<path class="st12" d="M56.9,305.9c-0.6,0.7-0.9,2.4,1.3,5.1c2.2,2.7,10.6,2.4,13.8,2.4s11.4,2.2,17.9,2.2c6.5,0,14.3-1.2,24.9-5.1
			c0,0-13.3-17.9-22.2-20.8c-8.9-2.9-40.1-5.3-41.6-3.1s-2.1,4.9-0.9,6.1c1.2,1.2,13.8,0,13.8,0l12.5,3.4l-22.3-0.3
			c0,0-1.8,2.2-1.4,4.3c1.3,2.3,3.7,2.9,4,3.8C57,304.9,56.9,305.9,56.9,305.9z"/>
		<line class="st13" x1="184.1" y1="521.5" x2="199.4" y2="513.1"/>
		<path class="st13" d="M143.1,510.4c0,0-0.5,32.4-4.3,38.7c-3.9,6.3-32.9,18.4-32.9,18.4"/>
		<path class="st13" d="M223.3,509c0,0-2.4,30.4,0.5,38.7c2.9,8.2,31.4,21.7,31.4,21.7"/>
		<path class="st14" d="M200.1,797.6c0,0-3.3,4.5-4.6,7.9c-1.3,3.6-0.8,10.3-0.8,10.3s2.8,5,7.1,4.7c4.3-0.2,12.3,2.9,14.7,4.8
			c2.4,1.9,14.7,1.4,19.6,1.9c4.8,0.5,27.3,12.5,34.8,15.2c10.4,3.9,27.9-0.6,31.9-1.7c8-2.2,12.6-10.4,12.6-10.4l-0.5-7.2
			c0,0-0.7,6-6.3,8.5c-5.6,2.4-13.5,4.7-20.3,5.1c-12.1,0.7-42.8-12.8-45.7-13.3c-2.9-0.5-15.5-12.3-23.9-16.7
			S200.1,797.6,200.1,797.6z"/>
		<polygon class="st2" points="122.8,767.8 121.1,777 91.1,778.9 80,767.1 82.9,758.4 		"/>
		<polygon class="st2" points="202.3,767.5 203.5,777.9 225.9,791 251.3,784.9 242.6,766.1 		"/>
		<path class="st15" d="M202,771.4c-2.4,4-4.3,10.4-4.1,15.9c0.2,5.6,2.4,10.6,2.4,10.6s19.3,8.8,24.6,12.9s9.7,8.8,14.3,11
			c4.6,2.2,30,12.8,41.1,15c5.2,1,18.7-0.5,27.1-4.1c3.7-1.6,7.5-5.1,7.5-7.2c0-2.2,0.7-7.7-3.4-10.9c-4.1-3.1-17.2-4.8-20.5-6.5
			S261,782,260.3,777c-0.7-5.1-15.5-2.2-22.2-0.7c-6.6,1.4-22.5,5.3-27.8,2.7C207,777.3,203.5,769,202,771.4z"/>
		<path class="st10" d="M245.3,790.3c0,0-4.3-11.8-3.9-18.8c0.5-7,1.9-12.3,5.6-16.4s5.6-9.7,14-4.8s12.1,6.5,13.3,10.1
			s-10.6,10.6-11.6,15.9c-1,5.3-1.2,10.1-1.2,10.1L245.3,790.3z"/>
		<path class="st10" d="M199.7,776.7c0,0,14.6,5.3,18.2,10.4s11.8,27.5,11.8,27.5s-17.2-11.8-21.5-13c-2.8-0.8-5.3-2.1-6.7-2.9
			c-0.8-0.5-1.3-0.8-1.3-0.8S195,784.9,199.7,776.7z"/>
		<path class="st15" d="M122,770.9c0,0,3.6,2.2,4.3,5.6c0.7,3.4,2.7,13.8,1.7,17.6c-1,3.9-2.9,4.8-2.9,4.8s-33.1,2.2-39.9,4.6
			c-6.8,2.4-19.7,10.5-39.3,12s-34.4-2.3-39.8-8.6c-5.3-6.3-3.1-9.7-3.1-9.7s2.4-4.8,14.3-4.3c11.8,0.5,15.9-0.7,20.5-1.9
			c4.6-1.2,24.9-14.5,27.3-18.4c2.4-3.9,13.8-7.5,16.9-5.6c3.1,1.9,14.3,8,18.8,8.2c4.6,0.2,18.1-1.2,19.1-2.2
			C121.1,772.1,122,770.9,122,770.9z"/>
		<path class="st14" d="M2.9,798.5c0,0-2.8,2.7-2.9,7.1c0,1.7,3.4,10.1,11.8,14.1c8,3.8,21,5.6,34.6,3.6c13.5-1.9,29.7-6.3,34.1-5.1
			c4.3,1.2,9.9,3.6,15.7,4.1s15.2-5.6,20.3-5.6c5.1,0,14.5,2.2,18.6,2.4c4.1,0.2-2.9-21.3-8-21.3s-38.7,2.9-43,5.1
			c-4.3,2.2-25.6,13.8-46.6,11.8c-21-1.9-26.5-4.5-30.7-8.5C3.8,803.6,2.9,798.5,2.9,798.5z"/>
		<path class="st9" d="M81.4,763.2l-1.2-12.6c0,0,11.4-3.9,17.2-0.5c5.8,3.4,20.8,4.1,24.2,4.1c3.4,0,6.8,1.4,6.8,1.4s1.4,5.3,0,9.4
			c-1.4,4.1,1.2,5.6-3.6,5.8c-4.8,0.2-12.3-5.8-17.9-6.3C101.3,764.2,81.4,763.2,81.4,763.2z"/>
		<path class="st9" d="M193.1,759.6c0,0,2.4,9.4,2.7,10.4s2.4,1,10.1,1.9c7.7,1,9.2,1.4,15.9,1.9c6.8,0.5,7,0,13-1.4
			c6-1.4,9.2-4.3,9.9-5.1c0.7-0.7-1-9.9-1.2-11.1c-0.2-1.2-6.5,3.1-11.8,3.6c-5.3,0.5-20.3,4.8-24.4,1.9
			C203.2,758.8,193.1,759.6,193.1,759.6z"/>
		<path class="st10" d="M126.4,781.3c0,0-10.1-3.6-18.4,0.5c-8.2,4.1-12.1,7.5-15.5,11.1c-3.2,3.4-8.1,10-8.1,10
			c-0.1-1.3,42.5-6.2,42.7-5C127.1,798,131.2,785.4,126.4,781.3z"/>
		<path class="st10" d="M48.1,751.8c-2.7-3.9,11.1-10.9,17.2-11.1s12.6,5.8,14.3,13c1.7,7.2,7.7,19.3,7.7,19.3s-14.5-2.7-15.7-5.3
			c-1.2-2.7-5.6-6.3-11.4-9.2C54.4,755.7,49.8,754.3,48.1,751.8z"/>
		<path class="st9" d="M244.3,806l-3.9-3.6c0,0,7.5-9.2,19.3-13c11.6-3.8,13.5,0,13.5,0l3.1,3.9c0,0-9.9,0-15.7,2.9
			C254.9,799,247.4,803.3,244.3,806z"/>
		<path class="st9" d="M255.9,815.4l-3.9-3.6c0,0,7.5-9.2,19.3-13c11.6-3.8,13.5,0,13.5,0l3.1,3.9c0,0-9.9,0-15.7,2.9
			S259,812.7,255.9,815.4z"/>
		<path class="st9" d="M59.9,773.6c0,0,8.5-1.2,16.4,4.8c8,6,5.8,5.6,5.8,5.6l-6,5.6c0,0-1.9-6-9.7-8.5c-7.7-2.4-13-2.4-13-2.4
			L59.9,773.6z"/>
		<path class="st9" d="M44.5,783.5c0,0,8.5-1.2,16.4,4.8c8,6,5.8,5.6,5.8,5.6l-6,5.6c0,0-1.9-6-9.7-8.5s-13-2.4-13-2.4L44.5,783.5z"
			/>
		<circle class="st11" cx="149.7" cy="86.7" r="2.2"/>
		<circle class="st11" cx="189.7" cy="85.9" r="2.2"/>
	</g>
</g>
</svg>
