<svg width="330" height="790" viewBox="0 0 330 790" fill="none" xmlns="http://www.w3.org/2000/svg">
<g clip-path="url(#clip0)">
<path d="M126.455 149.305C126.455 149.305 125.438 167.251 123.865 170.211C119.98 177.704 95.8359 178.721 95.8359 178.721C95.8359 178.721 111.654 208.416 134.133 215.724C156.705 223.032 188.619 220.812 204.345 209.618C220.164 198.425 233.392 181.312 233.392 181.312C233.392 181.312 217.481 180.479 211.191 175.206C204.9 169.933 199.813 143.847 199.813 143.847L126.455 149.305Z" fill="#A0695F"/>
<path d="M211.283 175.114C209.711 173.819 206.843 167.898 205.548 164.753C201.015 170.766 185.937 192.967 172.616 196.667C154.022 201.755 118.315 192.597 100.369 185.104C106.937 194.447 120.165 211.098 134.318 215.631C156.89 222.939 188.804 220.719 204.53 209.526C220.349 198.333 233.577 181.219 233.577 181.219C233.577 181.219 217.574 180.294 211.283 175.114Z" fill="#B2776B"/>
<path d="M113.505 96.3914C113.505 96.3914 110.359 61.1467 112.395 56.1514C114.43 51.156 145.419 24.6994 150.414 23.1268C155.41 21.5542 166.695 19.9816 181.219 29.4172C195.742 38.8528 203.883 49.3059 204.068 50.416C204.253 51.5261 206.751 61.5167 207.676 68.0846C208.601 74.6525 208.138 90.9336 208.138 90.9336C208.138 90.9336 221.736 81.683 224.234 82.3305C228.767 83.4406 227.657 93.6162 227.379 96.3914C227.102 99.5366 225.159 111.1 221.089 114.708C217.019 118.315 208.693 120.165 208.693 120.165C208.693 120.165 209.618 133.764 206.658 139.129C203.698 144.494 174.836 168.083 167.343 168.361C159.85 168.638 122.108 150.045 119.61 144.864C117.112 139.684 116.65 131.081 116.65 131.081C116.65 131.081 111.932 132.654 107.584 129.971C103.329 127.288 98.0561 116.188 96.9461 110.73C95.836 105.272 93.3383 97.409 96.4835 94.9113C99.7212 92.3211 113.505 96.3914 113.505 96.3914Z" fill="#B2776B"/>
<path d="M167.805 160.313C181.311 158.463 194.632 140.979 200.738 131.173C206.935 121.183 206.195 110.452 206.38 103.144C206.565 95.3737 202.958 70.1196 201.663 65.6793C200.275 61.239 190.839 44.0329 175.853 40.7027C160.96 37.28 141.441 43.8479 129.231 52.7285C117.02 61.609 114.06 96.1137 114.06 96.1137C114.06 96.1137 100.276 92.0435 97.131 94.5411C93.9858 97.0388 96.4835 104.902 97.5935 110.36C98.7036 115.817 103.884 126.826 108.232 129.601C112.487 132.284 117.297 130.711 117.297 130.711C117.297 130.711 117.76 139.314 120.257 144.494C121.183 146.344 126.548 149.86 133.393 153.652C141.904 156.335 156.057 161.885 167.805 160.313Z" fill="#BC7F6C"/>
<path d="M127.103 64.2918L127.288 72.2473C127.288 72.2473 134.504 68.6395 138.574 67.5295C142.644 66.4194 150.97 64.3843 150.97 64.3843C150.97 64.3843 152.82 56.4288 149.582 55.3187C147.917 54.5787 132.098 58.8339 127.103 64.2918Z" fill="#680100"/>
<path d="M195.187 60.9614L196.298 68.8245C196.298 68.8245 188.527 66.4193 184.364 65.9568C180.202 65.4942 171.598 64.8467 171.598 64.8467C171.598 64.8467 168.546 57.3537 171.506 55.6886C173.079 54.7635 189.36 56.4287 195.187 60.9614Z" fill="#680100"/>
<path d="M142.459 88.5285C145.473 88.5285 147.917 86.0849 147.917 83.0706C147.917 80.0564 145.473 77.6128 142.459 77.6128C139.445 77.6128 137.001 80.0564 137.001 83.0706C137.001 86.0849 139.445 88.5285 142.459 88.5285Z" fill="black" stroke="#680100" stroke-width="2.515" stroke-miterlimit="10" stroke-linecap="round" stroke-linejoin="round"/>
<path d="M133.671 79.5551C133.671 79.5551 139.406 77.4275 142.089 77.6125Z" fill="black"/>
<path d="M133.671 79.5551C133.671 79.5551 139.406 77.4275 142.089 77.6125" stroke="#680100" stroke-width="2.515" stroke-miterlimit="10" stroke-linecap="round" stroke-linejoin="round"/>
<path d="M179.646 87.881C182.661 87.881 185.104 85.4375 185.104 82.4232C185.104 79.4089 182.661 76.9653 179.646 76.9653C176.632 76.9653 174.188 79.4089 174.188 82.4232C174.188 85.4375 176.632 87.881 179.646 87.881Z" fill="black" stroke="#680100" stroke-width="2.515" stroke-miterlimit="10" stroke-linecap="round" stroke-linejoin="round"/>
<path d="M188.435 78.9076C188.435 78.9076 182.699 76.78 180.017 76.965Z" fill="black"/>
<path d="M188.435 78.9076C188.435 78.9076 182.699 76.78 180.017 76.965" stroke="#680100" stroke-width="2.515" stroke-miterlimit="10" stroke-linecap="round" stroke-linejoin="round"/>
<path d="M159.48 85.1982C159.48 85.1982 158.185 93.0612 156.89 95.5589C155.317 98.4266 150.6 101.294 150.785 104.902C150.97 109.342 156.057 112.857 163.365 113.043C170.673 113.228 175.576 108.787 175.576 108.787" stroke="#680100" stroke-width="2.515" stroke-miterlimit="10" stroke-linecap="round" stroke-linejoin="round"/>
<path d="M152.542 123.866C152.542 123.866 155.132 130.156 162.255 129.971C169.378 129.786 171.228 123.866 171.228 123.866" stroke="#680100" stroke-width="2.515" stroke-miterlimit="10" stroke-linecap="round" stroke-linejoin="round"/>
<path d="M108.972 104.162C108.972 104.162 103.699 102.034 102.682 106.012C101.664 109.897 106.752 117.76 108.417 119.61" stroke="#680100" stroke-width="2.515" stroke-miterlimit="10" stroke-linecap="round" stroke-linejoin="round"/>
<path d="M214.336 95.1887C214.336 95.1887 218.314 91.2109 220.626 92.5985C223.864 94.6336 220.256 104.162 214.983 108.695" stroke="#680100" stroke-width="2.515" stroke-miterlimit="10" stroke-linecap="round" stroke-linejoin="round"/>
<path d="M113.505 93.4311C113.505 93.4311 116.558 62.3492 118.408 59.019C120.258 55.5963 144.864 31.7297 156.705 30.9897C168.546 30.3422 198.055 45.8831 200.09 50.8785C202.125 55.7813 207.583 84.0881 207.583 84.0881C207.583 84.0881 209.803 63.5518 209.618 51.896C209.433 40.1478 207.953 23.5892 207.953 23.5892C207.953 23.5892 207.583 16.8363 204.531 16.2813C201.478 15.7262 198.055 20.1665 198.055 20.1665C198.055 20.1665 197.223 10.1759 193.152 9.15831C189.082 8.14075 186.677 11.841 186.677 11.841C186.677 11.841 186.029 4.62553 181.867 3.70047C177.704 2.77541 173.356 8.32576 173.356 8.32576C173.356 8.32576 170.488 0.185245 166.233 0.000232953C161.978 -0.184779 156.705 4.2555 154.855 6.75316C154.855 6.75316 150.415 1.29531 145.142 1.85035C139.869 2.40539 136.631 12.026 136.631 12.026C136.631 12.026 130.341 6.29063 125.623 8.32576C120.905 10.3609 122.755 17.4838 122.755 17.4838C122.755 17.4838 117.668 12.581 113.227 14.8012C108.787 17.0213 111.192 24.6068 111.192 24.6068C111.192 24.6068 102.682 22.5717 99.814 24.9768C96.9463 27.382 105.919 35.7075 105.919 35.7075C105.919 35.7075 106.752 50.6009 108.325 64.0143C109.99 77.3351 113.505 93.4311 113.505 93.4311Z" fill="#EA4918"/>
<path d="M99.2587 483.436C99.2587 483.436 97.8711 545.415 97.6861 555.128C97.5011 564.841 95.0034 608.041 94.2634 631.168C93.6158 654.202 88.343 673.72 88.158 675.015C87.973 676.403 78.1673 676.126 78.1673 681.768C78.1673 687.411 82.4226 691.482 82.4226 694.904C82.4226 698.327 76.9648 701.195 76.3172 703.97C75.6697 706.652 76.1322 714.33 76.1322 714.33C76.1322 714.33 91.9507 715.256 99.1662 715.441C106.382 715.626 111.192 721.361 115.91 720.436C120.628 719.511 119.055 711.37 118.407 708.225C117.76 705.08 119.055 696.662 121.83 695.829C124.513 694.904 128.398 688.614 128.398 688.614C128.398 688.614 146.992 652.444 151.432 635.053C155.965 617.662 157.722 592.778 148.934 576.959C148.934 576.959 171.783 510.91 171.783 489.171C171.783 489.171 179.091 558.551 179.461 570.391C179.646 578.069 167.065 612.019 169.748 628.948C172.431 645.876 189.637 682.138 190.099 685.284C190.562 688.429 181.959 695.274 182.421 697.957C182.884 700.64 188.989 703.877 189.174 705.45C189.359 707.022 182.144 709.058 182.421 712.203C182.699 715.348 188.989 720.806 191.487 722.193C193.985 723.581 201.015 722.193 202.588 723.304C204.16 724.414 210.913 724.876 214.799 723.766C218.684 722.656 229.044 719.511 229.507 716.273C229.969 713.128 226.084 709.058 224.789 707.023C223.494 704.987 227.934 702.952 228.212 701.38C228.397 699.807 224.789 696.847 223.957 694.164C223.032 691.482 223.309 690.094 224.142 688.059C225.067 686.024 223.494 685.839 223.032 683.064C222.569 680.288 226.639 626.727 227.749 617.014C228.859 607.301 236.352 584.915 237 581.307C237.647 577.699 239.683 542.64 238.388 521.178C237.092 499.717 234.502 478.903 234.502 478.903L203.698 467.155L110.082 474.185L99.2587 483.436Z" fill="#F7931E"/>
<path d="M81.96 491.761C81.96 491.761 82.515 496.479 91.7656 498.052C101.016 499.624 101.294 498.237 101.294 498.237L101.756 480.106L87.5103 483.991L81.96 491.761Z" fill="#CE8936"/>
<path d="M235.242 477.793C235.242 478.903 235.242 493.611 235.242 493.611C235.242 493.611 244.03 493.149 245.603 488.616C247.268 484.083 235.242 477.793 235.242 477.793Z" fill="#CE8936"/>
<path d="M99.2589 188.805C99.2589 188.805 77.335 213.041 72.9872 229.045C68.5469 244.956 70.7671 275.668 81.3128 309.617C91.8584 343.567 81.9603 491.854 81.9603 491.854C81.9603 491.854 88.8982 486.118 106.012 480.661C123.958 474.925 177.889 469.467 213.874 474.925C243.013 479.366 245.788 487.784 245.788 487.784C245.788 487.784 245.418 336.444 247.176 317.758C248.841 299.072 255.316 267.527 252.911 245.141C250.506 222.754 237 201.756 228.49 193.893C228.49 193.893 199.628 222.014 169.471 220.719C139.314 219.332 114.892 205.086 99.2589 188.805Z" fill="#EAD453" stroke="#CE8936" stroke-width="2" stroke-miterlimit="10" stroke-linecap="round" stroke-linejoin="round"/>
<path d="M68.4545 281.125C68.4545 281.125 46.7157 282.791 34.2274 289.636C21.6466 296.389 6.47561 311.282 6.47561 311.282C6.47561 311.282 1.20278 280.108 1.5728 256.704C1.94282 233.3 10.6384 220.442 19.2414 211.931C28.0295 203.143 42.6454 196.298 56.5213 190.192C70.3972 184.087 91.766 179.646 91.766 179.646L99.259 191.487C99.259 191.487 74.7449 216.649 72.7098 233.3C70.6747 249.951 73.3573 277.425 73.3573 277.425L68.4545 281.125Z" fill="#F7931E"/>
<path d="M228.582 193.893L238.388 181.034C238.388 181.034 274.372 186.122 288.618 190.192C302.864 194.263 316.093 205.826 320.163 213.226C324.233 220.719 328.303 233.207 328.951 250.506C329.598 267.805 328.581 295.834 328.581 295.834C328.581 295.834 312.485 277.333 291.949 273.91C271.782 270.58 251.893 280.663 251.893 280.663C251.893 280.663 255.316 247.731 249.488 232.837C243.846 218.037 242.828 211.191 228.582 193.893Z" fill="#F7931E"/>
<path d="M87.2329 179.461L101.664 176.594C101.664 176.594 109.064 192.597 126.64 202.033C143.939 211.376 172.061 221.644 203.698 204.623C220.626 195.465 229.784 180.016 229.784 180.016L243.383 180.572C243.383 180.572 232.375 196.39 220.164 205.826C207.953 215.354 196.112 224.142 170.303 224.789C144.494 225.437 123.958 215.631 109.712 205.456C95.4659 195.28 90.2856 184.919 87.2329 179.461Z" fill="#F15A24"/>
<path d="M113.967 276.777C122.293 271.875 127.936 266.787 131.543 261.236C127.936 266.787 122.293 271.875 113.967 276.777Z" fill="white"/>
<path d="M131.266 232.005C131.728 232.282 132.191 232.652 132.653 233.022C132.098 232.652 131.728 232.282 131.266 232.005Z" fill="white"/>
<path d="M110.544 278.72C111.747 278.072 112.857 277.425 113.967 276.777C112.857 277.425 111.747 278.072 110.544 278.72Z" fill="white"/>
<path d="M133.208 233.67C133.579 234.132 134.041 234.595 134.411 235.058C134.041 234.595 133.579 234.132 133.208 233.67Z" fill="white"/>
<path d="M112.394 249.303C112.209 248.748 111.932 248.193 111.839 247.638C112.024 248.286 112.209 248.841 112.394 249.303Z" fill="white"/>
<path d="M111.469 246.528C111.377 246.158 111.284 245.696 111.192 245.326C111.192 245.696 111.377 246.158 111.469 246.528Z" fill="white"/>
<path d="M112.949 250.691C112.764 250.321 112.672 250.043 112.487 249.673C112.672 250.043 112.857 250.321 112.949 250.691Z" fill="white"/>
<path d="M143.106 272.43C143.939 272.152 144.772 271.875 145.604 271.782C144.772 271.967 143.939 272.152 143.106 272.43Z" fill="white"/>
<path d="M115.54 266.51C117.667 268.822 120.257 270.95 123.31 273.17C120.257 270.95 117.667 268.73 115.54 266.51Z" fill="white"/>
<path d="M132.376 278.72C128.953 276.87 125.993 275.02 123.31 273.078C125.993 275.02 128.953 276.87 132.376 278.72Z" fill="white"/>
<path d="M142.829 272.615C142.921 272.615 143.014 272.522 143.106 272.522C143.014 272.522 142.921 272.522 142.829 272.615Z" fill="white"/>
<path d="M127.843 265.955C127.38 265.77 127.01 265.492 126.548 265.307C125.993 265.03 125.345 264.66 124.79 264.29C123.587 263.549 122.385 262.809 121.367 262.069C119.425 263.457 117.297 264.752 114.984 265.862C115.169 266.047 115.354 266.232 115.447 266.417C117.112 268.175 119.147 269.932 121.367 271.69C123.957 269.84 126.085 267.897 127.843 265.955Z" fill="white"/>
<path d="M141.996 271.227C141.811 271.135 141.534 271.135 141.349 271.042C140.146 270.765 138.944 270.395 137.649 270.025C137.279 269.932 136.908 269.747 136.538 269.655C134.781 269.1 133.023 268.36 131.266 267.62C129.323 269.84 127.103 271.967 124.513 274.003C126.918 275.668 129.878 277.425 132.746 278.998C132.561 279.183 132.468 279.275 132.283 279.368C136.538 275.853 140.979 273.448 145.604 271.782C144.494 271.782 143.291 271.505 141.996 271.227Z" fill="white"/>
<path d="M129.878 281.495C126.825 279.83 124.05 278.073 121.552 276.223C118.962 278.073 116.187 279.83 113.042 281.495L112.857 281.31C115.725 284.178 118.407 287.508 121.46 291.671C124.328 287.231 127.38 283.716 130.526 280.848C130.341 281.125 130.063 281.31 129.878 281.495Z" fill="white"/>
<path d="M113.967 276.778C115.54 275.853 117.02 274.928 118.407 273.91C115.817 271.875 113.597 269.747 111.654 267.527C106.381 269.84 101.016 271.505 97.3159 271.69C102.681 273.633 106.752 275.945 110.267 278.998L110.174 278.906C111.377 278.351 112.857 277.425 113.967 276.778Z" fill="white"/>
<path d="M117.02 253.651L109.99 228.859C107.677 229.229 105.642 229.692 103.607 230.247L117.02 253.651Z" fill="white"/>
<path d="M110.73 242.643L117.02 253.651L111.932 235.89C110.822 237.74 110.452 240.145 110.73 242.643Z" fill="white"/>
<path d="M117.02 257.444C116.927 257.351 114.892 254.391 114.892 254.298L114.43 253.466C115.725 255.686 117.112 257.721 118.592 259.386L117.02 257.444Z" fill="white"/>
<path d="M88.3433 236.167C94.4486 248.286 98.5189 258.739 97.7789 268.082C100.832 267.712 104.994 266.417 109.25 264.659C104.717 258.369 102.497 251.431 102.497 243.383C102.497 240.515 103.052 237.925 104.069 235.612L101.387 230.895C97.0388 232.282 92.691 234.04 88.3433 236.167Z" fill="white"/>
<path d="M114.43 253.466L106.567 239.775C106.382 240.515 106.289 241.255 106.197 242.088C106.197 242.55 106.197 242.92 106.197 243.383C106.197 244.863 106.289 246.25 106.474 247.638C106.937 251.801 108.139 255.686 110.267 259.386C110.545 259.756 110.73 260.219 111.007 260.589C111.562 261.421 112.117 262.254 112.672 262.994C114.892 261.884 116.927 260.681 118.778 259.479L118.593 259.294C117.112 257.814 115.725 255.778 114.43 253.466Z" fill="white"/>
<path d="M120.258 227.842C117.39 227.934 114.615 228.119 112.117 228.489L120.258 256.796" fill="white"/>
<path d="M120.35 256.796V255.871C120.165 255.686 120.073 255.501 119.888 255.316L120.35 256.796Z" fill="white"/>
<path d="M130.618 228.489C127.843 228.119 125.068 227.842 122.57 227.842V256.796L130.618 228.489Z" fill="white"/>
<path d="M129.416 230.987C129.601 231.08 129.693 231.172 129.878 231.265L130.063 230.617H128.491C128.861 230.617 129.138 230.802 129.416 230.987Z" fill="white"/>
<path d="M139.128 230.247C137.001 229.692 134.873 229.229 132.838 228.859L125.808 253.466L139.128 230.247Z" fill="white"/>
<path d="M127.288 255.501C126.27 256.981 125.253 258.461 124.235 259.571C126.085 260.774 128.121 261.976 130.341 263.086C130.803 262.439 131.266 261.884 131.636 261.236C135.244 255.778 136.816 249.858 136.816 243.383C136.816 242.92 136.816 242.458 136.816 242.088C136.724 241.255 136.631 240.515 136.446 239.775L127.936 254.576C127.843 254.668 127.566 255.038 127.288 255.501Z" fill="white"/>
<path d="M154.855 236.167C150.414 233.947 145.974 232.19 141.441 230.895L138.759 235.52C139.776 237.832 140.331 240.423 140.331 243.383C140.331 251.431 138.204 258.369 133.671 264.659C137.926 266.509 142.181 267.804 145.234 268.082C144.679 257.814 148.009 247.268 154.855 236.167Z" fill="white"/>
<path d="M130.988 235.797L125.993 253.466L132.283 242.458C132.376 239.96 132.098 237.647 130.988 235.797Z" fill="white"/>
<path d="M127.38 255.316C125.438 258.276 123.31 260.774 121.46 262.162C114.43 267.157 103.514 271.412 97.3159 271.875C101.664 272.707 106.104 275.39 110.544 278.813C111.747 278.165 112.857 277.518 113.967 276.87C122.293 271.967 127.935 266.879 131.543 261.329C135.151 255.871 136.723 249.951 136.723 243.475C136.723 243.013 136.723 242.55 136.723 242.18C136.631 241.348 136.538 240.608 136.353 239.868L127.843 254.669C127.843 254.669 127.658 254.946 127.38 255.316Z" fill="white"/>
<path d="M328.673 307.86C328.673 307.86 331.634 335.426 320.348 351.245C309.062 367.063 290.746 376.591 252.264 369.098C213.781 361.605 168.823 328.858 168.823 328.858L228.12 289.266L250.968 290.653C250.968 290.653 272.245 278.443 289.636 280.94C306.935 283.438 325.066 300.459 328.673 307.86Z" fill="#A0695F"/>
<path d="M328.673 307.86C325.065 300.367 306.934 283.438 289.543 280.94C272.152 278.443 250.876 290.653 250.876 290.653C250.876 290.653 242.088 291.764 228.952 299.442C219.886 304.714 198.147 327.933 190.007 341.994C206.103 352.262 226.362 364.103 252.171 369.098C290.653 376.591 308.969 367.063 320.255 351.245C331.633 335.519 328.673 307.86 328.673 307.86Z" fill="#B2776B"/>
<path d="M75.5774 290.284C75.5774 290.284 100.646 291.394 106.382 290.746C112.025 290.099 190.747 277.888 203.883 277.425C217.019 276.963 230.617 276.315 237.093 279.46C243.66 282.606 247.083 290.561 247.083 290.561L227.842 291.209C215.169 296.851 170.581 329.876 143.939 345.047C117.205 360.218 62.2565 385.75 39.4076 374.001C16.5586 362.253 9.99072 319.978 9.99072 319.978L29.2319 296.667L55.9661 288.063L75.5774 290.284Z" fill="#B2776B"/>
<path d="M8.23296 321.273L5.55029 310.635C5.55029 310.635 20.9063 294.724 33.9496 288.156C47.0854 281.588 73.0796 278.628 73.0796 278.628L75.2997 289.451C75.2997 289.451 51.9882 288.804 38.8524 296.204C25.7166 303.605 8.23296 321.273 8.23296 321.273Z" fill="#F15A24"/>
<path d="M251.709 279.368C251.709 279.368 273.91 271.043 289.728 272.615C305.547 274.188 329.506 295.279 329.506 295.279L328.581 307.952C328.581 307.952 311.19 286.954 290.376 285.566C269.562 284.178 249.858 291.209 249.858 291.209L251.709 279.368Z" fill="#F15A24"/>
<path d="M53.2832 286.398C52.7282 287.046 52.4507 288.711 54.4858 291.208C56.5209 293.706 64.4764 293.429 67.3441 293.429C70.2118 293.429 77.9823 295.464 84.0877 295.464C90.1931 295.464 97.4085 294.354 107.399 290.746C107.399 290.746 95.0034 274.002 86.5853 271.32C78.2598 268.637 49.028 266.324 47.6404 268.36C46.2528 270.395 45.6977 272.892 46.8078 274.002C47.9179 275.112 59.7586 274.002 59.7586 274.002L71.5069 277.24L50.6006 276.963C50.6006 276.963 48.9354 278.998 49.213 281.033C50.4155 283.253 52.6357 283.715 53.0057 284.548C53.3757 285.381 53.2832 286.398 53.2832 286.398Z" fill="#C18372"/>
<path d="M172.338 488.154L186.677 480.291" stroke="#D67822" stroke-width="2.9342" stroke-miterlimit="10" stroke-linecap="round" stroke-linejoin="round"/>
<path d="M133.948 477.793C133.948 477.793 133.486 508.135 129.878 513.963C126.27 519.791 99.0737 531.169 99.0737 531.169" stroke="#D67822" stroke-width="2.9342" stroke-miterlimit="10" stroke-linecap="round" stroke-linejoin="round"/>
<path d="M208.971 476.405C208.971 476.405 206.751 504.897 209.433 512.575C212.116 520.253 238.85 532.926 238.85 532.926" stroke="#D67822" stroke-width="2.9342" stroke-miterlimit="10" stroke-linecap="round" stroke-linejoin="round"/>
<path d="M187.324 746.615C187.324 746.615 184.179 750.778 183.069 753.923C181.866 757.346 182.236 763.544 182.236 763.544C182.236 763.544 184.826 768.169 188.897 767.984C192.967 767.799 200.46 770.666 202.68 772.517C204.9 774.367 216.463 773.904 220.996 774.367C225.529 774.829 246.62 786.022 253.558 788.613C263.271 792.22 279.737 788.058 283.438 787.04C290.931 785.005 295.186 777.327 295.186 777.327L294.723 770.574C294.723 770.574 294.076 776.217 288.803 778.529C283.53 780.842 276.13 782.877 269.839 783.247C258.554 783.895 229.784 771.222 227.102 770.852C224.419 770.389 212.671 759.288 204.715 755.218C196.76 750.963 187.324 746.615 187.324 746.615Z" fill="#EFD2AF"/>
<path d="M114.892 718.678L113.32 727.281L85.2906 729.039L74.8374 717.938L77.6126 709.798L114.892 718.678Z" fill="#BC7F6C"/>
<path d="M189.359 718.401L190.469 728.206L211.468 740.417L235.242 734.682L227.102 717.106L189.359 718.401Z" fill="#BC7F6C"/>
<path d="M189.082 722.101C186.862 725.801 185.012 731.814 185.197 736.994C185.382 742.175 187.417 746.985 187.417 746.985C187.417 746.985 205.548 755.218 210.451 759.103C215.446 762.989 219.517 767.336 223.772 769.371C228.027 771.407 251.801 781.397 262.254 783.432C267.157 784.357 279.738 782.97 287.601 779.547C291.116 778.067 294.631 774.829 294.631 772.794C294.631 770.759 295.279 765.579 291.486 762.619C287.601 759.658 275.39 758.086 272.245 756.513C269.1 754.941 244.216 732.092 243.476 727.374C242.828 722.656 229.045 725.339 222.662 726.726C216.556 728.021 201.663 731.722 196.668 729.224C193.707 727.559 190.47 719.788 189.082 722.101Z" fill="#FF931E"/>
<path d="M229.599 739.677C229.599 739.677 225.529 728.576 225.992 722.008C226.454 715.44 227.842 710.445 231.172 706.652C234.595 702.767 236.352 697.587 244.308 702.12C252.263 706.652 255.594 708.225 256.704 711.648C257.814 715.07 246.713 721.638 245.88 726.541C244.955 731.537 244.77 736.069 244.77 736.069L229.599 739.677Z" fill="#F15A24"/>
<path d="M186.954 727.004C186.954 727.004 200.645 731.999 204.068 736.717C207.491 741.435 215.169 762.526 215.169 762.526C215.169 762.526 199.073 751.425 195.002 750.315C192.412 749.575 190.007 748.373 188.712 747.633C187.972 747.17 187.509 746.893 187.509 746.893C187.509 746.893 182.514 734.682 186.954 727.004Z" fill="#F15A24"/>
<path d="M114.245 721.638C114.245 721.638 117.668 723.674 118.315 726.819C118.963 729.964 120.813 739.677 119.888 743.285C118.963 746.893 117.205 747.818 117.205 747.818C117.205 747.818 86.2156 749.853 79.9252 752.073C73.6348 754.293 61.5165 761.878 43.2004 763.266C24.8842 764.654 11.0083 761.138 6.01301 755.218C1.0177 749.298 3.05282 746.152 3.05282 746.152C3.05282 746.152 5.27297 741.62 16.3737 742.082C27.4744 742.545 31.2671 741.435 35.6149 740.232C39.8702 739.122 58.9264 726.634 61.1465 723.026C63.3666 719.418 74.0048 715.996 76.965 717.846C79.9252 719.696 90.2859 725.339 94.6336 725.524C98.8889 725.709 111.562 724.414 112.487 723.489C113.32 722.749 114.245 721.638 114.245 721.638Z" fill="#FF931E"/>
<path d="M2.68267 747.355C2.68267 747.355 0.0925059 749.853 0 754.015C0 755.588 3.1452 763.543 11.1007 767.244C18.5937 770.759 30.8045 772.424 43.4778 770.666C56.1511 768.909 71.322 764.746 75.3923 765.949C79.4625 767.059 84.6429 769.371 90.1007 769.834C95.5586 770.296 104.347 764.654 109.064 764.654C113.782 764.654 122.663 766.689 126.456 766.874C130.341 767.059 123.773 746.985 118.963 746.985C114.152 746.985 82.7927 749.668 78.7225 751.703C74.6522 753.738 54.7635 764.561 35.0597 762.803C15.356 760.953 10.2682 758.641 6.2904 754.848C3.51522 752.258 2.68267 747.355 2.68267 747.355Z" fill="#EFD2AF"/>
<path d="M76.2248 714.331L75.1147 702.582C75.1147 702.582 85.7529 698.975 91.2108 702.12C96.6686 705.265 110.637 706.005 113.875 706.005C117.02 706.005 120.165 707.393 120.165 707.393C120.165 707.393 121.553 712.388 120.165 716.181C118.777 720.066 121.275 721.361 116.742 721.639C112.21 721.916 105.179 716.181 99.9988 715.718C94.8185 715.256 76.2248 714.331 76.2248 714.331Z" fill="#F4C484"/>
<path d="M180.756 711C180.756 711 182.977 719.788 183.254 720.713C183.439 721.638 185.474 721.638 192.782 722.564C200.09 723.489 201.385 723.951 207.676 724.414C213.966 724.876 214.243 724.414 219.886 723.026C225.529 721.638 228.489 718.956 229.137 718.308C229.784 717.661 228.212 709.058 228.027 707.948C227.842 706.838 221.921 710.908 216.926 711.37C211.931 711.833 197.962 715.903 194.077 713.22C190.192 710.538 180.756 711 180.756 711Z" fill="#F4C484"/>
<path d="M118.315 731.351C118.315 731.351 108.787 727.929 101.109 731.814C93.4308 735.699 89.8231 738.844 86.6779 742.175C83.7177 745.32 79.0924 751.518 79.0924 751.518C78.9074 750.315 118.87 745.69 119.055 746.892C118.962 746.892 122.848 735.144 118.315 731.351Z" fill="#F15A24"/>
<path d="M45.0502 703.692C42.4601 700.085 55.4109 693.517 61.1463 693.332C66.7891 693.147 72.8945 698.789 74.4671 705.542C76.0397 712.295 81.6826 723.674 81.6826 723.674C81.6826 723.674 68.0842 721.176 66.9741 718.678C65.8641 716.181 61.7938 712.758 56.3359 710.075C50.8781 707.392 46.6228 706.005 45.0502 703.692Z" fill="#F15A24"/>
<path d="M228.675 754.385L225.067 750.963C225.067 750.963 232.097 742.36 243.198 738.752C254.021 735.237 255.871 738.752 255.871 738.752L258.832 742.36C258.832 742.36 249.581 742.36 244.123 745.042C238.665 747.818 231.635 751.888 228.675 754.385Z" fill="#F4C484"/>
<path d="M239.498 763.266L235.89 759.843C235.89 759.843 242.921 751.24 254.021 747.633C264.844 744.117 266.695 747.633 266.695 747.633L269.655 751.24C269.655 751.24 260.404 751.24 254.946 753.923C249.489 756.698 242.458 760.768 239.498 763.266Z" fill="#F4C484"/>
<path d="M56.0585 724.136C56.0585 724.136 64.014 723.026 71.4145 728.669C78.9075 734.312 76.8723 733.849 76.8723 733.849L71.2295 739.03C71.2295 739.03 69.3794 733.387 62.1639 731.074C54.9484 728.761 49.9531 728.854 49.9531 728.854L56.0585 724.136Z" fill="#F4C484"/>
<path d="M41.6278 733.387C41.6278 733.387 49.5833 732.277 56.9838 737.919C64.4768 743.562 62.4417 743.1 62.4417 743.1L56.7988 748.28C56.7988 748.28 54.9487 742.637 47.7332 740.325C40.5178 738.104 35.5225 738.104 35.5225 738.104L41.6278 733.387Z" fill="#F4C484"/>
<path d="M140.054 83.2553C141.178 83.2553 142.089 82.3442 142.089 81.2202C142.089 80.0962 141.178 79.1851 140.054 79.1851C138.93 79.1851 138.019 80.0962 138.019 81.2202C138.019 82.3442 138.93 83.2553 140.054 83.2553Z" fill="white"/>
<path d="M177.519 82.4228C178.642 82.4228 179.554 81.5116 179.554 80.3877C179.554 79.2637 178.642 78.3525 177.519 78.3525C176.395 78.3525 175.483 79.2637 175.483 80.3877C175.483 81.5116 176.395 82.4228 177.519 82.4228Z" fill="white"/>
</g>
<defs>
<clipPath id="clip0">
<rect width="329.598" height="790" fill="white"/>
</clipPath>
</defs>
</svg>
