<?xml version="1.0" encoding="utf-8"?>
<!-- Generator: Adobe Illustrator 22.0.1, SVG Export Plug-In . SVG Version: 6.00 Build 0)  -->
<svg version="1.1" id="Layer_1" xmlns="http://www.w3.org/2000/svg" xmlns:xlink="http://www.w3.org/1999/xlink" x="0px" y="0px"
	 viewBox="0 0 356.3 854" style="enable-background:new 0 0 356.3 854;" xml:space="preserve">
<style type="text/css">
	.st0{fill:#A0695F;}
	.st1{fill:#B2776B;}
	.st2{fill:#BC7F6C;}
	.st3{fill:#680100;}
	.st4{stroke:#680100;stroke-width:2.515;stroke-linecap:round;stroke-linejoin:round;stroke-miterlimit:10;}
	.st5{fill:none;stroke:#680100;stroke-width:2.515;stroke-linecap:round;stroke-linejoin:round;stroke-miterlimit:10;}
	.st6{fill:#EA4918;}
	.st7{fill:#F7931E;}
	.st8{fill:#CE8936;}
	.st9{fill:#EAD453;stroke:#CE8936;stroke-width:2;stroke-linecap:round;stroke-linejoin:round;stroke-miterlimit:10;}
	.st10{fill:#F15A24;}
	.st11{fill:#FFFFFF;}
	.st12{fill:#C18372;}
	.st13{fill:none;stroke:#D67822;stroke-width:2.9342;stroke-linecap:round;stroke-linejoin:round;stroke-miterlimit:10;}
	.st14{fill:#EFD2AF;}
	.st15{fill:#FF931E;}
	.st16{fill:#F4C484;}
</style>
<g>
	<g>
		<path class="st0" d="M136.7,161.4c0,0-1.1,19.4-2.8,22.6c-4.2,8.1-30.3,9.2-30.3,9.2s17.1,32.1,41.4,40
			c24.4,7.9,58.9,5.5,75.9-6.6c17.1-12.1,31.4-30.6,31.4-30.6s-17.2-0.9-24-6.6c-6.8-5.7-12.3-33.9-12.3-33.9L136.7,161.4z"/>
		<path class="st1" d="M228.4,189.3c-1.7-1.4-4.8-7.8-6.2-11.2c-4.9,6.5-21.2,30.5-35.6,34.5c-20.1,5.5-58.7-4.4-78.1-12.5
			c7.1,10.1,21.4,28.1,36.7,33c24.4,7.9,58.9,5.5,75.9-6.6c17.1-12.1,31.4-30.6,31.4-30.6S235.2,194.9,228.4,189.3z"/>
		<path class="st1" d="M122.7,104.2c0,0-3.4-38.1-1.2-43.5c2.2-5.4,35.7-34,41.1-35.7s17.6-3.4,33.3,6.8s24.5,21.5,24.7,22.7
			c0.2,1.2,2.9,12,3.9,19.1c1,7.1,0.5,24.7,0.5,24.7s14.7-10,17.4-9.3c4.9,1.2,3.7,12.2,3.4,15.2c-0.3,3.4-2.4,15.9-6.8,19.8
			c-4.4,3.9-13.4,5.9-13.4,5.9s1,14.7-2.2,20.5S189,181.7,180.9,182s-48.9-19.8-51.6-25.4s-3.2-14.9-3.2-14.9s-5.1,1.7-9.8-1.2
			c-4.6-2.9-10.3-14.9-11.5-20.8c-1.2-5.9-3.9-14.4-0.5-17.1C107.8,99.8,122.7,104.2,122.7,104.2z"/>
		<path class="st2" d="M181.4,173.3c14.6-2,29-20.9,35.6-31.5c6.7-10.8,5.9-22.4,6.1-30.3c0.2-8.4-3.7-35.7-5.1-40.5
			c-1.5-4.8-11.7-23.4-27.9-27c-16.1-3.7-37.2,3.4-50.4,13s-16.4,46.9-16.4,46.9s-14.9-4.4-18.3-1.7c-3.4,2.7-0.7,11.2,0.5,17.1
			c1.2,5.9,6.8,17.8,11.5,20.8c4.6,2.9,9.8,1.2,9.8,1.2s0.5,9.3,3.2,14.9c1,2,6.8,5.8,14.2,9.9C153.4,169,168.7,175,181.4,173.3z"/>
		<path class="st3" d="M137.4,69.5l0.2,8.6c0,0,7.8-3.9,12.2-5.1c4.4-1.2,13.4-3.4,13.4-3.4s2-8.6-1.5-9.8
			C159.9,59,142.8,63.6,137.4,69.5z"/>
		<path class="st3" d="M211,65.9l1.2,8.5c0,0-8.4-2.6-12.9-3.1c-4.5-0.5-13.8-1.2-13.8-1.2s-3.3-8.1-0.1-9.9
			C187.1,59.2,204.7,61,211,65.9z"/>
		<circle class="st4" cx="154" cy="89.8" r="5.9"/>
		<path class="st4" d="M144.5,86c0,0,6.2-2.3,9.1-2.1"/>
		<circle class="st4" cx="194.2" cy="89.1" r="5.9"/>
		<path class="st4" d="M203.7,85.3c0,0-6.2-2.3-9.1-2.1"/>
		<path class="st5" d="M172.4,92.1c0,0-1.4,8.5-2.8,11.2c-1.7,3.1-6.8,6.2-6.6,10.1c0.2,4.8,5.7,8.6,13.6,8.8
			c7.9,0.2,13.2-4.6,13.2-4.6"/>
		<path class="st5" d="M164.9,133.9c0,0,2.8,6.8,10.5,6.6c7.7-0.2,9.7-6.6,9.7-6.6"/>
		<path class="st5" d="M117.8,112.6c0,0-5.7-2.3-6.8,2c-1.1,4.2,4.4,12.7,6.2,14.7"/>
		<path class="st5" d="M231.7,102.9c0,0,4.3-4.3,6.8-2.8c3.5,2.2-0.4,12.5-6.1,17.4"/>
		<path class="st6" d="M122.7,101c0,0,3.3-33.6,5.3-37.2c2-3.7,28.6-29.5,41.4-30.3c12.8-0.7,44.7,16.1,46.9,21.5
			c2.2,5.3,8.1,35.9,8.1,35.9s2.4-22.2,2.2-34.8c-0.2-12.7-1.8-30.6-1.8-30.6s-0.4-7.3-3.7-7.9c-3.3-0.6-7,4.2-7,4.2
			s-0.9-10.8-5.3-11.9s-7,2.9-7,2.9S201.1,5,196.6,4s-9.2,5-9.2,5s-3.1-8.8-7.7-9c-4.6-0.2-10.3,4.6-12.3,7.3c0,0-4.8-5.9-10.5-5.3
			c-5.7,0.6-9.2,11-9.2,11s-6.8-6.2-11.9-4s-3.1,9.9-3.1,9.9s-5.5-5.3-10.3-2.9s-2.2,10.6-2.2,10.6s-9.2-2.2-12.3,0.4
			c-3.1,2.6,6.6,11.6,6.6,11.6s0.9,16.1,2.6,30.6C118.9,83.6,122.7,101,122.7,101z"/>
		<path class="st7" d="M107.3,522.6c0,0-1.5,67-1.7,77.5s-2.9,57.2-3.7,82.2c-0.7,24.9-6.4,46-6.6,47.4c-0.2,1.5-10.8,1.2-10.8,7.3
			c0,6.1,4.6,10.5,4.6,14.2c0,3.7-5.9,6.8-6.6,9.8c-0.7,2.9-0.2,11.2-0.2,11.2s17.1,1,24.9,1.2s13,6.4,18.1,5.4
			c5.1-1,3.4-9.8,2.7-13.2c-0.7-3.4,0.7-12.5,3.7-13.4c2.9-1,7.1-7.8,7.1-7.8s20.1-39.1,24.9-57.9c4.9-18.8,6.8-45.7-2.7-62.8
			c0,0,24.7-71.4,24.7-94.9c0,0,7.9,75,8.3,87.8c0.2,8.3-13.4,45-10.5,63.3c2.9,18.3,21.5,57.5,22,60.9c0.5,3.4-8.8,10.8-8.3,13.7
			s7.1,6.4,7.3,8.1c0.2,1.7-7.6,3.9-7.3,7.3s7.1,9.3,9.8,10.8c2.7,1.5,10.3,0,12,1.2c1.7,1.2,9,1.7,13.2,0.5
			c4.2-1.2,15.4-4.6,15.9-8.1c0.5-3.4-3.7-7.8-5.1-10s3.4-4.4,3.7-6.1c0.2-1.7-3.7-4.9-4.6-7.8c-1-2.9-0.7-4.4,0.2-6.6
			c1-2.2-0.7-2.4-1.2-5.4s3.9-60.9,5.1-71.4c1.2-10.5,9.3-34.7,10-38.6c0.7-3.9,2.9-41.8,1.5-65s-4.2-45.7-4.2-45.7l-33.3-12.7
			l-101.2,7.6L107.3,522.6z"/>
		<path class="st8" d="M88.6,531.6c0,0,0.6,5.1,10.6,6.8c10,1.7,10.3,0.2,10.3,0.2l0.5-19.6l-15.4,4.2L88.6,531.6z"/>
		<path class="st8" d="M254.3,516.5c0,1.2,0,17.1,0,17.1s9.5-0.5,11.2-5.4C267.3,523.3,254.3,516.5,254.3,516.5z"/>
		<path class="st9" d="M107.3,204.1c0,0-23.7,26.2-28.4,43.5c-4.8,17.2-2.4,50.4,9,87.1s0.7,197,0.7,197s7.5-6.2,26-12.1
			c19.4-6.2,77.7-12.1,116.6-6.2c31.5,4.8,34.5,13.9,34.5,13.9s-0.4-163.6,1.5-183.8c1.8-20.2,8.8-54.3,6.2-78.5
			s-17.2-46.9-26.4-55.4c0,0-31.2,30.4-63.8,29C150.6,237.1,124.2,221.7,107.3,204.1z"/>
		<path class="st7" d="M74,303.9c0,0-23.5,1.8-37,9.2C23.4,320.4,7,336.5,7,336.5s-5.7-33.7-5.3-59c0.4-25.3,9.8-39.2,19.1-48.4
			c9.5-9.5,25.3-16.9,40.3-23.5s38.1-11.4,38.1-11.4l8.1,12.8c0,0-26.5,27.2-28.7,45.2c-2.2,18,0.7,47.7,0.7,47.7L74,303.9z"/>
		<path class="st7" d="M247.1,209.6l10.6-13.9c0,0,38.9,5.5,54.3,9.9c15.4,4.4,29.7,16.9,34.1,24.9c4.4,8.1,8.8,21.6,9.5,40.3
			c0.7,18.7-0.4,49-0.4,49s-17.4-20-39.6-23.7c-21.8-3.6-43.3,7.3-43.3,7.3s3.7-35.6-2.6-51.7C263.6,235.7,262.5,228.3,247.1,209.6z
			"/>
		<path class="st10" d="M94.3,194l15.6-3.1c0,0,8,17.3,27,27.5c18.7,10.1,49.1,21.2,83.3,2.8c18.3-9.9,28.2-26.6,28.2-26.6l14.7,0.6
			c0,0-11.9,17.1-25.1,27.3c-13.2,10.3-26,19.8-53.9,20.5s-50.1-9.9-65.5-20.9S97.6,199.9,94.3,194z"/>
		<g>
			<g>
				<path class="st11" d="M123.2,299.2c9-5.3,15.1-10.8,19-16.8C138.3,288.4,132.2,293.9,123.2,299.2z"/>
				<path class="st11" d="M141.9,250.8c0.5,0.3,1,0.7,1.5,1.1C142.8,251.5,142.4,251.1,141.9,250.8z"/>
				<polygon class="st11" points="105.2,293.8 105.2,293.8 105.2,293.8 				"/>
				<path class="st11" d="M119.5,301.3C119.5,301.3,119.5,301.3,119.5,301.3c1.3-0.7,2.5-1.4,3.7-2.1
					C122,299.9,120.8,300.6,119.5,301.3C119.5,301.3,119.5,301.3,119.5,301.3z"/>
				<path class="st11" d="M144,252.6c0.4,0.5,0.9,1,1.3,1.5C144.9,253.6,144.4,253.1,144,252.6z"/>
			</g>
			<g>
				<path class="st11" d="M121.5,269.5c-0.2-0.6-0.5-1.2-0.6-1.8C121.1,268.4,121.3,269,121.5,269.5z"/>
				<path class="st11" d="M120.5,266.5c-0.1-0.4-0.2-0.9-0.3-1.3C120.2,265.6,120.4,266.1,120.5,266.5z"/>
				<path class="st11" d="M122.1,271c-0.2-0.4-0.3-0.7-0.5-1.1C121.8,270.3,122,270.6,122.1,271z"/>
				<path class="st11" d="M154.7,294.5c0.9-0.3,1.8-0.6,2.7-0.7c0,0,0,0,0,0C156.5,294,155.6,294.2,154.7,294.5z"/>
				<path class="st11" d="M124.9,288.1c2.3,2.5,5.1,4.8,8.4,7.2C130,292.9,127.2,290.5,124.9,288.1z"/>
				<path class="st11" d="M143.1,301.3C143.1,301.3,143.1,301.3,143.1,301.3c-3.7-2-6.9-4-9.8-6.1
					C136.2,297.3,139.4,299.3,143.1,301.3z"/>
				<path class="st11" d="M154.4,294.7c0.1,0,0.2-0.1,0.3-0.1C154.6,294.6,154.5,294.6,154.4,294.7z"/>
				<g>
					<path class="st11" d="M138.2,287.5c-0.5-0.2-0.9-0.5-1.4-0.7c-0.6-0.3-1.3-0.7-1.9-1.1c-1.3-0.8-2.6-1.6-3.7-2.4
						c-2.1,1.5-4.4,2.9-6.9,4.1c0.2,0.2,0.4,0.4,0.5,0.6c1.8,1.9,4,3.8,6.4,5.7C134,291.7,136.3,289.6,138.2,287.5z"/>
					<path class="st11" d="M153.5,293.2c-0.2-0.1-0.5-0.1-0.7-0.2c-1.3-0.3-2.6-0.7-4-1.1c-0.4-0.1-0.8-0.3-1.2-0.4
						c-1.9-0.6-3.8-1.4-5.7-2.2c-2.1,2.4-4.5,4.7-7.3,6.9c2.6,1.8,5.8,3.7,8.9,5.4c-0.2,0.2-0.3,0.3-0.5,0.4
						c4.6-3.8,9.4-6.4,14.4-8.2h0C156.2,293.8,154.9,293.5,153.5,293.2z"/>
					<path class="st11" d="M140.4,304.3c-3.3-1.8-6.3-3.7-9-5.7c-2.8,2-5.8,3.9-9.2,5.7l-0.2-0.2c3.1,3.1,6,6.7,9.3,11.2
						c3.1-4.8,6.4-8.6,9.8-11.7C140.9,303.9,140.6,304.1,140.4,304.3z"/>
					<path class="st11" d="M123.2,299.2c1.7-1,3.3-2,4.8-3.1c-2.8-2.2-5.2-4.5-7.3-6.9c-5.7,2.5-11.5,4.3-15.5,4.5h0
						c5.8,2.1,10.2,4.6,14,7.9l-0.1-0.1C120.4,300.9,122,299.9,123.2,299.2z"/>
				</g>
				<path class="st11" d="M154.4,294.7"/>
			</g>
			<g>
				<path class="st11" d="M126.5,274.2l-7.6-26.8c-2.5,0.4-4.7,0.9-6.9,1.5L126.5,274.2z"/>
				<g>
					<path class="st11" d="M119.7,262.3l6.8,11.9L121,255C119.8,257,119.4,259.6,119.7,262.3z"/>
					<path class="st11" d="M126.5,278.3c-0.1-0.1-2.3-3.3-2.3-3.4l-0.5-0.9c1.4,2.4,2.9,4.6,4.5,6.4L126.5,278.3z"/>
					<path class="st11" d="M95.5,255.3c6.6,13.1,11,24.4,10.2,34.5c3.3-0.4,7.8-1.8,12.4-3.7c-4.9-6.8-7.3-14.3-7.3-23
						c0-3.1,0.6-5.9,1.7-8.4l-2.9-5.1C104.9,251.1,100.2,253,95.5,255.3z"/>
					<path class="st11" d="M123.7,274l-8.5-14.8c-0.2,0.8-0.3,1.6-0.4,2.5c0,0.5,0,0.9,0,1.4c0,1.6,0.1,3.1,0.3,4.6
						c0.5,4.5,1.8,8.7,4.1,12.7c0.3,0.4,0.5,0.9,0.8,1.3c0.6,0.9,1.2,1.8,1.8,2.6c2.4-1.2,4.6-2.5,6.6-3.8l-0.2-0.2
						C126.6,278.7,125.1,276.5,123.7,274z"/>
				</g>
			</g>
			<g>
				<path class="st11" d="M130,246.3c-3.1,0.1-6.1,0.3-8.8,0.7l8.8,30.6"/>
				<g>
					<path class="st11" d="M130.1,277.6l0-1c-0.2-0.2-0.3-0.4-0.5-0.6L130.1,277.6z"/>
					<path class="st11" d="M130,253.9"/>
				</g>
			</g>
			<g>
				<path class="st11" d="M141.2,247c-3-0.4-6-0.7-8.7-0.7l0,31.3L141.2,247z"/>
				<path class="st11" d="M139.9,249.7c0.2,0.1,0.3,0.2,0.5,0.3l0.2-0.7h-1.7C139.3,249.3,139.6,249.5,139.9,249.7z"/>
			</g>
			<g>
				<path class="st11" d="M150.4,248.9c-2.3-0.6-4.6-1.1-6.8-1.5l-7.6,26.6L150.4,248.9z"/>
				<g>
					<path class="st11" d="M137.6,276.2c-1.1,1.6-2.2,3.2-3.3,4.4c2,1.3,4.2,2.6,6.6,3.8c0.5-0.7,1-1.3,1.4-2
						c3.9-5.9,5.6-12.3,5.6-19.3c0-0.5,0-1,0-1.4c-0.1-0.9-0.2-1.7-0.4-2.5l-9.2,16C138.2,275.3,137.9,275.7,137.6,276.2z"/>
					<path class="st11" d="M167.4,255.3c-4.8-2.4-9.6-4.3-14.5-5.7l-2.9,5c1.1,2.5,1.7,5.3,1.7,8.5c0,8.7-2.3,16.2-7.2,23
						c4.6,2,9.2,3.4,12.5,3.7C156.4,278.7,160,267.3,167.4,255.3z"/>
					<g>
						<path class="st11" d="M141.6,254.9l-5.4,19.1l6.8-11.9l0,0C143.1,259.4,142.8,256.9,141.6,254.9z"/>
						<path class="st11" d="M137.7,276c-2.1,3.2-4.4,5.9-6.4,7.4c-7.6,5.4-19.4,10-26.1,10.5c0,0,0,0,0,0c4.7,0.9,9.5,3.8,14.3,7.5
							c0,0,0,0,0,0c1.3-0.7,2.5-1.4,3.7-2.1c9-5.3,15.1-10.8,19-16.8c3.9-5.9,5.6-12.3,5.6-19.3c0-0.5,0-1,0-1.4
							c-0.1-0.9-0.2-1.7-0.4-2.5l-9.2,16C138.2,275.3,138,275.6,137.7,276z"/>
					</g>
				</g>
			</g>
		</g>
		<path class="st0" d="M355.3,332.8c0,0,3.2,29.8-9,46.9c-12.2,17.1-32,27.4-73.6,19.3c-41.6-8.1-90.2-43.5-90.2-43.5l64.1-42.8
			l24.7,1.5c0,0,23-13.2,41.8-10.5C331.8,306.4,351.4,324.8,355.3,332.8z"/>
		<path class="st1" d="M355.3,332.8c-3.9-8.1-23.5-26.4-42.3-29.1c-18.8-2.7-41.8,10.5-41.8,10.5s-9.5,1.2-23.7,9.5
			c-9.8,5.7-33.3,30.8-42.1,46c17.4,11.1,39.3,23.9,67.2,29.3c41.6,8.1,61.4-2.2,73.6-19.3C358.5,362.7,355.3,332.8,355.3,332.8z"/>
		<path class="st1" d="M81.7,313.8c0,0,27.1,1.2,33.3,0.5c6.1-0.7,91.2-13.9,105.4-14.4c14.2-0.5,28.9-1.2,35.9,2.2
			c7.1,3.4,10.8,12,10.8,12l-20.8,0.7c-13.7,6.1-61.9,41.8-90.7,58.2c-28.9,16.4-88.3,44-113,31.3c-24.7-12.7-31.8-58.4-31.8-58.4
			l20.8-25.2l28.9-9.3L81.7,313.8z"/>
		<path class="st10" d="M8.9,347.3l-2.9-11.5c0,0,16.6-17.2,30.7-24.3c14.2-7.1,42.3-10.3,42.3-10.3l2.4,11.7c0,0-25.2-0.7-39.4,7.3
			S8.9,347.3,8.9,347.3z"/>
		<path class="st10" d="M272.1,302c0,0,24-9,41.1-7.3c17.1,1.7,43,24.5,43,24.5l-1,13.7c0,0-18.8-22.7-41.3-24.2s-43.8,6.1-43.8,6.1
			L272.1,302z"/>
		<path class="st12" d="M57.6,309.6c-0.6,0.7-0.9,2.5,1.3,5.2c2.2,2.7,10.8,2.4,13.9,2.4s11.5,2.2,18.1,2.2c6.6,0,14.4-1.2,25.2-5.1
			c0,0-13.4-18.1-22.5-21c-9-2.9-40.6-5.4-42.1-3.2c-1.5,2.2-2.1,4.9-0.9,6.1c1.2,1.2,14,0,14,0l12.7,3.5l-22.6-0.3
			c0,0-1.8,2.2-1.5,4.4c1.3,2.4,3.7,2.9,4.1,3.8C57.7,308.5,57.6,309.6,57.6,309.6z"/>
		<line class="st13" x1="186.3" y1="527.7" x2="201.8" y2="519.2"/>
		<path class="st13" d="M144.8,516.5c0,0-0.5,32.8-4.4,39.1s-33.3,18.6-33.3,18.6"/>
		<path class="st13" d="M225.9,515c0,0-2.4,30.8,0.5,39.1c2.9,8.3,31.8,22,31.8,22"/>
		<path class="st14" d="M202.5,807.1c0,0-3.4,4.5-4.6,7.9c-1.3,3.7-0.9,10.4-0.9,10.4s2.8,5,7.2,4.8c4.4-0.2,12.5,2.9,14.9,4.9
			c2.4,2,14.9,1.5,19.8,2c4.9,0.5,27.7,12.6,35.2,15.4c10.5,3.9,28.3-0.6,32.3-1.7c8.1-2.2,12.7-10.5,12.7-10.5l-0.5-7.3
			c0,0-0.7,6.1-6.4,8.6s-13.7,4.7-20.5,5.1c-12.2,0.7-43.3-13-46.2-13.4c-2.9-0.5-15.6-12.5-24.2-16.9
			C212.7,811.8,202.5,807.1,202.5,807.1z"/>
		<polygon class="st2" points="124.2,776.9 122.5,786.2 92.2,788.1 80.9,776.1 83.9,767.3 		"/>
		<polygon class="st2" points="204.7,776.6 205.9,787.2 228.6,800.4 254.3,794.2 245.5,775.2 		"/>
		<path class="st15" d="M204.4,780.6c-2.4,4-4.4,10.5-4.2,16.1c0.2,5.6,2.4,10.8,2.4,10.8s19.6,8.9,24.9,13.1
			c5.4,4.2,9.8,8.9,14.4,11.1c4.6,2.2,30.3,13,41.6,15.2c5.3,1,18.9-0.5,27.4-4.2c3.8-1.6,7.6-5.1,7.6-7.3s0.7-7.8-3.4-11
			c-4.2-3.2-17.4-4.9-20.8-6.6c-3.4-1.7-30.3-26.4-31.1-31.5c-0.7-5.1-15.6-2.2-22.5-0.7c-6.6,1.4-22.7,5.4-28.1,2.7
			C209.4,786.5,205.9,778.1,204.4,780.6z"/>
		<path class="st10" d="M248.2,799.6c0,0-4.4-12-3.9-19.1s2-12.5,5.6-16.6c3.7-4.2,5.6-9.8,14.2-4.9c8.6,4.9,12.2,6.6,13.4,10.3
			c1.2,3.7-10.8,10.8-11.7,16.1c-1,5.4-1.2,10.3-1.2,10.3L248.2,799.6z"/>
		<path class="st10" d="M202.1,785.9c0,0,14.8,5.4,18.5,10.5c3.7,5.1,12,27.9,12,27.9s-17.4-12-21.8-13.2c-2.8-0.8-5.4-2.1-6.8-2.9
			c-0.8-0.5-1.3-0.8-1.3-0.8S197.3,794.2,202.1,785.9z"/>
		<path class="st15" d="M123.5,780.1c0,0,3.7,2.2,4.4,5.6c0.7,3.4,2.7,13.9,1.7,17.8c-1,3.9-2.9,4.9-2.9,4.9s-33.5,2.2-40.3,4.6
			c-6.8,2.4-19.9,10.6-39.7,12.1s-34.8-2.3-40.2-8.7c-5.4-6.4-3.2-9.8-3.2-9.8s2.4-4.9,14.4-4.4c12,0.5,16.1-0.7,20.8-2
			c4.6-1.2,25.2-14.7,27.6-18.6c2.4-3.9,13.9-7.6,17.1-5.6c3.2,2,14.4,8.1,19.1,8.3c4.6,0.2,18.3-1.2,19.3-2.2
			C122.5,781.3,123.5,780.1,123.5,780.1z"/>
		<path class="st14" d="M2.9,807.9c0,0-2.8,2.7-2.9,7.2c0,1.7,3.4,10.3,12,14.3c8.1,3.8,21.3,5.6,35,3.7s30.1-6.4,34.5-5.1
			c4.4,1.2,10,3.7,15.9,4.2c5.9,0.5,15.4-5.6,20.5-5.6s14.7,2.2,18.8,2.4c4.2,0.2-2.9-21.5-8.1-21.5s-39.1,2.9-43.5,5.1
			s-25.9,13.9-47.2,12c-21.3-2-26.8-4.5-31.1-8.6C3.8,813.2,2.9,807.9,2.9,807.9z"/>
		<path class="st16" d="M82.4,772.2l-1.2-12.7c0,0,11.5-3.9,17.4-0.5c5.9,3.4,21,4.2,24.5,4.2c3.4,0,6.8,1.5,6.8,1.5s1.5,5.4,0,9.5
			c-1.5,4.2,1.2,5.6-3.7,5.9s-12.5-5.9-18.1-6.4C102.5,773.2,82.4,772.2,82.4,772.2z"/>
		<path class="st16" d="M195.4,768.6c0,0,2.4,9.5,2.7,10.5c0.2,1,2.4,1,10.3,2s9.3,1.5,16.1,2c6.8,0.5,7.1,0,13.2-1.5
			c6.1-1.5,9.3-4.4,10-5.1c0.7-0.7-1-10-1.2-11.2c-0.2-1.2-6.6,3.2-12,3.7c-5.4,0.5-20.5,4.9-24.7,2S195.4,768.6,195.4,768.6z"/>
		<path class="st10" d="M127.9,790.6c0,0-10.3-3.7-18.6,0.5c-8.3,4.2-12.2,7.6-15.6,11.2c-3.2,3.4-8.2,10.1-8.2,10.1
			c-0.2-1.3,43-6.3,43.2-5C128.6,807.4,132.8,794.7,127.9,790.6z"/>
		<path class="st10" d="M48.7,760.7c-2.8-3.9,11.2-11,17.4-11.2c6.1-0.2,12.7,5.9,14.4,13.2s7.8,19.6,7.8,19.6s-14.7-2.7-15.9-5.4
			s-5.6-6.4-11.5-9.3S50.4,763.2,48.7,760.7z"/>
		<path class="st16" d="M247.2,815.5l-3.9-3.7c0,0,7.6-9.3,19.6-13.2c11.7-3.8,13.7,0,13.7,0l3.2,3.9c0,0-10,0-15.9,2.9
			C258,808.4,250.4,812.8,247.2,815.5z"/>
		<path class="st16" d="M258.9,825.1l-3.9-3.7c0,0,7.6-9.3,19.6-13.2c11.7-3.8,13.7,0,13.7,0l3.2,3.9c0,0-10,0-15.9,2.9
			C269.7,818,262.1,822.4,258.9,825.1z"/>
		<path class="st16" d="M60.6,782.8c0,0,8.6-1.2,16.6,4.9c8.1,6.1,5.9,5.6,5.9,5.6l-6.1,5.6c0,0-2-6.1-9.8-8.6S54,787.9,54,787.9
			L60.6,782.8z"/>
		<path class="st16" d="M45,792.8c0,0,8.6-1.2,16.6,4.9c8.1,6.1,5.9,5.6,5.9,5.6l-6.1,5.6c0,0-2-6.1-9.8-8.6
			c-7.8-2.4-13.2-2.4-13.2-2.4L45,792.8z"/>
		<circle class="st11" cx="151.4" cy="87.8" r="2.2"/>
		<circle class="st11" cx="191.9" cy="86.9" r="2.2"/>
	</g>
</g>
</svg>
