<?xml version="1.0" encoding="utf-8"?>
<!-- Generator: Adobe Illustrator 22.0.1, SVG Export Plug-In . SVG Version: 6.00 Build 0)  -->
<svg version="1.1" id="Layer_1" xmlns="http://www.w3.org/2000/svg" xmlns:xlink="http://www.w3.org/1999/xlink" x="0px" y="0px"
	 viewBox="0 0 41 41" style="enable-background:new 0 0 41 41;" xml:space="preserve">
<style type="text/css">
	.st0{fill:#FFFFFF;stroke:#FFFFFF;stroke-miterlimit:10;}
	.st1{fill:#FFFFFF;stroke:#FFFFFF;stroke-width:1.1175;stroke-miterlimit:10;}
</style>
<g>
	<path class="st0" d="M21.8,40.5h-2.5c-2,0-3.7-1.7-3.7-3.7V36c-0.9-0.3-1.7-0.6-2.5-1l-0.6,0.6c-1.5,1.5-3.8,1.4-5.2,0l-1.8-1.8
		c-1.4-1.4-1.5-3.8,0-5.2l0.6-0.6c-0.4-0.8-0.8-1.6-1-2.5H4.2c-2,0-3.7-1.7-3.7-3.7v-2.5c0-2,1.7-3.7,3.7-3.7H5
		c0.3-0.9,0.6-1.7,1-2.5l-0.6-0.6C4,11,4.1,8.7,5.5,7.2l1.8-1.8C8.7,4,11,4,12.5,5.5l0.6,0.6c0.8-0.4,1.6-0.8,2.5-1V4.2
		c0-2,1.7-3.7,3.7-3.7h2.5c2,0,3.7,1.7,3.7,3.7V5c0.9,0.3,1.7,0.6,2.5,1l0.6-0.6c1.5-1.5,3.8-1.4,5.2,0l1.8,1.8
		c1.4,1.4,1.5,3.8,0,5.2l-0.6,0.6c0.4,0.8,0.8,1.6,1,2.5h0.8c2,0,3.7,1.7,3.7,3.7v2.5c0,2-1.7,3.7-3.7,3.7H36
		c-0.3,0.9-0.6,1.7-1,2.5l0.6,0.6c1.5,1.5,1.4,3.8,0,5.2l-1.8,1.8c-1.4,1.4-3.8,1.5-5.2,0l-0.6-0.6c-0.8,0.4-1.6,0.8-2.5,1v0.8
		C25.4,38.8,23.8,40.5,21.8,40.5z M13.4,32.5c1.1,0.7,2.3,1.2,3.6,1.5c0.5,0.1,0.9,0.6,0.9,1.1v1.7c0,0.7,0.6,1.3,1.3,1.3h2.5
		c0.7,0,1.3-0.6,1.3-1.3v-1.7c0-0.5,0.4-1,0.9-1.1c1.3-0.3,2.5-0.8,3.6-1.5c0.5-0.3,1-0.2,1.4,0.2l1.2,1.2c0.5,0.5,1.4,0.5,1.9,0
		l1.8-1.8c0.5-0.5,0.5-1.4,0-1.9L32.6,29c-0.4-0.4-0.5-1-0.2-1.4c0.7-1.1,1.2-2.3,1.5-3.6c0.1-0.5,0.6-0.9,1.1-0.9h1.7
		c0.7,0,1.3-0.6,1.3-1.3v-2.5c0-0.7-0.6-1.3-1.3-1.3h-1.7c-0.5,0-1-0.4-1.1-0.9c-0.3-1.3-0.8-2.5-1.5-3.6c-0.3-0.5-0.2-1,0.2-1.4
		l1.2-1.2c0.5-0.5,0.5-1.4,0-1.9l-1.8-1.8c-0.5-0.5-1.4-0.5-1.9,0L29,8.4c-0.4,0.4-1,0.5-1.4,0.2C26.4,7.9,25.2,7.4,24,7
		c-0.5-0.1-0.9-0.6-0.9-1.1V4.2c0-0.7-0.6-1.3-1.3-1.3h-2.5c-0.7,0-1.3,0.6-1.3,1.3v1.7c0,0.5-0.4,1-0.9,1.1
		c-1.3,0.3-2.5,0.8-3.6,1.5c-0.5,0.3-1,0.2-1.4-0.2l-1.2-1.2c-0.5-0.5-1.4-0.5-1.9,0L7.1,8.9c-0.5,0.5-0.5,1.4,0,1.9L8.4,12
		c0.4,0.4,0.5,1,0.2,1.4C7.9,14.6,7.4,15.8,7,17c-0.1,0.5-0.6,0.9-1.1,0.9H4.2c-0.7,0-1.3,0.6-1.3,1.3v2.5c0,0.7,0.6,1.3,1.3,1.3
		h1.7c0.5,0,1,0.4,1.1,0.9c0.3,1.3,0.8,2.5,1.5,3.6c0.3,0.5,0.2,1-0.2,1.4l-1.2,1.2c-0.5,0.5-0.5,1.4,0,1.9l1.8,1.8
		c0.5,0.5,1.4,0.5,1.9,0l1.2-1.2C12.3,32.4,12.9,32.1,13.4,32.5L13.4,32.5z"/>
	<path class="st1" d="M20.7,30.2c-5.2,0-9.5-4.3-9.5-9.5s4.3-9.5,9.5-9.5s9.5,4.3,9.5,9.5S25.9,30.2,20.7,30.2z M20.7,13.7
		c-3.8,0-6.9,3.1-6.9,6.9s3.1,6.9,6.9,6.9s6.9-3.1,6.9-6.9S24.5,13.7,20.7,13.7L20.7,13.7z"/>
</g>
</svg>
