<?xml version="1.0" encoding="utf-8"?>
<!-- Generator: Adobe Illustrator 22.0.1, SVG Export Plug-In . SVG Version: 6.00 Build 0)  -->
<svg version="1.1" id="Layer_1" xmlns="http://www.w3.org/2000/svg" xmlns:xlink="http://www.w3.org/1999/xlink" x="0px" y="0px"
	 viewBox="0 0 60.3 60.3" style="enable-background:new 0 0 60.3 60.3;" xml:space="preserve">
<style type="text/css">
	.st0{fill:#FF1B4A;}
	.st1{fill:#FFFFFF;}
</style>
<g>
	<circle class="st0" cx="30.1" cy="30.1" r="30.1"/>
	<path id="path12604_1_" class="st1" d="M30,12.6c-2.3,0-4.6,0.6-6.5,2.1c-1.4,1.1-2.5,2.5-3.2,4.1c0,0,0,0,0,0
		c-0.7,1.6-0.6,3.4-0.5,5v0c0.1,1.1,0.2,2.3,0.1,3.3c0,0,0,0.1,0,0.1c-0.5,0.1-1.1,0.1-1.6,0c0,0,0,0,0,0c-0.4-0.1-0.8-0.2-1.2-0.3
		c0,0,0,0,0,0c-0.4-0.1-0.9,0-1.2,0.3c0,0,0,0,0,0c0,0,0,0,0,0c-0.3,0.2-0.6,0.5-0.7,1c0,0,0,0.1,0,0.1c0.1,0.3,0.2,0.5,0.4,0.7
		c0.2,0.1,0.3,0.2,0.4,0.3c0,0,0,0,0,0c0.8,0.6,1.7,0.8,2.5,1.1c0,0,0,0,0,0c0.6,0.2,1,0.6,1.1,1.1c0.1,0.6-0.1,1.3-0.5,2v0
		c-0.9,1.8-2.2,3.3-3.9,4.4c-0.9,0.6-1.8,1-2.8,1.3c0,0,0,0,0,0c-0.2,0.1-0.7,0.1-1,0.6c0,0,0,0.1-0.1,0.1c-0.1,0.3,0,0.6,0.2,0.8
		c0.1,0.2,0.3,0.3,0.4,0.3c0,0,0,0,0,0c0.9,0.5,1.8,0.7,2.6,0.9c0,0,0,0,0,0c0.6,0.1,1.2,0.2,1.6,0.4c0,0,0.1,0.2,0.2,0.4
		c0.2,0.5,0.2,1,0.4,1.6c0,0.2,0.2,0.3,0.4,0.3c0.4,0.1,0.6-0.1,0.6-0.1c0,0,0,0,0,0c1.4-0.2,2.8-0.5,4.2-0.1c0,0,0,0,0,0
		c1.4,0.4,2.6,1.3,3.9,2.1c0,0,0,0,0,0v0c0.9,0.6,1.9,1.1,3.1,1.1v0c0,0,0,0,0,0c0.9,0.1,1.8,0,2.6-0.1c0,0,0,0,0,0
		c0.7-0.1,1.5-0.3,2.1-0.7c0,0,0,0,0,0c1.4-0.8,2.7-1.8,4-2.4c0,0,0,0,0,0c0.4-0.2,1-0.2,1.6-0.2c0,0,0,0,0,0c1.1,0,2.3,0,3.4,0.2
		c0,0,0.1,0,0.1,0c0.1,0,0.3-0.1,0.4-0.2c0.1-0.1,0.1-0.2,0.1-0.2c0-0.1,0.1-0.2,0-0.1c0,0,0-0.1,0-0.1c0.2-0.7,0.3-1.3,0.7-1.7
		c0.2-0.1,0.4-0.2,0.7-0.2c0,0,0,0,0.1,0c1-0.1,1.9-0.5,2.7-0.8c0,0,0,0,0,0c0.3-0.1,0.8-0.3,1.1-0.7c0,0,0,0,0,0l0,0
		c0.3-0.4,0.1-0.9-0.2-1.1l0,0c0,0,0,0,0,0c0,0,0,0,0,0v0c-0.5-0.3-0.9-0.3-1.2-0.4c0,0,0,0,0,0c-2-0.6-3.6-2-4.9-3.6
		c-0.7-0.9-1.3-1.9-1.7-2.9c0,0,0,0,0,0c-0.2-0.5-0.2-1,0.1-1.3c0,0,0,0,0,0c0.4-0.5,1-0.8,1.7-1.1c0,0,0,0,0,0
		c0.8-0.3,1.6-0.6,2.3-1.2c0,0,0,0,0,0c0.1-0.1,0.2-0.2,0.3-0.4c0.1-0.2,0.1-0.5,0-0.8v0c-0.2-0.4-0.5-0.6-0.8-0.8c0,0,0,0,0,0
		c-0.4-0.2-0.9-0.3-1.4-0.1c0,0,0,0,0,0c0,0,0,0,0,0c-0.5,0.1-0.9,0.3-1.2,0.4c0,0,0,0,0,0c-0.5,0.1-1,0.1-1.4,0c0-0.1,0-0.2,0-0.3
		h0c0-0.8,0-1.7,0.1-2.6v0c0-1.4,0.1-2.7-0.1-4.1c0,0,0,0,0,0c-0.4-2.4-2-4.4-3.9-5.8c-1.4-1-3.1-1.5-4.7-1.7c0,0,0,0,0,0
		C31.1,12.6,30.5,12.6,30,12.6L30,12.6z"/>
</g>
</svg>
