<svg width="284" height="790" viewBox="0 0 284 790" fill="none" xmlns="http://www.w3.org/2000/svg">
<g clip-path="url(#clip0)">
<path d="M45.6305 372.482C45.6305 372.482 19.6411 369.209 14.5821 360.281C9.52304 351.354 0.79376 308.997 0.000188509 254.24C-0.793383 199.484 12.003 171.709 15.574 167.443C19.1451 163.079 54.0622 178.355 54.0622 178.355L45.6305 372.482Z" fill="#089685"/>
<path d="M44.6384 183.811L13.5899 173.395L6.15021 190.854L4.46387 164.467C4.46387 164.467 19.9385 155.341 46.7215 155.341C73.5045 155.341 135.304 169.725 139.371 171.114C147.505 173.891 156.433 179.545 157.921 183.811C159.409 188.175 159.706 195.317 159.706 195.317L64.9737 189.762L44.6384 183.811Z" fill="#00A99D"/>
<path d="M103.661 157.028C103.958 161.392 101.875 176.867 101.875 176.867L124.889 199.186L134.907 188.076L138.478 178.653L133.915 164.368L103.661 157.028Z" fill="#D88D71"/>
<path d="M86.4995 62.4937C86.4995 62.4937 172.404 62.8904 173.991 65.172C175.479 67.4535 180.637 75.9844 182.026 84.3169C183.712 95.0301 184.605 119.333 174.685 138.478C164.765 157.623 153.755 161.492 145.422 163.773C136.99 166.055 121.714 166.451 110.703 161.492C99.6926 156.532 87.2931 146.91 80.3493 132.427C80.3493 132.427 61.998 127.071 60.5101 117.944C59.0221 108.818 62.7916 104.156 67.7514 103.859C72.7112 103.462 78.4646 108.818 78.4646 108.818L74.9927 80.1506L86.4995 62.4937Z" fill="#EF9D78"/>
<path d="M136.792 81.5392C110.604 84.4159 91.1617 87.6894 87.293 93.7404C83.4244 99.7913 83.1268 123.499 91.8561 135.601C100.685 147.604 116.06 158.218 129.848 161.194C143.637 164.17 153.556 160.599 158.615 157.524C163.674 154.449 171.808 146.612 176.471 134.708C181.926 120.623 183.712 106.834 183.613 95.9227C183.514 91.558 183.018 87.1934 182.522 84.1183C179.942 83.3247 161.095 78.8609 136.792 81.5392Z" fill="#FFBA85"/>
<path d="M90.3682 66.2632C90.9633 67.0568 96.8159 80.9442 131.237 79.4563C165.658 77.9684 177.859 67.4535 183.414 58.6251C188.969 49.7966 186.688 26.6838 183.414 18.3513C180.141 9.91964 166.948 0 166.948 0C166.948 0 169.031 7.04294 168.138 12.7963C167.146 18.5497 166.055 19.4425 166.055 19.4425C166.055 19.4425 162.583 9.72124 159.607 8.3325C156.532 7.04294 150.283 20.1369 148.001 21.724C145.72 23.3111 148.596 14.6811 147.009 14.8795C145.521 15.0778 141.851 21.5256 140.363 21.9224C138.875 22.3192 131.039 21.9224 131.039 21.9224L95.1296 48.7054L90.3682 66.2632Z" fill="#91AF61"/>
<path d="M60.2123 77.5718C60.2123 77.5718 54.8557 73.0088 52.1774 67.2554C49.4991 61.502 50.0943 56.1454 48.7055 57.1373C47.416 58.1293 45.4321 58.1293 43.5473 54.6574C41.6626 51.1855 40.373 35.1157 40.6706 33.6278C41.0674 32.1398 46.2256 22.5178 52.8718 20.0379C59.5179 17.558 66.6601 14.6813 73.9014 14.0861C81.1428 13.4909 86.8961 13.4909 89.3761 12.5981C91.856 11.6062 94.931 11.3086 94.931 11.3086L98.7997 14.1853L80.6468 42.2579L64.577 70.3304L60.2123 77.5718Z" fill="#218955"/>
<path d="M79.0597 105.049C79.0597 105.049 82.9284 74.0996 100.288 51.5821C117.647 29.0645 139.867 23.7079 139.867 23.7079C139.867 23.7079 135.502 16.2681 128.559 13.9866C121.615 11.7051 117.151 15.8714 117.151 15.8714C117.151 15.8714 104.553 12.7963 98.7998 14.185C93.0464 15.4746 78.9605 16.2681 67.8505 34.0243C56.7405 51.7804 57.7325 89.1775 58.1293 91.1614C58.5261 93.0461 65.1722 102.073 68.0489 102.767C70.9256 103.561 79.0597 105.049 79.0597 105.049Z" fill="#25995F"/>
<path d="M97.2124 91.6573L99.2955 96.3195C99.2955 96.3195 107.033 93.7404 110.108 92.7484C113.183 91.7565 119.532 91.2605 119.532 91.2605L115.861 85.8047C115.861 85.8047 110.604 85.8047 104.95 87.6894C101.577 88.8798 97.2124 91.6573 97.2124 91.6573Z" fill="#680100"/>
<path d="M153.457 83.5233L153.755 90.3678C153.755 90.3678 161.69 89.475 165.559 89.7726C169.428 90.0702 172.304 90.7646 172.304 90.7646C172.304 90.7646 174.586 86.8959 174.586 86.4C174.586 85.904 168.832 84.0192 163.972 83.3249C160.103 82.9281 153.457 83.5233 153.457 83.5233Z" fill="#680100"/>
<path d="M136.891 105.446C136.891 105.446 141.256 102.867 143.934 103.065C146.612 103.263 149.787 104.553 149.787 104.553L149.191 109.017C149.191 109.017 146.513 106.835 144.232 107.132C141.95 107.43 138.974 109.513 138.974 109.513L136.891 105.446Z" fill="#006837"/>
<path d="M78.9603 101.577C78.9603 101.577 83.6226 101.279 87.888 102.47C92.0543 103.66 96.4189 106.14 96.4189 106.14L95.8237 111.497C95.8237 111.497 89.8719 108.918 86.3009 108.025C82.7298 107.132 78.7619 106.735 78.7619 106.735L78.4644 101.676L78.9603 101.577Z" fill="#006837"/>
<path d="M185.597 98.2043C190.556 96.9147 191.35 97.2123 191.35 97.2123L191.449 102.271L187.481 103.958L185.597 98.2043Z" fill="#006837"/>
<path d="M185.894 107.43C185.894 95.6254 183.712 94.5343 171.907 94.7327C156.334 95.0303 149.787 99.6925 149.291 110.009C148.695 121.813 158.218 126.178 170.023 126.178C181.827 126.178 185.894 119.333 185.894 107.43Z" fill="#BDCCD4" stroke="#006837" stroke-width="4.005" stroke-miterlimit="10"/>
<path d="M96.1216 112.588C96.1216 100.784 104.256 98.0061 116.159 98.2045C131.733 98.5021 138.28 101.379 138.28 113.183C138.28 124.988 129.749 132.328 117.945 132.328C106.14 132.328 96.1216 124.392 96.1216 112.588Z" fill="#BDCCD4" stroke="#006837" stroke-width="4.005" stroke-miterlimit="10"/>
<path d="M145.62 109.215C145.62 112.29 145.422 115.861 146.811 117.647C148.1 119.333 150.977 120.127 152.167 122.607C153.358 125.087 152.961 128.955 151.374 130.84C149.886 132.725 144.727 134.312 142.248 133.518" stroke="#680100" stroke-width="3.0808" stroke-miterlimit="10" stroke-linecap="round" stroke-linejoin="round"/>
<path d="M132.229 144.033C132.229 144.033 136.098 148.398 142.347 147.902C148.696 147.306 150.58 143.735 150.58 143.735" stroke="#680100" stroke-width="3.0808" stroke-miterlimit="10" stroke-linecap="round" stroke-linejoin="round"/>
<path d="M106.735 105.942C106.735 105.942 111.398 104.85 117.746 105.842C124.095 106.834 125.186 109.017 125.186 109.017" stroke="#680100" stroke-width="3.0808" stroke-miterlimit="10" stroke-linecap="round" stroke-linejoin="round"/>
<path d="M161.591 106.438C161.591 106.438 164.468 103.065 170.023 102.668C172.9 102.47 175.38 102.767 175.38 102.767" fill="#680100"/>
<path d="M161.591 106.438C161.591 106.438 164.468 103.065 170.023 102.668C172.9 102.47 175.38 102.767 175.38 102.767" stroke="#680100" stroke-width="3.0808" stroke-miterlimit="10" stroke-linecap="round" stroke-linejoin="round"/>
<path d="M119.631 118.936C123.137 118.936 125.979 116.094 125.979 112.588C125.979 109.082 123.137 106.239 119.631 106.239C116.125 106.239 113.282 109.082 113.282 112.588C113.282 116.094 116.125 118.936 119.631 118.936Z" fill="black" stroke="#680100" stroke-width="3.177" stroke-miterlimit="10" stroke-linecap="round" stroke-linejoin="round"/>
<path d="M166.452 115.167C169.684 115.167 172.304 112.547 172.304 109.314C172.304 106.082 169.684 103.462 166.452 103.462C163.219 103.462 160.599 106.082 160.599 109.314C160.599 112.547 163.219 115.167 166.452 115.167Z" fill="black" stroke="#680100" stroke-width="2.9363" stroke-miterlimit="10" stroke-linecap="round" stroke-linejoin="round"/>
<path d="M59.6174 529.114C58.1295 538.24 56.5424 547.862 53.8641 552.028C51.1858 556.194 47.7139 565.419 47.4163 573.058C47.0195 580.696 52.3761 695.267 57.3359 718.975C62.2957 742.683 71.8186 740.005 71.8186 740.005C71.8186 740.005 79.4567 722.05 80.6471 717.091C81.8374 712.131 81.8374 694.573 86.7973 669.675C91.7571 644.776 103.958 591.012 103.958 578.017C103.958 565.023 100.09 553.615 101.28 547.068C102.47 540.62 102.47 532.982 102.47 532.982L59.6174 529.114Z" fill="#FFBA85"/>
<path d="M147.505 527.923C146.017 535.165 140.661 558.476 140.264 572.958C139.867 587.441 145.224 612.339 153.259 631.385C161.293 650.53 187.283 699.037 189.564 712.329C191.846 725.721 191.846 744.37 191.846 744.37L210.197 751.214L221.307 736.335C221.307 736.335 214.463 712.627 210.991 694.672C207.519 676.718 197.599 626.326 195.318 602.221C193.929 588.135 194.524 570.181 193.433 561.749C192.243 553.317 190.358 546.473 189.961 540.323C189.564 534.173 189.564 517.805 189.564 517.805L147.505 527.923Z" fill="#FFBA85"/>
<path d="M184.307 427.239C184.307 427.239 189.068 483.979 190.259 492.708C191.449 501.537 193.334 522.17 193.334 522.17C193.334 522.17 186.886 528.618 167.741 532.089C148.596 535.561 135.998 535.958 135.304 533.974C134.61 531.99 119.234 474.754 119.234 474.754L121.119 464.437L107.331 538.636C107.331 538.636 83.2259 537.843 73.3063 535.164C63.3866 532.486 48.1104 526.336 46.2257 521.376C44.3409 516.416 50.3919 462.553 50.3919 455.311C50.3919 448.07 51.1855 423.965 51.1855 423.965L184.307 427.239Z" fill="#25995F"/>
<path d="M36.4053 330.423C36.4053 330.423 41.9603 415.633 43.1506 419.799C44.341 423.965 44.6386 427.834 50.7887 426.644C56.9389 425.453 72.9095 428.132 72.9095 428.132L54.5582 367.82L36.4053 330.423Z" fill="#36D88B"/>
<path d="M125.087 469.497L143.438 534.669" stroke="#006837" stroke-width="3.0808" stroke-miterlimit="10" stroke-linecap="round" stroke-linejoin="round"/>
<path d="M178.851 264.259C178.851 264.259 184.406 278.048 186.985 294.613C189.565 311.179 189.565 320.603 190.854 326.654C192.144 332.804 197.004 360.48 196.707 370.995C196.409 381.41 194.425 425.453 194.425 425.453L179.447 414.542L166.253 323.876L164.766 306.021L162.98 270.112L178.851 264.259Z" fill="#FFBA85"/>
<path d="M97.3121 170.221L122.508 186.489L125.087 195.913L127.666 187.481C127.666 187.481 130.741 183.117 133.023 181.331C135.304 179.546 140.165 178.058 140.165 178.058C140.165 178.058 142.744 181.926 144.232 184.208C145.72 186.489 150.581 189.763 150.581 189.763C150.581 189.763 168.634 194.326 170.717 196.409C172.801 198.492 177.066 225.176 178.355 230.037C179.645 234.897 190.854 261.879 190.854 261.879L162.881 272.096L165.956 315.941L179.347 418.51L96.4193 429.025L69.6363 418.708L61.5022 279.536C61.5022 279.536 44.1428 276.461 35.8103 272.393C27.4778 268.326 14.2847 260.887 12.9951 257.117C11.7056 253.249 19.8397 225.771 24.7003 214.562C29.5609 203.353 43.25 183.216 46.6227 180.736C49.8962 178.157 71.3226 177.165 77.9688 178.454C84.6149 179.744 88.186 179.744 88.186 179.744L97.3121 170.221Z" fill="#36D88B"/>
<path d="M120.722 188.374C120.722 188.374 119.036 190.457 116.953 193.234C113.877 197.301 110.009 203.055 109.215 206.229C109.215 206.229 106.438 199.583 98.502 191.449C90.5663 183.315 88.0864 179.744 88.0864 179.744" stroke="#30B271" stroke-width="3.0808" stroke-miterlimit="10" stroke-linecap="round" stroke-linejoin="round"/>
<path d="M125.087 196.012L116.953 193.135" stroke="#30B271" stroke-width="3.0808" stroke-miterlimit="10" stroke-linecap="round" stroke-linejoin="round"/>
<path d="M127.666 188.87C127.666 188.87 135.304 195.219 137.09 199.782C138.875 204.345 139.867 206.13 139.867 206.13L149.291 190.358" stroke="#30B271" stroke-width="3.0808" stroke-miterlimit="10" stroke-linecap="round" stroke-linejoin="round"/>
<path d="M124.591 197.797C124.591 197.797 117.449 223.787 117.945 258.109C118.441 292.53 120.226 318.222 120.226 318.222" stroke="#30B271" stroke-width="3.0808" stroke-miterlimit="10" stroke-linecap="round" stroke-linejoin="round"/>
<path d="M127.071 244.817C127.071 244.817 142.049 245.809 146.414 245.61C150.779 245.313 152.763 244.618 152.763 244.618" stroke="#30B271" stroke-width="3.0808" stroke-miterlimit="10" stroke-linecap="round" stroke-linejoin="round"/>
<path d="M126.873 245.908L128.956 279.734C128.956 279.734 140.958 282.313 145.224 281.817C149.589 281.321 157.921 275.468 157.921 275.468L155.838 246.9" stroke="#30B271" stroke-width="3.0808" stroke-miterlimit="10" stroke-linecap="round" stroke-linejoin="round"/>
<path d="M128.162 255.332C128.162 255.332 136.594 256.819 140.165 256.819C143.736 256.819 155.144 255.332 155.144 255.332" stroke="#30B271" stroke-width="3.0808" stroke-miterlimit="10" stroke-linecap="round" stroke-linejoin="round"/>
<path d="M109.215 233.905C105.942 235.195 107.926 237.377 107.926 237.377" stroke="#30B271" stroke-width="3.0808" stroke-miterlimit="10" stroke-linecap="round" stroke-linejoin="round"/>
<path d="M107.727 266.144C104.454 267.434 106.438 269.616 106.438 269.616" stroke="#30B271" stroke-width="3.0808" stroke-miterlimit="10" stroke-linecap="round" stroke-linejoin="round"/>
<path d="M107.231 299.672C103.958 300.962 105.942 303.144 105.942 303.144" stroke="#30B271" stroke-width="3.0808" stroke-miterlimit="10" stroke-linecap="round" stroke-linejoin="round"/>
<path d="M63.0892 174.982L61.7996 177.859C61.7996 177.859 76.3815 195.814 75.8855 213.967C75.2903 237.774 61.4028 282.313 61.4028 282.313L62.6924 295.01C62.6924 295.01 83.6228 257.811 88.5826 231.723C93.3441 206.527 90.8642 195.814 89.1778 188.969C87.4915 182.125 82.8293 176.966 82.8293 176.966L63.0892 174.982Z" fill="#089685"/>
<path d="M166.055 192.144C166.055 192.144 166.353 193.235 165.956 194.227C164.17 198.889 158.715 212.578 159.012 223.093C159.409 235.889 164.964 267.632 164.964 267.632L164.567 281.222C164.567 281.222 148.696 243.825 147.803 227.755C146.811 211.685 152.366 191.052 152.763 187.68L166.055 192.144Z" fill="#089685"/>
<path d="M86.4992 448.566L86.2017 450.947L119.631 453.228L198.988 433.488L170.221 434.381L86.4992 448.566Z" fill="#B2E561"/>
<path d="M88.8799 451.443C88.8799 451.443 91.0622 456.7 91.0622 462.354C91.0622 468.009 89.4751 471.778 89.4751 471.778L123.797 472.968L127.864 460.767L121.119 452.732L88.8799 451.443Z" fill="#F2F2F2"/>
<path d="M88.5824 470.588L120.92 472.274C120.92 472.274 121.912 469.893 122.309 463.545C122.706 457.196 119.432 451.641 119.432 451.641L198.79 433.587C198.79 433.587 202.261 437.456 202.559 444.797C202.857 452.137 198.393 455.014 198.393 455.014L121.317 474.952L88.0864 472.373L88.5824 470.588Z" fill="#9BC622"/>
<path d="M86.4006 425.85C86.4006 425.85 88.4837 430.612 88.0869 435.571C87.6901 440.531 85.5078 443.705 85.5078 443.705L131.733 449.161L135.205 436.067L132.428 429.52L86.4006 425.85Z" fill="#F2F2F2"/>
<path d="M130.543 431.504C128.757 431.405 81.8374 426.545 81.8374 426.545L81.9366 424.461L156.235 413.847L193.136 416.327L130.543 431.504Z" fill="#05C6B3"/>
<path d="M84.615 442.515L130.047 447.971C130.047 447.971 132.626 445.689 132.824 440.73C133.023 435.77 128.857 431.207 128.857 431.207L193.037 416.427C193.037 416.427 197.501 420.692 197.104 424.461C196.707 428.231 192.243 431.604 192.243 431.604L129.353 450.748L84.2183 444.797L84.615 442.515Z" fill="#029385"/>
<path d="M82.3332 409.879C82.3332 409.879 84.0195 413.847 83.8211 416.724C83.6227 419.601 82.1348 422.676 82.1348 422.676L127.17 423.668L133.32 418.311L130.642 410.475L120.921 408.987L82.3332 409.879Z" fill="#E6E6E6"/>
<path d="M124.393 411.268L79.3574 411.07L79.655 408.788L146.811 401.646L185.597 400.158L124.393 411.268Z" fill="#B9DD22"/>
<path d="M185.597 400.357C185.597 400.357 188.771 404.126 189.267 407.201C189.763 410.276 187.184 413.748 187.184 413.748L128.956 424.957L80.5479 424.461V421.684L126.674 422.676C126.674 422.676 129.749 419.601 128.162 415.534C126.972 412.459 124.591 410.971 124.591 410.971L185.597 400.357Z" fill="#7BA33B"/>
<path d="M84.813 381.609C84.813 381.609 88.0865 387.957 87.8881 393.314C87.5905 398.67 85.805 403.729 85.805 403.729L114.374 408.094L122.309 406.606L121.02 387.263L116.655 381.113L84.813 381.609Z" fill="#CCCCCC"/>
<path d="M115.167 383.89C115.167 383.89 117.944 387.461 118.242 392.818C118.54 398.174 115.167 407.102 115.167 407.102L84.3169 402.737V406.308L116.357 410.375L182.521 396.587C182.521 396.587 187.68 387.064 184.604 378.236C182.422 371.986 176.669 368.019 176.669 368.019L115.167 383.89Z" fill="#39B54A"/>
<path d="M78.9606 364.348C78.9606 364.348 81.2421 368.415 81.0437 372.78C80.7461 377.145 78.7622 379.922 78.7622 379.922L125.087 383.196L128.162 371.689L125.087 366.134L78.9606 364.348Z" fill="#E6E6E6"/>
<path d="M123.301 367.919C121.516 367.919 74.3975 365.241 74.3975 365.241V363.456L148.2 351.85L185.101 352.842L123.301 367.919Z" fill="#05C6B3"/>
<path d="M77.7702 378.93L123.401 382.204C123.401 382.204 125.98 380.121 125.98 375.855C125.98 371.49 121.615 367.721 121.615 367.721L185.299 352.842C185.299 352.842 189.862 356.413 189.664 359.686C189.366 362.96 185.101 366.035 185.101 366.035L123.004 384.684L77.4727 380.914L77.7702 378.93Z" fill="#029385"/>
<path d="M66.7592 341.335L66.2632 343.12L104.95 345.997L197.897 333.498L164.567 333.201L66.7592 341.335Z" fill="#009245"/>
<path d="M69.338 343.716C69.338 343.716 71.6196 347.783 71.4212 352.147C71.1236 356.512 69.1396 359.289 69.1396 359.289L108.818 361.373L114.175 352.246L106.834 345.898L69.338 343.716Z" fill="#CCCCCC"/>
<path d="M68.0489 358.198L105.446 360.48C105.446 360.48 106.735 358.694 107.529 353.834C108.323 348.973 104.752 344.707 104.752 344.707L197.699 333.498C197.699 333.498 201.567 336.573 201.567 342.128C201.567 347.683 196.211 349.766 196.211 349.766L105.843 362.464L67.3545 359.389L68.0489 358.198Z" fill="#006837"/>
<path d="M67.5527 320.007L68.2471 322.487L104.652 325.562L183.613 315.147L150.283 314.849L67.5527 320.007Z" fill="#D9E021"/>
<path d="M68.2472 322.487C68.2472 322.487 70.5287 326.554 70.3303 330.919C70.132 335.284 68.0488 339.053 68.0488 339.053L107.033 342.327L113.183 330.82L104.751 325.463L68.2472 322.487Z" fill="#F2F2F2"/>
<path d="M68.0489 339.053L105.446 341.334C105.446 341.334 106.735 339.549 107.529 334.688C108.323 329.828 104.752 325.562 104.752 325.562L183.712 315.146C183.712 315.146 187.581 318.222 187.581 323.777C187.581 329.332 182.224 331.415 182.224 331.415L105.843 343.417L67.3545 340.342L68.0489 339.053Z" fill="#BFBF1B"/>
<path d="M27.1801 268.128C27.1801 268.128 26.0889 296.498 31.9415 319.908C37.7941 343.319 41.3652 350.759 42.1588 354.33C42.9523 357.901 47.7138 392.024 53.3679 405.515C59.0221 419.006 70.4297 441.722 70.7273 443.507C71.0249 445.293 70.3305 456.303 70.4297 459.379C70.6281 462.454 73.7032 476.936 74.7944 479.019C75.9847 481.103 80.7461 478.127 80.7461 478.127C80.7461 478.127 82.2341 482.491 83.6228 483.086C84.9124 483.682 86.7971 480.111 88.8802 479.515C90.9634 478.92 91.5586 483.582 94.0385 483.285C96.5184 482.888 97.6095 480.111 99.0975 480.111C100.585 480.111 105.446 479.515 106.339 478.226C107.232 476.936 108.918 473.762 108.918 473.762L101.776 473.365C101.776 473.365 96.816 468.306 95.328 464.438C93.8401 460.569 92.0545 452.832 92.0545 452.832C92.0545 452.832 98.8991 454.716 100.685 457.196C102.47 459.676 106.14 462.553 107.033 462.95C110.108 464.239 113.679 462.751 113.679 462.751C113.679 462.751 103.958 443.805 99.1967 439.837C94.4352 435.869 83.5236 435.472 82.9285 434.679C82.3333 433.885 80.8453 408.094 77.1751 396.686C73.5048 385.18 67.2554 361.174 67.2554 356.413C67.2554 351.651 66.0651 315.544 64.9739 308.104C63.8828 300.664 61.2045 279.337 61.2045 279.337C52.2768 277.849 39.1829 274.08 27.1801 268.128Z" fill="#FFBA85"/>
<path d="M81.7379 738.815C81.3411 734.252 88.5825 725.026 88.1857 719.372C87.7889 713.718 79.3572 710.246 71.0247 712.131C62.593 714.016 48.1104 717.091 48.1104 720.563C48.1104 724.034 53.7645 730.78 55.3517 735.442C56.1453 737.624 82.1347 743.378 81.7379 738.815Z" fill="#3FD18B"/>
<path d="M42.0596 768.177C42.0596 768.177 58.1294 778.097 68.4458 778.493C78.7622 778.89 95.9232 773.137 96.32 770.062C96.7168 766.987 82.2341 743.279 81.8373 738.716C81.4405 734.153 53.8639 730.581 55.4511 735.244C56.2447 737.525 45.9282 747.048 44.3411 753.595C42.8531 760.142 42.4564 767.483 42.0596 768.177Z" fill="#009245"/>
<path d="M213.967 735.74C213.967 735.74 210.098 720.463 210.098 718.975C210.098 717.487 235.294 701.814 238.369 705.187C241.444 708.659 228.846 730.78 228.449 733.855C228.053 736.831 213.967 735.74 213.967 735.74Z" fill="#3FD18B"/>
<path d="M252.157 737.029C256.72 736.236 271.6 740.997 276.262 746.75C280.825 752.504 283.503 758.952 283.503 760.142C283.503 761.332 278.147 767.78 259.399 768.177C240.65 768.574 239.956 767.383 239.956 767.383C239.956 767.383 240.254 756.075 243.23 750.321C246.305 744.667 252.157 737.029 252.157 737.029Z" fill="#3FD18B"/>
<path d="M191.449 729.193C191.449 729.193 193.334 737.228 196.409 738.716C199.484 740.203 212.082 735.64 212.082 735.64L227.358 735.244L252.157 737.525C252.157 737.525 242.238 750.52 241.841 755.083C241.444 759.646 239.956 767.284 239.956 767.284C239.956 767.284 222.498 771.748 204.543 768.276C186.589 764.804 179.942 757.662 179.942 757.662C179.942 757.662 183.414 743.576 185.299 739.707C187.184 736.136 191.449 729.193 191.449 729.193Z" fill="#009245"/>
<path d="M40.5713 768.97L40.9681 783.85C40.9681 783.85 59.3194 790 65.7672 790C72.2149 790 87.5904 786.925 92.1534 783.85C96.7164 780.775 97.51 778.096 97.51 778.096L96.3196 770.061C96.3196 770.061 83.7217 778.89 68.4455 778.493C53.1692 778.096 40.5713 768.97 40.5713 768.97Z" fill="#39B54A"/>
<path d="M179.843 757.464L178.851 772.343C178.851 772.343 199.881 779.584 229.243 778.791C258.605 777.997 278.94 774.922 281.618 773.434C284.297 771.946 283.503 760.043 283.503 760.043C283.503 760.043 269.417 769.07 225.473 767.582C181.529 766.193 179.843 757.464 179.843 757.464Z" fill="#39B54A"/>
<path d="M40.5716 768.97C40.5716 768.97 40.1749 752.504 65.7675 751.413C91.3602 750.321 96.32 770.161 96.32 770.161C96.32 770.161 82.2341 778.989 70.3306 778.989C58.427 778.989 40.5716 768.97 40.5716 768.97Z" fill="#3FD18B"/>
<path d="M236.981 735.442C236.981 735.442 231.426 734.748 225.672 740.798C222.399 744.27 220.117 750.321 220.117 750.321" stroke="#006837" stroke-width="2.8776" stroke-miterlimit="10" stroke-linecap="round" stroke-linejoin="bevel"/>
<path d="M246.404 736.335C246.404 736.335 240.651 736.93 235.592 740.402C231.425 743.378 229.342 750.718 229.342 750.718" stroke="#006837" stroke-width="2.8776" stroke-miterlimit="10" stroke-linecap="round" stroke-linejoin="bevel"/>
<path d="M57.3359 740.402C57.3359 740.402 60.907 738.914 65.966 738.319C71.025 737.823 78.1672 742.386 78.1672 742.386" stroke="#006837" stroke-width="2.8776" stroke-miterlimit="10" stroke-linecap="round" stroke-linejoin="bevel"/>
<path d="M56.8398 746.552C56.8398 746.552 63.6844 744.171 67.7514 744.171C71.8185 744.171 78.6631 748.139 78.6631 748.139" stroke="#006837" stroke-width="2.8776" stroke-miterlimit="10" stroke-linecap="round" stroke-linejoin="bevel"/>
<path d="M116.259 112.489C117.519 112.489 118.54 111.467 118.54 110.207C118.54 108.947 117.519 107.926 116.259 107.926C114.999 107.926 113.977 108.947 113.977 110.207C113.977 111.467 114.999 112.489 116.259 112.489Z" fill="white"/>
<path d="M163.972 109.116C165.232 109.116 166.253 108.095 166.253 106.835C166.253 105.575 165.232 104.553 163.972 104.553C162.712 104.553 161.69 105.575 161.69 106.835C161.69 108.095 162.712 109.116 163.972 109.116Z" fill="white"/>
<path d="M36.9009 242.634C42.9519 241.047 47.4157 238.964 50.6892 236.187C47.4157 238.964 42.9519 241.047 36.9009 242.634Z" fill="white"/>
<path d="M55.8477 217.935C56.0461 218.232 56.2444 218.53 56.4428 218.827C56.2444 218.53 56.0461 218.232 55.8477 217.935Z" fill="white"/>
<path d="M34.4209 243.229C35.3137 243.031 36.1072 242.833 36.9008 242.634C36.1072 242.833 35.3137 243.031 34.4209 243.229Z" fill="white"/>
<path d="M56.7402 219.422C56.9386 219.72 57.0378 220.117 57.2362 220.514C57.0378 220.117 56.9386 219.72 56.7402 219.422Z" fill="white"/>
<path d="M40.9683 225.275C40.9683 224.878 40.8691 224.481 40.8691 224.184C40.8691 224.58 40.9683 224.977 40.9683 225.275Z" fill="white"/>
<path d="M41.0675 226.267C41.0675 226.069 40.9683 225.771 40.9683 225.573C40.9683 225.771 41.0675 226.069 41.0675 226.267Z" fill="white"/>
<path d="M55.8477 245.313C56.4428 245.313 56.9388 245.313 57.534 245.313C56.9388 245.313 56.3436 245.213 55.8477 245.313Z" fill="white"/>
<path d="M39.7778 236.484C40.6706 238.27 41.861 240.155 43.3489 242.039C41.861 240.155 40.6706 238.369 39.7778 236.484Z" fill="white"/>
<path d="M48.0113 247.197C46.2257 245.412 44.7378 243.725 43.4482 242.039C44.6386 243.725 46.2257 245.412 48.0113 247.197Z" fill="white"/>
<path d="M47.5153 238.468C47.3169 238.27 47.0193 238.071 46.8209 237.873C46.5233 237.575 46.2257 237.278 45.9282 236.98C45.333 236.286 44.7378 235.69 44.2418 234.996C42.8531 235.492 41.1667 235.889 39.5796 236.186C39.6788 236.286 39.6788 236.484 39.778 236.583C40.4724 237.972 41.3651 239.46 42.4563 240.948C44.341 240.154 46.0274 239.361 47.5153 238.468Z" fill="white"/>
<path d="M55.3518 244.321C55.2526 244.221 55.0543 244.221 54.9551 244.122C54.2607 243.725 53.5663 243.329 52.8719 242.833C52.6735 242.733 52.4752 242.535 52.2768 242.436C51.2848 241.741 50.392 240.948 49.4001 240.154C47.8129 241.146 46.0274 242.039 44.0435 242.833C45.2338 244.321 46.7218 245.908 48.2097 247.396C48.1105 247.495 48.0113 247.495 47.8129 247.594C51.0864 246.205 54.2607 245.511 57.435 245.313C56.8398 245.114 56.0462 244.717 55.3518 244.321Z" fill="white"/>
<path d="M45.928 248.487C44.3408 246.9 42.9521 245.313 41.6625 243.726C39.7778 244.42 37.6947 244.916 35.4132 245.412L35.314 245.313C36.6035 247.594 37.6947 250.173 38.7858 253.348C41.3649 251.165 43.944 249.479 46.424 248.289C46.2256 248.289 46.0272 248.388 45.928 248.487Z" fill="white"/>
<path d="M36.9012 242.634C38.0916 242.336 39.0835 242.039 40.1747 241.642C38.9843 239.857 37.8932 238.17 37.0996 236.484C33.4293 236.98 29.7591 236.98 27.4775 236.484C30.4534 238.666 32.5366 240.849 34.2229 243.328V243.229C35.0165 243.13 36.1076 242.832 36.9012 242.634Z" fill="white"/>
<path d="M43.0514 228.846L43.2497 212.181C41.7618 211.982 40.373 211.883 39.0835 211.883L43.0514 228.846Z" fill="white"/>
<path d="M41.0674 220.811L42.9521 228.747L43.0513 216.744C42.0593 217.835 41.4642 219.224 41.0674 220.811Z" fill="white"/>
<path d="M42.3566 231.227C42.3566 231.128 41.5631 228.945 41.5631 228.846L41.4639 228.251C41.8607 229.838 42.3566 231.425 42.9518 232.715L42.3566 231.227Z" fill="white"/>
<path d="M28.3701 212.776C29.9573 221.406 30.5524 228.648 28.3701 234.302C30.354 234.699 33.1315 234.599 36.1074 234.203C34.4211 229.441 34.3219 224.779 35.8098 219.819C36.3058 218.034 37.1986 216.546 38.1906 215.256L37.397 211.784C34.5203 211.883 31.5444 212.181 28.3701 212.776Z" fill="white"/>
<path d="M41.4641 228.251L39.0833 218.331C38.885 218.728 38.6866 219.224 38.4882 219.72C38.389 220.017 38.2898 220.216 38.1906 220.513C37.893 221.406 37.6946 222.299 37.5954 223.192C37.0994 225.87 37.1986 228.548 37.7938 231.227C37.893 231.524 37.893 231.822 37.9922 232.119C38.1906 232.715 38.389 233.31 38.5874 233.905C40.1745 233.607 41.6624 233.31 42.952 232.814L42.8528 232.715C42.3568 231.425 41.8608 229.838 41.4641 228.251Z" fill="white"/>
<path d="M49.7965 213.371C48.0109 212.875 46.2254 212.479 44.6383 212.28L44.5391 231.326" fill="white"/>
<path d="M44.5391 231.425L44.7375 230.83C44.6383 230.731 44.6383 230.532 44.5391 230.433V231.425Z" fill="white"/>
<path d="M56.0458 215.752C54.3594 214.958 52.7723 214.363 51.1851 213.867L45.9277 231.822L56.0458 215.752Z" fill="white"/>
<path d="M54.8554 217.041C54.9546 217.141 55.0538 217.24 55.0538 217.24L55.2522 216.843L54.2603 216.545C54.5578 216.744 54.7562 216.843 54.8554 217.041Z" fill="white"/>
<path d="M61.1052 218.331C59.9148 217.637 58.6253 216.942 57.4349 216.347L48.6064 230.334L61.1052 218.331Z" fill="white"/>
<path d="M49.003 231.822C48.1102 232.615 47.2175 233.309 46.3247 233.805C47.2175 234.897 48.3086 235.988 49.499 237.079C49.8958 236.781 50.2926 236.484 50.6893 236.186C53.9628 233.409 55.9468 230.036 57.1371 226.068C57.2363 225.771 57.3355 225.473 57.3355 225.275C57.4347 224.779 57.5339 224.283 57.5339 223.787L49.5982 231.425C49.5982 231.425 49.3006 231.623 49.003 231.822Z" fill="white"/>
<path d="M69.6359 224.878C67.2552 222.696 64.7753 220.811 62.2954 219.125L59.8155 221.505C60.0139 223.092 59.9147 224.878 59.4187 226.663C57.9308 231.623 55.3516 235.591 51.3838 238.666C53.6653 240.551 56.046 242.138 57.9308 242.932C59.4187 236.484 63.3865 230.532 69.6359 224.878Z" fill="white"/>
<path d="M54.955 220.315L48.6064 230.334L54.5582 224.68C55.0542 223.192 55.2526 221.704 54.955 220.315Z" fill="white"/>
<path d="M49.2015 231.722C47.5152 233.21 45.6305 234.401 44.2417 234.897C38.9843 236.682 31.3462 237.377 27.4775 236.484C30.0566 237.773 32.239 240.253 34.4213 243.229C35.3141 243.031 36.1076 242.832 36.9012 242.634C42.9522 241.047 47.416 238.964 50.6895 236.186C53.963 233.409 55.9469 230.036 57.1373 226.068C57.2364 225.771 57.3356 225.473 57.3356 225.275C57.4348 224.779 57.534 224.283 57.534 223.787L49.5983 231.425C49.5983 231.425 49.3999 231.524 49.2015 231.722Z" fill="white"/>
</g>
<defs>
<clipPath id="clip0">
<rect width="283.602" height="790" fill="white"/>
</clipPath>
</defs>
</svg>
