<?xml version="1.0" encoding="utf-8"?>
<!-- Generator: Adobe Illustrator 22.0.1, SVG Export Plug-In . SVG Version: 6.00 Build 0)  -->
<svg version="1.1" id="Layer_1" xmlns="http://www.w3.org/2000/svg" xmlns:xlink="http://www.w3.org/1999/xlink" x="0px" y="0px"
	 viewBox="0 0 285.9 796.4" style="enable-background:new 0 0 285.9 796.4;" xml:space="preserve">
<style type="text/css">
	.st0{fill:#089685;}
	.st1{fill:#00A99D;}
	.st2{fill:#D88D71;}
	.st3{fill:#EF9D78;}
	.st4{fill:#FFBA85;}
	.st5{fill:#91AF61;}
	.st6{fill:#218955;}
	.st7{fill:#25995F;}
	.st8{fill:#680100;}
	.st9{fill:#006837;}
	.st10{fill:#BDCCD4;stroke:#006837;stroke-width:4.005;stroke-miterlimit:10;}
	.st11{fill:none;stroke:#680100;stroke-width:3.0808;stroke-linecap:round;stroke-linejoin:round;stroke-miterlimit:10;}
	.st12{fill:#680100;stroke:#680100;stroke-width:3.0808;stroke-linecap:round;stroke-linejoin:round;stroke-miterlimit:10;}
	.st13{stroke:#680100;stroke-width:3.177;stroke-linecap:round;stroke-linejoin:round;stroke-miterlimit:10;}
	.st14{stroke:#680100;stroke-width:2.9363;stroke-linecap:round;stroke-linejoin:round;stroke-miterlimit:10;}
	.st15{fill:#36D88B;}
	.st16{fill:none;stroke:#006837;stroke-width:3.0808;stroke-linecap:round;stroke-linejoin:round;stroke-miterlimit:10;}
	.st17{fill:none;stroke:#30B271;stroke-width:3.0808;stroke-linecap:round;stroke-linejoin:round;stroke-miterlimit:10;}
	.st18{fill:#B2E561;}
	.st19{fill:#F2F2F2;}
	.st20{fill:#9BC622;}
	.st21{fill:#05C6B3;}
	.st22{fill:#029385;}
	.st23{fill:#E6E6E6;}
	.st24{fill:#B9DD22;}
	.st25{fill:#7BA33B;}
	.st26{fill:#CCCCCC;}
	.st27{fill:#39B54A;}
	.st28{fill:#009245;}
	.st29{fill:#D9E021;}
	.st30{fill:#BFBF1B;}
	.st31{fill:#3FD18B;}
	.st32{fill:none;stroke:#006837;stroke-width:2.8776;stroke-linecap:round;stroke-linejoin:bevel;stroke-miterlimit:10;}
	.st33{fill:#FFFFFF;}
</style>
<g>
	<g>
		<path class="st0" d="M46,375.5c0,0-26.2-3.3-31.3-12.3S0.8,311.5,0,256.3s12.1-83.2,15.7-87.5c3.6-4.4,38.8,11,38.8,11L46,375.5z"
			/>
		<path class="st1" d="M45,185.3l-31.3-10.5l-7.5,17.6l-1.7-26.6c0,0,15.6-9.2,42.6-9.2s89.3,14.5,93.4,15.9
			c8.2,2.8,17.2,8.5,18.7,12.8c1.5,4.4,1.8,11.6,1.8,11.6l-95.5-5.6L45,185.3z"/>
		<path class="st2" d="M104.5,158.3c0.3,4.4-1.8,20-1.8,20l23.2,22.5l10.1-11.2l3.6-9.5l-4.6-14.4L104.5,158.3z"/>
		<path class="st3" d="M87.2,63c0,0,86.6,0.4,88.2,2.7c1.5,2.3,6.7,10.9,8.1,19.3c1.7,10.8,2.6,35.3-7.4,54.6s-21.1,23.2-29.5,25.5
			c-8.5,2.3-23.9,2.7-35-2.3S88,148.1,81,133.5c0,0-18.5-5.4-20-14.6c-1.5-9.2,2.3-13.9,7.3-14.2c5-0.4,10.8,5,10.8,5l-3.5-28.9
			L87.2,63z"/>
		<path class="st4" d="M137.9,82.2c-26.4,2.9-46,6.2-49.9,12.3s-4.2,30,4.6,42.2c8.9,12.1,24.4,22.8,38.3,25.8
			c13.9,3,23.9-0.6,29-3.7c5.1-3.1,13.3-11,18-23c5.5-14.2,7.3-28.1,7.2-39.1c-0.1-4.4-0.6-8.8-1.1-11.9
			C181.4,84,162.4,79.5,137.9,82.2z"/>
		<path class="st5" d="M91.1,66.8c0.6,0.8,6.5,14.8,41.2,13.3c34.7-1.5,47-12.1,52.6-21c5.6-8.9,3.3-32.2,0-40.6
			C181.6,10,168.3,0,168.3,0s2.1,7.1,1.2,12.9c-1,5.8-2.1,6.7-2.1,6.7s-3.5-9.8-6.5-11.2c-3.1-1.3-9.4,11.9-11.7,13.5s0.6-7.1-1-6.9
			c-1.5,0.2-5.2,6.7-6.7,7.1c-1.5,0.4-9.4,0-9.4,0l-36.2,27L91.1,66.8z"/>
		<path class="st6" d="M60.7,78.2c0,0-5.4-4.6-8.1-10.4s-2.1-11.2-3.5-10.2c-1.3,1-3.3,1-5.2-2.5C42,51.6,40.7,35.4,41,33.9
			c0.4-1.5,5.6-11.2,12.3-13.7c6.7-2.5,13.9-5.4,21.2-6c7.3-0.6,13.1-0.6,15.6-1.5c2.5-1,5.6-1.3,5.6-1.3l3.9,2.9L81.3,42.6
			L65.1,70.9L60.7,78.2z"/>
		<path class="st7" d="M79.7,105.9c0,0,3.9-31.2,21.4-53.9C118.6,29.3,141,23.9,141,23.9s-4.4-7.5-11.4-9.8S118.1,16,118.1,16
			s-12.7-3.1-18.5-1.7c-5.8,1.3-20,2.1-31.2,20s-10.2,55.6-9.8,57.6c0.4,1.9,7.1,11,10,11.7C71.5,104.4,79.7,105.9,79.7,105.9z"/>
		<path class="st8" d="M98,92.4l2.1,4.7c0,0,7.8-2.6,10.9-3.6c3.1-1,9.5-1.5,9.5-1.5l-3.7-5.5c0,0-5.3,0-11,1.9
			C102.4,89.6,98,92.4,98,92.4z"/>
		<path class="st8" d="M154.7,84.2l0.3,6.9c0,0,8-0.9,11.9-0.6s6.8,1,6.8,1s2.3-3.9,2.3-4.4s-5.8-2.4-10.7-3.1
			C161.4,83.6,154.7,84.2,154.7,84.2z"/>
		<path class="st9" d="M138,106.3c0,0,4.4-2.6,7.1-2.4s5.9,1.5,5.9,1.5l-0.6,4.5c0,0-2.7-2.2-5-1.9s-5.3,2.4-5.3,2.4L138,106.3z"/>
		<path class="st9" d="M79.6,102.4c0,0,4.7-0.3,9,0.9c4.2,1.2,8.6,3.7,8.6,3.7l-0.6,5.4c0,0-6-2.6-9.6-3.5c-3.6-0.9-7.6-1.3-7.6-1.3
			l-0.3-5.1L79.6,102.4z"/>
		<path class="st9" d="M187.1,99c5-1.3,5.8-1,5.8-1l0.1,5.1l-4,1.7L187.1,99z"/>
		<path class="st10" d="M187.4,108.3c0-11.9-2.2-13-14.1-12.8c-15.7,0.3-22.3,5-22.8,15.4c-0.6,11.9,9,16.3,20.9,16.3
			S187.4,120.3,187.4,108.3z"/>
		<path class="st10" d="M96.9,113.5c0-11.9,8.2-14.7,20.2-14.5c15.7,0.3,22.3,3.2,22.3,15.1s-8.6,19.3-20.5,19.3
			S96.9,125.4,96.9,113.5z"/>
		<path class="st11" d="M146.8,110.1c0,3.1-0.2,6.7,1.2,8.5c1.3,1.7,4.2,2.5,5.4,5c1.2,2.5,0.8,6.4-0.8,8.3
			c-1.5,1.9-6.7,3.5-9.2,2.7"/>
		<path class="st11" d="M133.3,145.2c0,0,3.9,4.4,10.2,3.9c6.4-0.6,8.3-4.2,8.3-4.2"/>
		<path class="st11" d="M107.6,106.8c0,0,4.7-1.1,11.1-0.1c6.4,1,7.5,3.2,7.5,3.2"/>
		<path class="st12" d="M162.9,107.3c0,0,2.9-3.4,8.5-3.8c2.9-0.2,5.4,0.1,5.4,0.1"/>
		<circle class="st13" cx="120.6" cy="113.5" r="6.4"/>
		<circle class="st14" cx="167.8" cy="110.2" r="5.9"/>
		<path class="st4" d="M60.1,533.4c-1.5,9.2-3.1,18.9-5.8,23.1c-2.7,4.2-6.2,13.5-6.5,21.2c-0.4,7.7,5,123.2,10,147.1
			c5,23.9,14.6,21.2,14.6,21.2s7.7-18.1,8.9-23.1s1.2-22.7,6.2-47.8s17.3-79.3,17.3-92.4s-3.9-24.6-2.7-31.2
			c1.2-6.5,1.2-14.2,1.2-14.2L60.1,533.4z"/>
		<path class="st4" d="M148.7,532.2c-1.5,7.3-6.9,30.8-7.3,45.4c-0.4,14.6,5,39.7,13.1,58.9c8.1,19.3,34.3,68.2,36.6,81.6
			c2.3,13.5,2.3,32.3,2.3,32.3l18.5,6.9l11.2-15c0,0-6.9-23.9-10.4-42s-13.5-68.9-15.8-93.2c-1.4-14.2-0.8-32.3-1.9-40.8
			c-1.2-8.5-3.1-15.4-3.5-21.6c-0.4-6.2-0.4-22.7-0.4-22.7L148.7,532.2z"/>
		<path class="st7" d="M185.8,430.7c0,0,4.8,57.2,6,66c1.2,8.9,3.1,29.7,3.1,29.7s-6.5,6.5-25.8,10c-19.3,3.5-32,3.9-32.7,1.9
			s-16.2-59.7-16.2-59.7l1.9-10.4L108.2,543c0,0-24.3-0.8-34.3-3.5c-10-2.7-25.4-8.9-27.3-13.9c-1.9-5,4.2-59.3,4.2-66.6
			c0-7.3,0.8-31.6,0.8-31.6L185.8,430.7z"/>
		<path class="st15" d="M36.7,333.1c0,0,5.6,85.9,6.8,90.1c1.2,4.2,1.5,8.1,7.7,6.9s22.3,1.5,22.3,1.5l-18.5-60.8L36.7,333.1z"/>
		<line class="st16" x1="126.1" y1="473.3" x2="144.6" y2="539"/>
		<path class="st4" d="M180.3,266.4c0,0,5.6,13.9,8.2,30.6c2.6,16.7,2.6,26.2,3.9,32.3c1.3,6.2,6.2,34.1,5.9,44.7
			c-0.3,10.5-2.3,54.9-2.3,54.9l-15.1-11l-13.3-91.4l-1.5-18l-1.8-36.2L180.3,266.4z"/>
		<path class="st15" d="M98.1,171.6l25.4,16.4l2.6,9.5l2.6-8.5c0,0,3.1-4.4,5.4-6.2c2.3-1.8,7.2-3.3,7.2-3.3s2.6,3.9,4.1,6.2
			c1.5,2.3,6.4,5.6,6.4,5.6s18.2,4.6,20.3,6.7s6.4,29,7.7,33.9c1.3,4.9,12.6,32.1,12.6,32.1l-28.2,10.3l3.1,44.2l13.5,103.4
			l-83.6,10.6l-27-10.4l-8.2-140.3c0,0-17.5-3.1-25.9-7.2S14.4,263,13.1,259.2c-1.3-3.9,6.9-31.6,11.8-42.9s18.7-31.6,22.1-34.1
			c3.3-2.6,24.9-3.6,31.6-2.3c6.7,1.3,10.3,1.3,10.3,1.3L98.1,171.6z"/>
		<path class="st17" d="M121.7,189.9c0,0-1.7,2.1-3.8,4.9c-3.1,4.1-7,9.9-7.8,13.1c0,0-2.8-6.7-10.8-14.9
			c-8-8.2-10.5-11.8-10.5-11.8"/>
		<line class="st17" x1="126.1" y1="197.6" x2="117.9" y2="194.7"/>
		<path class="st17" d="M128.7,190.4c0,0,7.7,6.4,9.5,11c1.8,4.6,2.8,6.4,2.8,6.4l9.5-15.9"/>
		<path class="st17" d="M125.6,199.4c0,0-7.2,26.2-6.7,60.8c0.5,34.7,2.3,60.6,2.3,60.6"/>
		<path class="st17" d="M128.1,246.8c0,0,15.1,1,19.5,0.8c4.4-0.3,6.4-1,6.4-1"/>
		<path class="st17" d="M127.9,247.9l2.1,34.1c0,0,12.1,2.6,16.4,2.1c4.4-0.5,12.8-6.4,12.8-6.4l-2.1-28.8"/>
		<path class="st17" d="M129.2,257.4c0,0,8.5,1.5,12.1,1.5c3.6,0,15.1-1.5,15.1-1.5"/>
		<path class="st17" d="M110.1,235.8c-3.3,1.3-1.3,3.5-1.3,3.5"/>
		<path class="st17" d="M108.6,268.3c-3.3,1.3-1.3,3.5-1.3,3.5"/>
		<path class="st17" d="M108.1,302.1c-3.3,1.3-1.3,3.5-1.3,3.5"/>
		<path class="st0" d="M63.6,176.4l-1.3,2.9c0,0,14.7,18.1,14.2,36.4c-0.6,24-14.6,68.9-14.6,68.9l1.3,12.8c0,0,21.1-37.5,26.1-63.8
			c4.8-25.4,2.3-36.2,0.6-43.1c-1.7-6.9-6.4-12.1-6.4-12.1L63.6,176.4z"/>
		<path class="st0" d="M167.4,193.7c0,0,0.3,1.1-0.1,2.1c-1.8,4.7-7.3,18.5-7,29.1c0.4,12.9,6,44.9,6,44.9l-0.4,13.7
			c0,0-16-37.7-16.9-53.9c-1-16.2,4.6-37,5-40.4L167.4,193.7z"/>
		<g>
			<polygon class="st18" points="87.2,452.2 86.9,454.6 120.6,456.9 200.6,437 171.6,437.9 			"/>
			<path class="st19" d="M89.6,455.1c0,0,2.2,5.3,2.2,11c0,5.7-1.6,9.5-1.6,9.5l34.6,1.2l4.1-12.3l-6.8-8.1L89.6,455.1z"/>
			<path class="st20" d="M89.3,474.4l32.6,1.7c0,0,1-2.4,1.4-8.8s-2.9-12-2.9-12l80-18.2c0,0,3.5,3.9,3.8,11.3
				c0.3,7.4-4.2,10.3-4.2,10.3l-77.7,20.1l-33.5-2.6L89.3,474.4z"/>
		</g>
		<g>
			<path class="st19" d="M87.1,429.3c0,0,2.1,4.8,1.7,9.8c-0.4,5-2.6,8.2-2.6,8.2l46.6,5.5l3.5-13.2l-2.8-6.6L87.1,429.3z"/>
			<path class="st21" d="M131.6,435c-1.8-0.1-49.1-5-49.1-5l0.1-2.1l74.9-10.7l37.2,2.5L131.6,435z"/>
			<path class="st22" d="M85.3,446.1l45.8,5.5c0,0,2.6-2.3,2.8-7.3c0.2-5-4-9.6-4-9.6l64.7-14.9c0,0,4.5,4.3,4.1,8.1
				s-4.9,7.2-4.9,7.2l-63.4,19.3l-45.5-6L85.3,446.1z"/>
		</g>
		<g>
			<path class="st23" d="M83,413.2c0,0,1.7,4,1.5,6.9c-0.2,2.9-1.7,6-1.7,6l45.4,1l6.2-5.4l-2.7-7.9l-9.8-1.5L83,413.2z"/>
			<polygon class="st24" points="125.4,414.6 80,414.4 80.3,412.1 148,404.9 187.1,403.4 			"/>
			<path class="st25" d="M187.1,403.6c0,0,3.2,3.8,3.7,6.9c0.5,3.1-2.1,6.6-2.1,6.6L130,428.4l-48.8-0.5v-2.8l46.5,1
				c0,0,3.1-3.1,1.5-7.2c-1.2-3.1-3.6-4.6-3.6-4.6L187.1,403.6z"/>
		</g>
		<g>
			<path class="st26" d="M85.5,384.7c0,0,3.3,6.4,3.1,11.8c-0.3,5.4-2.1,10.5-2.1,10.5l28.8,4.4l8-1.5l-1.3-19.5l-4.4-6.2
				L85.5,384.7z"/>
			<path class="st27" d="M116.1,387c0,0,2.8,3.6,3.1,9c0.3,5.4-3.1,14.4-3.1,14.4L85,406v3.6l32.3,4.1l66.7-13.9
				c0,0,5.2-9.6,2.1-18.5c-2.2-6.3-8-10.3-8-10.3L116.1,387z"/>
		</g>
		<g>
			<path class="st23" d="M79.6,367.3c0,0,2.3,4.1,2.1,8.5c-0.3,4.4-2.3,7.2-2.3,7.2l46.7,3.3l3.1-11.6l-3.1-5.6L79.6,367.3z"/>
			<path class="st21" d="M124.3,370.9c-1.8,0-49.3-2.7-49.3-2.7l0-1.8l74.4-11.7l37.2,1L124.3,370.9z"/>
			<path class="st22" d="M78.4,382l46,3.3c0,0,2.6-2.1,2.6-6.4c0-4.4-4.4-8.2-4.4-8.2l64.2-15c0,0,4.6,3.6,4.4,6.9
				c-0.3,3.3-4.6,6.4-4.6,6.4l-62.6,18.8L78.1,384L78.4,382z"/>
		</g>
		<g>
			<polygon class="st28" points="67.3,344.1 66.8,345.9 105.8,348.8 199.5,336.2 165.9,335.9 			"/>
			<path class="st26" d="M69.9,346.5c0,0,2.3,4.1,2.1,8.5c-0.3,4.4-2.3,7.2-2.3,7.2l40,2.1l5.4-9.2l-7.4-6.4L69.9,346.5z"/>
			<path class="st9" d="M68.6,361.1l37.7,2.3c0,0,1.3-1.8,2.1-6.7c0.8-4.9-2.8-9.2-2.8-9.2l93.7-11.3c0,0,3.9,3.1,3.9,8.7
				c0,5.6-5.4,7.7-5.4,7.7l-91.1,12.8l-38.8-3.1L68.6,361.1z"/>
		</g>
		<g>
			<polygon class="st29" points="68.1,322.6 68.8,325.1 105.5,328.2 185.1,317.7 151.5,317.4 			"/>
			<path class="st19" d="M68.8,325.1c0,0,2.3,4.1,2.1,8.5s-2.3,8.2-2.3,8.2l39.3,3.3l6.2-11.6l-8.5-5.4L68.8,325.1z"/>
			<path class="st30" d="M68.6,341.8l37.7,2.3c0,0,1.3-1.8,2.1-6.7c0.8-4.9-2.8-9.2-2.8-9.2l79.6-10.5c0,0,3.9,3.1,3.9,8.7
				c0,5.6-5.4,7.7-5.4,7.7l-77,12.1l-38.8-3.1L68.6,341.8z"/>
		</g>
		<path class="st4" d="M27.4,270.3c0,0-1.1,28.6,4.8,52.2s9.5,31.1,10.3,34.7s5.6,38,11.3,51.6s17.2,36.5,17.5,38.3
			c0.3,1.8-0.4,12.9-0.3,16c0.2,3.1,3.3,17.7,4.4,19.8c1.2,2.1,6-0.9,6-0.9s1.5,4.4,2.9,5c1.3,0.6,3.2-3,5.3-3.6
			c2.1-0.6,2.7,4.1,5.2,3.8c2.5-0.4,3.6-3.2,5.1-3.2c1.5,0,6.4-0.6,7.3-1.9s2.6-4.5,2.6-4.5l-7.2-0.4c0,0-5-5.1-6.5-9
			c-1.5-3.9-3.3-11.7-3.3-11.7s6.9,1.9,8.7,4.4s5.5,5.4,6.4,5.8c3.1,1.3,6.7-0.2,6.7-0.2s-9.8-19.1-14.6-23.1
			c-4.8-4-15.8-4.4-16.4-5.2c-0.6-0.8-2.1-26.8-5.8-38.3c-3.7-11.6-10-35.8-10-40.6c0-4.8-1.2-41.2-2.3-48.7s-3.8-29-3.8-29
			C52.7,280.1,39.5,276.3,27.4,270.3z"/>
		<path class="st31" d="M82.4,744.8c-0.4-4.6,6.9-13.9,6.5-19.6s-8.9-9.2-17.3-7.3c-8.5,1.9-23.1,5-23.1,8.5c0,3.5,5.7,10.3,7.3,15
			C56.6,743.6,82.8,749.4,82.4,744.8z"/>
		<path class="st28" d="M42.4,774.4c0,0,16.2,10,26.6,10.4c10.4,0.4,27.7-5.4,28.1-8.5s-14.2-27-14.6-31.6
			c-0.4-4.6-28.2-8.2-26.6-3.5c0.8,2.3-9.6,11.9-11.2,18.5C43.2,766.3,42.8,773.7,42.4,774.4z"/>
		<path class="st31" d="M215.7,741.7c0,0-3.9-15.4-3.9-16.9c0-1.5,25.4-17.3,28.5-13.9c3.1,3.5-9.6,25.8-10,28.9
			C229.9,742.8,215.7,741.7,215.7,741.7z"/>
		<path class="st31" d="M254.2,743c4.6-0.8,19.6,4,24.3,9.8c4.6,5.8,7.3,12.3,7.3,13.5s-5.4,7.7-24.3,8.1
			c-18.9,0.4-19.6-0.8-19.6-0.8s0.3-11.4,3.3-17.2C248.3,750.7,254.2,743,254.2,743z"/>
		<path class="st28" d="M193,735.1c0,0,1.9,8.1,5,9.6c3.1,1.5,15.8-3.1,15.8-3.1l15.4-0.4l25,2.3c0,0-10,13.1-10.4,17.7
			c-0.4,4.6-1.9,12.3-1.9,12.3s-17.6,4.5-35.7,1c-18.1-3.5-24.8-10.7-24.8-10.7s3.5-14.2,5.4-18.1C188.7,742.1,193,735.1,193,735.1z
			"/>
		<path class="st27" d="M40.9,775.2l0.4,15c0,0,18.5,6.2,25,6.2s22-3.1,26.6-6.2s5.4-5.8,5.4-5.8l-1.2-8.1c0,0-12.7,8.9-28.1,8.5
			C53.6,784.4,40.9,775.2,40.9,775.2z"/>
		<path class="st27" d="M181.3,763.6l-1,15c0,0,21.2,7.3,50.8,6.5s50.1-3.9,52.8-5.4c2.7-1.5,1.9-13.5,1.9-13.5s-14.2,9.1-58.5,7.6
			C183,772.4,181.3,763.6,181.3,763.6z"/>
		<path class="st31" d="M40.9,775.2c0,0-0.4-16.6,25.4-17.7s30.8,18.9,30.8,18.9s-14.2,8.9-26.2,8.9S40.9,775.2,40.9,775.2z"/>
		<path class="st16" d="M128.1,466.6"/>
		<path class="st16" d="M120.2,478.7"/>
		<path class="st4" d="M68.6,338.2"/>
		<path class="st32" d="M238.9,741.4c0,0-5.6-0.7-11.4,5.4c-3.3,3.5-5.6,9.6-5.6,9.6"/>
		<path class="st32" d="M248.4,742.3c0,0-5.8,0.6-10.9,4.1c-4.2,3-6.3,10.4-6.3,10.4"/>
		<path class="st32" d="M57.8,746.4c0,0,3.6-1.5,8.7-2.1c5.1-0.5,12.3,4.1,12.3,4.1"/>
		<path class="st32" d="M57.3,752.6c0,0,6.9-2.4,11-2.4s11,4,11,4"/>
		<circle class="st33" cx="117.2" cy="111.1" r="2.3"/>
		<circle class="st33" cx="165.3" cy="107.7" r="2.3"/>
		<g>
			<g>
				<path class="st33" d="M37.2,244.6c6.1-1.6,10.6-3.7,13.9-6.5C47.8,240.9,43.3,243,37.2,244.6z"/>
				<path class="st33" d="M56.3,219.7c0.2,0.3,0.4,0.6,0.6,0.9C56.7,220.3,56.5,220,56.3,219.7z"/>
				<polygon class="st33" points="27.7,238.4 27.7,238.4 27.7,238.4 				"/>
				<path class="st33" d="M34.7,245.2C34.7,245.2,34.7,245.2,34.7,245.2c0.9-0.2,1.7-0.4,2.5-0.6C36.4,244.8,35.6,245,34.7,245.2
					C34.7,245.2,34.7,245.2,34.7,245.2z"/>
				<path class="st33" d="M57.2,221.2c0.2,0.3,0.3,0.7,0.5,1.1C57.5,221.9,57.4,221.5,57.2,221.2z"/>
			</g>
			<g>
				<path class="st33" d="M41.3,227.1c0-0.4-0.1-0.8-0.1-1.1C41.2,226.4,41.3,226.8,41.3,227.1z"/>
				<path class="st33" d="M41.2,225.2c0-0.3,0-0.5,0-0.8C41.2,224.6,41.2,224.9,41.2,225.2z"/>
				<path class="st33" d="M41.4,228.1c0-0.2-0.1-0.5-0.1-0.7C41.3,227.6,41.4,227.9,41.4,228.1z"/>
				<path class="st33" d="M56.3,247.3c0.6,0,1.1,0,1.7,0c0,0,0,0,0,0C57.4,247.3,56.8,247.2,56.3,247.3z"/>
				<path class="st33" d="M40.1,238.4c0.9,1.8,2.1,3.7,3.6,5.6C42.2,242.1,41,240.3,40.1,238.4z"/>
				<path class="st33" d="M48.4,249.2C48.4,249.2,48.4,249.2,48.4,249.2c-1.8-1.8-3.3-3.5-4.6-5.2C45,245.7,46.6,247.4,48.4,249.2z"
					/>
				<path class="st33" d="M56.1,247.3c0.1,0,0.1,0,0.2,0C56.2,247.3,56.1,247.3,56.1,247.3z"/>
				<g>
					<path class="st33" d="M47.9,240.4c-0.2-0.2-0.5-0.4-0.7-0.6c-0.3-0.3-0.6-0.6-0.9-0.9c-0.6-0.7-1.2-1.3-1.7-2
						c-1.4,0.5-3.1,0.9-4.7,1.2c0.1,0.1,0.1,0.3,0.2,0.4c0.7,1.4,1.6,2.9,2.7,4.4C44.7,242.1,46.4,241.3,47.9,240.4z"/>
					<path class="st33" d="M55.8,246.3c-0.1-0.1-0.3-0.1-0.4-0.2c-0.7-0.4-1.4-0.8-2.1-1.3c-0.2-0.1-0.4-0.3-0.6-0.4
						c-1-0.7-1.9-1.5-2.9-2.3c-1.6,1-3.4,1.9-5.4,2.7c1.2,1.5,2.7,3.1,4.2,4.6c-0.1,0.1-0.2,0.1-0.4,0.2c3.3-1.4,6.5-2.1,9.7-2.3
						l0,0C57.3,247.1,56.5,246.7,55.8,246.3z"/>
					<path class="st33" d="M46.3,250.5c-1.6-1.6-3-3.2-4.3-4.8c-1.9,0.7-4,1.2-6.3,1.7l-0.1-0.1c1.3,2.3,2.4,4.9,3.5,8.1
						c2.6-2.2,5.2-3.9,7.7-5.1C46.6,250.3,46.4,250.4,46.3,250.5z"/>
					<path class="st33" d="M37.2,244.6c1.2-0.3,2.2-0.6,3.3-1c-1.2-1.8-2.3-3.5-3.1-5.2c-3.7,0.5-7.4,0.5-9.7,0l0,0
						c3,2.2,5.1,4.4,6.8,6.9l0-0.1C35.3,245.1,36.4,244.8,37.2,244.6z"/>
				</g>
				<path class="st33" d="M56.1,247.3"/>
			</g>
			<g>
				<path class="st33" d="M43.4,230.7l0.2-16.8c-1.5-0.2-2.9-0.3-4.2-0.3L43.4,230.7z"/>
				<g>
					<path class="st33" d="M41.4,222.6l1.9,8l0.1-12.1C42.4,219.6,41.8,221,41.4,222.6z"/>
					<path class="st33" d="M42.7,233.1c0-0.1-0.8-2.3-0.8-2.4l-0.1-0.6c0.4,1.6,0.9,3.2,1.5,4.5L42.7,233.1z"/>
					<path class="st33" d="M28.6,214.5c1.6,8.7,2.2,16,0,21.7c2,0.4,4.8,0.3,7.8-0.1c-1.7-4.8-1.8-9.5-0.3-14.5
						c0.5-1.8,1.4-3.3,2.4-4.6l-0.8-3.5C34.8,213.6,31.8,213.9,28.6,214.5z"/>
					<path class="st33" d="M41.8,230.1l-2.4-10c-0.2,0.4-0.4,0.9-0.6,1.4c-0.1,0.3-0.2,0.5-0.3,0.8c-0.3,0.9-0.5,1.8-0.6,2.7
						c-0.5,2.7-0.4,5.4,0.2,8.1c0.1,0.3,0.1,0.6,0.2,0.9c0.2,0.6,0.4,1.2,0.6,1.8c1.6-0.3,3.1-0.6,4.4-1.1l-0.1-0.1
						C42.7,233.3,42.2,231.7,41.8,230.1z"/>
				</g>
			</g>
			<g>
				<path class="st33" d="M50.2,215.1c-1.8-0.5-3.6-0.9-5.2-1.1l-0.1,19.2"/>
				<g>
					<path class="st33" d="M44.9,233.3l0.2-0.6c-0.1-0.1-0.1-0.3-0.2-0.4L44.9,233.3z"/>
					<path class="st33" d="M48.9,219.5"/>
				</g>
			</g>
			<g>
				<path class="st33" d="M56.5,217.5c-1.7-0.8-3.3-1.4-4.9-1.9l-5.3,18.1L56.5,217.5z"/>
				<path class="st33" d="M55.3,218.8c0.1,0.1,0.2,0.2,0.2,0.2l0.2-0.4l-1-0.3C55,218.5,55.2,218.6,55.3,218.8z"/>
			</g>
			<g>
				<path class="st33" d="M61.6,220.1c-1.2-0.7-2.5-1.4-3.7-2L49,232.2L61.6,220.1z"/>
				<g>
					<path class="st33" d="M49.4,233.7c-0.9,0.8-1.8,1.5-2.7,2c0.9,1.1,2,2.2,3.2,3.3c0.4-0.3,0.8-0.6,1.2-0.9
						c3.3-2.8,5.3-6.2,6.5-10.2c0.1-0.3,0.2-0.6,0.2-0.8c0.1-0.5,0.2-1,0.2-1.5l-8,7.7C50,233.3,49.7,233.5,49.4,233.7z"/>
					<path class="st33" d="M70.2,226.7c-2.4-2.2-4.9-4.1-7.4-5.8l-2.5,2.4c0.2,1.6,0.1,3.4-0.4,5.2c-1.5,5-4.1,9-8.1,12.1
						c2.3,1.9,4.7,3.5,6.6,4.3C59.9,238.4,63.9,232.4,70.2,226.7z"/>
					<g>
						<path class="st33" d="M55.4,222.1L49,232.2l6-5.7l0,0C55.5,225,55.7,223.5,55.4,222.1z"/>
						<path class="st33" d="M49.6,233.6c-1.7,1.5-3.6,2.7-5,3.2c-5.3,1.8-13,2.5-16.9,1.6c0,0,0,0,0,0c2.6,1.3,4.8,3.8,7,6.8
							c0,0,0,0,0,0c0.9-0.2,1.7-0.4,2.5-0.6c6.1-1.6,10.6-3.7,13.9-6.5c3.3-2.8,5.3-6.2,6.5-10.2c0.1-0.3,0.2-0.6,0.2-0.8
							c0.1-0.5,0.2-1,0.2-1.5l-8,7.7C50,233.3,49.8,233.4,49.6,233.6z"/>
					</g>
				</g>
			</g>
		</g>
	</g>
</g>
</svg>
