<?xml version="1.0" encoding="utf-8"?>
<!-- Generator: Adobe Illustrator 22.0.1, SVG Export Plug-In . SVG Version: 6.00 Build 0)  -->
<svg version="1.1" id="Layer_1" xmlns="http://www.w3.org/2000/svg" xmlns:xlink="http://www.w3.org/1999/xlink" x="0px" y="0px"
	 viewBox="0 0 60.3 60.3" style="enable-background:new 0 0 60.3 60.3;" xml:space="preserve">
<style type="text/css">
	.st0{fill:#FF1B4A;}
	.st1{fill:#FFFFFF;}
</style>
<g>
	<path class="st0" d="M60.3,30.1c0,16.6-13.5,30.1-30.1,30.1C13.5,60.3,0,46.8,0,30.1C0,13.5,13.5,0,30.1,0
		C46.8,0,60.3,13.5,60.3,30.1z"/>
	<g>
		<path class="st1" d="M48,15.6c-1.5,0.9-3.1,1.5-4.9,1.8c-1.4-1.5-3.4-2.4-5.6-2.4c-4.3,0-7.7,3.4-7.7,7.6c0,0.6,0.1,1.2,0.2,1.7
			c-6.4-0.3-12.1-3.3-15.9-8c-0.7,1.1-1,2.4-1,3.8c0,2.6,1.4,5,3.4,6.3c-1.3,0-2.5-0.4-3.5-1c0,0,0,0.1,0,0.1c0,3.7,2.7,6.8,6.2,7.5
			c-0.7,0.2-1.3,0.3-2,0.3c-0.5,0-1,0-1.5-0.1c1,3,3.8,5.2,7.2,5.3c-2.6,2-6,3.3-9.6,3.3c-0.6,0-1.2,0-1.8-0.1
			c3.4,2.2,7.5,3.4,11.9,3.4c14.2,0,22-11.6,22-21.7c0-0.3,0-0.7,0-1c1.5-1.1,2.8-2.4,3.9-3.9c-1.4,0.6-2.9,1-4.4,1.2
			C46.1,18.9,47.4,17.4,48,15.6z"/>
	</g>
</g>
</svg>
