<?xml version="1.0" encoding="utf-8"?>
<!-- Generator: Adobe Illustrator 24.0.3, SVG Export Plug-In . SVG Version: 6.00 Build 0)  -->
<svg version="1.1" id="Layer_1" xmlns="http://www.w3.org/2000/svg" xmlns:xlink="http://www.w3.org/1999/xlink" x="0px" y="0px"
	 viewBox="0 0 1920 611.9" style="enable-background:new 0 0 1920 611.9;" xml:space="preserve">
<style type="text/css">
	.st0{fill:#F8F6F8;}
	.st1{clip-path:url(#SVGID_2_);}
	.st2{fill:url(#SVGID_3_);}
	.st3{fill:url(#SVGID_4_);}
	.st4{fill:url(#SVGID_5_);}
	.st5{fill:url(#SVGID_6_);}
	.st6{fill:url(#SVGID_7_);}
	.st7{fill:url(#SVGID_8_);}
	.st8{fill:url(#SVGID_9_);}
	.st9{fill:url(#SVGID_10_);}
</style>
<g>
	<g>
		<g>
			<g>
				<g>
					<g>
						<g>
							<g>
								<g>
									<g>
										<rect x="0" y="0" class="st0" width="1920" height="611.9"/>
									</g>
								</g>
							</g>
						</g>
					</g>
				</g>
			</g>
		</g>
		<g>
			<defs>
				<rect id="SVGID_1_" x="0" y="0" width="1920" height="611.9"/>
			</defs>
			<clipPath id="SVGID_2_">
				<use xlink:href="#SVGID_1_"  style="overflow:visible;"/>
			</clipPath>
			<g class="st1">
				<g>
					
						<image style="overflow:visible;opacity:0.8;" width="1081" height="1771" xlink:href="B356FEA35DB56EE4.png"  transform="matrix(1 0 0 1 1295.4655 -912.5425)">
					</image>
					<g>
						
							<linearGradient id="SVGID_3_" gradientUnits="userSpaceOnUse" x1="466.0244" y1="-129.1788" x2="-1144.6029" y2="224.9642" gradientTransform="matrix(-1 0 0 1 1841.9343 0)">
							<stop  offset="0" style="stop-color:#FCCF1F"/>
							<stop  offset="1" style="stop-color:#FE3063"/>
						</linearGradient>
						<path class="st2" d="M1574.8,681.2c-5.6-38.9-31.4-72.6-69.2-83.6c-104.2-30.3-176.6-134.1-160.4-248.8
							c16.1-113.2,110.2-188.8,212.8-194.1c61.3-3.1,118.1-36.2,145.4-91.2c1.2-2.5,2.5-4.9,3.8-7.4c32.2-59,24.2-131.9-17.6-184.5
							c-97.3-122.4-99-301.1-2.1-425.4c38.3-49,59-110,52.8-171.9c-7.5-74.2,52.9-151.3,142.6-138.6
							c79.6,11.3,86.8,73.6,120.3,132.8c47.1,82.9,160,96.5,221,170.8c60.7,74,88.1,171.6,74.6,266.4
							c-9.9,70.1-41.7,136.2-90.4,187.6c-45.6,48.2-122.5,74.7-126.6,150.4c-1.7,31.2,9.3,61.7,11.8,92.9
							c5.9,73.9-66.7,151.7-22.7,219.1c13.5,20.7,18.9,47,12.2,73.6c-11.1,44.3-50.2,48-95.6,43.1c-84.1-9.1-61.5-52.6-102.2-96.9
							c-13.7-14.9-36.2-22.2-55.3-15.3c-59.8,21.5-82.9,158.6-61,208.7c10.1,23.1,28.4,41.9,38,65.2c32.5,79.4-47.9,158.7-126,150
							C1623.3,777.7,1582.3,732.9,1574.8,681.2z"/>
					</g>
				</g>
				<g>
					
						<image style="overflow:visible;opacity:0.8;" width="2358" height="1816" xlink:href="B356FEA35DB56EE5.png"  transform="matrix(1 0 0 1 236.1939 -655.814)">
					</image>
					<g>
						
							<linearGradient id="SVGID_4_" gradientUnits="userSpaceOnUse" x1="489.3922" y1="-3.0327" x2="651.9211" y2="1147.1707" gradientTransform="matrix(-0.8677 0.497 0.497 0.8677 1740.7391 -397.8931)">
							<stop  offset="0" style="stop-color:#FFEE00"/>
							<stop  offset="0.1142" style="stop-color:#FFDC00"/>
							<stop  offset="0.3551" style="stop-color:#FFBC00"/>
							<stop  offset="0.5882" style="stop-color:#FFA600"/>
							<stop  offset="0.8078" style="stop-color:#FF9800"/>
							<stop  offset="1" style="stop-color:#FF9300"/>
						</linearGradient>
						<path class="st3" d="M708.2,708.7c70.4-61.1,129.9-148.8,85.6-213c-1.1-1.6-2.1-3.1-3.2-4.7c-29.5-44.2-87.8-56.3-133.9-30
							c-107.1,61.2-253.2,33.9-325.4-80.6c-69.8-110.6-41.3-254.3,66.2-328.7c90-62.3,204.5-55.2,284.9,5.7
							c41.3,31.3,114-6.3,147.6-45.8C919-93.2,1047.1-110,1180.5-80.8c68.8,15,137.2-30.7,149.9-99.9
							c26.2-142.7,112.7-273.2,248.4-351c163.6-93.7,357.1-86.9,509.4,1.1c48.4,27.9,108.9,21.6,150.3-15.9
							c69.1-62.7,190.1-57.8,245,38c50.3,87.9,6,188.3-73.5,223.9c-49.7,22.3-78,76-70.9,130c26,199.2-67.5,403.6-252.6,509.6
							c-151.4,86.7-328.5,87.3-474.7,17.2c-63.7-30.5-141.2-2.9-169.8,61.8C1395.5,539.2,1302,618.2,1190,646
							c-52.7,13-84.1,65.1-72.8,118.2c19.5,90.7-19,189.8-106.8,240.1c-61,34.9-131.6,37.8-192.2,13.8
							c-41.8-16.5-89.3-10.8-123.8,18c-67.2,56.1-178.2,46.5-228.2-40.7C397.1,874.8,499,808.7,599,776.7
							C628.7,767.2,670,741.8,708.2,708.7z"/>
					</g>
				</g>
				<g>
					
						<image style="overflow:visible;opacity:0.8;" width="1371" height="809" xlink:href="B356FEA35DB56EE3.png"  transform="matrix(1 0 0 1 -98.2528 96.7393)">
					</image>
					<g>
						
							<linearGradient id="SVGID_5_" gradientUnits="userSpaceOnUse" x1="1201.1637" y1="74.2833" x2="1364.4352" y2="1049.9344" gradientTransform="matrix(-1 0 0 1 1841.9343 0)">
							<stop  offset="0" style="stop-color:#FCCF1F"/>
							<stop  offset="1" style="stop-color:#FE3063"/>
						</linearGradient>
						<path class="st4" d="M48.9,307c38.3-1.8,75.5,15.7,98.7,46.7c19.2,25.6,14.3,96.8,35.3,110c12.1,7.6,28-0.1,38.7-9.6
							c18.3-16.2,34.7-26.4,58.6-31.7c24-5.4,54.8,5.7,76.4-7.3c27.3-16.3,28.9-74.9,43.3-102.6c18.3-35.1,45.3-65.2,77.6-87.4
							c66-45.2,137.9-48.3,211.7-27.6c60.6,17,78.2-63.8,140.2-65.4c52.2-1.4,97.3,40.4,100.6,93.3c2.4,39.3-17.6,74.4-48.7,92.7
							c-24.7,14.6-38.3,43.1-34.1,71.8c0.1,0.5,0.1,0.9,0.2,1.4c10.5,75.4,155.3,96.2,196.1,41.7c19.9-26.6,53-42.4,89.4-37.4
							c43.8,6,78.3,42.9,82.1,87.7c3.9,45.6-22.8,84.3-60.5,99.4c-27.5,11-44.8,38.1-44.7,68.1c0.3,104.9-83.2,197.6-194.2,197.6
							c-85.9,0-158.7-56.7-184.3-135.2c-11.2-34.3-44.8-54.9-79.8-48.8c-40.7,7.1-82.2,3-121.1-10.9c-32.2-11.5-59.5-32.5-94.3-13.2
							c-14.5,8-25.6,21.1-38.5,31.6c-57.6,47.1-145.3,38.2-192.5-19.3c-9-11-22.9-16.8-36.8-14.4c-84.9,14.4-74.9-74-132.1-95.1
							c-58.5-21.6-105.2-59-97.9-130.3C-55.8,355.2-8.2,309.7,48.9,307z"/>
					</g>
				</g>
				<g>
					
						<image style="overflow:visible;opacity:0.8;" width="1532" height="756" xlink:href="B356FEA35DB56EEC.png"  transform="matrix(1 0 0 1 -736.3679 -119.3758)">
					</image>
					<g>
						
							<linearGradient id="SVGID_6_" gradientUnits="userSpaceOnUse" x1="1713.8301" y1="-7.2443" x2="2153.0198" y2="1136.5795" gradientTransform="matrix(-1 0 0 1 1841.9343 0)">
							<stop  offset="0" style="stop-color:#FCCF1F"/>
							<stop  offset="1" style="stop-color:#FCFB4D"/>
						</linearGradient>
						<path class="st5" d="M-546.7,73.2c42.9,11.6,88.7-0.6,117.3-34.6c59-70,147.3-114.5,246-114.5c144.6,0,266.8,95.5,307.3,226.9
							c5.8,18.9,22.6,32.6,42.3,34c0.3,0,0.6,0,0.8,0.1c23.8,1.7,45.9-13.8,50.3-37.3c17.2-92,97.9-161.9,195.2-161.9
							c116.2,0,200.3,96.5,198.8,201.8c-0.6,39.7,21,75.5,55.7,94.8c35.5,19.8,59.6,57.9,59.3,101.6
							c-0.5,62.2-52.1,113.9-114.3,114.3c-43.7,0.3-81.8-23.8-101.6-59.3c-19-34.2-54-56.9-93-55.9c-0.7,0-1.3,0-2,0
							c-40.3,0.6-77,23.9-93.2,60.8C280,539.6,160,582.1,66.7,531.7c-32.2-17.4-70.9-16.3-103.3,0.5
							c-166.3,86.2-374.5,7.6-444.3-163.2c-16.4-40.2-54.5-68.7-97.9-69.4c-58.7-0.9-114.1-47.1-114.1-115.2
							C-692.9,101-613.7,55.1-546.7,73.2z"/>
					</g>
				</g>
				<g>
					
						<image style="overflow:visible;opacity:0.8;" width="180" height="180" xlink:href="B356FEA35DB56EEF.png"  transform="matrix(1 0 0 1 1829.7974 408.7894)">
					</image>
					<g>
						
							<linearGradient id="SVGID_7_" gradientUnits="userSpaceOnUse" x1="-106.6813" y1="340.3879" x2="-18.2472" y2="707.7285" gradientTransform="matrix(-1 0 0 1 1841.9343 0)">
							<stop  offset="0" style="stop-color:#FCCF1F"/>
							<stop  offset="1" style="stop-color:#FE3063"/>
						</linearGradient>
						<ellipse class="st6" cx="1912.3" cy="491.1" rx="56.7" ry="56.7"/>
					</g>
				</g>
				<g>
					
						<image style="overflow:visible;opacity:0.8;" width="100" height="100" xlink:href="B356FEA35DB56EED.png"  transform="matrix(1 0 0 1 638.3922 49.3843)">
					</image>
					<g>
						
							<linearGradient id="SVGID_8_" gradientUnits="userSpaceOnUse" x1="1149.1051" y1="58.9027" x2="1197.9183" y2="261.6648" gradientTransform="matrix(-1 0 0 1 1841.9343 0)">
							<stop  offset="0" style="stop-color:#FCCF1F"/>
							<stop  offset="1" style="stop-color:#FE3063"/>
						</linearGradient>
						<ellipse class="st7" cx="684.1" cy="95.1" rx="31.3" ry="31.3"/>
					</g>
				</g>
				<g>
					
						<image style="overflow:visible;opacity:0.8;" width="153" height="154" xlink:href="B356FEA35DB56EE2.png"  transform="matrix(1 0 0 1 43.5683 -70.4396)">
					</image>
					<g>
						
							<linearGradient id="SVGID_9_" gradientUnits="userSpaceOnUse" x1="1714.6544" y1="-56.0451" x2="1790.1379" y2="257.5009" gradientTransform="matrix(-1 0 0 1 1841.9343 0)">
							<stop  offset="0" style="stop-color:#FCCF1F"/>
							<stop  offset="1" style="stop-color:#FE3063"/>
						</linearGradient>
						<ellipse class="st8" cx="113.8" cy="0" rx="48.4" ry="48.4"/>
					</g>
				</g>
				<g>
					
						<image style="overflow:visible;opacity:0.8;" width="153" height="154" xlink:href="B356FEA35DB56EE6.png"  transform="matrix(1 0 0 1 381.5683 446.5604)">
					</image>
					<g>
						
							<linearGradient id="SVGID_10_" gradientUnits="userSpaceOnUse" x1="1359.1813" y1="388.8775" x2="1434.6646" y2="702.4221" gradientTransform="matrix(-1 0 0 1 1841.9343 0)">
							<stop  offset="0" style="stop-color:#FCFB4D"/>
							<stop  offset="1" style="stop-color:#F7A217"/>
						</linearGradient>
						<path class="st9" d="M500.1,517.5c0,26.7-21.7,48.4-48.4,48.4c-26.7,0-48.4-21.7-48.4-48.4c0-26.7,21.7-48.4,48.4-48.4
							C478.5,469.1,500.1,490.8,500.1,517.5z"/>
					</g>
				</g>
			</g>
		</g>
	</g>
</g>
</svg>
