<?xml version="1.0" encoding="utf-8"?>
<!-- Generator: Adobe Illustrator 22.0.1, SVG Export Plug-In . SVG Version: 6.00 Build 0)  -->
<svg version="1.1" id="Layer_1" xmlns="http://www.w3.org/2000/svg" xmlns:xlink="http://www.w3.org/1999/xlink" x="0px" y="0px"
	 viewBox="0 0 60.3 60.3" style="enable-background:new 0 0 60.3 60.3;" xml:space="preserve">
<style type="text/css">
	.st0{fill:#FF1B4A;}
	.st1{fill:#FFFFFF;}
</style>
<g>
	<path class="st0" d="M60.3,30.1c0,16.6-13.5,30.1-30.1,30.1C13.5,60.3,0,46.8,0,30.1C0,13.5,13.5,0,30.1,0
		C46.8,0,60.3,13.5,60.3,30.1z"/>
	<g>
		<path class="st1" d="M40.2,36.7c-0.3,0-0.5,0.1-0.7,0.3c-0.1,0.2-0.2,0.5-0.2,0.9v1h1.7v-1c0-0.4-0.1-0.7-0.2-0.9
			C40.7,36.8,40.5,36.7,40.2,36.7z"/>
		<g>
			<path class="st1" d="M33.7,36.6c-0.1,0-0.3,0-0.4,0.1c-0.1,0.1-0.3,0.2-0.4,0.3v6.1c0.2,0.2,0.3,0.3,0.5,0.3
				c0.1,0.1,0.3,0.1,0.5,0.1c0.2,0,0.4-0.1,0.5-0.2c0.1-0.1,0.2-0.4,0.2-0.7v-5c0-0.3-0.1-0.6-0.2-0.7
				C34.1,36.7,33.9,36.6,33.7,36.6z"/>
			<g>
				<path class="st1" d="M42.1,28.9H18.2c-3.8,0-6.9,3.5-6.9,7.4v5.7c0,3.9,3.1,7,6.9,7h23.9c3.8,0,6.9-3.2,6.9-7v-5.7
					C49,32.4,45.9,28.9,42.1,28.9z M23.2,33.7H21V45h-2.1V33.7h-2.2v-1.9h6.6V33.7z M29.5,45h-1.9v-1.1c-0.4,0.4-0.7,0.7-1.1,0.9
					c-0.4,0.2-0.7,0.3-1.1,0.3c-0.4,0-0.8-0.1-1-0.4c-0.2-0.3-0.3-0.7-0.3-1.3v-8.2H26v7.5c0,0.2,0,0.4,0.1,0.5
					c0.1,0.1,0.2,0.2,0.4,0.2c0.1,0,0.3-0.1,0.5-0.2c0.2-0.1,0.4-0.3,0.6-0.5v-7.4h1.9V45z M36.4,42.9c0,0.7-0.1,1.2-0.4,1.6
					c-0.3,0.4-0.7,0.6-1.3,0.6c-0.4,0-0.7-0.1-1-0.2c-0.3-0.1-0.6-0.4-0.8-0.7V45h-1.9V31.7h1.9V36c0.3-0.3,0.5-0.5,0.8-0.7
					c0.3-0.2,0.6-0.2,0.9-0.2c0.6,0,1.1,0.2,1.4,0.6c0.3,0.4,0.5,1,0.5,1.8V42.9z M43,40.3h-3.6v1.8c0,0.5,0.1,0.9,0.2,1.1
					c0.1,0.2,0.3,0.3,0.6,0.3c0.3,0,0.5-0.1,0.7-0.3c0.1-0.2,0.2-0.5,0.2-1.1v-0.4h2v0.5c0,1-0.2,1.8-0.7,2.3
					c-0.5,0.5-1.2,0.8-2.1,0.8c-0.9,0-1.5-0.3-2-0.8c-0.5-0.5-0.7-1.3-0.7-2.2v-4.4c0-0.8,0.3-1.5,0.8-2.1c0.5-0.5,1.2-0.8,2.1-0.8
					c0.9,0,1.5,0.2,2,0.7c0.5,0.5,0.7,1.2,0.7,2.1V40.3z"/>
				<polygon class="st1" points="18.4,11.3 21.3,20.1 21.3,25.9 23.7,25.9 23.7,19.8 26.5,11.3 24.1,11.3 22.6,17.1 22.4,17.1 
					20.9,11.3 				"/>
				<path class="st1" d="M27.6,15.6c-0.6,0.5-0.9,1.2-0.9,2v5.6c0,0.9,0.3,1.6,0.8,2.2c0.6,0.5,1.3,0.8,2.3,0.8c1,0,1.7-0.3,2.3-0.8
					c0.6-0.5,0.8-1.2,0.8-2.2v-5.5c0-0.8-0.3-1.5-0.8-2c-0.6-0.5-1.3-0.8-2.2-0.8C28.9,14.9,28.2,15.1,27.6,15.6z M30.8,17.5v5.9
					c0,0.3-0.1,0.5-0.3,0.7c-0.2,0.2-0.4,0.2-0.7,0.2c-0.3,0-0.5-0.1-0.7-0.2c-0.2-0.2-0.2-0.4-0.2-0.7v-5.9c0-0.2,0.1-0.4,0.2-0.6
					c0.2-0.1,0.4-0.2,0.6-0.2c0.3,0,0.5,0.1,0.7,0.2C30.7,17.1,30.8,17.3,30.8,17.5z"/>
				<path class="st1" d="M40.8,25.9V15.1h-2.1v8.2c-0.2,0.2-0.4,0.4-0.7,0.6c-0.2,0.2-0.4,0.2-0.6,0.2c-0.2,0-0.3-0.1-0.4-0.2
					c-0.1-0.1-0.1-0.3-0.1-0.5v-8.2h-2.1v9c0,0.6,0.1,1.1,0.4,1.4c0.3,0.3,0.6,0.5,1.1,0.5c0.4,0,0.8-0.1,1.2-0.3
					c0.4-0.2,0.8-0.6,1.2-1v1.2H40.8z"/>
			</g>
		</g>
	</g>
</g>
</svg>
